<?xml version="1.0" encoding="UTF-8"?>
<svg width="320px" height="65px" viewBox="0 0 469 65" preserveAspectRation="none" version="1.1" xmlns="http://www.w3.org/2000/svg" xmlns:xlink="http://www.w3.org/1999/xlink">
    <!-- Generator: Sketch 54 (76480) - https://sketchapp.com -->
    <title>Path 3</title>
    <desc>Created with Sketch.</desc>
    <g id="PL" stroke="none" stroke-width="1" fill="none" fill-rule="evenodd">
        <g id="Icons" transform="translate(-485.000000, -4745.000000)" fill="#68748F">
            <path d="M689.71704,4808.73738 C692.227154,4782.45977 704.094031,4769.32096 725.317672,4769.32096 C746.541312,4769.32096 758.582656,4782.45977 761.441703,4808.73738 L775.536611,4810 C777.681943,4780.85892 788.916842,4766.28837 809.241307,4766.28837 C829.565772,4766.28837 841.369353,4780.43804 844.652052,4808.73738 L861.980714,4808.73738 C862.985274,4784.14767 872.277455,4771.85281 889.857258,4771.85281 C907.43706,4771.85281 918.989502,4780.17373 924.514583,4796.81557 L934.309044,4796.81557 C934.970519,4787.32571 936.226219,4780.58838 938.076145,4776.6036 C939.214342,4774.15189 950.351025,4774.14334 953.130866,4771.85281 C954.289711,4770.89795 954.289711,4763.83553 953.130866,4750.66556 C824.425551,4746.14412 741.370248,4744.32896 703.964959,4745.22006 C660.369023,4746.25865 587.722064,4748.07382 486.024082,4750.66556 C484.658639,4762.34856 484.658639,4768.56703 486.024082,4769.32096 C491.108004,4772.12804 501.659777,4775.19349 504.106164,4777.60407 C507.53813,4780.98581 510.04953,4787.38965 511.640365,4796.81557 L522.941667,4796.81557 C525.453067,4776.46411 535.498669,4766.28837 553.078471,4766.28837 C570.658274,4766.28837 581.206155,4778.23811 584.722116,4802.13759 L605.064458,4802.36898 C610.681255,4778.31524 621.81361,4766.28837 638.461523,4766.28837 C655.109436,4766.28837 667.561279,4780.48649 675.817052,4808.88272 L689.71704,4808.73738 Z" id="Path-3"></path>
        </g>
    </g>
</svg>