<?xml version="1.0" encoding="UTF-8"?>
<svg width="404px" height="476px" viewBox="0 0 404 476" version="1.1" xmlns="http://www.w3.org/2000/svg" xmlns:xlink="http://www.w3.org/1999/xlink">
    <!-- Generator: Sketch 57.1 (83088) - https://sketch.com -->
    <title>Group</title>
    <desc>Created with Sketch.</desc>
    <g id="Page-1" stroke="none" stroke-width="1" fill="none" fill-rule="evenodd">
        <g id="1736944037-vector" transform="translate(-1377.000000, -155.000000)">
            <g id="Group" transform="translate(1377.000000, 154.973849)">
                <path d="M40.15,274.536151 C39.15,274.536151 38.35,273.732151 38.35,272.741151 L38.35,241.111151 C38.35,240.119151 39.15,239.314151 40.15,239.314151 C41.14,239.314151 41.94,240.119151 41.94,241.111151 L41.94,272.741151 C41.94,273.732151 41.14,274.536151 40.15,274.536151" id="Fill-390" fill="#36303A"></path>
                <path d="M20.59,430.406151 L20.43,430.399151 C19.44,430.310151 18.71,429.436151 18.8,428.450151 L29.77,306.309151 C29.86,305.320151 30.74,304.597151 31.73,304.680151 C32.71,304.769151 33.44,305.642151 33.35,306.629151 L22.38,428.770151 C22.29,429.704151 21.51,430.406151 20.59,430.406151" id="Fill-391" fill="#36303A"></path>
                <path d="M42.95,378.317151 L42.83,378.313151 C41.84,378.252151 41.09,377.400151 41.15,376.409151 L46.64,287.797151 C46.7,286.808151 47.55,286.047151 48.54,286.116151 C49.53,286.177151 50.29,287.029151 50.23,288.020151 L44.74,376.632151 C44.68,377.583151 43.89,378.317151 42.95,378.317151" id="Fill-392" fill="#36303A"></path>
                <path d="M362.1,274.536151 C361.11,274.536151 360.3,273.732151 360.3,272.741151 L360.3,241.111151 C360.3,240.119151 361.11,239.314151 362.1,239.314151 C363.09,239.314151 363.9,240.119151 363.9,241.111151 L363.9,272.741151 C363.9,273.732151 363.09,274.536151 362.1,274.536151" id="Fill-393" fill="#36303A"></path>
                <path d="M381.65,430.406151 C380.74,430.406151 379.95,429.704151 379.87,428.770151 L368.89,306.629151 C368.8,305.642151 369.53,304.769151 370.52,304.680151 C371.49,304.597151 372.38,305.320151 372.47,306.309151 L383.45,428.450151 C383.53,429.436151 382.8,430.310151 381.82,430.399151 L381.65,430.406151" id="Fill-394" fill="#36303A"></path>
                <path d="M359.3,378.317151 C358.36,378.317151 357.57,377.583151 357.51,376.632151 L352.02,288.020151 C351.96,287.029151 352.71,286.177151 353.7,286.116151 C354.72,286.055151 355.54,286.809151 355.6,287.797151 L361.09,376.409151 C361.15,377.400151 360.4,378.252151 359.41,378.313151 L359.3,378.317151" id="Fill-395" fill="#36303A"></path>
                <path d="M400.64,309.858151 L3.23,309.858151 C1.24,309.858151 0.13,307.595151 1.33,306.014151 L10.07,294.494151 L10.98,293.297151 L22.5,278.125151 L23.41,276.928151 L31.01,266.905151 C31.47,266.306151 32.17,265.959151 32.93,265.959151 L370.95,265.959151 C371.7,265.959151 372.41,266.306151 372.85,266.905151 L381.38,278.125151 L392.9,293.297151 L393.81,294.494151 L402.55,306.014151 C403.75,307.595151 402.62,309.858151 400.64,309.858151" id="Fill-396" fill="#6F5E61"></path>
                <path d="M370.68,151.650151 L370.68,247.267151 C370.68,248.584151 369.61,249.661151 368.29,249.661151 L33.96,249.661151 C32.64,249.661151 31.56,248.584151 31.56,247.267151 L31.56,151.650151 C31.56,150.321151 32.64,149.255151 33.96,149.255151 L368.29,149.255151 C369.61,149.255151 370.68,150.321151 370.68,151.650151" id="Fill-397" fill="#6F5E61"></path>
                <polygon id="Fill-398" fill="#FFFFFF" points="31.56 173.947151 370.68 173.947151 370.68 172.749151 31.56 172.749151"></polygon>
                <polygon id="Fill-399" fill="#FFFFFF" points="31.56 199.093151 370.68 199.093151 370.68 197.895151 31.56 197.895151"></polygon>
                <polygon id="Fill-400" fill="#FFFFFF" points="31.56 224.240151 370.68 224.240151 370.68 223.042151 31.56 223.042151"></polygon>
                <polyline id="Fill-401" fill="#FFFFFF" points="381.38 278.125151 22.5 278.125151 23.41 276.928151 380.47 276.928151 381.38 278.125151"></polyline>
                <polyline id="Fill-402" fill="#FFFFFF" points="393.81 294.494151 10.07 294.494151 10.98 293.297151 392.9 293.297151 393.81 294.494151"></polyline>
                <path d="M183.82,44.1571511 C183.72,44.1391511 183.62,44.1211511 183.52,44.1031511 C183.1,37.0731511 182.78,29.0471511 178.44,23.6951511 C176.98,21.8951511 175.1,20.5571511 173.07,19.4891511 C175.01,19.7281511 176.92,19.6461511 178.69,18.5741511 C181.25,17.0271511 181.18,14.1611511 179.05,12.2871511 C178.58,11.8691511 178.05,11.5131511 177.5,11.1841511 C178.26,8.93915108 178.17,6.45015108 175.35,5.68115108 C172.62,4.94015108 169.44,6.66815108 166.81,4.75715108 C166.88,4.42515108 167.04,4.14015108 167.29,3.90515108 C167.46,3.53515108 167.77,3.24415108 167.94,2.87115108 C168.27,2.14415108 168.45,1.82115108 168.04,1.10215108 C166.54,-1.49084892 160.63,1.19515108 158.83,2.02415108 C156.12,3.27115108 151.62,5.64615108 150.66,8.88215108 C149.85,10.0101511 149.38,11.3351511 149.51,12.9781511 C149.65,14.7221511 149.97,16.9511511 151.27,18.2401511 C151.05,18.4161511 150.83,18.5951511 150.61,18.7841511 C144.82,21.2031511 140.43,25.7231511 138.16,31.2751511 C136.59,33.0511511 135.4,35.0341511 134.78,37.5271511 C133.76,41.5751511 134.17,45.8541511 134.61,49.9501511 C134.69,50.7081511 135.89,50.7171511 135.8,49.9501511 C135.44,46.5151511 135.11,43.0261511 135.61,39.5901511 C135.85,38.0091511 136.29,36.6021511 136.92,35.3171511 C136.49,37.4051511 136.32,39.5841511 136.47,41.8191511 C136.5,42.1511511 136.74,42.3311511 137,42.3751511 C139.25,46.5591511 148.33,46.0711511 152.11,45.6251511 C157.04,45.0431511 161.91,42.7371511 166.87,42.7511511 C171.97,42.7651511 177.33,44.1791511 182.39,45.1091511 C182.46,46.1781511 182.53,47.2221511 182.62,48.2191511 C182.7,48.9791511 183.89,48.9861511 183.82,48.2191511 C183.73,47.2821511 183.66,46.3071511 183.6,45.3081511 C184.28,45.3241511 184.54,44.2791511 183.82,44.1571511" id="Fill-403" fill="#36303A"></path>
                <polyline id="Fill-404" fill="#915851" points="116.83 375.189151 128.83 417.349151 115.88 422.001151 95.35 379.014151 84.27 354.889151 116.83 375.189151"></polyline>
                <polyline id="Fill-405" fill="#915851" points="210.34 378.616151 204.07 422.001151 190.35 420.956151 189.17 373.334151 188.91 346.787151 210.34 378.616151"></polyline>
                <path d="M140.39,281.358151 L140.35,281.370151 C140.21,281.382151 140.07,281.406151 139.92,281.430151 C139.83,281.442151 139.72,281.454151 139.62,281.478151 C137.97,281.765151 133.91,282.496151 130.47,283.358151 C130.37,283.382151 130.26,283.418151 130.14,283.442151 C128.55,283.861151 127.1,284.304151 126.15,284.747151 C123.22,286.124151 120.2,287.322151 117.15,288.435151 C116.75,288.579151 116.36,288.723151 115.96,288.867151 C114.31,289.453151 112.66,290.028151 110.99,290.579151 C111.64,295.129151 111.63,299.691151 111.82,304.362151 C111.91,306.505151 112.28,308.529151 112.86,310.480151 C112.98,310.911151 113.11,311.331151 113.25,311.750151 C115.53,318.635151 119.85,324.682151 121.34,331.927151 C121.41,332.322151 121.48,332.705151 121.55,333.100151 C121.64,333.663151 121.71,334.226151 121.76,334.801151 C122.03,337.914151 121.86,346.153151 123.55,348.763151 C126.21,352.870151 127.94,356.750151 128.62,361.648151 C128.77,362.762151 128.91,363.875151 129.01,364.989151 C129.06,365.492151 129.11,366.006151 129.14,366.510151 C129.49,370.737151 129.59,375.023151 129.83,379.238151 C130.01,382.352151 130.19,385.465151 130.37,388.578151 C130.44,389.848151 130.63,391.237151 130.76,392.626151 C129.82,393.380151 128.86,394.135151 127.89,394.865151 C127.56,395.105151 127.25,395.344151 126.93,395.584151 C124.95,397.045151 122.91,398.433151 120.75,399.715151 C118,401.344151 114.46,402.684151 111.34,403.666151 C110.94,403.786151 110.56,403.906151 110.19,404.014151 C106.55,405.092151 103.71,405.666151 103.71,405.666151 C103.71,405.666151 98.17,393.369151 91.94,379.693151 C91.77,379.322151 91.59,378.951151 91.44,378.580151 C84.7,363.791151 77.33,347.757151 75.44,344.117151 C75.08,343.434151 74.68,342.632151 74.24,341.710151 C74.06,341.339151 73.87,340.944151 73.68,340.536151 C70.25,333.256151 65.04,320.994151 62.3,314.468151 C62.14,314.073151 61.98,313.714151 61.84,313.367151 C61.72,313.079151 61.61,312.816151 61.5,312.564151 C55.48,298.195151 55.44,295.081151 52.28,279.838151 C51.75,277.275151 51.44,274.904151 51.36,272.677151 C51.35,272.270151 51.33,271.863151 51.33,271.455151 C51.33,261.337151 56.27,254.523151 66.7,248.272151 C67.46,247.818151 68.23,247.363151 69.01,246.908151 L69.02,246.908151 C69.82,246.452151 70.63,246.010151 71.43,245.555151 C80.13,240.788151 89.31,236.945151 98.79,234.035151 C98.88,233.999151 98.99,233.975151 99.09,233.951151 C99.75,233.736151 100.41,233.544151 101.08,233.352151 C102.82,232.849151 104.6,232.370151 106.37,231.928151 C105.26,230.287151 104.29,228.491151 103.56,226.479151 C103.52,226.383151 103.48,226.287151 103.45,226.191151 C103.24,225.605151 103.94,225.293151 104.36,225.557151 C104.45,225.617151 104.55,225.724151 104.6,225.868151 C105.33,227.952151 106.33,229.891151 107.58,231.676151 C107.88,231.747151 108.07,232.059151 108.05,232.347151 C109.23,233.951151 110.64,235.388151 112.24,236.633151 C112.63,236.945151 113.04,237.244151 113.46,237.532151 L113.6,237.627151 C117.07,239.927151 121.22,240.896151 124.2,243.926151 L124.43,244.153151 C125.08,244.860151 125.7,245.626151 126.27,246.429151 C127.32,247.925151 128.25,249.542151 129.11,251.194151 C129.29,251.554151 129.48,251.913151 129.66,252.272151 C130.22,253.386151 130.76,254.499151 131.3,255.577151 C133.46,259.864151 135.44,264.235151 137.26,268.677151 C137.37,268.952151 137.55,269.312151 137.74,269.707151 C137.91,270.031151 138.09,270.378151 138.27,270.737151 C138.95,272.126151 139.65,273.706151 139.46,274.617151 C139.19,275.838151 140.39,281.358151 140.39,281.358151" id="Fill-406" fill="#DCA877"></path>
                <path d="M224.98,280.556151 C224.85,283.382151 224.7,286.076151 224.55,288.687151 C224.52,289.118151 224.5,289.537151 224.46,289.956151 C224,297.644151 223.42,304.637151 222.76,311.977151 C222.73,312.408151 222.69,312.827151 222.64,313.246151 C222.22,318.060151 221.76,323.042151 221.26,328.478151 C220.68,335.052151 220.04,341.626151 219.37,348.188151 C219.34,348.619151 219.29,349.038151 219.24,349.457151 C218.24,359.480151 217.16,369.491151 216.07,379.490151 L216.06,379.490151 C216.02,379.885151 215.97,380.292151 215.94,380.687151 C215.91,380.819151 215.9,380.951151 215.89,381.082151 C215.41,385.417151 214.93,389.740151 214.45,394.075151 C214.15,396.745151 214.04,399.619151 213.42,402.289151 C210.51,403.163151 207.53,403.786151 204.46,404.134151 C204.07,404.181151 203.66,404.229151 203.25,404.265151 C202.2,404.361151 201.15,404.421151 200.07,404.445151 C195.26,404.565151 194.01,404.325151 189.21,403.990151 C187.59,403.870151 186,403.714151 184.44,403.475151 C184.01,403.403151 183.58,403.331151 183.15,403.247151 C182.07,403.044151 181.01,402.792151 179.96,402.469151 C180.05,401.319151 180.28,400.170151 180.35,399.033151 C180.52,396.590151 180.28,394.147151 179.93,391.740151 C179.29,387.477151 178.01,383.382151 177.45,379.238151 C177.38,378.843151 177.33,378.436151 177.29,378.029151 C177.03,375.502151 177.09,372.940151 177.77,370.317151 C178.82,366.306151 179.11,362.450151 179.34,358.271151 C179.56,354.343151 176.73,350.452151 175.8,346.584151 L175.79,346.524151 C175.71,346.285151 175.68,346.033151 175.63,345.793151 C175.59,345.602151 175.57,345.422151 175.55,345.231151 C175.06,341.698151 175.59,338.142151 175.8,334.549151 C176.01,331.065151 176.68,320.228151 176.41,315.498151 C176.4,315.366151 176.4,315.223151 176.37,315.091151 C176.35,314.696151 176.31,314.288151 176.28,313.893151 C175.92,310.528151 175.06,307.223151 174.11,303.978151 C173.26,301.093151 172.28,297.991151 171.42,294.829151 C171.31,294.410151 171.2,294.003151 171.09,293.584151 C170.28,290.387151 169.63,287.118151 169.43,283.909151 C169.1,278.856151 169.87,273.934151 172.8,269.647151 C173.14,269.156151 173.5,268.665151 173.91,268.198151 C173.99,268.091151 174.07,267.983151 174.17,267.875151 C172,262.379151 172.06,255.972151 174.91,250.739151 C175.15,250.284151 175.41,249.853151 175.71,249.422151 C175.92,249.099151 176.13,248.787151 176.37,248.476151 C176.79,247.925151 177.25,247.387151 177.74,246.884151 C178.14,246.429151 178.6,245.997151 179.05,245.590151 L179.07,245.590151 C183.54,241.579151 189.71,239.208151 195.3,237.627151 C195.57,237.556151 195.83,237.472151 196.08,237.388151 C196.51,237.256151 196.92,237.112151 197.32,236.957151 C202.62,234.969151 204.75,232.263151 210.1,236.262151 C210.74,236.741151 211.35,237.244151 211.94,237.783151 C212.26,238.082151 212.58,238.382151 212.88,238.705151 C214.15,239.998151 215.3,241.435151 216.34,242.992151 C218.61,246.392151 220.35,250.344151 221.66,254.499151 C221.79,254.894151 221.92,255.290151 222.03,255.697151 C224.57,264.306151 225.3,273.623151 224.98,280.556151" id="Fill-407" fill="#DCA877"></path>
                <path d="M216.34,242.992151 C216.25,241.136151 216.03,239.292151 215.67,237.507151 C215.59,237.112151 215.49,236.717151 215.4,236.322151 C214.88,234.191151 214.14,232.143151 213.15,230.227151 C208.22,220.719151 197.06,217.175151 187.26,215.211151 C173.87,212.505151 160.34,213.199151 147.09,216.312151 C133.13,219.605151 118.44,224.790151 104.25,219.785151 C103.52,219.534151 103.21,220.683151 103.93,220.947151 C105.32,221.426151 106.7,221.809151 108.11,222.120151 C106.72,223.186151 105.47,224.335151 104.36,225.557151 C104.08,225.856151 103.81,226.168151 103.56,226.479151 C101.87,228.491151 100.53,230.670151 99.5,232.969151 C99.35,233.292151 99.22,233.616151 99.09,233.951151 L99.03,234.083151 C98.19,236.190151 97.62,238.382151 97.27,240.633151 L97.26,240.633151 C97.18,241.076151 97.13,241.531151 97.08,241.986151 C96.78,244.549151 96.78,247.171151 97.04,249.806151 C97.08,250.261151 97.14,250.716151 97.2,251.170151 C97.62,254.296151 98.38,257.409151 99.48,260.415151 C99.62,260.786151 99.75,261.169151 99.9,261.540151 C101.93,266.738151 104.88,271.587151 108.5,275.598151 C111.66,279.119151 115.57,282.113151 120.12,283.550151 C123.98,284.771151 126.81,284.268151 130.14,283.442151 C130.26,283.418151 130.37,283.382151 130.47,283.358151 C131.52,283.095151 132.61,282.795151 133.8,282.520151 C135.62,282.100151 137.59,281.742151 139.62,281.478151 C139.72,281.454151 139.83,281.442151 139.92,281.430151 C140.07,281.406151 140.21,281.382151 140.35,281.370151 C143,281.035151 145.74,280.855151 148.41,280.843151 C148.88,280.831151 149.33,280.831151 149.78,280.843151 C151.49,280.868151 153.14,280.951151 154.72,281.131151 C159.69,281.694151 164.55,282.867151 169.43,283.909151 C170.53,284.137151 171.63,284.364151 172.73,284.579151 C176.48,285.310151 180.3,285.801151 184.07,285.801151 C184.5,285.801151 184.93,285.789151 185.37,285.777151 C190.98,285.585151 196.43,284.184151 201.23,280.628151 C204.19,278.449151 206.64,275.730151 208.66,272.701151 C209.13,272.006151 209.58,271.288151 209.99,270.545151 C212.07,266.941151 213.57,262.990151 214.59,258.990151 C214.81,258.139151 215.01,257.265151 215.19,256.368151 C215.28,255.972151 215.36,255.565151 215.43,255.158151 C216.18,251.243151 216.56,247.075151 216.34,242.992151" id="Fill-408" fill="#DCA877"></path>
                <path d="M208.5,276.892151 C208.4,279.287151 208.27,281.681151 208.13,284.077151 C203.03,283.825151 197.87,284.448151 192.87,285.418151 C190.35,285.921151 187.82,286.483151 185.34,287.178151 C185.35,286.711151 185.37,286.244151 185.37,285.777151 C185.4,283.837151 185.33,281.885151 185.08,279.957151 C184.54,275.718151 183.1,271.695151 181.92,267.612151 C187.02,265.804151 191.64,263.049151 196.61,260.786151 C200.17,259.169151 203.88,258.152151 207.69,257.445151 C208.7,262.451151 208.79,267.587151 208.66,272.701151 C208.62,274.102151 208.56,275.503151 208.5,276.892151 Z M205.48,317.198151 C204.54,317.342151 203.57,317.438151 202.58,317.450151 C196.5,317.581151 190.6,315.989151 184.63,314.887151 C183.89,309.798151 183.72,304.757151 184.22,299.500151 C184.56,295.824151 185.05,292.136151 185.27,288.435151 C186.17,288.184151 187.08,287.944151 188,287.729151 C194.49,286.148151 201.33,284.891151 208.07,285.250151 C207.42,295.919151 206.44,306.565151 205.48,317.198151 Z M203.15,347.829151 C200.58,348.080151 198.06,348.512151 195.5,348.943151 C193.1,349.338151 190.84,349.530151 188.59,349.398151 C189.1,345.698151 189.38,341.986151 189.08,338.214151 C188.56,331.999151 186.87,325.975151 185.56,319.904151 C185.28,318.635151 185.04,317.366151 184.84,316.109151 C189.4,316.959151 193.94,318.084151 198.56,318.492151 C200.84,318.695151 203.12,318.695151 205.38,318.444151 C204.5,328.227151 203.66,338.022151 203.15,347.829151 Z M202.62,363.073151 C202.56,368.617151 202.58,374.149151 202.66,379.681151 C201.66,379.634151 200.67,379.586151 199.69,379.502151 C195,379.083151 190.44,378.005151 185.74,377.909151 L184.83,377.909151 C185.08,370.820151 185.95,363.899151 187.29,356.930151 C187.69,354.858151 188.07,352.775151 188.39,350.703151 C191.63,350.894151 194.85,350.260151 198.02,349.709151 C199.71,349.410151 201.4,349.230151 203.08,349.135151 C202.85,353.781151 202.68,358.427151 202.62,363.073151 Z M180.54,261.684151 C180.02,258.451151 178.98,256.032151 177.43,253.194151 C176.76,251.973151 176.18,250.716151 175.71,249.422151 C175.43,248.680151 175.19,247.925151 174.97,247.159151 C175.89,247.051151 176.82,246.968151 177.74,246.884151 C178.75,246.800151 179.77,246.716151 180.8,246.656151 C185.99,246.321151 191.18,245.997151 196.25,244.740151 C197.77,244.369151 199.28,243.914151 200.76,243.423151 C203.81,247.339151 206.18,251.302151 207.41,256.320151 C201.75,257.445151 196.55,259.373151 191.3,262.091151 C188.04,263.792151 184.83,265.181151 181.53,266.270151 C181.13,264.762151 180.78,263.241151 180.54,261.684151 Z M173.91,268.198151 C172.01,268.522151 170.06,268.737151 168.04,268.845151 C163.21,269.097151 158.38,268.929151 153.54,268.857151 C154.14,266.175151 154.66,263.468151 155.3,260.822151 C156.05,257.660151 156.87,254.523151 157.72,251.386151 C159.76,250.787151 161.78,250.093151 163.81,249.434151 C167.09,248.380151 170.41,247.734151 173.76,247.303151 C174.07,248.464151 174.44,249.614151 174.91,250.739151 C175.27,251.638151 175.69,252.524151 176.17,253.398151 C177.73,256.260151 178.86,258.762151 179.38,262.008151 C179.63,263.600151 179.98,265.133151 180.37,266.665151 C178.26,267.312151 176.12,267.827151 173.91,268.198151 Z M152.33,268.845151 C149.85,268.821151 147.37,268.821151 144.88,268.929151 C142.57,269.036151 140.16,269.396151 137.74,269.707151 C132.38,270.402151 126.94,270.869151 122.3,267.767151 C119.43,265.851151 117.17,263.169151 114.67,260.846151 C114.03,260.259151 113.37,259.684151 112.72,259.134151 C118.25,258.128151 123.41,255.876151 128.35,253.038151 C128.8,252.787151 129.23,252.535151 129.66,252.272151 C131,251.482151 132.33,250.667151 133.63,249.829151 C138.65,251.817151 143.87,253.098151 149.53,252.895151 C151.87,252.799151 154.15,252.356151 156.38,251.769151 C155.69,254.296151 155.02,256.834151 154.4,259.397151 C153.64,262.511151 153.05,265.696151 152.33,268.845151 Z M107.24,255.086151 C104.03,252.991151 100.6,251.230151 97.04,249.806151 C94.96,248.967151 92.83,248.261151 90.67,247.662151 C89.81,247.434151 88.95,247.219151 88.08,247.015151 L88.2,246.931151 C91.04,244.992151 93.96,243.303151 97.08,241.986151 C98.6,241.315151 100.17,240.753151 101.79,240.285151 C104.7,239.459151 107.67,238.848151 110.62,238.190151 C115.91,240.693151 121.04,243.758151 126.27,246.429151 C128.25,247.446151 130.22,248.404151 132.23,249.254151 C131.2,249.913151 130.16,250.572151 129.11,251.194151 C128.96,251.290151 128.81,251.386151 128.65,251.470151 C125.08,253.565151 121.39,255.494151 117.45,256.786151 C115.42,257.457151 113.41,257.805151 111.37,258.044151 C110.05,257.002151 108.67,256.008151 107.24,255.086151 Z M104.82,258.739151 C102.9,258.978151 101.1,259.553151 99.48,260.415151 C96.25,262.103151 93.7,264.905151 92.05,268.354151 C91.58,269.324151 91.21,270.282151 90.91,271.240151 C89.17,270.905151 87.4,270.641151 85.58,270.402151 C78.15,269.396151 69.79,268.605151 61.82,269.348151 C62.75,265.348151 64.87,261.732151 68.61,259.218151 C71.69,257.146151 75.18,255.733151 78.32,253.757151 C81.21,251.949151 83.95,249.913151 86.74,247.950151 C87.38,248.081151 88.01,248.225151 88.65,248.380151 C91.56,249.087151 94.43,250.021151 97.2,251.170151 C100.08,252.356151 102.87,253.769151 105.52,255.410151 C106.94,256.284151 108.25,257.242151 109.52,258.247151 C107.96,258.403151 106.41,258.535151 104.82,258.739151 Z M98.61,305.475151 C97.81,305.307151 97,305.152151 96.19,305.068151 C92,304.601151 87.88,305.774151 83.87,306.816151 C81.52,307.415151 79.19,308.050151 76.85,308.708151 C75.62,306.302151 74.23,303.978151 72.78,301.691151 C68.55,294.997151 63.74,288.423151 61.98,280.556151 C61.24,277.251151 61.05,273.790151 61.6,270.534151 C69.89,269.719151 78.7,270.653151 86.4,271.707151 C87.82,271.910151 89.21,272.114151 90.57,272.377151 C87.66,283.598151 94.2,294.950151 98.61,305.475151 Z M100.35,309.966151 C102.96,317.534151 103.72,325.568151 106.18,333.172151 C106.38,333.783151 106.62,334.394151 106.85,334.993151 C103.7,336.262151 100.57,337.639151 97.29,338.537151 C94.74,339.244151 92.17,339.483151 89.57,339.578151 C86.9,334.394151 84.11,329.257151 82.2,323.724151 C80.82,319.701151 79.91,315.522151 78.22,311.594151 C77.95,310.995151 77.67,310.396151 77.38,309.810151 C79.64,309.163151 81.9,308.553151 84.18,307.966151 C89.25,306.660151 94.02,305.559151 99.18,306.876151 C99.6,307.918151 99.99,308.948151 100.35,309.966151 Z M116.1,354.739151 C117.89,359.983151 118.42,365.492151 119.13,370.964151 L118.97,371.048151 C113.64,373.610151 108.03,375.323151 102.3,376.580151 C101.85,374.760151 101.42,372.940151 101,371.096151 C99.09,362.749151 96.56,354.619151 93.09,346.775151 C92.19,344.752151 91.21,342.764151 90.19,340.788151 C91.83,340.716151 93.46,340.584151 95.06,340.273151 C98.68,339.603151 102.08,338.214151 105.47,336.836151 C106.07,336.597151 106.67,336.357151 107.27,336.118151 C109.89,342.476151 113.88,348.200151 116.1,354.739151 Z M215.31,286.340151 C218.51,287.166151 221.52,288.495151 224.46,289.956151 C224.5,289.537151 224.52,289.118151 224.55,288.687151 C221.84,287.358151 219.09,286.136151 216.15,285.322151 C213.91,284.699151 211.63,284.352151 209.31,284.160151 C209.34,283.897151 209.35,283.645151 209.37,283.382151 C209.61,279.251151 209.94,274.904151 209.99,270.545151 C210.04,266.043151 209.82,261.540151 208.91,257.218151 C210.99,256.870151 213.09,256.595151 215.19,256.368151 C217.45,256.128151 219.71,255.924151 221.96,255.709151 L222.03,255.697151 C221.92,255.290151 221.79,254.894151 221.66,254.499151 C219.58,254.691151 217.5,254.907151 215.43,255.158151 C213.86,255.326151 212.31,255.529151 210.75,255.745151 C210.04,255.841151 209.34,255.960151 208.64,256.080151 C208.03,253.554151 207.18,251.087151 206,248.752151 C204.93,246.656151 203.55,244.788151 202.08,242.980151 C204.63,242.094151 207.15,241.112151 209.64,240.070151 C210.72,239.615151 211.81,239.160151 212.88,238.705151 C213.8,238.298151 214.74,237.903151 215.67,237.507151 C215.59,237.112151 215.49,236.717151 215.4,236.322151 C214.24,236.813151 213.09,237.304151 211.94,237.783151 C208.33,239.268151 204.76,240.681151 201.14,241.854151 C200.96,241.651151 200.79,241.435151 200.61,241.231151 C199.42,239.843151 198.35,238.418151 197.32,236.957151 C196.23,235.424151 195.18,233.867151 194.08,232.299151 C192.39,229.891151 190.31,228.227151 187.89,226.598151 C184.54,224.311151 180.3,221.055151 182,216.409151 C182.26,215.689694 181.1,215.379151 180.84,216.097151 C179.26,220.444151 182.38,224.156151 185.74,226.563151 C188.44,228.503151 191.09,230.131151 193.05,232.910151 C194.09,234.394151 195.05,235.903151 196.08,237.388151 C196.8,238.453151 197.57,239.495151 198.42,240.501151 C198.91,241.100151 199.39,241.675151 199.85,242.262151 C195.21,243.698151 190.43,244.764151 185.35,245.147151 C183.26,245.315151 181.16,245.434151 179.07,245.590151 L179.05,245.590151 C177.58,245.674151 176.13,245.794151 174.66,245.950151 C174.38,244.740151 174.17,243.494151 174.05,242.238151 C173.32,234.789151 174.9,227.317151 176.49,220.084151 C176.66,219.330151 175.5,219.007151 175.33,219.761151 C173.46,228.251151 171.61,237.507151 173.49,246.081151 C172.3,246.225151 171.12,246.392151 169.93,246.608151 C165.85,247.363151 162.01,248.895151 158.06,250.093151 C161.04,239.388151 164.63,228.850151 168.76,218.540151 C169.04,217.821151 167.89,217.510151 167.61,218.217151 C163.38,228.766151 159.74,239.531151 156.72,250.488151 C156.04,250.680151 155.34,250.859151 154.65,251.015151 C147.87,252.512151 141.26,251.290151 134.96,248.931151 C146.39,241.423151 156.63,232.131151 165.31,221.593151 C165.8,221.007151 164.96,220.157151 164.47,220.743151 C155.63,231.448151 145.25,240.848151 133.61,248.404151 C130.38,247.111151 127.24,245.542151 124.2,243.926151 C123.56,243.591151 122.94,243.255151 122.32,242.920151 C119.11,241.160151 115.85,239.364151 112.54,237.747151 C112.85,237.675151 113.15,237.603151 113.46,237.532151 C114.15,237.364151 114.85,237.184151 115.53,236.993151 C124.53,234.490151 132.23,228.886151 141.18,226.227151 C141.91,226.000151 141.6,224.850151 140.86,225.066151 C132.61,227.533151 125.47,232.598151 117.29,235.221151 C115.61,235.759151 113.93,236.214151 112.24,236.633151 C111.78,236.741151 111.33,236.849151 110.87,236.957151 C107.69,235.496151 104.44,234.226151 101.08,233.352151 C100.56,233.209151 100.02,233.089151 99.5,232.969151 C99.35,233.292151 99.22,233.616151 99.09,233.951151 C98.99,233.975151 98.88,233.999151 98.79,234.035151 L99.03,234.083151 C102.44,234.813151 105.72,235.987151 108.93,237.411151 C104.99,238.322151 101.05,239.208151 97.27,240.633151 L97.26,240.633151 C95.54,241.291151 93.87,242.058151 92.23,242.980151 C90.25,244.105151 88.35,245.375151 86.48,246.680151 C81.51,245.686151 76.46,245.303151 71.43,245.555151 C70.63,246.010151 69.82,246.452151 69.02,246.908151 C74.37,246.416151 79.8,246.668151 85.11,247.638151 C84.04,248.404151 82.96,249.171151 81.87,249.937151 C78.4,252.368151 74.8,254.391151 71.07,256.391151 C65.57,259.337151 61.75,263.468151 60.51,269.492151 C57.35,269.863151 54.27,270.486151 51.33,271.455151 C51.33,271.863151 51.35,272.270151 51.36,272.677151 C54.21,271.683151 57.21,271.048151 60.3,270.677151 C60.29,270.785151 60.27,270.881151 60.25,270.989151 C58.32,285.861151 69.34,296.710151 75.69,309.056151 C74.04,309.535151 72.37,310.001151 70.73,310.504151 C67.75,311.414151 64.78,312.372151 61.84,313.367151 C61.98,313.714151 62.14,314.073151 62.3,314.468151 C65.2,313.486151 68.12,312.552151 71.04,311.666151 C72.77,311.139151 74.5,310.636151 76.23,310.145151 C76.82,311.343151 77.35,312.552151 77.82,313.797151 C79.41,317.976151 80.32,322.371151 81.98,326.526151 C83.5,330.370151 85.39,334.035151 87.29,337.687151 C87.62,338.333151 87.94,338.968151 88.26,339.615151 C86.54,339.650151 84.8,339.639151 83.07,339.650151 C79.91,339.699151 76.78,340.046151 73.68,340.536151 C73.87,340.944151 74.06,341.339151 74.24,341.710151 C77.53,341.207151 80.84,340.860151 84.2,340.848151 C85.76,340.848151 87.33,340.860151 88.89,340.824151 C92.57,348.260151 95.74,355.864151 97.98,363.887151 C99.17,368.186151 100.17,372.509151 101.21,376.831151 C100.24,377.023151 99.28,377.215151 98.31,377.394151 C96.04,377.826151 93.74,378.208151 91.44,378.580151 C91.59,378.951151 91.77,379.322151 91.94,379.693151 C94.18,379.334151 96.42,378.963151 98.63,378.556151 C99.59,378.376151 100.54,378.185151 101.48,377.993151 C102.81,383.490151 104.23,388.962151 106.21,394.314151 C107.43,397.596151 108.78,400.817151 110.19,404.014151 C110.56,403.906151 110.94,403.786151 111.34,403.666151 C110.3,401.319151 109.3,398.961151 108.36,396.566151 C105.94,390.399151 104.14,384.136151 102.57,377.753151 C107.26,376.736151 111.85,375.418151 116.28,373.562151 C117.3,373.131151 118.31,372.677151 119.3,372.198151 C119.71,375.119151 120.19,378.029151 120.98,380.879151 C122.39,385.992151 124.52,390.854151 126.93,395.584151 C127.25,395.344151 127.56,395.105151 127.89,394.865151 C125.8,390.746151 123.94,386.531151 122.58,382.112151 C121.53,378.676151 120.94,375.167151 120.45,371.646151 C122.15,370.785151 123.83,369.874151 125.47,368.880151 C126.71,368.126151 127.91,367.288151 129.14,366.510151 C129.11,366.006151 129.06,365.492151 129.01,364.989151 C126.02,366.629151 123.18,368.773151 120.27,370.365151 C119.79,366.785151 119.39,363.193151 118.65,359.648151 C117.21,352.643151 113.71,346.740151 110.52,340.429151 C109.72,338.860151 109.05,337.267151 108.45,335.663151 C112.68,334.046151 117.18,332.717151 121.55,333.100151 C121.48,332.705151 121.41,332.322151 121.34,331.927151 C117.23,331.628151 112.98,332.669151 109.06,334.130151 C108.72,334.250151 108.37,334.394151 108.03,334.525151 C106.09,329.017151 104.99,323.293151 103.67,317.510151 C102.86,313.953151 101.73,310.552151 100.45,307.223151 C104.72,308.433151 109.08,309.930151 113.25,311.750151 C113.11,311.331151 112.98,310.911151 112.86,310.480151 C111.3,309.846151 109.72,309.247151 108.14,308.660151 C105.46,307.666151 102.7,306.541151 99.89,305.786151 C98.67,302.709151 97.33,299.667151 95.99,296.578151 C92.75,289.166151 89.75,280.772151 91.77,272.629151 C94.63,273.264151 97.38,274.198151 99.99,275.850151 C103.93,278.341151 107.96,281.095151 111.52,284.077151 C113.24,285.526151 114.72,287.142151 115.96,288.867151 C116.36,288.723151 116.75,288.579151 117.15,288.435151 C115.81,286.556151 114.24,284.807151 112.37,283.238151 C108.72,280.173151 104.62,277.371151 100.6,274.820151 C97.9,273.120151 95.05,272.150151 92.08,271.492151 C92.97,268.665151 94.51,265.983151 96.62,263.911151 C97.66,262.893151 98.75,262.115151 99.9,261.540151 C102.56,260.187151 105.51,259.852151 108.79,259.637151 C109.51,259.589151 110.21,259.505151 110.91,259.421151 C114,262.067151 116.82,264.965151 120.04,267.576151 C125.01,271.587151 130.35,271.743151 136.46,270.952151 C137.06,270.869151 137.67,270.797151 138.27,270.737151 C142.87,270.234151 147.44,270.090151 152.04,270.078151 C151.43,272.713151 150.72,275.311151 149.78,277.814151 C149.38,278.868151 148.93,279.886151 148.41,280.843151 C148.88,280.831151 149.33,280.831151 149.78,280.843151 C149.98,280.424151 150.18,279.981151 150.36,279.550151 C151.66,276.509151 152.53,273.324151 153.26,270.090151 C154.78,270.090151 156.32,270.102151 157.84,270.126151 C162.82,270.210151 167.85,270.246151 172.8,269.647151 C174.6,269.444151 176.38,269.144151 178.16,268.737151 C179.03,268.534151 179.88,268.294151 180.72,268.019151 C181.15,269.563151 181.62,271.096151 182.11,272.653151 C183.5,277.072151 184.05,281.382151 184.07,285.801151 C184.08,286.376151 184.07,286.962151 184.06,287.537151 C179.51,288.878151 175.14,290.710151 171.22,293.489151 L171.09,293.584151 C171.2,294.003151 171.31,294.410151 171.42,294.829151 C172.64,293.944151 173.89,293.093151 175.22,292.351151 C177.99,290.794151 180.97,289.693151 184,288.795151 C183.94,290.160151 183.84,291.549151 183.7,292.950151 C183.05,299.512151 182.2,305.978151 183.03,312.564151 C183.11,313.270151 183.22,313.965151 183.33,314.660151 C182.2,314.468151 181.07,314.288151 179.92,314.157151 C178.71,314.013151 177.5,313.929151 176.28,313.893151 C176.31,314.288151 176.35,314.696151 176.37,315.091151 C176.55,315.091151 176.72,315.091151 176.9,315.102151 C179.14,315.199151 181.34,315.510151 183.54,315.881151 C184.47,321.090151 185.88,326.215151 186.89,331.400151 C188.06,337.495151 188.14,343.303151 187.39,349.290151 C185.78,349.110151 184.19,348.727151 182.56,348.117151 C180.19,347.218151 177.91,346.141151 175.55,345.231151 C175.57,345.422151 175.59,345.602151 175.63,345.793151 C175.68,346.033151 175.71,346.285151 175.79,346.524151 L175.8,346.584151 C176.18,346.727151 176.56,346.883151 176.95,347.039151 C180.18,348.380151 183.34,350.009151 186.84,350.535151 C186.96,350.559151 187.09,350.559151 187.21,350.583151 C187.1,351.314151 186.99,352.056151 186.85,352.810151 C185.68,359.397151 184.34,365.887151 183.88,372.580151 C183.76,374.353151 183.67,376.137151 183.58,377.909151 C181.49,377.933151 179.39,378.017151 177.29,378.029151 C177.33,378.436151 177.38,378.843151 177.45,379.238151 C179.47,379.215151 181.51,379.142151 183.52,379.107151 C183.16,387.130151 183.14,395.188151 183.15,403.247151 C183.58,403.331151 184.01,403.403151 184.44,403.475151 C184.47,395.344151 184.54,387.214151 184.78,379.095151 C185.76,379.107151 186.74,379.119151 187.71,379.179151 C192.71,379.478151 197.58,380.651151 202.6,380.879151 L202.67,380.879151 C202.79,388.674151 203,396.470151 203.25,404.265151 C203.66,404.229151 204.07,404.181151 204.46,404.134151 C204.23,396.386151 204.05,388.650151 203.96,380.915151 C207.95,381.035151 211.95,380.891151 215.94,380.687151 C215.97,380.292151 216.02,379.885151 216.06,379.490151 C215.46,379.526151 214.86,379.550151 214.27,379.574151 C210.83,379.729151 207.4,379.825151 203.96,379.729151 C203.87,369.515151 203.94,359.301151 204.32,349.086151 C209.3,348.919151 214.24,349.410151 219.24,349.457151 C219.29,349.038151 219.34,348.619151 219.37,348.188151 C219.28,348.200151 219.19,348.188151 219.1,348.188151 C215.04,348.056151 210.98,347.601151 206.91,347.614151 C206.06,347.614151 205.21,347.661151 204.37,347.722151 C204.64,340.609151 205.08,333.495151 205.7,326.371151 C205.93,323.677151 206.18,320.994151 206.43,318.300151 C207.06,318.204151 207.69,318.108151 208.31,317.952151 C212.26,317.042151 215.95,315.270151 219.79,314.037151 C220.73,313.738151 221.67,313.474151 222.64,313.246151 C222.69,312.827151 222.73,312.408151 222.76,311.977151 C217.25,313.343151 212.1,315.989151 206.55,317.018151 C207.53,306.469151 208.57,295.919151 209.24,285.334151 C211.29,285.502151 213.31,285.825151 215.31,286.340151 L215.31,286.340151 Z" id="Fill-409" fill="#F8F0EC"></path>
                <path d="M186.12,44.3151511 C185.6,41.8781511 184.8,39.5201511 184.31,37.0701511 C183.98,35.3801511 183.67,33.6571511 182.86,32.1151511 C181.31,29.1641511 178.42,27.3621511 175.57,25.7981511 C174.71,25.1011511 173.79,24.4981511 172.99,24.0031511 C169.55,21.8961511 165.54,21.9171511 161.69,21.2421511 C157.95,20.5841511 155.32,20.0141511 151.62,21.4491511 C149.41,22.3031511 147.8,23.9001511 146.42,25.7221511 C142.51,27.2411511 138.64,29.2161511 136.35,32.8681511 C135.12,34.8261511 134.46,37.1051511 134.69,39.4201511 C134.91,41.5421511 135.19,43.0531511 134.54,45.1411511 C134.14,46.4381511 133.71,47.6601511 133.53,49.0211511 C133.19,51.7001511 133.85,53.8501511 134.65,56.3671511 C135.39,58.7161511 135.5,61.0821511 136.74,63.2611511 C139.73,68.4701511 144.01,73.0831511 148.51,77.0061511 C149.08,77.5111511 149.93,76.6671511 149.35,76.1601511 C146.65,73.8001511 144.16,71.2271511 141.9,68.4491511 C146.04,71.7381511 151.36,73.5101511 156.65,72.7641511 C161.05,72.1441511 165.39,70.8891511 169.68,69.7431511 C173.64,68.6831511 178.13,67.7361511 181.48,65.2241511 C184.35,63.0681511 185.56,59.8631511 186.07,56.3971511 C186.64,52.4871511 186.95,48.1991511 186.12,44.3151511" id="Fill-410" fill="#36303A"></path>
                <path d="M172.55,100.755151 C171.65,105.101151 159.24,109.137151 159.24,109.137151 C159.24,109.137151 147.71,102.251151 147.71,98.3601511 L147.71,80.5541511 L172.55,76.9611511 C172.55,76.9611511 172.67,79.5591511 172.78,83.0681511 C172.83,84.8411511 172.89,86.8401511 172.91,88.8521511 C173,93.7731511 172.96,98.8031511 172.55,100.755151" id="Fill-411" fill="#915851"></path>
                <path d="M160.71,92.2541511 C161.18,92.2981511 161.65,92.3081511 162.1,92.2461511 C163.63,92.0351511 165.2,91.5731511 166.56,90.8081511 C168.37,89.7851511 170.03,88.3431511 171.01,86.4881511 C171.59,85.3751511 171.97,84.1801511 172.49,83.0391511 C172.39,83.0291511 172.28,83.0211511 172.18,83.0081511 C167.85,82.4941511 163.54,82.1221511 159.17,82.3021511 C157.01,82.3981511 154.85,82.5411511 152.71,82.2541511 C151,82.0261511 149.37,80.8771511 147.71,80.6851511 L147.71,91.6301511 C147.93,91.7861511 148.17,91.9171511 148.44,92.0141511 C149.94,92.5881511 151.67,92.1691511 153.21,92.0371511 C154.69,91.9111511 156.18,91.8231511 157.67,91.8671511 C158.63,91.8961511 159.68,92.1581511 160.71,92.2541511" id="Fill-412" fill="#733832"></path>
                <path d="M172.4,30.3511511 C169.97,28.6891511 166.91,29.5241511 164.03,28.8351511 C160.07,27.8911511 155.89,27.3911511 151.94,28.3911511 C145.06,30.1361511 138.59,34.5951511 138.8,44.1431511 C139.1,57.1831511 139.19,71.8661511 144.72,79.6491511 C147.97,84.2071511 153.2,89.1091511 158.96,89.7851511 C173.51,91.4911511 180.54,72.0071511 181.4,60.6401511 C181.88,54.2041511 182.45,43.7431511 180.5,37.5891511 C179.48,34.3881511 176.44,33.8311511 173.95,31.5741511 C173.46,31.1281511 172.94,30.7221511 172.4,30.3511511" id="Fill-413" fill="#915851"></path>
                <path d="M151.41,58.0911511 L151.39,58.0501511 L151.37,57.9931511 C151.25,57.6901511 151.1,57.4351511 150.89,57.2911511 C150.62,57.1091511 150.27,57.0931511 149.79,57.3431511 C149.54,57.4781511 149.4,57.7121511 149.3,57.9371511 C148.8,59.0641511 148.87,62.1811511 150.51,62.2251511 C152.21,62.2701511 151.75,59.1341511 151.41,58.0911511" id="Fill-414" fill="#1A161C"></path>
                <path d="M169.76,58.0911511 L169.78,58.0501511 L169.8,57.9931511 C169.92,57.6901511 170.07,57.4351511 170.28,57.2911511 C170.55,57.1091511 170.9,57.0931511 171.38,57.3431511 C171.63,57.4781511 171.77,57.7121511 171.87,57.9371511 C172.37,59.0641511 172.3,62.1811511 170.66,62.2251511 C168.96,62.2701511 169.42,59.1341511 169.76,58.0911511" id="Fill-415" fill="#1A161C"></path>
                <path d="M164.84,66.9801511 C164.46,65.3641511 164.06,63.7511511 163.67,62.1371511 C163.49,61.3891511 162.34,61.7051511 162.52,62.4551511 C162.97,64.3311511 163.45,66.2041511 163.87,68.0871511 C164.12,69.1841511 164.7,70.4141511 163.94,71.3961511 C163.38,72.1181511 161.55,72.4171511 160.67,72.6841511 C159.93,72.9061511 160.25,74.0621511 160.99,73.8381511 C162.49,73.3851511 165.23,72.8481511 165.51,71.0341511 C165.71,69.8061511 165.12,68.1411511 164.84,66.9801511" id="Fill-416" fill="#733832"></path>
                <path d="M172.41,51.2911511 C170.63,51.2571511 166.22,51.4491511 166.12,53.9231511 C165.95,54.4591511 166.51,54.9561511 167.06,55.1131511 C168.55,55.5451511 170.2,54.9151511 171.73,54.9511511 C173.51,54.9911511 175.27,55.0811511 177.05,54.8731511 C179.21,54.6191511 177.86,52.7911511 176.67,52.1541511 C175.39,51.4751511 173.83,51.3181511 172.41,51.2911511" id="Fill-417" fill="#36303A"></path>
                <path d="M149.28,51.2911511 C151.05,51.2571511 155.46,51.4491511 155.56,53.9231511 C155.73,54.4591511 155.17,54.9561511 154.62,55.1131511 C153.13,55.5451511 151.48,54.9151511 149.95,54.9511511 C148.17,54.9911511 146.41,55.0811511 144.63,54.8731511 C142.47,54.6191511 143.82,52.7911511 145.01,52.1541511 C146.29,51.4751511 147.85,51.3181511 149.28,51.2911511" id="Fill-418" fill="#36303A"></path>
                <path d="M166.85,77.3541511 C166.3,76.2821511 163.82,77.7591511 160.62,77.6191511 C159.37,77.5651511 158.13,77.4311511 156.88,77.3621511 C156.43,77.3371511 153.78,76.9681511 154.5,77.9531511 C155.84,79.7951511 158.32,80.2141511 160.47,80.2431511 C163.81,80.2871511 167.41,78.4261511 166.85,77.3541511" id="Fill-419" fill="#733832"></path>
                <path d="M180.12,57.1551511 C180.12,57.1551511 181.55,55.4761511 184.02,58.1701511 C186.49,60.8651511 183.94,68.6481511 181.25,70.3691511 C178.55,72.0911511 176.23,71.3421511 176.46,71.0431511 C176.68,70.7441511 180.12,57.1551511 180.12,57.1551511" id="Fill-420" fill="#915851"></path>
                <path d="M139.81,57.1551511 C139.81,57.1551511 138.38,55.4761511 135.92,58.1701511 C133.45,60.8651511 135.99,68.6481511 138.68,70.3691511 C141.38,72.0911511 143.7,71.3421511 143.47,71.0431511 C143.25,70.7441511 139.81,57.1551511 139.81,57.1551511" id="Fill-421" fill="#915851"></path>
                <path d="M182.2,40.3091511 C181.17,32.8461511 174.51,28.9641511 167.64,27.7351511 C159.4,26.2621511 151.28,26.0491511 144.23,31.0791511 C136.19,36.8141511 137.98,45.3721511 137.91,54.0161511 C137.63,54.0361511 137.37,54.2201511 137.4,54.5841511 C137.5,56.1491511 138.01,57.2991511 139.13,58.4131511 C139.44,58.7211511 140.02,58.5941511 140.13,58.1491511 C140.82,55.1781511 140.6,52.1841511 140.87,49.1661511 C141.12,46.3381511 141.29,42.6541511 143.17,40.3481511 C145.31,37.7321511 149.46,37.2321511 152.56,37.9721511 C154.91,38.5351511 157.14,39.2641511 159.58,39.4921511 C162.89,39.8011511 166.43,39.3241511 169.76,38.8821511 C172.1,38.5711511 175.31,37.9431511 176.97,40.1581511 C178.56,42.2841511 178.85,45.5931511 179.12,48.1501511 C179.36,50.3951511 179.45,52.6591511 179.76,54.8951511 C179.86,55.5671511 179.88,56.4261511 180.45,56.8911511 C182.37,58.4511511 182.79,55.0651511 182.9,53.9611511 C183.37,49.5661511 182.8,44.6811511 182.2,40.3091511" id="Fill-422" fill="#36303A"></path>
                <path d="M201.51,219.226151 C200.86,216.932151 199.99,214.670151 199.04,212.446151 C198.28,209.598151 197.33,206.798151 196.77,203.896151 C195.41,196.811151 195.65,189.399151 195.43,182.214151 C195.21,175.036151 194.93,167.858151 194.8,160.679151 C194.67,153.422151 195.91,145.950151 194.93,138.749151 C194.61,136.364151 194.07,134.026151 194.14,131.604151 C194.2,129.421151 194.69,127.276151 195.03,125.126151 C195.51,122.056151 195.47,119.068151 195.02,115.995151 C194.43,111.970151 193.65,108.106151 193.83,104.015151 C193.92,102.024151 194.02,99.6141511 192.57,98.0261511 C190.87,96.1681511 188.22,96.6461511 185.97,96.5081511 C181.87,96.2561511 173.64,92.8501511 174.24,93.3101511 C165.25,96.8061511 156.35,99.0691511 147.24,94.7051511 C147.26,94.3251511 131.79,100.015151 129.06,102.038151 C124.9,105.122151 126.42,110.892151 127.36,115.216151 C128.13,118.778151 128.96,122.301151 128.68,125.975151 C128.4,129.755151 127.2,133.398151 126.3,137.056151 C124.7,143.514151 124.25,150.144151 125.04,156.755151 C125.79,162.987151 127.42,169.067151 128.3,175.276151 C128.8,178.756151 129.06,182.300151 128.73,185.809151 C128.38,189.592151 127.06,193.018151 125.98,196.623151 C125.25,199.071151 124.69,201.562151 124.86,204.133151 C125.07,207.293151 126.38,210.345151 126.28,213.529151 C126.21,215.667151 125.62,217.473151 124.03,218.926151 C123.44,219.465151 122.58,219.868151 122.12,220.544151 C121.22,221.854151 121.58,222.969151 122.67,224.032151 C127.64,228.861151 134.98,231.493151 142.21,232.253151 C144.71,233.094151 147.25,233.793151 149.87,234.242151 C153.67,234.892151 157.55,235.081151 161.38,234.568151 C166.1,233.934151 170.33,231.452151 175.07,231.066151 C179.39,230.714151 183.63,230.866151 187.92,230.065151 C191.68,229.362151 196.37,228.443151 199.64,226.300151 C202.19,224.620151 202.28,221.964151 201.51,219.226151" id="Fill-423" fill="#FFFFFF"></path>
                <path d="M141.71,95.0901511 C139.08,95.6801511 136.55,96.6841511 133.98,97.4681511 C130.66,98.4771511 127.32,99.4221511 124.01,100.450151 C119.4,101.882151 114.85,103.517151 110.42,105.470151 C106.65,107.134151 104.8,109.663151 104.47,113.786151 C104.02,119.315151 104.53,124.815151 103.84,130.366151 C102.39,142.135151 99,153.634151 98.45,165.519151 C98.2,171.016151 98.83,176.268151 99.89,181.645151 C100.58,185.099151 101.13,188.551151 100.56,192.066151 C100.05,195.246151 98.86,198.266151 98.07,201.380151 C96.44,207.849151 96.94,214.575151 95.75,221.108151 C94.49,228.067151 83.58,239.592151 84.31,239.312151 C94.8,235.319151 111.13,234.523151 122.64,231.065151 C127.08,229.729151 130.23,227.825151 132.07,223.428151 C134.25,218.215151 136.1,212.587151 136.88,206.981151 C138.54,195.069151 135.44,183.117151 136.66,171.193151 C137.33,164.625151 140.21,158.635151 141.09,152.132151 C141.84,146.549151 140.75,140.966151 139.81,135.477151 C137.42,121.517151 147.46,95.4911511 147.24,94.7051511 C147.02,93.9211511 142.64,94.8791511 141.71,95.0901511" id="Fill-424" fill="#36303A"></path>
                <path d="M224.94,244.102151 C224.59,241.585151 223.46,239.272151 222.66,236.886151 C221.57,233.630151 221.16,230.241151 220.98,226.823151 C220.36,214.503151 220.06,202.281151 218.53,190.016151 C216.97,177.477151 214.02,165.152151 216.02,152.491151 C216.94,146.712151 217.53,141.256151 216.9,135.396151 C216.26,129.512151 215.36,123.648151 214.57,117.782151 C213.59,110.498151 211.52,98.4611511 203.05,97.1851511 C201.35,96.2741511 199.1,95.9691511 196.96,95.7411511 C193.65,95.3871511 190.32,95.4671511 187.02,94.9901511 C183.21,94.4401511 181.03,94.6881511 177.39,93.4451511 C176.23,93.0491511 173.92,92.7041511 174.24,93.3101511 C179.9,104.223151 181.97,115.600151 181.34,127.817151 C180.74,139.699151 179.45,151.122151 181.12,162.994151 C181.96,168.909151 183.11,174.776151 183.88,180.700151 C184.67,186.662151 184.73,192.495151 184.57,198.494151 C184.41,204.249151 185.37,209.258151 187.43,214.632151 C188.97,218.667151 190.52,222.952151 193.58,226.109151 C197.3,229.942151 202.78,230.824151 207.09,233.758151 C212.13,237.188151 215.18,242.724151 218.03,247.957151 C218.72,249.910151 219.41,251.863151 220.1,253.816151 C220.25,254.253151 220.75,254.390151 221.1,254.080151 C223.98,251.538151 225.46,247.945151 224.94,244.102151" id="Fill-425" fill="#36303A"></path>
                <path d="M129.55,443.374151 C121.1,446.176151 102.61,455.061151 98.92,455.456151 C97.62,455.600151 96.98,454.834151 96.81,453.636151 C96.51,451.481151 97.74,447.901151 99.22,445.781151 C100.24,444.308151 103,441.769151 106.01,439.171151 C106.31,438.920151 106.61,438.668151 106.91,438.405151 C108.06,437.423151 109.23,436.441151 110.32,435.531151 C110.63,435.267151 110.93,435.004151 111.23,434.752151 C112.75,433.483151 114.06,432.393151 114.88,431.663151 C115.04,431.532151 115.17,431.411151 115.29,431.304151 C115.46,431.148151 115.6,430.993151 115.72,430.825151 C117.64,428.358151 115.92,424.407151 114.99,422.000151 C113.98,419.425151 112.85,419.198151 113.09,417.928151 C113.34,416.671151 127.42,410.444151 128.83,412.444151 C130.26,414.444151 138.32,433.771151 138.74,435.291151 L138.78,435.459151 C139.57,438.656151 137.87,440.632151 129.55,443.374151" id="Fill-426" fill="#F8F0EC"></path>
                <path d="M207.27,466.269151 C206.81,469.886151 204.98,474.676151 200.41,475.454151 C194.3,476.508151 191.21,472.807151 188.95,464.198151 L188.91,464.078151 C186.63,455.409151 186.93,439.985151 187.23,437.136151 C187.53,434.298151 187.64,415.892151 188.91,414.983151 C190.18,414.084151 206.39,415.737151 206.39,416.934151 C206.39,418.132151 204.45,439.531151 204.45,440.440151 C204.45,441.327151 206.85,460.199151 207.29,463.192151 C207.4,463.947151 207.41,465.036151 207.27,466.269151" id="Fill-427" fill="#F8F0EC"></path>
                <path d="M129.55,443.374151 C121.1,446.176151 102.61,455.057151 98.92,455.452151 C97.62,455.596151 96.98,454.830151 96.81,453.632151 C104.18,450.603151 130.67,438.836151 138.78,435.459151 C139.57,438.656151 137.87,440.632151 129.55,443.374151" id="Fill-428" fill="#E0CFC7"></path>
                <path d="M207.27,466.269151 C206.81,469.886151 204.98,474.676151 200.41,475.454151 C194.3,476.508151 191.21,472.807151 188.95,464.198151 C191.08,467.419151 194.97,471.682151 200.26,471.119151 C203.16,470.808151 205.48,468.796151 207.27,466.269151" id="Fill-429" fill="#E0CFC7"></path>
                <path d="M201.2,426.606151 C199.87,428.434151 198.58,422.764151 198.32,420.941151 C198.41,420.706151 198.51,420.476151 198.63,420.255151 C200,421.719151 202.35,425.023151 201.2,426.606151 Z M194.4,425.358151 C193.74,426.099151 191.01,429.589151 190.13,429.582162 C188.83,429.572151 192.86,425.118151 193.45,424.525151 C194.34,423.619151 195.29,422.780151 196.27,421.984151 C195.76,423.154151 195.31,424.326151 194.4,425.358151 Z M198.92,418.868151 C198.61,418.607151 198.21,418.654151 197.98,418.989151 C197.89,419.115151 197.82,419.250151 197.75,419.381151 C195.13,421.291151 185.79,428.691151 188.54,430.941151 C189.93,432.081151 191.63,429.791151 192.4,429.024151 C193.61,427.838151 195.01,426.705151 196,425.329151 C196.11,425.168151 196.19,424.992151 196.29,424.823151 C196.26,425.034151 196.23,425.245151 196.19,425.452151 L194.58,434.404151 C194.44,435.158151 195.59,435.481151 195.73,434.723151 C196.16,432.317151 196.6,429.912151 197.03,427.508151 C197.33,429.695151 197.73,431.865151 198.29,434.018151 C198.48,434.764151 199.64,434.448151 199.45,433.700151 C198.72,430.878151 198.23,428.029151 197.96,425.140151 C198.62,427.269151 199.7,429.221151 201.35,429.167151 C201.56,429.160151 201.77,429.059151 201.87,428.871151 C203.65,425.531151 201.53,421.062151 198.92,418.868151 L198.92,418.868151 Z" id="Fill-430" fill="#E0CFC7"></path>
                <path d="M200.1,440.065151 C197.7,439.633151 195.32,439.618151 192.91,440.013151 C192.15,440.137151 192.48,441.291151 193.23,441.167151 C195.42,440.809151 197.6,440.828151 199.79,441.220151 C200.54,441.355151 200.86,440.201151 200.1,440.065151" id="Fill-431" fill="#E0CFC7"></path>
                <path d="M200.1,446.937151 C197.7,446.506151 195.32,446.491151 192.91,446.886151 C192.15,447.010151 192.48,448.164151 193.23,448.040151 C195.42,447.681151 197.6,447.701151 199.79,448.092151 C200.54,448.227151 200.86,447.074151 200.1,446.937151" id="Fill-432" fill="#E0CFC7"></path>
                <path d="M200.8,453.810151 C198.4,453.379151 196.02,453.364151 193.61,453.758151 C192.85,453.883151 193.17,455.037151 193.92,454.913151 C196.11,454.555151 198.3,454.574151 200.48,454.965151 C201.23,455.100151 201.56,453.947151 200.8,453.810151" id="Fill-433" fill="#E0CFC7"></path>
                <path d="M117.41,434.860151 C116.74,433.639151 115.89,432.573151 114.88,431.663151 C115.04,431.532151 115.17,431.411151 115.29,431.304151 C115.46,431.148151 115.6,430.993151 115.72,430.825151 C116.81,431.795151 117.72,432.956151 118.44,434.262151 C118.81,434.932151 117.78,435.531151 117.41,434.860151" id="Fill-434" fill="#E0CFC7"></path>
                <path d="M112.8,438.285151 C112.06,437.279151 111.22,436.357151 110.32,435.531151 C110.63,435.267151 110.93,435.004151 111.23,434.752151 C112.18,435.651151 113.05,436.620151 113.84,437.674151 C114.3,438.297151 113.25,438.896151 112.8,438.285151" id="Fill-435" fill="#E0CFC7"></path>
                <path d="M108.21,441.674151 C107.54,440.776151 106.81,439.937151 106.01,439.171151 C106.31,438.920151 106.61,438.668151 106.91,438.405151 C107.76,439.219151 108.52,440.105151 109.24,441.063151 C109.71,441.686151 108.67,442.285151 108.21,441.674151" id="Fill-436" fill="#E0CFC7"></path>
                <path d="M169.5,17.9691511 C164.39,15.0041511 158.86,15.4191511 153.47,17.1371511 C152.74,17.3701511 153.05,18.5261511 153.79,18.2921511 C158.86,16.6761511 164.08,16.2091511 168.89,19.0021511 C169.56,19.3901511 170.17,18.3551511 169.5,17.9691511" id="Fill-437" fill="#1A161C"></path>
                <path d="M166.78,5.49315108 C163.64,5.90315108 160.71,8.32215108 158.84,10.7461511 C158.37,11.3481511 159.21,12.2021511 159.68,11.5931511 C161.33,9.46015108 163.98,7.05615108 166.78,6.69015108 C167.53,6.59115108 167.54,5.39315108 166.78,5.49315108" id="Fill-438" fill="#1A161C"></path>
                <path d="M171.21,7.74415108 C168.02,8.21815108 164.94,9.05215108 161.94,10.2581511 C161.24,10.5411511 161.55,11.7011511 162.26,11.4121511 C165.26,10.2071511 168.33,9.37315108 171.53,8.89915108 C172.29,8.78715108 171.97,7.63315108 171.21,7.74415108" id="Fill-439" fill="#1A161C"></path>
                <path d="M150.16,21.4171511 C148.14,23.1521511 145.75,25.0451511 144.61,27.5161511 C143.62,29.6281511 143.69,32.0741511 143.76,34.3431511 C143.78,35.1121511 144.98,35.1151511 144.96,34.3431511 C144.89,32.0101511 144.8,29.4841511 146.01,27.3901511 C147.18,25.3871511 149.28,23.7471511 151,22.2641511 C151.59,21.7621511 150.74,20.9181511 150.16,21.4171511" id="Fill-440" fill="#1A161C"></path>
                <path d="M147.36,28.9021511 C147.11,30.5781511 146.99,32.2541511 147.01,33.9481511 C147.02,34.7181511 148.22,34.7201511 148.21,33.9481511 C148.19,32.3641511 148.29,30.7881511 148.51,29.2211511 C148.62,28.4671511 147.47,28.1411511 147.36,28.9021511" id="Fill-441" fill="#1A161C"></path>
                <path d="M174.56,22.8031511 C174.1,22.2001511 173.06,22.7951511 173.53,23.4081511 C176.59,27.4091511 177.75,32.2441511 176.75,37.1981511 C176.59,37.9501511 177.75,38.2721511 177.9,37.5161511 C178.97,32.2711511 177.82,27.0621511 174.56,22.8031511" id="Fill-442" fill="#1A161C"></path>
                <path d="M119.89,188.073151 C119.2,188.603151 118.78,188.925151 118.42,189.229151 C117.07,184.591151 111.5,180.059151 108.83,176.825151 C107.38,175.064151 105.24,173.215151 104.2,171.188151 C103.05,168.945151 103.37,168.053151 104.04,165.682151 C105.26,161.382151 107.01,157.202151 108.37,152.941151 C113.18,137.888151 117.43,125.624151 114.41,109.952151 C114.32,109.463151 114.01,109.219151 113.65,109.137151 C114.1,108.269151 112.84,104.533151 111.64,104.944151 C96.29,110.183151 89.45,130.170151 86.32,144.422151 C85.16,149.706151 85.89,155.505151 84.05,160.596151 C82.23,165.600151 78.84,169.970151 77.56,175.177151 C76.05,181.321151 77.7,187.785151 75.83,193.921151 C74.4,198.637151 70.97,202.251151 71.03,207.412151 C71.09,212.352151 73.35,217.392151 76.47,221.150151 C80.13,225.566151 88.73,226.319151 94.13,225.458151 C101.94,224.216151 106.8,220.004151 112.99,215.163151 C120.22,209.509151 118.31,197.583151 121.65,189.425151 C122.03,188.499151 120.69,187.452151 119.89,188.073151" id="Fill-443" fill="#36303A"></path>
                <path d="M113.29,159.455151 C113.09,160.180151 95.04,178.264151 93.23,181.634151 C88.14,191.151151 95.29,199.035151 103.5,195.875151 C108.01,194.139151 111.16,187.186151 114.29,180.655151 C117.41,174.125151 120.38,170.358151 120.38,170.358151 L113.29,159.455151" id="Fill-444" fill="#915851"></path>
                <path d="M278.01,143.205151 C277.68,141.340151 276.56,139.366151 274.95,137.141151 C271.41,132.237151 268.38,128.545151 263.87,124.455151 C259.65,120.628151 254.69,117.480151 249.76,114.666151 C247.32,113.269151 244.8,111.915151 242.17,110.900151 C238.76,109.585151 235.13,108.753151 231.7,107.405151 C228.75,106.248151 225.83,105.023151 222.83,103.987151 C215.32,101.383151 207.82,97.3661511 199.92,96.1571511 C199.16,96.0411511 198.88,98.1751511 199.64,98.2911511 C200.22,98.3801511 200.8,98.4911511 201.38,98.5951511 C205.22,104.376151 205.1,111.347151 205.3,118.036151 C205.51,125.106151 206.43,132.164151 207.56,139.142151 C208.01,141.915151 208.69,144.426151 210.35,146.720151 C212.31,149.409151 213.25,152.709151 215.46,155.190151 C217.39,157.360151 218.42,160.005151 219.23,162.771151 C219.99,163.885151 220.74,165.009151 221.6,165.987151 C224.82,169.654151 228.59,174.332151 233.81,171.718151 C235.24,171.000151 236.84,170.583151 238.38,170.181151 C241.58,169.348151 244.92,168.745151 247.72,166.859151 C249.71,165.513151 254.02,165.294151 256.09,164.065151 C258.69,162.521151 259.1,160.467151 261.92,159.475151 C266.29,157.944151 271.06,156.303151 274.85,153.462151 C278.21,150.940151 278.45,145.765151 278.01,143.205151" id="Fill-445" fill="#36303A"></path>
                <path d="M117.18,132.763151 C117.18,132.763151 120.78,130.143151 121.71,130.143151 C122.65,130.143151 134.37,132.888151 142.08,136.630151 C149.79,140.372151 157.3,146.309151 157.3,146.309151 C157.3,146.309151 171.72,137.154151 176.66,134.684151 C181.6,132.214151 194.09,128.771151 194.47,128.996151 C194.84,129.221151 198.13,131.731151 198.13,131.731151 L166.91,150.600151 C166.91,150.600151 143.83,150.500151 142.43,149.602151 C141.03,148.704151 117.18,132.763151 117.18,132.763151" id="Fill-446" fill="#F5D2B5"></path>
                <path d="M116.54,132.050151 L154.39,146.935151 L154.58,146.972151 L161.44,146.972151 L161.66,146.923151 L199.28,129.696151 C199.64,129.528151 200.06,129.814151 200.02,130.216151 C199.46,137.186151 196.7,181.381151 196.51,181.933151 C196.32,182.514151 164.62,197.869151 162.68,198.765151 L162.47,198.809151 L155.6,198.809151 L155.41,198.776151 C153.52,198.031151 120.9,185.192151 120.15,183.641151 C119.44,182.167151 116.29,139.130151 115.82,132.576151 C115.79,132.188151 116.18,131.908151 116.54,132.050151" id="Fill-447" fill="#E66C6C"></path>
                <path d="M162.69,198.099151 C162.36,198.099151 162.09,197.839151 162.09,197.511151 L161.17,147.966151 C161.17,147.637151 161.43,147.363151 161.76,147.357151 C162.15,147.358151 162.37,147.614151 162.37,147.945151 L163.28,197.490151 C163.29,197.820151 163.03,198.094151 162.7,198.099151 L162.69,198.099151" id="Fill-448" fill="#B54848"></path>
                <path d="M155.5,198.099151 C155.17,198.099151 154.91,197.839151 154.9,197.511151 L154,147.966151 C154,147.637151 154.26,147.363151 154.59,147.357151 C154.96,147.358151 155.2,147.614151 155.2,147.945151 L156.1,197.490151 C156.11,197.820151 155.84,198.094151 155.51,198.099151 L155.5,198.099151" id="Fill-449" fill="#B54848"></path>
                <polyline id="Fill-450" fill="#FFFFFF" points="171.91 149.011151 172.27 160.660151 190.98 151.978151 191.46 140.541151 171.91 149.011151"></polyline>
                <path d="M179.38,167.115151 C179.15,167.115151 178.93,166.985151 178.83,166.765151 C178.69,166.465151 178.83,166.109151 179.13,165.972151 L186.98,162.379151 C187.28,162.244151 187.64,162.373151 187.78,162.675151 C187.92,162.975151 187.78,163.331151 187.48,163.469151 L179.62,167.061151 L179.38,167.115151" id="Fill-451" fill="#FFFFFF"></path>
                <path d="M171.14,175.348151 C170.92,175.348151 170.71,175.224151 170.6,175.010151 C170.46,174.713151 170.58,174.355151 170.88,174.210151 L193.56,163.208151 C193.86,163.064151 194.21,163.188151 194.36,163.487151 C194.5,163.784151 194.38,164.141151 194.08,164.286151 L171.4,175.288151 L171.14,175.348151" id="Fill-452" fill="#FFFFFF"></path>
                <path d="M125.24,178.500151 L124.99,178.524151 C124.56,178.602151 124.18,178.886151 123.93,179.323151 C123.66,179.794151 123.57,180.377151 123.68,180.965151 C123.9,182.140151 124.84,182.959151 125.77,182.787151 C126.7,182.617151 127.29,181.520151 127.08,180.345151 C126.97,179.756151 126.68,179.242151 126.26,178.897151 C125.95,178.637151 125.59,178.500151 125.24,178.500151 Z M125.53,184.007151 C124.11,184.007151 122.81,182.828151 122.5,181.181151 C122.35,180.315151 122.48,179.445151 122.89,178.731151 C123.32,177.981151 123.99,177.489151 124.77,177.345151 C125.56,177.203151 126.36,177.425151 127.02,177.974151 C127.66,178.498151 128.09,179.264151 128.25,180.129151 C128.59,181.953151 127.57,183.675151 125.98,183.966151 C125.83,183.994151 125.68,184.007151 125.53,184.007151 L125.53,184.007151 Z" id="Fill-453" fill="#FFFFFF"></path>
                <path d="M139.93,189.081151 L139.71,189.036151 L129.31,184.808151 C129,184.684151 128.85,184.334151 128.98,184.028151 C129.1,183.721151 129.45,183.573151 129.76,183.700151 L140.16,187.928151 C140.47,188.052151 140.61,188.402151 140.49,188.708151 C140.39,188.941151 140.17,189.081151 139.93,189.081151" id="Fill-454" fill="#FFFFFF"></path>
                <path d="M127.64,161.063151 C129.79,159.484151 125.09,154.553151 123.99,153.295151 C122.14,151.190151 118.84,147.723151 116.07,150.494151 C114.49,152.081151 114.58,154.709151 113.61,156.609151 C113.19,157.426151 112.55,158.081151 112.25,158.969151 C111.74,160.479151 110.92,164.320151 111.27,164.475151 C110.9,166.064151 110.96,167.771151 111.65,169.259151 C112.63,171.380151 115.19,170.316151 117.08,170.825151 C118.17,171.119151 120.91,172.591151 121.92,171.390151 C122.24,171.004151 122.23,170.479151 122.06,169.928151 C122.5,170.113151 122.96,170.212151 123.45,170.147151 C124.65,169.990151 125.13,168.588151 125.33,167.548151 C125.36,167.374151 125.35,167.202151 125.37,167.030151 C125.83,167.111151 126.25,167.039151 126.57,166.720151 C127.67,165.644151 126.66,163.356151 126.1,162.272151 C125.87,161.828151 125.61,161.399151 125.36,160.967151 C126.22,161.390151 127.03,161.514151 127.64,161.063151" id="Fill-455" fill="#915851"></path>
                <path d="M205.95,162.647151 C203.32,160.960151 200.44,159.072151 197.6,158.626151 C196.04,158.381151 195.53,159.219151 194.33,160.336151 C192.59,161.952151 186.68,167.169151 188.95,169.844151 L189.16,169.970151 C188.84,170.351151 188.54,170.740151 188.29,171.143151 C187.86,171.825151 187.6,172.562151 187.75,173.379151 C187.82,173.763151 188,173.926151 188.14,174.223151 C188.68,174.720151 188.86,175.292151 188.66,175.940151 C188.68,176.183151 188.71,176.427151 188.74,176.669151 C189.3,178.239151 190.52,178.161151 191.9,177.338151 C191.86,178.192151 192.17,178.870151 193.25,178.751151 C194.18,178.650151 194.94,178.061151 195.62,177.475151 C196.23,176.952151 196.82,176.411151 197.41,175.866151 C200.28,174.262151 203.77,176.122151 207.13,175.380151 C209.35,174.892151 212.2,173.721151 212.97,171.365151 C214.13,167.867151 210.75,165.521151 208.14,164.002151 C207.44,163.592151 206.71,163.128151 205.95,162.647151" id="Fill-456" fill="#915851"></path>
                <path d="M230.02,163.756151 C230.02,167.325151 227.59,170.689151 223.77,171.528151 L217.58,172.893151 L213.92,173.695151 L209.18,174.749151 L206.39,164.067151 L208.72,162.631151 L212.31,160.427151 L217.89,156.991151 C221.78,154.608151 226.87,155.961151 229.05,159.972151 C229.71,161.194151 230.02,162.487151 230.02,163.756151" id="Fill-457" fill="#915851"></path>
                <path d="M196.49,161.951151 C194.16,163.841151 192.03,165.925151 190.07,168.199151 C189.58,168.781151 190.42,169.632151 190.92,169.046151 C192.87,166.772151 195.01,164.688151 197.33,162.797151 C197.93,162.310151 197.08,161.468151 196.49,161.951151" id="Fill-458" fill="#733832"></path>
                <path d="M197.81,165.953151 C194.79,167.980151 192.11,170.409151 189.82,173.239151 C189.34,173.833151 190.18,174.685151 190.67,174.086151 C192.89,171.335151 195.47,168.958151 198.42,166.987151 C199.05,166.560151 198.45,165.522151 197.81,165.953151" id="Fill-459" fill="#733832"></path>
                <path d="M197.59,170.940151 C196,172.171151 194.44,173.439151 192.92,174.747151 C192.33,175.248151 193.18,176.092151 193.76,175.594151 C195.29,174.286151 196.85,173.017151 198.44,171.787151 C199.05,171.316151 198.2,170.474151 197.59,170.940151" id="Fill-460" fill="#733832"></path>
                <path d="M211.27,168.400151 C210.91,166.760151 210.02,165.307151 208.7,164.258151 C208.11,163.782151 207.25,164.623151 207.86,165.104151 C209.03,166.037151 209.8,167.258151 210.12,168.719151 C210.29,169.471151 211.44,169.152151 211.27,168.400151" id="Fill-461" fill="#733832"></path>
                <path d="M126.13,159.419151 C123.88,156.859151 121.42,154.530151 118.73,152.433151 C118.13,151.965151 117.28,152.806151 117.89,153.280151 C120.57,155.377151 123.04,157.706151 125.28,160.266151 C125.79,160.846151 126.64,159.996151 126.13,159.419151" id="Fill-462" fill="#733832"></path>
                <path d="M125.25,164.987151 C124.25,163.623151 123.18,162.318151 122,161.101151 C120.78,159.836151 119.29,158.785151 118.21,157.400151 C117.73,156.794151 116.89,157.647151 117.36,158.246151 C118.34,159.499151 119.67,160.452151 120.79,161.578151 C122.04,162.828151 123.17,164.171151 124.22,165.591151 C124.67,166.205151 125.71,165.609151 125.25,164.987151" id="Fill-463" fill="#733832"></path>
                <path d="M123,168.134151 C121.29,166.185151 119.46,164.357151 117.51,162.649151 C116.93,162.144151 116.08,162.988151 116.66,163.496151 C118.61,165.204151 120.44,167.032151 122.15,168.981151 C122.66,169.561151 123.51,168.711151 123,168.134151" id="Fill-464" fill="#733832"></path>
                <path d="M117.56,170.317151 C115.62,169.611151 115.4,168.165151 114.41,166.620151 C113.54,165.280151 112.63,164.539151 112.59,162.778151 C112.57,162.009151 111.37,162.006151 111.39,162.778151 C111.41,163.661151 111.55,164.471151 111.94,165.271151 C112.44,166.323151 113.32,167.035151 113.8,168.107151 C114.54,169.746151 115.52,170.844151 117.24,171.472151 C117.97,171.736151 118.28,170.579151 117.56,170.317151" id="Fill-465" fill="#733832"></path>
                <path d="M130.1,111.987151 C133.45,107.004151 137.1,102.240151 141,97.6711511 C141.49,97.0881511 140.65,96.2371511 140.15,96.8241511 C135.15,102.691151 130.55,108.883151 126.44,115.412151 C125.25,117.314151 122.68,119.982151 123.66,122.369151 C124.65,124.761151 128.13,126.818151 130.24,128.127151 C130.9,128.534151 131.5,127.498151 130.84,127.093151 C129.54,126.283151 128.29,125.408151 127.14,124.380151 C126.67,123.957151 126.21,123.516151 125.77,123.058151 C124.64,121.631151 124.55,120.347151 125.52,119.205151 C126.5,116.701151 128.6,114.212151 130.1,111.987151" id="Fill-466" fill="#1A161C"></path>
                <path d="M195.74,114.437151 C191.53,108.265151 187.33,102.093151 183.12,95.9201511 C182.69,95.2871511 181.65,95.8861511 182.08,96.5251511 C185.29,101.235151 188.5,105.946151 191.72,110.656151 C193.2,112.833151 195.25,115.096151 196.37,117.478151 C197.98,120.938151 194.64,122.802151 192.46,124.890151 C191.9,125.424151 192.75,126.270151 193.31,125.737151 C194.85,124.256151 197.78,122.395151 198.4,120.227151 C199.02,118.107151 196.81,116.017151 195.74,114.437151" id="Fill-467" fill="#1A161C"></path>
                <path d="M219.53,107.964151 C218.89,120.672151 218.15,133.602151 213.14,145.471151 C212.84,146.173151 213.87,146.784151 214.17,146.076151 C219.28,133.992151 220.08,120.906151 220.72,107.964151 C220.76,107.194151 219.56,107.196151 219.53,107.964151" id="Fill-468" fill="#1A161C"></path>
                <path d="M224.89,123.371151 C222.46,130.681151 219.63,137.837151 216.4,144.831151 C216.08,145.526151 217.11,146.136151 217.43,145.436151 C220.71,138.348151 223.58,131.098151 226.05,123.689151 C226.29,122.956151 225.13,122.642151 224.89,123.371151" id="Fill-469" fill="#1A161C"></path>
                <path d="M251.68,126.520151 C248.29,127.704151 244.52,126.854151 241.22,128.390151 C239.38,129.248151 237.76,130.672151 236.27,132.181151 C236.6,130.843151 237.69,129.357151 238.34,128.422151 C239.34,126.988151 240.53,125.734151 241.85,124.592151 C242.43,124.086151 241.58,123.242151 241,123.745151 C239.38,125.150151 237.96,126.748151 236.82,128.563151 C235.93,129.972151 234.76,131.748151 235.04,133.472151 C234.64,133.900151 234.25,134.326151 233.87,134.735151 C232.85,135.825151 231.87,136.959151 231.02,138.190151 C229.86,139.889151 229.07,141.945151 227.5,143.330151 C225.31,145.269151 222.27,145.646151 220.82,148.401151 C220.46,149.081151 221.49,149.687151 221.85,149.005151 C223.22,146.416151 226.3,146.026151 228.35,144.177151 C230.74,142.021151 231.91,138.701151 234.06,136.292151 C236.23,133.864151 238.79,130.872151 241.77,129.493151 C244.97,128.015151 248.68,128.832151 252,127.675151 C252.72,127.423151 252.41,126.265151 251.68,126.520151" id="Fill-470" fill="#1A161C"></path>
                <path d="M105.2,164.316151 C104.22,160.041151 103.21,155.686151 103.43,151.269151 C103.61,147.778151 104.49,144.548151 103.8,141.049151 C102.47,134.327151 97.85,128.714151 97.37,121.761151 C97.31,120.996151 96.12,120.991151 96.17,121.761151 C96.64,128.556151 100.88,134.030151 102.45,140.510151 C103.44,144.559151 102.23,148.325151 102.21,152.378151 C102.18,156.529151 103.12,160.613151 104.04,164.634151 C104.22,165.385151 105.37,165.067151 105.2,164.316151" id="Fill-471" fill="#1A161C"></path>
                <path d="M92.64,178.568151 C87.8,178.390151 83.18,179.213151 78.71,181.067151 C78.01,181.358151 78.31,182.517151 79.03,182.222151 C82.96,180.593151 87.02,179.772151 91.24,179.751151 L80.04,186.482151 C79.38,186.878151 79.99,187.914151 80.65,187.516151 C84.64,185.118151 88.63,182.719151 92.62,180.321151 C92.86,180.174151 92.93,179.940151 92.89,179.723151 C93.4,179.513151 93.31,178.593151 92.64,178.568151" id="Fill-472" fill="#1A161C"></path>
                <path d="M110.81,194.370151 C110.46,193.687151 109.42,194.292151 109.78,194.975151 C110.41,196.175151 112.25,198.522151 112.31,199.818151 C112.41,202.095151 110.51,203.437151 109.24,204.971151 C107.73,206.794151 107.6,208.588151 107.2,210.829151 C106.27,216.016151 100.67,218.393151 99.1,223.336151 C98.87,224.073151 100.02,224.388151 100.25,223.655151 C101.26,220.497151 103.9,218.552151 105.94,216.089151 C107.48,214.221151 108.19,212.411151 108.52,210.030151 C108.85,207.722151 109.62,206.290151 111.19,204.625151 C111.98,203.785151 112.93,202.932151 113.43,201.871151 C114.57,199.466151 111.87,196.394151 110.81,194.370151" id="Fill-473" fill="#1A161C"></path>
                <path d="M212.81,217.469151 C206.13,214.322151 199.21,210.945151 195.03,204.578151 C194.6,203.937151 193.57,204.536151 193.99,205.182151 C198.3,211.741151 205.31,215.255151 212.21,218.503151 C212.9,218.829151 213.51,217.797151 212.81,217.469151" id="Fill-474" fill="#1A161C"></path>
                <path d="M289.92,181.736151 C288.1,178.020151 284.38,175.758151 281.39,173.040151 C278.53,170.439151 276.38,170.383151 272.49,170.992151 C268.37,171.639151 261.59,172.490151 258.37,175.485151 C255.44,178.210151 256.33,184.040151 254.64,187.441151 C253.61,189.504151 256.71,191.326151 257.74,189.254151 C258.81,187.104151 259.33,185.240151 259.93,182.895151 C261.28,177.526151 264.51,176.375151 269.34,175.250151 C273.58,174.262151 276.53,173.926151 279.94,176.715151 C282.43,178.757151 285.37,180.588151 286.82,183.549151 C287.84,185.625151 290.94,183.806151 289.92,181.736151" id="Fill-475" fill="#36303A"></path>
                <path d="M283.93,300.085151 C285.24,299.872151 286.55,299.680151 287.87,299.506151 C287.85,297.290151 287.39,295.161151 285.99,293.052151 C280.7,285.073151 268.56,285.297151 264.45,276.363151 C263.48,274.265151 260.39,276.088151 261.35,278.176151 C264.77,285.616151 272.68,287.044151 278.94,291.259151 C282.83,293.881151 283.86,296.753151 283.93,300.085151" id="Fill-476" fill="#36303A"></path>
                <path d="M319.19,283.978151 C323.65,285.833151 327.45,290.602151 330.26,295.053151 C331.41,294.665151 332.55,294.286151 333.7,293.904151 C331.66,290.804151 329.27,287.969151 326.77,285.192151 C325.61,283.893151 324.44,282.603151 322.92,281.724151 C320.51,280.344151 315.07,279.899151 315.5,275.984151 C315.75,273.689151 312.16,273.707151 311.91,275.984151 C311.38,280.782151 315.47,282.431151 319.19,283.978151" id="Fill-477" fill="#36303A"></path>
                <path d="M265.43,280.591151 C259.2,277.608151 252.47,277.660151 245.96,275.740151 C243.67,275.066151 240.58,274.020151 238.93,272.231151 C236.72,269.833151 237.06,266.090151 237.12,263.138151 C237.2,258.713151 237.57,254.299151 238.08,249.904151 C240.22,231.246151 243.7,212.676151 246.61,194.122151 C246.63,193.951151 246.62,193.794151 246.59,193.647151 C247.2,192.396151 245.25,191.314151 244.45,192.569151 C238.51,201.917151 236.13,212.532151 234.67,223.389151 C233.7,230.570151 233.08,237.806151 231.7,244.926151 C230.51,251.042151 228.46,256.968151 227.46,263.122151 C226.31,270.196151 226.97,277.708151 235.1,279.323151 C241,280.496151 246.54,282.295151 252.37,283.678151 C256.94,284.759151 261.15,284.681151 265.43,282.659151 C266.21,282.286151 266.21,280.964151 265.43,280.591151" id="Fill-478" fill="#36303A"></path>
                <path d="M326.47,242.417151 C325.88,239.160151 325.04,235.951151 323.9,232.837151 C323.7,232.286151 323.49,231.736151 323.26,231.185151 C323.03,230.598151 322.77,230.011151 322.51,229.437151 C322.04,228.407151 321.53,227.401151 320.94,226.431151 C319.88,224.683151 318.42,223.377151 317.22,221.761151 C315.47,219.390151 316.09,216.444151 316.06,213.690151 C316.03,211.427151 307.89,181.598151 304.6,181.143151 C284.9,178.401151 263.69,182.844151 244.57,187.442151 C241.14,188.268151 242.39,207.559151 244.18,214.265151 C245.06,217.570151 246.15,220.827151 246.75,224.192151 C247.44,228.167151 247.48,232.215151 247.6,236.250151 C247.88,245.758151 250.21,255.026151 252.88,264.115151 C254.23,268.713151 254.69,273.730151 256.92,278.041151 C259.7,283.346151 264,283.837151 269.38,285.058151 C276.48,286.675151 320.11,278.310151 324.05,277.742151 C329.71,276.928151 330.71,277.159151 330.9,272.741151 C331.29,264.107151 328.03,250.955151 326.47,242.417151" id="Fill-479" fill="#F5D2B5"></path>
                <path d="M323.9,232.837151 C319.7,233.628151 315.66,235.016151 311.42,236.023151 C307.09,237.053151 302.66,237.292151 298.29,238.142151 C293.52,239.076151 288.86,240.537151 284.06,241.339151 C279.2,242.141151 274.25,241.794151 269.39,242.477151 C268.94,241.339151 268.5,240.202151 268.09,239.064151 C273.08,238.310151 278.12,238.657151 283.11,237.879151 C288.6,237.016151 293.89,235.221151 299.38,234.298151 C304.51,233.424151 309.54,232.849151 314.59,231.436151 C317.27,230.694151 319.86,229.964151 322.51,229.437151 C322.77,230.011151 323.03,230.598151 323.26,231.185151 C323.49,231.736151 323.7,232.286151 323.9,232.837151" id="Fill-480" fill="#DCA877"></path>
                <path d="M305.4,211.878151 C304.11,211.941151 303.14,211.046151 302.61,209.960151 C304.36,209.611151 306.11,209.305151 307.88,209.083151 C307.67,210.492151 307.04,211.798151 305.4,211.878151 Z M264.6,217.366151 C266.83,216.867151 269.01,216.183151 271.2,215.526151 C270.3,218.485151 266.85,219.415151 264.6,217.366151 Z M311.17,207.580151 C303.95,207.974151 297.07,210.151151 289.98,211.388151 C286.25,212.038151 282.5,212.008151 278.77,212.507151 C275.33,212.966151 272.04,214.040151 268.72,215.019151 C265.54,215.961151 261.32,217.558151 257.98,216.894151 C255.6,216.420151 255.57,215.192151 255.22,213.166151 C254.94,211.489151 254.58,209.822151 254.16,208.174151 C252.44,201.507151 249.61,195.208151 245.88,189.425151 C245.47,188.779151 244.43,189.378151 244.85,190.029151 C249.08,196.593151 252.12,203.821151 253.69,211.477151 C254.08,213.364151 253.66,216.735151 255.49,217.749151 C257.39,218.801151 260.79,218.204151 263.25,217.666151 L263.27,217.702151 C266.13,221.206151 271.66,219.777151 272.48,215.335151 L272.48,215.144151 C273.31,214.902151 274.15,214.669151 274.99,214.460151 C279.1,213.444151 283.26,213.512151 287.43,212.983151 C292.17,212.381151 296.79,211.177151 301.45,210.199151 L301.49,210.388151 C302.24,212.109151 303.99,213.364151 305.93,213.018151 C308.05,212.638151 308.85,210.904151 309.1,208.960151 C309.79,208.891151 310.48,208.816151 311.17,208.778151 C311.94,208.736151 311.94,207.538151 311.17,207.580151 L311.17,207.580151 Z" id="Fill-481" fill="#DEB18C"></path>
                <path d="M277.68,271.619151 C277.08,268.395151 277.17,265.112151 276.38,261.915151 C274.92,256.035151 271.86,250.700151 270.32,244.842151 C270.12,244.098151 268.97,244.413151 269.16,245.160151 C269.53,246.550151 269.98,247.909151 270.47,249.252151 L270.3,249.328151 C265,253.056151 258.62,253.633151 252.33,253.166151 C251.56,253.109151 251.56,254.307151 252.33,254.364151 C258.82,254.846151 265.44,254.205151 270.9,250.365151 C272.29,253.986151 273.92,257.523151 274.97,261.267151 C275.85,264.404151 275.85,267.594151 276.33,270.790151 C276.77,273.787151 277.79,276.609151 277.63,279.677151 C277.59,280.447151 278.79,280.445151 278.83,279.677151 C278.97,276.875151 278.19,274.347151 277.68,271.619151" id="Fill-482" fill="#DEB18C"></path>
                <path d="M287.53,196.457151 C287.53,199.417151 285.67,202.546151 282.43,203.239151 C279.51,203.862151 276.48,202.601151 275.14,199.879151 C272.59,194.668151 277.96,189.633151 283.27,190.894151 C286.2,191.591151 287.52,193.964151 287.53,196.457151" id="Fill-483" fill="#DCA877"></path>
                <path d="M213.92,173.695151 C214.33,169.204151 213.27,164.079151 208.8,162.666151 L208.72,162.631151 L212.31,160.427151 C216.25,163.002151 217.73,168.043151 217.58,172.893151 L213.92,173.695151" id="Fill-484" fill="#DCA877"></path>
                <path d="M218.07,163.497151 C218.07,165.064151 216.14,166.335151 213.77,166.335151 C211.39,166.335151 209.47,165.064151 209.47,163.497151 C209.47,161.930151 211.39,160.660151 213.77,160.660151 C216.14,160.660151 218.07,161.930151 218.07,163.497151" id="Fill-485" fill="#FFFFFF"></path>
                <path d="M174.92,260.424151 C169.92,266.501151 167.81,274.162151 168.99,281.946151 C169.1,282.705151 170.26,282.382151 170.14,281.627151 C169.04,274.310151 171.07,266.982151 175.77,261.271151 C176.26,260.680151 175.42,259.828151 174.92,260.424151" id="Fill-486" fill="#BA8452"></path>
                <path d="M116.88,425.548151 C115.61,424.637151 114.98,422.584151 114.7,420.813151 C114.8,420.475151 114.89,420.137151 114.99,419.800151 C115.78,420.473151 116.48,421.234151 116.99,422.145151 C117.39,422.828151 117.67,423.554151 117.82,424.323151 C117.84,426.241151 117.53,426.650151 116.88,425.548151 Z M107.82,426.004151 C106.94,425.767151 108.49,423.327151 108.71,423.078151 C109.27,422.446151 109.94,421.876151 110.61,421.377151 C111.29,420.880151 112.01,420.447151 112.74,420.040151 C112.26,420.904151 111.75,421.747151 111.15,422.544151 C110.78,423.042151 108.45,426.172151 107.82,426.004151 Z M118.87,423.605151 C118.29,421.350151 116.78,419.628151 114.96,418.251151 C114.87,418.181151 114.77,418.161151 114.67,418.164151 C114.5,417.987151 114.24,417.896151 113.96,418.040151 C111.52,419.301151 108.96,420.671151 107.29,422.934151 C106.61,423.871151 105.34,425.890151 106.44,426.950151 C108.37,428.805151 111.5,424.476151 113.26,421.544151 C112.35,425.102151 111.81,428.714151 111.65,432.412151 C111.62,433.182151 112.82,433.181151 112.85,432.412151 C112.98,429.214151 113.43,426.084151 114.14,422.997151 C114.96,425.641151 116.37,428.366151 118.27,427.405151 C119.53,426.772151 119.14,424.658151 118.87,423.605151 L118.87,423.605151 Z" id="Fill-487" fill="#E0CFC7"></path>
            </g>
        </g>
    </g>
</svg>