<?xml version="1.0" encoding="UTF-8"?>
<svg width="auto" height="77px" viewBox="0 0 280 77" version="1.1" xmlns="http://www.w3.org/2000/svg" xmlns:xlink="http://www.w3.org/1999/xlink">
    <!-- Generator: Sketch 54 (76480) - https://sketchapp.com -->
    <title>Combined Shape Copy 12</title>
    <desc>Created with Sketch.</desc>
    <g id="PL" stroke="none" stroke-width="1" fill="none" fill-rule="evenodd">
        <g id="Icons" transform="translate(-494.000000, -4486.000000)" fill="#BE4865">
            <path d="M699.845222,4522.27862 C701.421518,4513.25209 706.430609,4506.04203 715.251829,4499.99143 C716.579948,4500.75822 718.163475,4501.67247 720.002409,4502.73418 L720.000864,4502.73686 C720.04133,4502.75785 720.081517,4502.77985 720.121396,4502.80288 L772.371905,4532.96972 C773.806782,4533.79815 774.298408,4535.63292 773.469981,4537.0678 L760.535048,4559.47176 C759.706621,4560.90664 757.87185,4561.39826 756.436972,4560.56984 L716.928626,4537.75968 C716.995742,4538.52475 716.770904,4539.31541 716.238237,4539.95022 L699.609409,4559.76769 C698.544403,4561.03691 696.652136,4561.20246 695.382912,4560.13746 L650.917932,4522.82691 L664.681857,4539.23011 C665.746862,4540.49934 665.58131,4542.3916 664.312086,4543.45661 L644.49462,4560.08544 C643.225396,4561.15044 641.333129,4560.98489 640.268124,4559.71567 L603.418968,4515.80055 L619.397607,4543.47637 C620.226034,4544.91125 619.734409,4546.74602 618.299531,4547.57445 L595.895571,4560.50938 C594.460693,4561.33781 592.625922,4560.84618 591.797495,4559.4113 L561.63065,4507.16079 C561.436994,4506.82537 561.315473,4506.4681 561.261273,4506.10694 L561.081971,4506.21045 L559.899798,4504.16287 L568.603478,4553.52389 C568.891187,4555.15557 567.801682,4556.71155 566.169999,4556.99926 L540.693155,4561.49151 C539.061473,4561.77922 537.505497,4560.68972 537.217788,4559.05804 L526.740952,4499.64095 C526.673696,4499.25952 526.681699,4498.88223 526.754292,4498.52431 L526.550398,4498.56026 L526,4495.4388 L526,4497.66647 L525.797493,4497.66647 C525.928262,4498.00316 526,4498.36932 526,4498.75223 L526,4559.02173 C526,4560.67858 524.656854,4562.02173 523,4562.02173 L497,4562.02173 C495.343146,4562.02173 494,4560.67858 494,4559.02173 L494,4498.75223 C494,4498.36932 494.071738,4498.00316 494.202507,4497.66647 L494,4497.66647 C494,4496.71037 494,4495.06375 494,4492.72662 C504.24,4487.78677 514.48,4487.78677 526,4492.72662 L526,4493.47876 C535.102953,4487.02662 545.057887,4485.32645 557.078796,4488.16418 C557.318469,4489.52343 557.604233,4491.14408 557.936088,4493.02612 L557.732194,4493.06207 C557.922826,4493.37358 558.059386,4493.72538 558.126642,4494.10681 L559.327243,4500.91575 C565.632961,4492.18929 574.266292,4487.4072 586.21361,4486 C586.903721,4487.19531 587.726546,4488.62048 588.682084,4490.27552 L588.502783,4490.37904 C588.788459,4490.60656 589.037106,4490.89044 589.230762,4491.22586 L598.606201,4507.4646 C603.02537,4497.7264 610.64353,4491.7038 622.285783,4488.70444 C623.271549,4489.87923 624.446886,4491.27994 625.811793,4492.90658 L625.809425,4492.90856 C625.840271,4492.94213 625.870509,4492.97655 625.900108,4493.01183 L645.007282,4515.78287 C648.012236,4505.68175 654.453114,4498.38569 665.027633,4493.0632 C666.084945,4493.95039 667.345585,4495.00819 668.809555,4496.23661 L668.676472,4496.39521 C669.022737,4496.5113 669.353481,4496.69302 669.650178,4496.94197 L699.845222,4522.27862 Z M498,4495.02173 L498,4500.02173 L522,4499.84316 L522,4495.2003 L498,4495.02173 Z M530.455705,4495.31312 L531.297857,4500.07647 L553.783601,4495.94679 L553.001603,4491.52368 L530.455705,4495.31312 Z M564.229835,4501.35307 L566.69304,4505.60814 L586.405198,4494.05515 L584.117937,4490.10401 L564.229835,4501.35307 Z M602.418955,4507.66532 L605.536322,4511.37055 L622.143087,4497.24747 L619.248389,4493.8069 L602.418955,4507.66532 Z M649.858273,4514.49174 L653.573407,4517.60079 L667.468875,4500.81623 L664.019108,4497.92925 L649.858273,4514.49174 Z M704.702767,4523.98688 L708.969163,4526.44355 L719.555631,4507.80537 L715.593978,4505.52418 L704.702767,4523.98688 Z" id="Combined-Shape-Copy-12"></path>
        </g>
    </g>
</svg>