<svg width="62" height="88" viewBox="0 0 62 88" fill="none" xmlns="http://www.w3.org/2000/svg">
<path d="M62 30.8C62 26.7553 61.1982 22.7502 59.6403 19.0134C58.0824 15.2765 55.7989 11.8812 52.9203 9.02111C50.0417 6.16107 46.6243 3.89236 42.8632 2.34451C39.1021 0.796665 35.071 0 31 0C26.929 0 22.8979 0.796665 19.1368 2.34451C15.3757 3.89236 11.9583 6.16107 9.07969 9.02111C6.20107 11.8812 3.91763 15.2765 2.35973 19.0134C0.801838 22.7502 -6.06623e-08 26.7553 0 30.8C0 36.9028 1.81571 42.5788 4.89357 47.366H4.85814C15.3096 63.624 31 88 31 88L57.1419 47.366H57.1109C60.3012 42.422 61.998 36.6729 62 30.8Z" fill="#FF5991"/>
<circle cx="31" cy="30" r="14" fill="white"/>
</svg>
