<svg width="55px" height="71px" viewBox="0 0 55 71" version="1.1" xmlns="http://www.w3.org/2000/svg" xmlns:xlink="http://www.w3.org/1999/xlink">
    <g id="**Final-designs**" stroke="none" stroke-width="1" fill="none" fill-rule="evenodd">
        <g id="Artboard" transform="translate(-165.000000, -85.000000)" fill-rule="nonzero">
            <g id="Group-9" transform="translate(165.000000, 85.000000)">
                <path d="M28.9900253,70.3341007 C46.3085039,50.9915052 55,36.6129809 55,26.8148148 C55,11.9930264 42.6758228,0 27.5,0 C12.3241772,0 0,11.9930264 0,26.8148148 C0,36.6129809 8.69149607,50.9915052 26.0099747,70.3341007 C26.8049292,71.2219664 28.1950708,71.2219664 28.9900253,70.3341007 Z" id="Oval-Copy-4" fill="#BE4865"></path>
                <path d="M35.523391,16.7480904 C35.8788591,16.5566844 36.227491,16.5771922 36.5692869,16.8096137 C36.9110827,17.0420352 37.0546371,17.3633233 36.9999499,17.7734786 L34.046832,35.4921863 C33.9921448,35.7929667 33.8212466,36.0253882 33.5341379,36.1894503 C33.2470292,36.3535124 32.9667566,36.367184 32.6933196,36.2304658 L27.5663787,34.0976584 L24.9824005,37.255854 C24.7909945,37.5019472 24.5517374,37.6249937 24.2646287,37.6249937 C23.97752,37.6249937 23.7314269,37.5361266 23.5263492,37.3583928 C23.3212716,37.1806591 23.2187328,36.9277298 23.2187328,36.5996056 L23.2187328,33.3183634 L33.1034748,21.2597984 C33.1855059,21.1504234 33.1718343,21.0478846 33.0624593,20.9521819 C32.9530844,20.8564792 32.84371,20.8496431 32.7343351,20.9316742 L20.9628788,31.3086026 L16.6152329,29.5039194 C16.2324215,29.3398572 16.0273439,29.0527486 16,28.6425933 C15.9726561,28.232438 16.1503905,27.9316577 16.5332019,27.7402517 L35.523391,16.7480904 Z" id="p" fill="#FFFFFF"></path>
            </g>
        </g>
    </g>
</svg> 