<svg xmlns="http://www.w3.org/2000/svg" width="55" height="71" viewBox="0 0 55 71">
  <g fill="none">
    <path fill="#46C0B0" d="M28.9900253,70.3341007 C46.3085039,50.9915052 55,36.6129809 55,26.8148148 C55,11.9930264 42.6758228,0 27.5,0 C12.3241772,0 0,11.9930264 0,26.8148148 C0,36.6129809 8.69149607,50.9915052 26.0099747,70.3341007 C26.8049292,71.2219664 28.1950708,71.2219664 28.9900253,70.3341007 Z"/>
    <path fill="#FFF" d="M19.9374906,22.8750313 C18.4887293,22.8750313 17.3124969,21.6987989 17.3124969,20.2500376 C17.3124969,18.8012762 18.4887293,17.6250438 19.9374906,17.6250438 C21.386252,17.6250438 22.5624844,18.8012762 22.5624844,20.2500376 C22.5624844,21.6987989 21.386252,22.8750313 19.9374906,22.8750313 Z M19.9374906,30.0970485 C19.9374906,30.0986908 19.93701,30.1002529 19.93701,30.1019351 C19.93701,30.6159911 20.152021,31.0802196 20.496928,31.4095454 L22.5624844,33.3590246 L22.5624844,37.3124969 C22.5624844,38.0368775 21.9743682,38.6249937 21.2499875,38.6249937 L18.6249937,38.6249937 C17.9006131,38.6249937 17.3124969,38.0368775 17.3124969,37.3124969 L17.3124969,32.0625094 C16.5881162,32.0625094 16,31.4743932 16,30.7500125 L16,26.8125219 C16,25.3637606 17.1762324,24.1875282 18.6249937,24.1875282 L21.2499875,24.1875282 C22.3562451,24.1885696 23.3020055,24.8749388 23.6854847,25.8457731 C23.6100225,25.8974831 23.5230648,25.9286453 23.4553732,25.9922114 L20.496928,28.7845517 C20.152021,29.1140778 19.9374906,29.5784264 19.9374906,30.0926426 L19.9374906,30.0970485 Z M35.6874531,22.8750313 C34.2386917,22.8750313 33.0624593,21.6987989 33.0624593,20.2500376 C33.0624593,18.8012762 34.2386917,17.6250438 35.6874531,17.6250438 C37.1362144,17.6250438 38.3124468,18.8012762 38.3124468,20.2500376 C38.3124468,21.6987989 37.1362144,22.8750313 35.6874531,22.8750313 Z M36.9999499,24.1875282 C38.4487113,24.1875282 39.6249437,25.3637606 39.6249437,26.8125219 L39.6249437,30.7500125 C39.6249437,31.4743932 39.0368275,32.0625094 38.3124468,32.0625094 L38.3124468,37.3124969 C38.3124468,38.0368775 37.7243306,38.6249937 36.9999499,38.6249937 L34.3749562,38.6249937 C33.6505755,38.6249937 33.0624593,38.0368775 33.0624593,37.3124969 L33.0624593,33.3594252 L35.1280157,31.4091449 C35.4728826,31.0778964 35.6876533,30.6120658 35.6876533,30.0965679 C35.6876533,29.58111 35.4728826,29.1153996 35.1280157,28.7841511 L32.1699711,25.9926119 C32.1035211,25.9274036 32.0149212,25.8974831 31.939459,25.8453726 C32.3230984,24.8746985 33.2687786,24.1884895 34.3749562,24.1875282 L36.9999499,24.1875282 Z M34.2273163,29.7385632 C34.3185598,29.8305277 34.3749562,29.9572593 34.3749562,30.0969284 C34.3749562,30.2365574 34.3185598,30.3631688 34.2273163,30.4550933 L31.2692717,33.247033 C31.1809121,33.331267 31.06123,33.3830171 30.9296519,33.3830171 C30.6580041,33.3830171 30.4374656,33.1624785 30.4374656,32.8908308 L30.4374656,31.406261 L25.1874781,31.406261 L25.1874781,32.8885477 C25.1874781,32.8893087 25.1873579,32.8900297 25.1873579,32.8907907 C25.1873579,33.1624385 24.9668194,33.3830171 24.6951716,33.3830171 C24.5635935,33.3830171 24.4440316,33.331267 24.355672,33.247033 L21.3976274,30.4550933 C21.3063838,30.3631688 21.2499875,30.2363972 21.2499875,30.0967681 C21.2499875,29.9570991 21.3063838,29.8305277 21.3976274,29.7385632 L24.355672,26.9466235 C24.4440316,26.8624295 24.5637136,26.8106794 24.6952918,26.8106794 C24.9669395,26.8106794 25.1874781,27.031218 25.1874781,27.3028657 L25.1874781,28.7812672 L30.4374656,28.7812672 L30.4374656,27.3047082 C30.4374656,27.3042276 30.4375857,27.303787 30.4375857,27.3033063 C30.4375857,27.0316586 30.6581243,26.81112 30.9297721,26.81112 C31.0613502,26.81112 31.1809121,26.86283 31.2692717,26.947064 L34.2273163,29.7385632 Z"/>
  </g>
</svg>
