<svg xmlns="http://www.w3.org/2000/svg" width="55" height="71" viewBox="0 0 55 71">
  <g fill="none">
    <path fill="#68748F" d="M28.9900253,70.3341007 C46.3085039,50.9915052 55,36.6129809 55,26.8148148 C55,11.9930264 42.6758228,0 27.5,0 C12.3241772,0 0,11.9930264 0,26.8148148 C0,36.6129809 8.69149607,50.9915052 26.0099747,70.3341007 C26.8049292,71.2219664 28.1950708,71.2219664 28.9900253,70.3341007 Z"/>
    <path fill="#FFF" d="M34.4062109,17.6250438 C35.4931224,17.6250438 36.3749562,18.5068776 36.3749562,19.5937891 L36.3749562,36.6562484 C36.3749562,37.7431599 35.4931224,38.6249937 34.4062109,38.6249937 L19.9687453,38.6249937 C18.8818338,38.6249937 18,37.7431599 18,36.6562484 L18,19.5937891 C18,18.5068776 18.8818338,17.6250438 19.9687453,17.6250438 L34.4062109,17.6250438 Z M27.1874781,37.3124969 C27.9134609,37.3124969 28.499975,36.7259828 28.499975,36 C28.499975,35.2740172 27.9134609,34.6875031 27.1874781,34.6875031 C26.4614953,34.6875031 25.8749812,35.2740172 25.8749812,36 C25.8749812,36.7259828 26.4614953,37.3124969 27.1874781,37.3124969 Z M34.4062109,32.8828199 L34.4062109,20.0859754 C34.4062109,19.815289 34.184711,19.5937891 33.9140246,19.5937891 L20.4609316,19.5937891 C20.1902452,19.5937891 19.9687453,19.815289 19.9687453,20.0859754 L19.9687453,32.8828199 C19.9687453,33.1535064 20.1902452,33.3750063 20.4609316,33.3750063 L33.9140246,33.3750063 C34.184711,33.3750063 34.4062109,33.1535064 34.4062109,32.8828199 Z"/>
  </g>
</svg>
