<?xml version="1.0" encoding="utf-8"?>
<!-- Generator: Adobe Illustrator 24.1.2, SVG Export Plug-In . SVG Version: 6.00 Build 0)  -->
<svg version="1.1" id="Layer_1" xmlns="http://www.w3.org/2000/svg" xmlns:xlink="http://www.w3.org/1999/xlink" x="0px" y="0px"
	 viewBox="0 0 55 72" style="enable-background:new 0 0 55 72;" xml:space="preserve">
<style type="text/css">
	.st0{fill:#3A7BAD;}
	.st1{fill:#FFFFFF;}
</style>
<desc>Created with Sketch.</desc>
<g id="Page-1">
	<path id="Combined-Shape" class="st0" d="M27.5,0C42.7,0,55,12.2,55,27.2c0,9.7-8.3,23.9-25,43l0,0l-1,1.2c-0.8,0.9-2.2,0.9-3,0
		C8.7,51.7,0,37.1,0,27.2C0,12.2,12.3,0,27.5,0z"/>
</g>
<path class="st1" d="M31.9,20c-0.8,1-2.4,1.7-4.4,1.7S23.9,21,23.1,20l0,0l-7.3,3.4c-0.3,0.1-0.4,0.5-0.3,0.8l0,0l2.1,4
	c0.1,0.3,0.5,0.4,0.8,0.3l0,0l2.1-1c0.4-0.2,0.9,0.1,0.9,0.5l0,0v8.9c0,0.6,0.5,1.1,1.2,1.1l0,0h9.6c0.7,0,1.2-0.5,1.2-1.1l0,0V28
	c0-0.4,0.5-0.7,0.9-0.5l0,0l2.1,1c0.3,0.1,0.7,0,0.8-0.3l0,0l2.1-4c0.1-0.3,0-0.6-0.3-0.8l0,0L31.9,20z"/>
</svg>
