<svg width="54px" height="72px" viewBox="0 0 54 72" version="1.1" xmlns="http://www.w3.org/2000/svg" xmlns:xlink="http://www.w3.org/1999/xlink">
    <g id="**Final-designs**" stroke="none" stroke-width="1" fill="none" fill-rule="evenodd">
        <g id="Artboard" transform="translate(-67.000000, -85.000000)" fill-rule="nonzero">
            <g id="Group-12" transform="translate(67.000000, 85.000000)">
                <path d="M28.5127078,71.3083253 C45.4827466,51.6872806 54,37.1006955 54,27.1851852 C54,12.1745126 41.9150058,0 27,0 C12.0849942,0 0,12.1745126 0,27.1851852 C0,37.1006955 8.51725341,51.6872806 25.4872922,71.3083253 C26.2849219,72.2305582 27.7150781,72.2305582 28.5127078,71.3083253 Z" id="Oval-Copy" fill="#1F8275"></path>
                <path d="M26.9999687,20.2500376 C27.7929354,20.2500376 28.5175432,20.4414436 29.1737916,20.8242549 C29.8300401,21.2070663 30.3495703,21.7265965 30.7323817,22.382845 C31.1151931,23.0390934 31.3065991,23.7637013 31.3065991,24.5566679 C31.3065991,25.3496346 31.1151931,26.0742424 30.7323817,26.7304909 C30.3495703,27.3867393 29.8300401,27.9062695 29.1737916,28.2890809 C28.5175432,28.6718923 27.7929354,28.8632983 26.9999687,28.8632983 C26.2070021,28.8632983 25.4823942,28.6718923 24.8261458,28.2890809 C24.1698973,27.9062695 23.6503671,27.3867393 23.2675557,26.7304909 C22.8847444,26.0742424 22.6933384,25.3496346 22.6933384,24.5566679 C22.6933384,23.7637013 22.8847444,23.0390934 23.2675557,22.382845 C23.6503671,21.7265965 24.1698973,21.2070663 24.8261458,20.8242549 C25.4823942,20.4414436 26.2070021,20.2500376 26.9999687,20.2500376 Z M31.6347233,29.150407 C32.3183156,29.3144691 32.8651891,29.663101 33.2753444,30.1963029 C33.6854996,30.7295048 33.8905773,31.3379015 33.8905773,32.0214939 L33.8905773,34.523441 C33.8905773,34.9335963 33.7470229,35.2822283 33.4599142,35.569337 C33.1728056,35.8564457 32.8241736,36 32.4140183,36 L21.5859191,36 C21.1757638,36 20.8271319,35.8564457 20.5400232,35.569337 C20.2529145,35.2822283 20.1093601,34.9335963 20.1093601,34.523441 L20.1093601,32.0214939 C20.1093601,31.3379015 20.3144378,30.7295048 20.724593,30.1963029 C21.1347483,29.663101 21.6816218,29.3144691 22.3652141,29.150407 L24.0058352,28.7402517 C24.8261458,29.341813 25.7695029,29.6699372 26.8359066,29.7246243 C27.9843414,29.7793115 29.0370734,29.4511873 29.9941022,28.7402517 L31.6347233,29.150407 Z M35.5311984,29.929702 C34.7382317,29.929702 34.0614755,29.6494294 33.5009298,29.0888837 C32.940384,28.5283379 32.6601115,27.8515817 32.6601115,27.0586151 C32.6601115,26.2656484 32.940384,25.5888922 33.5009298,25.0283465 C34.0614755,24.4678007 34.7382317,24.1875282 35.5311984,24.1875282 C36.324165,24.1875282 37.0009212,24.4678007 37.561467,25.0283465 C38.1220127,25.5888922 38.4022853,26.2656484 38.4022853,27.0586151 C38.4022853,27.8515817 38.1220127,28.5283379 37.561467,29.0888837 C37.0009212,29.6494294 36.324165,29.929702 35.5311984,29.929702 Z M18.468739,29.929702 C17.6757724,29.929702 16.9990162,29.6494294 16.4384705,29.0888837 C15.8779247,28.5283379 15.5976521,27.8515817 15.5976521,27.0586151 C15.5976521,26.2656484 15.8779247,25.5888922 16.4384705,25.0283465 C16.9990162,24.4678007 17.6757724,24.1875282 18.468739,24.1875282 C19.2617057,24.1875282 19.9384619,24.4678007 20.4990076,25.0283465 C21.0595534,25.5888922 21.339826,26.2656484 21.339826,27.0586151 C21.339826,27.8515817 21.0595534,28.5283379 20.4990076,29.0888837 C19.9384619,29.6494294 19.2617057,29.929702 18.468739,29.929702 Z M19.4531117,32.0214939 L19.4531117,34.6875031 L14.8593727,34.6875031 C14.5859356,34.6875031 14.3535147,34.5918004 14.1621087,34.4003944 C13.9707027,34.2089884 13.875,33.9765675 13.875,33.7031305 L13.875,32.0214939 C13.875,31.5839947 14.0117182,31.1875117 14.2851553,30.8320436 C14.5585923,30.4765755 14.9140598,30.2441546 15.351559,30.1347796 L16.4589782,29.8476709 C16.9511645,30.203139 17.5117103,30.4150522 18.1406148,30.4834116 C18.7695194,30.551771 19.3847523,30.4492322 19.9863136,30.1757951 C19.6308454,30.7500125 19.4531117,31.3652454 19.4531117,32.0214939 Z M38.6483784,30.1347796 C39.0858776,30.2441546 39.4413451,30.4765755 39.7147821,30.8320436 C39.9882192,31.1875117 40.1249374,31.5839947 40.1249374,32.0214939 L40.1249374,33.7031305 C40.1249374,33.9765675 40.0292347,34.2089884 39.8378287,34.4003944 C39.6464227,34.5918004 39.4140018,34.6875031 39.1405648,34.6875031 L34.5468257,34.6875031 L34.5468257,32.0214939 C34.5468257,31.3652454 34.369092,30.7363409 34.0136239,30.1347796 C34.5604973,30.4082167 35.1347147,30.5312632 35.736276,30.5039194 C36.3925244,30.4765755 36.9940857,30.2578262 37.5409592,29.8476709 L38.6483784,30.1347796 Z" id="u" fill="#FFFFFF"></path>
            </g>
        </g>
    </g>
</svg>