<svg xmlns="http://www.w3.org/2000/svg" width="55" height="71" viewBox="0 0 55 71">
  <g fill="none">
    <path fill="#1F8275" d="M28.9900253,70.3341007 C46.3085039,50.9915052 55,36.6129809 55,26.8148148 C55,11.9930264 42.6758228,0 27.5,0 C12.3241772,0 0,11.9930264 0,26.8148148 C0,36.6129809 8.69149607,50.9915052 26.0099747,70.3341007 C26.8049292,71.2219664 28.1950708,71.2219664 28.9900253,70.3341007 Z"/>
    <path fill="#FFF" d="M37.4006987,32.4644535 C37.7534562,32.6179013 37.9995494,32.9684959 37.9995494,33.3774095 C37.9995494,33.4526714 37.9911781,33.5260107 37.9753566,33.5965061 L36.990984,37.862121 C36.8901675,38.2985919 36.4987977,38.6249937 36.0318455,38.6249937 L36.0312046,38.6249937 C25.5271441,38.6249937 17,30.1142718 17,19.5937891 L17.0005608,19.5936289 C17.0005608,19.1266767 17.3264019,18.7352268 17.7628728,18.6344504 L22.0284876,17.6500777 C22.0993435,17.6339759 22.1719619,17.6246833 22.2476643,17.6246833 C22.6540545,17.6246833 23.0036077,17.8698152 23.1564146,18.2201695 L25.1251599,22.8139085 C25.1759487,22.932429 25.2051883,23.0632461 25.2051883,23.2002316 C25.2051883,23.5076477 25.0635966,23.7822595 24.8421768,23.9623433 L22.3566118,25.9967375 C23.8632515,29.1921435 26.4287247,31.7576567 29.6241707,33.2642563 L31.6585249,30.7787314 C31.8391294,30.557552 32.1142618,30.4173622 32.4217581,30.4173622 C32.5584231,30.4173622 32.6886394,30.44528 32.8069596,30.4957082 L37.4006987,32.4644535 Z"/>
  </g>
</svg>
