<svg xmlns="http://www.w3.org/2000/svg" width="55" height="71" viewBox="0 0 55 71">
  <g fill="none">
    <path fill="#7AB1EF" d="M28.9900253,70.3341007 C46.3085039,50.9915052 55,36.6129809 55,26.8148148 C55,11.9930264 42.6758228,0 27.5,0 C12.3241772,0 0,11.9930264 0,26.8148148 C0,36.6129809 8.69149607,50.9915052 26.0099747,70.3341007 C26.8049292,71.2219664 28.1950708,71.2219664 28.9900253,70.3341007 Z"/>
    <path fill="#FFF" d="M23.9374978,35.8857143 L24.8749955,35.8857143 L24.8749955,29.1143071 L23.9374978,29.1143071 C23.4197225,29.1143071 23,28.6945846 23,28.1768094 L23,25.9375264 C23,25.4197511 23.4197225,25.0000286 23.9374978,25.0000286 L29.1874852,25.0000286 C29.7052605,25.0000286 30.124983,25.4197511 30.124983,25.9375264 L30.124983,35.8857143 L31.0624808,35.8857143 C31.580256,35.8857143 31.9999785,36.3054368 31.9999785,36.8232121 L31.9999785,39.0624951 C31.9999785,39.5802703 31.580256,39.9999928 31.0624808,39.9999928 L23.9374978,39.9999928 C23.4197225,39.9999928 23,39.5802703 23,39.0624951 L23,36.8232121 C23,36.3054368 23.4197225,35.8857143 23.9374978,35.8857143 Z M27.4999893,16.0000501 C29.3639069,16.0000501 30.8749812,17.5110786 30.8749812,19.375042 C30.8749812,21.2390055 29.3639527,22.750034 27.4999893,22.750034 C25.6360258,22.750034 24.1249973,21.2390055 24.1249973,19.375042 C24.1249973,17.5110786 25.6360258,16.0000501 27.4999893,16.0000501 Z"/>
  </g>
</svg>
