<svg width="54px" height="72px" viewBox="0 0 54 72" version="1.1" xmlns="http://www.w3.org/2000/svg" xmlns:xlink="http://www.w3.org/1999/xlink">
    <g id="**Final-designs**" stroke="none" stroke-width="1" fill="none" fill-rule="evenodd">
        <g id="Artboard" transform="translate(-264.000000, -85.000000)" fill-rule="nonzero">
            <g id="Group-10-Copy" transform="translate(264.000000, 85.000000)">
                <path d="M28.5127078,71.3083253 C45.4827466,51.6872806 54,37.1006955 54,27.1851852 C54,12.1745126 41.9150058,0 27,0 C12.0849942,0 0,12.1745126 0,27.1851852 C0,37.1006955 8.51725341,51.6872806 25.4872922,71.3083253 C26.2849219,72.2305582 27.7150781,72.2305582 28.5127078,71.3083253 Z" id="Oval-Copy-2" fill="#38486C"></path>
                <path d="M34.8749624,21.2187829 L34.8749624,35.6562484 C34.8749624,36.2031219 34.6835564,36.667965 34.3007451,37.0507764 C33.9179337,37.4335877 33.4530906,37.6249937 32.9062171,37.6249937 L21.0937453,37.6249937 C20.5468718,37.6249937 20.0820288,37.4335877 19.6992174,37.0507764 C19.316406,36.667965 19.125,36.2031219 19.125,35.6562484 L19.125,21.2187829 C19.125,20.6719094 19.316406,20.2070663 19.6992174,19.8242549 C20.0820288,19.4414436 20.5468718,19.2500376 21.0937453,19.2500376 L24.3749875,19.2500376 C24.3749875,18.539102 24.6347523,17.923869 25.1542825,17.4043388 C25.6738127,16.8848086 26.2890456,16.6250438 26.9999812,16.6250438 C27.7109168,16.6250438 28.3261497,16.8848086 28.8456799,17.4043388 C29.3652102,17.923869 29.624975,18.539102 29.624975,19.2500376 L32.9062171,19.2500376 C33.4530906,19.2500376 33.9179337,19.4414436 34.3007451,19.8242549 C34.6835564,20.2070663 34.8749624,20.6719094 34.8749624,21.2187829 Z M26.9999812,18.2656649 C26.7265442,18.2656649 26.4941233,18.3613676 26.3027173,18.5527736 C26.1113113,18.7441796 26.0156086,18.9766005 26.0156086,19.2500376 C26.0156086,19.5234746 26.1113113,19.7558955 26.3027173,19.9473015 C26.4941233,20.1387075 26.7265442,20.2344102 26.9999812,20.2344102 C27.2734183,20.2344102 27.5058392,20.1387075 27.6972452,19.9473015 C27.8886512,19.7558955 27.9843539,19.5234746 27.9843539,19.2500376 C27.9843539,18.9766005 27.8886512,18.7441796 27.6972452,18.5527736 C27.5058392,18.3613676 27.2734183,18.2656649 26.9999812,18.2656649 Z M30.9374718,22.941435 L30.9374718,22.1211245 C30.9374718,22.0664373 30.9101279,22.0117495 30.8554408,21.9570623 C30.8007536,21.9023752 30.7460658,21.8750313 30.6913787,21.8750313 L23.3085838,21.8750313 C23.2538966,21.8750313 23.1992088,21.9023752 23.1445217,21.9570623 C23.0898345,22.0117495 23.0624906,22.0664373 23.0624906,22.1211245 L23.0624906,22.941435 C23.0624906,22.9961222 23.0898345,23.0508099 23.1445217,23.1054971 C23.1992088,23.1601843 23.2538966,23.1875282 23.3085838,23.1875282 L30.6913787,23.1875282 C30.7460658,23.1875282 30.8007536,23.1601843 30.8554408,23.1054971 C30.9101279,23.0508099 30.9374718,22.9961222 30.9374718,22.941435 Z" id="c" fill="#FFFFFF"></path>
            </g>
        </g>
    </g>
</svg>