<svg width="51" height="51" viewBox="0 0 51 51" fill="none" xmlns="http://www.w3.org/2000/svg">
<rect width="51" height="51" fill="#001964"/>
<g clip-path="url(#clip0_918_1733)">
<path d="M18.9375 19.7469C20.7968 19.7469 22.2843 18.2594 22.2843 16.4C22.2843 14.5406 20.7968 13.0531 18.9375 13.0531C17.0781 13.0531 15.5906 14.5406 15.5906 16.4C15.5906 18.2594 17.0781 19.7469 18.9375 19.7469Z" fill="white"/>
<path d="M24.0907 38.7125C23.1875 41.7938 20.3719 44.0781 16.9719 44.0781C12.8813 44.0781 9.58755 40.7844 9.58755 36.6938C9.58755 33.6656 11.3938 31.0625 13.9969 29.9469V26.8125C9.74692 28.0875 6.61255 32.0187 6.61255 36.6938C6.61255 42.3781 11.2344 47.0531 16.9719 47.0531C21.1688 47 24.7282 44.5563 26.375 40.9969L25.2063 38.7125C24.8875 38.7125 24.5157 38.7125 24.0907 38.7125Z" fill="white"/>
<path d="M33.8656 42.6969L29.4031 33.8781C29.0844 33.2406 28.3937 32.8156 27.65 32.8156H21.8594V31.4875H26.8C27.2781 31.4875 27.7031 31.2219 27.9687 30.85C28.1281 30.5844 28.2875 30.3188 28.2875 30C28.2875 29.2031 27.65 28.5125 26.8 28.5125H21.8594V24.05C21.8594 22.8281 20.9562 21.1281 18.9375 21.1281C17.2906 21.1281 16.0156 22.4563 16.0156 24.05V33.7188C16.0156 35.3656 17.3438 36.7469 19.0438 36.7469H26.4281L30.3594 44.5031C30.7312 45.1938 31.3687 45.5656 32.1125 45.5656C32.4312 45.5656 32.6969 45.5125 33.0156 45.3531C33.9719 44.8219 34.3437 43.6531 33.8656 42.6969Z" fill="white"/>
</g>
<path d="M32.3133 5.17719C32.3133 6.02782 31.6174 6.71719 30.7594 6.71719C29.9015 6.71719 29.2056 6.0275 29.2056 5.17719C29.2056 4.32657 29.9015 3.63719 30.7594 3.63719C31.6174 3.63719 32.3133 4.32688 32.3133 5.17719Z" fill="white"/>
<path d="M34.5409 8.96C34.5365 7.99594 33.7397 7.21031 32.7666 7.21031C32.7095 7.21031 32.3747 7.21031 28.6943 7.21031C27.7216 7.21031 26.9245 7.99562 26.92 8.96L26.8936 14.4225C26.8936 14.8325 27.2237 15.1684 27.6418 15.1684H27.6462C28.0599 15.1684 28.3945 14.8369 28.3945 14.4269L28.4209 8.96437C28.4254 8.87281 28.5001 8.80719 28.5925 8.80719C28.6849 8.81156 28.7555 8.88125 28.7555 8.97312C28.7555 10.81 28.7555 21.0544 28.7555 21.4687C28.7555 21.9619 29.1604 22.3631 29.6579 22.3631C30.1555 22.3631 30.5604 21.9619 30.5604 21.4687V14.3353H30.9479V21.4687C30.9479 21.9619 31.3527 22.3631 31.8503 22.3631C32.3479 22.3631 32.7527 21.9619 32.7527 21.4687C32.7527 18.1266 32.7351 12.4328 32.7351 8.96875C32.7351 8.88156 32.8054 8.81156 32.8893 8.81156C32.9772 8.81156 33.0479 8.88125 33.0479 8.96437L33.0744 14.4269C33.0744 14.8369 33.4133 15.1684 33.8226 15.1684H33.827C34.2407 15.1684 34.5753 14.8325 34.5753 14.4225L34.54 8.96H34.5409Z" fill="white"/>
<g clip-path="url(#clip1_918_1733)">
<path d="M45.6079 5.37775C45.6079 6.23087 44.9264 6.92212 44.086 6.92212C43.2455 6.92212 42.564 6.23056 42.564 5.37775C42.564 4.52462 43.2455 3.83337 44.086 3.83337C44.9264 3.83337 45.6079 4.52494 45.6079 5.37775Z" fill="white"/>
<path d="M47.0611 8.9292C46.7214 7.92139 46.1495 7.41077 45.3627 7.41077C44.2577 7.41077 43.918 7.41077 42.8173 7.41077C42.0304 7.41077 41.4585 7.92108 41.1188 8.9292C40.5857 10.4911 39.3859 13.8201 39.3776 13.8551C39.2399 14.2436 39.4333 14.6711 39.8161 14.8108C40.1946 14.9505 40.6202 14.7542 40.7579 14.3658C40.7665 14.3395 41.6307 11.9442 42.2198 10.2558C42.181 10.583 42.3057 9.8892 41.1749 15.8055C41.1533 15.9276 41.1835 16.0542 41.2608 16.1458C41.3381 16.2417 41.4542 16.2986 41.5746 16.2986C41.7338 16.2986 41.9229 16.2986 42.1336 16.2986V21.7042C42.1336 22.1973 42.529 22.5986 43.015 22.5986C43.501 22.5986 43.8964 22.1973 43.8964 21.7042V16.303C44.0211 16.303 44.1502 16.303 44.2792 16.303V21.7086C44.2792 22.2017 44.6747 22.603 45.1606 22.603C45.6466 22.603 46.042 22.2017 46.042 21.7086V16.303C46.2527 16.303 46.4461 16.303 46.601 16.303C46.7214 16.303 46.8375 16.2464 46.9148 16.1501C46.9921 16.0539 47.0223 15.9276 47.0008 15.8055C45.8613 9.84139 45.9989 10.583 45.9558 10.2295C46.5878 11.992 47.6155 14.6492 47.6672 14.7801C47.8135 15.1642 48.2434 15.3517 48.6176 15.2033C48.9961 15.0548 49.1809 14.6186 49.0346 14.2389C49.0174 14.1995 47.5856 10.4823 47.0611 8.9292Z" fill="white"/>
<line x1="37" y1="3.00012" x2="37" y2="24.0001" stroke="white" stroke-width="2"/>
</g>
<defs>
<clipPath id="clip0_918_1733">
<rect width="34" height="34" fill="white" transform="translate(3 13)"/>
</clipPath>
<clipPath id="clip1_918_1733">
<rect width="14.1667" height="20" fill="white" transform="translate(35.8333 3)"/>
</clipPath>
</defs>
</svg>
