<svg width="51" height="51" viewBox="0 0 51 51" fill="none" xmlns="http://www.w3.org/2000/svg">
<rect width="51" height="51" fill="#001964"/>
<g clip-path="url(#clip0_918_1731)">
<path d="M9.55608 42.704C9.55608 43.064 9.43608 43.364 9.19608 43.604C8.95608 43.844 8.65608 43.976 8.29608 44C7.93608 44.024 7.63608 43.892 7.39608 43.604C7.15608 43.316 7.02408 43.016 7.00008 42.704C6.97608 42.392 7.10808 42.092 7.39608 41.804C7.68408 41.516 7.98408 41.396 8.29608 41.444C8.60808 41.492 8.90808 41.612 9.19608 41.804C9.48408 41.996 9.60408 42.296 9.55608 42.704ZM13.4441 38.852C13.4441 39.212 13.3121 39.512 13.0481 39.752C12.7841 39.992 12.4841 40.124 12.1481 40.148C11.8121 40.172 11.5121 40.04 11.2481 39.752C10.9841 39.464 10.8521 39.164 10.8521 38.852C10.8521 38.54 10.9841 38.24 11.2481 37.952C11.5121 37.664 11.8121 37.532 12.1481 37.556C12.4841 37.58 12.7841 37.712 13.0481 37.952C13.3121 38.192 13.4441 38.492 13.4441 38.852ZM14.3441 31.508L19.4921 36.656L17.6561 38.456L12.5441 33.344L14.3441 31.508ZM21.1481 31.148C21.1481 31.484 21.0161 31.784 20.7521 32.048C20.4881 32.312 20.1881 32.444 19.8521 32.444C19.5161 32.444 19.2161 32.312 18.9521 32.048C18.6881 31.784 18.5561 31.484 18.5561 31.148C18.5561 30.812 18.6881 30.512 18.9521 30.248C19.2161 29.984 19.5161 29.852 19.8521 29.852C20.1881 29.852 20.4881 29.984 20.7521 30.248C21.0161 30.512 21.1481 30.812 21.1481 31.148ZM35.3321 24.704C35.3321 25.496 35.2601 26.228 35.1161 26.9C34.9721 27.572 34.7201 28.196 34.3601 28.772C34.0001 29.348 33.7121 29.804 33.4961 30.14C33.2801 30.476 32.9201 30.908 32.4161 31.436C32.0081 31.892 31.7081 32.252 31.5161 32.516C31.3241 32.78 31.0961 33.116 30.8321 33.524C30.5681 33.932 30.3881 34.352 30.2921 34.784C30.1961 35.216 30.1481 35.72 30.1481 36.296C30.1481 38.408 29.3921 40.22 27.8801 41.732C26.3681 43.244 24.5561 44 22.4441 44C22.0841 44 21.7841 43.868 21.5441 43.604C21.3041 43.34 21.1721 43.04 21.1481 42.704C21.1241 42.368 21.2561 42.068 21.5441 41.804C21.8321 41.54 22.1321 41.42 22.4441 41.444C23.8601 41.444 25.0721 40.94 26.0801 39.932C27.0881 38.924 27.5801 37.712 27.5561 36.296C27.5561 35.528 27.6401 34.82 27.8081 34.172C27.9761 33.524 28.2281 32.912 28.5641 32.336C28.9001 31.76 29.1881 31.316 29.4281 31.004C29.6681 30.692 30.0161 30.272 30.4721 29.744C31.0001 29.12 31.3961 28.64 31.6601 28.304C31.9241 27.968 32.1761 27.464 32.4161 26.792C32.6561 26.12 32.7761 25.424 32.7761 24.704C32.7761 22.232 31.9001 20.12 30.1481 18.368C28.3961 16.616 26.2721 15.728 23.7761 15.704C21.2801 15.68 19.1561 16.568 17.4041 18.368C15.6521 20.168 14.7761 22.28 14.7761 24.704C14.7761 25.064 14.6441 25.364 14.3801 25.604C14.1161 25.844 13.8161 25.976 13.4801 26C13.1441 26.024 12.8441 25.892 12.5801 25.604C12.3161 25.316 12.1961 25.016 12.2201 24.704C12.2201 23.144 12.5201 21.656 13.1201 20.24C13.7201 18.824 14.5481 17.588 15.6041 16.532C16.6601 15.476 17.8841 14.648 19.2761 14.048C20.6681 13.448 22.1681 13.148 23.7761 13.148C25.3841 13.148 26.8841 13.448 28.2761 14.048C29.6681 14.648 30.8921 15.476 31.9481 16.532C33.0041 17.588 33.8321 18.824 34.4321 20.24C35.0321 21.656 35.3321 23.144 35.3321 24.704ZM25.0001 27.296C25.0001 27.632 24.8681 27.932 24.6041 28.196C24.3401 28.46 24.0401 28.58 23.7041 28.556C23.3681 28.532 23.0681 28.412 22.8041 28.196C22.5401 27.98 22.4201 27.68 22.4441 27.296C22.4681 26.912 22.5881 26.612 22.8041 26.396C23.0201 26.18 23.3201 26.048 23.7041 26C24.0881 25.952 24.3881 26.084 24.6041 26.396C24.8201 26.708 24.9521 27.008 25.0001 27.296ZM30.7961 24.704C30.7961 25.064 30.6641 25.364 30.4001 25.604C30.1361 25.844 29.8361 25.976 29.5001 26C29.1641 26.024 28.8641 25.892 28.6001 25.604C28.3361 25.316 28.2041 25.016 28.2041 24.704C28.2041 23.456 27.7721 22.4 26.9081 21.536C26.0441 20.672 24.9761 20.228 23.7041 20.204C22.4801 20.204 21.4241 20.648 20.5361 21.536C19.6481 22.424 19.2041 23.48 19.2041 24.704C19.2041 25.064 19.0841 25.364 18.8441 25.604C18.6041 25.844 18.3041 25.976 17.9441 26C17.5841 26.024 17.2841 25.892 17.0441 25.604C16.8041 25.316 16.6721 25.016 16.6481 24.704C16.6481 22.76 17.3321 21.092 18.7001 19.7C20.0681 18.308 21.7361 17.624 23.7041 17.648C25.6721 17.672 27.3401 18.356 28.7081 19.7C30.0761 21.044 30.7721 22.712 30.7961 24.704ZM38.7161 18.908C38.8361 19.244 38.8241 19.568 38.6801 19.88C38.5361 20.192 38.2961 20.42 37.9601 20.564C37.8401 20.636 37.6841 20.672 37.4921 20.672C37.2521 20.672 37.0121 20.588 36.7721 20.42C36.5321 20.252 36.3761 20.06 36.3041 19.844C35.3921 17.444 33.8921 15.464 31.8041 13.904C31.5401 13.688 31.3721 13.412 31.3001 13.076C31.2281 12.74 31.3121 12.416 31.5521 12.104C31.7681 11.84 32.0561 11.672 32.4161 11.6C32.7761 11.528 33.0881 11.612 33.3521 11.852C35.8001 13.7 37.5881 16.052 38.7161 18.908ZM42.9281 17.288C43.0481 17.624 43.0361 17.948 42.8921 18.26C42.7481 18.572 42.5081 18.8 42.1721 18.944C42.0281 18.992 41.8721 19.016 41.7041 19.016C41.1281 19.016 40.7321 18.74 40.5161 18.188C39.2921 15.02 37.3001 12.392 34.5401 10.304C34.2521 10.088 34.0841 9.812 34.0361 9.476C33.9881 9.14 34.0721 8.816 34.2881 8.504C34.5041 8.216 34.7801 8.048 35.1161 8C35.4521 7.952 35.7761 8.036 36.0881 8.252C39.2321 10.604 41.5121 13.616 42.9281 17.288Z" fill="white"/>
</g>
<defs>
<clipPath id="clip0_918_1731">
<rect width="36" height="36" fill="white" transform="translate(7 8)"/>
</clipPath>
</defs>
</svg>
