<svg width="51" height="51" viewBox="0 0 51 51" fill="none" xmlns="http://www.w3.org/2000/svg">
<rect width="51" height="51" fill="#001964"/>
<g clip-path="url(#clip0_918_1721)">
<path d="M23.3438 13.3422C25.3673 13.3422 26.986 11.7234 26.986 9.7C26.986 7.67657 25.3673 6.05782 23.3438 6.05782C21.3204 6.05782 19.7017 7.67657 19.7017 9.7C19.7017 11.7234 21.3204 13.3422 23.3438 13.3422Z" fill="white"/>
<path d="M28.9515 33.9813C27.9687 37.3344 24.9046 39.8203 21.2046 39.8203C16.753 39.8203 13.1687 36.2359 13.1687 31.7844C13.1687 28.4891 15.1343 25.6562 17.9671 24.4422V21.0312C13.3421 22.4188 9.93115 26.6969 9.93115 31.7844C9.93115 37.9703 14.9608 43.0578 21.2046 43.0578C25.7718 43 29.6452 40.3406 31.4374 36.4672L30.1655 33.9813C29.8187 33.9813 29.414 33.9813 28.9515 33.9813Z" fill="white"/>
<path d="M39.5891 38.3172L34.7328 28.7203C34.3859 28.0266 33.6344 27.5641 32.825 27.5641H26.5234V26.1187H31.9C32.4203 26.1187 32.8828 25.8297 33.1719 25.425C33.3453 25.1359 33.5187 24.8469 33.5187 24.5C33.5187 23.6328 32.825 22.8812 31.9 22.8812H26.5234V18.025C26.5234 16.6953 25.5406 14.8453 23.3437 14.8453C21.5516 14.8453 20.1641 16.2906 20.1641 18.025V28.5469C20.1641 30.3391 21.6094 31.8422 23.4594 31.8422H31.4953L35.7734 40.2828C36.1781 41.0344 36.8719 41.4391 37.6812 41.4391C38.0281 41.4391 38.3172 41.3812 38.6641 41.2078C39.7047 40.6297 40.1094 39.3578 39.5891 38.3172Z" fill="white"/>
</g>
<line x1="5" y1="45" x2="44" y2="45" stroke="white" stroke-width="2"/>
<defs>
<clipPath id="clip0_918_1721">
<rect width="37" height="37" fill="white" transform="translate(6 6)"/>
</clipPath>
</defs>
</svg>
