<?xml version="1.0" encoding="UTF-8"?>
<svg width="1440px" height="660px" viewBox="0 0 1440 660" preserveAspectRatio="none" version="1.1" xmlns="http://www.w3.org/2000/svg" xmlns:xlink="http://www.w3.org/1999/xlink">
    <!-- Generator: Sketch 54 (76480) - https://sketchapp.com -->
    <title>Combined Shape</title>
    <desc>Created with Sketch.</desc>
    <g id="Page-1" stroke="none" stroke-width="1" fill="none" fill-rule="evenodd">
        <g id="Desktop---Home" transform="translate(0.000000, -135.000000)" fill="#46C0B0">
            <path d="M1435.26679,755.503197 L1435.48907,790.497537 C1287.80171,800.219831 1182.7611,803.092982 1120.36725,799.116989 C940.64364,787.664262 904.033276,768.62012 730.966097,762.99685 C557.898919,757.373579 532.937306,760.531983 320.763602,776.652024 C258.457023,781.385809 150.346224,783.262946 -3.56879525,782.283434 L-1.9885136,742.114375 L3.86935959,183.414325 L1.86629434,183.384903 L6.61823778,140.986677 C179.074106,135.566456 294.316003,134.710296 352.343931,138.418195 C519.806503,149.118808 582.269057,156.594795 737.770017,163.018092 C893.270976,169.441389 893.291507,173.04286 1105.58959,154.694169 C1247.12165,142.461709 1360.77642,143.095019 1446.55389,156.594098 L1447.17028,182.071189 L1447.98199,182.071189 L1447.60752,200.143138 L1447.71587,204.621692 L1447.51478,204.618739 L1436.0999,755.502867 L1435.26679,755.503197 Z" id="Combined-Shape" transform="translate(722.206595, 468.503501) rotate(-1.000000) translate(-722.206595, -468.503501)"></path>
        </g>
    </g>
</svg>