<?xml version="1.0" encoding="UTF-8"?>
<svg width="717px" height="155px" viewBox="0 0 717 155" version="1.1" preserveAspectRatio="none" xmlns="http://www.w3.org/2000/svg" xmlns:xlink="http://www.w3.org/1999/xlink">
    <!-- Generator: Sketch 54 (76480) - https://sketchapp.com -->
    <title>Mask Copy 8</title>
    <desc>Created with Sketch.</desc>
    <defs>
        <path d="M77.1256161,1701.62623 C87.3768482,1690.6347 164.904287,1693.27906 391.498995,1693.27906 C528.221991,1693.27906 649.739139,1693.36046 756.050441,1693.52326 L756.050441,1693.52326 C774.256074,1693.55114 788.999891,1708.31754 788.999905,1726.5232 L789.000012,1801 C789.000032,1826.95738 767.957432,1848.00002 742.000049,1848.00004 C742.000032,1848.00004 742.000016,1848.00004 742,1848.00004 L104.133859,1847.99983 C88.8611759,1847.99982 76.2059831,1836.15466 75.1971977,1820.91532 C70.3669585,1747.94677 71.0097647,1708.18374 77.1256161,1701.62623 Z" id="path-1"></path>
    </defs>
    <g id="Page-1" stroke="none" stroke-width="1" fill="none" fill-rule="evenodd">
        <g id="Desktop---Service" transform="translate(-72.000000, -1693.000000)">
            <mask id="mask-2" fill="white">
                <use xlink:href="#path-1"></use>
            </mask>
            <path stroke="#38486C" d="M77.4912686,1701.96726 C71.5287398,1708.36037 70.8847189,1748.19854 75.6961058,1820.8823 C76.6874983,1835.85888 89.1244982,1847.49982 104.133859,1847.49983 L742.000048,1847.50004 C767.681289,1847.50002 788.500032,1826.68124 788.500012,1801 L788.499905,1726.5232 C788.499891,1708.59339 773.979465,1694.05072 756.049675,1694.02326 C649.738647,1693.86046 528.221749,1693.77906 391.498995,1693.77906 C360.230476,1693.77906 332.886161,1693.73565 292.530117,1693.63953 C185.028091,1693.38347 159.985184,1693.43951 131.424275,1694.29542 C97.3483983,1695.31661 81.5978518,1697.56411 77.4912686,1701.96726 Z"></path>
        </g>
    </g>
</svg>