<svg width="348" height="321" viewBox="0 0 348 321" fill="none" xmlns="http://www.w3.org/2000/svg">
<mask id="mask0" mask-type="alpha" maskUnits="userSpaceOnUse" x="0" y="0" width="348" height="321">
<rect width="347.256" height="321" rx="80" fill="#C4C4C4"/>
</mask>
<g mask="url(#mask0)">
<path d="M134.744 218.026C134.744 218.026 178.278 290.154 178.032 309.227C177.939 316.376 185.833 352.651 174.144 367.575C154.656 392.458 111.461 397.329 111.461 397.329L120.769 276.848L87.8472 212.004L134.744 218.026Z" fill="#DE6B5B"/>
<path d="M96.2492 354.15C96.2492 354.15 64.4542 280.93 70.8657 265.592C77.2772 250.253 92.0652 244.4 92.0652 244.4L133.329 290.679C133.329 290.679 146.762 374.054 139.699 384.81L109.589 397.439L96.2492 354.15Z" fill="#DE6B5B"/>
<path d="M133.279 147.838C133.279 147.838 142.858 147.364 149.633 158.611C156.409 169.859 175.136 226.902 174.102 238.929C172.959 252.243 154.351 247.746 154.351 247.746L128.934 181.488L133.279 147.838Z" fill="#F4A388"/>
<path d="M156.206 103.304C156.223 103.211 156.24 103.127 156.257 103.033C158.738 93.9963 159.509 84.6457 154.241 76.1761C151.531 71.8227 147.635 68.1977 143.036 65.9024C139.25 64.0221 135.159 63.2599 131.009 62.9211C128.713 62.3282 126.35 62.1165 123.996 62.3875C116.737 60.99 109.047 62.0148 103.228 66.978C100.238 69.5274 98.0532 72.9068 97.1469 76.7436C96.6472 78.8864 96.4778 81.1817 95.3175 83.1127C94.1063 85.1285 92.0313 86.399 90.5575 88.1861C87.7964 91.5231 89.2448 94.894 90.1341 98.663C90.8625 101.729 90.151 103.618 87.9489 105.727C86.9664 106.675 86.0178 107.734 86.0771 109.191C86.1449 110.825 87.4238 112.096 88.5926 113.078C90.3712 114.561 92.2684 116.297 94.1826 117.593C98.4767 120.498 103.042 124.199 107.658 126.562C112.553 129.069 117.627 129.823 122.827 131.618C125.546 132.559 128.408 133.253 131.22 133.194C136.624 136.539 142.493 139.089 148.693 140.723C149.041 140.817 149.278 140.512 149.227 140.19C149.032 139.038 148.905 137.801 149.557 136.785C150.26 135.684 150.811 134.795 150.972 133.448C151.209 131.458 150.768 129.45 151.387 127.502C151.912 125.859 153.013 124.462 153.919 123.013C155.537 120.43 155.901 118.084 155.291 115.094C154.876 113.061 154.461 111.156 154.774 109.072C155.071 107.107 155.765 105.235 156.206 103.304Z" fill="#433D38"/>
<path d="M145.204 112.841C145.204 114.383 144.577 115.628 143.815 115.628C143.052 115.628 142.426 114.383 142.426 112.841C142.426 111.3 143.052 110.055 143.815 110.055C144.577 110.055 145.204 111.3 145.204 112.841Z" fill="white"/>
<path d="M147.482 98.7985C147.389 99.8403 147.253 100.891 147.101 101.941C145.991 109.674 143.611 117.127 142.773 119.236C140.249 125.537 134.718 134.413 127.815 134.854C122.132 135.218 103.135 118.101 102.898 115.221C102.669 112.342 104.075 97.4434 104.075 97.4434C104.075 97.4434 106.802 79.4877 121.15 73.9232C135.497 68.3586 144.382 79.6656 146.838 87.5085C147.804 90.6253 147.88 94.6484 147.482 98.7985Z" fill="#F4A388"/>
<path d="M138.75 149.413L137.31 156.079L136.632 159.196L126.731 204.923C126.731 204.923 102.957 182.606 102.881 182.165C102.872 182.106 102.33 181.276 101.416 179.896C100.78 178.947 99.9758 177.736 99.0272 176.338C91.7348 165.506 76.5911 143.324 76.5911 143.324C76.5911 143.324 80.9868 141.24 85.7891 138.614C86.2973 138.343 86.8055 138.055 87.3137 137.767C89.8291 136.37 92.3277 134.862 94.2672 133.473C100.357 129.128 102.898 115.213 102.898 115.213L127.307 130.712C127.307 130.712 123.538 139.843 125.325 142.451C126.071 143.535 128.544 144.941 131.161 146.186C131.966 146.567 132.787 146.94 133.575 147.287C136.361 148.515 138.75 149.413 138.75 149.413Z" fill="#F4A388"/>
<path d="M125.292 134.888C125.182 134.888 125.063 134.854 124.961 134.795C124.894 134.752 117.982 130.484 110.978 123.267C108.259 120.472 108.191 116.83 108.191 116.67C108.191 116.322 108.471 116.034 108.818 116.026H108.827C109.174 116.026 109.453 116.305 109.462 116.653C109.462 116.686 109.538 119.956 111.893 122.378C118.787 129.484 125.554 133.668 125.622 133.71C125.918 133.897 126.012 134.286 125.834 134.583C125.715 134.778 125.503 134.888 125.292 134.888Z" fill="#EE845D"/>
<path d="M111.173 104.973C111.173 106.514 110.546 107.759 109.784 107.759C109.021 107.759 108.395 106.514 108.395 104.973C108.395 103.431 109.021 102.186 109.784 102.186C110.546 102.186 111.173 103.44 111.173 104.973Z" fill="white"/>
<path d="M124.919 104.041C125.232 103.542 125.495 102.949 125.546 102.356C125.605 101.636 124.843 101.356 124.301 101.56C123.547 101.839 123.09 102.669 122.819 103.398C122.598 103.982 122.514 105.058 123.428 105.168C123.962 105.235 124.462 104.693 124.741 104.304C124.801 104.219 124.86 104.134 124.919 104.041Z" fill="#37313B"/>
<path d="M142.443 108.505C142.781 108.064 143.086 107.531 143.188 106.98C143.307 106.311 142.621 105.981 142.087 106.116C141.359 106.311 140.85 107.04 140.52 107.7C140.258 108.225 140.08 109.233 140.927 109.419C141.418 109.53 141.943 109.072 142.239 108.733C142.307 108.657 142.375 108.581 142.443 108.505Z" fill="#37313B"/>
<path d="M132.965 118.448C132.627 118.448 132.347 118.177 132.33 117.838C132.313 117.491 132.593 117.195 132.94 117.178C134.329 117.127 135.794 116.83 136.091 116.551C136.099 115.662 135.371 110.571 134.896 107.497C134.846 107.15 135.083 106.828 135.43 106.768C135.786 106.718 136.099 106.955 136.158 107.302C136.294 108.149 137.437 115.645 137.361 116.703C137.268 118.008 134.93 118.372 132.991 118.448C132.982 118.448 132.974 118.448 132.965 118.448Z" fill="#EE845D"/>
<path d="M118.228 95.6309C117.728 95.7664 117.737 96.4948 118.228 96.6303C121.684 97.6297 124.801 98.3751 128.315 99.1204C129.374 99.3406 131.153 100.027 131.5 98.7138C131.94 97.0877 129.865 96.3508 128.654 96.0628C126.765 95.614 124.817 95.4615 122.878 95.4361C121.43 95.4192 119.642 95.2413 118.228 95.6309Z" fill="#433D38"/>
<path d="M144.458 100.399C143.256 100.052 141.096 99.6794 140.672 101.314C140.342 102.627 142.172 103.016 143.196 103.338C144.636 103.787 145.805 104.05 147.101 104.66C147.253 103.618 147.389 102.568 147.482 101.517C146.5 101.077 145.492 100.696 144.458 100.399Z" fill="#433D38"/>
<path d="M148.702 93.3356C148.609 87.2036 147.186 81.0038 143.103 76.2438C139.182 71.6787 133.27 69.629 127.333 70.1542C114.188 71.323 106.099 83.46 102.822 95.1397C100.594 103.076 99.7048 111.461 99.222 119.685C99.078 119.558 98.9256 119.431 98.7816 119.304C98.3666 118.931 97.7483 119.541 98.1633 119.922C98.4936 120.218 98.8409 120.506 99.1797 120.803C99.222 120.955 99.3406 121.04 99.4761 121.065C101.297 122.607 103.211 124.038 105.219 125.334C105.608 125.588 105.964 125.122 105.82 124.775C105.828 124.716 105.828 124.648 105.803 124.58C104.753 121.387 105.464 118.541 107.361 115.865C108.623 114.086 109.157 112.773 108.767 110.605C108.488 109.081 107.929 107.641 108.666 106.142C109.098 105.269 109.902 104.583 110.631 103.965C111.893 102.906 113.358 102.009 114.298 100.628C115.255 99.2305 115.187 97.8753 114.925 96.2576C114.323 92.4802 115.56 89.6767 117.974 86.7886C120.616 83.6209 123.936 80.7158 124.673 76.625C126.715 80.0552 132.076 82.1557 135.404 82.6554C137.463 82.9603 139.656 82.8841 140.41 85.2217C140.791 86.399 140.808 87.2459 141.782 88.1183C142.883 89.1008 144.382 89.4142 145.576 90.2527C146.737 91.0573 147.474 92.2007 147.812 93.4711C147.812 93.7252 147.821 93.9878 147.821 94.2419C147.821 94.3943 147.889 94.5044 147.99 94.5722C148.024 94.9957 148.033 95.4361 147.982 95.868C147.923 96.427 148.795 96.4186 148.854 95.868C148.964 95.0126 148.905 94.1487 148.702 93.3356Z" fill="#433D38"/>
<path d="M76.5827 143.324C76.5827 143.324 65.2757 147.237 64.1238 157.383C62.9635 167.53 73.6861 204.627 74.5584 211.58C75.4308 218.534 73.3981 286.647 73.3981 286.647L144.052 258.536C144.052 258.536 150.438 169.266 147.711 161.44C144.984 153.614 138.758 149.413 138.758 149.413L101.517 148.685L76.5827 143.324Z" fill="#F4A388"/>
<path d="M151.886 237.743C149.6 231.018 151.819 224.454 151.361 217.602C151.15 214.35 150.37 211.174 150.125 207.922C149.871 204.508 150.099 194.878 150.489 191.49C151.183 185.392 152.081 179.269 150.54 173.247C150.226 172.036 146.771 172.722 145.805 172.756C144.289 172.815 141.037 165.074 139.521 165.15C136.607 165.302 131.907 186.663 128.993 186.883C123.183 187.323 104.558 166.039 98.7732 166.768C87.2037 168.233 92.0568 178.778 80.6905 181.386C76.5743 182.326 71.9414 182.741 68.0877 184.554C64.7337 186.138 66.6902 191.643 67.2068 194.506C67.9691 198.732 69.0786 209.141 69.4344 213.427C69.807 217.924 69.1803 222.354 68.8584 226.834C68.5705 230.891 68.8415 234.864 69.4513 238.878C70.1119 243.265 71.0351 247.636 71.1368 252.091C71.2384 256.563 70.0103 260.755 69.3581 265.134C68.7907 268.92 68.7991 272.782 69.3581 276.568C69.6461 278.542 70.0865 280.481 70.6625 282.387C70.9335 283.293 71.755 287.181 72.8222 287.274C74.567 287.426 76.8284 286.808 78.6155 286.647C80.9446 286.435 83.2822 286.224 85.6114 286.012C90.2782 285.588 94.9365 285.156 99.5948 284.724C107.15 284.013 114.713 283.09 121.777 280.168C127.985 277.593 133.617 273.816 138.742 269.504C141.486 267.192 144.086 264.728 146.601 262.17C148.931 259.798 154.529 255.309 155.749 252.159C155.816 252.125 152.793 240.394 151.886 237.743Z" fill="#6C8686"/>
<path d="M101.941 183.199L100.221 183.453C100.213 183.385 99.7725 180.404 99.0187 176.338C98.1971 171.942 97.0198 166.276 95.6139 161.694C93.3016 154.19 87.5084 142.121 85.7891 138.606C86.2972 138.335 86.8054 138.047 87.3136 137.759C88.9906 141.181 94.9109 153.496 97.2739 161.178C99.1711 167.352 100.662 175.432 101.416 179.887C101.737 181.894 101.932 183.165 101.941 183.199Z" fill="#6C8686"/>
<path d="M144.043 183.868L142.324 184.122C142.307 183.995 140.418 171.18 137.717 162.363C137.412 161.372 137.048 160.305 136.641 159.187C135.116 155.02 132.999 150.167 131.161 146.186C131.966 146.567 132.787 146.94 133.575 147.287C134.837 150.082 136.167 153.157 137.31 156.07C138.115 158.128 138.843 160.102 139.368 161.847C142.121 170.799 144.01 183.741 144.043 183.868Z" fill="#6C8686"/>
<path d="M117.059 207.998L113.087 197.453C113.087 197.453 65.1061 219.406 59.5585 224.285C54.0109 229.164 48.8021 236.151 49.8438 243.689C50.8856 251.227 65.9277 251.125 75.0072 245.358C84.0951 239.581 117.059 207.998 117.059 207.998Z" fill="#F4A388"/>
<path d="M73.8638 144.577C73.8638 144.577 61.803 147.677 57.4496 160.068C53.1047 172.459 47.015 231.942 49.8439 243.681C51.775 251.71 70.1287 247.865 70.1287 247.865L82.3758 178.252L73.8638 144.577Z" fill="#F4A388"/>
<path d="M128.866 204.923H144.018C145.814 202.865 147.042 200.087 147.338 196.936L150.591 180.285C150.667 179.896 150.421 179.523 150.082 179.523H122.802C122.471 179.523 122.217 179.896 122.293 180.285L125.546 196.936C125.842 200.087 127.07 202.865 128.866 204.923Z" fill="white"/>
<path d="M147.643 200.748C147.287 200.748 146.94 200.714 146.61 200.629C145.449 200.358 143.967 199.367 143.544 196.174C143.315 194.446 143.434 192.295 143.865 190.423C145.136 184.918 147.372 182.233 150.125 182.877C153.529 183.665 156.604 187.188 155.308 193.057C154.681 195.929 153.089 198.351 150.946 199.706C149.862 200.392 148.719 200.748 147.643 200.748ZM149.405 185.342C148.38 185.342 147.118 187.654 146.347 190.999C145.983 192.566 145.881 194.421 146.068 195.835C146.245 197.165 146.669 198.029 147.194 198.156C147.872 198.309 148.752 198.097 149.599 197.563C151.175 196.572 152.352 194.734 152.843 192.524C153.834 188.026 151.691 185.858 149.566 185.367C149.506 185.35 149.455 185.342 149.405 185.342Z" fill="white"/>
<path d="M108.225 201.222C108.835 200.612 109.436 200.002 110.046 199.393C109.538 201.442 109.242 203.526 109.208 205.652C109.191 207.024 108.954 209.302 110.19 210.319C111.664 211.53 111.452 212.698 113.129 212.605C115.848 212.453 127.189 203.543 127.189 203.543C127.189 203.543 130.831 204.805 133.143 206.058C134.202 206.626 136.302 207.837 136.98 206.058C137.623 204.39 135.43 203.212 134.371 202.467C131.551 200.494 127.799 198.266 127.782 198.088C131.229 199.308 134.981 200.638 138.479 201.663C139.783 202.044 144.492 204.212 145.178 202.103C145.864 199.994 140.164 197.445 138.894 196.716C138.835 196.682 138.775 196.657 138.724 196.623C140.241 197.258 141.74 197.919 143.213 198.647C144.602 199.333 147.838 200.341 148.337 198.004C149.007 194.861 142.604 192.786 140.105 191.914C135.819 190.406 131.347 189.314 126.943 188.136C131.373 188.789 138.58 190.093 143.01 190.728C144.34 190.923 147.092 190.804 145.712 188.577C144.941 187.34 139.775 186.299 138.547 185.943C136.675 185.409 134.761 185.045 132.83 184.833C130.577 184.588 127.917 184.046 125.664 184.139C122.971 184.249 117.11 191.253 115.594 192.685C112.858 195.259 110.122 197.834 107.471 200.502C106.98 200.985 107.751 201.705 108.225 201.222Z" fill="#F4A388"/>
<path d="M167.733 193.616C167.784 186.222 167.784 180.98 163.964 180.717C162.922 180.649 155.113 181.716 153.631 182.767C152.149 183.817 150.523 186.451 151.099 188.086C151.675 189.72 151.023 190.262 150.531 191.914C150.04 193.566 148.321 195.2 149.134 197.86C149.955 200.519 161.567 208.294 163.693 208.54C165.819 208.786 167.716 197.377 167.733 193.616Z" fill="#F4A388"/>
<path d="M114.696 153.241C114.561 153.241 114.425 153.199 114.307 153.106C114.281 153.081 111.427 150.912 107.099 149.405C102.72 147.88 94.6993 146.838 94.6146 146.83C94.2673 146.788 94.0217 146.466 94.0641 146.119C94.1064 145.771 94.4283 145.526 94.7755 145.568C95.1058 145.61 103.008 146.644 107.514 148.211C112.054 149.786 114.959 152.013 115.086 152.107C115.365 152.318 115.416 152.716 115.196 152.996C115.077 153.148 114.882 153.241 114.696 153.241Z" fill="#EE845D"/>
<path d="M118.609 153.241C118.406 153.241 118.211 153.148 118.093 152.97C117.889 152.682 117.957 152.284 118.245 152.081C118.389 151.98 121.718 149.642 125.461 149.642H130.06C130.407 149.642 130.695 149.93 130.695 150.277C130.695 150.624 130.407 150.912 130.06 150.912H125.461C122.116 150.912 119.007 153.089 118.982 153.114C118.863 153.199 118.736 153.241 118.609 153.241Z" fill="#EE845D"/>
<path d="M82.2403 179.667C82.2149 179.667 82.1811 179.667 82.1557 179.658C81.8084 179.608 81.5628 179.286 81.6136 178.938L82.757 170.774C82.8078 170.426 83.1212 170.181 83.4769 170.232C83.8242 170.282 84.0698 170.604 84.019 170.952L82.8756 179.116C82.8248 179.438 82.5537 179.667 82.2403 179.667Z" fill="#EE845D"/>
<path d="M63.2173 221.278C62.9717 221.278 62.743 221.134 62.6329 220.897C62.489 220.575 62.6414 220.203 62.9548 220.059L74.5836 214.951C74.9055 214.816 75.2781 214.951 75.4221 215.273C75.5661 215.595 75.4137 215.968 75.1003 216.112L63.4714 221.219C63.3867 221.261 63.302 221.278 63.2173 221.278Z" fill="#EE845D"/>
<path d="M138.03 196.928C137.962 196.928 137.886 196.92 137.818 196.894L127.638 193.269C127.307 193.151 127.138 192.786 127.248 192.456C127.367 192.126 127.731 191.956 128.061 192.066L138.242 195.691C138.572 195.81 138.741 196.174 138.631 196.505C138.538 196.767 138.293 196.928 138.03 196.928Z" fill="#EE845D"/>
<path d="M152.852 184.088C152.674 184.088 152.488 184.012 152.369 183.859C152.14 183.588 152.174 183.19 152.445 182.962C152.505 182.911 153.936 181.725 155.825 181.31C157.595 180.92 158.213 180.802 158.213 180.802C158.552 180.742 158.891 180.963 158.958 181.31C159.026 181.657 158.798 181.988 158.45 182.055C158.442 182.055 157.824 182.174 156.096 182.555C154.512 182.902 153.275 183.927 153.258 183.936C153.14 184.037 152.996 184.088 152.852 184.088Z" fill="#EE845D"/>
<path d="M163.244 207.075C163.236 207.075 163.227 207.075 163.21 207.075C162.965 207.066 157.053 206.761 154.012 205.508C151.327 204.398 150.785 201.823 150.878 200.621C150.904 200.274 151.209 200.019 151.564 200.036C151.912 200.062 152.174 200.367 152.149 200.714C152.14 200.816 152.005 203.297 154.495 204.33C157.332 205.499 163.21 205.796 163.269 205.804C163.617 205.821 163.888 206.118 163.871 206.473C163.862 206.812 163.583 207.075 163.244 207.075Z" fill="#EE845D"/>
<path d="M159.331 200.697C159.314 200.697 159.297 200.697 159.28 200.697L152.107 200.113C151.759 200.087 151.497 199.774 151.522 199.427C151.548 199.079 151.861 198.808 152.208 198.842L159.382 199.427C159.729 199.452 159.992 199.765 159.966 200.113C159.941 200.443 159.662 200.697 159.331 200.697Z" fill="#EE845D"/>
<path d="M162.88 194.252C162.829 194.252 162.338 194.243 159.695 193.955C157.095 193.676 151.302 193.955 151.243 193.955C150.904 193.972 150.59 193.701 150.574 193.354C150.557 193.007 150.828 192.702 151.175 192.685C151.42 192.668 157.129 192.397 159.822 192.685C162.363 192.964 162.855 192.973 162.88 192.973C163.227 192.981 163.507 193.261 163.507 193.616C163.515 193.972 163.227 194.252 162.88 194.252Z" fill="#EE845D"/>
<path d="M151.514 188.594C151.192 188.594 150.921 188.348 150.878 188.026C150.844 187.679 151.09 187.366 151.446 187.323C151.615 187.306 155.554 186.883 157.375 186.883H159.179C159.526 186.883 159.814 187.171 159.814 187.518C159.814 187.865 159.526 188.153 159.179 188.153H157.375C155.621 188.153 151.624 188.577 151.581 188.585C151.564 188.594 151.539 188.594 151.514 188.594Z" fill="#EE845D"/>
<path d="M152.157 222.794C151.81 222.794 151.522 222.506 151.522 222.159V204.915C151.522 204.568 151.81 204.28 152.157 204.28C152.504 204.28 152.792 204.568 152.792 204.915V222.159C152.792 222.515 152.504 222.794 152.157 222.794Z" fill="#EE845D"/>
<path d="M170.198 221.278C169.927 221.278 169.681 221.109 169.596 220.838L164.938 206.211C164.836 205.88 165.014 205.516 165.353 205.415C165.683 205.313 166.047 205.491 166.149 205.83L170.807 220.457C170.909 220.787 170.731 221.151 170.392 221.253C170.325 221.27 170.265 221.278 170.198 221.278Z" fill="#EE845D"/>
<path d="M124.334 75.4223C124.326 75.4223 124.309 75.4223 124.301 75.4223C124.072 75.4054 123.894 75.2021 123.911 74.9649C123.919 74.8294 124.106 71.7295 120.252 70.476C118.202 69.8069 116.847 69.5952 115.848 69.4427C114.755 69.2733 114.027 69.1547 113.282 68.5957C111.918 67.5794 110.614 65.1909 110.554 65.0893C110.444 64.886 110.52 64.6235 110.724 64.5134C110.927 64.4033 111.181 64.4795 111.3 64.6828C111.317 64.7082 112.579 67.0035 113.79 67.9182C114.366 68.3501 114.976 68.4518 115.983 68.6042C117.008 68.7651 118.406 68.9854 120.515 69.6714C125.021 71.1366 124.758 74.9903 124.758 75.0327C124.741 75.2529 124.555 75.4223 124.334 75.4223Z" fill="#231F1B"/>
<path d="M103.321 113.79C103.084 113.79 102.898 113.604 102.898 113.366C102.898 113.273 102.906 111.012 103.448 107.7C104.024 104.177 105.735 102.771 108.564 100.433C110.588 98.7647 110.927 95.0804 111.274 91.1843C111.393 89.8631 111.52 88.4994 111.715 87.2205C112.494 82.1133 120.862 75.5917 121.218 75.3207C121.404 75.1767 121.666 75.2106 121.81 75.3969C121.954 75.5832 121.921 75.8458 121.734 75.9898C121.65 76.0575 113.273 82.5707 112.545 87.3476C112.35 88.6011 112.231 89.9562 112.113 91.2606C111.748 95.3429 111.401 99.1966 109.097 101.094C106.328 103.372 104.812 104.634 104.278 107.844C103.745 111.088 103.745 113.349 103.745 113.375C103.745 113.604 103.558 113.79 103.321 113.79Z" fill="#231F1B"/>
<path d="M106.912 91.6163C106.904 91.6163 106.896 91.6163 106.879 91.6163C106.641 91.5993 106.472 91.3961 106.489 91.1674C106.506 90.9726 106.836 86.2719 108.437 81.8677C110.063 77.3703 114.306 74.7532 114.484 74.6431C114.688 74.5245 114.942 74.5838 115.069 74.7871C115.187 74.9903 115.128 75.2444 114.925 75.3715C114.882 75.3969 110.758 77.9547 109.233 82.1641C107.683 86.4583 107.344 91.1928 107.336 91.2351C107.311 91.4469 107.124 91.6163 106.912 91.6163Z" fill="#231F1B"/>
<path d="M151.039 101.712C151.022 101.712 151.006 101.712 150.989 101.712C150.76 101.687 150.591 101.475 150.616 101.246C150.624 101.17 151.437 93.6659 149.066 90.3628C147.558 88.2708 146.974 87.7965 146.398 87.3391C146.025 87.0427 145.644 86.7378 145.06 86.0348C144.611 85.5012 144.306 84.9761 143.984 84.4171C143.247 83.1551 142.409 81.7152 139.495 79.6995C135.396 76.8621 128.349 76.0829 128.281 76.0745C128.053 76.049 127.883 75.8373 127.909 75.6086C127.934 75.3715 128.146 75.2021 128.375 75.236C128.671 75.2698 135.701 76.0406 139.987 79.005C143.061 81.1308 143.942 82.6469 144.73 83.9936C145.034 84.5187 145.322 85.0184 145.729 85.4927C146.254 86.1279 146.593 86.3905 146.949 86.6785C147.567 87.1697 148.202 87.6779 149.769 89.8631C152.335 93.4288 151.514 101.018 151.48 101.339C151.429 101.551 151.251 101.712 151.039 101.712Z" fill="#231F1B"/>
<path d="M147.711 81.0716C147.567 81.0716 147.423 80.9953 147.338 80.8513C147.313 80.8005 144.602 76.0745 138.978 73.5928C133.355 71.1112 128.476 72.4494 128.434 72.4664C128.205 72.5341 127.976 72.3986 127.909 72.1784C127.841 71.9497 127.976 71.7211 128.197 71.6533C128.408 71.594 133.414 70.2135 139.317 72.8221C145.212 75.4223 147.956 80.2331 148.075 80.4448C148.185 80.6481 148.117 80.9022 147.914 81.0207C147.846 81.0546 147.778 81.0716 147.711 81.0716Z" fill="#231F1B"/>
<path d="M161.11 378.297C160.932 378.297 160.763 378.179 160.703 378.001C160.551 377.518 145.272 329.47 143.485 321.364C140.503 307.813 130.822 305.526 130.729 305.501C130.501 305.45 130.357 305.221 130.407 304.992C130.458 304.764 130.678 304.62 130.907 304.67C131.009 304.696 141.206 307.076 144.306 321.178C146.085 329.249 161.347 377.255 161.5 377.738C161.567 377.958 161.449 378.196 161.22 378.272C161.195 378.289 161.152 378.297 161.11 378.297Z" fill="#37313B"/>
<path d="M132.601 123.462C130.695 123.742 128.883 123.454 127.163 122.581C126.494 122.234 125.944 123.276 126.621 123.623C128.51 124.589 130.568 124.944 132.669 124.631C133.406 124.529 133.346 123.352 132.601 123.462Z" fill="#EE845D"/>
<path d="M328.144 304.061H131.28L179.188 259.172H376.053L328.144 304.061Z" fill="#8B6D51"/>
<path d="M336.245 304.061H131.28V323.541H336.245V304.061Z" fill="#8B6D51"/>
<path d="M213.122 263.491H314.529L306.907 218.636V189.297L314.529 173.772L310.371 174.314L308.008 167.538L303.79 167.801L302.07 162.169L299.36 162.152L295.413 164.709L290.425 162.169L283.844 164.709L277.669 162.169L272.588 164.989L264.186 162.152L258.604 164.709L254.344 162.169L248.754 164.709L244.053 162.169L235.778 163.862L226.69 162.169L219.822 163.862L213.122 162.169V263.491Z" fill="#E6C295"/>
<path d="M270.064 184.342C269.666 185.977 268.776 187.484 267.455 188.551C265.939 189.763 262.763 191.27 260.891 191.855C258.765 192.524 256.224 191.948 254.259 191.279C252.853 190.804 251.727 189.526 250.406 188.789C247.162 186.968 246.476 184.808 246.814 181.115C246.865 180.48 246.967 179.879 247.094 179.311C247.17 178.955 247.263 178.617 247.382 178.295C248.051 176.381 249.305 174.958 251.49 174.077C253.26 173.365 254.53 172.552 255.098 170.579C255.496 169.215 255.462 167.598 255.538 166.2C255.699 163.532 255.674 160.856 255.547 158.196C255.547 158.145 255.572 158.103 255.581 158.061H260.484C261.103 158.874 261.043 160.144 261.103 161.118C261.264 163.82 260.73 167.216 261.78 169.766C262.754 172.129 265.185 172.341 266.888 173.933C268.048 175.017 268.971 176.44 269.555 178.007C269.742 178.49 269.903 178.998 270.013 179.497C270.402 181.115 270.436 182.801 270.064 184.342Z" fill="#433D38"/>
<path d="M287.375 181.801C286.977 183.436 286.088 184.943 284.767 186.011C283.251 187.222 280.075 188.729 278.203 189.314C276.077 189.983 273.536 189.407 271.571 188.738C270.165 188.264 269.039 186.985 267.717 186.248C264.473 184.427 263.787 182.267 264.126 178.574C264.177 177.939 264.279 177.338 264.406 176.77C264.482 176.414 264.575 176.076 264.694 175.754C265.363 173.84 266.616 172.417 268.801 171.536C270.572 170.825 271.842 170.011 272.41 168.038C272.808 166.674 272.774 165.057 272.85 163.659C273.011 160.991 272.985 158.315 272.858 155.655C272.858 155.605 272.884 155.562 272.892 155.52H277.796C278.415 156.333 278.355 157.603 278.415 158.577C278.575 161.279 278.042 164.676 279.092 167.225C280.066 169.588 282.497 169.8 284.199 171.392C285.36 172.476 286.283 173.899 286.867 175.466C287.054 175.949 287.214 176.457 287.325 176.957C287.714 178.574 287.748 180.26 287.375 181.801Z" fill="#4F8372"/>
<path d="M225.581 275.094H314.529V257.596L311.988 228.274L314.529 173.772L310.252 177.16L305.755 173.772L299.75 177.16L295.108 173.772L291.348 177.16L284.928 173.772L278.338 177.16L272.486 173.772L265.515 176.313L258.96 173.772L251.049 176.313L245.705 173.772L238.497 176.313L232.086 173.772L225.581 176.313L222.464 170.875L217.84 172.493L213.122 162.169V263.491L225.581 275.094Z" fill="#D3B18C"/>
<path d="M283.149 281.057H181.742L189.365 236.202V206.871L181.742 191.346L185.901 191.88L188.264 185.104L192.481 185.375L194.201 179.743L196.911 179.726L200.858 182.284L205.847 179.743L212.428 182.284L218.602 179.743L223.675 182.563L232.086 179.726L237.667 182.284L241.927 179.743L247.517 182.284L252.218 179.743L260.493 181.437L269.581 179.743L276.45 181.437L283.149 179.743V281.057Z" fill="#F5DEBF"/>
<path d="M208.625 221.05C208.625 221.016 208.633 220.999 208.633 220.956C208.447 217.662 207.269 214.74 205.584 212.08C204.745 210.767 203.788 209.522 202.772 208.337C202.061 207.498 201.324 206.694 200.561 205.897C199.189 204.458 197.792 203.018 196.369 201.62C195.361 200.612 194.328 199.621 193.278 198.656C190.711 196.267 188.043 193.997 185.197 191.956C184.799 191.677 184.308 192.151 184.418 192.566C185.35 196.191 186.502 200.045 188.077 203.67C188.653 205.033 189.297 206.355 190.017 207.617C190.813 209.031 191.702 210.386 192.685 211.631C193.947 213.241 195.488 214.562 197.114 215.773C197.877 216.34 198.656 216.874 199.452 217.416C200.053 217.823 200.663 218.229 201.264 218.619C203.365 219.982 205.533 221.185 208.015 221.837C208.54 221.981 208.819 221.405 208.625 221.05Z" fill="#4F8372"/>
<path d="M209.209 220.956C209.717 215.112 209.827 209.565 208.641 203.788C208.277 202.035 207.871 200.299 207.54 198.554C207.312 197.377 207.125 196.174 207.007 194.971C206.981 194.743 206.964 194.523 206.964 194.302C206.778 191.363 207.295 188.467 207.151 185.528C207.151 185.443 207.142 185.358 207.125 185.282C207.015 183.69 206.609 182.242 206.033 180.861C204.737 177.77 202.62 175.025 201.247 171.892C200.629 170.469 200.087 169.004 199.604 167.504C199.122 166.048 198.707 164.557 198.308 163.041C197.462 159.772 196.742 156.443 195.895 153.267C195.785 152.877 195.158 152.623 194.929 153.072C193.337 156.18 192.287 159.611 191.702 163.168C191.457 164.667 191.287 166.192 191.185 167.725C190.906 172.078 191.228 176.525 191.99 180.759C192.278 182.394 192.642 183.986 193.066 185.545C193.277 186.324 193.506 187.103 193.743 187.865C194.573 190.474 195.547 193.023 196.598 195.573C197.165 196.97 197.758 198.351 198.359 199.74C199.122 201.519 199.892 203.289 200.638 205.059C201.959 208.21 203.289 211.369 204.61 214.519C205.669 217.043 206.66 219.559 208.438 221.676C208.879 222.201 209.692 221.507 209.243 220.982C209.217 220.965 209.209 220.956 209.209 220.956Z" fill="#4F8372"/>
<path d="M199.587 167.496C197.809 167.945 196.098 167.928 194.201 167.75C193.117 167.657 192.117 167.631 191.16 167.716C191.253 166.183 191.431 164.659 191.677 163.159C191.795 163.159 191.914 163.159 192.033 163.168C194.243 163.278 196.377 163.371 198.292 163.032C198.69 164.548 199.105 166.039 199.587 167.496Z" fill="#386758"/>
<path d="M207.117 185.274C205.143 186.011 203.17 186.731 200.968 186.731C198.037 186.731 195.505 185.934 193.049 185.536C192.634 183.978 192.27 182.386 191.973 180.751C193.303 180.819 194.675 181.039 196.081 181.403C200.028 182.419 202.501 182.072 206.016 180.844C206.6 182.242 207.007 183.69 207.117 185.274Z" fill="#386758"/>
<path d="M207.532 198.546C206.414 198.757 205.211 198.842 203.881 198.817C201.552 198.749 199.892 198.927 198.334 199.731C197.732 198.351 197.139 196.962 196.572 195.564C197.309 195.107 198.147 194.734 199.172 194.565C200.968 194.252 202.78 194.531 204.576 194.54C205.431 194.548 206.219 194.463 206.947 194.294C206.947 194.506 206.973 194.734 206.99 194.963C207.117 196.166 207.303 197.368 207.532 198.546Z" fill="#386758"/>
<path d="M232.755 169.249C232.78 167.801 232.848 166.353 232.966 164.896C233.153 162.329 233.449 159.763 233.805 157.163C233.856 156.799 233.432 156.595 233.127 156.646C229.341 157.4 227.376 160.534 225.962 163.879C225.369 165.251 224.878 166.666 224.37 167.97C224.336 168.063 224.302 168.157 224.277 168.241C223.099 171.324 222.091 174.399 221.422 177.532C221.05 179.337 220.77 181.157 220.652 183.012C220.558 184.147 220.533 185.299 220.567 186.468C220.652 189.593 220.999 192.871 220.084 195.92C219.796 196.877 219.364 197.716 218.848 198.495C217.84 200.019 216.51 201.315 215.299 202.721C214.926 203.128 214.579 203.56 214.249 204C212.919 205.77 211.953 207.71 211.208 209.76C210.59 211.42 210.124 213.147 209.751 214.901C209.421 216.417 209.158 217.941 208.904 219.449C208.794 219.5 208.709 219.618 208.692 219.796C208.642 220.169 208.582 220.55 208.531 220.923C208.455 221.515 209.141 221.854 209.522 221.329C210.53 219.889 211.699 218.627 212.987 217.475C214.079 216.535 215.248 215.671 216.485 214.875C216.688 214.74 216.883 214.621 217.086 214.486C219.212 213.164 221.558 212.097 223.328 210.293C224.319 209.285 225.022 208.083 225.632 206.821C226.114 205.813 226.53 204.762 226.961 203.738C227.114 203.382 227.258 203.018 227.419 202.662C228.52 200.019 229.655 197.402 230.756 194.751C231.484 192.99 232.111 191.296 232.568 189.61C233 188.077 233.297 186.544 233.466 184.986C233.678 182.894 233.636 180.726 233.297 178.396C232.839 175.305 232.704 172.273 232.755 169.249Z" fill="#4F8372"/>
<path d="M216.476 214.867C215.239 215.663 214.071 216.518 212.978 217.467C212.843 217.357 212.699 217.272 212.546 217.179C211.454 216.493 210.547 215.858 209.743 214.892C210.115 213.139 210.581 211.42 211.199 209.751C212.36 211.03 213.173 212.512 214.706 213.478C215.341 213.876 215.909 214.359 216.476 214.867Z" fill="#386758"/>
<path d="M232.975 164.887C232.856 166.344 232.78 167.792 232.763 169.241C232.153 169.071 231.543 168.944 230.917 168.868C228.503 168.572 226.368 168.36 224.378 167.953C224.886 166.657 225.377 165.235 225.97 163.862C228.232 164.244 230.569 164.345 232.975 164.887Z" fill="#386758"/>
<path d="M233.474 184.986C233.305 186.544 233 188.077 232.577 189.61C230.713 189.043 228.706 188.611 226.631 187.603C224.429 186.544 222.489 184.833 220.651 183.004C220.77 181.149 221.049 179.32 221.422 177.524C222.947 179.049 224.48 180.582 226.08 181.996C228.401 184.046 230.696 184.19 233.474 184.986Z" fill="#386758"/>
<path d="M227.427 202.662C227.266 203.018 227.114 203.382 226.97 203.738C226.538 204.754 226.123 205.813 225.64 206.821C224.353 206.49 223.015 206.185 221.583 205.787C220.22 205.398 219.483 204.83 218.432 203.966C217.314 203.043 216.544 202.789 215.307 202.721C216.518 201.315 217.848 200.019 218.856 198.495C219.22 198.58 219.55 198.698 219.855 198.868C221.227 199.664 221.575 201.188 223.158 201.764C224.505 202.238 225.987 202.349 227.427 202.662Z" fill="#386758"/>
<path d="M205.593 212.08C204.195 214.265 203.043 216.611 201.281 218.627C200.68 218.238 200.07 217.831 199.469 217.425C198.673 216.891 197.894 216.349 197.131 215.781C198.148 215.095 199.045 214.198 199.757 212.978C200.714 211.369 201.68 209.793 202.781 208.328C203.797 209.522 204.754 210.767 205.593 212.08Z" fill="#386758"/>
<path d="M196.369 201.62C196.344 201.654 196.318 201.671 196.293 201.696C194.167 203.627 192.27 205.863 190.017 207.634C189.297 206.372 188.653 205.05 188.077 203.687C189.881 202.12 191.49 200.282 193.269 198.673L193.278 198.664C194.336 199.621 195.361 200.612 196.369 201.62Z" fill="#386758"/>
<path d="M254.598 220.448C262.153 214.418 258.426 197.182 246.264 181.945C234.11 166.708 218.128 159.246 210.573 165.277C206.456 168.563 205.694 175.169 207.812 182.97C207.515 183.969 207.21 184.96 207.007 185.994C206.651 187.755 207.642 189.263 208.438 190.771C210.784 195.217 213.41 199.52 216.281 203.644C217.747 205.745 219.28 207.803 220.88 209.81C222.083 211.318 223.226 212.927 225.064 213.673C226.868 214.401 228.816 214.951 230.79 215.417C240.047 222.312 249.347 224.632 254.598 220.448Z" fill="#A16E4A"/>
<path d="M260.408 205.804C259.154 202.594 256.664 199.621 254.64 196.886C254.581 196.809 254.513 196.767 254.445 196.75C252.463 194.362 250.354 191.965 247.475 190.652C245.357 189.686 242.164 189.102 240.369 191.042C238.904 192.625 239.302 194.912 240.123 196.691C241.521 199.74 243.731 202.56 245.993 205.017C248.796 208.066 254.852 214.536 259.434 210.92C261.052 209.632 261.111 207.625 260.408 205.804ZM246.645 204.483C245.213 202.924 243.901 201.256 242.74 199.494C241.631 197.809 239.319 194.641 240.445 192.49C242.164 189.221 246.577 190.881 248.872 192.422C250.863 193.752 252.413 195.641 253.929 197.47C253.979 197.529 254.03 197.563 254.09 197.589C255.352 199.291 256.571 201.027 257.723 202.814C258.968 204.737 261.009 207.439 259.358 209.666C255.928 214.299 248.982 207.024 246.645 204.483Z" fill="white"/>
<path d="M206.27 181.073C206.812 180.734 207.117 180.209 207.193 179.658C207.261 179.497 207.295 179.328 207.286 179.15C207.244 177.795 205.906 176.669 204.559 176.711C202.891 176.762 202.086 178.608 202.823 179.989C203.45 181.157 205.084 181.801 206.27 181.073Z" fill="#A05866"/>
<path d="M213.029 184.528C213.605 184.808 214.206 184.782 214.714 184.554C214.884 184.528 215.053 184.461 215.197 184.359C216.315 183.597 216.561 181.869 215.807 180.751C214.867 179.37 212.885 179.675 212.106 181.03C211.445 182.191 211.775 183.919 213.029 184.528Z" fill="#A05866"/>
<path d="M207.202 186.375C207.778 186.654 208.379 186.629 208.887 186.4C209.056 186.375 209.226 186.307 209.37 186.205C210.488 185.443 210.733 183.715 209.98 182.597C209.04 181.217 207.058 181.522 206.278 182.877C205.618 184.037 205.948 185.765 207.202 186.375Z" fill="#A05866"/>
<path d="M206.838 192.312C207.414 192.592 208.015 192.566 208.523 192.337C208.692 192.312 208.862 192.244 209.006 192.143C210.124 191.38 210.369 189.653 209.616 188.535C208.676 187.154 206.694 187.459 205.914 188.814C205.254 189.974 205.584 191.702 206.838 192.312Z" fill="#A05866"/>
<path d="M210.361 195.607C210.937 195.886 211.538 195.861 212.046 195.632C212.216 195.607 212.385 195.539 212.529 195.437C213.647 194.675 213.893 192.947 213.139 191.829C212.199 190.449 210.217 190.754 209.438 192.109C208.785 193.269 209.107 194.997 210.361 195.607Z" fill="#A05866"/>
<path d="M215.434 191.025C216.01 191.304 216.611 191.279 217.12 191.05C217.289 191.025 217.458 190.957 217.602 190.855C218.72 190.093 218.966 188.365 218.212 187.247C217.272 185.867 215.29 186.172 214.511 187.527C213.85 188.687 214.181 190.415 215.434 191.025Z" fill="#A05866"/>
<path d="M216.629 201.73C216.4 195.912 214.791 190.347 211.877 185.308C211.606 184.833 210.886 185.282 211.157 185.757C214.003 190.669 215.561 196.081 215.782 201.756C215.807 202.298 216.654 202.281 216.629 201.73Z" fill="#222044"/>
<path d="M259.824 193.227C259.095 192.778 257.876 193.362 256.927 193.93C257.393 192.888 257.825 191.821 258.181 190.737C258.799 188.856 260.671 183.673 258.469 182.182C256.199 180.641 253.395 184.681 252.311 186.087C252.252 186.163 252.193 186.248 252.133 186.324C252.514 184.732 252.845 183.122 253.065 181.496C253.268 180.023 255.259 170.765 251.049 172.645C248.483 173.789 246.975 177.211 246.001 179.641C245.51 180.87 245.129 182.14 244.815 183.427C244.629 182.242 244.426 181.056 244.189 179.879C243.706 177.456 243.113 175.051 242.419 172.671C242.063 171.477 241.648 169.131 240.411 168.402C239.31 167.75 237.565 168.572 237.159 169.732C236.032 172.95 235.999 176.457 236.278 179.819C236.388 181.157 236.608 182.479 236.651 183.825C236.676 184.766 237.032 187.044 237.032 187.044C237.032 187.044 233.695 183.571 232.348 184.867C230.553 186.595 232.238 191.169 232.958 192.981C233.813 195.115 234.982 197.097 236.202 199.037C238.285 202.34 240.657 205.05 244.824 205.271C249.321 205.508 253.387 203.89 256.537 200.655C257.554 199.613 262.068 194.616 259.824 193.227Z" fill="#386758"/>
<path d="M269.682 188.933C268.878 186.256 265.769 185.07 263.804 184.325C263.737 184.3 263.669 184.342 263.618 184.401C262.212 184.401 260.806 184.393 259.4 184.367C259.366 184.325 259.316 184.3 259.256 184.325C257.122 185.079 251.591 187.103 250.151 189.797C249.338 191.313 249.296 193.54 249.05 195.293L248.212 201.281C247.052 209.531 248.432 215.239 247.28 223.497C247.255 223.709 247.441 223.819 247.534 223.709C250.998 223.946 254.471 224.124 257.943 224.251C259.604 224.31 261.272 224.387 262.932 224.327C263.991 224.285 265.719 224.505 266.532 223.446C266.599 223.353 266.583 223.243 266.532 223.167C267.319 214.994 268.107 208.514 268.903 200.341L269.479 194.387C269.657 192.651 270.14 190.432 269.682 188.933Z" fill="#DE6B5B"/>
<path d="M259.222 186.968C259.79 187.349 260.002 187.611 260.654 187.713C261.323 187.815 262.094 187.823 262.763 187.637C263.364 187.467 264.152 182.758 264.338 182.259C264.652 181.412 264.914 180.548 265.134 179.675C265.278 179.108 265.304 179.082 265.016 179.015C264.685 178.938 264.304 178.854 263.965 178.794C263.5 178.71 263.025 178.625 262.551 178.557C262.144 178.498 261.729 178.447 261.323 178.396C260.976 178.354 260.544 178.252 260.205 178.295C259.663 178.371 259.57 179.142 259.434 179.548C259.18 180.302 258.74 182.064 258.723 182.851C258.689 184.029 258.807 186.688 259.222 186.968Z" fill="#B76F6F"/>
<path d="M270.69 292.669H181.742V275.171L184.283 245.849L181.742 191.346L186.019 194.734L190.517 191.346L196.521 194.734L201.163 191.346L204.923 194.734L211.343 191.346L217.933 194.734L223.785 191.346L230.756 193.887L237.311 191.346L245.222 193.887L250.566 191.346L257.774 193.887L264.186 191.346L270.69 193.887L273.807 188.441L278.432 190.068L283.149 179.743V281.057L270.69 292.669Z" fill="#E6C295"/>
<path d="M269.454 287.189C269.217 287.189 269.022 286.791 269.022 286.545V235.287C269.022 235.05 269.217 234.855 269.454 234.855C269.691 234.855 269.886 235.05 269.886 235.287V286.545C269.886 286.791 269.691 287.189 269.454 287.189Z" fill="#C9A57D"/>
<path d="M187.205 271.444C187.002 271.444 186.815 271.317 186.756 271.114C186.68 270.868 186.815 270.597 187.061 270.521C187.188 270.478 200.341 266.286 211.615 264.838C222.82 263.398 225.657 262.746 239.005 252.709C251.964 242.961 259.841 220.38 259.917 220.152C260.002 219.906 260.264 219.771 260.518 219.855C260.764 219.94 260.899 220.211 260.815 220.457C260.739 220.685 252.769 243.528 239.573 253.454C226.081 263.61 222.922 264.33 211.733 265.769C200.553 267.201 187.484 271.376 187.349 271.419C187.307 271.436 187.256 271.444 187.205 271.444Z" fill="#C9A57D"/>
<path d="M190.601 261.026C190.381 261.026 190.186 260.874 190.144 260.654C190.085 260.4 190.246 260.146 190.5 260.086C190.72 260.035 212.402 255.081 220.126 249.067C227.808 243.088 230.578 232.119 230.612 232.009C230.671 231.755 230.934 231.603 231.188 231.662C231.442 231.721 231.594 231.984 231.535 232.238C231.425 232.704 228.655 243.638 220.719 249.821C212.826 255.97 191.618 260.815 190.711 261.018C190.677 261.018 190.644 261.026 190.601 261.026Z" fill="#C9A57D"/>
</g>
</svg>
