<svg width="486" height="574" viewBox="0 0 486 574" fill="none" xmlns="http://www.w3.org/2000/svg">
<g clip-path="url(#clip0)">
<path d="M47.4222 331.194C46.2279 331.194 45.2507 330.229 45.2507 329.023V290.865C45.2507 289.671 46.2158 288.694 47.4222 288.694C48.6165 288.694 49.5936 289.659 49.5936 290.865V329.023C49.5936 330.217 48.6165 331.194 47.4222 331.194Z" fill="#36303A"/>
<path d="M23.8379 519.229C23.7776 519.229 23.7052 519.229 23.6449 519.217C22.4506 519.109 21.5699 518.059 21.6785 516.865L34.9243 369.52C35.0329 368.326 36.0824 367.457 37.2767 367.554C38.471 367.662 39.3517 368.712 39.2431 369.906L25.9852 517.251C25.8887 518.373 24.9477 519.229 23.8379 519.229Z" fill="#36303A"/>
<path d="M50.7999 456.39C50.7517 456.39 50.7155 456.39 50.6672 456.39C49.4729 456.318 48.5681 455.292 48.6405 454.098L55.2634 347.202C55.3358 346.008 56.3612 345.091 57.5555 345.176C58.7498 345.248 59.6546 346.274 59.5822 347.468L52.9593 454.363C52.8869 455.497 51.9339 456.39 50.7999 456.39Z" fill="#36303A"/>
<path d="M435.822 331.194C434.628 331.194 433.65 330.229 433.65 329.023V290.865C433.65 289.671 434.615 288.694 435.822 288.694C437.016 288.694 437.993 289.659 437.993 290.865V329.023C437.981 330.217 437.016 331.194 435.822 331.194Z" fill="#36303A"/>
<path d="M459.406 519.229C458.296 519.229 457.355 518.385 457.247 517.251L444.001 369.906C443.892 368.712 444.773 367.662 445.967 367.554C447.137 367.457 448.211 368.326 448.32 369.52L461.565 516.865C461.674 518.059 460.793 519.109 459.599 519.217C459.539 519.217 459.466 519.229 459.406 519.229Z" fill="#36303A"/>
<path d="M432.432 456.39C431.298 456.39 430.345 455.509 430.273 454.363L423.65 347.468C423.577 346.274 424.482 345.248 425.676 345.176C426.907 345.103 427.896 346.008 427.968 347.202L434.591 454.098C434.664 455.292 433.759 456.318 432.565 456.39C432.528 456.39 432.48 456.39 432.432 456.39Z" fill="#36303A"/>
<path d="M482.315 373.803H2.89534C0.494679 373.803 -0.844381 371.076 0.603252 369.17L11.1468 355.273L12.2446 353.825L26.1419 335.525L27.2397 334.077L36.408 321.99C36.9509 321.266 37.8074 320.843 38.7242 320.843H446.498C447.403 320.843 448.259 321.266 448.79 321.99L457.983 334.077L459.08 335.525L472.978 353.825L474.075 355.273L484.619 369.17C486.055 371.064 484.703 373.803 482.315 373.803Z" fill="#6F5E61"/>
<path d="M446.172 182.944V298.297C446.172 299.889 444.87 301.18 443.277 301.18H39.9548C38.3624 301.18 37.0596 299.877 37.0596 298.297V182.944C37.0596 181.34 38.3624 180.061 39.9548 180.061H443.277C444.87 180.061 446.172 181.34 446.172 182.944Z" fill="#6F5E61"/>
<path d="M446.172 208.399H37.0715V209.846H446.172V208.399Z" fill="white"/>
<path d="M446.172 238.739H37.0715V240.186H446.172V238.739Z" fill="white"/>
<path d="M446.172 269.067H37.0715V270.514H446.172V269.067Z" fill="white"/>
<path d="M459.068 335.525H26.1299L27.2397 334.077H457.971L459.068 335.525Z" fill="white"/>
<path d="M474.063 355.261H11.147L12.2448 353.825H472.966L474.063 355.261Z" fill="white"/>
<path d="M220.752 53.2729C220.631 53.2487 220.511 53.2246 220.39 53.2125C219.883 44.7318 219.485 35.0448 214.262 28.5907C212.5 26.4193 210.232 24.8028 207.783 23.512C210.124 23.8015 212.416 23.705 214.563 22.4142C217.651 20.5443 217.567 17.0941 214.997 14.8262C214.431 14.3195 213.791 13.8973 213.116 13.4992C214.044 10.7849 213.936 7.79308 210.522 6.86419C207.229 5.97148 203.392 8.05848 200.22 5.75434C200.304 5.35624 200.497 5.00639 200.799 4.72893C201.004 4.28258 201.378 3.93273 201.583 3.48638C201.981 2.60574 202.198 2.2197 201.703 1.35112C199.894 -1.77335 192.764 1.4597 190.593 2.46097C187.324 3.96892 181.895 6.828 180.737 10.7366C179.76 12.0998 179.193 13.6922 179.35 15.6827C179.506 17.7817 179.904 20.4719 181.473 22.0281C181.207 22.2453 180.942 22.4504 180.677 22.6796C173.692 25.599 168.396 31.0517 165.657 37.747C163.763 39.8943 162.34 42.2829 161.58 45.2868C160.349 50.1725 160.856 55.3357 161.375 60.2697C161.471 61.1866 162.919 61.1986 162.822 60.2697C162.388 56.1319 161.978 51.9217 162.593 47.7719C162.871 45.8658 163.414 44.1648 164.174 42.6207C163.655 45.142 163.45 47.7719 163.631 50.462C163.655 50.8601 163.944 51.0773 164.258 51.1376C166.984 56.1802 177.926 55.6011 182.486 55.0583C188.433 54.3586 194.308 51.5719 200.292 51.596C206.432 51.6081 212.91 53.3211 219.015 54.443C219.087 55.7338 219.184 56.9884 219.292 58.1948C219.377 59.1116 220.824 59.1237 220.74 58.1948C220.631 57.0608 220.547 55.8907 220.474 54.6843C221.295 54.6722 221.62 53.4176 220.752 53.2729Z" fill="#36303A"/>
<path d="M139.938 452.614L154.414 503.474L138.792 509.084L114.025 457.222L100.659 428.125L139.938 452.614Z" fill="#915851"/>
<path d="M252.732 456.752L245.181 509.084L228.629 507.829L227.194 450.37L226.88 418.354L252.732 456.752Z" fill="#915851"/>
<path d="M168.348 339.421C168.348 339.421 168.336 339.421 168.299 339.433C168.13 339.446 167.949 339.482 167.781 339.506C167.66 339.518 167.539 339.53 167.419 339.566C165.428 339.916 160.53 340.797 156.38 341.834C156.248 341.858 156.115 341.907 155.97 341.931C154.052 342.437 152.303 342.968 151.157 343.511C147.622 345.176 143.979 346.611 140.3 347.962C139.817 348.131 139.347 348.312 138.864 348.481C136.874 349.193 134.883 349.881 132.869 350.544C133.653 356.033 133.629 361.534 133.87 367.168C133.99 369.749 134.437 372.198 135.124 374.551C135.269 375.069 135.426 375.576 135.595 376.083C138.345 384.395 143.557 391.681 145.342 400.427C145.427 400.91 145.511 401.368 145.608 401.838C145.704 402.514 145.801 403.202 145.849 403.889C146.187 407.641 145.982 417.581 148.02 420.73C151.229 425.688 153.304 430.369 154.137 436.268C154.33 437.607 154.486 438.958 154.619 440.297C154.68 440.9 154.74 441.528 154.776 442.131C155.198 447.234 155.307 452.397 155.596 457.488C155.813 461.24 156.031 465.003 156.248 468.755C156.332 470.287 156.561 471.964 156.73 473.641C155.584 474.546 154.438 475.463 153.268 476.343C152.882 476.633 152.508 476.922 152.11 477.212C149.721 478.973 147.26 480.65 144.655 482.194C141.337 484.16 137.067 485.777 133.303 486.959C132.82 487.104 132.362 487.249 131.916 487.381C127.524 488.684 124.098 489.372 124.098 489.372C124.098 489.372 117.415 474.534 109.899 458.043C109.694 457.596 109.477 457.15 109.296 456.704C101.165 438.862 92.2745 419.524 89.9945 415.133C89.5602 414.312 89.0897 413.347 88.5469 412.225C88.3297 411.779 88.1005 411.296 87.8713 410.814C83.7456 402.032 77.4604 387.242 74.1429 379.364C73.9379 378.881 73.7569 378.459 73.576 378.037C73.4312 377.687 73.2985 377.374 73.1658 377.072C65.9035 359.737 65.8553 355.985 62.0432 337.588C61.4038 334.499 61.0298 331.64 60.9333 328.95C60.9212 328.456 60.9092 327.973 60.9092 327.478C60.9092 315.27 66.8565 307.055 79.4389 299.515C80.3678 298.96 81.2846 298.417 82.2256 297.874H82.2376C83.2027 297.319 84.1678 296.789 85.1449 296.246C95.6523 290.491 106.715 285.859 118.151 282.349C118.272 282.3 118.392 282.276 118.513 282.252C119.309 281.987 120.105 281.757 120.914 281.528C123.025 280.925 125.16 280.346 127.295 279.815C125.956 277.837 124.786 275.665 123.905 273.241C123.857 273.12 123.821 273.011 123.773 272.891C123.531 272.179 124.364 271.805 124.87 272.131C124.991 272.203 125.1 272.336 125.16 272.505C126.041 275.014 127.259 277.354 128.755 279.514C129.117 279.598 129.346 279.972 129.322 280.322C130.757 282.252 132.458 283.989 134.376 285.497C134.859 285.871 135.342 286.233 135.848 286.583C135.909 286.631 135.969 286.655 136.017 286.703C140.203 289.478 145.21 290.648 148.805 294.304C148.901 294.388 148.998 294.472 149.082 294.581C149.878 295.438 150.614 296.354 151.302 297.332C152.568 299.141 153.69 301.083 154.728 303.086C154.945 303.52 155.174 303.954 155.391 304.389C156.067 305.728 156.718 307.079 157.37 308.37C159.975 313.545 162.364 318.817 164.56 324.173C164.692 324.511 164.909 324.933 165.139 325.416C165.344 325.802 165.561 326.224 165.778 326.658C166.598 328.335 167.443 330.241 167.214 331.339C166.912 332.762 168.348 339.421 168.348 339.421Z" fill="#DCA877"/>
<path d="M270.394 338.456C270.237 341.87 270.056 345.115 269.875 348.264C269.851 348.783 269.815 349.289 269.778 349.796C269.211 359.073 268.524 367.505 267.728 376.36C267.679 376.879 267.643 377.386 267.583 377.892C267.076 383.695 266.509 389.715 265.918 396.265C265.206 404.191 264.446 412.129 263.638 420.042C263.59 420.561 263.542 421.068 263.481 421.575C262.263 433.662 260.972 445.738 259.657 457.801H259.645C259.597 458.284 259.548 458.767 259.5 459.249C259.476 459.406 259.452 459.563 259.44 459.732C258.861 464.955 258.282 470.179 257.703 475.402C257.341 478.623 257.208 482.086 256.46 485.306C252.95 486.356 249.355 487.116 245.651 487.526C245.169 487.587 244.686 487.647 244.191 487.683C242.925 487.804 241.646 487.876 240.343 487.9C234.541 488.045 233.033 487.755 227.242 487.345C225.288 487.2 223.37 487.007 221.488 486.73C220.969 486.646 220.45 486.561 219.932 486.453C218.629 486.211 217.35 485.898 216.083 485.512C216.18 484.124 216.457 482.737 216.542 481.362C216.747 478.418 216.457 475.463 216.035 472.567C215.275 467.428 213.719 462.482 213.043 457.488C212.959 457.017 212.899 456.523 212.85 456.028C212.537 452.976 212.609 449.888 213.429 446.727C214.684 441.89 215.046 437.233 215.323 432.19C215.589 427.45 212.175 422.757 211.053 418.088C211.053 418.064 211.041 418.04 211.041 418.016C210.956 417.726 210.908 417.425 210.848 417.135C210.799 416.906 210.775 416.689 210.751 416.46C210.16 412.201 210.812 407.906 211.053 403.576C211.318 399.378 212.126 386.301 211.789 380.594C211.777 380.438 211.777 380.257 211.74 380.1C211.716 379.617 211.668 379.135 211.62 378.652C211.185 374.599 210.148 370.606 209.002 366.685C207.977 363.199 206.794 359.459 205.757 355.647C205.624 355.14 205.491 354.646 205.371 354.139C204.394 350.279 203.61 346.334 203.368 342.461C202.982 336.369 203.899 330.434 207.446 325.259C207.856 324.668 208.278 324.077 208.773 323.51C208.869 323.377 208.978 323.244 209.086 323.124C206.469 316.489 206.541 308.768 209.979 302.447C210.269 301.904 210.582 301.373 210.944 300.854C211.185 300.468 211.451 300.094 211.74 299.708C212.247 299.045 212.79 298.393 213.393 297.79C213.888 297.235 214.431 296.716 214.986 296.234H214.998C220.402 291.396 227.845 288.537 234.589 286.631C234.903 286.547 235.228 286.438 235.53 286.342C236.049 286.185 236.543 286.004 237.014 285.823C243.407 283.422 245.989 280.165 252.443 284.99C253.203 285.57 253.951 286.173 254.651 286.824C255.037 287.186 255.435 287.548 255.797 287.934C257.329 289.49 258.716 291.227 259.971 293.109C262.697 297.211 264.808 301.976 266.389 306.994C266.545 307.477 266.702 307.947 266.835 308.442C269.911 318.853 270.792 330.084 270.394 338.456Z" fill="#DCA877"/>
<path d="M259.983 293.133C259.862 290.89 259.609 288.67 259.174 286.522C259.078 286.04 258.957 285.569 258.837 285.087C258.221 282.517 257.317 280.044 256.122 277.728C250.187 266.256 236.724 261.985 224.89 259.609C208.737 256.339 192.415 257.184 176.442 260.936C159.602 264.905 141.868 271.166 124.762 265.122C123.881 264.82 123.507 266.207 124.376 266.521C126.053 267.1 127.73 267.559 129.418 267.932C127.742 269.223 126.246 270.611 124.895 272.082C124.557 272.444 124.231 272.818 123.929 273.192C121.891 275.617 120.274 278.247 119.032 281.021C118.863 281.408 118.694 281.806 118.537 282.204C118.513 282.252 118.489 282.3 118.465 282.361C117.451 284.906 116.764 287.548 116.341 290.262H116.329C116.245 290.793 116.173 291.348 116.112 291.891C115.75 294.979 115.75 298.152 116.064 301.325C116.112 301.879 116.185 302.422 116.257 302.977C116.764 306.753 117.693 310.505 119.02 314.124C119.176 314.57 119.333 315.029 119.526 315.487C121.963 321.76 125.534 327.611 129.901 332.449C133.713 336.695 138.43 340.302 143.919 342.039C148.587 343.511 151.989 342.908 156.007 341.906C156.151 341.882 156.284 341.834 156.417 341.81C157.671 341.496 158.986 341.134 160.434 340.797C162.63 340.29 164.994 339.856 167.455 339.542C167.576 339.518 167.696 339.494 167.817 339.482C167.986 339.458 168.167 339.421 168.336 339.409C171.532 338.999 174.838 338.794 178.059 338.77C178.626 338.758 179.169 338.758 179.712 338.77C181.774 338.794 183.777 338.903 185.683 339.12C191.679 339.795 197.542 341.219 203.417 342.473C204.744 342.751 206.071 343.028 207.398 343.282C211.921 344.162 216.53 344.753 221.078 344.753C221.596 344.753 222.115 344.741 222.634 344.729C229.414 344.5 235.976 342.811 241.779 338.517C245.35 335.887 248.305 332.605 250.73 328.95C251.309 328.118 251.84 327.249 252.334 326.344C254.844 322.002 256.653 317.224 257.896 312.399C258.161 311.373 258.402 310.324 258.62 309.238C258.716 308.756 258.825 308.273 258.909 307.779C259.778 303.086 260.236 298.067 259.983 293.133Z" fill="#DCA877"/>
<path d="M258.74 345.429C262.6 346.43 266.22 348.035 269.778 349.796C269.827 349.289 269.851 348.783 269.875 348.264C266.606 346.66 263.288 345.188 259.753 344.211C257.051 343.463 254.289 343.04 251.502 342.811C251.526 342.498 251.55 342.196 251.574 341.87C251.864 336.888 252.25 331.64 252.31 326.381C252.383 320.952 252.105 315.523 251.007 310.3C253.517 309.878 256.05 309.552 258.595 309.274C261.31 308.985 264.036 308.744 266.762 308.478C266.787 308.478 266.823 308.478 266.847 308.466C266.714 307.972 266.557 307.501 266.401 307.019C263.891 307.248 261.382 307.513 258.885 307.815C256.991 308.02 255.109 308.261 253.239 308.526C252.383 308.647 251.538 308.792 250.694 308.937C249.958 305.885 248.932 302.917 247.497 300.094C246.206 297.561 244.553 295.317 242.768 293.133C245.844 292.06 248.884 290.877 251.888 289.623C253.191 289.068 254.506 288.525 255.809 287.97C256.919 287.476 258.052 287.005 259.174 286.522C259.078 286.04 258.957 285.569 258.837 285.087C257.437 285.678 256.05 286.269 254.663 286.848C250.32 288.634 246.013 290.347 241.634 291.758C241.417 291.517 241.212 291.251 240.995 291.01C239.559 289.333 238.268 287.62 237.026 285.859C235.711 284.013 234.456 282.131 233.129 280.237C231.09 277.33 228.581 275.327 225.662 273.361C221.62 270.599 216.505 266.678 218.556 261.068C218.87 260.2 217.471 259.826 217.157 260.694C215.251 265.942 219.015 270.418 223.068 273.325C226.337 275.665 229.522 277.632 231.899 280.985C233.153 282.771 234.311 284.592 235.554 286.39C236.422 287.681 237.339 288.935 238.365 290.142C238.956 290.865 239.535 291.553 240.102 292.265C234.492 294.002 228.738 295.281 222.61 295.751C220.076 295.956 217.555 296.101 215.022 296.282H215.01C213.236 296.378 211.487 296.523 209.714 296.716C209.376 295.257 209.123 293.761 208.978 292.241C208.097 283.253 210.003 274.242 211.921 265.52C212.126 264.615 210.727 264.217 210.522 265.134C208.266 275.376 206.034 286.547 208.302 296.885C206.867 297.054 205.443 297.259 204.008 297.524C199.086 298.429 194.453 300.287 189.688 301.723C193.283 288.803 197.602 276.1 202.584 263.662C202.934 262.793 201.547 262.419 201.197 263.276C196.094 276.003 191.703 288.983 188.072 302.205C187.251 302.434 186.407 302.652 185.574 302.845C177.395 304.654 169.421 303.182 161.821 300.335C175.598 291.276 187.951 280.068 198.422 267.353C199.013 266.642 198 265.616 197.409 266.328C186.745 279.248 174.223 290.588 160.181 299.696C156.284 298.14 152.496 296.246 148.829 294.291C148.069 293.881 147.309 293.483 146.561 293.073C142.688 290.95 138.756 288.778 134.763 286.836C135.136 286.752 135.498 286.667 135.872 286.571C136.705 286.366 137.549 286.149 138.37 285.919C149.227 282.903 158.516 276.136 169.313 272.927C170.193 272.649 169.819 271.262 168.927 271.527C158.974 274.507 150.361 280.611 140.493 283.772C138.466 284.423 136.439 284.966 134.401 285.473C133.846 285.606 133.303 285.738 132.748 285.859C128.9 284.098 124.991 282.566 120.926 281.516C120.31 281.347 119.659 281.202 119.02 281.058C118.851 281.444 118.682 281.842 118.525 282.24C118.404 282.264 118.284 282.3 118.163 282.336C118.26 282.348 118.356 282.385 118.453 282.397C122.566 283.277 126.523 284.689 130.396 286.414C125.642 287.512 120.889 288.585 116.329 290.298H116.317C114.254 291.095 112.228 292.011 110.249 293.133C107.861 294.497 105.569 296.017 103.313 297.597C97.3171 296.403 91.225 295.932 85.157 296.234C84.1919 296.789 83.2268 297.319 82.2497 297.862C88.7037 297.271 95.2542 297.573 101.66 298.743C100.357 299.672 99.0543 300.589 97.7393 301.518C93.5533 304.449 89.2104 306.886 84.7107 309.299C78.0757 312.857 73.4674 317.84 71.9715 325.102C68.1594 325.548 64.4438 326.296 60.9092 327.466C60.9092 327.961 60.9212 328.444 60.9333 328.938C64.3714 327.744 68.0026 326.972 71.7182 326.525C71.7061 326.658 71.6699 326.767 71.6578 326.899C69.3175 344.838 82.6237 357.927 90.284 372.825C88.2935 373.405 86.2789 373.972 84.3005 374.575C80.7055 375.672 77.1227 376.831 73.5639 378.025C73.7328 378.447 73.9258 378.881 74.1309 379.352C77.6293 378.17 81.1519 377.036 84.6745 375.974C86.7494 375.335 88.8485 374.732 90.9234 374.14C91.6352 375.588 92.2866 377.048 92.8415 378.544C94.7596 383.586 95.8574 388.882 97.8479 393.901C99.6816 398.533 101.962 402.96 104.266 407.364C104.652 408.148 105.05 408.908 105.436 409.692C103.361 409.74 101.262 409.716 99.1628 409.74C95.3507 409.8 91.5748 410.223 87.8351 410.814C88.0643 411.308 88.2935 411.779 88.5107 412.225C92.4796 411.622 96.4727 411.2 100.526 411.188C102.408 411.188 104.302 411.2 106.172 411.164C110.623 420.139 114.435 429.307 117.138 438.982C118.585 444.17 119.78 449.381 121.034 454.593C119.864 454.822 118.706 455.051 117.536 455.268C114.785 455.787 112.023 456.245 109.248 456.704C109.441 457.15 109.658 457.596 109.851 458.043C112.553 457.608 115.256 457.162 117.922 456.667C119.08 456.45 120.214 456.221 121.36 455.992C122.964 462.627 124.665 469.226 127.066 475.68C128.538 479.637 130.154 483.521 131.867 487.381C132.314 487.249 132.772 487.104 133.255 486.959C132 484.124 130.794 481.277 129.66 478.394C126.74 470.951 124.569 463.399 122.687 455.702C128.333 454.472 133.882 452.88 139.226 450.648C140.457 450.129 141.663 449.574 142.869 449.007C143.364 452.53 143.943 456.04 144.896 459.478C146.597 465.643 149.166 471.506 152.074 477.212C152.46 476.922 152.834 476.633 153.232 476.343C150.723 471.373 148.467 466.294 146.838 460.962C145.572 456.812 144.86 452.578 144.269 448.332C146.319 447.294 148.346 446.196 150.325 444.99C151.833 444.085 153.268 443.072 154.764 442.131C154.716 441.528 154.667 440.9 154.607 440.297C151 442.276 147.574 444.857 144.064 446.787C143.485 442.469 142.99 438.138 142.109 433.855C140.36 425.399 136.138 418.281 132.302 410.669C131.336 408.775 130.528 406.857 129.804 404.915C134.907 402.96 140.336 401.356 145.608 401.826C145.523 401.344 145.439 400.885 145.342 400.415C140.384 400.053 135.257 401.308 130.54 403.069C130.118 403.214 129.708 403.383 129.298 403.551C126.957 396.904 125.63 390.004 124.038 383.019C123.061 378.725 121.698 374.623 120.154 370.606C125.293 372.065 130.552 373.875 135.595 376.071C135.426 375.564 135.257 375.057 135.124 374.539C133.243 373.778 131.336 373.055 129.43 372.343C126.197 371.149 122.868 369.785 119.478 368.881C118.006 365.165 116.39 361.498 114.773 357.77C110.877 348.831 107.245 338.698 109.694 328.878C113.145 329.638 116.45 330.772 119.599 332.762C124.352 335.766 129.213 339.084 133.508 342.691C135.583 344.44 137.368 346.394 138.864 348.469C139.347 348.3 139.817 348.119 140.3 347.95C138.683 345.682 136.789 343.571 134.533 341.677C130.13 337.974 125.184 334.596 120.334 331.52C117.089 329.469 113.651 328.299 110.068 327.503C111.142 324.089 113 320.855 115.545 318.358C116.8 317.128 118.115 316.187 119.502 315.499C122.711 313.871 126.258 313.461 130.227 313.207C131.095 313.147 131.94 313.05 132.784 312.942C136.512 316.139 139.926 319.625 143.81 322.774C149.806 327.611 156.248 327.804 163.619 326.851C164.342 326.755 165.078 326.658 165.802 326.586C171.351 325.983 176.864 325.802 182.414 325.789C181.678 328.962 180.821 332.099 179.687 335.127C179.205 336.393 178.662 337.624 178.035 338.782C178.602 338.77 179.144 338.77 179.687 338.782C179.929 338.275 180.182 337.745 180.399 337.226C181.955 333.558 183.017 329.71 183.898 325.814C185.731 325.814 187.577 325.826 189.411 325.862C195.418 325.958 201.486 326.007 207.47 325.283C209.641 325.042 211.789 324.68 213.924 324.185C214.973 323.944 215.999 323.654 217.012 323.316C217.531 325.174 218.098 327.032 218.689 328.902C220.366 334.234 221.029 339.433 221.053 344.766C221.066 345.453 221.053 346.165 221.041 346.865C215.552 348.481 210.281 350.689 205.552 354.042C205.491 354.091 205.455 354.115 205.395 354.163C205.528 354.67 205.66 355.164 205.781 355.671C207.253 354.597 208.773 353.572 210.377 352.679C213.719 350.797 217.314 349.47 220.969 348.385C220.897 350.037 220.776 351.702 220.607 353.391C219.823 361.305 218.798 369.11 219.799 377.048C219.895 377.904 220.028 378.737 220.161 379.581C218.798 379.352 217.434 379.135 216.047 378.978C214.587 378.809 213.128 378.7 211.656 378.664C211.704 379.135 211.74 379.629 211.777 380.112C211.994 380.112 212.199 380.112 212.416 380.124C215.118 380.245 217.772 380.619 220.438 381.065C221.548 387.35 223.261 393.527 224.467 399.788C225.879 407.134 225.987 414.143 225.071 421.369C223.14 421.152 221.21 420.694 219.244 419.958C216.385 418.872 213.622 417.569 210.775 416.472C210.799 416.701 210.836 416.918 210.872 417.147C210.932 417.437 210.968 417.738 211.065 418.028C211.065 418.052 211.077 418.076 211.077 418.1C211.535 418.269 212.006 418.462 212.464 418.655C216.361 420.272 220.173 422.238 224.395 422.877C224.54 422.901 224.697 422.901 224.841 422.938C224.709 423.818 224.576 424.711 224.407 425.628C222.996 433.578 221.379 441.407 220.824 449.478C220.679 451.613 220.559 453.772 220.462 455.907C217.929 455.932 215.408 456.04 212.874 456.052C212.923 456.547 212.971 457.029 213.067 457.512C215.504 457.488 217.965 457.391 220.39 457.355C219.956 467.03 219.932 476.753 219.944 486.477C220.462 486.573 220.981 486.67 221.5 486.754C221.524 476.946 221.62 467.139 221.91 457.343C223.092 457.355 224.274 457.367 225.445 457.44C231.464 457.801 237.351 459.213 243.395 459.49H243.48C243.624 468.9 243.89 478.298 244.191 487.707C244.686 487.659 245.169 487.611 245.651 487.55C245.362 478.201 245.144 468.876 245.048 459.539C249.861 459.683 254.687 459.515 259.488 459.261C259.536 458.779 259.585 458.296 259.633 457.814C258.909 457.862 258.185 457.886 257.486 457.91C253.336 458.103 249.198 458.212 245.048 458.103C244.927 445.786 245.024 433.457 245.482 421.14C251.49 420.935 257.437 421.526 263.481 421.587C263.541 421.08 263.602 420.573 263.638 420.054C263.517 420.067 263.421 420.054 263.3 420.054C258.402 419.898 253.505 419.343 248.595 419.367C247.569 419.367 246.544 419.427 245.53 419.5C245.868 410.922 246.387 402.333 247.135 393.744C247.412 390.499 247.714 387.254 248.016 384.008C248.776 383.888 249.536 383.779 250.284 383.586C255.049 382.488 259.5 380.353 264.133 378.857C265.254 378.495 266.401 378.182 267.571 377.904C267.631 377.398 267.667 376.891 267.715 376.372C261.068 378.025 254.856 381.21 248.16 382.452C249.343 369.725 250.597 356.998 251.405 344.235C253.891 344.416 256.327 344.814 258.74 345.429ZM139.057 427.944C141.204 434.265 141.844 440.912 142.712 447.523C142.64 447.547 142.58 447.596 142.507 447.62C136.077 450.708 129.322 452.771 122.397 454.291C121.867 452.095 121.348 449.9 120.841 447.68C118.525 437.607 115.485 427.799 111.287 418.341C110.201 415.905 109.019 413.504 107.788 411.115C109.767 411.031 111.733 410.874 113.663 410.5C118.03 409.692 122.132 408.015 126.221 406.35C126.945 406.061 127.669 405.771 128.393 405.482C131.566 413.154 136.367 420.054 139.057 427.944ZM120.045 373.935C123.194 383.067 124.122 392.755 127.078 401.935C127.319 402.671 127.609 403.407 127.886 404.131C124.086 405.663 120.322 407.327 116.353 408.401C113.277 409.258 110.165 409.547 107.04 409.656C103.819 403.407 100.454 397.206 98.1616 390.535C96.4847 385.685 95.3869 380.643 93.3482 375.902C93.0345 375.178 92.6847 374.454 92.3349 373.754C95.0612 372.97 97.7997 372.234 100.538 371.535C106.654 369.954 112.409 368.627 118.633 370.22C119.152 371.462 119.611 372.705 120.045 373.935ZM117.958 368.519C116.993 368.314 116.028 368.133 115.039 368.024C109.984 367.457 105.014 368.881 100.176 370.135C97.3412 370.859 94.5304 371.619 91.7075 372.415C90.2237 369.508 88.5469 366.709 86.7977 363.947C81.6948 355.876 75.8922 347.938 73.769 338.444C72.8763 334.451 72.6471 330.277 73.3106 326.356C83.3233 325.379 93.9393 326.501 103.228 327.768C104.953 328.009 106.618 328.263 108.271 328.576C104.748 342.124 112.638 355.816 117.958 368.519ZM125.449 312.133C123.121 312.423 120.962 313.111 119.007 314.16C115.111 316.199 112.035 319.577 110.032 323.739C109.465 324.909 109.019 326.067 108.657 327.225C106.558 326.815 104.423 326.501 102.227 326.212C93.2517 324.993 83.1786 324.04 73.5639 324.945C74.6737 320.12 77.2312 315.753 81.7551 312.725C85.4707 310.227 89.6688 308.526 93.4688 306.138C96.9552 303.954 100.261 301.505 103.626 299.129C104.386 299.286 105.158 299.467 105.918 299.648C109.429 300.504 112.891 301.626 116.233 303.013C119.719 304.449 123.085 306.15 126.27 308.128C127.995 309.178 129.563 310.336 131.095 311.554C129.237 311.723 127.355 311.88 125.449 312.133ZM128.369 307.73C124.496 305.197 120.347 303.074 116.064 301.361C113.555 300.347 110.973 299.503 108.379 298.779C107.342 298.502 106.304 298.248 105.255 297.995C105.303 297.971 105.351 297.935 105.4 297.898C108.826 295.558 112.348 293.519 116.1 291.927C117.934 291.119 119.828 290.443 121.794 289.876C125.305 288.875 128.888 288.139 132.446 287.343C138.828 290.359 145.017 294.062 151.326 297.283C153.714 298.514 156.091 299.672 158.516 300.697C157.273 301.493 156.019 302.29 154.74 303.038C154.571 303.158 154.378 303.267 154.185 303.375C149.878 305.909 145.415 308.225 140.662 309.793C138.225 310.601 135.788 311.024 133.339 311.313C131.747 310.034 130.082 308.84 128.369 307.73ZM182.752 324.318C179.76 324.294 176.768 324.294 173.764 324.414C170.977 324.547 168.07 324.981 165.151 325.355C158.685 326.188 152.122 326.755 146.512 323.015C143.062 320.699 140.324 317.466 137.308 314.667C136.548 313.955 135.752 313.267 134.956 312.604C141.627 311.386 147.852 308.671 153.823 305.245C154.354 304.944 154.873 304.642 155.403 304.316C157.02 303.363 158.624 302.386 160.205 301.373C166.261 303.773 172.558 305.318 179.374 305.076C182.209 304.956 184.947 304.425 187.637 303.713C186.817 306.765 186.009 309.829 185.249 312.918C184.344 316.681 183.62 320.53 182.752 324.318ZM208.785 323.546C206.505 323.932 204.152 324.197 201.703 324.33C195.877 324.631 190.05 324.426 184.211 324.342C184.935 321.109 185.574 317.84 186.334 314.655C187.239 310.843 188.228 307.055 189.254 303.267C191.727 302.543 194.152 301.711 196.613 300.914C200.569 299.648 204.575 298.864 208.616 298.345C208.99 299.744 209.436 301.132 210.003 302.495C210.437 303.58 210.944 304.642 211.523 305.704C213.405 309.154 214.768 312.17 215.396 316.09C215.697 318.008 216.119 319.866 216.59 321.712C214.044 322.472 211.463 323.099 208.785 323.546ZM216.795 315.68C216.18 311.784 214.913 308.864 213.043 305.438C212.235 303.966 211.535 302.446 210.98 300.89C210.63 299.998 210.341 299.081 210.088 298.164C211.197 298.031 212.307 297.935 213.429 297.826C214.66 297.73 215.89 297.621 217.133 297.549C223.382 297.138 229.655 296.752 235.771 295.232C237.605 294.786 239.426 294.231 241.212 293.64C244.879 298.369 247.738 303.146 249.234 309.202C242.406 310.565 236.133 312.881 229.8 316.163C225.855 318.214 221.982 319.89 218.013 321.205C217.495 319.396 217.072 317.562 216.795 315.68ZM243.431 437.993C243.359 444.676 243.383 451.359 243.48 458.031C242.285 457.97 241.079 457.91 239.897 457.814C234.251 457.307 228.75 456.004 223.068 455.895H221.97C222.272 447.342 223.333 438.994 224.95 430.586C225.433 428.089 225.891 425.568 226.277 423.07C230.174 423.3 234.058 422.54 237.894 421.876C239.933 421.514 241.972 421.297 243.986 421.188C243.697 426.786 243.504 432.396 243.431 437.993ZM244.059 419.608C240.97 419.91 237.918 420.428 234.83 420.947C231.947 421.43 229.208 421.659 226.494 421.49C227.109 417.027 227.447 412.551 227.085 408.003C226.47 400.511 224.431 393.237 222.839 385.914C222.501 384.382 222.224 382.85 221.97 381.33C227.471 382.356 232.948 383.719 238.522 384.201C241.272 384.443 244.023 384.443 246.737 384.141C245.699 395.963 244.686 407.774 244.059 419.608ZM246.882 382.657C245.736 382.826 244.565 382.947 243.383 382.959C236.048 383.116 228.919 381.198 221.729 379.871C220.836 373.73 220.631 367.65 221.222 361.305C221.645 356.865 222.236 352.426 222.489 347.962C223.575 347.661 224.673 347.371 225.782 347.106C233.612 345.2 241.863 343.68 249.994 344.114C249.222 356.986 248.04 369.822 246.882 382.657ZM250.525 334.029C250.404 336.912 250.247 339.807 250.078 342.691C243.926 342.389 237.701 343.137 231.669 344.307C228.617 344.91 225.577 345.598 222.586 346.43C222.598 345.863 222.61 345.308 222.61 344.741C222.658 342.401 222.561 340.049 222.26 337.72C221.608 332.605 219.871 327.756 218.448 322.822C224.6 320.638 230.174 317.321 236.169 314.582C240.464 312.628 244.939 311.41 249.536 310.553C250.766 316.597 250.863 322.786 250.706 328.962C250.67 330.663 250.597 332.352 250.525 334.029Z" fill="#F8F0EC"/>
<path d="M223.514 53.4659C222.887 50.5224 221.922 47.6874 221.331 44.7198C220.921 42.681 220.559 40.6061 219.582 38.7362C217.712 35.1775 214.213 33.006 210.787 31.112C209.75 30.2676 208.64 29.5438 207.663 28.9406C203.525 26.3952 198.675 26.4193 194.043 25.611C189.519 24.8148 186.346 24.1272 181.883 25.8644C179.229 26.8898 177.275 28.8199 175.61 31.0155C170.893 32.8492 166.224 35.2257 163.462 39.641C161.978 42.0055 161.182 44.756 161.471 47.5427C161.725 50.1001 162.074 51.9217 161.29 54.443C160.808 56.0113 160.277 57.4831 160.072 59.1237C159.662 62.3568 160.458 64.9504 161.411 67.9905C162.304 70.8254 162.436 73.6845 163.944 76.3023C167.551 82.5874 172.702 88.1487 178.131 92.8897C178.831 93.4929 179.856 92.4796 179.156 91.8643C175.887 89.0173 172.883 85.917 170.169 82.5633C175.163 86.5322 181.581 88.6675 187.963 87.7627C193.271 87.0147 198.506 85.4947 203.67 84.1195C208.447 82.8407 213.863 81.6947 217.905 78.6667C221.379 76.061 222.839 72.2006 223.442 68.0146C224.142 63.3218 224.528 58.1466 223.514 53.4659Z" fill="#36303A"/>
<path d="M207.156 121.541C206.07 126.788 191.087 131.65 191.087 131.65C191.087 131.65 177.178 123.338 177.178 118.645V97.3412C177.178 97.2447 177.178 97.1843 177.178 97.1843L207.156 92.8535C207.156 92.8535 207.301 95.9901 207.433 100.224C207.494 102.36 207.566 104.772 207.59 107.197C207.687 113.12 207.651 119.188 207.156 121.541Z" fill="#915851"/>
<path d="M192.873 111.287C193.44 111.335 193.995 111.347 194.538 111.275C196.395 111.021 198.277 110.466 199.918 109.538C202.101 108.307 204.116 106.57 205.286 104.326C205.998 102.987 206.444 101.539 207.072 100.164C206.951 100.152 206.818 100.14 206.698 100.128C201.474 99.5127 196.263 99.0542 190.991 99.2714C188.385 99.392 185.791 99.5609 183.21 99.2111C181.147 98.9336 179.181 97.5463 177.166 97.3171V110.515C177.443 110.708 177.733 110.864 178.047 110.973C179.868 111.661 181.943 111.166 183.813 110.997C185.598 110.84 187.396 110.744 189.181 110.792C190.364 110.864 191.63 111.178 192.873 111.287Z" fill="#733832"/>
<path d="M206.963 36.613C204.032 34.6105 200.352 35.6118 196.866 34.7794C192.089 33.6454 187.046 33.0422 182.293 34.2486C173.981 36.3476 166.176 41.728 166.441 53.2487C166.803 68.9797 166.9 86.689 173.583 96.0866C177.492 101.588 183.813 107.499 190.762 108.319C208.302 110.382 216.783 86.87 217.82 73.1537C218.411 65.3847 219.087 52.7662 216.735 45.3471C215.516 41.4867 211.837 40.8112 208.833 38.0969C208.254 37.554 207.627 37.0594 206.963 36.613Z" fill="#915851"/>
<path d="M181.642 70.0774C181.642 70.0654 181.63 70.0413 181.63 70.0292C181.618 70.0051 181.605 69.9809 181.593 69.9568C181.461 69.5949 181.28 69.2812 181.014 69.1124C180.689 68.8952 180.266 68.8711 179.687 69.1727C179.374 69.3416 179.217 69.619 179.096 69.8844C178.493 71.2476 178.577 74.9994 180.544 75.0597C182.607 75.12 182.064 71.3321 181.642 70.0774Z" fill="#1A161C"/>
<path d="M203.79 70.0774C203.79 70.0654 203.802 70.0413 203.802 70.0292C203.814 70.0051 203.826 69.9809 203.838 69.9568C203.971 69.5949 204.152 69.2812 204.417 69.1124C204.743 68.8952 205.165 68.8711 205.745 69.1727C206.058 69.3416 206.215 69.619 206.336 69.8844C206.939 71.2476 206.854 74.9994 204.888 75.0597C202.825 75.12 203.368 71.3321 203.79 70.0774Z" fill="#1A161C"/>
<path d="M197.855 80.802C197.397 78.8477 196.914 76.9054 196.444 74.9632C196.226 74.0584 194.827 74.4445 195.056 75.3492C195.599 77.6172 196.178 79.8731 196.685 82.141C196.986 83.468 197.686 84.9519 196.769 86.1341C196.094 87.0027 193.886 87.3646 192.825 87.6903C191.932 87.9557 192.318 89.3551 193.211 89.0776C195.02 88.5347 198.326 87.8833 198.675 85.6877C198.893 84.216 198.181 82.2014 197.855 80.802Z" fill="#733832"/>
<path d="M206.975 61.8742C204.828 61.8381 199.508 62.0673 199.399 65.047C199.182 65.6984 199.87 66.2895 200.521 66.4825C202.331 67.0013 204.309 66.2413 206.155 66.2895C208.302 66.3378 210.425 66.4463 212.573 66.193C215.178 65.8914 213.55 63.6838 212.114 62.9117C210.582 62.1035 208.688 61.9104 206.975 61.8742Z" fill="#36303A"/>
<path d="M179.072 61.8742C181.219 61.8381 186.539 62.0673 186.648 65.047C186.865 65.6984 186.178 66.2895 185.526 66.4825C183.717 67.0013 181.738 66.2413 179.892 66.2895C177.745 66.3378 175.622 66.4463 173.475 66.193C170.869 65.8914 172.497 63.6838 173.933 62.9117C175.465 62.1035 177.359 61.9104 179.072 61.8742Z" fill="#36303A"/>
<path d="M200.28 93.3119C199.616 92.0211 196.624 93.7945 192.752 93.6376C191.244 93.5773 189.748 93.4084 188.24 93.324C187.697 93.2999 184.501 92.8535 185.369 94.0357C186.998 96.2554 189.977 96.7621 192.571 96.7983C196.612 96.8586 200.943 94.6148 200.28 93.3119Z" fill="#733832"/>
<path d="M216.288 68.9435C216.288 68.9435 218.001 66.9168 220.981 70.174C223.961 73.4191 220.897 82.8166 217.639 84.8916C214.394 86.9665 211.596 86.0617 211.861 85.6998C212.138 85.3379 216.288 68.9435 216.288 68.9435Z" fill="#915851"/>
<path d="M167.648 68.9435C167.648 68.9435 165.935 66.9168 162.955 70.174C159.975 73.4191 163.039 82.8166 166.297 84.8916C169.542 86.9665 172.34 86.0617 172.075 85.6998C171.798 85.3379 167.648 68.9435 167.648 68.9435Z" fill="#915851"/>
<path d="M218.797 48.6284C217.555 39.6289 209.521 34.9362 201.221 33.4644C191.28 31.6911 181.485 31.4257 172.98 37.4937C163.281 44.4061 165.44 54.7325 165.356 65.1676C165.018 65.1917 164.704 65.4088 164.74 65.8552C164.873 67.7492 165.476 69.1365 166.827 70.4755C167.201 70.8495 167.913 70.6927 168.034 70.1619C168.866 66.579 168.613 62.972 168.926 59.3288C169.228 55.9148 169.445 51.4754 171.713 48.6887C174.283 45.528 179.301 44.9248 183.029 45.8175C185.876 46.4931 188.566 47.3738 191.497 47.6512C195.491 48.0252 199.773 47.4461 203.79 46.9153C206.613 46.5414 210.486 45.7814 212.488 48.4595C214.406 51.029 214.756 55.01 215.082 58.0983C215.371 60.8126 215.468 63.539 215.854 66.2412C215.975 67.0495 215.999 68.0869 216.686 68.6539C219.002 70.5359 219.497 66.4463 219.642 65.1193C220.209 59.7993 219.521 53.9002 218.797 48.6284Z" fill="#36303A"/>
<path d="M242.092 264.47C241.308 261.708 240.259 258.969 239.113 256.291C238.184 252.853 237.05 249.475 236.374 245.977C234.734 237.424 235.023 228.485 234.758 219.823C234.492 211.161 234.155 202.5 233.998 193.838C233.841 185.08 235.337 176.068 234.155 167.382C233.769 164.499 233.117 161.688 233.189 158.757C233.262 156.127 233.865 153.533 234.263 150.94C234.842 147.236 234.806 143.629 234.251 139.926C233.539 135.064 232.598 130.407 232.816 125.473C232.924 123.073 233.045 120.165 231.296 118.247C229.245 116.004 226.048 116.583 223.334 116.414C218.387 116.112 208.459 111.998 209.171 112.553C198.326 116.776 187.589 119.502 176.599 114.242C176.623 113.784 157.961 120.648 154.668 123.085C149.649 126.8 151.495 133.761 152.617 138.985C153.546 143.279 154.547 147.538 154.209 151.965C153.871 156.525 152.412 160.916 151.326 165.332C149.408 173.125 148.865 181.123 149.818 189.097C150.711 196.613 152.689 203.947 153.751 211.439C154.354 215.637 154.668 219.907 154.269 224.142C153.835 228.702 152.255 232.84 150.952 237.182C150.059 240.138 149.396 243.142 149.601 246.242C149.854 250.054 151.435 253.734 151.314 257.582C151.229 260.164 150.53 262.335 148.6 264.096C147.888 264.748 146.85 265.23 146.283 266.051C145.198 267.631 145.632 268.982 146.947 270.261C152.942 276.088 161.797 279.26 170.519 280.177C173.535 281.19 176.611 282.035 179.772 282.578C184.356 283.362 189.037 283.591 193.645 282.976C199.339 282.216 204.454 279.212 210.172 278.754C215.384 278.331 220.499 278.512 225.662 277.547C230.21 276.703 235.868 275.593 239.8 272.999C242.913 270.973 243.021 267.764 242.092 264.47Z" fill="white"/>
<path d="M169.94 114.713C166.767 115.425 163.715 116.631 160.615 117.584C156.61 118.802 152.593 119.936 148.6 121.179C143.026 122.904 137.549 124.882 132.205 127.235C127.657 129.237 125.425 132.289 125.015 137.272C124.472 143.943 125.088 150.578 124.255 157.273C122.506 171.472 118.404 185.345 117.753 199.677C117.451 206.312 118.211 212.645 119.49 219.135C120.31 223.297 120.986 227.471 120.298 231.706C119.671 235.542 118.248 239.185 117.294 242.937C115.328 250.742 115.919 258.849 114.496 266.738C112.976 275.135 99.8023 289.032 100.695 288.694C113.35 283.881 133.05 282.916 146.935 278.742C152.291 277.125 156.091 274.833 158.311 269.525C160.941 263.24 163.184 256.448 164.125 249.68C166.128 235.313 162.376 220.885 163.86 206.505C164.668 198.579 168.143 191.353 169.204 183.511C170.109 176.78 168.794 170.036 167.66 163.426C164.777 146.585 176.889 115.183 176.623 114.242C176.346 113.301 171.074 114.459 169.94 114.713Z" fill="#36303A"/>
<path d="M270.345 294.472C269.935 291.432 268.56 288.646 267.595 285.763C266.28 281.83 265.785 277.74 265.58 273.627C264.82 258.764 264.458 244.022 262.625 229.22C260.743 214.093 257.172 199.23 259.597 183.958C260.707 176.985 261.418 170.398 260.646 163.341C259.874 156.248 258.788 149.166 257.835 142.097C256.653 133.315 254.156 118.79 243.938 117.246C241.887 116.148 239.185 115.774 236.591 115.509C232.598 115.087 228.569 115.183 224.588 114.604C219.992 113.941 217.362 114.242 212.971 112.734C211.571 112.252 208.785 111.842 209.171 112.577C215.999 125.739 218.496 139.467 217.748 154.209C217.012 168.541 215.456 182.329 217.483 196.649C218.496 203.778 219.871 210.86 220.812 218.013C221.753 225.203 221.826 232.248 221.633 239.474C221.452 246.423 222.61 252.455 225.083 258.945C226.941 263.819 228.81 268.982 232.514 272.794C237.002 277.415 243.612 278.476 248.812 282.023C254.892 286.161 258.571 292.844 262.009 299.153C262.842 301.506 263.674 303.87 264.507 306.222C264.688 306.753 265.291 306.91 265.713 306.536C269.187 303.448 270.973 299.117 270.345 294.472Z" fill="#36303A"/>
<path d="M155.283 534.864C145.089 538.242 122.783 548.966 118.332 549.437C116.752 549.605 115.992 548.689 115.787 547.241C115.425 544.635 116.896 540.316 118.694 537.759C119.924 535.986 123.254 532.922 126.885 529.785C127.247 529.483 127.609 529.182 127.971 528.856C129.358 527.674 130.77 526.492 132.084 525.394C132.458 525.08 132.82 524.754 133.182 524.453C135.016 522.921 136.596 521.606 137.585 520.725C137.779 520.568 137.935 520.424 138.08 520.291C138.285 520.098 138.454 519.917 138.599 519.712C140.915 516.732 138.84 511.967 137.718 509.06C136.5 505.959 135.137 505.682 135.426 504.15C135.728 502.63 152.713 495.126 154.426 497.539C156.151 499.952 165.863 523.271 166.369 525.104C166.381 525.177 166.418 525.237 166.43 525.309C167.371 529.182 165.32 531.558 155.283 534.864Z" fill="#F8F0EC"/>
<path d="M249.029 562.489C248.474 566.856 246.266 572.635 240.753 573.564C233.382 574.83 229.655 570.367 226.928 559.98C226.916 559.932 226.904 559.884 226.88 559.835C224.13 549.376 224.492 530.774 224.854 527.336C225.215 523.91 225.348 501.713 226.88 500.615C228.412 499.529 247.967 501.52 247.967 502.968C247.967 504.415 245.627 530.231 245.627 531.329C245.627 532.403 248.51 555.167 249.053 558.774C249.186 559.691 249.21 561.006 249.029 562.489Z" fill="#F8F0EC"/>
<path d="M155.283 534.864C145.089 538.242 122.783 548.954 118.332 549.437C116.751 549.606 115.991 548.689 115.786 547.241C124.665 543.586 156.622 529.387 166.417 525.321C167.37 529.182 165.32 531.558 155.283 534.864Z" fill="#E0CFC7"/>
<path d="M249.029 562.489C248.474 566.856 246.266 572.635 240.753 573.564C233.382 574.83 229.655 570.367 226.928 559.98C229.498 563.865 234.191 569.004 240.584 568.328C244.083 567.966 246.882 565.541 249.029 562.489Z" fill="#E0CFC7"/>
<path d="M238.956 505.308C238.582 504.994 238.099 505.055 237.822 505.453C237.713 505.61 237.629 505.766 237.544 505.923C234.396 508.227 223.116 517.154 226.434 519.869C228.111 521.244 230.161 518.481 231.09 517.552C232.538 516.117 234.239 514.754 235.421 513.101C235.566 512.908 235.662 512.691 235.783 512.486C235.747 512.739 235.699 512.992 235.662 513.246L233.72 524.043C233.551 524.947 234.951 525.346 235.108 524.429C235.626 521.521 236.157 518.626 236.676 515.731C237.038 518.373 237.52 520.991 238.196 523.584C238.425 524.489 239.824 524.103 239.583 523.198C238.703 519.796 238.111 516.358 237.786 512.872C238.582 515.441 239.885 517.794 241.887 517.733C242.141 517.721 242.394 517.601 242.515 517.372C244.674 513.342 242.104 507.95 238.956 505.308ZM233.503 513.137C232.707 514.03 229.414 518.24 228.352 518.228C226.784 518.216 231.645 512.848 232.345 512.124C233.419 511.026 234.565 510.013 235.747 509.06C235.156 510.471 234.613 511.895 233.503 513.137ZM241.718 514.645C240.114 516.853 238.558 510.013 238.244 507.805C238.353 507.528 238.473 507.25 238.618 506.973C240.259 508.746 243.106 512.727 241.718 514.645Z" fill="#E0CFC7"/>
<path d="M240.391 530.871C237.496 530.352 234.625 530.328 231.718 530.81C230.801 530.955 231.187 532.355 232.104 532.198C234.746 531.763 237.375 531.788 240.005 532.258C240.922 532.427 241.308 531.04 240.391 530.871Z" fill="#E0CFC7"/>
<path d="M240.391 539.17C237.496 538.652 234.625 538.628 231.718 539.11C230.801 539.255 231.187 540.654 232.104 540.497C234.746 540.063 237.375 540.087 240.005 540.558C240.922 540.727 241.308 539.327 240.391 539.17Z" fill="#E0CFC7"/>
<path d="M241.224 547.458C238.329 546.939 235.457 546.915 232.55 547.398C231.633 547.543 232.019 548.942 232.936 548.785C235.578 548.351 238.208 548.375 240.838 548.845C241.755 549.014 242.141 547.627 241.224 547.458Z" fill="#E0CFC7"/>
<path d="M140.638 524.598C139.829 523.126 138.804 521.835 137.585 520.737C137.778 520.58 137.935 520.436 138.08 520.303C138.285 520.11 138.454 519.929 138.599 519.724C139.914 520.894 141.012 522.293 141.88 523.874C142.326 524.682 141.084 525.406 140.638 524.598Z" fill="#E0CFC7"/>
<path d="M135.076 528.735C134.184 527.517 133.17 526.407 132.084 525.418C132.458 525.104 132.82 524.779 133.182 524.477C134.328 525.563 135.378 526.733 136.331 528C136.874 528.748 135.619 529.471 135.076 528.735Z" fill="#E0CFC7"/>
<path d="M129.539 532.813C128.731 531.727 127.85 530.714 126.885 529.797C127.247 529.495 127.609 529.194 127.971 528.868C128.996 529.845 129.925 530.919 130.782 532.077C131.349 532.837 130.082 533.549 129.539 532.813Z" fill="#E0CFC7"/>
<path d="M203.465 21.6783C197.3 18.1075 190.641 18.6021 184.127 20.677C183.246 20.9545 183.62 22.3539 184.513 22.0643C190.629 20.11 196.938 19.5551 202.741 22.9209C203.549 23.3913 204.273 22.1488 203.465 21.6783Z" fill="#1A161C"/>
<path d="M200.184 6.62292C196.396 7.11753 192.861 10.0369 190.605 12.9563C190.038 13.6801 191.063 14.7176 191.63 13.9817C193.621 11.4122 196.818 8.50484 200.196 8.07055C201.1 7.94991 201.112 6.50228 200.184 6.62292Z" fill="#1A161C"/>
<path d="M205.54 9.33723C201.691 9.90422 197.976 10.9176 194.357 12.3652C193.5 12.703 193.874 14.1024 194.743 13.7525C198.362 12.2928 202.065 11.2915 205.926 10.7245C206.83 10.6039 206.444 9.20453 205.54 9.33723Z" fill="#1A161C"/>
<path d="M180.134 25.8402C177.697 27.9272 174.826 30.2193 173.438 33.199C172.256 35.7444 172.341 38.7 172.413 41.4385C172.437 42.3674 173.885 42.3674 173.861 41.4385C173.776 38.6276 173.668 35.5756 175.139 33.0543C176.551 30.6415 179.072 28.6631 181.159 26.8656C181.871 26.2504 180.846 25.2371 180.134 25.8402Z" fill="#1A161C"/>
<path d="M176.756 34.8638C176.466 36.8905 176.31 38.9051 176.334 40.9559C176.346 41.8848 177.793 41.8848 177.781 40.9559C177.757 39.0499 177.866 37.1438 178.143 35.2498C178.288 34.3451 176.901 33.947 176.756 34.8638Z" fill="#1A161C"/>
<path d="M209.569 27.505C209.014 26.7812 207.759 27.493 208.326 28.2288C212.018 33.0543 213.429 38.8931 212.211 44.8645C212.03 45.7693 213.417 46.1553 213.598 45.2506C214.889 38.9293 213.502 32.6441 209.569 27.505Z" fill="#1A161C"/>
<path d="M143.617 226.88C142.785 227.519 142.278 227.905 141.844 228.279C140.227 222.682 133.496 217.217 130.275 213.321C128.526 211.197 125.944 208.966 124.689 206.517C123.302 203.814 123.688 202.729 124.496 199.87C125.968 194.682 128.079 189.64 129.72 184.501C135.523 166.345 140.65 151.543 137.006 132.639C136.898 132.048 136.512 131.759 136.078 131.65C136.62 130.6 135.1 126.101 133.653 126.595C115.147 132.917 106.884 157.032 103.108 174.222C101.708 180.592 102.589 187.589 100.369 193.729C98.1737 199.761 94.0962 205.033 92.5521 211.318C90.7304 218.725 92.7089 226.53 90.465 233.925C88.7399 239.619 84.6021 243.974 84.6745 250.199C84.7469 256.158 87.4733 262.238 91.2371 266.774C95.6645 272.107 106.027 273.011 112.541 271.974C121.963 270.478 127.826 265.399 135.293 259.548C144.015 252.732 141.699 238.34 145.74 228.497C146.199 227.399 144.594 226.132 143.617 226.88Z" fill="#36303A"/>
<path d="M135.667 192.366C135.426 193.235 113.639 215.058 111.468 219.123C105.327 230.608 113.953 240.114 123.857 236.302C129.298 234.203 133.098 225.819 136.874 217.941C140.65 210.063 144.22 205.515 144.22 205.515L135.667 192.366Z" fill="#915851"/>
<path d="M334.367 172.763C333.969 170.507 332.618 168.13 330.675 165.452C326.405 159.541 322.75 155.078 317.309 150.144C312.218 145.523 306.235 141.723 300.287 138.333C297.332 136.644 294.304 135.016 291.119 133.785C287.005 132.205 282.626 131.192 278.488 129.563C274.93 128.164 271.407 126.692 267.8 125.437C258.728 122.301 249.692 117.451 240.15 115.992C239.245 115.847 238.896 118.428 239.812 118.561C240.512 118.67 241.212 118.802 241.911 118.923C246.556 125.896 246.399 134.304 246.64 142.375C246.894 150.904 248.016 159.42 249.367 167.841C249.91 171.182 250.73 174.21 252.745 176.985C255.097 180.23 256.243 184.211 258.897 187.203C261.225 189.821 262.468 193.018 263.445 196.347C264.362 197.686 265.255 199.049 266.292 200.232C270.176 204.659 274.724 210.293 281.022 207.144C282.747 206.276 284.677 205.781 286.535 205.286C290.395 204.285 294.424 203.549 297.802 201.281C300.203 199.653 305.402 199.387 307.899 197.915C311.036 196.058 311.531 193.573 314.945 192.378C320.204 190.533 325.959 188.554 330.531 185.128C334.62 182.088 334.91 175.851 334.367 172.763Z" fill="#36303A"/>
<path d="M140.36 160.156C140.36 160.156 144.703 156.996 145.825 156.996C146.947 156.996 161.097 160.301 170.398 164.825C179.7 169.337 188.759 176.503 188.759 176.503C188.759 176.503 206.155 165.452 212.114 162.473C218.074 159.493 233.153 155.343 233.6 155.608C234.046 155.874 238.015 158.914 238.015 158.914L200.364 181.678C200.364 181.678 172.51 181.557 170.833 180.471C169.132 179.386 140.36 160.156 140.36 160.156Z" fill="#F5D2B5"/>
<path d="M139.576 159.3L185.237 177.263C185.309 177.287 185.393 177.311 185.466 177.311H193.729C193.826 177.311 193.91 177.287 193.995 177.25L239.378 156.465C239.824 156.26 240.319 156.61 240.283 157.092C239.595 165.501 236.266 218.81 236.049 219.485C235.819 220.185 197.566 238.714 195.237 239.788C195.153 239.824 195.068 239.836 194.984 239.836H186.696C186.612 239.836 186.552 239.824 186.467 239.8C184.187 238.907 144.824 223.418 143.919 221.548C143.062 219.775 139.262 167.853 138.695 159.939C138.683 159.469 139.142 159.131 139.576 159.3Z" fill="#E66C6C"/>
<path d="M195.249 238.98C194.851 238.98 194.538 238.666 194.526 238.268L193.428 178.505C193.416 178.107 193.741 177.781 194.14 177.769C194.61 177.769 194.863 178.083 194.875 178.481L195.973 238.244C195.985 238.642 195.66 238.968 195.261 238.98H195.249Z" fill="#B54848"/>
<path d="M186.588 238.98C186.19 238.98 185.876 238.666 185.864 238.268L184.778 178.505C184.766 178.107 185.092 177.781 185.49 177.769C185.936 177.769 186.214 178.083 186.226 178.481L187.312 238.244C187.324 238.642 186.998 238.968 186.6 238.98C186.588 238.98 186.588 238.98 186.588 238.98Z" fill="#B54848"/>
<path d="M206.384 179.76L206.806 193.814L229.377 183.343L229.968 169.542L206.384 179.76Z" fill="white"/>
<path d="M215.383 201.607C215.106 201.607 214.853 201.45 214.732 201.185C214.563 200.823 214.732 200.388 215.094 200.232L224.576 195.901C224.938 195.744 225.36 195.889 225.529 196.263C225.698 196.625 225.529 197.059 225.167 197.216L215.685 201.547C215.589 201.583 215.48 201.607 215.383 201.607Z" fill="white"/>
<path d="M205.455 211.535C205.19 211.535 204.924 211.39 204.804 211.125C204.635 210.763 204.78 210.341 205.142 210.16L232.502 196.89C232.864 196.721 233.286 196.866 233.467 197.228C233.636 197.59 233.491 198.012 233.129 198.193L205.769 211.463C205.672 211.511 205.564 211.535 205.455 211.535Z" fill="white"/>
<path d="M150.421 221.982C148.708 221.982 147.14 220.559 146.778 218.568C146.585 217.519 146.754 216.469 147.248 215.613C147.767 214.708 148.575 214.117 149.516 213.936C150.469 213.767 151.434 214.032 152.231 214.696C152.991 215.323 153.521 216.252 153.714 217.302C154.113 219.497 152.894 221.584 150.976 221.934C150.795 221.958 150.602 221.982 150.421 221.982ZM150.071 215.335C149.975 215.335 149.866 215.347 149.77 215.359C149.251 215.456 148.792 215.794 148.491 216.324C148.165 216.891 148.057 217.591 148.189 218.303C148.455 219.726 149.577 220.704 150.711 220.498C151.833 220.293 152.544 218.966 152.291 217.555C152.158 216.843 151.808 216.228 151.314 215.806C150.928 215.504 150.506 215.335 150.071 215.335Z" fill="white"/>
<path d="M167.805 228.099C167.708 228.099 167.624 228.086 167.527 228.05L154.981 222.947C154.607 222.803 154.438 222.38 154.583 222.006C154.728 221.632 155.15 221.464 155.524 221.608L168.07 226.711C168.444 226.856 168.613 227.278 168.468 227.652C168.36 227.93 168.094 228.099 167.805 228.099Z" fill="white"/>
<path d="M152.978 194.296C155.572 192.39 149.902 186.443 148.575 184.923C146.343 182.377 142.363 178.203 139.021 181.545C137.103 183.463 137.211 186.624 136.053 188.916C135.547 189.905 134.775 190.689 134.413 191.763C133.797 193.585 132.82 198.217 133.23 198.41C132.796 200.328 132.856 202.391 133.689 204.176C134.871 206.734 137.959 205.455 140.239 206.07C141.554 206.42 144.86 208.206 146.078 206.758C146.464 206.288 146.452 205.66 146.247 204.997C146.766 205.214 147.333 205.335 147.924 205.262C149.359 205.069 149.951 203.38 150.18 202.126C150.216 201.921 150.216 201.703 150.228 201.498C150.795 201.595 151.29 201.51 151.688 201.124C153.015 199.821 151.784 197.071 151.121 195.756C150.843 195.225 150.53 194.706 150.228 194.188C151.265 194.694 152.231 194.839 152.978 194.296Z" fill="#915851"/>
<path d="M247.449 196.214C244.264 194.176 240.79 191.908 237.376 191.365C235.494 191.063 234.878 192.077 233.419 193.428C231.32 195.382 224.202 201.667 226.928 204.9C226.989 204.973 227.085 205.009 227.182 205.057C226.796 205.515 226.434 205.986 226.132 206.468C225.613 207.289 225.3 208.182 225.481 209.171C225.565 209.629 225.782 209.834 225.951 210.184C226.603 210.787 226.808 211.475 226.567 212.259C226.591 212.549 226.627 212.85 226.663 213.14C227.351 215.034 228.81 214.937 230.487 213.948C230.439 214.973 230.801 215.794 232.116 215.649C233.226 215.528 234.155 214.816 234.975 214.105C235.711 213.477 236.422 212.826 237.134 212.162C240.596 210.232 244.807 212.476 248.86 211.571C251.526 210.98 254.964 209.569 255.905 206.722C257.305 202.5 253.227 199.677 250.078 197.843C249.234 197.348 248.353 196.793 247.449 196.214Z" fill="#915851"/>
<path d="M276.474 197.553C276.474 201.86 273.542 205.914 268.934 206.927L261.467 208.58L257.063 209.545L251.345 210.811L247.979 197.927L250.778 196.19L255.109 193.536L261.841 189.386C266.533 186.515 272.674 188.144 275.304 192.981C276.1 194.453 276.474 196.021 276.474 197.553Z" fill="#915851"/>
<path d="M236.024 195.37C233.226 197.65 230.644 200.159 228.292 202.91C227.688 203.609 228.702 204.635 229.317 203.935C231.669 201.197 234.251 198.675 237.05 196.395C237.774 195.804 236.748 194.791 236.024 195.37Z" fill="#733832"/>
<path d="M237.629 200.195C233.986 202.644 230.752 205.576 227.99 208.99C227.411 209.702 228.424 210.739 229.015 210.015C231.706 206.698 234.818 203.827 238.365 201.45C239.125 200.931 238.401 199.677 237.629 200.195Z" fill="#733832"/>
<path d="M237.363 206.215C235.445 207.699 233.563 209.231 231.718 210.811C231.006 211.415 232.031 212.44 232.743 211.837C234.589 210.256 236.471 208.724 238.389 207.241C239.113 206.674 238.087 205.648 237.363 206.215Z" fill="#733832"/>
<path d="M253.866 203.151C253.432 201.173 252.346 199.423 250.766 198.157C250.042 197.578 249.017 198.603 249.741 199.182C251.152 200.304 252.081 201.776 252.467 203.537C252.672 204.442 254.071 204.056 253.866 203.151Z" fill="#733832"/>
<path d="M151.157 192.318C148.443 189.23 145.475 186.419 142.23 183.885C141.506 183.318 140.481 184.332 141.205 184.911C144.438 187.444 147.417 190.255 150.132 193.343C150.747 194.043 151.76 193.018 151.157 192.318Z" fill="#733832"/>
<path d="M150.095 199.037C148.889 197.397 147.598 195.816 146.175 194.345C144.703 192.825 142.905 191.546 141.603 189.881C141.024 189.145 140.01 190.183 140.577 190.906C141.759 192.414 143.364 193.573 144.715 194.924C146.223 196.432 147.586 198.048 148.853 199.761C149.396 200.509 150.65 199.785 150.095 199.037Z" fill="#733832"/>
<path d="M147.369 202.825C145.306 200.473 143.098 198.265 140.746 196.214C140.046 195.599 139.021 196.625 139.721 197.24C142.073 199.303 144.281 201.51 146.344 203.851C146.971 204.55 147.984 203.525 147.369 202.825Z" fill="#733832"/>
<path d="M140.806 205.467C138.466 204.611 138.201 202.873 137.006 201.004C135.969 199.387 134.859 198.494 134.811 196.371C134.787 195.442 133.339 195.442 133.363 196.371C133.387 197.433 133.556 198.41 134.027 199.375C134.642 200.642 135.691 201.498 136.27 202.801C137.151 204.78 138.345 206.107 140.42 206.854C141.301 207.18 141.675 205.781 140.806 205.467Z" fill="#733832"/>
<path d="M155.934 135.1C159.975 129.093 164.379 123.338 169.083 117.825C169.687 117.125 168.661 116.1 168.058 116.8C162.026 123.881 156.477 131.348 151.519 139.226C150.071 141.518 146.983 144.739 148.165 147.622C149.359 150.505 153.545 152.991 156.103 154.571C156.899 155.066 157.623 153.811 156.827 153.328C155.246 152.351 153.738 151.302 152.351 150.059C151.784 149.552 151.229 149.022 150.698 148.467C149.323 146.742 149.227 145.197 150.397 143.822C151.603 140.782 154.124 137.778 155.934 135.1Z" fill="#1A161C"/>
<path d="M235.12 138.056C230.041 130.613 224.974 123.169 219.895 115.714C219.377 114.954 218.122 115.678 218.653 116.438C222.525 122.12 226.398 127.802 230.27 133.484C232.055 136.114 234.54 138.84 235.88 141.711C237.822 145.885 233.805 148.129 231.175 150.65C230.499 151.29 231.525 152.315 232.2 151.676C234.07 149.89 237.593 147.646 238.353 145.029C239.076 142.483 236.422 139.962 235.12 138.056Z" fill="#1A161C"/>
<path d="M263.819 130.239C263.047 145.571 262.154 161.17 256.11 175.489C255.748 176.334 256.991 177.07 257.353 176.213C263.505 161.64 264.47 145.849 265.255 130.239C265.315 129.31 263.867 129.322 263.819 130.239Z" fill="#1A161C"/>
<path d="M270.297 148.829C267.366 157.647 263.952 166.285 260.055 174.717C259.669 175.549 260.912 176.285 261.298 175.441C265.242 166.888 268.717 158.142 271.684 149.203C271.974 148.334 270.587 147.948 270.297 148.829Z" fill="#1A161C"/>
<path d="M302.603 152.629C298.514 154.052 293.966 153.027 289.985 154.885C287.765 155.922 285.811 157.635 284.013 159.457C284.411 157.84 285.726 156.055 286.51 154.921C287.717 153.196 289.152 151.676 290.745 150.3C291.444 149.685 290.419 148.672 289.719 149.275C287.765 150.976 286.052 152.894 284.677 155.09C283.603 156.791 282.204 158.926 282.529 161.013C282.047 161.532 281.576 162.038 281.118 162.533C279.888 163.848 278.705 165.211 277.692 166.707C276.293 168.758 275.328 171.231 273.446 172.908C270.804 175.248 267.136 175.706 265.387 179.024C264.953 179.844 266.195 180.58 266.63 179.748C268.282 176.623 271.998 176.153 274.471 173.921C277.354 171.315 278.778 167.31 281.359 164.415C283.977 161.483 287.053 157.876 290.66 156.212C294.521 154.426 298.984 155.415 302.989 154.016C303.87 153.714 303.496 152.327 302.603 152.629Z" fill="#1A161C"/>
<path d="M125.896 198.229C124.714 193.078 123.495 187.818 123.773 182.486C123.99 178.276 125.039 174.379 124.207 170.157C122.602 162.05 117.029 155.271 116.45 146.886C116.39 145.97 114.942 145.957 115.002 146.886C115.569 155.09 120.684 161.688 122.578 169.506C123.76 174.391 122.313 178.939 122.289 183.825C122.253 188.832 123.387 193.766 124.508 198.615C124.714 199.52 126.113 199.134 125.896 198.229Z" fill="#1A161C"/>
<path d="M110.744 215.42C104.905 215.202 99.3438 216.204 93.9393 218.436C93.0949 218.785 93.4689 220.185 94.3254 219.823C99.0664 217.856 103.964 216.867 109.055 216.843L95.5438 224.962C94.7476 225.444 95.4714 226.687 96.2676 226.204C101.081 223.309 105.894 220.414 110.708 217.519C110.997 217.338 111.082 217.06 111.033 216.795C111.661 216.554 111.564 215.444 110.744 215.42Z" fill="#1A161C"/>
<path d="M132.675 234.48C132.241 233.66 130.999 234.384 131.433 235.204C132.193 236.652 134.413 239.487 134.485 241.043C134.618 243.793 132.313 245.41 130.781 247.255C128.96 249.451 128.815 251.622 128.32 254.325C127.199 260.586 120.443 263.445 118.549 269.416C118.271 270.309 119.659 270.683 119.936 269.802C121.143 265.99 124.339 263.65 126.788 260.67C128.646 258.414 129.503 256.231 129.901 253.36C130.299 250.573 131.228 248.848 133.122 246.845C134.075 245.832 135.221 244.807 135.824 243.528C137.199 240.633 133.942 236.917 132.675 234.48Z" fill="#1A161C"/>
<path d="M255.724 262.347C247.654 258.547 239.318 254.482 234.263 246.797C233.756 246.025 232.502 246.749 233.02 247.521C238.22 255.435 246.676 259.669 255 263.59C255.833 263.988 256.569 262.745 255.724 262.347Z" fill="#1A161C"/>
<path d="M348.747 219.244C346.551 214.756 342.063 212.03 338.456 208.748C335.006 205.612 332.412 205.54 327.72 206.275C322.737 207.06 314.57 208.085 310.686 211.692C307.151 214.985 308.225 222.006 306.186 226.12C304.944 228.605 308.683 230.801 309.926 228.304C311.217 225.71 311.856 223.466 312.568 220.631C314.196 214.153 318.093 212.766 323.92 211.402C329.047 210.208 332.605 209.81 336.707 213.164C339.711 215.625 343.258 217.832 345.007 221.403C346.225 223.924 349.965 221.741 348.747 219.244Z" fill="#36303A"/>
<path d="M341.509 362.004C343.089 361.751 344.681 361.51 346.262 361.305C346.237 358.627 345.67 356.069 343.994 353.524C337.624 343.897 322.967 344.174 318.009 333.39C316.838 330.856 313.111 333.064 314.269 335.573C318.407 344.548 327.949 346.274 335.489 351.352C340.194 354.525 341.436 357.987 341.509 362.004Z" fill="#36303A"/>
<path d="M384.045 342.582C389.425 344.826 394.009 350.568 397.411 355.936C398.786 355.466 400.174 355.008 401.561 354.549C399.1 350.809 396.217 347.383 393.201 344.042C391.789 342.473 390.39 340.917 388.544 339.856C385.649 338.191 379.074 337.648 379.593 332.931C379.895 330.169 375.564 330.181 375.262 332.931C374.635 338.722 379.557 340.712 384.045 342.582Z" fill="#36303A"/>
<path d="M319.191 338.493C311.687 334.898 303.556 334.958 295.703 332.642C292.94 331.833 289.225 330.567 287.234 328.407C284.568 325.512 284.978 321 285.051 317.442C285.147 312.109 285.606 306.777 286.209 301.481C288.79 278.971 292.989 256.569 296.499 234.191C296.535 233.986 296.511 233.792 296.475 233.612C297.223 232.104 294.858 230.801 293.905 232.309C286.74 243.588 283.869 256.388 282.107 269.489C280.937 278.15 280.189 286.884 278.524 295.474C277.089 302.857 274.616 309.998 273.409 317.429C272.022 325.958 272.83 335.03 282.638 336.972C289.756 338.384 296.427 340.555 303.472 342.22C308.973 343.523 314.064 343.427 319.215 340.99C320.144 340.543 320.132 338.939 319.191 338.493Z" fill="#36303A"/>
<path d="M392.839 292.446C392.115 288.513 391.102 284.641 389.739 280.889C389.497 280.225 389.244 279.562 388.979 278.898C388.689 278.187 388.388 277.487 388.074 276.787C387.507 275.545 386.892 274.326 386.18 273.156C384.889 271.045 383.128 269.477 381.692 267.522C379.581 264.663 380.329 261.104 380.293 257.787C380.269 255.061 370.437 219.075 366.468 218.52C342.703 215.215 317.116 220.571 294.05 226.12C289.924 227.121 291.42 250.392 293.592 258.475C294.641 262.468 295.956 266.388 296.68 270.454C297.512 275.255 297.561 280.129 297.705 285.002C298.055 296.475 300.854 307.658 304.075 318.612C305.704 324.161 306.259 330.217 308.961 335.416C312.314 341.81 317.502 342.413 323.98 343.885C332.545 345.839 385.179 335.742 389.944 335.054C396.76 334.077 397.978 334.355 398.207 329.023C398.642 318.612 394.721 302.748 392.839 292.446Z" fill="#F5D2B5"/>
<path d="M389.727 280.889C384.66 281.842 379.786 283.519 374.671 284.737C369.448 285.98 364.091 286.269 358.82 287.295C353.065 288.416 347.456 290.178 341.653 291.155C335.79 292.12 329.819 291.698 323.956 292.53C323.401 291.155 322.882 289.78 322.375 288.416C328.395 287.512 334.475 287.922 340.507 286.981C347.118 285.943 353.512 283.772 360.122 282.662C366.323 281.613 372.391 280.913 378.483 279.212C381.704 278.319 384.841 277.439 388.038 276.799C388.351 277.487 388.653 278.199 388.942 278.91C389.244 279.562 389.485 280.225 389.727 280.889Z" fill="#DCA877"/>
<path d="M374.37 250.416C365.66 250.887 357.36 253.516 348.807 255.012C344.307 255.796 339.783 255.76 335.272 256.363C331.122 256.918 327.153 258.209 323.16 259.391C319.312 260.525 314.221 262.456 310.204 261.659C307.332 261.092 307.296 259.609 306.874 257.16C306.524 255.133 306.102 253.13 305.583 251.14C303.508 243.094 300.094 235.493 295.607 228.521C295.1 227.737 293.857 228.46 294.364 229.245C299.467 237.158 303.122 245.88 305.028 255.121C305.499 257.401 304.98 261.466 307.2 262.685C309.492 263.951 313.581 263.24 316.561 262.588C316.573 262.6 316.573 262.612 316.585 262.637C320.035 266.859 326.707 265.134 327.696 259.777C327.708 259.693 327.696 259.621 327.696 259.548C328.697 259.259 329.71 258.969 330.724 258.728C335.682 257.497 340.7 257.582 345.731 256.943C351.449 256.219 357.01 254.759 362.632 253.589C362.644 253.661 362.644 253.734 362.68 253.818C363.585 255.893 365.696 257.413 368.036 256.991C370.606 256.532 371.559 254.445 371.861 252.093C372.693 252.009 373.525 251.924 374.358 251.876C375.299 251.815 375.311 250.368 374.37 250.416ZM318.202 262.226C320.892 261.623 323.522 260.803 326.152 260.007C325.078 263.578 320.916 264.687 318.202 262.226ZM367.421 255.603C365.865 255.676 364.695 254.602 364.055 253.287C366.167 252.865 368.278 252.491 370.413 252.226C370.16 253.927 369.4 255.507 367.421 255.603Z" fill="#DEB18C"/>
<path d="M333.981 327.671C333.257 323.787 333.366 319.818 332.412 315.97C330.651 308.876 326.972 302.446 325.102 295.377C324.861 294.484 323.473 294.858 323.715 295.763C324.161 297.44 324.704 299.081 325.295 300.697C325.223 300.721 325.15 300.733 325.09 300.794C318.696 305.293 311 305.981 303.412 305.426C302.483 305.354 302.495 306.801 303.412 306.874C311.253 307.453 319.227 306.681 325.814 302.048C327.491 306.415 329.457 310.686 330.724 315.198C331.785 318.986 331.797 322.834 332.364 326.682C332.907 330.301 334.126 333.703 333.933 337.407C333.884 338.336 335.332 338.336 335.38 337.407C335.537 334.017 334.584 330.965 333.981 327.671Z" fill="#DEB18C"/>
<path d="M345.851 237.001C345.851 240.572 343.607 244.348 339.699 245.181C336.188 245.928 332.521 244.408 330.917 241.127C327.828 234.842 334.306 228.762 340.712 230.294C344.247 231.126 345.851 233.986 345.851 237.001Z" fill="#DCA877"/>
<path d="M257.063 209.545C257.558 204.128 256.267 197.939 250.875 196.239C250.85 196.226 250.802 196.214 250.778 196.19L255.109 193.536C259.862 196.637 261.647 202.729 261.466 208.58L257.063 209.545Z" fill="#DCA877"/>
<path d="M262.058 197.24C262.058 199.134 259.741 200.666 256.87 200.666C254.011 200.666 251.683 199.134 251.683 197.24C251.683 195.346 253.999 193.814 256.87 193.814C259.741 193.814 262.058 195.346 262.058 197.24Z" fill="white"/>
<path d="M210.015 314.16C203.971 321.495 201.438 330.736 202.862 340.121C202.994 341.038 204.394 340.652 204.249 339.735C202.91 330.904 205.359 322.062 211.041 315.174C211.62 314.474 210.606 313.448 210.015 314.16Z" fill="#BA8452"/>
<path d="M142.399 511.014C141.699 508.3 139.877 506.213 137.682 504.56C137.573 504.476 137.453 504.451 137.332 504.451C137.127 504.234 136.813 504.126 136.476 504.307C133.532 505.827 130.444 507.479 128.441 510.206C127.609 511.34 126.089 513.777 127.416 515.055C129.744 517.287 133.508 512.076 135.631 508.529C134.533 512.824 133.882 517.178 133.701 521.642C133.665 522.571 135.112 522.571 135.149 521.642C135.305 517.782 135.848 514.006 136.705 510.29C137.694 513.475 139.395 516.768 141.687 515.61C143.183 514.838 142.724 512.293 142.399 511.014ZM129.068 513.909C128.007 513.62 129.877 510.676 130.142 510.375C130.818 509.615 131.626 508.927 132.434 508.324C133.242 507.721 134.111 507.202 135.004 506.707C134.425 507.745 133.809 508.77 133.086 509.723C132.627 510.338 129.816 514.114 129.068 513.909ZM139.986 513.366C138.454 512.269 137.694 509.796 137.368 507.66C137.477 507.25 137.597 506.84 137.718 506.442C138.671 507.25 139.516 508.167 140.131 509.265C140.613 510.085 140.939 510.966 141.132 511.895C141.156 514.199 140.77 514.693 139.986 513.366Z" fill="#E0CFC7"/>
</g>
<defs>
<clipPath id="clip0">
<rect width="485.21" height="573.781" fill="white"/>
</clipPath>
</defs>
</svg>
