<svg width="314" height="301" viewBox="0 0 314 301" fill="none" xmlns="http://www.w3.org/2000/svg">
<g clip-path="url(#clip0)">
<path d="M38.3167 291.178C38.2546 290.589 38.0534 289.817 37.6877 289.331C37.2745 288.786 36.5541 288.662 35.9325 288.486C34.9524 288.208 28.0666 288.625 27.7557 288.446C27.1377 288.088 27.6314 286.629 27.7301 286.109C27.9532 284.895 28.1799 283.678 28.403 282.463C27.3535 282.577 26.304 282.73 25.2471 282.884C23.5467 283.133 21.828 283.206 20.1202 283.345C19.8898 286.753 18.2004 289.905 18.0834 293.339C18.0431 294.557 18.1199 296.158 19.345 296.806C20.6614 297.504 22.5593 296.802 23.8977 296.531C28.0227 295.69 32.1366 294.743 36.1336 293.412C37.3586 292.999 38.4776 292.699 38.3167 291.178Z" fill="#421818"/>
<path d="M82.3817 292.395C82.3195 291.807 82.1184 291.035 81.7527 290.549C81.3395 290.004 80.6191 289.88 79.9974 289.704C79.0174 289.426 72.1315 289.843 71.8207 289.664C71.2027 289.305 71.6963 287.846 71.7951 287.327C72.0181 286.113 72.2449 284.895 72.4679 283.681C71.4184 283.795 70.3689 283.948 69.3121 284.102C67.6116 284.35 65.8929 284.424 64.1852 284.562C63.9548 287.971 62.2653 291.123 62.1483 294.557C62.1081 295.774 62.1849 297.376 63.4099 298.023C64.7264 298.722 66.6243 298.02 67.9627 297.749C72.0876 296.908 76.2016 295.961 80.1985 294.63C81.4236 294.217 82.5426 293.917 82.3817 292.395Z" fill="#421818"/>
<path d="M312.965 35.5929C312.401 34.1485 311.016 36.2109 310.69 36.6936C309.845 37.9552 309.001 39.1766 308.05 40.3285C307.915 40.153 307.779 39.9738 307.64 39.7983C309.158 37.915 310.646 35.9623 311.52 33.695C311.805 32.9527 312.456 31.4753 312.087 30.6635C311.977 30.4221 311.765 30.2685 311.546 30.232C311.659 29.7164 311.809 28.8204 311.33 28.5242C310.273 27.8623 308.752 31.958 308.441 32.6089C307.64 34.2984 306.7 35.8891 305.596 37.3738C305.483 37.2422 305.369 37.1142 305.252 36.9825C306.262 35.5527 307.161 34.0497 307.933 32.4736C308.496 31.329 309.001 30.1479 309.425 28.9448C309.633 28.3523 310.332 26.5824 309.6 26.0522C308.891 25.5402 308.28 27.1712 308.105 27.5369C307.498 28.7948 306.927 30.0528 306.21 31.2559C305.084 33.1392 303.746 34.8762 302.232 36.4523C301.658 36.924 301.084 37.3994 300.528 37.8858C301.255 35.9659 302.093 34.0936 303.04 32.2652C303.278 31.8081 303.771 31.0072 303.172 30.583C302.583 30.1735 302.075 30.978 301.782 31.3546C299.189 34.6787 297.88 38.7524 297.006 42.8335C296.856 43.2906 296.721 43.7587 296.593 44.2231C295.931 45.6529 294.596 46.6293 293.346 47.5655C291.7 48.7978 290.058 50.0302 288.413 51.2625C288.317 51.3357 288.288 51.4564 288.376 51.5514C288.946 52.1768 289.513 52.8057 290.084 53.4311C290.64 54.0417 291.166 54.7731 291.791 55.3107C292.607 56.0091 293.408 54.7804 293.989 54.2392C296.406 51.9903 298.747 49.6645 301.018 47.2656C301.051 47.2327 301.062 47.1925 301.065 47.1559C301.299 46.9767 301.526 46.7829 301.72 46.6512C302.21 46.3148 302.696 45.982 303.186 45.6456L306.119 43.6343C306.609 43.2979 307.095 42.9651 307.585 42.6287C307.882 42.4239 308.309 42.2301 308.525 41.9302C308.587 41.8461 308.62 41.762 308.646 41.6816C309.589 40.9941 310.445 40.1932 311.18 39.279C311.696 38.6391 312.153 37.9552 312.54 37.2312C312.778 36.7704 313.18 36.1378 312.965 35.5929Z" fill="#F7A37A"/>
<path d="M97.2432 43.8099C97.3383 44.3474 97.4297 44.8777 97.5065 45.4006C97.6491 46.366 97.7551 47.3022 97.8136 48.1835C97.9965 50.8822 97.7369 53.0763 96.7385 54.1734C94.7785 56.3309 86.7517 57.812 83.0656 57.1611C80.1254 56.6454 78.6152 55.6727 76.5893 53.3287C75.3459 51.8879 74.0916 50.4324 73.0129 48.8673C71.9524 47.3241 71.1662 45.6566 70.4714 43.9269C69.0525 40.3944 67.8275 36.7375 67.3374 32.9527C67.2826 32.5175 67.2314 32.0677 67.1912 31.6179C68.7965 30.6745 70.3397 29.5994 72.0219 28.7949C74.1392 27.7856 76.3369 27.0652 78.5859 26.4289C78.7358 26.385 78.8785 26.3374 79.0174 26.2826C79.3209 26.3082 79.6281 26.3374 79.939 26.3594C80.4802 26.4435 81.0214 26.5313 81.5626 26.619C84.9817 27.1749 88.3717 27.8697 91.7652 28.5535C91.7908 28.239 91.8274 27.9209 91.8822 27.6027C91.8859 27.5698 91.9005 27.5442 91.9188 27.5223C91.9115 27.5113 91.9042 27.5003 91.8969 27.4894C91.7725 27.2919 92.087 27.1054 92.2113 27.3065C92.5295 27.8112 92.8476 28.3195 93.1548 28.8351C93.1694 28.8387 93.1804 28.8387 93.195 28.8424C93.2097 28.8863 93.228 28.9375 93.2426 28.9813C93.8679 30.0455 94.4311 31.1462 94.8004 32.3237C94.8699 32.5431 94.932 32.7662 94.9832 32.9856C95.1441 33.6585 95.2392 34.3313 95.3709 34.9896C95.583 36.0574 95.8865 37.0813 96.702 37.9882C97.5577 38.9353 98.9107 39.7544 98.9363 41.177C98.9619 42.3545 98.1574 43.1773 97.2432 43.8099Z" fill="#8C4D37"/>
<path d="M93.3158 38.1929C93.4547 39.0157 93.9228 39.6191 94.358 39.546C94.7931 39.4728 95.0345 38.7451 94.8955 37.926C94.7566 37.1032 94.2885 36.4998 93.8533 36.573C93.4145 36.6461 93.1768 37.3738 93.3158 38.1929Z" fill="#421818"/>
<path d="M94.9831 32.9856C93.2717 32.5687 91.2056 33.0478 89.8818 34.207C89.4905 34.5471 88.7994 35.2309 88.9237 35.8233C89.0371 36.3755 89.7319 36.4157 90.1707 36.3353C91.2056 36.1415 92.0686 35.4247 93.1217 35.209C93.7617 35.081 94.4053 35.0298 95.0526 34.9969C95.1513 34.9896 95.261 34.9896 95.3707 34.9896C95.2391 34.3313 95.144 33.6585 94.9831 32.9856Z" fill="#421818"/>
<path d="M40.3098 56.0823C39.8197 55.7385 39.3699 55.3509 38.9384 54.9377C38.9823 54.8024 39.0262 54.6707 39.0701 54.5391C39.1213 54.3818 38.869 54.3124 38.8214 54.4696C38.7922 54.561 38.7629 54.6488 38.7336 54.7366C37.3038 53.2921 36.1592 51.5332 34.9854 49.9059C33.3142 47.5838 31.6796 45.2361 30.0742 42.8664C26.8672 38.1271 23.7808 33.3074 20.7346 28.4621C19.0122 25.7231 17.3045 22.9731 15.6004 20.2268C15.5638 20.172 15.4834 20.1391 15.4249 20.1793C14.4119 20.8558 13.4026 21.5287 12.3897 22.2052C12.3275 22.2454 12.3129 22.3149 12.3421 22.3807C17.9737 34.1229 21.1149 46.9877 27.8399 58.2142C29.5805 61.1214 31.5626 63.886 33.8225 66.4129C33.8773 66.4751 33.9871 66.4568 34.0236 66.3873C35.9837 62.8219 37.5964 59.0772 38.8507 55.2083C39.2675 55.6032 39.7064 55.9762 40.1781 56.3053C40.3171 56.4041 40.4451 56.1774 40.3098 56.0823Z" fill="#8C4D37"/>
<path d="M126.538 56.4516C126.725 57.7059 126.838 58.9748 126.897 60.2438C127.27 60.0134 127.639 59.7793 128.005 59.5416C127.507 58.5141 127.025 57.4828 126.538 56.4516Z" fill="#F7A37A"/>
<path d="M159.863 26.0047C159.121 25.0429 158.375 24.0812 157.632 23.1194C157.589 23.0646 157.501 23.0646 157.45 23.1084C154.956 25.1709 152.462 27.2334 149.96 29.2812C145.532 32.9051 141.067 36.4925 136.518 39.9629C134.243 41.6962 131.947 43.404 129.621 45.0715C128.908 45.5835 128.187 46.121 127.456 46.6403C127.818 47.3278 128.176 48.0189 128.542 48.7064C129.873 51.226 131.047 53.8516 132.294 56.4297C132.788 56.0347 133.274 55.6361 133.753 55.2266C143.703 46.7244 150.776 35.5271 159.852 26.1912C159.9 26.1327 159.907 26.0632 159.863 26.0047Z" fill="#8C4D37"/>
<path d="M75.7444 50.6994C74.0915 55.6947 72.8299 60.8033 71.9998 65.9741C71.8828 66.7054 71.422 68.0329 71.7877 68.7277C71.9449 69.0239 72.2814 69.1629 72.5593 69.2982C73.1224 69.5797 73.6893 69.8503 74.2561 70.1283C76.6221 71.2838 78.9844 72.4394 81.3504 73.5986C81.4601 73.6498 81.5661 73.5767 81.6027 73.4633C83.4421 67.5538 85.2851 61.648 87.1245 55.7385C87.4281 55.8702 87.7279 55.9982 88.0314 56.1298C88.2326 56.2176 88.3971 55.8885 88.1923 55.8007L87.2342 55.3875C87.4317 54.7512 87.6292 54.1186 87.8267 53.4823C87.8961 53.2592 87.5561 53.2007 87.4866 53.4238C87.2964 54.0345 87.1063 54.6451 86.9161 55.2522C83.2775 53.6907 79.639 52.1256 76.0004 50.5641C75.8834 50.5166 75.7846 50.5824 75.7444 50.6994Z" fill="#8C4D37"/>
<path d="M98.4062 137.619C97.4481 136.997 96.0731 137.114 94.9907 137.074C91.6593 136.95 88.3279 136.884 84.9965 136.869C82.9084 136.862 80.8204 136.88 78.7323 136.913C78.8895 136.281 79.0504 135.644 79.204 135.012C79.2296 134.902 79.1492 134.774 79.0285 134.781C68.537 135.238 58.1113 136.712 47.905 139.181C48.0001 138.957 48.0915 138.731 48.1866 138.508C48.278 138.296 47.9635 138.109 47.8721 138.325C47.7332 138.643 47.6015 138.965 47.4662 139.287C46.8007 139.451 46.1351 139.616 45.4696 139.788C45.2428 139.846 45.3379 140.201 45.5683 140.139C46.1424 139.992 46.7165 139.846 47.2907 139.707C43.7984 148.107 41.2166 156.872 39.6369 165.832C39.5089 166.548 39.3919 167.265 39.2785 167.986C36.6968 173.646 35.8264 179.947 35.1463 186.12C34.7148 190.04 34.3454 193.971 33.6396 197.855C32.8973 201.936 31.6284 205.841 30.1985 209.729C28.7065 213.788 27.2255 217.832 26.3442 222.078C25.4446 226.404 24.9766 230.803 24.183 235.144C23.3968 239.451 21.945 243.503 20.7712 247.705C20.2336 249.639 19.8094 251.614 19.707 253.625C19.601 255.728 19.8716 257.824 20.0252 259.919C20.1934 262.27 20.208 264.687 19.3084 266.911C18.4674 268.984 17.1107 270.769 16.9571 273.073C16.7962 275.515 17.3922 277.9 17.0375 280.357C16.6974 282.727 15.8308 284.979 14.5399 286.991C14.4594 287.115 14.5692 287.254 14.6971 287.265C16.8437 287.44 18.9903 287.411 21.1259 287.184C22.062 287.144 22.9982 287.104 23.938 287.064C24.8815 287.024 26.1687 287.184 27.0098 286.632C27.6863 286.19 31.6905 269.869 33.0911 264.523C35.8959 253.805 39.1176 243.163 43.6082 233.015C45.8901 227.859 48.4316 222.827 50.783 217.704C53.116 212.614 55.3248 207.465 57.4494 202.283C61.6548 192.015 65.4945 181.593 68.9539 171.05C69.4146 169.646 69.8681 168.242 70.3142 166.834C69.7803 172.239 69.411 177.658 69.1477 183.085C67.9117 187.831 67.2607 192.728 67.2278 197.643C67.2022 201.27 67.5789 204.839 68.1238 208.419C68.2773 209.421 68.42 210.434 68.5041 211.447C68.4968 212.497 68.4894 213.55 68.4821 214.6C68.2773 216.406 67.6886 218.128 67.1108 219.843C65.9845 223.193 65.4652 226.532 65.4835 230.064C65.5055 233.666 65.9406 237.246 66.1637 240.834C66.3941 244.513 66.3831 248.21 65.5237 251.812C64.6571 255.447 63.4064 258.935 62.825 262.643C62.1704 266.845 61.8157 271.098 61.3549 275.325L59.9105 288.636C59.8995 288.735 60.0019 288.819 60.0933 288.819C61.5561 288.797 62.9749 288.512 64.2987 287.982C66.7854 287.835 68.2554 287.777 70.9322 287.137C71.6014 286.976 71.5137 287.042 71.7221 286.384C71.9708 285.601 72.2121 284.818 72.4462 284.032C72.8996 282.518 79.4783 261.868 80.3779 255.399C81.2848 248.872 81.9174 242.3 83.1754 235.828C84.4187 229.421 86.185 223.131 87.9439 216.852C91.4618 204.291 94.4056 191.631 96.3217 178.722C98.216 165.963 99.3569 152.992 99.346 140.084C99.3387 139.151 99.2582 138.171 98.4062 137.619Z" fill="#F1B960"/>
<path d="M85.1571 64.8222C84.9706 64.3651 84.6049 64.3651 84.1588 64.2883C83.2629 64.1347 82.3633 64.0067 81.4637 63.8641C79.6865 63.5862 77.9129 63.2826 76.132 63.034C75.3641 62.9279 74.5925 62.8402 73.8172 62.8036C73.265 62.778 72.6031 62.7049 72.0875 62.9718C71.0929 63.4911 70.6358 65.0855 70.3652 66.0838C70.3066 66.3032 70.6321 66.3983 70.7089 66.1972C74.2378 66.3544 77.7557 67.3308 81.2041 68.0512C82.0598 68.2304 83.0508 68.5961 83.9248 68.5997C84.2722 68.6034 84.4843 68.512 84.689 68.2377C85.1827 67.5758 85.468 65.5901 85.1571 64.8222Z" fill="#782C2C"/>
<path d="M99.2105 154.305C98.9436 152.323 97.777 151.274 95.8864 150.802C90.5694 149.471 85.0256 148.725 79.5769 148.184C73.1335 147.544 66.6426 147.456 60.2943 146.07C57.3615 145.43 54.3848 144.67 51.3569 144.929C48.4973 145.178 45.5828 146.275 42.7524 145.426C42.7743 145.357 42.7926 145.288 42.8145 145.218C42.884 144.991 42.5293 144.896 42.4635 145.119C42.4452 145.181 42.4269 145.247 42.4086 145.309C42.3647 145.295 42.3209 145.284 42.2806 145.266C42.0612 145.181 41.9661 145.536 42.1819 145.617C42.2221 145.631 42.2623 145.646 42.3026 145.661C40.7045 150.963 39.4904 156.375 38.7115 161.857C38.547 163.02 38.3276 164.208 38.2654 165.382C38.2288 166.08 38.4592 166.497 39.2016 166.567C40.2986 166.669 41.4798 166.442 42.5841 166.42C44.014 166.391 45.4438 166.424 46.8663 166.527C49.5761 166.72 52.2712 167.177 54.8748 167.967C57.4566 168.75 59.775 170.107 62.3056 170.999C67.3447 172.776 72.7715 171.749 77.9715 171.664C83.7164 171.569 89.3517 172.824 95.0563 173.273C95.6963 173.325 96.3399 173.365 96.9835 173.39C97.3126 173.405 97.7588 173.493 98.0659 173.325C98.8156 172.919 98.6327 171.478 98.6766 170.809C98.8741 167.953 99.024 165.097 99.1301 162.233C99.1849 160.804 99.2252 159.374 99.2544 157.944C99.2837 156.737 99.3751 155.505 99.2105 154.305Z" fill="#782C2C"/>
<path d="M143.009 50.6043C140.504 46.8377 137.772 43.2357 134.825 39.8056C134.784 39.7581 134.704 39.7398 134.645 39.7581C130.985 40.9758 128.571 44.0732 125.968 46.7354C124.571 48.1652 123.064 49.5219 121.258 50.4141C119.053 51.5039 116.588 51.8805 114.332 52.8386C110.276 54.5574 108.181 58.3897 105.398 61.5566C102.282 65.1074 97.9598 67.1187 93.3376 67.861C87.2599 68.8374 70.0068 64.8989 67.6811 64.8551C63.5635 64.7783 58.8644 65.8717 55.2587 63.2753C52.187 61.0629 50.9912 57.0404 47.6488 55.1095C44.5295 53.3067 40.6606 53.4749 37.5779 51.6099C35.4532 50.3227 34.6487 48.1359 33.537 46.0479C32.6301 44.3438 31.2917 42.6872 29.2731 42.391C29.189 42.38 29.1122 42.3983 29.0684 42.4751C25.6163 48.0335 22.1386 53.581 18.7121 59.154C18.1453 60.0719 18.01 60.6204 18.8145 61.4066C19.6373 62.2075 20.365 63.023 20.9684 64.0103C22.1459 65.9411 22.8407 68.117 23.5282 70.2526C24.8264 74.2861 26.205 78.4878 30.0374 80.7989C32.2937 82.1593 34.8937 82.8431 37.1025 84.2912C39.4575 85.8344 41.0848 88.1858 42.745 90.4091C44.3321 92.5374 46.1166 94.4427 48.1059 96.0846C48.3363 101.504 47.7768 106.953 46.4238 112.215C45.367 116.322 43.5239 120.194 42.6133 124.334C41.6882 128.525 42.1745 132.803 42.5987 137.023C42.8291 139.305 43.0595 141.587 43.2862 143.869C43.4069 145.075 43.1948 146.816 44.8586 146.619C46.8919 146.377 48.8775 145.895 50.9327 145.745C52.9074 145.598 54.8894 145.584 56.8678 145.697C60.9086 145.928 64.9202 146.703 68.7562 147.994C72.6507 149.303 76.1942 151.208 79.6719 153.377C81.5552 154.55 83.4494 155.721 85.4973 156.584C87.5451 157.447 89.7173 157.922 91.9077 158.251C94.4858 158.639 97.0749 158.957 99.6676 159.257C99.5432 154.068 99.8248 148.879 100.633 143.741C101.489 138.296 103.858 133.337 105.083 127.991C106.345 122.48 104.776 116.954 104.743 111.407C104.71 106.302 106.396 101.307 108.078 96.538C109.472 92.5923 111.084 88.6209 113.355 85.0848C113.853 83.4831 116.438 77.5334 117.612 76.5351C119.875 74.6115 122.801 73.7266 125.156 71.9384C127.354 70.2709 128.747 67.8683 130.096 65.517C131.625 62.8511 133.303 60.3132 135.296 57.9692C137.56 55.307 140.134 52.9264 142.946 50.8566C143.02 50.7981 143.067 50.6957 143.009 50.6043Z" fill="#421818"/>
<path d="M16.8037 4.93053C15.7432 4.17356 15.1216 6.92717 15.0594 7.43182C14.8546 9.01524 14.8363 10.6498 14.8619 12.2698C14.6572 12.0029 14.4524 11.7396 14.2439 11.4726C14.2439 11.4726 9.23039 5.14263 8.14796 3.78228C7.37636 2.80956 6.64499 1.71981 5.67593 0.926276C5.17494 0.513051 4.14736 -0.196378 3.44524 0.103484C2.13975 0.659325 5.60645 3.83347 6.01601 4.30886C7.01799 5.47174 7.96877 6.67851 8.8647 7.92549C9.15725 8.3314 9.43517 8.74463 9.71675 9.16151C9.4754 9.36264 9.24136 9.57473 9.00732 9.78317C7.27031 7.93646 5.49308 6.11169 3.6098 4.41857C3.14538 4.00169 0.391772 1.65765 0.0187724 3.29957C-0.142129 4.01632 0.889104 4.64895 1.50346 5.06949C1.04635 4.94881 0.589242 5.00732 0.325948 5.51928C-0.131159 6.40424 1.3389 7.25263 1.8728 7.69511C3.52935 9.0774 5.22613 10.3719 6.74007 11.8639C6.62305 11.9663 6.50603 12.0724 6.38901 12.1784C5.27001 11.2423 4.07788 10.4012 2.79798 9.69175C2.36282 9.45406 0.629467 8.36797 0.731859 9.68444C0.761114 10.0465 1.05001 10.2732 1.32793 10.456C2.01541 10.9131 2.75044 11.2898 3.42696 11.7725C4.15102 12.2918 5.70152 14.08 5.90265 14.3835C8.01266 17.5101 10.2799 20.5307 12.6825 23.4379C12.7373 23.5037 12.836 23.5 12.9055 23.4671C13.8782 22.9661 14.8144 22.4103 15.7213 21.8033C15.7506 21.9239 15.7762 22.0446 15.8127 22.1616C15.8785 22.3883 16.2296 22.2896 16.1638 22.0629C16.1089 21.8691 16.0614 21.6789 16.0248 21.4851C16.0248 21.4705 16.0212 21.4559 16.0175 21.4412C15.7725 20.1796 15.8603 18.907 16.0943 17.6271C16.215 16.9725 16.3722 16.3253 16.5222 15.678C16.6063 15.3087 16.6904 15.0308 16.6136 14.7053C16.8952 13.2243 16.9975 11.7103 17.0305 10.1927C17.0524 9.08472 17.0451 7.97669 17.0451 6.87232C17.0414 6.40059 17.2864 5.27427 16.8037 4.93053Z" fill="#8C4D37"/>
<path d="M154.623 10.6166C154.623 11.7246 154.616 12.8327 154.637 13.937C154.667 15.4546 154.773 16.9649 155.054 18.4496C154.978 18.775 155.062 19.053 155.146 19.4223C155.292 20.0732 155.453 20.7168 155.574 21.3714C155.808 22.6476 155.895 23.9202 155.65 25.1855C155.647 25.2001 155.643 25.2148 155.643 25.2294C155.603 25.4232 155.559 25.6134 155.504 25.8072C155.438 26.0339 155.793 26.129 155.855 25.9059C155.888 25.7852 155.917 25.6645 155.947 25.5475C156.854 26.1546 157.79 26.7104 158.762 27.2114C158.828 27.248 158.931 27.248 158.985 27.1821C161.388 24.2749 163.659 21.258 165.765 18.1278C165.97 17.8243 167.521 16.0361 168.241 15.5168C168.917 15.0304 169.653 14.6574 170.34 14.2003C170.618 14.0138 170.907 13.7907 170.936 13.4287C171.038 12.1123 169.301 13.202 168.874 13.4397C167.594 14.1491 166.402 14.9902 165.283 15.9263C165.166 15.8203 165.045 15.7143 164.932 15.6119C166.445 14.1199 168.142 12.829 169.799 11.443C170.329 11.0006 171.799 10.1522 171.346 9.26722C171.082 8.75526 170.625 8.69675 170.168 8.81743C170.782 8.39323 171.814 7.76425 171.653 7.04751C171.283 5.40558 168.526 7.74597 168.062 8.16651C166.178 9.86329 164.401 11.6844 162.664 13.5311C162.427 13.3227 162.193 13.1142 161.955 12.9094C162.236 12.4962 162.514 12.083 162.807 11.6734C163.703 10.4264 164.654 9.21968 165.656 8.0568C166.065 7.58141 169.532 4.4036 168.223 3.84776C167.524 3.55156 166.497 4.25733 165.992 4.67055C165.027 5.46409 164.292 6.55383 163.52 7.52656C162.438 8.89056 157.424 15.2169 157.424 15.2169C157.219 15.4839 157.014 15.7472 156.806 16.0141C156.832 14.3941 156.81 12.7595 156.609 11.1761C156.543 10.6678 155.921 7.91418 154.864 8.67481C154.381 9.02221 154.623 10.1449 154.623 10.6166Z" fill="#8C4D37"/>
<path d="M102.48 136.471C99.4593 138.394 96.2961 140.431 92.6978 141.009C89.2823 141.554 85.5303 140.669 83.4605 137.711C82.6926 136.613 82.2099 135.37 81.9064 134.072L82.6926 128.067C83.7458 120.015 84.8465 111.963 85.8485 103.907C86.3458 99.895 86.6786 95.8834 86.7042 91.8719C86.7151 90.069 86.6932 88.2626 86.5725 86.4744C86.4701 85.0226 86.1959 83.5672 85.1829 82.4994C85.1683 82.4847 85.1537 82.4701 85.139 82.4555C87.2125 76.8751 90.3208 71.6129 94.3141 67.0053C94.4055 66.8992 94.3909 66.7529 94.2519 66.7054C92.727 66.1788 91.0302 66.2227 89.4614 66.848C87.6696 67.5611 86.4957 68.9434 85.4608 70.5012C83.4386 73.5437 81.559 76.674 79.7964 79.8628C78.564 79.4605 77.317 79.0985 76.0591 78.773C72.4351 77.8478 68.7088 77.2408 64.9349 76.9665C63.1687 76.8349 61.3914 76.7874 59.6105 76.802C60.2322 75.2844 60.9124 73.7887 61.662 72.3223C63.1175 69.4736 64.7484 66.5262 67.4435 64.5844C67.5715 64.493 67.4874 64.259 67.3338 64.2773C65.4176 64.5003 63.4466 63.769 61.6876 64.9721C60.0859 66.0691 59.051 68.0109 57.9979 69.5614C55.8952 72.6515 53.8583 75.7854 51.8836 78.9522C49.4006 80.7477 47.4222 83.4392 46.2886 86.1489C44.91 89.4474 44.3359 92.9543 43.7361 96.4027C43.045 100.411 42.3721 104.422 41.7395 108.437C40.4779 116.464 39.3772 124.506 38.5873 132.562C38.2033 136.478 37.8157 140.42 37.684 144.337C37.5963 146.816 37.8632 149.811 40.2987 151.04C40.8582 151.321 41.4652 151.479 42.0979 151.555C42.9499 151.661 43.8385 151.625 44.6979 151.574C46.5227 151.46 48.3109 151.387 50.121 151.533C53.9241 151.844 57.5956 152.773 61.3073 153.464C62.9346 153.771 64.5839 154.035 66.2514 154.177C67.3594 154.28 68.4748 154.324 69.5937 154.294C69.7181 154.294 69.8424 154.291 69.9668 154.283C70.5884 154.261 71.2137 154.21 71.8391 154.133C74.6036 153.793 77.5876 152.748 79.0687 150.173C79.822 148.868 80.1291 147.398 80.3449 145.96C80.3924 145.62 80.44 145.28 80.4875 144.944C81.7345 145.69 83.0985 146.257 84.4991 146.626C87.2308 147.35 90.0941 147.412 92.9025 147.207C94.2921 147.109 95.6817 146.948 97.064 146.754C97.9527 146.63 98.8084 146.447 99.3898 145.708C100.267 144.596 100.567 142.914 101.024 141.605C101.599 139.963 102.173 138.321 102.747 136.679C102.798 136.529 102.608 136.39 102.48 136.471Z" fill="#EEDED4"/>
<path d="M107.354 84.9751C106.371 82.8175 103.895 81.8887 101.661 81.8338C100.081 81.7936 98.5194 82.1264 96.9799 82.4226C95.2575 82.7554 93.5315 82.9857 91.7725 83.015C84.9342 83.132 78.3482 80.894 71.7659 79.3691C68.5771 78.6304 65.3664 78.1002 62.1008 77.8735C58.6524 77.6358 55.1967 77.6467 51.7409 77.5261C48.2815 77.4054 44.8039 77.1531 41.4213 76.3778C38.8286 75.7817 35.691 74.074 33.0873 75.4782C32.2938 75.9061 31.5332 76.7435 31.0797 77.5005C28.6296 81.6217 25.887 85.5382 25.9272 90.358C25.9455 92.5923 26.6586 95.057 28.9075 95.9785C30.085 96.4612 31.4015 96.4466 32.6485 96.3223C34.2868 96.1577 35.9141 95.8688 37.5487 95.6823C51.847 94.0331 66.2769 95.196 80.524 96.794C84.1443 97.1999 87.7646 97.6351 91.3812 98.0629C94.581 98.4396 97.9197 98.8528 101.068 97.9313C103.559 97.1999 105.873 95.6311 106.948 93.203C107.515 91.9231 107.724 90.5152 107.819 89.1256C107.921 87.7433 107.943 86.2659 107.354 84.9751Z" fill="#5C7557"/>
<path d="M84.1992 81.3657C83.8262 81.1061 83.3398 81.1427 82.912 81.1317C82.0087 81.1061 81.1164 80.9964 80.2315 80.8209C78.6846 80.51 77.1817 80.0163 75.6824 79.5336C73.9454 78.9741 72.2047 78.4366 70.3982 78.1477C68.6466 77.8698 66.873 77.7418 65.1104 77.5772L59.2704 77.036C57.4456 76.8678 55.6209 76.6923 53.7888 76.8056C53.9095 76.6667 54.0411 76.5314 54.1801 76.3997C54.3519 76.2388 54.0923 75.9792 53.9204 76.1401C53.6827 76.3668 53.4633 76.6045 53.2695 76.8532C53.2 76.8824 53.1598 76.9446 53.1525 77.0141C50.4025 80.7294 52.0627 86.6901 54.2751 90.2519C55.5953 92.3765 57.4932 94.673 60.0603 95.2106C62.6932 95.7628 65.5968 94.8705 68.109 94.1245C73.2359 92.5996 78.2056 90.0983 81.9795 86.2403C82.7291 85.4724 85.885 82.5396 84.1992 81.3657Z" fill="#EEDED4"/>
<path d="M64.7775 101.866C64.6129 101.716 64.4447 101.57 64.2728 101.424C64.9603 100.305 65.5308 99.1125 65.6807 97.8033C65.8818 96.0407 65.1432 94.2232 63.6256 93.2469C62.1921 92.3253 60.36 92.3509 58.9448 93.2871C57.7088 94.1026 56.9774 95.3678 56.5349 96.7392C56.1729 96.5856 55.8072 96.4576 55.4379 96.3918C53.8252 96.1029 53.145 98.3957 52.5453 99.4855C51.3422 101.672 49.9892 103.833 48.9214 106.086C48.7056 106.54 48.5045 107.073 48.7129 107.567C48.8885 107.98 49.2615 108.145 49.6564 108.28C50.9107 109.063 52.1833 109.82 53.4741 110.536C53.4778 110.54 53.4741 110.54 53.4741 110.54C53.8874 110.767 54.3043 110.994 54.7248 111.217C54.8016 111.257 54.8747 111.297 54.9515 111.334C55.7304 111.751 56.5166 112.149 57.3102 112.533C58.0891 112.91 58.8899 113.385 59.7274 113.616C61.4315 114.08 62.0531 112.284 62.7443 111.07C63.7609 109.279 64.7848 107.468 65.6551 105.6C66.3536 104.1 65.9879 102.97 64.7775 101.866ZM63.0039 100.425C62.1592 99.8036 61.2742 99.2295 60.3819 98.6992C59.6286 98.2568 58.857 97.8472 58.0708 97.4669C58.7876 95.6385 61.1645 93.2213 62.982 95.1923C64.3716 96.6989 63.7755 98.7285 63.0039 100.425Z" fill="#421818"/>
<path d="M97.5067 45.4006C96.5193 45.9528 95.4332 46.2015 94.285 46.1393C94.1606 46.1357 94.0838 46.2637 94.1058 46.3734C94.2301 46.9365 94.6031 47.3095 95.1297 47.5289C95.9379 47.8654 96.9435 48.0409 97.8139 48.1835C97.7553 47.3022 97.6493 46.366 97.5067 45.4006Z" fill="white"/>
<path d="M87.9439 49.1891C87.7355 47.88 87.0663 46.8817 86.3605 45.8468C86.174 45.0167 85.907 44.1939 85.7096 43.3711C85.055 40.6284 86.1923 38.3173 87.8781 36.211C90.138 33.3879 93.6596 29.7749 91.5093 25.8913C91.4801 25.8365 90.9901 25.0612 90.0064 24.1836C89.0556 22.6294 87.2016 22.0041 85.2013 21.8103C84.1006 21.5982 82.8499 21.547 81.4384 21.7481C80.1511 21.9309 78.4544 22.0626 76.9368 22.4429C73.13 23.2182 69.6596 24.8052 67.1657 28.0233C66.5294 28.8424 65.9187 29.7018 65.1251 30.3819C64.1597 31.212 62.9347 31.6509 61.9583 32.4737C60.4444 33.7499 59.4058 35.5856 59.0475 37.5311C58.8975 38.3502 58.8646 39.184 58.9633 40.0104C59.0438 40.6979 59.2705 41.3854 59.2632 42.0765C59.2559 43.0237 58.85 43.7002 58.1442 44.2963C57.3653 44.9545 56.4657 45.4372 55.7124 46.132C54.8494 46.9255 54.1217 47.88 53.5841 48.9222C52.7394 50.5641 52.3993 53.3689 54.8567 53.72C55.4893 53.8114 56.1073 53.7017 56.7071 54.0015C57.2154 54.2575 57.6066 54.6378 58.1771 54.7658C58.338 54.8024 58.4953 54.8207 58.6562 54.828C59.2376 55.0182 59.8995 54.9962 60.4992 54.9633C61.1428 54.9267 61.823 54.839 62.4629 54.9743C63.2382 55.1388 63.677 55.6471 64.178 56.2139C65.2166 57.3988 66.5367 57.7279 67.908 57.6474C68.047 57.8742 68.2225 58.0826 68.4565 58.2508C69.4841 58.9968 70.4312 58.1667 71.51 58.068C73.7114 57.8705 75.4777 59.9183 77.7084 59.6953C77.8217 59.6843 77.9314 59.6624 78.0375 59.6441C79.0687 59.9878 80.0597 59.8671 81.1714 59.688C82.9413 59.4027 84.4224 60.4669 86.1667 60.3901C87.271 60.3425 87.7647 59.5161 87.6989 58.4702C87.5855 56.6674 86.5945 55.2485 87.1613 53.3872C87.6075 51.9501 88.1926 50.736 87.9439 49.1891Z" fill="#421818"/>
<path d="M86.5871 39.5204C86.7151 39.5606 86.8431 39.6082 86.9711 39.6667C87.1832 39.7654 87.3697 39.4509 87.1539 39.3522C85.523 38.5806 83.5629 39.1767 82.8608 40.9064C82.1075 42.7567 83.3654 44.6327 84.8026 45.7151C85.2121 46.0223 85.6473 46.2966 86.0898 46.5525C86.4152 46.7427 86.9162 47.1486 87.3221 47.1413C87.9255 47.1303 88.0279 46.4355 88.0937 45.9674C88.4009 43.7185 87.8085 41.422 86.5871 39.5204Z" fill="#8C4D37"/>
<path d="M87.6329 43.4113C87.0222 43.3089 86.6199 43.0785 86.5175 42.4349C86.4663 42.1058 86.4737 41.7621 86.3676 41.4402C86.1957 40.9137 85.7606 40.5663 85.2194 40.4785C84.989 40.4419 84.8902 40.793 85.1206 40.8296C86.2323 41.0161 85.969 42.018 86.2177 42.8189C86.4115 43.4369 86.9308 43.66 87.5305 43.7624C87.7645 43.8026 87.8633 43.4515 87.6329 43.4113Z" fill="#5C3632"/>
<path d="M75.0424 96.0882C74.94 96.0846 74.8522 96.0663 74.7645 96.0334C74.1245 104.671 73.4699 113.308 72.585 121.924C72.0986 126.681 71.5428 131.435 70.8772 136.171C70.2665 140.526 69.2353 144.922 69.1 149.328C69.0488 150.981 69.1878 152.682 69.59 154.294C69.7144 154.294 69.8387 154.291 69.963 154.283C69.5681 152.737 69.4218 151.102 69.462 149.504C69.5681 144.958 70.6542 140.409 71.2795 135.911C72.5045 127.098 73.3712 118.241 74.0989 109.377C74.4683 104.945 74.7974 100.509 75.1265 96.07C75.1009 96.0809 75.0753 96.0882 75.0424 96.0882Z" fill="#421818"/>
<path d="M173.126 34.3642C172.3 32.4188 170.691 30.8975 169.612 29.0874C168.46 27.1529 167.601 25.0685 166.913 22.9293C168.234 20.0623 169.777 17.3123 171.28 14.5404C172.022 13.1728 172.816 11.8015 173.43 10.368C173.861 9.35868 174.117 8.33476 173.814 7.25233C173.774 7.10971 173.602 7.09508 173.507 7.18285C172.106 8.46275 171.748 10.5947 170.881 12.2256C169.81 14.2442 168.409 16.069 166.873 17.7548C164.964 19.8502 160.375 23.0609 162.628 26.3813C162.653 26.4179 162.686 26.4398 162.723 26.4508C162.997 27.0066 163.366 27.5076 163.75 28.0159C164.452 28.9448 165.14 29.8846 165.802 30.8427C167.155 32.8064 168.402 34.836 169.557 36.924C169.601 37.0045 169.733 37.0374 169.81 36.9825C170.892 36.1817 171.975 35.3808 173.053 34.5763C173.108 34.5325 173.159 34.4447 173.126 34.3642Z" fill="#F7A37A"/>
<path d="M218.892 167.854C212.65 169.075 206.411 170.322 200.176 171.595C200.271 170.834 200.363 170.074 200.458 169.313C200.487 169.079 200.129 169.01 200.099 169.244C199.997 170.052 199.898 170.864 199.8 171.672C199.065 171.822 198.33 171.968 197.591 172.118C197.364 172.165 197.386 172.531 197.616 172.484C198.326 172.337 199.039 172.195 199.748 172.052C197.898 187.005 196.267 201.983 194.863 216.984C193.382 232.803 192.149 248.645 191.158 264.505C190.603 273.413 190.124 282.321 189.718 291.236C189.714 291.331 189.824 291.419 189.915 291.404C191.089 291.236 192.27 291.097 193.437 290.9C194.036 290.797 194.57 290.673 194.896 290.103C195.294 289.404 195.214 288.413 195.294 287.638C195.397 286.625 195.525 285.616 195.671 284.61C196.263 280.573 197.189 276.591 198.267 272.656C200.436 264.746 203.226 257.015 205.296 249.076C206.312 245.167 207.154 241.203 207.625 237.192C208.108 233.114 208.108 229.062 207.793 224.97C207.607 222.55 206.81 219.964 207.695 217.693C218.307 190.461 218.029 178.236 219.082 168.07C219.097 167.967 219.02 167.832 218.892 167.854Z" fill="#F7A37A"/>
<path d="M302.66 259.667C302.206 259.001 301.281 258.639 300.619 258.229C299.756 257.692 298.904 257.136 298.063 256.562C294.695 254.258 291.521 251.68 288.46 248.985C282.302 243.565 276.583 237.667 270.355 232.324C268.669 230.876 266.939 229.476 265.166 228.141C263.312 229.732 261.37 231.227 259.406 232.686C257.282 234.262 254.941 235.729 252.466 236.95C260.939 241.978 269.452 246.933 278.016 251.801C285.776 256.207 293.572 260.548 301.405 264.823C301.489 264.867 301.614 264.808 301.643 264.72C302.005 263.594 302.4 262.468 302.733 261.33C302.905 260.738 303.029 260.204 302.66 259.667Z" fill="#F7A37A"/>
<path d="M276.429 223.098C272.363 220.952 271.492 216.004 270.245 211.996C269.598 209.911 268.834 207.827 267.536 206.054C266.073 204.053 264.135 202.488 262.445 200.693C261.546 199.738 260.719 198.707 260.109 197.544C259.425 196.235 259.041 194.805 258.511 193.434C258.072 192.304 257.527 191.24 256.733 190.314C255.889 189.327 254.865 188.519 253.969 187.579C251.771 185.268 251.435 182.258 251.233 179.212C251.014 175.87 250.802 172.531 250.586 169.189C250.096 161.593 249.602 154.002 249.112 146.407C249.105 146.282 249.003 146.209 248.882 146.231C238.588 148.155 228.356 150.414 218.208 153C217.781 150.802 217.353 148.608 216.925 146.41C216.881 146.18 216.526 146.279 216.574 146.509C217.002 148.703 217.426 150.897 217.85 153.095C216.885 153.34 215.919 153.589 214.954 153.841C214.727 153.899 214.822 154.254 215.053 154.192C216.007 153.943 216.965 153.698 217.919 153.453C220.293 165.722 222.648 177.998 225.091 190.252C226.385 196.75 227.866 203.282 230.62 209.345C233.41 215.495 237.688 220.681 242.084 225.738C247.551 232.032 253.025 238.314 258.5 244.604C258.584 244.699 258.726 244.659 258.788 244.567C264.01 236.972 269.935 229.882 276.473 223.387C276.546 223.307 276.535 223.153 276.429 223.098Z" fill="#B5D4E8"/>
<path d="M233.176 149.895C224.447 146.542 215.323 150.21 206.342 150.356C206.093 150.455 205.848 150.55 205.614 150.638C204.605 151.022 203.566 151.321 202.531 151.625C201.924 151.903 201.306 152.148 200.666 152.327C199.039 157.458 197.492 162.614 196.3 167.865C194.761 174.63 194.018 181.41 194.036 188.347C194.044 191.997 194.095 195.664 193.565 199.285C193.082 202.583 192.182 205.798 191.272 209.001C190.361 212.201 189.429 215.404 188.884 218.692C188.354 221.888 188.292 225.117 188.431 228.346C188.756 235.857 190.061 243.609 187.538 250.894C187.502 251 187.6 251.135 187.714 251.124C196.626 250.301 205.585 250.093 214.526 250.495C214.625 250.499 214.705 250.407 214.709 250.312C214.873 243.591 216.065 236.914 218.281 230.565C220.355 224.627 223.328 218.918 224.176 212.618C224.626 209.272 224.498 205.893 224.637 202.528C224.78 199.124 225.383 195.807 226.206 192.505C227.021 189.239 227.932 186.003 228.663 182.715C229.406 179.377 230.024 176.012 230.561 172.634C231.75 165.152 232.529 157.611 233.307 150.078C233.318 149.987 233.245 149.924 233.176 149.895Z" fill="#B5D4E8"/>
<path d="M299.376 257.593C298.893 257.813 298.641 258.372 298.586 258.869C298.538 259.29 298.641 259.71 298.655 260.131C298.677 260.954 298.352 261.528 297.887 262.117C297.851 262.113 297.811 262.117 297.77 262.139C296.531 262.885 297.657 264.252 298.359 264.918C299.076 265.602 299.804 266.22 300.301 267.094C300.853 268.055 301.157 269.142 301.369 270.224C301.716 272.001 301.526 275.245 302.173 276.953C302.4 277.556 302.736 278.097 303.237 278.51C303.746 278.927 304.653 279.52 305.314 279.571C305.713 279.604 305.845 279.37 305.973 279.026C306.338 278.053 306.496 276.934 306.719 275.918C307.187 273.797 307.819 270.301 308.13 268.151C308.28 267.116 308.419 266.077 308.525 265.039C308.598 264.307 308.653 263.532 308.383 262.833C307.805 261.356 305.911 260.691 304.631 259.996L301.259 258.164C300.721 257.871 300.027 257.297 299.376 257.593Z" fill="#421818"/>
<path d="M195.108 288.662C194.764 288.26 194.157 288.175 193.663 288.26C193.246 288.333 192.87 288.548 192.471 288.676C191.685 288.929 191.045 288.775 190.35 288.494C190.343 288.457 190.328 288.417 190.295 288.388C189.235 287.407 188.233 288.87 187.79 289.73C187.333 290.611 186.942 291.478 186.244 292.202C185.472 292.999 184.518 293.595 183.534 294.1C181.925 294.93 178.758 295.654 177.299 296.751C176.783 297.138 176.355 297.61 176.103 298.206C175.844 298.81 175.529 299.844 175.664 300.495C175.745 300.887 176.004 300.949 176.374 300.978C177.412 301.055 178.531 300.898 179.566 300.828C181.735 300.686 185.267 300.316 187.421 300.016C188.456 299.87 189.491 299.716 190.522 299.526C191.243 299.391 192.007 299.23 192.599 298.773C193.857 297.808 193.967 295.8 194.278 294.377L195.097 290.629C195.218 290.033 195.572 289.203 195.108 288.662Z" fill="#421818"/>
<path d="M237.783 42.764C237.74 43.2138 237.685 43.6599 237.626 44.0951C237.111 47.8763 235.864 51.5258 234.419 55.0474C233.713 56.7734 232.916 58.4373 231.845 59.9732C230.755 61.531 229.49 62.9754 228.239 64.4089C226.195 66.7383 224.681 67.7001 221.737 68.1974C218.047 68.8227 210.028 67.2869 208.082 65.1147C207.091 64.014 206.846 61.8162 207.048 59.1175C207.113 58.2398 207.227 57.3037 207.373 56.3382C207.453 55.8153 207.549 55.2851 207.647 54.7512C206.74 54.1112 205.94 53.2811 205.972 52.1036C206.009 50.6811 209.362 47.0096 209.582 45.9418C209.6 45.8577 209.615 45.7699 209.633 45.6822C209.743 45.108 209.838 44.5266 209.984 43.9415C210.024 43.766 210.072 43.5868 210.13 43.4113C210.141 43.3674 210.156 43.3235 210.17 43.2796C210.547 42.1058 211.118 41.0087 211.75 39.9482C211.765 39.9043 211.783 39.8531 211.798 39.8093C211.812 39.8056 211.823 39.8056 211.838 39.802C212.149 39.29 212.471 38.7817 212.792 38.2807C212.917 38.0796 213.231 38.2697 213.107 38.4672C213.1 38.4782 213.092 38.4891 213.085 38.5001C213.103 38.5221 213.118 38.5477 213.122 38.5806C213.173 38.8987 213.206 39.2169 213.231 39.5313C216.628 38.8695 220.022 38.2003 223.445 37.6664C223.986 37.5822 224.531 37.4981 225.072 37.4177C225.383 37.3957 225.69 37.3701 225.994 37.3482C226.133 37.4031 226.275 37.4506 226.425 37.4945C228.667 38.1491 230.861 38.8841 232.971 39.908C234.649 40.7235 236.185 41.8096 237.783 42.764Z" fill="#F7A37A"/>
<path d="M211.253 49.1635C211.107 49.9826 210.639 50.586 210.203 50.5092C209.768 50.4324 209.534 49.7047 209.677 48.8856C209.823 48.0664 210.291 47.4631 210.726 47.5399C211.161 47.613 211.396 48.3407 211.253 49.1635Z" fill="#421818"/>
<path d="M213.096 44.7387C212.299 44.0329 211.231 43.5758 210.13 43.4113C210.072 43.5868 210.024 43.766 209.984 43.9415C209.838 44.5266 209.743 45.108 209.633 45.6822C209.706 45.6895 209.775 45.7041 209.849 45.7187C210.898 45.9418 211.757 46.6659 212.792 46.867C213.231 46.9511 213.926 46.9145 214.043 46.3623C214.171 45.7699 213.483 45.0824 213.096 44.7387Z" fill="#A67A6F"/>
<path d="M230.173 62.9169C226.045 63.023 221.916 63.1254 217.784 63.2278C217.832 62.5695 217.879 61.9113 217.923 61.253C217.941 61.0117 217.587 60.9386 217.568 61.1799C217.521 61.8674 217.47 62.5512 217.422 63.2387L216.332 63.268C216.102 63.2753 216.135 63.6519 216.365 63.6446C216.709 63.6373 217.053 63.6263 217.393 63.619C216.939 70.0002 216.486 76.3815 216.032 82.759C216.025 82.8797 216.102 82.9931 216.226 82.9857C218.962 82.7846 221.697 82.5798 224.436 82.3787C225.09 82.3312 225.745 82.2873 226.4 82.2324C226.721 82.2068 227.102 82.2032 227.365 81.9801C227.983 81.4535 228.038 80.0018 228.202 79.2521C229.358 73.9679 230.075 68.5777 230.36 63.1473C230.375 63.0157 230.301 62.9133 230.173 62.9169Z" fill="#F7A37A"/>
<path d="M210.591 57.0989C210.412 57.1062 210.236 57.1099 210.061 57.0989C209.106 57.066 208.203 56.81 207.373 56.3383C207.314 56.7149 207.263 57.0843 207.219 57.4499C207.146 58.0241 207.088 58.5799 207.047 59.1175C207.921 58.9822 208.927 58.8139 209.735 58.4812C210.265 58.2654 210.642 57.8961 210.77 57.3329C210.792 57.2232 210.715 57.0952 210.591 57.0989Z" fill="#D38262"/>
<path d="M219.184 54.3928C219.013 55.0949 218.79 55.8007 218.61 56.5065C218.53 58.3312 218.541 60.1487 219.601 61.776C221.883 65.2756 230.031 67.3234 232.715 63.3448C233.951 61.5164 234.269 59.2089 235.542 57.4207C237.03 55.3326 239.297 54.0893 240.051 51.4637C240.676 49.2915 239.769 47.1522 240.109 44.9435C240.332 43.4917 240.263 42.4495 239.659 41.3378C238.972 40.6869 238.412 39.9153 237.842 39.1693C235.37 35.933 231.91 34.3277 228.107 33.5231C226.593 33.1319 224.897 32.9893 223.613 32.7991C222.205 32.587 220.954 32.6345 219.85 32.8357C217.85 33.0148 215.988 33.6292 215.027 35.176C214.036 36.0464 213.542 36.818 213.513 36.8728C211.337 40.7454 214.833 44.3803 217.074 47.2181C218.735 49.339 219.854 51.6538 219.184 54.3928Z" fill="#A67A6F"/>
<path d="M216.789 56.9782C216.852 57.4463 216.947 58.1411 217.554 58.1557C217.96 58.1667 218.464 57.7608 218.79 57.5743C219.236 57.3183 219.671 57.0514 220.084 56.7442C221.525 55.6727 222.798 53.8041 222.059 51.9464C221.368 50.2094 219.411 49.6024 217.777 50.363C217.565 50.4617 217.747 50.7799 217.96 50.6811C218.088 50.6226 218.216 50.5751 218.344 50.5348C217.1 52.4254 216.493 54.7219 216.789 56.9782Z" fill="#F7A37A"/>
<path d="M217.265 54.4184C217.879 54.3197 218.281 54.093 218.388 53.4493C218.442 53.1202 218.435 52.7765 218.545 52.4583C218.72 51.9317 219.155 51.5917 219.697 51.5039C219.927 51.4673 220.022 51.8184 219.792 51.8586C218.68 52.0378 218.936 53.0398 218.68 53.8406C218.483 54.4586 217.96 54.678 217.36 54.7731C217.13 54.8097 217.031 54.455 217.265 54.4184Z" fill="#D38262"/>
<path d="M207.373 56.3383C207.314 56.7149 207.263 57.0843 207.219 57.4499C207.698 57.7132 208.225 57.8705 208.781 57.7937C209.146 57.7425 209.801 57.4938 210.061 57.0989C209.106 57.066 208.203 56.81 207.373 56.3383Z" fill="white"/>
<path d="M294.497 56.554C292.709 54.0966 290.921 51.6392 289.133 49.1818C289.096 49.1343 289.041 49.0831 288.976 49.0904C277.676 50.5824 270.34 60.2694 260.964 65.6596C255.775 68.6436 249.935 69.5615 244.333 71.4447C240.475 72.7429 237.004 74.7725 233.582 76.9117C232.053 76.5534 230.477 76.4071 228.897 76.4949C228.736 76.5022 228.689 76.6777 228.747 76.7837C225.427 76.1913 222.081 75.7342 218.72 75.4307C216.819 75.2588 214.924 75.1638 213.063 74.9334C210.916 74.2276 208.514 73.9826 206.517 73.0135C202.345 70.9876 201.273 65.9412 198.805 62.405C196.315 58.8323 192.877 56.0896 189.875 52.974C188.31 51.3503 186.847 49.606 185.75 47.624C184.455 45.2873 183.772 42.6909 183.175 40.1018C182.045 35.1834 181.04 29.7566 176.973 26.3265C176.93 26.2899 176.878 26.2753 176.831 26.2826C176.805 26.2826 176.776 26.2899 176.747 26.3045C173.467 28.1805 169.886 30.5794 166.943 32.949C166.881 32.9966 166.873 33.1063 166.913 33.1721C168.398 35.5088 169.513 38.0577 170.168 40.7491C170.877 43.6526 170.91 46.622 171.042 49.5914C171.166 52.3304 171.474 55.0255 172.476 57.5962C173.452 60.1012 174.856 62.3977 176.143 64.7454C178.901 69.7772 181.036 75.076 182.729 80.554C183.457 82.9126 184.181 85.2859 185.249 87.5166C186.35 89.8277 187.856 91.7915 189.729 93.5285C191.853 95.4995 194.168 97.2365 196.073 99.4343C197.061 100.572 197.945 101.793 198.732 103.073C201.335 109.249 200.092 116.08 199.214 122.498C198.779 125.68 198.436 128.865 198.512 132.079C198.56 134.043 198.721 136.003 198.911 137.956C198.973 138.084 199.013 138.237 199.006 138.413C199.002 138.57 199.002 138.731 198.999 138.888C199.127 140.153 199.258 141.419 199.372 142.684C199.69 146.191 199.854 149.723 199.412 153.216C199.445 153.771 199.474 154.324 199.507 154.88C199.525 154.858 199.54 154.836 199.544 154.799C199.555 154.744 199.558 154.693 199.569 154.642C201.295 155.545 203.606 155.282 205.482 154.96C209.468 154.269 213.469 153.53 217.334 152.327C221.031 151.179 224.293 149.383 227.683 147.562C229.362 146.663 231.102 145.825 232.964 145.383C234.957 144.907 236.975 144.999 238.972 145.408C242.991 146.235 246.808 148.092 250.985 147.997C251.087 147.994 251.164 147.917 251.167 147.814C251.701 135.886 247.741 124.411 246.936 112.595C246.556 107.033 247.269 101.486 247.079 95.9237C247.035 94.706 246.94 93.4846 246.764 92.2742C248.586 91.4002 250.487 90.7054 252.319 89.8497C254.532 88.8185 256.488 87.4544 258.247 85.765C261.71 82.4336 264.372 78.2721 268.289 75.4197C272.337 72.4723 277.475 71.357 281.263 68.011C285.502 64.2663 288.142 57.673 294.369 56.832C294.501 56.81 294.56 56.6418 294.497 56.554Z" fill="#DE6B45"/>
<path d="M261.516 104.909C261.513 104.784 261.502 104.66 261.491 104.536C261.337 102.451 261.14 100.37 260.898 98.2933C260.555 95.335 260.185 92.0365 258.189 89.6741C256.203 87.3228 253.087 86.8108 250.173 86.745C246.202 86.6499 242.208 86.8437 238.233 86.9096C234.013 86.9754 229.793 87.0449 225.573 87.1143C222.516 87.1655 218.622 86.734 216.098 88.844C214.255 90.3872 213.805 92.7788 213.915 95.0717C213.926 95.324 213.944 95.5763 213.97 95.825C213.977 95.9091 213.985 95.9932 213.996 96.0773C214.032 96.3881 214.076 96.6953 214.127 97.0025C213.517 103.775 213.038 110.558 212.708 117.349C212.507 121.503 212.328 125.669 212.222 129.834C208.92 134.588 204.276 138.343 198.886 140.53C198.805 140.563 198.754 140.618 198.75 140.706C198.67 142.464 198.586 144.223 198.505 145.982C198.502 146.096 198.626 146.194 198.736 146.158C204.027 144.359 208.686 141.031 212.116 136.657C212.109 138.493 212.112 140.325 212.145 142.161C212.204 145.657 212.54 149.343 214.394 152.397C216.029 155.095 218.501 156.551 221.631 156.781C225.712 157.085 229.837 157.092 233.929 157.238C238.043 157.384 242.179 157.549 246.282 157.128C249.624 156.785 253.098 156.13 256.017 154.386C258.734 152.759 260.386 150.213 261.023 147.131C261.761 143.569 261.615 139.784 261.732 136.164C261.875 131.929 261.992 127.691 262.028 123.456C262.08 117.272 261.97 111.078 261.516 104.909Z" fill="#782C2C"/>
<path d="M226.692 92.3948C225.749 89.8753 224.758 87.3703 223.697 84.8946C222.706 82.5798 221.609 80.2797 220.048 78.2867C218.673 76.5314 216.91 75.0211 214.829 74.1727C214.08 73.8655 213.085 73.4633 212.259 73.5547C211.842 73.6023 211.439 73.818 211.388 74.1727C211.381 74.202 211.377 74.2349 211.388 74.2641C211.392 74.3483 211.407 74.4324 211.447 74.5274C211.494 74.6335 211.593 74.6408 211.674 74.5969C216.53 79.6763 219.66 86.2513 220.519 93.2323C220.534 93.3493 220.625 93.4407 220.75 93.4078C222.64 92.9141 224.564 92.6508 226.517 92.6216C226.626 92.6252 226.736 92.5082 226.692 92.3948Z" fill="#782C2C"/>
<path d="M244 94.1026C243.057 91.583 242.066 89.0781 241.005 86.6024C240.014 84.2876 238.917 81.9874 237.356 79.9944C235.981 78.2392 234.218 76.7289 232.137 75.8805C231.388 75.5733 230.393 75.1711 229.566 75.2625C229.15 75.31 228.747 75.5258 228.696 75.8805C228.689 75.9097 228.685 75.9427 228.696 75.9719C228.7 76.056 228.714 76.1401 228.755 76.2352C228.802 76.3412 228.901 76.3486 228.981 76.3047C233.838 81.3841 236.972 87.9591 237.827 94.94C237.842 95.057 237.933 95.1485 238.058 95.1155C239.948 94.6219 241.872 94.3586 243.825 94.3293C243.934 94.333 244.044 94.216 244 94.1026Z" fill="#782C2C"/>
<path d="M268.556 141.609C268.6 139.29 268.709 136.965 268.68 134.646C268.662 133.235 268.238 131.878 266.618 131.264C264.756 130.554 262.489 130.96 260.533 131.008C257.947 131.073 255.358 130.964 252.78 130.788C246.925 130.393 241.104 129.717 235.216 129.867C229.416 130.013 223.657 130.803 218.08 132.178C217.959 132.207 217.934 132.306 217.967 132.383C216.921 132.982 216.522 134.196 216.343 135.301C215.985 137.487 215.992 139.711 216.124 141.912C216.252 144.059 216.343 146.282 216.804 148.396C217.133 149.913 217.89 151.486 219.444 152.371C221.287 153.42 223.606 153.022 225.654 152.795C228.327 152.502 231.014 152.323 233.71 152.214C239.107 151.998 244.508 152.075 249.909 152.104C252.55 152.119 255.194 152.122 257.834 152.075C260.141 152.034 262.61 152.082 264.771 151.27C266.526 150.608 267.828 149.42 268.249 147.792C268.753 145.818 268.519 143.624 268.556 141.609Z" fill="#421818"/>
<path d="M232.331 126.978C232.302 126.89 232.203 126.817 232.108 126.85C231.373 127.109 230.641 127.369 229.906 127.629C229.895 127.559 229.888 127.49 229.877 127.42C229.844 127.19 229.49 127.289 229.526 127.519C229.537 127.596 229.548 127.676 229.559 127.753C229.208 127.877 228.857 128.002 228.51 128.122C228.29 128.199 228.385 128.554 228.608 128.473C228.945 128.356 229.277 128.236 229.61 128.119C230.766 136.496 230.791 144.995 229.687 153.38C229.672 153.479 229.782 153.563 229.87 153.563C230.63 153.563 231.391 153.567 232.152 153.567C232.258 153.567 232.327 153.483 232.335 153.384C232.73 148.838 233.004 144.282 233.157 139.722C233.293 135.513 233.673 131.044 232.331 126.978Z" fill="#782C2C"/>
<path d="M253.906 126.978C253.877 126.89 253.778 126.817 253.683 126.85C252.948 127.109 252.217 127.369 251.482 127.629C251.471 127.559 251.464 127.49 251.453 127.42C251.42 127.19 251.065 127.289 251.102 127.519C251.113 127.596 251.124 127.676 251.135 127.753C250.783 127.877 250.432 128.002 250.085 128.122C249.866 128.199 249.961 128.554 250.184 128.473C250.52 128.356 250.853 128.236 251.186 128.119C252.341 136.496 252.367 144.995 251.262 153.38C251.248 153.479 251.358 153.563 251.445 153.563C252.206 153.563 252.967 153.567 253.727 153.567C253.833 153.567 253.903 153.483 253.91 153.384C254.305 148.838 254.579 144.282 254.733 139.722C254.868 135.513 255.248 131.044 253.906 126.978Z" fill="#782C2C"/>
<path d="M255.676 106.006C257.677 105.965 259.699 105.684 261.516 104.909C261.513 104.784 261.502 104.66 261.491 104.536C257.973 106.101 253.727 105.578 249.942 105.475C244.878 105.333 239.809 105.592 234.766 106.031C232.298 106.247 229.833 106.507 227.372 106.785C226.235 106.912 225.094 107.048 223.953 107.179C223.661 107.216 222.381 107.567 222.154 107.395C221.858 107.168 222.132 106.152 222.169 105.735C222.52 101.91 222.706 97.1743 220.241 93.9307C219.13 92.4606 217.393 92.0839 215.787 93.0091C214.928 93.5028 214.339 94.2342 213.915 95.0716C213.926 95.3239 213.944 95.5762 213.97 95.8249C214.376 94.8046 214.983 93.8977 215.97 93.3236C218.329 91.9633 220.055 93.8539 220.918 95.92C222.457 99.6061 222.026 103.753 221.613 107.618C221.602 107.71 221.704 107.812 221.796 107.801C224.213 107.516 226.63 107.231 229.051 106.967C228.824 109.14 228.597 111.312 228.371 113.488C228.166 115.462 227.848 117.338 228.605 119.232C228.959 120.117 229.365 120.955 229.504 121.906C229.629 122.754 229.585 123.643 229.914 124.451C230.587 126.1 232.755 126.254 234.258 126.689C234.335 126.711 234.423 126.674 234.463 126.605C235.03 125.65 234.851 124.484 233.966 123.793C233.183 123.178 232.514 122.834 232.229 121.796C231.962 120.812 232.17 119.766 232.269 118.775C232.466 116.845 232.119 114.925 232.123 112.99C232.126 110.84 232.441 108.708 232.759 106.587C236.672 106.21 240.588 105.925 244.519 105.837C246.3 105.797 248.081 105.848 249.858 105.911C249.58 109.311 249.065 112.76 249.58 116.15C249.73 117.126 249.844 118.081 249.796 119.068C249.756 119.88 249.668 120.681 249.759 121.492C249.902 122.754 250.374 123.972 251.094 125.018C251.826 126.074 254.66 129.026 255.131 126.228C255.373 124.791 254.001 123.964 253.493 122.765C252.879 121.313 252.875 119.693 252.846 118.146C252.769 114.098 252.861 110.05 253.098 106.006C253.958 106.017 254.817 106.02 255.676 106.006Z" fill="#421818"/>
<path d="M284.43 73.2878C283.172 69.6492 281.179 66.0216 277.888 63.8604C274.337 61.531 269.96 62.0722 266.131 60.5546C261.736 58.814 260.836 54.1039 258.379 50.5787C255.889 46.9987 252.052 44.6363 248.11 42.9432C245.558 41.8498 242.91 40.9941 240.285 40.0872C237.824 39.2352 234.968 38.427 233.476 36.1122C233.348 35.9147 233.033 36.0976 233.161 36.2951C233.871 37.3958 234.869 38.16 235.984 38.7598C235.944 40.1384 235.75 41.6194 235.904 42.9871C236.006 43.9086 236.591 44.4133 237.367 44.8338C239.718 46.1064 241.715 47.6715 243.133 49.979C244.523 52.2389 245.251 54.8426 246.732 57.0477C247.924 58.8249 249.507 60.2877 251.01 61.7979C252.572 63.3631 254.155 65.0416 254.93 67.1552C255.592 68.9581 255.172 71.5106 256.88 72.7795C257.651 73.3536 258.635 73.4779 259.571 73.5438C260.807 73.6279 262.006 73.6571 263.184 74.085C265.623 74.9663 267.572 76.7764 269.591 78.3342C270.399 78.9596 271.203 79.6726 272.289 79.5373C273.639 79.3655 275.047 78.6816 276.29 78.1551C279.157 76.9373 281.852 75.3649 284.343 73.4962C284.408 73.445 284.46 73.3682 284.43 73.2878Z" fill="#A67A6F"/>
<path d="M237.794 169.298C235.172 174.085 232.551 178.872 229.929 183.659C229.815 183.864 230.13 184.05 230.243 183.842C232.865 179.055 235.487 174.268 238.109 169.481C238.226 169.277 237.908 169.094 237.794 169.298Z" fill="#421818"/>
<path d="M107.852 82.3531C105.921 80.6673 103.573 82.4043 102.22 83.9512C100.567 85.8418 99.4411 88.226 99.101 90.72C98.9766 91.6269 98.973 92.6837 99.6897 93.3603C100.348 93.9856 101.361 93.9966 102.176 93.7186C103.16 93.3822 103.954 92.6362 104.531 91.7915C105.124 90.9321 105.837 89.6156 105.76 88.5369C105.702 87.7287 104.981 87.0632 104.173 87.4837C103.058 88.0615 102.513 89.7948 102.293 90.9248C102.25 91.1552 102.601 91.2539 102.644 91.0235C102.754 90.4457 102.915 89.8899 103.171 89.356C103.277 89.1293 103.401 88.9099 103.537 88.7014C103.61 88.5807 103.69 88.4637 103.782 88.3577C104.118 87.7653 104.659 87.8786 105.402 88.6905C105.493 89.1878 105.036 90.0837 104.828 90.5262C104.634 90.9431 104.403 91.349 104.133 91.722C103.5 92.596 102.582 93.3603 101.485 93.4992C99.9713 93.6894 99.2948 92.4936 99.4155 91.1296C99.5983 89.0744 100.425 87.0412 101.588 85.3481C102.754 83.6513 105.402 80.7075 107.585 82.6128C107.771 82.7664 108.031 82.5067 107.852 82.3531Z" fill="#421818"/>
<path d="M81.9356 50.1253C81.0982 52.3852 81.0434 54.7987 81.7784 57.0952C81.8478 57.3183 82.2026 57.2232 82.1294 56.9965C81.4163 54.7548 81.4712 52.4254 82.2867 50.2203C82.3708 50.0009 82.0161 49.9058 81.9356 50.1253Z" fill="#782C2C"/>
<path d="M79.0357 57.2305C78.3007 56.2505 77.9972 55.0803 78.1983 53.8662C78.2349 53.6358 77.8838 53.5371 77.8473 53.7675C77.6279 55.073 77.9241 56.3529 78.7212 57.4134C78.8602 57.5999 79.1784 57.417 79.0357 57.2305Z" fill="#782C2C"/>
<path d="M87.929 28.1622C86.5431 30.3051 85.1133 32.4224 83.6505 34.5105C83.5152 34.7043 83.8334 34.8872 83.965 34.6933C85.4314 32.6053 86.8576 30.488 88.2435 28.345C88.3715 28.1476 88.0534 27.9647 87.929 28.1622Z" fill="#782C2C"/>
<path d="M80.3411 33.1867C79.2221 35.2931 78.8272 37.6225 79.1819 39.9812C79.2185 40.2115 79.5695 40.1128 79.533 39.8824C79.1929 37.6298 79.5841 35.3808 80.6556 33.3696C80.7653 33.1648 80.4508 32.9783 80.3411 33.1867Z" fill="#782C2C"/>
<path d="M67.4582 130.744C67.396 133.249 66.5074 135.703 66.1052 138.164C65.4835 141.949 65.3409 145.796 65.6554 149.606C65.6627 149.694 65.67 149.782 65.6773 149.87C64.4194 150.06 63.2053 150.232 61.9766 150.294C60.8868 150.356 59.7825 150.327 58.6269 150.155C56.0232 149.764 53.478 149.244 50.8341 149.2C48.6108 149.16 46.2411 149.237 44.1787 148.268C42.5331 147.493 41.5567 146.213 41.0886 144.677C41.2056 142.582 41.4177 140.486 41.7213 138.409C42.0321 136.317 42.4051 134.215 42.9207 132.159C42.95 132.042 42.9792 131.922 43.0085 131.805C43.1072 131.432 43.2096 131.059 43.3156 130.686C43.5533 129.859 43.8605 128.627 44.5955 128.078C45.2574 127.588 46.2631 127.665 47.0347 127.618C52.3737 127.285 57.7456 127.486 63.048 128.21C63.7538 128.305 64.4559 128.411 65.158 128.525C65.659 128.609 66.2588 128.627 66.7268 128.839C66.8804 128.909 67.0048 128.993 67.0998 129.095C67.1876 129.186 67.2571 129.293 67.3083 129.402C67.4838 129.79 67.4728 130.28 67.4582 130.744Z" fill="#A67A6F"/>
<path d="M65.6553 149.606C65.6626 149.694 65.6699 149.782 65.6773 149.87C64.4193 150.06 63.2052 150.232 61.9765 150.294C61.6181 150.265 61.2707 150.195 60.9745 150.045C59.6727 149.383 60.0567 147.39 60.1188 146.238C60.3346 142.011 60.8465 137.809 61.6218 133.651C60.3163 133.988 58.9121 133.937 57.5737 133.809C52.6808 133.341 47.8026 132.715 42.9207 132.159C42.9499 132.042 42.9792 131.922 43.0084 131.805C47.5612 132.32 52.114 132.84 56.6704 133.348C58.7365 133.578 61.0075 133.823 62.8944 132.759C63.8598 132.214 64.646 131.402 65.4432 130.649C65.9954 130.13 66.5476 129.611 67.0998 129.095C67.1875 129.186 67.257 129.292 67.3082 129.402C66.6902 129.984 66.0685 130.565 65.4505 131.146C64.7082 131.841 63.9732 132.573 63.0809 133.074C62.7371 133.267 62.3788 133.417 62.0131 133.538C61.3549 137.03 60.8831 140.552 60.6162 144.095C60.5577 144.925 60.5065 145.759 60.4662 146.593C60.4297 147.328 60.298 148.176 60.5138 148.897C61.0038 150.539 64.0865 149.983 65.6553 149.606Z" fill="#421818"/>
<path d="M60.393 108.17C59.9469 107.066 58.2977 107.889 57.6248 108.229C57.1823 108.448 56.7655 108.708 56.3742 109.001C56.7728 108.543 57.164 108.083 57.5078 107.578C57.8881 107.022 58.7072 105.702 57.7455 105.219C56.8203 104.751 55.9427 106.327 55.6062 106.938C55.0504 107.958 54.6628 109.052 54.3373 110.163C54.3739 109.001 54.3995 107.838 54.3885 106.675C54.3848 106.159 54.33 105.289 53.5767 105.676C52.7685 106.093 52.9002 107.549 52.9952 108.269C53.094 109.03 53.222 109.809 53.4743 110.536C53.4779 110.54 53.4743 110.54 53.4743 110.54C53.8875 110.767 54.3044 110.994 54.7249 111.217C54.8017 111.257 54.8749 111.297 54.9517 111.334C55.46 111.169 56.0487 111.07 56.4107 110.961C57.0434 110.77 57.676 110.577 58.283 110.313C58.9413 110.032 60.8063 109.191 60.393 108.17Z" fill="#5C7557"/>
</g>
<defs>
<clipPath id="clip0">
<rect width="313.027" height="300.97" fill="white" transform="translate(0 0.0300293)"/>
</clipPath>
</defs>
</svg>
