<?xml version="1.0" encoding="UTF-8"?>
<svg width="160px" height="557px" viewBox="0 0 160 557" version="1.1" xmlns="http://www.w3.org/2000/svg" xmlns:xlink="http://www.w3.org/1999/xlink">
    <!-- Generator: Sketch 57.1 (83088) - https://sketch.com -->
    <title>Group</title>
    <desc>Created with Sketch.</desc>
    <g id="Page-1" stroke="none" stroke-width="1" fill="none" fill-rule="evenodd">
        <g id="1736944037-vector" transform="translate(-802.000000, -618.000000)">
            <g id="Group" transform="translate(802.716000, 618.774394)">
                <path d="M113.075,92.1176065 C113.075,92.1176065 118.969,95.3216065 123.868,106.697606 C128.768,118.073606 132.361,123.677606 134.955,133.249606 C137.55,142.821606 141.717,156.173606 141.996,159.585606 C142.275,162.997606 137.801,167.568606 132.387,168.366606 C126.972,169.165606 107.895,120.668606 107.895,120.668606 L113.075,92.1176065" id="Fill-185" fill="#F8F0EC"></path>
                <polyline id="Fill-186" fill="#FFAA9C" points="52.227 480.005606 45.545 523.315606 32.768 522.915606 31.116 474.515606 31.116 447.965606 52.227 480.005606"></polyline>
                <path d="M39.966,507.425606 C37.36,507.305606 34.775,507.045606 32.211,506.665606 L32.768,522.915606 L45.545,523.315606 L48.053,507.065606 C45.486,507.415606 42.839,507.565606 39.966,507.425606" id="Fill-187" fill="#FFFFFF"></path>
                <polyline id="Fill-188" fill="#FFAA9C" points="120.039 478.465606 105.418 519.395606 105.263 519.825606 104.4 519.635606 93.539 517.215606 100.197 469.385606 104.807 443.245606 120.039 478.465606"></polyline>
                <path d="M100.924,503.525606 C99.223,503.055606 97.43,502.525606 95.673,501.865606 L93.539,517.215606 L104.4,519.635606 C104.747,519.545606 105.083,519.475606 105.418,519.395606 L110.435,505.355606 C107.227,505.015606 104.045,504.405606 100.924,503.525606" id="Fill-189" fill="#FFFFFF"></path>
                <path d="M144.099,332.297606 C139.622,301.868606 132.742,271.741606 121.924,242.911606 C122.029,242.896606 122.133,242.879606 122.238,242.864606 C123.001,242.763606 122.722,241.597606 121.964,241.699606 C121.683,241.736606 121.403,241.782606 121.123,241.820606 C121.015,241.810606 120.912,241.830606 120.816,241.864606 C107.128,243.753606 93.319,246.856606 80.434,251.880606 C75.094,253.963606 73.948,259.912606 72.888,265.055606 C71.551,271.544606 71.314,278.195606 70.996,284.792606 C70.855,287.732606 70.737,290.672606 70.603,293.613606 C71.8,297.604606 73.148,301.567606 74.567,305.521606 C76.721,311.521606 83.119,343.315606 86.395,352.782606 C90.146,363.619606 93.051,375.359606 96.441,386.325606 C99.925,397.595606 96.178,404.735606 96.151,415.615606 C96.142,419.095606 96.709,422.565606 96.516,426.035606 C96.148,432.655606 92.892,438.945606 91.868,445.515606 C91.188,449.885606 90.99,454.285606 91.22,458.675606 C90.939,462.715606 90.416,466.395606 89.181,470.505606 C87.792,475.135606 86.993,479.845606 86.362,484.585606 C91.478,486.955606 100.222,489.755606 105.56,491.475606 C107.814,492.205606 117.917,495.225606 117.917,495.225606 C117.917,495.225606 147.058,411.315606 149.549,397.885606 C152.093,384.165606 146.074,345.714606 144.099,332.297606" id="Fill-190" fill="#7D4949"></path>
                <path d="M73.364,391.255606 C77.067,373.983606 78.555,354.317606 79.673,336.709606 C80.745,319.799606 79.548,304.110606 81.956,287.330606 C84.002,273.067606 86.15,258.744606 85.858,244.372606 C63.528,246.000606 41.154,246.928606 18.764,247.134606 C18.744,245.762606 18.724,244.390606 18.704,243.018606 C18.692,242.249606 17.495,242.247606 17.506,243.018606 C17.527,244.395606 17.547,245.771606 17.567,247.148606 C17.25,247.151606 16.933,247.157606 16.616,247.160606 C15.846,247.165606 15.844,248.362606 16.616,248.357606 C16.939,248.354606 17.262,248.345606 17.585,248.343606 C17.698,255.984606 17.811,263.625606 17.925,271.265606 C18.062,280.539606 18.468,289.868606 17.627,299.119606 C16.837,307.821606 16.122,315.944606 17.467,324.636606 C18.908,333.954606 20.763,342.931606 20.349,352.422606 C19.947,361.676606 18.516,370.850606 18.14,380.111606 C17.763,389.425606 18.065,398.775606 19.04,408.045606 C19.983,417.005606 22.483,425.885606 22.94,434.875606 C23.392,443.765606 19.916,452.065606 18.334,460.685606 C16.82,468.925606 16.504,477.375606 17.431,485.705606 C17.576,487.005606 17.617,488.735606 17.94,490.335606 C28.137,492.455606 38.837,496.275606 48.906,494.075606 C51.249,493.565606 53.512,492.875606 55.723,492.075606 C56.041,491.045606 56.332,490.025606 56.624,489.115606 C57.945,484.955606 69.817,407.785606 73.364,391.255606" id="Fill-191" fill="#7D4949"></path>
                <path d="M37.101,267.992606 C35.676,268.877606 34.252,269.455606 32.756,269.768606 C32.877,268.957606 32.985,268.141606 33.078,267.324606 C33.166,266.560606 31.968,266.566606 31.881,267.324606 C31.78,268.209606 31.66,269.088606 31.526,269.964606 C30.688,270.055606 29.825,270.078606 28.916,270.015606 C28.147,269.963606 28.15,271.160606 28.916,271.213606 C29.737,271.269606 30.535,271.262606 31.316,271.194606 C29.252,283.172606 24.062,294.315606 16.263,303.712606 C12.484,308.265606 9.196,312.577606 7.399,318.301606 C5.32,324.924606 3.283,331.277606 -5.68434189e-14,337.400606 C2.475,338.123606 4.97,338.790606 7.441,339.513606 C9.345,332.923606 11.352,326.280606 14.842,320.334606 C18.282,314.473606 22.098,308.511606 26.186,303.133606 C34.056,292.782606 37.404,281.199606 38.002,268.509606 C38.023,268.058606 37.476,267.759606 37.101,267.992606" id="Fill-192" fill="#36303A"></path>
                <path d="M5.953,158.057606 C4.951,169.123606 5.695,169.690606 7.149,180.805606 C8.277,189.422606 5.965,247.364606 7.953,270.907606 C15.206,273.943606 22.388,276.774606 30.883,276.709606 C43.92,276.607606 61.407,277.562606 74.378,277.133606 C87.837,276.689606 103.479,275.261606 116.766,271.994606 C123.456,270.349606 129.757,267.698606 135.746,264.429606 C135.418,256.971606 134.416,249.664606 133.429,242.162606 C132.325,233.775606 132.212,220.899606 131.869,212.525606 C131.497,203.436606 129.137,194.453606 129.415,185.342606 C129.732,174.975606 130.316,178.556606 128.86,168.197606 C127.678,159.782606 126.07,151.428606 125.358,142.952606 C124.09,127.865606 122.85,112.368606 118.116,97.9646065 C117.092,96.2936065 115.881,94.7226065 114.409,93.3016065 C111.193,90.1956065 107.106,88.2396065 103.011,86.5686065 C97.568,84.3466065 91.941,82.5936065 86.25,81.1316065 C75.244,78.3056065 63.992,76.5486065 52.79,74.7116065 C52.231,74.6196065 51.911,75.2296065 52.092,75.6016065 C42.546,80.6096065 33,85.6166065 23.455,90.6246065 C17.647,93.6716065 12.582,96.9366065 9.56,102.218606 C7.384,104.804606 6.673,108.034606 6.307,111.380606 C5.714,116.814606 3.354,126.211606 3.834,131.644606 C4.824,142.849606 6.973,146.779606 5.953,158.057606" id="Fill-193" fill="#F8F0EC"></path>
                <path d="M155.402,250.484606 C155.911,248.629606 156.14,246.691606 156.004,244.649606 C155.733,240.613606 153.367,234.733606 148.7,234.196606 L146.384,239.171606 C146.384,239.171606 141.228,250.716606 140.335,250.783606 C139.441,250.849606 131.245,250.710606 130.483,251.619606 C129.722,252.528606 129.908,254.258606 134.955,254.733606 C140.003,255.207606 138.048,255.766606 144.684,254.904606 C151.322,254.042606 149.751,254.103606 153.13,252.616606 C154.08,252.197606 154.821,251.403606 155.402,250.484606" id="Fill-194" fill="#FFAA9C"></path>
                <path d="M79.481,65.9276065 L78.068,73.6396065 L76.547,82.0096065 L75.901,85.5506065 C75.08,90.0436065 75.089,101.109606 72.18,102.606606 C69.271,104.103606 48.865,87.8806065 49.904,79.2286065 C50.879,71.1106065 52.634,56.4196065 52.634,55.8576065 L79.481,65.9276065" id="Fill-195" fill="#FFAA9C"></path>
                <path d="M69.53,71.1496065 C66.932,70.3106065 64.07,68.7066065 61.375,68.3826065 C61.172,68.3596065 60.945,68.4426065 60.825,68.6226065 C59.484,70.5026065 60.19,73.3766065 61.495,75.1126065 C62.262,76.1426065 63.267,76.6576065 64.369,77.2556065 C66.07,78.1776065 67.543,79.5436065 69.207,80.4296065 C70.429,81.0766065 71.818,81.0286065 73.111,81.5186065 C74.009,81.8666065 74.751,82.4536065 75.769,82.2856065 C76.044,82.2376065 76.308,82.1536065 76.547,82.0096065 L78.068,73.6396065 C75.206,72.8856065 72.356,72.0716065 69.53,71.1496065" id="Fill-196" fill="#F07D67"></path>
                <path d="M92.354,37.2376065 C92.198,36.0996065 91.983,34.9856065 91.719,33.8846065 C90.857,30.1246065 89.408,26.5316065 87.157,23.2986065 C84.762,19.8616065 81.529,16.4616065 77.709,14.5936065 C73.434,12.5096065 67.567,12.6896065 62.992,13.3836065 C54.047,14.7496065 46.958,22.5566065 44.192,30.8666065 C42.612,35.6086065 41.797,41.3806065 43.21,46.2426065 C44.324,50.0866065 46.958,52.4446065 50.119,54.3006065 C50.766,56.0976065 51.425,57.8936065 52.107,59.6776065 C53.137,62.3726065 54.299,63.0426065 56.095,65.3296065 C59.029,69.0896065 63.663,71.5326065 68.309,73.0776065 C73.111,74.6706065 78.739,75.0526065 83.816,74.3946065 C86.833,74.0106065 88.833,72.1676065 89.899,69.3656065 C92.725,61.9406065 92.905,53.1396065 92.905,45.2606065 C92.905,42.5896065 92.761,39.8836065 92.354,37.2376065" id="Fill-197" fill="#FFAA9C"></path>
                <path d="M71.945,41.4036065 L71.932,41.3586065 L71.907,41.2946065 C71.803,40.9606065 71.656,40.6756065 71.435,40.5066065 C71.157,40.2936065 70.771,40.2546065 70.243,40.4966065 C69.958,40.6276065 69.798,40.8716065 69.676,41.1096065 C69.065,42.2986065 68.953,45.6766065 70.719,45.8236065 C72.558,45.9756065 72.258,42.5536065 71.945,41.4036065" id="Fill-198" fill="#36303A"></path>
                <path d="M89.489,40.8356065 L89.476,40.7936065 L89.452,40.7356065 C89.349,40.4296065 89.208,40.1696065 89.001,40.0186065 C88.74,39.8276065 88.384,39.7986065 87.902,40.0316065 C87.641,40.1586065 87.498,40.3866065 87.39,40.6086065 C86.85,41.7166065 86.813,44.8346065 88.445,44.9356065 C90.144,45.0406065 89.8,41.8906065 89.489,40.8356065" id="Fill-199" fill="#36303A"></path>
                <path d="M85.756,50.3126065 C84.843,48.6166065 83.929,46.9216065 83.016,45.2256065 C82.651,44.5476065 81.616,45.1516065 81.982,45.8306065 C82.895,47.5256065 83.808,49.2216065 84.722,50.9176065 C85.476,52.3166065 86.1,54.0186065 84.37,55.3236065 C83.789,55.7626065 83.026,56.0596065 82.386,56.4066065 C81.708,56.7736065 82.312,57.8076065 82.991,57.4406065 C84.598,56.5686065 87.051,55.6946065 87.051,53.5226065 C87.051,52.3626065 86.282,51.2896065 85.756,50.3126065" id="Fill-200" fill="#F07D67"></path>
                <path d="M86.067,60.3406065 C82.835,60.4746065 79.629,60.7646065 76.48,59.8166065 C75.984,59.6676065 74.639,59.6086065 75.236,60.5726065 C77.744,64.6266065 83.813,64.4776065 86.852,61.1196065 C87.324,60.5976065 86.879,60.3086065 86.305,60.3316065 L86.067,60.3406065" id="Fill-201" fill="#F07D67"></path>
                <path d="M73.638,34.7206065 C71.456,34.2836065 68.37,34.7746065 67.273,35.0006065 C65.619,35.3406065 63.239,35.9026065 62.605,37.7156065 C62.463,38.1226065 62.874,38.4236065 63.217,38.4466065 C66.252,38.6486065 69.238,37.6756065 72.327,37.8836065 C73.383,37.9546065 76.119,38.6296065 75.958,36.6526065 C75.868,35.5406065 74.906,34.9736065 73.638,34.7206065" id="Fill-202" fill="#F5D2B5"></path>
                <path d="M92.354,37.2376065 C91.324,37.1296065 90.306,37.0576065 89.264,37.1296065 C88.211,37.2016065 85.469,37.8836065 85.636,35.9076065 C85.72,34.7946065 86.69,34.2196065 87.947,33.9686065 C89.097,33.7406065 90.498,33.7646065 91.719,33.8846065 C91.983,34.9856065 92.198,36.0996065 92.354,37.2376065" id="Fill-203" fill="#F5D2B5"></path>
                <path d="M97.136,25.6016065 C96.41,24.4356065 95.773,23.2176065 95.015,22.0716065 C94.222,20.8736065 93.095,19.9526065 91.818,19.3066065 C88.54,17.6486065 84.459,17.5566065 80.875,17.6726065 C79.404,17.7206065 78.035,17.8976065 76.585,17.6086065 C75.244,17.3406065 74.092,16.6966065 72.784,16.3186065 C71.183,15.8546065 69.493,15.7246065 67.839,15.8966065 C63.648,16.3316065 60.576,18.9526065 57.551,21.6516065 C53.826,24.9766065 50.333,28.5606065 47.098,32.3626065 C44.483,35.4346065 40.414,39.0896065 41.535,43.5106065 C42.124,45.8336065 43.52,48.0106065 44.642,50.1036065 C45.656,51.9926065 46.723,53.8506065 47.813,55.6956065 L47.867,55.8376065 L48.403,56.6836065 C48.777,57.3076065 51.348,63.4276065 51.854,62.8426065 C53.516,60.9226065 54.576,58.0836065 55.018,55.2536065 C51.855,51.9686065 49.474,48.1886065 49.666,43.3486065 C49.805,39.8696065 52.149,37.3136065 55.196,38.0056065 C55.631,38.0906065 56.102,38.1746065 56.347,37.9236065 C57.11,37.1426065 57.646,36.2346065 58.541,35.5186065 C59.338,34.7236065 60.067,33.8566065 60.709,32.9316065 C61.833,31.3156065 62.642,29.5556065 63.215,27.6986065 C64.185,28.9076065 65.573,29.6126065 67.238,30.0316065 C68.523,30.3546065 69.918,30.5296065 71.244,30.6176065 C73.004,30.7346065 74.617,30.1776065 76.346,30.1796065 C79.429,30.1836065 81.348,32.8756065 84.443,33.3296065 C86.767,33.6696065 89.146,33.5996065 90.87,31.8596065 L91.013,31.6316065 C91.226,32.1966065 91.756,32.4796065 92.216,32.8426065 C93.805,34.1006065 95.597,33.9536065 96.84,32.3356065 C97.585,31.3636065 98.239,30.2016065 98.416,28.9736065 C98.631,27.4856065 97.871,26.7806065 97.136,25.6016065" id="Fill-204" fill="#F5D2B5"></path>
                <path d="M87.899,15.1416065 C86.8,13.7266065 85.482,12.8466065 84.671,11.1626065 C84.166,10.1136065 83.875,9.18660648 82.957,8.39260648 C81.61,7.22960648 79.887,6.82960648 78.212,7.12060648 C77.931,6.87760648 77.63,6.64360648 77.289,6.42060648 C75.633,5.33860648 73.535,4.10260648 71.751,3.26660648 C68.394,1.69460648 63.908,2.23960648 60.317,1.55360648 C56.442,0.814606477 52.634,-0.515393523 48.646,0.209606477 C45.543,0.773606477 41.502,2.40960648 39.136,4.51760648 C37.964,5.56160648 37.48,6.94860648 36.764,8.29860648 C35.698,10.3116065 34.098,11.9066065 32.527,13.5236065 C29.893,16.2316065 27.272,19.1036065 25.934,22.7056065 C24.842,25.6456065 24.639,29.0606065 25.989,31.9536065 C26.986,34.0896065 28.354,34.3236065 30.217,34.3526065 C30.363,35.3086065 30.601,36.2446065 31.017,37.1246065 C31.87,38.9266065 33.461,40.0496065 34.504,41.7206065 C35.56,43.4136065 35.763,45.5246065 37.314,46.9096065 C37.765,47.3116065 38.292,47.5216065 38.793,47.8386065 C39.987,48.5946065 40.769,49.3596065 41.74,50.3466065 C43.637,52.2766065 46.29,55.9116065 46.617,53.6466065 C46.997,51.0206065 46.047,42.9476065 46.742,40.3306065 C47.416,37.7986065 47.402,35.6996065 48.962,33.6156065 C50.559,31.4846065 51.607,28.9856065 53.188,26.8366065 C55.963,23.0636065 60.617,20.4896065 65.065,19.2416065 C69.242,18.0696065 73.344,17.9906065 77.627,18.1356065 C79.697,18.2066065 82.847,18.2726065 84.911,18.4356065 C85.998,18.5206065 90.716,18.8186065 90.716,18.8186065 C90.716,18.8186065 88.665,16.1276065 87.899,15.1416065" id="Fill-205" fill="#DCA877"></path>
                <path d="M40.99,18.1196065 C36.415,21.9016065 32.204,26.2376065 31.055,32.2686065 C30.911,33.0216065 32.066,33.3446065 32.21,32.5876065 C33.321,26.7556065 37.424,22.6146065 41.836,18.9656065 C42.431,18.4746065 41.58,17.6316065 40.99,18.1196065" id="Fill-206" fill="#BA8452"></path>
                <path d="M75.336,8.64260648 C57.119,6.86060648 42.676,21.2266065 39.744,38.4186065 C39.616,39.1726065 40.77,39.4966065 40.899,38.7366065 C43.747,22.0336065 57.608,8.10560648 75.336,9.84060648 C76.102,9.91560648 76.097,8.71760648 75.336,8.64260648" id="Fill-207" fill="#BA8452"></path>
                <path d="M55.975,548.165606 C55.58,550.955606 54.682,554.715606 48.24,555.265606 C47.701,555.315606 47.126,555.345606 46.503,555.345606 C44.971,555.325606 43.27,555.325606 41.522,555.255606 C36.373,555.055606 30.924,554.335606 28.996,551.755606 C27.93,550.335606 27.979,545.525606 28.409,540.345606 C28.733,536.405606 29.284,532.255606 29.715,529.255606 C30.098,526.685606 30.386,524.975606 30.386,524.975606 C30.386,524.975606 31.188,522.545606 33.211,520.635606 C33.547,520.315606 33.906,520.015606 34.301,519.755606 C34.888,519.335606 35.558,518.985606 36.313,518.745606 C39.163,517.825606 41.785,518.155606 43.809,518.995606 C44.276,519.175606 44.695,519.395606 45.09,519.615606 C46.455,520.425606 47.366,521.405606 47.653,522.195606 C48.371,524.205606 50.096,530.375606 50.659,532.525606 C51.233,534.685606 56.406,545.155606 55.975,548.165606" id="Fill-208" fill="#E0CFC7"></path>
                <path d="M53.913,543.175606 C53.466,541.975606 52.42,540.805606 51.159,540.625606 C48.205,540.215606 44.644,540.925606 41.716,541.305606 C39.293,541.625606 32.657,541.795606 33.292,545.855606 C33.967,550.165606 41.714,549.475606 43.739,552.925606 C44.129,553.585606 45.164,552.985606 44.773,552.315606 C43.688,550.465606 41.995,549.575606 40.016,548.885606 C39.074,548.555606 37.385,548.285606 36.639,547.705606 C36.372,547.555606 36.104,547.405606 35.837,547.255606 L35.874,547.125606 C35.735,547.065606 35.603,546.975606 35.489,546.835606 C34.786,546.005606 34.5,544.925606 35.31,544.035606 C35.834,543.465606 36.627,543.235606 37.333,542.975606 C37.552,542.895606 37.781,542.905606 37.995,542.975606 C38.799,542.845606 39.78,542.785606 40.145,542.725606 C41.435,542.525606 42.731,542.365606 44.028,542.235606 C45.814,542.045606 48.06,541.545606 49.835,541.835606 C52.416,542.245606 54.703,544.425606 50.938,547.465606 C50.371,547.925606 49.543,548.145606 48.892,548.445606 C46.771,549.415606 45.122,550.615606 45.171,553.115606 C45.187,553.885606 46.384,553.885606 46.369,553.115606 C46.347,552.015606 48.161,550.195606 49.081,549.655606 C49.595,549.355606 50.207,549.205606 50.739,548.935606 C51.591,548.495606 52.497,547.975606 53.08,547.185606 C54.063,545.865606 54.482,544.685606 53.913,543.175606" id="Fill-209" fill="#FFFFFF"></path>
                <path d="M122.325,546.985606 L122.183,547.035606 C118.384,548.435606 108.934,547.105606 104.002,545.795606 C99.022,544.465606 97.457,537.785606 91.981,535.265606 C86.506,532.755606 84.156,529.835606 84.989,527.855606 C85.243,527.235606 85.835,525.935606 86.576,524.425606 C87.18,523.145606 87.899,521.725606 88.598,520.415606 C89.693,518.395606 90.75,516.665606 91.347,516.265606 C92.802,515.315606 94.938,516.145606 98.073,516.035606 C98.588,516.025606 99.209,515.975606 99.903,515.935606 C100.309,515.915606 100.728,515.895606 101.171,515.865606 C104.578,515.655606 108.77,515.595606 109.503,517.455606 C110.485,519.975606 112.746,526.335606 115.835,530.575606 C116.664,531.725606 117.62,532.715606 118.584,533.615606 C118.907,533.925606 119.24,534.225606 119.561,534.505606 C121.845,536.525606 123.994,538.115606 124.633,540.015606 C124.793,540.505606 124.94,540.975606 125.052,541.425606 C125.645,543.775606 125.411,545.755606 122.325,546.985606" id="Fill-210" fill="#E0CFC7"></path>
                <path d="M123.556,543.305606 C122.527,542.245606 121.324,541.395606 119.884,540.965606 C118.359,540.495606 116.668,540.805606 115.154,540.335606 C114.947,540.315606 114.777,540.255606 114.61,540.195606 L114.456,540.225606 C113.787,540.295606 113.198,539.655606 113.177,539.025606 C113.159,538.495606 113.472,538.075606 113.912,537.875606 C114.323,537.535606 114.735,537.205606 115.172,536.905606 C115.757,536.485606 116.367,536.095606 116.99,535.735606 C117.825,535.265606 118.686,534.855606 119.561,534.505606 C119.24,534.225606 118.907,533.925606 118.584,533.615606 C117.604,534.045606 116.65,534.525606 115.735,535.095606 C114.513,535.845606 111.735,537.305606 111.719937,539.035606 C111.708,540.455606 113.409,541.155606 114.556,541.425606 C117.648,542.175606 120.29,541.655606 122.735,544.185606 C123.269,544.745606 124.09,543.865606 123.556,543.305606" id="Fill-211" fill="#FFFFFF"></path>
                <path d="M48.12,552.955606 C48.072,552.405606 48.156,551.555606 47.701,551.135606 C46.731,550.275606 43.462,550.815606 42.48,551.485606 C41.665,552.045606 41.749,553.445606 41.582,554.435606 C41.557,554.605606 41.546,554.925606 41.522,555.255606 C43.27,555.325606 44.971,555.325606 46.503,555.345606 C47.126,555.345606 47.701,555.315606 48.24,555.265606 C48.216,554.505606 48.18,553.725606 48.12,552.955606" id="Fill-212" fill="#E66C6C"></path>
                <path d="M125.052,541.425606 C124.544,541.655606 124.064,542.015606 123.606,542.275606 C123.159,542.515606 122.46,542.775606 122.213,543.275606 C121.978,543.755606 122.23,544.495606 122.282,544.955606 C122.341,545.665606 122.305,546.355606 122.183,547.035606 L122.325,546.985606 C125.411,545.755606 125.645,543.775606 125.052,541.425606" id="Fill-213" fill="#E66C6C"></path>
                <path d="M31.775,537.705606 C31.284,535.765606 30.409,533.955606 29.978,531.985606 C29.847,531.375606 29.87,530.215606 29.715,529.255606 C29.284,532.255606 28.733,536.405606 28.409,540.345606 C29.308,541.395606 30.709,541.825606 31.655,540.335606 C32.205,539.495606 32.002,538.585606 31.775,537.705606" id="Fill-214" fill="#E66C6C"></path>
                <path d="M88.598,520.415606 C87.899,521.725606 87.18,523.145606 86.576,524.425606 C87.53,525.005606 88.53,525.535606 89.462,526.175606 C91.939,527.895606 94.139,529.925606 96.131,532.175606 C97.539,533.785606 101.083,538.725606 103.871,537.185606 C108.612,534.555606 93.185,523.575606 88.598,520.415606" id="Fill-215" fill="#E66C6C"></path>
                <path d="M36.624,534.405606 C36.768,535.165606 35.618,535.485606 35.474,534.735606 C34.565,530.065606 33.81,525.355606 33.211,520.635606 C33.547,520.315606 33.906,520.015606 34.301,519.755606 C34.9,524.675606 35.678,529.545606 36.624,534.405606" id="Fill-216" fill="#FFFFFF"></path>
                <path d="M46.216,533.345606 C45.234,528.585606 44.431,523.815606 43.809,518.995606 C44.276,519.175606 44.695,519.395606 45.09,519.615606 C45.689,524.115606 46.455,528.575606 47.377,533.015606 C47.533,533.775606 46.371,534.095606 46.216,533.345606" id="Fill-217" fill="#FFFFFF"></path>
                <path d="M108.297,531.585606 C105.826,529.345606 104.413,526.155606 102.984,523.185606 C101.839,520.815606 100.824,518.395606 99.903,515.935606 C100.309,515.915606 100.728,515.895606 101.171,515.865606 C102.013,518.125606 102.962,520.355606 103.993,522.555606 C105.359,525.395606 106.759,528.565606 109.118,530.715606 C109.687,531.235606 108.877,532.105606 108.297,531.585606" id="Fill-218" fill="#FFFFFF"></path>
                <path d="M152.82,226.357606 C153.968,226.722606 153.759,231.311606 152.82,231.624606 C152.37,231.774606 138.256,231.576606 123.896,231.554606 C108.302,231.531606 92.369,231.671606 92.016,231.465606 C91.054,230.907606 90.452,226.826606 92.225,226.357606 C93.133,226.117606 108.768,226.216606 123.896,226.235606 C138.311,226.253606 152.261,226.178606 152.82,226.357606" id="Fill-219" fill="#6C8685"></path>
                <path d="M88.879,241.316606 L100.169,241.316606 L100.169,230.750606 L88.879,230.750606 C87.626,230.750606 86.611,231.765606 86.611,233.018606 L86.611,239.047606 C86.611,240.300606 87.626,241.316606 88.879,241.316606" id="Fill-220" fill="#6F5E61"></path>
                <polygon id="Fill-221" fill="#F5D2B5" points="97.04 239.615606 154.333 239.615606 154.333 232.383606 97.04 232.383606"></polygon>
                <path d="M97.024,241.316606 L154.384,241.316606 C154.817,241.316606 155.167,240.965606 155.167,240.533606 L155.167,240.398606 C155.167,239.965606 154.817,239.615606 154.384,239.615606 L97.024,239.615606 C96.591,239.615606 96.241,239.965606 96.241,240.398606 L96.241,240.533606 C96.241,240.965606 96.591,241.316606 97.024,241.316606" id="Fill-222" fill="#6F5E61"></path>
                <path d="M97.097,232.609606 L154.311,232.609606 C154.784,232.609606 155.167,232.226606 155.167,231.754606 L155.167,231.606606 C155.167,231.132606 154.784,230.750606 154.311,230.750606 L97.097,230.750606 C96.624,230.750606 96.241,231.132606 96.241,231.606606 L96.241,231.754606 C96.241,232.226606 96.624,232.609606 97.097,232.609606" id="Fill-223" fill="#6F5E61"></path>
                <path d="M97.119,251.463606 C97.278,251.654606 100.79,251.696606 106.055,251.688606 C107.206,251.688606 108.433,251.688606 109.735,251.679606 C110.235,251.679606 110.752,251.679606 111.269,251.671606 C111.971,251.671606 112.688,251.671606 113.422,251.663606 C118.22,251.646606 123.635,251.630606 129,251.646606 C143.359,251.688606 157.468,252.080606 157.919,251.780606 C158.862,251.154606 159.07,241.976606 157.919,241.250606 C157.36,240.891606 143.409,241.042606 129,241.007606 C123.643,240.991606 118.22,240.974606 113.422,240.966606 L109.735,240.966606 C108.433,240.966606 107.198,240.974606 106.055,240.974606 C101.116,241.007606 97.753,241.083606 97.327,241.250606 C96.193,241.701606 96.151,250.344606 97.119,251.463606" id="Fill-224" fill="#36303A"></path>
                <path d="M106.055,240.974606 L106.055,251.688606 C107.206,251.688606 108.433,251.688606 109.735,251.679606 L109.735,240.966606 C108.433,240.966606 107.198,240.974606 106.055,240.974606" id="Fill-225" fill="#FFFFFF"></path>
                <path d="M111.269,240.966606 L111.269,251.671606 C111.971,251.671606 112.688,251.671606 113.422,251.663606 L113.422,240.966606 L111.269,240.966606" id="Fill-226" fill="#FFFFFF"></path>
                <path d="M152.779,235.200606 L98.659,235.200606 C98.328,235.200606 98.06,234.931606 98.06,234.600606 C98.06,234.270606 98.328,234.002606 98.659,234.002606 L152.779,234.002606 C153.11,234.002606 153.378,234.270606 153.378,234.600606 C153.378,234.931606 153.11,235.200606 152.779,235.200606" id="Fill-227" fill="#FFFFFF"></path>
                <path d="M152.779,238.068606 L98.659,238.068606 C98.328,238.068606 98.06,237.800606 98.06,237.469606 C98.06,237.138606 98.328,236.871606 98.659,236.871606 L152.779,236.871606 C153.11,236.871606 153.378,237.138606 153.378,237.469606 C153.378,237.800606 153.11,238.068606 152.779,238.068606" id="Fill-228" fill="#FFFFFF"></path>
                <path d="M150.511,226.635606 L139.221,226.635606 L139.221,217.838606 L150.511,217.838606 C151.763,217.838606 152.779,218.853606 152.779,220.106606 L152.779,224.367606 C152.779,225.620606 151.763,226.635606 150.511,226.635606" id="Fill-229" fill="#F5D2B5"></path>
                <polygon id="Fill-230" fill="#FFFFFF" points="85.057 224.934606 142.349 224.934606 142.349 218.064606 85.057 218.064606"></polygon>
                <path d="M142.366,226.635606 L85.006,226.635606 C84.573,226.635606 84.222,226.285606 84.222,225.852606 L84.222,225.717606 C84.222,225.285606 84.573,224.934606 85.006,224.934606 L142.366,224.934606 C142.799,224.934606 143.149,225.285606 143.149,225.717606 L143.149,225.852606 C143.149,226.285606 142.799,226.635606 142.366,226.635606" id="Fill-231" fill="#F5D2B5"></path>
                <path d="M142.267,219.689606 L85.053,219.689606 C84.58,219.689606 84.197,219.305606 84.197,218.833606 L84.197,218.685606 C84.197,218.213606 84.58,217.829606 85.053,217.829606 L142.267,217.829606 C142.74,217.829606 143.123,218.213606 143.123,218.685606 L143.123,218.833606 C143.123,219.305606 142.74,219.689606 142.267,219.689606" id="Fill-232" fill="#F5D2B5"></path>
                <path d="M149.314,209.218606 C150.462,209.824606 150.253,217.440606 149.314,217.960606 C148.865,218.209606 134.749,217.880606 120.39,217.843606 C104.796,217.805606 88.864,218.036606 88.511,217.696606 C87.548,216.769606 86.946,209.997606 88.719,209.218606 C89.627,208.819606 105.262,208.985606 120.39,209.016606 C134.805,209.046606 148.755,208.922606 149.314,209.218606" id="Fill-233" fill="#7B9FBA"></path>
                <path d="M96.719,210.982606 C95.975,210.982606 95.369,211.588606 95.369,212.332606 L95.369,214.584606 C95.369,215.328606 95.975,215.933606 96.719,215.933606 L141.679,215.933606 C142.423,215.933606 143.028,215.328606 143.028,214.584606 L143.028,212.332606 C143.028,211.588606 142.423,210.982606 141.679,210.982606 L96.719,210.982606 Z M94.584,214.584606 L94.584,212.332606 C94.584,211.154606 95.542,210.197606 96.719,210.197606 L141.679,210.197606 C142.856,210.197606 143.813,211.154606 143.813,212.332606 L143.813,214.584606 C143.813,215.760606 142.856,216.718606 141.679,216.718606 L96.719,216.718606 C95.542,216.718606 94.584,215.760606 94.584,214.584606 L94.584,214.584606 Z" id="Fill-234" fill="#F8F0EC"></path>
                <path d="M145.624,202.038606 C146.771,202.521606 146.563,208.598606 145.624,209.012606 C145.174,209.211606 131.059,208.949606 116.7,208.921606 C101.106,208.889606 85.174,209.074606 84.821,208.802606 C83.858,208.062606 83.256,202.660606 85.029,202.038606 C85.937,201.719606 101.572,201.852606 116.7,201.877606 C131.116,201.900606 145.065,201.802606 145.624,202.038606" id="Fill-235" fill="#36303A"></path>
                <path d="M81.65,201.993606 L92.94,201.993606 L92.94,186.010606 L81.65,186.010606 C80.397,186.010606 79.382,187.026606 79.382,188.279606 L79.382,199.724606 C79.382,200.977606 80.397,201.993606 81.65,201.993606" id="Fill-236" fill="#87524D"></path>
                <polygon id="Fill-237" fill="#FFFFFF" points="89.811 200.292606 147.104 200.292606 147.104 187.871606 89.811 187.871606"></polygon>
                <path d="M89.795,201.993606 L147.155,201.993606 C147.587,201.993606 147.938,201.642606 147.938,201.210606 L147.938,201.075606 C147.938,200.642606 147.587,200.292606 147.155,200.292606 L89.795,200.292606 C89.362,200.292606 89.012,200.642606 89.012,201.075606 L89.012,201.210606 C89.012,201.642606 89.362,201.993606 89.795,201.993606" id="Fill-238" fill="#87524D"></path>
                <path d="M89.868,187.871606 L147.082,187.871606 C147.555,187.871606 147.938,187.487606 147.938,187.014606 L147.938,186.867606 C147.938,186.394606 147.555,186.010606 147.082,186.010606 L89.868,186.010606 C89.395,186.010606 89.012,186.394606 89.012,186.867606 L89.012,187.014606 C89.012,187.487606 89.395,187.871606 89.868,187.871606" id="Fill-239" fill="#87524D"></path>
                <path d="M84.909,194.263606 C84.909,197.592606 85.47,200.292606 86.161,200.292606 C86.852,200.292606 87.412,197.592606 87.412,194.263606 C87.412,190.934606 86.852,188.236606 86.161,188.236606 C85.47,188.236606 84.909,190.934606 84.909,194.263606" id="Fill-240" fill="#F5D2B5"></path>
                <path d="M146,190.420606 L91.09,190.420606 C90.759,190.420606 90.491,190.152606 90.491,189.821606 C90.491,189.490606 90.759,189.222606 91.09,189.222606 L146,189.222606 C146.331,189.222606 146.599,189.490606 146.599,189.821606 C146.599,190.152606 146.331,190.420606 146,190.420606" id="Fill-241" fill="#F5D2B5"></path>
                <path d="M146,193.387606 L91.09,193.387606 C90.759,193.387606 90.491,193.120606 90.491,192.789606 C90.491,192.459606 90.759,192.190606 91.09,192.190606 L146,192.190606 C146.331,192.190606 146.599,192.459606 146.599,192.789606 C146.599,193.120606 146.331,193.387606 146,193.387606" id="Fill-242" fill="#F5D2B5"></path>
                <path d="M146,196.357606 L91.09,196.357606 C90.759,196.357606 90.491,196.089606 90.491,195.758606 C90.491,195.427606 90.759,195.160606 91.09,195.160606 L146,195.160606 C146.331,195.160606 146.599,195.427606 146.599,195.758606 C146.599,196.089606 146.331,196.357606 146,196.357606" id="Fill-243" fill="#F5D2B5"></path>
                <path d="M146,199.326606 L91.09,199.326606 C90.759,199.326606 90.491,199.058606 90.491,198.727606 C90.491,198.396606 90.759,198.129606 91.09,198.129606 L146,198.129606 C146.331,198.129606 146.599,198.396606 146.599,198.727606 C146.599,199.058606 146.331,199.326606 146,199.326606" id="Fill-244" fill="#F5D2B5"></path>
                <path d="M19.002,168.366606 L47.342,163.377606 C47.342,163.377606 54.526,187.542606 55.325,189.928606 C56.123,192.315606 92.354,242.440606 92.354,242.440606 L90.649,250.791606 L78.276,248.396606 C78.276,248.396606 40.157,214.136606 32.373,201.829606 C24.59,189.521606 19.002,168.366606 19.002,168.366606" id="Fill-245" fill="#FFAA9C"></path>
                <path d="M93.444,241.316606 C93.444,241.316606 105.521,251.880606 106.417,251.871606 C107.313,251.862606 117.854,250.830606 118.69,251.671606 C119.526,252.512606 119.189,253.685606 114.2,254.583606 C109.21,255.481606 105.219,256.579606 98.533,256.280606 C91.847,255.980606 91.348,256.479606 87.855,255.282606 C84.363,254.084606 78.276,248.396606 78.276,248.396606 L79.773,242.908606 L93.444,241.316606" id="Fill-246" fill="#FFAA9C"></path>
                <path d="M88.853,239.615606 C88.853,239.615606 91.747,238.617606 97.036,239.615606 C102.325,240.613606 107.268,244.604606 110.385,245.302606 C113.501,246.002606 114.798,249.548606 109.31,248.823606 C103.822,248.097606 96.108,247.498606 96.108,247.498606 L88.853,239.615606" id="Fill-247" fill="#FFAA9C"></path>
                <path d="M144.934,174.705606 L144.934,183.961606 C144.934,185.098606 144.024,186.008606 142.887,186.008606 L80.116,186.008606 C78.978,186.008606 78.068,185.098606 78.068,183.961606 L78.068,174.705606 C78.068,173.567606 78.978,172.657606 80.116,172.657606 L142.887,172.657606 C144.024,172.657606 144.934,173.567606 144.934,174.705606" id="Fill-248" fill="#E66C6C"></path>
                <polygon id="Fill-249" fill="#FFFFFF" points="128.17 186.008606 131.858 186.008606 131.858 172.657606 128.17 172.657606"></polygon>
                <path d="M140.548,172.749606 L129.258,172.749606 L129.258,162.182606 L140.548,162.182606 C141.801,162.182606 142.816,163.198606 142.816,164.451606 L142.816,170.480606 C142.816,171.733606 141.801,172.749606 140.548,172.749606" id="Fill-250" fill="#36303A"></path>
                <polygon id="Fill-251" fill="#FFFFFF" points="75.094 171.047606 132.387 171.047606 132.387 163.817606 75.094 163.817606"></polygon>
                <path d="M132.403,172.749606 L75.043,172.749606 C74.61,172.749606 74.26,172.398606 74.26,171.965606 L74.26,171.831606 C74.26,171.398606 74.61,171.047606 75.043,171.047606 L132.403,171.047606 C132.836,171.047606 133.186,171.398606 133.186,171.831606 L133.186,171.965606 C133.186,172.398606 132.836,172.749606 132.403,172.749606" id="Fill-252" fill="#36303A"></path>
                <path d="M132.33,164.043606 L75.116,164.043606 C74.643,164.043606 74.26,163.659606 74.26,163.186606 L74.26,163.039606 C74.26,162.566606 74.643,162.182606 75.116,162.182606 L132.33,162.182606 C132.803,162.182606 133.186,162.566606 133.186,163.039606 L133.186,163.186606 C133.186,163.659606 132.803,164.043606 132.33,164.043606" id="Fill-253" fill="#36303A"></path>
                <path d="M139.412,171.047606 L139.412,171.047606 C139.89,171.047606 140.277,170.661606 140.277,170.183606 L140.277,164.907606 C140.277,164.429606 139.89,164.043606 139.412,164.043606 C138.935,164.043606 138.548,164.429606 138.548,164.907606 L138.548,170.183606 C138.548,170.661606 138.935,171.047606 139.412,171.047606" id="Fill-254" fill="#F5D2B5"></path>
                <path d="M141.212,147.366606 C142.359,147.838606 142.15,153.784606 141.212,154.189606 C140.762,154.383606 126.647,154.127606 112.287,154.099606 C96.693,154.069606 80.761,154.250606 80.408,153.984606 C79.446,153.260606 78.844,147.974606 80.617,147.366606 C81.524,147.054606 97.159,147.184606 112.287,147.209606 C126.703,147.231606 140.652,147.135606 141.212,147.366606" id="Fill-255" fill="#6F5E61"></path>
                <path d="M129.617,150.629606 C129.617,151.965606 128.969,153.048606 128.17,153.048606 C127.37,153.048606 126.723,151.965606 126.723,150.629606 C126.723,149.293606 127.37,148.209606 128.17,148.209606 C128.969,148.209606 129.617,149.293606 129.617,150.629606" id="Fill-256" fill="#FFFFFF"></path>
                <path d="M125.316,150.629606 C125.316,151.965606 124.668,153.048606 123.868,153.048606 C123.07,153.048606 122.422,151.965606 122.422,150.629606 C122.422,149.293606 123.07,148.209606 123.868,148.209606 C124.668,148.209606 125.316,149.293606 125.316,150.629606" id="Fill-257" fill="#FFFFFF"></path>
                <path d="M138.019,162.004606 C137.861,162.196606 134.348,162.237606 129.083,162.229606 C127.932,162.229606 126.705,162.229606 125.404,162.220606 C124.903,162.220606 124.386,162.220606 123.868,162.213606 C123.168,162.213606 122.45,162.213606 121.716,162.204606 C116.918,162.187606 111.503,162.171606 106.138,162.187606 C91.779,162.229606 77.67,162.621606 77.22,162.321606 C76.277,161.695606 76.068,154.912606 77.22,154.186606 C77.779,153.828606 91.729,153.977606 106.138,153.944606 C111.495,153.927606 116.918,153.911606 121.716,153.902606 L125.404,153.902606 C126.705,153.902606 127.94,153.911606 129.083,153.911606 C134.023,153.944606 137.385,154.019606 137.811,154.186606 C138.946,154.636606 138.987,160.885606 138.019,162.004606" id="Fill-258" fill="#6C8685"></path>
                <path d="M129.083,153.911606 L129.083,162.229606 C127.932,162.229606 126.705,162.229606 125.404,162.220606 L125.404,153.902606 C126.705,153.902606 127.94,153.911606 129.083,153.911606" id="Fill-259" fill="#FFFFFF"></path>
                <path d="M123.868,153.902606 L123.868,162.213606 C123.168,162.213606 122.45,162.213606 121.716,162.204606 L121.716,153.902606 L123.868,153.902606" id="Fill-260" fill="#FFFFFF"></path>
                <polygon id="Fill-261" fill="#F5D2B5" points="83.721 145.710606 141.013 145.710606 141.013 134.886606 83.721 134.886606"></polygon>
                <path d="M83.704,147.411606 L141.064,147.411606 C141.497,147.411606 141.847,147.060606 141.847,146.628606 L141.847,146.493606 C141.847,146.060606 141.497,145.710606 141.064,145.710606 L83.704,145.710606 C83.272,145.710606 82.921,146.060606 82.921,146.493606 L82.921,146.628606 C82.921,147.060606 83.272,147.411606 83.704,147.411606" id="Fill-262" fill="#7B9FBA"></path>
                <path d="M83.777,135.112606 L140.991,135.112606 C141.464,135.112606 141.847,134.729606 141.847,134.255606 L141.847,134.109606 C141.847,133.635606 141.464,133.253606 140.991,133.253606 L83.777,133.253606 C83.305,133.253606 82.921,133.635606 82.921,134.109606 L82.921,134.255606 C82.921,134.729606 83.305,135.112606 83.777,135.112606" id="Fill-263" fill="#7B9FBA"></path>
                <path d="M103.718,133.249606 L103.718,147.415606 L75.554,147.415606 C74.308,147.415606 73.29,146.397606 73.29,145.139606 L73.29,135.524606 C73.29,134.266606 74.308,133.249606 75.554,133.249606 L103.718,133.249606" id="Fill-264" fill="#7B9FBA"></path>
                <path d="M139.995,137.481606 L104.894,137.481606 C104.563,137.481606 104.296,137.213606 104.296,136.882606 C104.296,136.552606 104.563,136.284606 104.894,136.284606 L139.995,136.284606 C140.326,136.284606 140.594,136.552606 140.594,136.882606 C140.594,137.213606 140.326,137.481606 139.995,137.481606" id="Fill-265" fill="#FFFFFF"></path>
                <path d="M139.995,139.828606 L104.894,139.828606 C104.563,139.828606 104.296,139.559606 104.296,139.228606 C104.296,138.898606 104.563,138.630606 104.894,138.630606 L139.995,138.630606 C140.326,138.630606 140.594,138.898606 140.594,139.228606 C140.594,139.559606 140.326,139.828606 139.995,139.828606" id="Fill-266" fill="#FFFFFF"></path>
                <path d="M139.995,142.122606 L104.894,142.122606 C104.563,142.122606 104.296,141.854606 104.296,141.523606 C104.296,141.192606 104.563,140.924606 104.894,140.924606 L139.995,140.924606 C140.326,140.924606 140.594,141.192606 140.594,141.523606 C140.594,141.854606 140.326,142.122606 139.995,142.122606" id="Fill-267" fill="#FFFFFF"></path>
                <path d="M139.995,144.467606 L104.894,144.467606 C104.563,144.467606 104.296,144.200606 104.296,143.869606 C104.296,143.538606 104.563,143.270606 104.894,143.270606 L139.995,143.270606 C140.326,143.270606 140.594,143.538606 140.594,143.869606 C140.594,144.200606 140.326,144.467606 139.995,144.467606" id="Fill-268" fill="#FFFFFF"></path>
                <polygon id="Fill-269" fill="#FFFFFF" points="89.707 147.415606 92.989 147.415606 92.989 133.249606 89.707 133.249606"></polygon>
                <polygon id="Fill-270" fill="#FFFFFF" points="94.713 147.415606 96.737 147.415606 96.737 133.249606 94.713 133.249606"></polygon>
                <path d="M115.886,296.365606 C107.097,301.969606 98.112,307.250606 88.956,312.231606 C90.805,310.254606 92.714,308.391606 94.304,306.624606 C99.48,300.866606 104.656,295.108606 109.832,289.350606 C110.347,288.778606 109.502,287.928606 108.986,288.504606 C103.033,295.125606 97.08,301.747606 91.127,308.368606 C86.734,313.255606 80.882,318.360606 80.491,325.370606 C80.448,326.140606 81.646,326.137606 81.688,325.370606 C81.91,321.402606 84.116,317.853606 86.834,314.615606 C86.95,314.633606 87.074,314.627606 87.204,314.557606 C97.18,309.207606 106.945,303.485606 116.49,297.399606 C117.138,296.986606 116.538,295.949606 115.886,296.365606" id="Fill-271" fill="#522E2E"></path>
                <path d="M37.603,410.985606 C32.73,418.905606 28.123,426.975606 23.784,435.205606 C23.426,435.885606 24.458,436.485606 24.819,435.805606 C29.157,427.585606 33.764,419.505606 38.637,411.585606 C39.042,410.935606 38.007,410.325606 37.603,410.985606" id="Fill-272" fill="#522E2E"></path>
                <path d="M53.098,159.074606 C50.83,153.609606 50.303,147.437606 48.878,141.713606 C47.409,135.815606 45.612,130.010606 43.548,124.295606 C43.287,123.576606 42.13,123.885606 42.393,124.613606 C44.651,130.865606 46.585,137.224606 48.127,143.691606 C48.87,146.808606 49.468,149.949606 50.107,153.088606 C50.4,154.526606 50.843,155.922606 51.161,157.348606 C51.66,159.586606 50.345,159.581606 48.434,160.462606 C47.735,160.784606 48.343,161.816606 49.038,161.495606 L52.823,159.751606 C53.037,159.652606 53.191,159.298606 53.098,159.074606" id="Fill-273" fill="#DBCBC3"></path>
                <path d="M114.549,95.9656065 C114.409,95.2096065 113.255,95.5306065 113.394,96.2846065 C115.464,107.563606 116.23,118.988606 115.705,130.442606 C115.669,131.213606 116.867,131.211606 116.902,130.442606 C117.432,118.879606 116.638,107.350606 114.549,95.9656065" id="Fill-274" fill="#DBCBC3"></path>
                <path d="M16.008,167.767606 L9.023,167.767606 C8.252,167.767606 8.251,168.964606 9.023,168.964606 L16.008,168.964606 C16.779,168.964606 16.78,167.767606 16.008,167.767606" id="Fill-275" fill="#DBCBC3"></path>
            </g>
        </g>
    </g>
</svg>