<svg width="333" height="308" viewBox="0 0 333 308" fill="none" xmlns="http://www.w3.org/2000/svg">
<mask id="mask0" mask-type="alpha" maskUnits="userSpaceOnUse" x="0" y="0" width="333" height="308">
<rect width="333" height="307.917" rx="80" fill="#C4C4C4"/>
</mask>
<g mask="url(#mask0)">
<path d="M185.157 101.301C185.157 101.301 190.251 104.069 194.489 113.912C198.728 123.755 201.833 128.598 204.082 136.876C206.322 145.153 209.928 156.7 210.171 159.658C210.413 162.608 206.538 166.56 201.859 167.252C197.179 167.944 180.676 125.995 180.676 125.995L185.157 101.301Z" fill="#F8F0EC"/>
<path d="M211.996 309.041C208.121 282.721 202.17 256.661 192.811 231.725C192.907 231.716 192.993 231.699 193.08 231.681C193.737 231.595 193.495 230.583 192.846 230.669C192.604 230.704 192.362 230.739 192.119 230.773C192.024 230.765 191.938 230.782 191.851 230.808C180.01 232.443 168.066 235.124 156.925 239.475C152.307 241.274 151.312 246.42 150.395 250.874C149.236 256.488 149.037 262.24 148.76 267.948C148.639 270.491 148.535 273.034 148.423 275.577C149.461 279.028 150.629 282.453 151.848 285.878C153.708 291.068 159.243 318.564 162.08 326.755C165.324 336.131 167.841 346.285 170.773 355.765C173.783 365.513 170.548 371.688 170.522 381.099C170.513 384.1 171.006 387.102 170.842 390.112C170.522 395.837 167.711 401.269 166.82 406.952C166.232 410.732 166.059 414.537 166.258 418.334C166.016 421.829 165.566 425.012 164.493 428.567C163.291 432.571 162.599 436.645 162.054 440.754C166.483 442.803 174.042 445.217 178.661 446.713C180.607 447.344 189.352 449.956 189.352 449.956C189.352 449.956 214.556 377.38 216.71 365.772C218.907 353.905 213.7 320.649 211.996 309.041Z" fill="#ABCAD6"/>
<path d="M150.81 360.029C154.01 345.092 155.299 328.087 156.268 312.856C157.193 298.23 156.164 284.659 158.24 270.145C160.013 257.811 161.864 245.417 161.613 232.987C142.299 234.397 122.951 235.202 103.585 235.375C103.567 234.19 103.55 233.005 103.533 231.811C103.524 231.145 102.486 231.145 102.495 231.811C102.512 233.005 102.529 234.19 102.547 235.383C102.27 235.383 102.002 235.392 101.725 235.392C101.059 235.401 101.059 236.43 101.725 236.43C102.002 236.43 102.287 236.421 102.564 236.421C102.659 243.029 102.763 249.638 102.858 256.246C102.979 264.264 103.325 272.333 102.599 280.334C101.915 287.859 101.293 294.882 102.46 302.407C103.706 310.468 105.315 318.227 104.951 326.435C104.605 334.444 103.368 342.376 103.04 350.385C102.711 358.446 102.971 366.525 103.818 374.543C104.631 382.293 106.794 389.982 107.191 397.749C107.581 405.438 104.579 412.617 103.204 420.073C101.898 427.2 101.621 434.517 102.426 441.714C102.547 442.838 102.59 444.334 102.867 445.718C111.689 447.552 120.944 450.856 129.654 448.953C131.678 448.512 133.641 447.915 135.553 447.223C135.829 446.332 136.08 445.45 136.331 444.654C137.473 441.082 147.748 374.335 150.81 360.029Z" fill="#ABCAD6"/>
<path d="M119.448 253.417C118.211 254.178 116.983 254.68 115.685 254.957C115.789 254.256 115.884 253.547 115.962 252.846C116.04 252.189 115.002 252.189 114.924 252.846C114.837 253.608 114.734 254.369 114.613 255.13C113.886 255.208 113.142 255.225 112.355 255.173C111.689 255.13 111.689 256.159 112.355 256.211C113.064 256.263 113.756 256.254 114.431 256.194C112.649 266.556 108.16 276.191 101.414 284.321C98.1442 288.257 95.2986 291.993 93.7504 296.941C91.9513 302.667 90.1868 308.168 87.3499 313.461C89.4862 314.084 91.6486 314.663 93.785 315.286C95.4283 309.586 97.1669 303.843 100.185 298.697C103.161 293.628 106.465 288.473 109.994 283.82C116.818 274.859 119.707 264.843 120.226 253.867C120.243 253.478 119.776 253.218 119.448 253.417Z" fill="#36303A"/>
<path d="M92.505 158.335C91.64 167.91 92.2801 168.394 93.5429 178.012C94.5202 185.468 92.5222 235.582 94.2348 255.943C100.506 258.572 106.716 261.02 114.068 260.96C125.347 260.873 140.466 261.695 151.692 261.331C163.334 260.951 176.862 259.714 188.357 256.886C194.143 255.467 199.593 253.166 204.774 250.347C204.488 243.894 203.623 237.572 202.767 231.085C201.815 223.828 201.712 212.696 201.418 205.448C201.098 197.586 199.056 189.819 199.298 181.939C199.575 172.97 200.077 176.066 198.814 167.114C197.793 159.831 196.401 152.609 195.787 145.274C194.688 132.223 193.616 118.825 189.525 106.361C188.642 104.917 187.596 103.559 186.316 102.33C183.531 99.6405 180.002 97.9538 176.456 96.5094C171.75 94.5893 166.881 93.0756 161.959 91.8042C152.436 89.3564 142.706 87.8428 133.019 86.2513C132.534 86.1734 132.257 86.701 132.413 87.0211C124.162 91.3457 115.901 95.6791 107.641 100.004C102.616 102.642 98.2395 105.461 95.6187 110.037C93.7332 112.277 93.1191 115.071 92.8077 117.96C92.2974 122.656 90.2561 130.787 90.6713 135.483C91.5276 145.179 93.3872 148.578 92.505 158.335Z" fill="#F8F0EC"/>
<path d="M221.769 238.272C222.211 236.663 222.409 234.994 222.288 233.23C222.055 229.735 220.005 224.65 215.974 224.191L213.968 228.498C213.968 228.498 209.505 238.488 208.735 238.54C207.965 238.601 200.873 238.48 200.215 239.267C199.558 240.054 199.714 241.55 204.082 241.957C208.449 242.363 206.754 242.848 212.497 242.104C218.24 241.36 216.883 241.412 219.806 240.123C220.628 239.76 221.268 239.068 221.769 238.272Z" fill="#87524D"/>
<path d="M156.104 78.6485L154.884 85.3172L153.569 92.5567L153.007 95.6185C152.298 99.5021 152.307 109.077 149.79 110.374C147.273 111.672 129.619 97.6338 130.519 90.1521C131.366 83.1289 132.88 70.423 132.88 69.9386L156.104 78.6485Z" fill="#87524D"/>
<path d="M147.498 83.1635C145.249 82.4369 142.775 81.053 140.448 80.7676C140.275 80.7503 140.076 80.8195 139.973 80.9752C138.814 82.6013 139.428 85.0836 140.552 86.5886C141.218 87.4795 142.083 87.9206 143.034 88.4396C144.505 89.2353 145.776 90.4203 147.221 91.1814C148.276 91.7436 149.478 91.7004 150.594 92.1242C151.372 92.4269 152.012 92.9286 152.895 92.7902C153.137 92.747 153.362 92.6778 153.569 92.548L154.884 85.3085C152.41 84.6685 149.945 83.9592 147.498 83.1635Z" fill="#5E2F2A"/>
<path d="M167.235 53.8335C167.097 52.8475 166.915 51.8874 166.69 50.936C165.947 47.6838 164.692 44.5787 162.746 41.7763C160.679 38.801 157.877 35.8602 154.573 34.2427C150.879 32.4437 145.802 32.5994 141.841 33.1962C134.1 34.3811 127.976 41.1276 125.58 48.3152C124.213 52.415 123.513 57.4057 124.732 61.6179C125.692 64.9393 127.976 66.9805 130.709 68.5893C131.271 70.1462 131.842 71.6944 132.43 73.2427C133.321 75.5693 134.324 76.1488 135.881 78.1295C138.416 81.3817 142.429 83.4921 146.442 84.8328C150.594 86.208 155.463 86.5454 159.857 85.9745C162.469 85.6458 164.199 84.0457 165.116 81.6239C167.564 75.2061 167.72 67.586 167.72 60.779C167.711 58.4609 167.59 56.117 167.235 53.8335Z" fill="#87524D"/>
<path d="M149.582 57.4316C149.582 57.4143 149.573 57.4057 149.573 57.3884C149.565 57.3711 149.556 57.3538 149.547 57.3365C149.461 57.0511 149.331 56.8002 149.141 56.6532C148.899 56.4716 148.57 56.437 148.112 56.6446C147.861 56.757 147.722 56.9732 147.619 57.1722C147.091 58.2014 146.996 61.1249 148.518 61.246C150.118 61.393 149.859 58.4263 149.582 57.4316Z" fill="#36303A"/>
<path d="M164.762 56.9473C164.762 56.9386 164.753 56.9213 164.753 56.9127C164.744 56.8954 164.736 56.8781 164.736 56.8608C164.649 56.5926 164.528 56.3678 164.346 56.238C164.122 56.0737 163.81 56.0477 163.395 56.2467C163.17 56.3591 163.049 56.558 162.954 56.7483C162.487 57.7084 162.452 60.407 163.862 60.4935C165.324 60.58 165.03 57.8554 164.762 56.9473Z" fill="#36303A"/>
<path d="M161.535 65.1382C160.748 63.6678 159.953 62.2061 159.165 60.7357C158.845 60.1475 157.955 60.6751 158.275 61.2546C159.062 62.725 159.857 64.1868 160.645 65.6572C161.293 66.8681 161.838 68.3385 160.342 69.4715C159.84 69.8521 159.183 70.1116 158.629 70.4057C158.041 70.7257 158.569 71.6166 159.148 71.2965C160.541 70.544 162.66 69.7829 162.66 67.906C162.651 66.9113 161.985 65.9858 161.535 65.1382Z" fill="#1C1C1C"/>
<path d="M161.803 73.8135C159.01 73.926 156.233 74.1768 153.509 73.3638C153.076 73.234 151.917 73.1821 152.436 74.0211C154.607 77.5241 159.857 77.403 162.487 74.4968C162.893 74.0471 162.513 73.7962 162.011 73.8135C161.942 73.8049 161.873 73.8135 161.803 73.8135Z" fill="#1C1C1C"/>
<path d="M151.052 51.6539C149.167 51.2733 146.494 51.6971 145.551 51.8961C144.124 52.1901 142.066 52.6745 141.512 54.2487C141.391 54.6033 141.746 54.8628 142.04 54.8801C144.669 55.0531 147.247 54.2141 149.919 54.3957C150.828 54.4563 153.197 55.0444 153.059 53.3318C152.981 52.3631 152.142 51.8701 151.052 51.6539Z" fill="#73301E"/>
<path d="M167.235 53.8335C166.344 53.7384 165.462 53.6778 164.563 53.7384C163.654 53.7989 161.276 54.3871 161.423 52.6831C161.492 51.7231 162.331 51.2214 163.421 51.0052C164.416 50.8062 165.626 50.8322 166.682 50.936C166.915 51.8874 167.106 52.8475 167.235 53.8335Z" fill="#73301E"/>
<path d="M171.378 43.7657C170.747 42.7537 170.202 41.7071 169.545 40.7124C168.861 39.6745 167.884 38.8788 166.777 38.3252C163.94 36.8894 160.411 36.8116 157.314 36.9154C156.043 36.9586 154.858 37.1057 153.604 36.8635C152.445 36.6299 151.45 36.0764 150.317 35.7477C148.933 35.3498 147.472 35.2374 146.036 35.3844C142.412 35.7564 139.756 38.0311 137.136 40.3665C133.918 43.238 130.891 46.3432 128.097 49.6299C125.839 52.2853 122.319 55.4509 123.288 59.2739C123.798 61.2806 125.001 63.1661 125.978 64.9739C126.851 66.6086 127.777 68.2174 128.72 69.8088C128.737 69.8521 128.737 69.8867 128.763 69.9299L129.23 70.6651C129.55 71.2014 131.782 76.4948 132.214 75.9931C133.65 74.3325 134.567 71.876 134.947 69.4283C132.214 66.5913 130.156 63.3218 130.32 59.1355C130.441 56.1256 132.465 53.9113 135.103 54.5168C135.484 54.5946 135.89 54.6638 136.098 54.4476C136.755 53.773 137.222 52.9859 137.992 52.3631C138.684 51.6798 139.315 50.9273 139.869 50.1229C140.837 48.7217 141.538 47.1994 142.04 45.5993C142.879 46.6459 144.081 47.2513 145.517 47.6146C146.624 47.8914 147.835 48.0471 148.985 48.1249C150.507 48.2287 151.9 47.7444 153.396 47.7444C156.06 47.7444 157.721 50.0797 160.402 50.4689C162.409 50.763 164.467 50.7024 165.964 49.1974C166.024 49.1369 166.068 49.0677 166.085 48.9985C166.267 49.4829 166.725 49.7337 167.123 50.0451C168.498 51.1349 170.046 51.0052 171.119 49.604C171.768 48.765 172.33 47.7617 172.485 46.6978C172.667 45.4004 172.01 44.7863 171.378 43.7657Z" fill="#73301E"/>
<path d="M163.386 34.7184C162.435 33.4902 161.293 32.7377 160.593 31.276C160.16 30.3678 159.901 29.5634 159.114 28.8801C157.946 27.8768 156.458 27.5308 155.014 27.7817C154.772 27.5741 154.512 27.3665 154.218 27.1762C152.782 26.2421 150.975 25.1696 149.426 24.4517C146.52 23.0937 142.645 23.5608 139.54 22.9726C136.193 22.3326 132.897 21.1822 129.446 21.805C126.765 22.2893 123.271 23.7078 121.221 25.5328C120.209 26.4324 119.785 27.6346 119.171 28.8023C118.245 30.5408 116.861 31.9247 115.504 33.3173C113.229 35.6612 110.963 38.1436 109.804 41.2574C108.861 43.8003 108.688 46.7497 109.855 49.258C110.72 51.109 111.905 51.3079 113.514 51.3338C113.644 52.1642 113.843 52.9686 114.206 53.7297C114.941 55.2866 116.317 56.2553 117.225 57.7084C118.142 59.1702 118.315 60.9952 119.655 62.1974C120.044 62.5434 120.503 62.725 120.935 63.0018C121.965 63.6592 122.648 64.3165 123.487 65.1728C125.13 66.8421 127.422 69.9819 127.708 68.0271C128.036 65.7523 127.215 58.7723 127.812 56.5062C128.391 54.3179 128.382 52.5015 129.732 50.7024C131.116 48.8601 132.015 46.6978 133.39 44.8382C135.786 41.5774 139.817 39.3458 143.666 38.2733C147.281 37.2614 150.827 37.1922 154.529 37.3133C156.32 37.3738 159.044 37.4343 160.826 37.5727C161.769 37.6506 165.843 37.9014 165.843 37.9014C165.843 37.9014 164.044 35.5747 163.386 34.7184Z" fill="#DCA877"/>
<path d="M122.812 37.2959C118.86 40.5654 115.209 44.3192 114.223 49.5348C114.102 50.1835 115.097 50.4689 115.218 49.8116C116.178 44.769 119.724 41.1882 123.547 38.0311C124.058 37.5987 123.323 36.8721 122.812 37.2959Z" fill="#BA8452"/>
<path d="M152.523 29.0964C136.764 27.5568 124.274 39.9859 121.731 54.8541C121.619 55.5028 122.622 55.7882 122.726 55.1309C125.191 40.6865 137.179 28.6379 152.514 30.1343C153.18 30.2035 153.18 29.1655 152.523 29.0964Z" fill="#BA8452"/>
<path d="M219.538 217.41C220.533 217.73 220.351 221.691 219.538 221.968C219.149 222.098 206.944 221.925 194.524 221.908C181.04 221.89 167.253 222.011 166.95 221.83C166.12 221.345 165.601 217.817 167.131 217.41C167.919 217.202 181.438 217.289 194.524 217.306C206.988 217.315 219.054 217.254 219.538 217.41Z" fill="#6C8685"/>
<path d="M164.234 230.35H173.999V221.207H164.234C163.153 221.207 162.271 222.09 162.271 223.171V228.386C162.271 229.467 163.153 230.35 164.234 230.35Z" fill="#6F5E61"/>
<path d="M171.294 228.879H220.846V222.626H171.294V228.879Z" fill="#F5D2B5"/>
<path d="M171.275 230.349H220.887C221.259 230.349 221.562 230.047 221.562 229.675V229.562C221.562 229.19 221.259 228.888 220.887 228.888H171.275C170.903 228.888 170.6 229.19 170.6 229.562V229.675C170.6 230.047 170.903 230.349 171.275 230.349Z" fill="#6F5E61"/>
<path d="M171.344 222.816H220.827C221.233 222.816 221.57 222.487 221.57 222.072V221.942C221.57 221.536 221.242 221.198 220.827 221.198H171.344C170.937 221.198 170.6 221.527 170.6 221.942V222.072C170.6 222.487 170.929 222.816 171.344 222.816Z" fill="#6F5E61"/>
<path d="M171.361 239.12C171.499 239.284 174.535 239.319 179.093 239.319C180.088 239.319 181.152 239.319 182.276 239.31C182.709 239.31 183.159 239.31 183.608 239.302C184.214 239.302 184.837 239.302 185.468 239.293C189.62 239.276 194.299 239.267 198.944 239.276C211.364 239.31 223.568 239.648 223.958 239.388C224.771 238.843 224.952 230.912 223.958 230.28C223.473 229.969 211.407 230.099 198.944 230.073C194.308 230.055 189.62 230.047 185.468 230.038H182.276C181.152 230.038 180.08 230.047 179.093 230.047C174.821 230.073 171.915 230.142 171.543 230.289C170.557 230.678 170.522 238.16 171.361 239.12Z" fill="#36303A"/>
<path d="M179.085 230.055V239.319C180.08 239.319 181.143 239.319 182.268 239.31V230.047C181.143 230.047 180.08 230.055 179.085 230.055Z" fill="white"/>
<path d="M183.6 230.047V239.302C184.205 239.302 184.828 239.302 185.459 239.293V230.038H183.6V230.047Z" fill="white"/>
<path d="M219.503 225.056H172.693C172.408 225.056 172.174 224.823 172.174 224.537C172.174 224.252 172.408 224.018 172.693 224.018H219.503C219.789 224.018 220.022 224.252 220.022 224.537C220.022 224.823 219.789 225.056 219.503 225.056Z" fill="white"/>
<path d="M219.503 227.538H172.693C172.408 227.538 172.174 227.305 172.174 227.019C172.174 226.734 172.408 226.5 172.693 226.5H219.503C219.789 226.5 220.022 226.734 220.022 227.019C220.022 227.305 219.789 227.538 219.503 227.538Z" fill="white"/>
<path d="M217.54 217.652H207.775V210.041H217.54C218.621 210.041 219.503 210.923 219.503 212.004V215.689C219.503 216.77 218.621 217.652 217.54 217.652Z" fill="#F5D2B5"/>
<path d="M210.482 210.231H160.93V216.173H210.482V210.231Z" fill="white"/>
<path d="M210.499 217.652H160.887C160.515 217.652 160.212 217.35 160.212 216.978V216.865C160.212 216.493 160.515 216.19 160.887 216.19H210.499C210.871 216.19 211.174 216.493 211.174 216.865V216.978C211.174 217.35 210.871 217.652 210.499 217.652Z" fill="#F5D2B5"/>
<path d="M210.413 211.641H160.921C160.515 211.641 160.177 211.312 160.177 210.897V210.767C160.177 210.361 160.506 210.023 160.921 210.023H210.404C210.811 210.023 211.148 210.352 211.148 210.767V210.897C211.148 211.312 210.819 211.641 210.413 211.641Z" fill="#F5D2B5"/>
<path d="M216.502 202.585C217.497 203.113 217.315 209.695 216.502 210.145C216.113 210.361 203.909 210.075 191.488 210.041C178.004 210.006 164.217 210.205 163.914 209.911C163.084 209.107 162.565 203.251 164.096 202.576C164.883 202.23 178.402 202.377 191.488 202.403C203.96 202.438 216.018 202.326 216.502 202.585Z" fill="#7B9FBA"/>
<path d="M169.164 207.221V205.275C169.164 204.254 169.995 203.433 171.006 203.433H209.894C210.915 203.433 211.736 204.263 211.736 205.275V207.221C211.736 208.242 210.906 209.063 209.894 209.063H171.015C169.995 209.072 169.164 208.242 169.164 207.221ZM171.015 204.107C170.375 204.107 169.847 204.635 169.847 205.275V207.221C169.847 207.861 170.375 208.389 171.015 208.389H209.903C210.543 208.389 211.07 207.861 211.07 207.221V205.275C211.07 204.635 210.543 204.107 209.903 204.107H171.015Z" fill="#F8F0EC"/>
<path d="M213.31 196.375C214.305 196.79 214.123 202.049 213.31 202.403C212.921 202.576 200.717 202.352 188.296 202.326C174.812 202.3 161.025 202.455 160.722 202.222C159.892 201.582 159.373 196.911 160.904 196.375C161.691 196.098 175.21 196.21 188.296 196.236C200.769 196.254 212.826 196.167 213.31 196.375Z" fill="#36303A"/>
<path d="M157.98 196.332H167.746V182.51H157.98C156.899 182.51 156.017 183.392 156.017 184.473V194.377C156.017 195.458 156.899 196.332 157.98 196.332Z" fill="#87524D"/>
<path d="M165.042 194.865H214.594V184.122H165.042V194.865Z" fill="white"/>
<path d="M165.021 196.332H214.634C215.006 196.332 215.308 196.029 215.308 195.657V195.544C215.308 195.173 215.006 194.87 214.634 194.87H165.021C164.649 194.87 164.346 195.173 164.346 195.544V195.657C164.346 196.029 164.649 196.332 165.021 196.332Z" fill="#87524D"/>
<path d="M165.09 184.119H214.573C214.98 184.119 215.317 183.79 215.317 183.375V183.245C215.317 182.839 214.988 182.501 214.573 182.501H165.09C164.684 182.501 164.346 182.83 164.346 183.245V183.375C164.346 183.79 164.675 184.119 165.09 184.119Z" fill="#87524D"/>
<path d="M160.8 189.646C160.8 192.526 161.285 194.861 161.881 194.861C162.478 194.861 162.963 192.526 162.963 189.646C162.963 186.765 162.478 184.43 161.881 184.43C161.285 184.439 160.8 186.774 160.8 189.646Z" fill="#F5D2B5"/>
<path d="M213.639 186.324H166.146C165.86 186.324 165.627 186.091 165.627 185.805C165.627 185.52 165.86 185.286 166.146 185.286H213.639C213.925 185.286 214.158 185.52 214.158 185.805C214.158 186.091 213.925 186.324 213.639 186.324Z" fill="#F5D2B5"/>
<path d="M213.639 188.893H166.146C165.86 188.893 165.627 188.66 165.627 188.374C165.627 188.089 165.86 187.855 166.146 187.855H213.639C213.925 187.855 214.158 188.089 214.158 188.374C214.158 188.66 213.925 188.893 213.639 188.893Z" fill="#F5D2B5"/>
<path d="M213.639 191.462H166.146C165.86 191.462 165.627 191.228 165.627 190.943C165.627 190.658 165.86 190.424 166.146 190.424H213.639C213.925 190.424 214.158 190.658 214.158 190.943C214.158 191.228 213.925 191.462 213.639 191.462Z" fill="#F5D2B5"/>
<path d="M213.639 194.031H166.146C165.86 194.031 165.627 193.797 165.627 193.512C165.627 193.226 165.86 192.993 166.146 192.993H213.639C213.925 192.993 214.158 193.226 214.158 193.512C214.158 193.797 213.925 194.031 213.639 194.031Z" fill="#F5D2B5"/>
<path d="M103.792 167.252L128.305 162.936C128.305 162.936 134.515 183.842 135.207 185.9C135.899 187.968 167.235 231.318 167.235 231.318L165.765 238.54L155.066 236.473C155.066 236.473 122.094 206.841 115.365 196.193C108.627 185.546 103.792 167.252 103.792 167.252Z" fill="#87524D"/>
<path d="M168.178 230.349C168.178 230.349 178.626 239.483 179.396 239.483C180.175 239.475 189.291 238.584 190.009 239.31C190.736 240.037 190.441 241.049 186.125 241.827C181.809 242.606 178.358 243.557 172.572 243.298C166.786 243.038 166.362 243.471 163.334 242.433C160.316 241.395 155.048 236.473 155.048 236.473L156.346 231.725L168.178 230.349Z" fill="#87524D"/>
<path d="M164.208 228.879C164.208 228.879 166.708 228.014 171.283 228.879C175.859 229.744 180.131 233.195 182.83 233.801C185.529 234.406 186.644 237.477 181.905 236.845C177.156 236.214 170.487 235.703 170.487 235.703L164.208 228.879Z" fill="#87524D"/>
<path d="M212.714 172.736V180.745C212.714 181.731 211.927 182.519 210.94 182.519H156.657C155.671 182.519 154.884 181.731 154.884 180.745V172.736C154.884 171.75 155.671 170.963 156.657 170.963H210.949C211.926 170.963 212.714 171.75 212.714 172.736Z" fill="#E66C6C"/>
<path d="M201.409 170.963H198.217V182.51H201.409V170.963Z" fill="white"/>
<path d="M208.925 171.041H199.16V161.898H208.925C210.006 161.898 210.889 162.781 210.889 163.862V169.077C210.889 170.159 210.006 171.041 208.925 171.041Z" fill="#36303A"/>
<path d="M201.859 163.317H152.307V169.57H201.859V163.317Z" fill="white"/>
<path d="M201.876 171.041H152.263C151.891 171.041 151.589 170.738 151.589 170.366V170.254C151.589 169.882 151.891 169.579 152.263 169.579H201.876C202.248 169.579 202.551 169.882 202.551 170.254V170.366C202.559 170.738 202.257 171.041 201.876 171.041Z" fill="#36303A"/>
<path d="M201.815 163.507H152.332C151.926 163.507 151.589 163.179 151.589 162.763V162.634C151.589 162.227 151.917 161.89 152.332 161.89H201.815C202.222 161.89 202.559 162.218 202.559 162.634V162.763C202.559 163.179 202.222 163.507 201.815 163.507Z" fill="#36303A"/>
<path d="M207.939 169.57C208.354 169.57 208.683 169.233 208.683 168.827V164.26C208.683 163.845 208.346 163.516 207.939 163.516C207.524 163.516 207.195 163.853 207.195 164.26V168.827C207.195 169.233 207.524 169.57 207.939 169.57Z" fill="#F5D2B5"/>
<path d="M209.496 149.089C210.491 149.495 210.309 154.642 209.496 154.988C209.107 155.152 196.903 154.936 184.482 154.91C170.998 154.884 157.211 155.04 156.908 154.806C156.078 154.183 155.559 149.608 157.09 149.08C157.877 148.812 171.396 148.924 184.482 148.942C196.946 148.968 209.012 148.89 209.496 149.089Z" fill="#6F5E61"/>
<path d="M199.471 151.909C199.471 153.068 198.909 154.002 198.217 154.002C197.525 154.002 196.963 153.068 196.963 151.909C196.963 150.749 197.525 149.815 198.217 149.815C198.909 149.815 199.471 150.749 199.471 151.909Z" fill="white"/>
<path d="M194.498 154.002C195.191 154.002 195.752 153.065 195.752 151.909C195.752 150.752 195.191 149.815 194.498 149.815C193.805 149.815 193.244 150.752 193.244 151.909C193.244 153.065 193.805 154.002 194.498 154.002Z" fill="white"/>
<path d="M206.737 161.743C206.599 161.907 203.563 161.942 199.004 161.942C198.01 161.942 196.946 161.942 195.822 161.933C195.389 161.933 194.939 161.933 194.49 161.924C193.884 161.924 193.261 161.924 192.63 161.916C188.478 161.898 183.799 161.89 179.154 161.898C166.734 161.933 154.53 162.27 154.14 162.011C153.327 161.466 153.146 155.602 154.14 154.979C154.625 154.668 166.69 154.797 179.154 154.771C183.79 154.754 188.478 154.745 192.63 154.737H195.822C196.946 154.737 198.018 154.745 199.004 154.745C203.277 154.771 206.183 154.841 206.555 154.988C207.533 155.377 207.576 160.783 206.737 161.743Z" fill="#6C8685"/>
<path d="M199.004 154.745V161.942C198.01 161.942 196.946 161.942 195.822 161.933V154.737C196.946 154.737 198.018 154.745 199.004 154.745Z" fill="white"/>
<path d="M194.498 154.737V161.924C193.893 161.924 193.27 161.924 192.639 161.916V154.737H194.498Z" fill="white"/>
<path d="M159.773 147.651H209.326V138.292H159.773V147.651Z" fill="#F5D2B5"/>
<path d="M159.754 149.123H209.366C209.738 149.123 210.041 148.821 210.041 148.449V148.336C210.041 147.964 209.738 147.662 209.366 147.662H159.754C159.382 147.662 159.079 147.964 159.079 148.336V148.449C159.079 148.821 159.382 149.123 159.754 149.123Z" fill="#7B9FBA"/>
<path d="M159.823 138.485H209.306C209.712 138.485 210.05 138.156 210.05 137.741V137.611C210.05 137.205 209.721 136.867 209.306 136.867H159.823C159.416 136.867 159.079 137.196 159.079 137.611V137.741C159.079 138.156 159.408 138.485 159.823 138.485Z" fill="#7B9FBA"/>
<path d="M177.07 136.876V149.132H152.704C151.623 149.132 150.75 148.25 150.75 147.16V138.839C150.75 137.749 151.632 136.867 152.704 136.867H177.07V136.876Z" fill="#7B9FBA"/>
<path d="M208.441 140.535H178.082C177.796 140.535 177.563 140.301 177.563 140.016C177.563 139.73 177.796 139.497 178.082 139.497H208.441C208.726 139.497 208.96 139.73 208.96 140.016C208.96 140.301 208.735 140.535 208.441 140.535Z" fill="white"/>
<path d="M208.441 142.567H178.082C177.796 142.567 177.563 142.334 177.563 142.048C177.563 141.763 177.796 141.529 178.082 141.529H208.441C208.726 141.529 208.96 141.763 208.96 142.048C208.96 142.334 208.735 142.567 208.441 142.567Z" fill="white"/>
<path d="M208.441 144.548H178.082C177.796 144.548 177.563 144.314 177.563 144.029C177.563 143.744 177.796 143.51 178.082 143.51H208.441C208.726 143.51 208.96 143.744 208.96 144.029C208.96 144.314 208.735 144.548 208.441 144.548Z" fill="white"/>
<path d="M208.441 146.58H178.082C177.796 146.58 177.563 146.347 177.563 146.062C177.563 145.776 177.796 145.543 178.082 145.543H208.441C208.726 145.543 208.96 145.776 208.96 146.062C208.96 146.347 208.735 146.58 208.441 146.58Z" fill="white"/>
<path d="M167.789 136.876H164.952V149.132H167.789V136.876Z" fill="white"/>
<path d="M171.024 136.876H169.277V149.132H171.024V136.876Z" fill="white"/>
<path d="M187.596 277.964C179.993 282.816 172.226 287.383 164.303 291.691C165.903 289.978 167.555 288.369 168.931 286.838C173.411 281.856 177.883 276.874 182.363 271.901C182.804 271.408 182.078 270.673 181.628 271.166C176.481 276.892 171.326 282.617 166.18 288.343C162.383 292.573 157.314 296.984 156.977 303.047C156.943 303.713 157.972 303.713 158.015 303.047C158.205 299.613 160.117 296.543 162.47 293.749C162.573 293.766 162.677 293.758 162.79 293.697C171.422 289.07 179.863 284.122 188.123 278.855C188.677 278.5 188.158 277.601 187.596 277.964Z" fill="#7495A2"/>
<path d="M133.287 159.217C131.323 154.486 130.873 149.149 129.637 144.202C128.365 139.099 126.808 134.082 125.026 129.135C124.802 128.512 123.798 128.78 124.032 129.412C125.987 134.817 127.656 140.318 128.988 145.914C129.628 148.613 130.147 151.329 130.7 154.045C130.951 155.29 131.341 156.493 131.609 157.73C132.041 159.667 130.899 159.658 129.247 160.419C128.642 160.696 129.17 161.587 129.766 161.31L133.036 159.805C133.235 159.71 133.364 159.407 133.287 159.217Z" fill="#DBCBC3"/>
<path d="M186.437 104.631C186.316 103.974 185.321 104.251 185.442 104.908C187.233 114.664 187.899 124.542 187.44 134.454C187.406 135.12 188.444 135.12 188.478 134.454C188.928 124.447 188.245 114.474 186.437 104.631Z" fill="#DBCBC3"/>
<path d="M101.206 166.733H95.1604C94.4944 166.733 94.4944 167.771 95.1604 167.771H101.206C101.872 167.771 101.872 166.733 101.206 166.733Z" fill="#DBCBC3"/>
</g>
</svg>
