<svg width="334" height="309" viewBox="0 0 334 309" fill="none" xmlns="http://www.w3.org/2000/svg">
<mask id="mask0" mask-type="alpha" maskUnits="userSpaceOnUse" x="0" y="0" width="334" height="309">
<rect y="0.244751" width="334" height="308.511" rx="80" fill="#C4C4C4"/>
</mask>
<g mask="url(#mask0)">
<path d="M50.6254 224.155L42.5886 285.904L48.0574 285.94L61.9354 226.311L50.6254 224.155Z" fill="#C7916D"/>
<path d="M284.094 221.497L292.131 283.246L286.662 283.283L272.784 223.653L284.094 221.497Z" fill="#C7916D"/>
<path d="M300.59 144.44C292.231 142.965 106.826 146.586 84.2625 146.964C61.699 146.586 42.6184 145.626 34.2589 147.097C24.1398 148.881 21.1626 148.881 21.1626 152.446C21.1626 156.014 31.5778 219.916 36.6374 227.643C41.6969 235.37 48.1703 238.188 91.1517 238.045C117.434 237.958 216.886 235.453 243.178 235.241C258.444 235.118 278.938 235.091 290.321 233.865C300.497 232.769 300.44 220.128 302.563 211.305C304.884 201.644 306.751 191.87 308.527 182.096C309.824 174.97 311.052 167.828 312.179 160.675C312.735 157.147 313.683 153.376 313.683 149.788C313.686 146.224 310.709 146.224 300.59 144.44Z" fill="#7B9FBA"/>
<path d="M22.0376 159.057C22.0376 159.057 18.455 140.48 19.2001 136.167C19.7789 132.829 25.261 132.114 27.8889 131.779C32.7422 131.158 35.4599 131.885 37.1232 136.536C38.4338 140.197 40.3831 144.928 40.3898 148.881C40.3865 149.626 22.0376 159.057 22.0376 159.057Z" fill="#7B9FBA"/>
<path d="M297.467 82.322C294.403 78.7009 279.041 79.0032 259.482 78.8902C222.511 78.6776 112.342 81.332 75.3711 81.5479C55.8114 81.6609 40.4464 81.3586 37.3861 84.9797C35.154 87.6208 35.7794 97.285 35.8991 108.461C36.0887 126.52 36.6443 147.101 36.6443 147.101C36.6443 147.101 66.1069 167.313 66.8121 167.608C67.4674 167.884 75.7803 158.639 83.3879 157.353C91.2085 158.635 267.392 165.226 268.047 164.951C268.753 164.655 298.215 144.443 298.215 144.443C298.215 144.443 298.771 123.862 298.96 105.803C299.07 94.6273 299.699 84.9598 297.467 82.322Z" fill="#7B9FBA"/>
<path d="M61.3731 231.51C61.1735 231.51 60.9906 231.374 60.9407 231.171C60.312 228.623 45.4992 168.735 45.2796 167.708C45.2264 167.469 45.3794 167.23 45.6222 167.18C45.8584 167.13 46.1012 167.28 46.1511 167.522C46.3707 168.539 61.6525 230.337 61.8089 230.962C61.8687 231.201 61.7224 231.444 61.4829 231.503C61.4463 231.507 61.4097 231.51 61.3731 231.51Z" fill="#517996"/>
<path d="M275.505 228.852C275.472 228.852 275.439 228.849 275.405 228.842C275.166 228.789 275.013 228.55 275.069 228.311C275.259 227.474 294.074 144.576 294.293 143.556C294.343 143.317 294.579 143.164 294.822 143.214C295.061 143.264 295.214 143.503 295.165 143.742C294.945 144.765 276.127 227.67 275.938 228.504C275.894 228.713 275.708 228.852 275.505 228.852Z" fill="#517996"/>
<path d="M277.378 207.152L57.3913 209.81C57.1451 209.81 56.9456 209.61 56.9456 209.365C56.9456 209.119 57.1451 208.919 57.3913 208.919L277.378 206.262C277.624 206.262 277.824 206.461 277.824 206.707C277.824 206.953 277.624 207.152 277.378 207.152Z" fill="#517996"/>
<path d="M312.842 156.399C312.842 156.399 316.424 137.822 315.679 133.51C315.1 130.171 309.618 129.457 306.99 129.121C302.137 128.5 299.419 129.228 297.756 133.879C296.445 137.54 294.496 142.27 294.49 146.224C294.49 146.968 312.842 156.399 312.842 156.399Z" fill="#7B9FBA"/>
<path d="M209.119 134.257C208.72 133.141 207.609 132.45 207.066 131.404C207.336 131.517 207.602 131.626 207.871 131.742C208.068 131.825 208.211 131.526 208.015 131.443C206.644 130.855 205.26 130.294 203.866 129.766C203.168 129.5 202.469 129.244 201.764 128.995C201.355 128.849 200.803 128.566 200.35 128.649C199.456 128.816 192.892 142.074 191.519 140.742C190.697 139.945 193.647 124.075 196.069 118.258C193.857 118.045 192.773 117.859 190.594 117.427C188.002 124.188 183.508 138.51 182.873 141.194C182.268 143.759 181.556 146.436 181.829 149.094C182.045 151.224 183.053 153.213 184.959 154.29C186.732 155.29 188.914 155.37 190.857 154.901C195.893 153.689 205.613 139.37 207.981 136.895C208.693 136.154 209.515 135.374 209.119 134.257Z" fill="#F7A37A"/>
<path d="M172.059 93.3483C171.357 92.3915 170.901 91.3583 171.011 90.1823C171.101 89.2355 171.476 88.3318 171.872 87.4515C172.933 85.8369 174.001 84.2223 174.69 82.4483C175.588 80.1294 175.691 77.5946 174.69 75.2857C174.068 73.8572 172.88 72.7775 172.261 71.3589C171.656 69.9703 171.636 68.4188 171.147 66.9936C170.282 64.4688 167.987 63.4123 165.602 62.7911C162.754 61.1201 158.936 61.5719 156.437 63.6216C153.36 63.3094 149.625 63.5718 147.755 66.193C146.811 67.5185 146.844 69.1497 145.829 70.462C144.785 71.8107 143.491 73.0001 142.43 74.3456C140.457 76.8438 138.9 79.8205 139.216 82.9366C139.289 83.6542 139.492 84.332 139.722 85.0163C140.091 86.1292 140.208 87.0495 139.615 88.1292C138.897 89.4348 138.305 90.6374 138.218 92.1124C138.112 93.9297 138.79 95.5941 139.619 97.2053C140.341 98.6139 141.082 100.013 141.821 101.414C141.911 104.026 140.84 106.7 141.502 109.295C141.851 110.667 142.656 112.012 144.406 111.899C146.515 111.76 148.474 110.806 150.603 110.766C151.804 110.743 152.795 111.115 153.78 111.677C154.558 112.118 155.32 112.603 156.241 112.77C158.343 113.148 160.359 111.926 162.412 111.7C166.171 111.285 170.312 112.866 173.738 110.743C176.473 109.049 177.68 105.833 177.364 102.973C177.171 101.235 176.503 99.5773 175.605 98.0491C174.6 96.3515 173.223 94.9363 172.059 93.3483Z" fill="#421818"/>
<path d="M259.252 101.345C258.464 100.484 257.423 99.9361 256.448 99.3149C255.141 98.481 254.159 97.4445 253.68 95.9429C252.762 93.0825 253.634 90.0228 253.401 87.0927C253.201 84.5679 252.446 82.0928 251.229 79.8703C250.557 78.6478 249.742 77.5348 248.817 76.4917C248.368 75.9834 247.869 75.4618 247.63 74.8107C247.327 73.9868 247.606 73.1297 247.733 72.2991C248.092 69.957 248.158 66.7545 246.652 64.7645C245.235 62.8941 242.547 62.3891 240.355 62.8476C238.003 63.3426 235.954 64.8841 234.883 67.0368C234.786 67.2295 235.089 67.3724 235.182 67.1797C235.195 67.1531 235.209 67.1299 235.222 67.1066C235.554 68.8673 234.789 70.8042 234.59 72.5516C234.397 74.2492 234.347 75.9601 234.314 77.6677C234.28 79.3953 234.217 81.1427 234.497 82.8536C234.746 84.3752 235.322 85.714 236.163 86.9963C237.128 88.4647 238.063 89.9032 238.711 91.5477C239.357 93.1789 239.729 94.8765 239.919 96.614C240.072 98.0359 240.165 99.5076 240.737 100.836C241.263 102.059 242.197 102.939 243.225 103.75C244.642 104.87 245.936 105.929 246.632 107.654C247.314 109.348 247.457 111.202 247.586 113.002C247.593 113.072 247.65 113.142 247.723 113.152C250.437 113.52 252.599 111.733 254.795 110.444C255.443 110.065 256.112 109.717 256.827 109.484C257.599 109.232 258.344 109.298 259.119 109.145C260.071 108.952 260.427 108.039 260.659 107.188C261.205 105.179 260.663 102.886 259.252 101.345Z" fill="#421818"/>
<path d="M77.7531 195.232C78.0824 195.82 78.4184 196.405 78.7643 196.983C79.0936 197.538 79.5793 198.109 79.8255 198.704C80.2446 199.717 79.3598 200.312 78.7377 200.97C78.1988 201.541 77.6599 202.112 77.121 202.68C71.3463 195.594 65.7877 188.332 60.4487 180.914C62.4114 178.768 64.1444 176.432 65.6314 173.924C69.0543 178.233 71.5558 183.143 74.0141 188.04C75.2249 190.455 76.4325 192.873 77.7531 195.232Z" fill="#F7A37A"/>
<path d="M83.541 203.508C83.4745 203.448 83.378 203.431 83.3048 203.494C81.3489 205.228 79.9384 207.527 79.3629 210.085C79.0536 211.461 79.0103 212.873 78.874 214.271C78.8041 215.009 78.711 215.746 78.5347 216.467C78.3783 217.102 78.069 218.583 77.3538 218.896C77.3371 218.716 77.0444 218.71 77.0244 218.909C76.9213 220.075 78.2519 221.769 79.4461 220.909C81.2058 219.633 82.3734 217.733 82.6129 215.587C82.879 213.205 82.8358 210.776 83.5843 208.471C83.8836 207.547 84.6155 206.634 84.7219 205.66C84.825 204.75 84.1631 204.076 83.541 203.508Z" fill="#421818"/>
<path d="M78.2685 195.049C77.6664 195.564 77.0609 196.076 76.4589 196.591C76.1761 196.83 75.8967 197.069 75.6139 197.308C75.4543 197.445 75.2913 197.581 75.1316 197.72C74.9653 197.794 74.8688 197.91 74.8455 198.063C74.8222 198.029 74.7923 198.003 74.7524 197.99C74.749 197.973 74.7457 197.956 74.7391 197.943C74.6792 197.74 74.3532 197.803 74.4131 198.009C75.4875 201.677 75.727 205.491 75.8035 209.292C75.8401 211.139 76.1794 213.438 76.2327 215.281C76.2759 216.723 76.0996 218.491 76.5354 219.258C77.0975 220.248 79.0834 219.733 79.8119 218.942C80.7467 217.922 80.9363 216.444 81.0128 215.122C81.1126 213.421 80.9429 211.673 81.3687 210.009C81.7613 208.474 82.869 207.189 83.0985 205.611C83.338 203.976 82.4099 202.571 81.4885 201.315C80.8664 200.468 80.2411 199.641 79.7853 198.69C79.2431 197.558 78.8938 196.348 78.5446 195.146C78.508 195.016 78.3683 194.963 78.2685 195.049Z" fill="#F7A37A"/>
<path d="M80.6639 211.016C80.0418 210.952 79.4098 210.943 78.7877 211.019C77.7698 211.145 76.1532 211.614 75.5744 212.577C75.3548 212.939 75.4812 213.328 75.5311 213.733C75.6342 214.54 75.7374 215.351 75.8438 216.158C75.8604 216.281 75.9702 216.308 76.06 216.271C76.1099 216.271 76.1598 216.255 76.1931 216.198C76.7719 215.218 77.9495 214.826 78.9907 214.524C79.7757 214.298 80.5674 214.188 81.3558 214.364C81.3325 214.65 81.3125 214.932 81.2992 215.198C81.2893 215.414 81.6019 215.424 81.6319 215.215C81.6385 215.165 81.6452 215.118 81.6518 215.069C81.6552 215.035 81.6485 215.009 81.6385 214.986C81.6452 214.806 81.6518 214.627 81.6585 214.447C81.6785 214.454 81.6984 214.457 81.7217 214.464C81.9246 214.534 82.0244 214.218 81.8215 214.148C81.7716 214.132 81.7217 214.122 81.6718 214.105C81.6818 213.673 81.6884 213.238 81.6884 212.806C81.6884 212.421 81.8415 211.587 81.572 211.255C81.3891 211.032 80.9067 211.039 80.6639 211.016Z" fill="#421818"/>
<path d="M83.3681 203.162C82.5797 202.455 81.3456 202.059 80.3343 201.83C79.4528 201.627 78.5214 201.494 77.6432 201.773C76.5688 202.116 75.4477 202.773 74.7658 203.687C74.7093 203.704 74.666 203.75 74.666 203.83C74.666 204.484 74.7259 205.122 74.8423 205.763C74.859 205.846 74.9554 205.92 75.0386 205.893C76.948 205.318 79.4362 204.906 81.3655 205.614C81.808 205.777 82.6995 206.471 83.2084 206.282C83.4446 206.192 83.6043 205.979 83.7107 205.72C83.7739 205.704 83.8305 205.657 83.8438 205.577C83.9735 204.66 84.1199 203.84 83.3681 203.162Z" fill="#421818"/>
<path d="M168.572 270.549C168.31 271.17 168.054 271.795 167.807 272.419C167.571 273.02 167.418 273.751 167.099 274.313C166.553 275.266 165.542 274.931 164.641 274.844C163.859 274.768 163.077 274.695 162.295 274.618C164.354 265.715 166.68 256.878 169.264 248.114C172.165 248.343 175.076 248.277 177.97 247.908C176.666 253.25 174.321 258.237 171.959 263.18C170.795 265.622 169.627 268.06 168.572 270.549Z" fill="#F7A37A"/>
<path d="M55.5955 287.08C55.2529 287.661 54.9169 288.246 54.5876 288.834C54.2749 289.399 54.0254 290.103 53.6329 290.615C52.9642 291.488 52.0096 291.023 51.128 290.817C50.3629 290.638 49.5979 290.462 48.8328 290.282C52.0594 281.731 55.5423 273.283 59.2746 264.941C62.1187 265.556 65.0128 265.874 67.9301 265.894C65.9242 271.017 62.9337 275.648 59.9365 280.233C58.4529 282.495 56.9693 284.754 55.5955 287.08Z" fill="#F7A37A"/>
<path d="M130.864 156.539C129.47 156.233 127.936 156.798 126.606 157.154C122.747 158.18 118.928 159.373 115.173 160.725C114.81 160.854 114.441 160.994 114.072 161.134C109.441 158.984 103.959 158.546 98.9227 158.293C98.3406 158.263 97.7053 158.243 97.2129 158.609C96.6375 159.037 96.4246 159.874 96.1351 160.496C95.3235 162.25 94.3987 163.947 93.3642 165.579C92.323 167.22 91.1288 168.758 90.0909 170.402C89.6652 171.073 89.0963 171.834 88.9732 172.635C88.8535 173.416 89.3891 173.984 89.7683 174.608C90.9525 176.545 91.5114 178.794 91.4748 181.037C90.9758 181.963 90.4934 182.897 90.0377 183.84C85.5769 193.03 83.0455 202.986 79.1036 212.388C77.0844 217.205 74.6594 221.806 71.6024 226.052C68.8214 229.912 65.7212 233.563 63.3228 237.683C62.1885 239.629 61.2271 241.676 60.5784 243.835C59.8267 246.327 59.6603 248.921 59.2013 251.473C58.7023 254.23 57.6312 256.616 55.9247 258.838C54.4045 260.818 52.6514 262.612 51.0647 264.539C49.4913 266.449 48.011 268.432 46.6272 270.479C50.5857 270.456 54.5442 270.27 58.4961 270.087C62.1818 269.914 65.8675 269.801 69.5533 269.619C69.7728 269.09 69.9957 268.565 70.2286 268.047C71.5558 265.087 73.2556 262.502 75.6208 260.26C77.9959 258.008 80.6837 256.094 82.9423 253.715C85.2443 251.29 86.6381 248.443 87.6792 245.294C88.8136 241.859 89.735 238.397 91.671 235.297C93.6835 232.078 96.3314 229.314 98.8762 226.517C104.475 220.361 110.073 214.208 115.672 208.052C120.495 202.744 125.368 197.275 128.349 190.677C131.279 184.183 132.257 177.03 132.593 169.97C132.68 168.127 132.723 166.28 132.746 164.436C132.77 162.648 132.883 160.815 132.753 159.031C132.663 157.825 132.104 156.811 130.864 156.539Z" fill="#A67A6F"/>
<path d="M234.653 89.7437C231.067 90.1025 227.484 90.4613 223.898 90.8201C223.902 90.2387 223.902 89.6607 223.905 89.0793C223.905 88.8667 223.596 88.8235 223.592 89.0394C223.589 89.6441 223.589 90.2487 223.586 90.8533L222.641 90.9463C222.441 90.9663 222.491 91.2952 222.691 91.2752C222.99 91.2453 223.286 91.2154 223.586 91.1855C223.562 96.8066 223.542 102.431 223.519 108.052C223.519 108.158 223.592 108.255 223.699 108.238C226.067 107.883 228.436 107.527 230.801 107.175C231.366 107.089 231.935 107.012 232.501 106.919C232.78 106.876 233.109 106.85 233.326 106.634C233.831 106.132 233.798 104.853 233.894 104.188C234.593 99.481 234.899 94.7104 234.833 89.9298C234.833 89.8168 234.763 89.7338 234.653 89.7437Z" fill="#F7A37A"/>
<path d="M239.124 74.8704C239.104 75.2824 239.077 75.6877 239.04 76.0863C238.748 79.5414 237.776 82.9067 236.622 86.1691C236.06 87.7637 235.408 89.3118 234.506 90.7536C233.585 92.2187 232.507 93.5874 231.429 94.9429C229.683 97.1488 225.741 98.8132 223.09 99.3946C219.767 100.125 218.177 99.5308 216.743 97.3049C214.528 93.8598 213.909 90.3517 213.952 87.2654C213.989 84.7439 214.045 82.7007 214.281 80.6211C214.355 79.9666 214.448 79.3055 214.564 78.6211C214.84 77.0099 215.243 75.2857 215.845 73.2359C219.334 72.3821 222.352 71.6147 225.868 70.8905C226.357 70.7875 226.846 70.6911 227.335 70.5915C227.611 70.5583 227.89 70.5217 228.17 70.4852C228.293 70.5284 228.426 70.5682 228.562 70.5981C230.631 71.0898 232.657 71.6579 234.62 72.4918C236.183 73.1595 237.627 74.0731 239.124 74.8704Z" fill="#F7A37A"/>
<path d="M217.169 84.4117C217.076 85.1625 216.673 85.7306 216.274 85.6807C215.875 85.6309 215.629 84.9798 215.725 84.229C215.818 83.4781 216.221 82.9101 216.62 82.9599C217.019 83.0097 217.265 83.6609 217.169 84.4117Z" fill="#421818"/>
<path d="M226.021 85.5412C225.901 86.2887 225.482 86.8435 225.083 86.7771C224.687 86.714 224.461 86.0562 224.584 85.3087C224.707 84.5612 225.123 84.0064 225.522 84.0728C225.918 84.136 226.144 84.7938 226.021 85.5412Z" fill="#421818"/>
<path d="M223.12 93.2187C223.077 93.1755 222.964 93.1356 222.887 93.1323C222.774 93.129 222.664 93.119 222.548 93.1124C221.074 92.9994 219.651 92.5742 218.177 92.418C218.127 92.4114 218.081 92.4081 218.027 92.4047C217.947 92.3948 217.854 92.4778 217.858 92.5642C217.944 93.727 218.686 94.7269 219.87 94.9562C221.144 95.1987 222.282 94.398 223.11 93.5276C223.213 93.418 223.2 93.2951 223.12 93.2187Z" fill="#D38262"/>
<path d="M218.177 92.418C218.483 93.1722 219.115 93.7502 219.983 93.9163C220.938 94.1024 221.813 93.6971 222.548 93.1124C221.071 92.9994 219.647 92.5742 218.177 92.418Z" fill="white"/>
<path d="M240.265 74.701C240.262 74.3156 240.235 73.9303 240.178 73.5515C240.118 73.4785 240.062 73.4054 240.005 73.3256C239.49 72.5615 238.745 71.7675 237.996 70.7543C237.996 70.751 237.993 70.751 237.993 70.7476C237.75 70.5583 237.507 70.3689 237.268 70.1729C237.061 70.0068 236.862 69.8307 236.666 69.6547C235.714 69.5052 234.75 69.4055 233.795 69.3025C231.513 69.06 229.214 68.9271 226.922 69.0201C224.657 69.1131 222.395 69.4288 220.219 70.0766C219.155 70.3922 218.031 70.7742 217.059 71.3622C217.771 71.3058 218.523 71.2659 219.295 71.2493C219.444 71.1829 219.594 71.1164 219.754 71.0633C222.172 70.2493 225.013 70.5683 227.139 72.02C227.787 70.9304 229.49 70.432 230.428 71.7875C231.802 73.7741 232.767 76.083 232.833 78.5215C232.86 79.4716 232.335 80.1062 231.666 80.3919C231.752 81.1493 231.912 81.8935 232.388 82.5114C232.877 83.1459 233.738 83.6509 234.424 83.8369C234.47 83.9499 234.517 84.0628 234.57 84.1758C234.826 84.714 235.019 84.9565 235.089 85.4681C235.079 85.5744 235.076 85.6774 235.059 85.7837C234.853 87.1425 233.971 88.0195 233.329 89.169C233.296 89.2288 233.269 89.2919 233.239 89.3517C232.814 90.4414 232.71 91.6905 233.409 92.7137C233.735 93.1954 234.127 93.5808 234.46 94.0193C234.473 94.0293 234.487 94.0426 234.503 94.0526C234.577 94.1024 234.676 94.109 234.736 94.0326C237.677 90.365 238.791 85.5412 240.175 81.146C240.86 78.9799 241.153 76.8438 240.265 74.701Z" fill="#421818"/>
<path d="M223.629 81.9964C223.902 82.136 224.288 82.0961 224.58 82.1028C225.173 82.1194 225.758 82.1526 226.34 82.2556C227.305 82.425 228.107 83.0595 229.048 83.209C229.45 83.2722 230.079 83.219 230.172 82.7174C230.272 82.1792 229.63 81.5712 229.264 81.2689C227.927 80.1593 225.811 79.7905 224.198 80.4018C224.175 80.4118 224.158 80.4217 224.145 80.435C223.832 80.5347 223.549 80.7207 223.363 81.0164C223.123 81.4018 223.223 81.7872 223.629 81.9964Z" fill="#421818"/>
<path d="M218.676 79.5547C217.485 78.8005 215.855 78.5946 214.468 78.9766C214.351 79.661 214.258 80.3221 214.185 80.9766C214.754 80.9201 215.333 80.8802 215.905 80.9068C216.883 80.9533 217.758 81.4782 218.716 81.5081C219.125 81.5214 219.74 81.3885 219.767 80.8802C219.79 80.3287 219.078 79.8105 218.676 79.5547Z" fill="#421818"/>
<path d="M236.22 84.3386C235.521 83.6841 234.483 83.9432 233.742 84.3618C233.605 84.4382 233.668 84.6077 233.785 84.6509C233.066 86.4847 232.474 88.3551 232.015 90.2719C231.992 90.3716 232.082 90.4879 232.188 90.4713C234.214 90.1656 235.97 88.7305 236.559 86.7471C236.789 85.9731 236.872 84.9465 236.22 84.3386Z" fill="#F7A37A"/>
<path d="M234.706 85.3153C234.127 85.9199 233.928 87.5644 232.857 87.4149C232.647 87.385 232.577 87.7106 232.79 87.7405C234.147 87.9298 234.25 86.2721 234.956 85.5379C235.102 85.3851 234.856 85.1625 234.706 85.3153Z" fill="#D38262"/>
<path d="M240.135 142.516C237.949 144.26 235.328 145.313 232.677 146.227C229.773 147.227 226.806 148.048 223.792 148.682C217.967 149.908 212.02 150.406 206.088 150.868C206.105 150.26 206.125 149.652 206.135 149.044C206.138 148.832 205.792 148.861 205.789 149.074C205.779 149.682 205.756 150.29 205.743 150.895C205.543 150.911 205.343 150.925 205.144 150.941C204.921 150.958 204.948 151.29 205.17 151.273C205.357 151.26 205.546 151.243 205.733 151.23C205.603 156.124 205.337 161.014 204.914 165.894C204.904 166.007 204.977 166.09 205.097 166.09C212.702 166.09 220.309 165.818 227.894 165.256C229.846 165.113 231.799 164.951 233.751 164.768C234.67 164.682 235.588 164.592 236.506 164.499C237.131 164.436 237.906 164.459 238.482 164.173C238.838 163.997 239.034 163.711 239.13 163.346C239.357 162.462 239.277 161.429 239.33 160.522C239.44 158.705 239.549 156.888 239.659 155.071C239.909 150.941 240.158 146.812 240.404 142.682C240.411 142.556 240.265 142.413 240.135 142.516Z" fill="#F7A37A"/>
<path d="M253.793 110.471C252.363 107.351 250.005 105.069 247.001 103.85C244.829 102.966 242.507 102.501 240.185 102.258C239.204 102.152 238.222 102.089 237.248 102.049C237.407 102.989 237.071 104.049 236.05 104.368C232.088 105.604 227.281 107.082 223.097 106.361C221.819 106.142 220.326 105.491 220.066 104.195C219.481 104.348 218.895 104.511 218.313 104.683C215.406 105.547 212.582 106.667 210.034 108.328C206.295 110.115 202.782 112.517 200.68 116.178C199.419 118.377 199.229 120.876 198.265 123.185C197.403 125.251 196.162 127.125 195.041 129.051C193.807 131.171 192.713 133.39 192.447 135.859C192.437 135.955 192.486 136.028 192.58 136.051C193.837 136.403 198.73 136.148 198.956 136.134C200.723 136.041 202.486 136.144 204.246 136.3C203.84 142.958 203.584 147.735 203.567 155.167C203.564 155.263 203.627 155.383 203.737 155.363L210.915 154.157C212.013 153.974 213.107 153.788 214.205 153.605C215.419 153.403 216.66 153.16 217.911 153.293C219.867 153.499 221.626 154.792 223.619 154.559C225.655 154.32 227.381 153.037 229.404 152.745C232.993 152.227 237.198 154.662 240.434 152.28C241.948 151.164 242.304 149.071 242.839 147.273L244.962 140.181C245.847 137.224 246.628 138.736 247.513 135.779C248.248 135.998 252.672 136.672 253.8 135.981C254.748 135.4 255.207 134.29 255.433 133.168C255.773 131.503 255.67 129.723 255.686 128.012C255.7 125.998 255.736 123.979 255.726 121.962C255.723 118.088 255.453 114.078 253.793 110.471Z" fill="#DE6B45"/>
<path d="M239.214 159.672C239.197 159.599 225.878 160.436 218.979 160.612C215.559 160.702 212.133 160.758 208.71 160.785C207.881 160.788 206.597 160.815 205.766 160.828C205.55 160.828 205.157 161.592 203.853 164.569C203.806 164.672 203.763 164.781 203.713 164.894C203.141 166.21 202.399 167.927 201.441 170.153C195.361 169.11 185.637 167.768 179.467 167.685C175.595 167.632 171.716 167.774 167.861 168.103C164.185 168.419 160.472 168.904 156.986 170.163C154.059 171.223 151.301 172.857 149.186 175.166C147.14 177.399 145.42 180.558 146.009 183.674C146.555 186.561 148.823 188.817 151.168 190.408C154.006 192.335 157.209 193.674 160.443 194.784C164.378 196.146 168.399 197.279 172.385 198.488L176.476 199.734C176.376 199.936 176.28 200.139 176.183 200.348C174.879 203.212 173.905 206.232 173.296 209.321C172.661 212.527 172.528 215.723 172.558 218.985C172.578 220.899 172.501 222.799 171.959 224.65C171.447 226.407 170.635 228.065 169.737 229.66C168.233 232.341 166.234 235.048 166.108 238.237C165.961 242.015 169.035 245.363 167.451 249.151C166.374 251.729 163.915 253.964 164.251 256.964C164.261 257.064 164.341 257.114 164.431 257.117C169.61 257.376 174.766 257.901 179.886 258.692C179.976 258.705 180.062 258.649 180.082 258.559C181.047 253.935 182.91 249.712 185.411 245.722C186.499 243.981 187.563 242.214 188.012 240.187C188.465 238.151 188.402 236.045 188.761 233.995C189.173 231.643 190.321 229.895 191.998 228.241C193.388 226.866 194.802 225.57 195.909 223.952C197.939 220.985 199.066 217.53 200.071 214.112C200.729 211.866 201.352 209.59 202.133 207.378C205.686 206.587 227.132 205.222 234.41 196.295C239.722 189.78 240.105 172.754 239.659 164.266C239.653 164.157 239.649 164.047 239.643 163.941C239.53 161.861 239.363 160.339 239.214 159.672Z" fill="#EEDED4"/>
<path d="M241.925 73.3488C241.605 70.8007 239.822 69.4553 237.823 68.0998C236.699 67.3357 235.724 66.2095 234.417 65.7544C233.262 65.3491 231.992 65.4222 230.804 65.6248C229.018 65.9271 227.335 66.4354 225.502 66.2128C224.128 66.0467 222.867 65.9404 221.537 66.4221C218.49 67.5251 215.186 73.5714 215.309 73.7309C215.915 74.5116 216.411 73.9634 217.315 73.9036C218.922 73.794 220.525 73.7309 222.135 73.784C225.096 73.8837 229.201 73.9368 231.03 76.7042C231.443 77.3288 231.679 78.0331 231.672 78.7839C231.666 79.3952 231.516 79.9998 231.539 80.6144C231.556 81.0562 231.649 81.4914 231.962 81.8236C232.088 81.9565 232.211 82.023 232.361 82.1193C232.843 82.4349 232.933 82.4216 232.976 83.1027C233.026 83.8601 233.472 84.2688 234.27 84.292C235.265 84.3219 235.94 83.5213 236.769 83.0761C236.902 83.2289 237.131 83.292 237.394 83.1259C237.627 82.9764 237.79 82.5612 237.926 82.3386C238.199 81.8901 238.472 81.435 238.738 80.9831C239.204 80.1925 239.656 79.3952 240.105 78.5912C241.512 77.2457 242.164 75.279 241.925 73.3488Z" fill="#421818"/>
<path d="M220.602 84.3219C220.668 84.1226 220.369 83.9764 220.302 84.1791C219.803 85.6641 218.659 86.9032 218.383 88.4647C218.29 88.9929 218.263 89.644 218.659 90.0593C219.105 90.5244 219.93 90.4746 220.515 90.531C220.728 90.551 220.791 90.2254 220.579 90.2055C219.754 90.1257 218.739 90.1789 218.669 88.9962C218.636 88.3816 218.909 87.7471 219.171 87.2056C219.64 86.2322 220.256 85.3485 220.602 84.3219Z" fill="#D38262"/>
<path d="M235.421 101.992C231.084 101.919 226.786 102.444 222.628 103.514C222.581 103.524 222.555 103.554 222.541 103.587C221.131 103.913 219.714 104.268 218.32 104.683C218.48 108.564 221.746 111.474 225.382 112.63C227.391 113.271 229.543 113.112 231.433 112.172C233.299 111.241 234.879 109.746 236.316 108.268C237.763 106.783 239.084 105.109 239.866 103.175C239.989 102.876 240.095 102.567 240.192 102.258C238.585 102.086 236.978 102.019 235.421 101.992Z" fill="#F7A37A"/>
<path d="M64.9296 190.458C65.1325 191.601 65.2323 192.797 65.7213 193.867C66.1238 194.744 66.7924 195.398 67.5176 196.016C68.3658 196.734 69.4004 197.445 69.7696 198.548C70.1222 199.597 69.4868 200.893 70.2819 201.803C70.3451 201.876 70.4149 201.936 70.4881 201.996C74.4067 200.149 78.2521 198.146 82.1042 196.159C85.8265 194.046 89.7019 192.176 93.6404 190.491C95.4633 189.671 97.3062 188.893 99.1757 188.169C99.179 188.013 99.1823 187.857 99.189 187.704C99.322 184.565 99.3453 181.392 98.8297 178.282C98.2908 175.037 97.1066 171.924 94.8878 169.446C94.8213 169.372 94.7282 169.376 94.6616 169.416C87.9787 161.054 81.8248 154.988 73.9909 147.702C70.3617 144.327 63.4559 138.566 58.6991 136.955C54.2416 135.443 48.6598 133.477 44.5981 135.945C40.4367 138.473 37.4396 142.353 38.6271 148.599C39.0729 150.935 40.1906 155.28 41.1386 157.466C42.0767 159.622 43.5237 161.506 45.0638 163.263C48.2839 166.937 51.8432 170.23 53.2736 175.057C53.909 177.206 54.3015 179.478 55.4025 181.462C56.497 183.438 58.2267 184.435 60.2326 185.325C61.2372 185.771 62.275 186.209 63.1299 186.913C64.2377 187.83 64.6867 189.083 64.9296 190.458Z" fill="#A67A6F"/>
<path d="M149.592 83.9665C147.107 88.0528 144.948 92.3184 143.162 96.7302C142.909 97.3548 142.23 98.4378 142.41 99.1255C142.486 99.4212 142.759 99.6105 142.975 99.7899C143.418 100.155 143.863 100.511 144.309 100.87C146.169 102.375 148.032 103.879 149.891 105.384C149.977 105.454 150.087 105.408 150.14 105.318C152.975 100.461 155.812 95.604 158.646 90.747C158.889 90.9231 159.129 91.0992 159.371 91.2752C159.534 91.3948 159.744 91.1357 159.581 91.0194L158.813 90.458C159.119 89.9364 159.421 89.4148 159.727 88.8899C159.834 88.7072 159.544 88.5843 159.438 88.767C159.145 89.2687 158.853 89.7703 158.56 90.272C155.652 88.1491 152.745 86.0229 149.838 83.9001C149.751 83.8336 149.648 83.8735 149.592 83.9665Z" fill="#F7A37A"/>
<path d="M169.447 73.1794C169.55 74.9368 169.577 76.4517 169.527 77.847C169.517 78.1427 169.504 78.4284 169.487 78.7141C169.461 79.239 169.417 79.7473 169.367 80.249C169.354 80.4084 169.334 80.5712 169.318 80.7307C169.085 82.8103 168.682 84.8103 168.15 87.2753C167.505 90.2918 166.114 93.5741 163.184 96.4345C161.287 98.2849 159.604 98.5108 156.531 97.0557C154.076 95.893 150.609 93.3947 149.399 90.8533C148.653 89.2919 147.905 87.7172 147.34 86.0827C146.781 84.4781 146.495 82.8236 146.302 81.1459C145.906 77.7075 145.713 74.2093 146.202 70.7775C146.255 70.3788 146.318 69.9768 146.395 69.5715C148.031 69.1297 149.641 68.5616 151.318 68.2659C153.414 67.8905 155.516 67.7875 157.642 67.7709C157.781 67.7743 157.921 67.7643 158.054 67.7477C158.32 67.8473 158.58 67.9437 158.842 68.04C159.298 68.246 159.754 68.4487 160.206 68.658C163.47 70.1463 166.237 71.5682 169.447 73.1794Z" fill="#F7A37A"/>
<path d="M165.881 83.3419C165.805 84.0961 166.068 84.7372 166.467 84.7771C166.866 84.817 167.252 84.2389 167.328 83.4848C167.405 82.7307 167.142 82.0895 166.743 82.0496C166.344 82.0097 165.958 82.5878 165.881 83.3419Z" fill="#421818"/>
<path d="M157.269 82.9001C157.219 83.6542 157.505 84.2887 157.904 84.3153C158.307 84.3419 158.67 83.7506 158.719 82.9964C158.769 82.2423 158.483 81.6078 158.084 81.5812C157.685 81.5546 157.319 82.146 157.269 82.9001Z" fill="#421818"/>
<path d="M157.805 90.9596C158.417 91.9928 159.345 93.026 160.642 93.0758C161.846 93.1157 162.794 92.3084 163.14 91.1955C163.164 91.1124 163.09 91.0094 163.011 90.9995C162.961 90.9928 162.914 90.9862 162.864 90.9795C161.394 90.8034 159.914 90.8998 158.45 90.6805C158.337 90.6606 158.227 90.644 158.114 90.624C158.038 90.6108 157.918 90.624 157.868 90.6573C157.771 90.7171 157.728 90.8333 157.805 90.9596Z" fill="#D38262"/>
<path d="M158.447 90.6839C159.032 91.4148 159.794 92.0061 160.765 92.0393C161.647 92.0726 162.392 91.6506 162.861 90.9829C161.394 90.8068 159.91 90.9032 158.447 90.6839Z" fill="white"/>
<path d="M162.754 82.5147C162.735 82.3054 163.057 82.229 163.08 82.4416C163.233 83.9997 164.072 85.4648 163.992 87.0494C163.965 87.5843 163.846 88.2255 163.363 88.5444C162.824 88.8999 162.029 88.664 161.45 88.5876C161.241 88.561 161.251 88.2288 161.464 88.2554C162.285 88.3617 163.263 88.6407 163.593 87.5046C163.766 86.9132 163.639 86.2355 163.506 85.6475C163.26 84.591 162.861 83.5944 162.754 82.5147Z" fill="#D38262"/>
<path d="M160.978 77.9899C159.558 77.2557 157.928 77.0033 156.368 77.4052C155.795 77.5514 155.157 77.7939 154.894 78.3687C154.714 78.7673 154.764 79.2955 155.13 79.5746C155.609 79.9434 156.311 79.6942 156.833 79.6178C157.465 79.5214 158.011 79.5115 158.636 79.6543C158.999 79.7374 159.361 79.8603 159.737 79.8769C160.256 79.9002 161.124 79.8669 161.324 79.3321C161.584 78.6112 161.011 78.0065 160.978 77.9899Z" fill="#421818"/>
<path d="M166.327 77.8105C165.755 77.9567 165.113 78.1992 164.853 78.7739C164.674 79.1726 164.727 79.7008 165.09 79.9799C165.569 80.3486 166.267 80.1028 166.793 80.0231C167.421 79.9267 167.974 79.9168 168.596 80.0596C168.852 80.1194 169.108 80.1958 169.364 80.2423C169.417 79.7407 169.457 79.2357 169.484 78.7075C169.501 78.4218 169.514 78.1361 169.524 77.8404C168.489 77.568 167.392 77.5381 166.327 77.8105Z" fill="#421818"/>
<path d="M166.187 115.122C164.854 109.361 161.041 104.783 156.421 101.265C155.852 101.969 155.057 102.252 154.152 102.341C153.853 102.371 153.577 102.338 153.327 102.265C152.299 102.69 151.275 102.982 150.004 102.83C148.933 102.7 148.201 101.594 148.261 100.561C147.044 100.584 145.786 100.408 144.605 100.331C141.901 100.155 139.127 100.089 136.462 99.5374C136.396 99.4112 136.339 99.275 136.299 99.1354C136.166 99.172 136.036 99.2285 135.897 99.2484C135.857 99.255 135.817 99.2584 135.777 99.2617C135.764 99.2584 135.75 99.255 135.737 99.255C126.396 99.9926 120.578 101.554 113.802 108.225C110.775 111.202 101.883 125.304 100.975 127.699C100.07 130.088 98.8396 132.334 97.855 134.689C96.4512 138.045 95.5198 141.556 94.7846 145.111C92.9185 148.778 91.5679 151.532 91.2153 152.479C90.407 154.652 90.1509 156.911 89.9812 159.187C90.7929 161.825 92.4661 163.655 95.6528 164.127C99.598 164.711 103.646 163.868 107.612 163.961C112.701 164.08 117.604 165.044 121.656 168.309C123.878 170.1 125.498 172.485 128.123 173.754C130.301 174.811 132.663 174.874 135.028 175.013C135.617 174.635 136.196 174.246 136.748 173.827C137.806 173.017 138.771 172.067 139.399 170.881C140.184 169.399 140.327 167.711 140.627 166.093C140.793 165.206 140.999 164.309 141.422 163.506C141.927 162.535 142.713 161.815 143.564 161.143C144.948 160.05 146.265 158.938 147.419 157.599C147.859 157.084 148.261 156.549 148.647 156.004C149.219 155.811 149.795 155.622 150.36 155.403C151.904 154.811 153.361 154.017 154.818 153.243C156.378 152.413 158.021 151.662 159.511 150.715C161.896 149.2 162.545 145.978 162.818 143.37C163.16 140.104 163.041 136.839 163.723 133.606C165.03 127.427 167.674 121.527 166.187 115.122Z" fill="#EEDED4"/>
<path d="M143.517 96.9926C143.318 96.9926 142.48 97.8232 142.659 97.8564C140.188 98.4245 138.461 98.4976 135.903 99.2417C136.405 103.414 140.397 106.421 144.585 106.64C149.219 106.886 153.194 104.484 156.401 101.371C152.732 98.5906 148.164 97.0026 143.517 96.9926Z" fill="#F7A37A"/>
<path d="M149.884 130.224C144.861 137.334 139.689 144.941 134.054 151.562C127.547 159.207 109.89 176.618 107.572 178.621C109.81 179.289 108.935 179.349 111.134 180.143C111.646 179.738 137.876 161.07 142.011 157.034C145.992 153.147 149.545 148.838 152.702 144.264C156.002 139.483 158.862 134.417 161.374 129.181C157.023 129.437 154.229 130.294 149.884 130.224Z" fill="#F7A37A"/>
<path d="M165.559 115.215C165.053 112.633 164.198 110.099 162.884 107.813C161.474 105.361 159.508 103.265 156.983 101.959C157.006 101.816 156.817 101.687 156.7 101.816C156.69 101.813 156.684 101.806 156.677 101.803C156.497 101.717 156.361 101.969 156.504 102.079C155.948 102.873 155.676 103.783 155.363 104.7C154.974 105.84 154.425 106.889 153.753 107.889C152.446 109.83 150.806 111.517 149.528 113.477C148.155 115.58 147.143 117.889 146.102 120.168C145.124 122.308 144.146 124.447 143.168 126.583C138.202 133.899 133.235 141.211 128.269 148.526C128.199 148.629 128.252 148.832 128.409 148.798C129.982 148.476 131.569 148.154 133.182 148.127C135.025 148.097 136.622 148.622 138.305 149.31C141.129 150.466 144.066 150.822 147.024 149.941C148.624 149.466 150.144 148.705 151.797 148.406C153.294 148.137 154.744 148.546 156.238 148.486C159.129 148.373 159.558 145.602 159.894 143.277C160.133 141.619 160.319 139.922 160.333 138.241C161.517 137.041 162.512 135.683 162.937 134.011C163.337 132.433 163.22 130.789 163.396 129.184C163.579 127.533 164.191 126.012 164.784 124.474C165.349 123.005 165.835 121.537 165.945 119.955C166.054 118.367 165.865 116.773 165.559 115.215Z" fill="#EEDED4"/>
<path d="M107.415 126.45C105.076 132.457 102.715 138.463 100.646 144.563C98.0842 152.121 96.594 159.888 95.0571 167.701C94.1623 172.256 93.2675 176.811 92.3727 181.365C92.3527 181.475 92.4425 181.568 92.549 181.561C94.3719 181.482 94.7112 180.449 96.4809 180.003C96.5341 179.99 96.5773 179.93 96.5873 179.877C98.1175 172.113 101.284 164.831 104.085 157.469C106.999 149.808 115.608 131.397 116.214 129.463C114.903 128.879 108.819 126.849 107.415 126.45Z" fill="#F7A37A"/>
<path d="M170.395 267.28C169.97 266.516 169.384 266.386 168.489 266.479C168.017 266.529 167.668 266.781 167.315 267.08C167.049 267.306 166.793 267.569 166.44 267.639C165.752 267.771 165.738 267.247 165.535 266.841C165.226 266.237 164.461 266.094 163.856 266.303C162.881 266.642 162.478 267.738 162.319 268.648C161.703 272.157 159.498 276.509 157.535 280.103C156.887 281.293 156.148 282.419 155.423 283.558C154.814 284.515 154.229 285.545 154.086 286.688C153.873 288.392 154.701 290.186 156.544 290.448C158.733 290.757 160.376 289.066 161.527 287.442C163.14 285.166 164.681 282.834 166.234 280.518C167.585 278.505 168.892 276.442 169.84 274.206C170.612 272.386 171.457 269.187 170.395 267.28Z" fill="#565A94"/>
<path d="M213.157 196.448C213.803 196.641 214.455 196.823 215.107 197C215.732 197.166 216.477 197.239 217.069 197.495C218.077 197.93 217.858 198.97 217.871 199.873C217.884 200.657 217.894 201.441 217.907 202.229C208.819 201.172 199.765 199.843 190.757 198.252C190.664 195.345 190.274 192.465 189.586 189.634C195.048 190.339 200.27 192.113 205.453 193.907C208.008 194.787 210.563 195.677 213.157 196.448Z" fill="#F7A37A"/>
<path d="M227.997 214.129C228.03 214.667 228.057 215.208 228.083 215.746C228.093 215.969 228.113 216.195 228.113 216.417C228.123 216.62 228.113 216.823 228.083 217.025C227.751 217.275 227.421 217.524 227.089 217.776C226.157 217.843 225.362 216.301 225.059 215.607C224.694 214.766 224.494 213.869 224.338 212.972C223.855 210.192 223.752 207.062 221.35 205.155C220.027 204.106 218.383 203.594 216.793 203.096C215.948 202.83 215.186 202.561 214.997 201.581C214.887 201.019 214.854 200.438 214.791 199.873C214.681 198.837 214.598 197.797 214.528 196.754C214.551 196.737 214.571 196.717 214.584 196.687C215.08 195.671 216.317 196.086 217.242 196.166C218.207 196.249 222.255 196.843 223.207 197.172C224.125 197.491 225.568 197.85 226.141 198.687C226.699 199.501 226.676 200.827 226.803 201.773C226.946 202.843 227.079 203.916 227.202 204.989C227.438 207.076 227.637 209.165 227.797 211.258C227.877 212.212 227.94 213.168 227.997 214.129Z" fill="#565A94"/>
<path d="M124.29 121.102C124.084 119.952 123.898 118.796 123.672 117.65C123.529 116.916 123.346 116.148 122.81 115.59C121.782 114.527 120.126 114.796 118.865 115.215C112.036 117.49 106.251 123.068 103.25 129.533C102.306 131.573 101.72 133.729 101.045 135.869C100.692 136.981 100.27 138.048 99.7942 139.094C99.6179 139.174 99.4449 139.264 99.2719 139.36C99.0857 139.463 99.2753 139.736 99.4615 139.633C99.4981 139.613 99.538 139.596 99.5746 139.576C98.9859 140.819 98.3239 142.028 97.622 143.234C97.5122 143.42 97.8149 143.559 97.9214 143.377C98.6965 142.051 99.3983 140.726 100.02 139.357C102.156 138.393 104.531 138.457 106.82 138.875C107.991 139.088 109.142 139.387 110.286 139.696C111.437 140.008 112.594 140.397 113.792 140.466C115.997 140.596 117.611 139.101 119.43 138.108C121.692 136.872 124.167 136.084 126.722 135.736C126.805 135.726 126.892 135.649 126.875 135.556L124.29 121.102Z" fill="#EEDED4"/>
<path d="M54.86 295.229C54.8434 295.139 54.7769 295.07 54.6804 295.076C52.0724 295.272 48.0008 297.528 45.995 299.216C44.9139 300.123 44.0224 301.219 43.0643 302.249C42.5587 302.794 42.0398 303.322 41.461 303.79C40.952 304.202 39.8044 305.192 39.0493 305.009C39.1458 304.857 38.9162 304.674 38.7798 304.823C37.9881 305.687 38.0214 307.843 39.4917 307.876C41.6672 307.926 43.7463 307.126 45.2432 305.561C46.8998 303.827 49.8903 300.588 51.8862 299.209C52.6878 298.657 53.8222 298.375 54.4941 297.664C55.1228 296.993 55.0064 296.056 54.86 295.229Z" fill="#421818"/>
<path d="M55.7981 285.309C55.0064 285.352 54.2147 285.395 53.423 285.439C53.0538 285.459 52.6846 285.478 52.3153 285.498C52.1058 285.508 51.8929 285.522 51.6833 285.532C51.507 285.488 51.3606 285.522 51.2475 285.628C51.2509 285.588 51.2409 285.548 51.2176 285.515C51.2242 285.498 51.2309 285.485 51.2375 285.468C51.3141 285.269 51.0147 285.126 50.9382 285.326C49.5677 288.89 47.442 292.07 45.1967 295.139C44.1056 296.631 41.4244 299.946 40.35 301.448C39.5117 302.621 38.2976 303.92 38.1778 304.793C38.0215 305.92 39.9175 306.714 40.9754 306.528C42.3392 306.285 43.3871 305.219 44.2486 304.215C45.3597 302.923 46.2844 301.431 47.635 300.362C48.8791 299.378 52.0925 297.744 53.2334 296.628C54.4177 295.471 54.5308 293.794 54.5607 292.236C54.5807 291.186 54.584 290.149 54.8002 289.116C55.0563 287.887 55.5121 286.714 55.9645 285.545C56.0077 285.429 55.9312 285.299 55.7981 285.309Z" fill="#F7A37A"/>
<path d="M46.4574 300.74C46.0017 300.312 45.506 299.923 44.9638 299.608C44.079 299.093 42.5089 298.485 41.4611 298.9C41.0685 299.056 40.9288 299.441 40.7259 299.794C40.3167 300.501 39.9109 301.206 39.5018 301.913C39.4419 302.019 39.5117 302.109 39.6049 302.132C39.6448 302.162 39.6947 302.179 39.7546 302.152C40.8091 301.724 41.9866 302.122 42.9979 302.514C43.763 302.81 44.4582 303.202 44.9771 303.82C44.7842 304.036 44.5979 304.245 44.4249 304.448C44.2852 304.614 44.5281 304.81 44.6778 304.664C44.711 304.631 44.7476 304.594 44.7809 304.561C44.8042 304.538 44.8175 304.511 44.8208 304.488C44.9372 304.348 45.0503 304.209 45.1634 304.069C45.1767 304.086 45.19 304.102 45.2033 304.122C45.3231 304.302 45.5959 304.109 45.4761 303.933C45.4462 303.89 45.4129 303.85 45.383 303.807C45.6557 303.468 45.9219 303.129 46.1847 302.784C46.4175 302.475 47.0462 301.906 47.0362 301.481C47.0262 301.189 46.6371 300.907 46.4574 300.74Z" fill="#421818"/>
<path d="M54.9268 294.847C54.7305 293.807 53.9887 292.747 53.3234 291.95C52.7446 291.256 52.0859 290.585 51.2177 290.276C50.1566 289.9 48.8626 289.741 47.7682 290.056C47.7116 290.036 47.6484 290.046 47.6018 290.11C47.206 290.631 46.8634 291.173 46.5673 291.754C46.5307 291.827 46.564 291.943 46.6438 291.977C48.51 292.674 50.7387 293.857 51.8464 295.584C52.0992 295.983 52.3886 297.073 52.9076 297.229C53.1504 297.302 53.4066 297.229 53.6494 297.086C53.7093 297.113 53.7824 297.109 53.8423 297.053C54.501 296.405 55.1164 295.84 54.9268 294.847Z" fill="#421818"/>
<path d="M114.005 176.309C113.323 176.013 112.638 175.721 111.956 175.425C111.999 175.405 112.046 175.389 112.089 175.372C112.285 175.289 112.142 174.99 111.946 175.073C111.803 175.133 111.66 175.19 111.517 175.249C111.464 175.243 111.42 175.263 111.39 175.299C107.914 176.691 104.112 177.665 101.288 180.169C100.29 180.944 99.3519 181.797 98.467 182.704C97.6787 183.512 96.9202 184.352 96.2017 185.222C95.5996 185.953 94.8977 186.85 94.8046 187.834C94.7613 188.282 94.9376 188.82 95.4865 188.691C95.8192 188.611 96.0986 188.173 96.3015 187.947C96.6874 187.525 97.0699 187.103 97.4525 186.681C98.8629 185.136 100.317 183.615 101.966 182.332C102.106 182.409 102.246 182.482 102.386 182.555C100.772 184.046 99.139 185.585 97.7884 187.302C97.0965 188.182 96.5011 189.166 96.1884 190.249C96.072 190.651 95.6795 191.714 96.2183 191.956C96.6308 192.142 97.0433 191.515 97.3394 190.97C97.4525 191.133 97.6521 191.252 97.8882 191.252C98.8729 191.249 100.007 189.963 100.643 189.299C100.456 189.697 100.36 190.166 100.769 190.325C101.078 190.445 101.617 190.156 101.89 190.033C102.426 189.794 102.925 189.478 103.39 189.126C104.458 188.325 108.786 184.405 109.072 184.179C110.219 183.269 111.151 182.086 111.763 180.757C112.428 179.316 112.694 177.588 114.058 176.598C114.165 176.512 114.111 176.352 114.005 176.309Z" fill="#F7A37A"/>
<path d="M99.3153 181.063C98.7266 180.156 97.7885 179.561 97.4625 178.485C97.2696 177.851 97.2662 177.179 97.3427 176.512C96.5278 176.445 95.7094 176.339 94.8978 176.223C94.0695 177.103 93.4774 178.259 92.9718 179.369C92.3896 180.648 92.4196 181.615 92.546 183C92.669 184.339 92.7921 185.674 92.9185 187.01C92.9019 187.043 92.8953 187.08 92.9052 187.123C92.9285 187.232 92.9418 187.342 92.9584 187.452C92.9651 187.535 92.9751 187.614 92.9817 187.697C92.9851 187.721 92.9917 187.741 93.0017 187.757C93.0516 188.279 93.0183 188.804 92.8819 189.319C92.699 190.013 92.2665 190.442 91.9805 191.069C91.7277 191.628 91.9605 192.196 92.669 192.103C93.4674 192 93.8932 191.059 94.0761 190.392C94.319 189.511 94.4021 188.588 94.3789 187.671C94.7215 187.611 95.0608 187.541 95.4001 187.462C95.5165 188.448 95.7294 189.478 95.3502 190.402C95.1007 191.013 94.615 191.103 94.2691 191.581C94.136 191.764 94.0529 191.95 94.126 192.172C94.299 192.707 95.1672 192.684 95.6063 192.604C95.9889 192.534 96.3248 192.378 96.6109 192.152C96.7174 192.342 96.897 192.445 97.1897 192.358C97.6455 192.226 97.7685 191.568 97.8883 191.196C98.0879 190.574 98.2376 189.94 98.3374 189.295C98.4837 188.359 98.5203 187.418 98.4571 186.478C98.7099 186.372 98.9594 186.262 99.2089 186.146C99.2355 186.521 99.2521 186.9 99.2455 187.279C99.2255 188.335 98.9461 189.345 98.8796 190.392C98.843 190.95 99.2023 192.279 99.9374 191.415C100.403 190.87 100.47 189.817 100.549 189.143C100.646 188.299 100.649 187.445 100.613 186.594C100.553 185.216 100.539 183.691 99.9574 182.409C99.7977 181.943 99.5914 181.488 99.3153 181.063Z" fill="#F7A37A"/>
<path d="M164.241 112.7C158.157 112.889 152.366 115.537 148.081 119.826C146.052 121.859 144.366 124.234 143.075 126.799C142.393 128.158 141.878 129.576 141.332 130.995C140.69 132.669 139.855 134.171 138.804 135.626C136.914 138.247 134.706 140.875 134.632 144.267C134.629 144.48 134.958 144.453 134.965 144.24C135.038 141.005 137.164 138.453 138.974 135.958C139.822 134.792 140.6 133.593 141.179 132.267C141.768 130.915 142.207 129.503 142.802 128.154C145.111 122.945 149.043 118.454 154.096 115.756C157.229 114.082 160.715 113.142 164.268 113.032C164.484 113.022 164.454 112.693 164.241 112.7Z" fill="#565A94"/>
<path d="M158.523 140.118C156.654 143.294 154.112 145.998 151.062 148.071C150.886 148.19 151.075 148.463 151.252 148.343C154.348 146.237 156.923 143.486 158.823 140.26C158.932 140.074 158.63 139.935 158.523 140.118Z" fill="#565A94"/>
<path d="M122.88 107.863C122.767 109.301 122.551 110.736 122.052 112.095C121.606 113.308 120.964 114.431 120.325 115.547C119.068 117.749 117.81 120.028 117.325 122.547C116.809 125.228 117.594 127.919 117.225 130.619C116.839 133.453 115.765 136.128 114.703 138.762C114.624 138.961 114.923 139.104 115.003 138.905C116.021 136.383 117.049 133.822 117.488 131.121C117.701 129.809 117.741 128.497 117.634 127.171C117.518 125.726 117.358 124.324 117.601 122.882C118.053 120.185 119.437 117.773 120.771 115.427C122.141 113.019 122.986 110.693 123.206 107.916C123.223 107.717 122.897 107.65 122.88 107.863Z" fill="#565A94"/>
<path d="M239.816 70.4652C239.686 70.2958 239.413 70.4852 239.543 70.6546C242.873 74.9734 242.5 81.0496 238.675 84.9332C238.525 85.086 238.778 85.2987 238.927 85.1492C242.853 81.1659 243.229 74.897 239.816 70.4652Z" fill="#565A94"/>
<path d="M211.787 118.029C211.298 119.577 210.672 121.075 209.897 122.503C209.199 123.789 208.344 124.975 207.612 126.241C206.378 128.374 205.563 131.055 207.003 133.3C207.12 133.48 207.392 133.291 207.276 133.111C205.583 130.467 207.203 127.45 208.683 125.138C210.11 122.902 211.314 120.63 212.116 118.092C212.176 117.886 211.85 117.826 211.787 118.029Z" fill="#421818"/>
<path d="M169.993 71.8672C169.058 70.1729 167.438 68.9504 165.685 68.1863C164.784 67.7909 163.796 67.4421 162.801 67.4355C162.315 67.4322 161.863 67.5252 161.427 67.678C161.351 67.6315 161.238 67.6315 161.178 67.7311C161.168 67.7478 161.154 67.7677 161.144 67.7843C161.098 67.8042 161.055 67.8242 161.011 67.8441C159.538 65.7279 156.887 64.9206 154.378 65.1698C151.701 65.4355 148.647 66.6149 146.89 68.7344C145.972 69.844 145.793 71.05 145.457 72.4087C145.097 73.8638 144.086 75.0964 143.953 76.6146C143.883 77.3953 143.996 78.186 143.993 78.97C143.99 79.9068 143.903 80.8437 143.76 81.7706C143.487 83.5513 143.005 85.2921 142.416 86.993C141.907 88.4647 141.282 89.9132 141.026 91.458C140.766 93.036 140.966 94.6306 141.302 96.1788C141.488 97.0425 139.848 98.0591 141.202 98.0724C142.1 98.0824 143.338 97.7036 143.454 97.3648C143.524 97.1654 143.504 96.9728 143.504 96.7635C143.504 96.2253 143.587 95.8698 143.95 95.4545C144.389 94.9529 144.981 94.6041 145.473 94.1556C145.986 93.6871 146.428 93.1523 146.797 92.5709C147.493 91.4779 147.922 90.2089 148.018 88.9165C148.131 87.4149 147.656 85.9797 147.579 84.4914C147.496 82.8038 148.254 81.6078 149.555 80.6111C150.56 79.8404 151.697 79.2192 152.569 78.2856C153.58 77.1993 153.75 75.8638 154.056 74.4685C154.688 71.5749 157.073 69.7311 159.754 68.8341C159.781 68.8507 159.807 68.8574 159.84 68.8574C159.87 70.3058 160.26 71.9071 161.364 72.8572C162.508 73.8439 164.208 73.9436 165.269 75.0332C166.034 75.8206 165.988 76.9136 166.204 77.9202C166.36 78.6544 166.673 79.2225 167.202 79.7474C167.987 80.5248 168.752 81.0929 169.088 82.2025C169.371 83.1393 169.421 84.1293 169.7 85.0695C169.737 85.1891 169.906 85.2123 169.983 85.1193C170.638 84.332 170.565 83.0396 170.671 82.0696C170.805 80.8371 170.911 79.6045 170.984 78.3687C171.107 76.1761 171.087 73.8472 169.993 71.8672Z" fill="#421818"/>
<path d="M147.037 82.5612C147.167 84.6243 148.557 86.4182 150.463 87.1657C150.563 87.2056 150.679 87.1126 150.676 87.0096C150.656 85.0395 150.5 83.0828 150.21 81.136C150.333 81.1194 150.433 80.9699 150.317 80.8636C149.688 80.2889 148.733 79.8071 147.905 80.2855C147.137 80.734 146.987 81.7539 147.037 82.5612Z" fill="#F7A37A"/>
<path d="M149.163 81.5811C149.592 82.2987 149.419 83.9498 150.493 84.0428C150.706 84.0628 150.699 84.395 150.486 84.375C149.123 84.2554 149.392 82.6176 148.87 81.7439C148.763 81.5579 149.053 81.3951 149.163 81.5811Z" fill="#D38262"/>
<path d="M243.012 134.616C241.496 134.164 237.587 133.111 236.077 132.649C234.972 133.626 229.407 140.34 226.114 141.45C222.844 142.553 220.046 141.367 217.359 139.084C215.117 137.181 207.233 123.55 205.32 119.69C205.277 119.603 201.764 123.008 201.791 123.105C203.261 127.975 211.511 145.028 214.511 148.33C217.265 151.363 220.838 153.204 225 153.071C229.63 152.921 233.811 150.665 237.414 147.911C239.679 146.18 241.788 144.254 243.927 142.373C246.252 140.327 250.913 136.227 250.916 136.224C248.222 136.111 245.6 135.387 243.012 134.616Z" fill="#F7A37A"/>
<path d="M236.652 117.926C235.232 121.43 234.44 125.131 234.29 128.909C234.28 129.121 234.613 129.091 234.623 128.882C234.769 125.164 235.558 121.517 236.955 118.068C237.031 117.872 236.732 117.726 236.652 117.926Z" fill="#421818"/>
<path d="M84.7351 180.711C78.834 174.834 73.5681 168.349 69.0308 161.366C68.9144 161.187 68.6416 161.376 68.7581 161.555C73.312 168.562 78.5978 175.067 84.5189 180.963C84.6719 181.113 84.8848 180.86 84.7351 180.711Z" fill="#421818"/>
<path d="M193.997 92.707C193.99 92.6672 193.967 92.6406 193.944 92.6207C193.92 92.5908 193.884 92.5742 193.83 92.5808C193.807 92.5808 193.784 92.5841 193.767 92.5941C191.359 93.0824 188.977 93.6871 186.629 94.4113C186.575 94.4246 186.536 94.4645 186.536 94.5276C186.536 94.5375 186.536 94.5442 186.536 94.5542V94.5575C187.573 99.554 188.478 104.58 189.243 109.627C189.223 109.716 189.293 109.823 189.403 109.813C189.433 109.813 189.459 109.809 189.486 109.796C191.815 109.082 194.17 108.481 196.558 107.999C196.565 107.999 196.571 107.992 196.578 107.992C196.658 107.992 196.738 107.942 196.721 107.839C195.946 102.767 195.041 97.7235 193.997 92.707Z" fill="#421818"/>
<path d="M195.101 113.404C194.186 111.716 192.922 110.108 192.716 107.999C192.786 106.946 192.969 105.913 193.208 104.849C193.325 104.328 193.481 102.989 192.497 103.361C192.034 103.534 191.881 104.119 191.738 104.534C191.515 105.192 191.342 105.869 191.229 106.554C191.113 107.265 191.063 107.982 191.069 108.7C190.887 108.78 190.707 108.856 190.524 108.936C190.364 107.298 190.571 105.634 190.913 103.986C191 103.564 191.445 102.066 190.893 101.76C190.727 101.667 190.571 101.713 190.431 101.826C190.434 101.481 190.351 101.115 189.942 101.059C188.798 100.903 188.535 103.627 188.458 104.305C188.255 106.132 188.295 107.969 188.551 109.786C188.408 109.846 188.269 109.909 188.126 109.969C187.64 107.962 187.5 105.886 187.753 103.826C187.896 102.667 188.285 101.597 188.505 100.464C188.588 100.039 188.418 99.3214 187.816 99.5108C187.257 99.6869 186.911 100.826 186.752 101.295C186.386 102.384 186.263 103.561 186.206 104.703C186.11 106.637 186.323 108.56 186.805 110.424C186.845 110.574 187.241 111.796 187.281 111.809C187.996 113.228 188.684 114.66 189.326 116.112C189.686 116.922 190.032 117.736 190.364 118.557C190.487 118.859 190.624 119.563 190.897 119.906C190.86 119.992 190.887 120.115 191.01 120.141C191.894 120.344 192.796 120.62 193.697 120.759C194.306 120.852 194.592 120.663 195.051 120.264C195.926 119.5 196.861 118.547 196.878 117.304C196.904 115.879 195.743 114.59 195.101 113.404Z" fill="#F7A37A"/>
<path d="M201.944 107.142C200.73 104.953 199.229 102.89 197.144 101.451C196.838 101.242 196.146 100.79 195.916 101.351C195.823 101.581 195.953 101.79 196.066 101.979C196.405 102.551 196.924 103.059 197.36 103.557C198.82 105.225 200.048 107.006 200.986 108.972C200.69 109.105 200.397 109.245 200.104 109.388C199.133 107.673 198.165 105.959 197.183 104.248C196.931 103.806 195.517 101.165 194.675 102.135C194.369 102.491 194.679 103.162 194.815 103.514C194.892 103.71 194.975 103.903 195.068 104.095C194.878 103.966 194.682 103.883 194.482 103.876C193.737 103.853 193.787 104.6 194.003 105.089C194.343 105.85 194.755 106.57 195.198 107.275C194.921 106.913 194.639 106.557 194.343 106.208C194.286 106.142 194.186 106.109 194.11 106.168C193.092 106.976 194.146 108.952 194.519 109.849C195.281 111.683 196.302 113.391 197.164 115.178C197.975 116.866 198.487 118.537 199.758 119.955C200.909 121.241 201.408 122.979 202.669 124.165C202.722 124.214 202.812 124.214 202.872 124.175C203.617 123.683 204.415 123.201 205.091 122.613C205.417 122.331 205.616 122.038 205.663 121.633C205.683 121.607 205.699 121.573 205.699 121.53C205.659 116.51 204.379 111.54 201.944 107.142Z" fill="#F7A37A"/>
<path d="M211.68 176.243C205.187 180.136 196.941 178.515 190.424 182.362C190.427 182.339 190.431 182.316 190.434 182.292C190.451 182.176 190.368 182.1 190.258 182.096C186.635 182.023 183.555 179.767 180.006 179.326C177.96 179.07 175.954 179.365 174.025 178.478C172.122 177.605 170.365 176.339 168.586 175.243C168.403 175.13 168.26 175.432 168.443 175.542C170.296 176.681 172.142 178.043 174.151 178.897C176.03 179.694 177.976 179.405 179.946 179.651C183.462 180.09 186.509 182.266 190.081 182.415C189.882 183.854 189.636 185.282 189.34 186.704C189.296 186.913 189.622 186.977 189.666 186.767C189.948 185.415 190.185 184.06 190.378 182.691C190.424 182.711 190.477 182.714 190.534 182.684C197.054 178.777 205.343 180.429 211.873 176.515C212.053 176.405 211.863 176.133 211.68 176.243Z" fill="#565A94"/>
<path d="M188.927 201.371C188.282 202.395 187.607 203.003 186.336 202.584C185.577 202.335 184.822 202.072 184.061 201.833C182.414 201.318 180.747 200.863 179.071 200.461C178.861 200.411 178.801 200.737 179.008 200.787C181.283 201.332 183.532 201.976 185.744 202.73C186.409 202.956 187.118 203.288 187.816 202.989C188.458 202.714 188.864 202.082 189.223 201.514C189.34 201.335 189.04 201.192 188.927 201.371Z" fill="#565A94"/>
<path d="M239.646 163.931C239.653 164.037 239.656 164.147 239.663 164.256C237.234 164.565 234.776 164.595 232.331 164.662C231.463 164.682 230.588 164.705 229.72 164.728C229.899 168.269 232.168 171.472 235.471 172.808C235.668 172.887 235.524 173.186 235.325 173.107C231.922 171.728 229.567 168.396 229.387 164.735C226.869 164.798 224.354 164.864 221.836 164.931C218.48 165.017 215.11 165.193 211.753 164.934C210 164.801 208.264 164.668 206.508 164.728C205.576 164.758 204.645 164.818 203.713 164.894C203.763 164.785 203.81 164.672 203.853 164.569C206.301 164.406 208.736 164.359 211.208 164.559C214.631 164.834 218.05 164.695 221.483 164.608C224.165 164.539 226.849 164.472 229.53 164.402H229.55C230.249 164.386 230.951 164.369 231.652 164.349C234.31 164.28 237.001 164.276 239.646 163.931Z" fill="#565A94"/>
<path d="M128.635 103.288C127.73 103.258 127.181 104.026 127.065 104.833C126.955 105.597 126.839 106.521 127.53 106.796C128.512 107.185 129.317 106.039 129.503 105.238C129.696 104.398 129.759 103.325 128.635 103.288Z" fill="#A67A6F"/>
<path d="M159.398 109.431C158.806 108.75 157.864 108.869 157.196 109.334C156.56 109.776 155.802 110.318 156.075 111.009C156.457 111.992 157.848 111.799 158.56 111.391C159.305 110.966 160.136 110.281 159.398 109.431Z" fill="#A67A6F"/>
<path d="M127.224 125.065C126.496 125.6 126.539 126.543 126.948 127.247C127.337 127.915 127.816 128.713 128.528 128.503C129.543 128.201 129.463 126.806 129.114 126.061C128.748 125.281 128.132 124.4 127.224 125.065Z" fill="#A67A6F"/>
<path d="M114.271 144.792C113.542 145.327 113.586 146.27 113.995 146.974C114.384 147.642 114.863 148.439 115.575 148.23C116.59 147.928 116.51 146.533 116.16 145.788C115.794 145.008 115.179 144.127 114.271 144.792Z" fill="#A67A6F"/>
<path d="M116.313 114.082C115.665 113.451 114.74 113.647 114.111 114.165C113.516 114.657 112.804 115.258 113.13 115.926C113.592 116.876 114.96 116.57 115.638 116.105C116.35 115.617 117.122 114.869 116.313 114.082Z" fill="#A67A6F"/>
<path d="M111.53 133.39C110.655 133.168 109.95 133.799 109.664 134.563C109.394 135.287 109.078 136.164 109.694 136.579C110.569 137.171 111.6 136.224 111.956 135.483C112.332 134.702 112.621 133.666 111.53 133.39Z" fill="#A67A6F"/>
<path d="M140.115 113.451C139.233 113.647 138.89 114.527 138.98 115.338C139.067 116.105 139.18 117.029 139.918 117.122C140.966 117.254 141.458 115.942 141.442 115.125C141.418 114.261 141.212 113.205 140.115 113.451Z" fill="#A67A6F"/>
<path d="M95.3103 153.12C94.4288 153.316 94.0862 154.197 94.176 155.007C94.2625 155.775 94.3756 156.698 95.1141 156.791C96.1619 156.924 96.6542 155.612 96.6376 154.795C96.6143 153.931 96.4081 152.875 95.3103 153.12Z" fill="#A67A6F"/>
<path d="M124.6 156.858C124.028 156.16 123.086 156.253 122.401 156.698C121.756 157.12 120.981 157.642 121.23 158.34C121.586 159.333 122.98 159.18 123.702 158.795C124.463 158.389 125.312 157.728 124.6 156.858Z" fill="#A67A6F"/>
<path d="M131.958 138.785C131.077 138.981 130.734 139.862 130.824 140.672C130.91 141.44 131.023 142.363 131.762 142.456C132.81 142.589 133.302 141.277 133.285 140.46C133.265 139.596 133.056 138.539 131.958 138.785Z" fill="#A67A6F"/>
<path d="M156.461 124.6C155.579 124.796 155.237 125.676 155.326 126.487C155.413 127.254 155.526 128.178 156.264 128.271C157.312 128.404 157.805 127.091 157.788 126.274C157.768 125.41 157.562 124.357 156.461 124.6Z" fill="#A67A6F"/>
<path d="M148.936 142.609C148.155 142.154 147.303 142.569 146.821 143.227C146.362 143.848 145.819 144.606 146.298 145.174C146.977 145.981 148.231 145.353 148.773 144.739C149.345 144.091 149.911 143.174 148.936 142.609Z" fill="#A67A6F"/>
<path d="M101.674 137.878C100.582 138.134 99.4881 138.048 98.4502 137.629C98.2506 137.55 98.1076 137.849 98.3072 137.928C99.4382 138.383 100.602 138.466 101.79 138.191C101.993 138.141 101.88 137.829 101.674 137.878Z" fill="#565A94"/>
<path d="M251.781 96.6239C249.606 95.0857 248.358 92.5841 248.435 89.9264C248.441 89.7138 248.109 89.7404 248.102 89.953C248.022 92.6904 249.329 95.295 251.565 96.8763C251.741 96.9993 251.957 96.7468 251.781 96.6239Z" fill="#565A94"/>
<path d="M250.753 99.4511C249.259 98.8199 248.032 97.7867 247.157 96.4213C247.041 96.2419 246.768 96.4313 246.884 96.6107C247.786 98.0193 249.066 99.0956 250.61 99.7468C250.806 99.8332 250.949 99.5342 250.753 99.4511Z" fill="#565A94"/>
<path d="M22.0376 159.057C22.0376 159.057 18.455 140.48 19.2001 136.167C19.7789 132.829 25.261 132.114 27.8889 131.779C32.7422 131.158 35.4599 131.885 37.1232 136.536C38.4338 140.197 44.5146 162.183 44.5213 166.137C44.5179 166.881 22.0376 159.057 22.0376 159.057Z" fill="#7B9FBA"/>
</g>
</svg>
