<svg width="343" height="317" viewBox="0 0 343 317" fill="none" xmlns="http://www.w3.org/2000/svg">
<mask id="mask0" mask-type="alpha" maskUnits="userSpaceOnUse" x="0" y="0" width="343" height="317">
<rect width="343" height="317" rx="80" fill="#C4C4C4"/>
</mask>
<g mask="url(#mask0)">
<path d="M162.29 359.577C162.193 359.577 162.095 359.567 161.998 359.558C161.045 359.402 160.403 358.498 160.569 357.545L180.699 237.256C180.855 236.303 181.75 235.671 182.712 235.827C183.665 235.982 184.307 236.887 184.142 237.84L164.011 358.128C163.865 358.974 163.126 359.577 162.29 359.577Z" fill="#36303A"/>
<path d="M289.706 358.216C288.89 358.216 288.16 357.642 287.995 356.805L265.841 244.628C265.657 243.685 266.269 242.761 267.213 242.576C268.156 242.391 269.08 243.004 269.265 243.947L291.418 356.125C291.603 357.068 290.99 357.992 290.047 358.177C289.93 358.206 289.823 358.216 289.706 358.216Z" fill="#36303A"/>
<path d="M160.743 184.809C160.743 184.809 154.442 165.972 159.382 160.147C164.322 154.322 241.762 159.563 245.837 163.638C249.912 167.713 250.204 174.083 262.428 186.181C274.652 198.279 279.038 201.741 281.353 211.67C283.657 221.609 281.061 241.37 281.353 242.235C281.644 243.111 235.46 278.354 221.427 278.928C207.404 279.502 192.69 278.646 189.422 278.928C186.165 279.22 160.743 184.809 160.743 184.809Z" fill="#6F5E61"/>
<path d="M274.885 325.053L264.13 364.255L263.945 364.926V364.936L263.614 366.171C263.614 366.171 263.546 366.219 263.42 366.307C263.41 366.316 263.41 366.316 263.41 366.316C262.049 367.24 254.492 372.122 254.171 366.073V366.034C254.162 366.025 254.162 366.005 254.162 365.996C254.142 365.85 254.152 365.714 254.152 365.568C254.152 365.295 254.152 364.965 254.152 364.615C254.152 364.43 254.162 364.235 254.162 364.031C254.162 364.012 254.152 363.992 254.162 363.973V363.934C254.162 363.778 254.171 363.632 254.171 363.467C254.171 363.457 254.171 363.457 254.171 363.448C254.171 362.961 254.171 362.446 254.181 361.872C254.269 349.726 254.492 319.248 254.492 319.248L255.076 293.428L274.885 325.053Z" fill="#F07D67"/>
<path d="M261.485 337.044L256.194 377.345L256.097 378.035V378.045L255.932 379.319C255.932 379.319 255.873 379.377 255.757 379.484C255.747 379.494 255.747 379.494 255.747 379.494C254.521 380.603 247.714 386.467 246.557 380.515V380.476C246.547 380.466 246.547 380.457 246.547 380.437C246.508 380.301 246.498 380.155 246.479 380.019C246.44 379.747 246.401 379.426 246.352 379.076C246.333 378.891 246.304 378.706 246.284 378.492C246.284 378.473 246.275 378.453 246.275 378.434V378.395C246.255 378.239 246.236 378.093 246.216 377.928C246.216 377.918 246.216 377.918 246.216 377.909C246.148 377.432 246.08 376.917 246.002 376.353C244.427 364.313 240.469 334.088 240.469 334.088L237.512 308.433L261.485 337.044Z" fill="#FFAA9C"/>
<path d="M235.947 171.875C235.947 171.875 246.518 196.479 248.463 197.997C254.191 202.46 256.204 203.948 271.336 213.722C285.252 222.708 304.07 232.637 302.028 247.195C300.812 255.889 296.203 277.206 290.095 295.81C285.661 309.318 283.064 320.327 280.779 327.348C275.343 344.037 268.749 356.465 268.749 356.465C268.749 356.465 259.433 319.588 259.044 316.486C258.655 313.383 245.866 254.382 238.475 248.946C231.094 243.509 173.191 202.947 171.704 199.455C170.216 195.964 166.014 180.375 166.014 180.375L235.947 171.875Z" fill="#36303A"/>
<path d="M167.959 207.021C167.959 207.021 168.339 218.662 184.774 240.796C201.209 262.921 222.653 277.673 222.653 277.673C222.653 277.673 225.103 282.915 226.659 292.621C228.215 302.326 233.73 341.722 234.546 344.445C235.363 347.158 235.781 360.822 235.781 360.822C235.781 360.822 252.061 365.159 259.433 362.961C266.804 360.754 268.749 356.485 268.749 356.485C268.749 356.485 264.869 261.277 259.822 248.129C254.774 234.981 214.406 212.078 212.072 211.689C209.748 211.291 167.959 207.021 167.959 207.021Z" fill="#36303A"/>
<path d="M214.766 71.1731C214.406 70.716 213.939 70.3756 213.531 69.9672C212.286 68.7224 211.975 67.5165 211.304 66.0286C210.701 64.706 209.913 63.996 208.542 63.4417C206.256 62.5178 204.292 62.7804 202.357 60.8062C200.995 59.4253 200.227 57.3928 198.603 56.2647C198.321 56.0702 198.029 55.9243 197.737 55.8173C198.593 51.9468 199.07 47.4441 198.535 44.6239C197.757 40.5297 197.407 35.9006 194.917 32.4968C192.817 29.628 190.307 27.2648 187.069 25.8936C184.288 24.7168 180.174 21.8966 176.936 22.023C176.547 21.9258 176.167 21.8188 175.769 21.7507C170.41 20.7977 164.838 23.1122 159.839 25.0767C157.136 26.1367 154.695 27.751 152.448 29.5793C150.124 31.4757 148.461 34.1598 146.876 36.7758C144.24 41.1521 144.6 46.9968 145.475 51.5967C145.981 54.2808 145.738 56.9843 146.574 59.6198C147.265 61.7982 151.641 67.9347 153.119 69.6754C156.396 73.5654 158.322 69.9186 163.311 70.4729C163.914 70.5409 164.021 69.7921 163.642 69.4615C164.663 69.6657 165.674 69.8213 166.695 69.8699C169.195 69.9963 171.723 69.6949 174.232 69.7532C176.615 69.8116 179.007 69.9672 181.38 69.7629C185.883 69.3739 188.956 68.9461 191.338 67.4679C191.786 71.0466 193.147 74.6157 194.499 77.8736C194.596 78.107 194.791 78.214 194.995 78.2431C195.121 80.0228 195.063 83.0278 195.831 84.3504C197.29 86.8595 200.655 83.9711 202.921 83.4654C204.739 83.057 206.694 83.057 208.445 82.3568C210.341 81.5983 218.286 89.7964 219.55 88.2599C221.427 85.9453 217.012 74.0517 214.766 71.1731Z" fill="#36303A"/>
<path d="M233.535 119.827C232.825 113.555 231.755 107.428 231.357 101.077C231.133 97.4889 230.938 93.8906 230.569 90.3118C230.355 88.2599 230.219 85.6925 228.39 84.3504C225.911 82.5221 221.097 82.7944 218.218 82.454C214.046 81.9483 209.874 81.4815 205.692 81.0536C197.212 80.1881 188.713 79.4879 180.203 78.9239C180.077 78.7294 179.863 78.603 179.581 78.6419C179.231 78.7002 178.881 78.7488 178.54 78.8072C178.462 78.7975 178.375 78.7974 178.297 78.7877C178.141 78.778 178.025 78.8266 177.937 78.9044C173.308 79.6435 168.669 80.3923 164.04 81.1314C159.518 81.8608 154.228 82.0067 149.958 83.7183C142.966 86.5191 143.307 95.8745 143.91 102.04C144.474 107.778 145.806 113.399 146.477 119.117C147.08 124.233 144.221 120.595 144.765 125.72C145.261 130.418 147.44 142.146 148.801 146.668C153.265 161.46 159.246 169.736 166.014 180.375C167.882 180.56 169.768 180.618 171.645 180.628C181.088 180.676 194.013 180.151 203.456 180.044C206.13 180.015 208.756 179.694 211.352 179.188C215.155 178.041 220.056 175.551 223.09 175.328C224.938 175.191 236.53 174.161 237.425 172.575C237.921 171.7 237.454 168.929 237.483 167.888C237.542 165.817 235.276 163.745 235.363 161.683C235.684 153.923 231.59 146.192 232.631 138.489C233.486 132.324 234.235 126.051 233.535 119.827Z" fill="#E66C6C"/>
<path d="M161.706 155.197C161.706 155.197 145.699 151.997 141.906 151.122C138.123 150.247 131.423 149.372 129.04 147.047C126.667 144.723 107.849 135.689 108.141 134.823C108.433 133.948 115.124 127.549 117.166 119.39C117.701 117.25 118.722 115.198 120.035 113.195C120.978 111.736 122.077 110.306 123.234 108.877C126.56 104.763 130.479 100.64 133.183 95.9621C138.133 87.3943 149.968 83.7183 149.968 83.7183C149.968 83.7183 152.565 92.393 155.628 102.361C156.153 104.034 156.678 105.765 157.213 107.486C160.646 118.534 164.215 129.649 165.168 131.322C167.162 134.823 161.706 155.197 161.706 155.197Z" fill="#E66C6C"/>
<path d="M174.115 98.5489C173.804 96.8859 173.697 93.7642 172.034 95.8162C170.789 97.3527 170.157 99.2783 169.418 101.107C168.018 104.51 165.625 106.932 161.998 107.846C160.938 108.118 159.829 108.216 158.74 108.186C156.455 108.128 154.16 107.476 152.137 106.407C150.911 105.755 149.287 103.849 147.761 104.092C147.128 104.199 146.924 104.51 146.944 104.909C146.992 105.6 147.751 106.523 148.12 106.99C150.454 109.81 153.916 112.67 157.651 113.175C158.526 113.292 159.421 113.341 160.325 113.311C162.902 113.234 165.518 112.504 167.512 110.89C169.224 109.49 171.421 108.546 172.666 106.718C173.785 105.074 174.65 101.515 174.115 98.5489Z" fill="#F8F0EC"/>
<path d="M157.262 73.4487C155.492 73.5557 154.14 75.3937 154.286 77.4846C154.432 79.5171 154.656 81.89 155.006 83.4168C155.336 84.8367 156.007 86.6164 157.524 86.4219C159.022 86.2274 159.547 84.0781 159.839 82.6486C160.17 80.9856 160.384 79.0989 160.481 77.2317C160.598 75.0825 159.08 73.332 157.262 73.4487Z" fill="#F8F0EC"/>
<path d="M159.382 71.5135C159.382 72.7388 158.497 73.7307 157.408 73.7307C156.319 73.7307 155.434 72.7388 155.434 71.5135C155.434 70.2881 156.319 69.2962 157.408 69.2962C158.497 69.2962 159.382 70.2881 159.382 71.5135Z" fill="#F8F0EC"/>
<path d="M190.103 94.9798C185.445 96.9248 176.313 95.6703 175.642 94.017C175.564 93.8225 175.418 93.5308 175.234 93.171C173.843 90.4188 169.914 83.5432 169.914 83.5432L171.558 81.7344L190.113 61.3217C190.113 61.3217 197.095 82.0845 197.679 86.0717C198.253 90.0298 194.761 93.0445 190.103 94.9798Z" fill="#8F5E3C"/>
<path d="M206.539 88.9115C206.597 89.5047 204.846 93.1418 202.58 97.2069C202.221 97.8487 201.851 98.5003 201.472 99.1616C199.206 103.09 196.648 107.029 194.927 108.818C188.372 115.558 190.259 122.92 175.185 104.637C172.141 100.961 170.362 97.9654 169.516 95.6606C169.214 94.8534 169.029 94.1338 168.942 93.4919C168.903 93.2099 168.883 92.9473 168.883 92.7042C168.883 90.2827 175.477 85.9162 175.477 85.9162L195.083 80.6744C195.092 80.6744 206.052 84.1657 206.539 88.9115Z" fill="#A16E4A"/>
<path d="M187.497 67.2345C185.912 68.8391 184.852 71.4162 183.441 73.2056C181.856 75.2089 180.096 77.0859 178.025 78.5738C176.274 79.8283 174.417 80.6549 172.413 81.394C172.112 81.501 171.82 81.608 171.548 81.7247L169.904 83.5335C169.904 83.5335 173.843 90.4188 175.224 93.1613C176.07 93.1224 176.935 92.9181 177.723 92.5583C179.727 91.6539 181.623 90.3799 183.519 89.2907C184.861 88.5322 186.602 87.832 187.575 86.5872C188.537 85.3424 188.411 83.7961 189.004 82.386C189.675 80.7716 190.609 79.6046 190.93 77.8347C191.202 76.3662 191.28 63.4223 187.497 67.2345Z" fill="#8F5E3C"/>
<path d="M191.756 56.4786C191.202 50.2255 190.084 40.1018 187.225 34.5002C185.746 31.6021 182.732 31.5438 179.979 29.7739C179.445 29.4238 178.871 29.1223 178.307 28.85C175.71 27.6344 172.9 28.9278 170.031 28.7333C166.082 28.4513 161.998 28.636 158.371 30.2212C152.04 32.9928 146.535 38.3027 148.276 47.4344C148.986 51.2077 149.803 55.088 150.795 58.8613C150.97 59.5615 151.155 60.2519 151.349 60.9327C153.537 68.8294 156.494 76.0064 160.705 80.227C164.536 84.0781 168.903 86.9373 173.221 86.9276C187.458 86.8789 192.748 67.5165 191.756 56.4786Z" fill="#A16E4A"/>
<path d="M190.22 65.8341C188.45 65.9411 187.098 67.7791 187.244 69.8699C187.39 71.9025 187.614 74.2754 187.964 75.8022C188.294 77.222 188.965 79.0017 190.482 78.8072C191.98 78.6127 192.505 76.4635 192.797 75.0339C193.128 73.3709 193.342 71.4843 193.439 69.6171C193.556 67.4679 192.038 65.7174 190.22 65.8341Z" fill="white"/>
<path d="M192.34 63.8988C192.34 65.1241 191.455 66.1161 190.366 66.1161C189.277 66.1161 188.392 65.1241 188.392 63.8988C188.392 62.6734 189.277 61.6815 190.366 61.6815C191.455 61.6718 192.34 62.6637 192.34 63.8988Z" fill="white"/>
<path d="M173.045 58.6959C173.045 58.6862 173.036 58.6667 173.036 58.657C173.036 58.6376 173.036 58.6181 173.026 58.5987C172.977 58.2875 172.977 58.0054 173.094 57.7818C173.23 57.4997 173.522 57.315 174.047 57.2955C174.329 57.2858 174.553 57.4219 174.747 57.5581C175.71 58.268 177.159 60.9327 175.798 61.7593C174.387 62.6151 173.259 59.7462 173.045 58.6959Z" fill="#36303A"/>
<path d="M156.27 63.325C156.27 63.3153 156.26 63.2959 156.26 63.2861C156.26 63.2667 156.26 63.2472 156.25 63.2278C156.202 62.9166 156.202 62.6346 156.318 62.4109C156.455 62.1289 156.746 61.9441 157.272 61.9246C157.554 61.9149 157.777 62.0511 157.972 62.1872C158.934 62.8971 160.384 65.5618 159.022 66.3884C157.612 67.2345 156.484 64.3753 156.27 63.325Z" fill="#36303A"/>
<path d="M171.772 72.7485C170.323 73.6529 168.232 73.828 167.561 71.8344C167.318 71.0953 167.249 70.2881 167.143 69.5198C166.851 67.5165 166.578 65.5034 166.287 63.5001C166.18 62.761 165.061 63.0722 165.168 63.8113C165.45 65.8146 165.732 67.8277 166.024 69.831C166.189 70.9689 166.277 72.2331 166.909 73.225C168.193 75.2381 170.585 74.8686 172.365 73.7502C172.987 73.3612 172.404 72.3498 171.772 72.7485Z" fill="#8C4D37"/>
<path d="M176.945 74.3239C174.349 76.0842 172.491 76.5023 169.418 77.115C168.436 77.3095 167.288 77.4165 168.426 77.9319C170.751 78.9822 172.501 79.1184 175.02 78.1653C176.654 77.5429 177.801 76.3273 178.715 74.2948C179.026 73.5946 178.803 72.943 178.278 73.2445C178.19 73.2931 177.159 74.1781 176.945 74.3239Z" fill="#8C4D37"/>
<path d="M178.929 52.9582C178.842 52.8901 178.754 52.8318 178.676 52.7929C175.905 51.2661 170.429 52.3358 169.321 55.6131C169.165 56.0702 169.603 56.4106 170.021 56.3425C171.441 56.1188 173.123 55.3797 174.572 55.0296C176.187 54.6309 177.898 54.378 179.065 54.0085C179.697 53.8043 179.299 53.2597 178.929 52.9582Z" fill="#36303A"/>
<path d="M159.022 59.153C157.661 59.61 155.832 59.7365 154.373 60.0963C153.333 60.3686 152.292 60.6895 151.349 60.9326C151.155 60.2422 150.96 59.5614 150.795 58.8612C153.09 56.9746 157.203 56.1674 159.304 58.1708C159.654 58.5014 159.421 59.0168 159.022 59.153Z" fill="#36303A"/>
<path d="M193.808 54.4364C193.838 54.2321 193.74 54.0279 193.565 53.8918C193.517 53.7848 193.468 53.6778 193.419 53.5708C192.904 49.9337 191.27 46.4716 190.657 42.815C189.977 38.7694 188.936 34.6849 187.069 31.0089C185.863 28.6457 184.161 26.691 181.458 26.2339C177.247 25.524 172.365 26.2339 168.173 26.798C161.901 27.644 152.691 28.7332 148.393 34.0139C145.923 37.0578 146.282 40.5783 146.584 44.2543C146.953 48.7278 147.459 53.6292 148.928 57.8596C149.307 58.9585 150.027 57.704 150.182 57.2566C150.581 56.1577 150.639 54.8643 150.766 53.707C151.028 51.4119 151.252 49.0196 152.516 47.0162C153.207 45.9173 154.14 44.9934 155.122 44.1376C155.9 45.2852 156.669 46.3452 158.089 47.1426C160.636 48.5819 163.661 48.2124 166.287 49.5155C168.436 50.5853 170.196 51.3924 172.676 51.0812C173.289 51.0034 173.901 50.877 174.504 50.7214C175.545 51.548 176.595 52.3649 177.704 53.0846C178.239 53.4347 178.783 53.7556 179.338 54.0571C180.261 55.0296 181.205 55.9826 182.284 56.7898C184.638 58.55 187.439 61.6815 190.375 62.0802C191.494 62.2358 196.308 63.821 196.891 62.5081C197.426 61.3022 194.586 56.2355 193.808 54.4364Z" fill="#36303A"/>
<path d="M177.305 318.917C177.305 318.917 181.137 451.945 181.38 455.076C181.73 459.599 187.147 462.827 187.322 452.567C187.448 445.186 192.243 308.443 192.243 308.443L177.305 318.917Z" fill="#E0CFC7"/>
<path d="M221.009 230.945C221.009 230.945 222.293 377.588 222.536 380.719C222.886 385.241 228.303 388.47 228.478 378.21C228.604 370.829 235.947 220.481 235.947 220.481L221.009 230.945Z" fill="#E0CFC7"/>
<path d="M0.00914707 230.77C0.00914707 230.77 6.48598 377.296 6.379 380.437C6.23313 384.969 0.971914 388.441 0.330066 378.2C-0.136733 370.829 -15.3855 220.996 -15.3855 220.996L0.00914707 230.77Z" fill="#E0CFC7"/>
<path d="M-75.9625 269.028L-70.322 308.044L191.873 321.436L235.947 220.996V183.146L-75.9625 269.028Z" fill="#F8F0EC"/>
<path d="M-75.9625 269.028L-12.0694 176.572C-11.2039 175.24 -9.69651 174.452 -8.11134 174.511L235.947 183.156L191.047 280.727L-75.9625 269.028Z" fill="#F8F0EC"/>
<path d="M192.243 284.461C192.233 284.461 192.223 284.461 192.213 284.461L-74.2705 269.621C-74.5914 269.602 -74.8345 269.329 -74.8151 269.008C-74.7956 268.687 -74.5136 268.444 -74.2024 268.464L191.873 283.285L234.021 185.967C234.148 185.665 234.498 185.529 234.789 185.665C235.081 185.792 235.217 186.132 235.091 186.434L192.787 284.121C192.68 284.325 192.466 284.461 192.243 284.461Z" fill="#E0CFC7"/>
<path d="M191.047 320.366C191.037 320.366 191.037 320.366 191.027 320.366C190.706 320.356 190.453 320.084 190.463 319.763L191.659 283.858C191.669 283.547 191.932 283.294 192.243 283.294C192.252 283.294 192.252 283.294 192.262 283.294C192.583 283.304 192.836 283.576 192.826 283.897L191.63 319.802C191.62 320.123 191.358 320.366 191.047 320.366Z" fill="#E0CFC7"/>
<path d="M264.509 151.414C264.509 151.414 252.635 154.322 245.886 155.197C239.146 156.072 232.553 152.873 227.253 152.873C221.962 152.873 222.079 154.915 220.999 152.873C219.93 150.83 218.52 139.19 218.345 131.332C218.267 127.52 220.348 116.239 222.536 105.609C224.559 95.68 226.669 86.3149 227.146 84.1851C227.214 83.8836 227.253 83.728 227.253 83.728C227.253 83.728 227.447 83.7766 227.797 83.8933C228.614 84.1462 230.238 84.7978 232.203 86.1787C235.042 88.1723 238.553 91.7122 241.179 97.8584C246.051 109.237 254.697 125.127 257.526 133.617C257.74 134.259 257.925 134.862 258.061 135.407C258.402 136.69 258.781 137.964 259.219 139.228C261.426 145.696 264.509 151.414 264.509 151.414Z" fill="#E66C6C"/>
<path d="M176.362 188.972L172.316 197.413C172.316 197.413 169.583 196.927 165.343 196.139C163.904 195.867 162.28 195.585 160.549 195.254C146.817 192.696 125.345 188.476 120.015 186.346C112.002 183.147 101.946 176.397 103.395 170.134C104.854 163.881 115.921 139.481 115.921 139.481L138.755 150.461C138.755 150.461 129.011 165.155 128.855 165.603C128.855 165.953 152.312 177.35 166.258 184.1C167.784 184.829 169.185 185.51 170.439 186.113C174.037 187.853 176.362 188.972 176.362 188.972Z" fill="#A16E4A"/>
<path d="M226.873 103.061C224.928 99.9396 224.355 96.5747 225.735 93.0932C226.902 90.1271 229.373 87.7055 232.212 86.169C230.258 84.7978 228.624 84.1462 227.807 83.8836C227.583 83.9614 227.369 84.0587 227.155 84.1754C225.94 84.7589 224.841 85.5174 223.946 86.4607C220.426 90.1757 218.617 97.4208 220.426 102.439C220.766 103.372 221.525 104.52 222.546 105.609C223.557 106.708 224.841 107.729 226.212 108.371C227.749 109.1 230.345 110.832 229.645 108.274C229.129 106.368 227.933 104.734 226.873 103.061Z" fill="#F8F0EC"/>
<path d="M125.918 112.708C124.965 111.512 124.216 110.063 123.224 108.877C122.057 110.306 120.968 111.746 120.025 113.195C121.377 114.508 122.339 116.161 122.845 118.193C123.652 121.451 122.923 125.049 121.328 128.045C120.667 129.27 118.741 130.875 118.975 132.402C119.082 133.043 119.383 133.238 119.782 133.228C120.472 133.18 121.416 132.44 121.882 132.061C124.712 129.756 127.601 126.304 128.136 122.579C128.622 119.253 128.087 115.412 125.918 112.708Z" fill="#F8F0EC"/>
<path d="M213.852 129.533C212.344 128.745 209.835 126.897 210.419 129.474C210.856 131.4 211.994 133.092 212.967 134.804C214.795 138.003 215.213 141.378 213.706 144.801C212.354 147.874 209.582 150.295 206.49 151.676C205.226 152.24 202.707 152.347 201.968 153.69C201.666 154.254 201.783 154.604 202.104 154.837C202.678 155.226 203.874 155.207 204.477 155.187C208.124 155.09 212.519 154.117 215.213 151.511C217.635 149.158 219.551 145.783 219.492 142.331C219.444 140.123 220.066 137.818 219.395 135.698C218.782 133.792 216.526 130.923 213.852 129.533Z" fill="#F8F0EC"/>
<path d="M258.071 135.407C257.935 134.862 257.74 134.249 257.536 133.617C256.496 135.261 255.008 136.574 253.033 137.468C249.96 138.83 246.304 138.771 243.065 137.741C241.753 137.313 239.817 135.718 238.359 136.214C237.756 136.428 237.6 136.768 237.697 137.147C237.863 137.809 238.767 138.616 239.214 138.995C241.996 141.368 245.915 143.595 249.659 143.459C253.033 143.332 256.7 142.107 258.985 139.501C259.063 139.404 259.151 139.316 259.228 139.228C258.791 137.964 258.411 136.681 258.071 135.407Z" fill="#F8F0EC"/>
<path d="M180.865 165.846C178.91 165.544 176.926 165.962 174.971 166.245C171.334 166.74 168.028 165.894 165.412 163.22C163.068 160.818 161.862 157.346 161.706 153.972C161.648 152.571 162.484 150.208 161.512 149.022C161.103 148.526 160.734 148.496 160.403 148.72C159.829 149.109 159.402 150.218 159.188 150.782C157.914 154.215 157.184 158.649 158.633 162.121C159.917 165.243 162.329 168.277 165.557 169.502C167.619 170.28 169.545 171.72 171.752 171.866C173.746 172.021 177.247 170.981 179.542 169.016C180.835 167.917 183.481 166.245 180.865 165.846Z" fill="#F8F0EC"/>
<path d="M205.829 199.027C204.837 197.86 201.696 197.18 200.305 196.742C199.42 196.46 198.525 196.217 197.63 195.984C198.097 195.984 198.564 195.984 199.031 195.974C200.577 195.945 205.965 195.993 205.926 194.398C205.897 192.794 202.561 192.648 201.307 192.434C199.605 192.142 192.515 190.878 191.066 190.469C192.019 190.411 192.962 190.333 193.916 190.197C195.034 190.042 196.716 190.042 197.572 189.186C199.021 187.746 197.562 187.173 195.987 187.124C193.176 187.046 190.638 186.55 187.847 185.889C185.854 185.422 183.85 184.81 181.779 184.819C177.801 184.839 174.563 187.163 171.548 189.497C171.169 189.789 171.373 190.236 171.733 190.392C170.683 192.162 169.895 193.99 169.331 196.003C169.234 196.334 169.447 196.596 169.739 196.723C173.649 198.347 177.568 199.971 181.477 201.595C184.969 203.044 188.479 204.678 192.243 205.271C193.546 205.475 196.395 206.214 197.251 204.785C197.475 204.415 197.504 204.016 197.426 203.637C199.002 203.763 200.558 203.822 202.075 203.754C203.368 203.705 204.759 202.587 204.594 201.614C206.043 201.245 207.073 200.496 205.829 199.027Z" fill="#A16E4A"/>
<path d="M196.57 195.332C194.936 195.196 193.342 194.904 191.766 194.466C191.046 194.262 190.735 195.39 191.455 195.585C193.128 196.052 194.829 196.353 196.57 196.489C197.319 196.557 197.319 195.39 196.57 195.332Z" fill="#8C4D37"/>
<path d="M203.582 200.253C199.4 199.669 195.102 199.309 190.988 198.337C190.259 198.162 189.948 199.29 190.677 199.455C194.791 200.418 199.089 200.788 203.271 201.371C204.01 201.478 204.321 200.36 203.582 200.253Z" fill="#8C4D37"/>
<path d="M196.376 202.674C194.324 202.353 192.214 202.13 190.317 201.196C189.646 200.865 189.053 201.867 189.734 202.198C191.727 203.18 193.896 203.452 196.074 203.793C196.794 203.909 197.115 202.791 196.376 202.674Z" fill="#8C4D37"/>
<path d="M201.423 132.343C201.423 132.343 249.066 148.652 254.677 153.155C260.736 158.027 261.465 170.699 253.559 171.671C245.643 172.634 241.714 170.387 224.111 159.855C206.101 149.07 194.927 142.088 194.927 142.088L201.423 132.343Z" fill="#A16E4A"/>
<path d="M163.826 143.478L180.913 143.751C182.304 142.049 183.354 122.92 183.354 122.92C183.412 122.599 183.228 122.288 182.965 122.288L162.037 122.181C161.784 122.181 161.59 122.482 161.648 122.813C161.658 122.813 162.766 142.097 163.826 143.478Z" fill="white"/>
<path d="M181.72 139.909C181.429 139.909 181.137 139.87 180.865 139.812C179.902 139.588 178.676 138.752 178.336 136.097C178.151 134.667 178.258 132.878 178.628 131.322C179.707 126.751 181.574 124.544 183.86 125.088C186.68 125.759 189.218 128.696 188.119 133.569C187.584 135.951 186.252 137.955 184.463 139.063C183.558 139.627 182.615 139.919 181.72 139.909ZM183.247 127.131C182.401 127.131 181.341 129.037 180.68 131.818C180.369 133.121 180.271 134.658 180.427 135.834C180.573 136.943 180.913 137.663 181.351 137.76C181.915 137.896 182.644 137.711 183.344 137.274C184.657 136.457 185.639 134.93 186.058 133.102C186.894 129.377 185.134 127.559 183.364 127.14C183.325 127.131 183.286 127.131 183.247 127.131Z" fill="white"/>
<path d="M183.354 122.725C183.344 124.592 178.472 126.08 172.482 126.041C166.481 126.012 161.628 124.476 161.638 122.608C161.648 120.741 166.52 119.253 172.511 119.292C178.511 119.321 183.364 120.858 183.354 122.725Z" fill="white"/>
<path d="M181.03 143.342C181.02 144.723 177.013 146.201 172.404 146.182C167.794 146.162 163.768 144.597 163.778 143.216C163.787 141.835 167.794 140.755 172.413 140.775C177.023 140.794 181.03 141.961 181.03 143.342Z" fill="white"/>
<path d="M181.779 122.959C181.769 124.388 177.607 125.526 172.491 125.507C167.366 125.477 163.223 124.301 163.223 122.861C163.233 121.432 167.395 120.294 172.511 120.313C177.646 120.343 181.788 121.519 181.779 122.959Z" fill="#7D4949"/>
<path d="M204.856 134.57C203.514 132.917 202.435 131.157 201.715 129.144C201.588 128.794 201.481 128.424 201.384 128.064C200.752 126.819 200.071 125.613 199.118 124.651C196.512 122.025 190.765 123.036 187.478 123.523C187.38 123.532 187.293 123.523 187.205 123.503C186.31 123.853 185.581 124.213 185.464 124.748C185.212 125.925 185.61 126.09 186.845 126.897C185.328 127.763 186.262 127.811 184.541 128.356C183.354 128.735 183.053 128.881 182.44 130.077C181.72 131.487 181.876 133.646 182.897 134.658C184.19 135.932 183.636 136.583 184.511 138.188C184.891 138.888 185.192 139.54 185.717 140.152C188.061 142.856 193.196 144.49 196.57 143.05C200.032 141.572 202.473 138.314 203.64 134.813C203.777 134.998 203.913 135.173 204.059 135.358C204.525 135.903 205.303 135.115 204.856 134.57Z" fill="#A16E4A"/>
<path d="M202.58 97.2069C202.221 97.8487 201.851 98.5003 201.472 99.1616C201.19 99.3269 200.898 99.4922 200.606 99.6381C196.259 101.992 191.815 103.742 186.845 104.17C182.236 104.569 178.579 102.838 174.991 100.115C173.114 98.7045 171.237 97.236 169.515 95.6509C169.214 94.8437 169.029 94.124 168.942 93.4822C170.828 95.3786 172.948 97.061 175.068 98.7142C179.659 102.264 183.86 103.693 189.685 102.556C194.334 101.671 198.574 99.6673 202.58 97.2069Z" fill="white"/>
<path d="M172.55 48.0082C168.358 45.6839 164.361 43.0874 160.529 40.2088C159.927 39.7614 159.353 40.7728 159.946 41.2104C163.768 44.0988 167.775 46.6953 171.966 49.0099C172.618 49.3697 173.211 48.368 172.55 48.0082Z" fill="#1A161C"/>
<path d="M165.246 26.0589C162.183 26.8466 160.889 28.7819 159.829 31.6022C158.468 35.249 155.045 36.5911 155.249 40.8701C155.288 41.6189 156.445 41.6189 156.416 40.8701C156.251 37.4274 158.74 36.2799 160.228 33.7125C161.852 30.902 161.706 28.1692 165.557 27.1773C166.277 26.9925 165.966 25.8644 165.246 26.0589Z" fill="#1A161C"/>
<path d="M190.716 57.5776C187.341 50.5172 178.239 45.6936 171.286 42.9901C170.585 42.7178 170.284 43.8459 170.974 44.1085C177.675 46.705 186.466 51.3827 189.705 58.1513C190.035 58.8418 191.037 58.2583 190.716 57.5776Z" fill="#1A161C"/>
<path d="M196.191 55.1463C196.142 56.6051 196.035 57.9666 195.617 59.367C195.403 60.0672 195.18 60.5437 194.528 60.9424C194.129 61.1856 193.77 61.312 193.419 61.6329C192.855 62.1289 193.682 62.9555 194.246 62.4595C194.761 62.0025 195.462 61.8955 195.938 61.3801C196.288 61.0008 196.483 60.5145 196.648 60.0283C197.183 58.4237 197.309 56.8288 197.358 55.1463C197.377 54.3975 196.211 54.3975 196.191 55.1463Z" fill="#1A161C"/>
<path d="M211.829 73.5363C210.798 70.93 209.757 67.6915 207.559 65.8146C206.606 65.0074 205.469 64.7351 204.331 64.2781C202.288 63.4417 200.538 62.2553 198.933 60.7285C198.389 60.213 197.562 61.0299 198.107 61.5551C199.935 63.2861 201.968 64.6476 204.331 65.5423C206.208 66.262 207.238 66.9524 208.337 68.7418C209.32 70.3465 210.01 72.1067 210.701 73.8572C210.973 74.5379 212.101 74.2365 211.829 73.5363Z" fill="#1A161C"/>
<path d="M211.002 79.945C210.039 76.4537 208.717 73.1181 207.015 69.9283C206.665 69.267 205.653 69.8505 206.013 70.5118C207.667 73.6238 208.95 76.8622 209.874 80.2562C210.078 80.9856 211.206 80.6744 211.002 79.945Z" fill="#1A161C"/>
<path d="M269.799 277.304C269.605 267.783 270.704 256.434 265.968 247.769C263.751 243.714 260.298 240.524 257.011 237.354C252.732 233.23 248.453 229.107 244.174 224.983C243.63 224.468 242.813 225.285 243.348 225.81C247.354 229.671 251.371 233.541 255.377 237.402C258.859 240.757 262.613 244.064 264.956 248.352C267.572 253.157 268.098 258.719 268.302 264.097C268.506 269.261 268.574 274.425 268.671 279.589C269.08 301.957 268.837 324.412 265.491 346.585C265.384 347.314 266.503 347.635 266.61 346.896C270.101 323.857 270.266 300.537 269.799 277.304Z" fill="#1A161C"/>
<path d="M149.083 146.474C147.401 142.875 145.835 139.297 145.125 135.368C144.483 131.799 144.328 128.113 142.82 124.758C141.42 121.646 139.203 118.913 137.511 115.957C135.41 112.281 133.64 108.449 132.152 104.491C131.89 103.8 130.761 104.102 131.034 104.802C132.376 108.371 133.932 111.853 135.76 115.208C137.618 118.602 140.175 121.714 141.751 125.244C143.355 128.852 143.404 132.829 144.192 136.651C144.95 140.308 146.506 143.702 148.082 147.067C148.393 147.738 149.395 147.154 149.083 146.474Z" fill="#B54848"/>
<path d="M236.472 139.199C235.529 136.447 235.918 133.287 235.937 130.418C235.947 127.753 235.966 125.088 235.976 122.414C236.005 116.696 236.034 110.987 236.064 105.269C236.064 104.52 234.906 104.52 234.897 105.269C234.867 111.366 234.838 117.464 234.809 123.562C234.79 126.605 234.78 129.659 234.76 132.703C234.751 135.018 234.595 137.293 235.354 139.501C235.587 140.211 236.715 139.909 236.472 139.199Z" fill="#B54848"/>
<path d="M72.3336 227.609C72.3336 227.609 85.4332 228.708 96.3543 233.658C107.82 238.851 113.675 243.412 113.675 243.412C113.675 243.412 133.766 244.288 142.791 248.362C151.816 252.437 163.603 259.429 164.915 259.283C166.228 259.138 201.404 221.716 201.802 219.45C201.841 219.246 186.777 210.522 178.248 207.031C169.72 203.54 155.288 203.326 155.288 203.326C155.288 203.326 139.154 192.337 129.108 190.294C119.062 188.252 112.041 186.861 110.601 187.999C109.162 189.118 72.3336 227.609 72.3336 227.609Z" fill="white"/>
<path d="M114.355 242.634C114.2 242.634 114.054 242.576 113.937 242.459C113.713 242.226 113.723 241.856 113.957 241.633L153.936 203.384C154.169 203.161 154.539 203.17 154.763 203.404C154.986 203.637 154.977 204.007 154.743 204.23L114.764 242.479C114.637 242.586 114.491 242.634 114.355 242.634Z" fill="#F5D2B5"/>
<path d="M163.651 255.345C163.534 255.345 163.418 255.306 163.32 255.238C163.233 255.179 154.189 248.907 141.498 243.539C134.71 240.67 122.174 241.069 122.048 241.078C121.736 241.069 121.454 240.835 121.445 240.514C121.435 240.193 121.688 239.921 122.009 239.911C122.534 239.892 134.933 239.493 141.955 242.459C154.772 247.876 163.904 254.217 163.992 254.275C164.254 254.46 164.322 254.82 164.137 255.082C164.011 255.267 163.836 255.345 163.651 255.345Z" fill="#F5D2B5"/>
<path d="M168.844 250.385C168.737 250.385 168.621 250.356 168.524 250.288C168.397 250.2 155.589 241.759 146.545 238.521C137.54 235.302 128.019 235.632 127.922 235.632C127.62 235.632 127.328 235.399 127.319 235.068C127.309 234.747 127.552 234.475 127.883 234.465C127.98 234.465 137.724 234.115 146.954 237.422C156.134 240.709 169.058 249.228 169.185 249.315C169.447 249.49 169.525 249.85 169.35 250.122C169.224 250.288 169.039 250.385 168.844 250.385Z" fill="#F5D2B5"/>
<path d="M173.143 245.503C173.036 245.503 172.919 245.474 172.822 245.406C172.696 245.318 159.888 236.877 150.844 233.639C141.838 230.42 132.317 230.75 132.22 230.75C131.919 230.741 131.627 230.517 131.617 230.186C131.608 229.865 131.851 229.593 132.181 229.583C132.279 229.583 142.023 229.233 151.252 232.54C160.432 235.827 173.357 244.346 173.483 244.433C173.746 244.608 173.824 244.968 173.649 245.241C173.512 245.406 173.328 245.503 173.143 245.503Z" fill="#F5D2B5"/>
<path d="M191.474 227.249C191.367 227.249 191.251 227.22 191.153 227.152C191.027 227.065 178.219 218.623 169.175 215.385C160.16 212.156 150.639 212.496 150.542 212.506C150.221 212.487 149.949 212.273 149.939 211.942C149.929 211.621 150.172 211.349 150.503 211.339C150.6 211.339 160.345 210.989 169.574 214.286C178.754 217.573 191.678 226.092 191.805 226.18C192.067 226.355 192.145 226.714 191.97 226.987C191.844 227.152 191.659 227.249 191.474 227.249Z" fill="#F5D2B5"/>
<path d="M195.763 222.367C195.656 222.367 195.539 222.338 195.442 222.27C195.316 222.183 182.508 213.741 173.464 210.503C164.449 207.274 154.928 207.615 154.831 207.624C154.51 207.644 154.237 207.391 154.228 207.06C154.218 206.739 154.461 206.467 154.792 206.457C154.889 206.457 164.633 206.107 173.862 209.404C183.043 212.691 195.967 221.21 196.094 221.298C196.356 221.473 196.434 221.832 196.259 222.105C196.142 222.28 195.958 222.367 195.763 222.367Z" fill="#F5D2B5"/>
<path d="M114.355 238.559C114.239 238.559 114.132 238.53 114.025 238.462C113.927 238.394 104.552 232.053 95.3235 228.601C86.1139 225.158 77.2642 224.935 77.1767 224.935C76.8558 224.925 76.6029 224.662 76.6029 224.342C76.6126 224.021 76.9141 223.748 77.1961 223.768C77.2837 223.768 86.3279 224.001 95.7319 227.512C105.107 231.013 114.589 237.441 114.686 237.499C114.948 237.684 115.017 238.044 114.842 238.307C114.715 238.472 114.54 238.559 114.355 238.559Z" fill="#F5D2B5"/>
<path d="M119.656 234.067C119.539 234.067 119.432 234.037 119.325 233.969C119.228 233.901 109.863 227.561 100.624 224.108C91.4142 220.675 82.5645 220.442 82.477 220.442C82.156 220.432 81.9032 220.17 81.9032 219.849C81.9129 219.528 82.1949 219.265 82.4964 219.275C82.5839 219.275 91.6282 219.508 101.032 223.019C110.407 226.52 119.889 232.948 119.986 233.006C120.249 233.191 120.317 233.551 120.142 233.814C120.025 233.969 119.85 234.067 119.656 234.067Z" fill="#F5D2B5"/>
<path d="M124.965 229.564C124.849 229.564 124.742 229.535 124.635 229.467C124.537 229.399 115.172 223.058 105.933 219.605C96.7239 216.163 87.8742 215.939 87.7867 215.939C87.4658 215.929 87.2129 215.667 87.2129 215.346C87.2226 215.025 87.4852 214.772 87.8061 214.772C87.8936 214.772 96.9379 215.006 106.342 218.516C115.717 222.008 125.199 228.436 125.296 228.504C125.558 228.689 125.627 229.048 125.452 229.311C125.335 229.476 125.15 229.564 124.965 229.564Z" fill="#F5D2B5"/>
<path d="M149.569 204.814C149.453 204.814 149.346 204.785 149.239 204.717C149.141 204.648 139.767 198.298 130.538 194.855C121.328 191.413 112.478 191.189 112.391 191.189C112.07 191.179 111.817 190.917 111.817 190.596C111.827 190.275 112.109 190.003 112.41 190.022C112.498 190.022 121.542 190.255 130.946 193.766C140.321 197.257 149.803 203.695 149.9 203.754C150.163 203.938 150.231 204.298 150.056 204.561C149.929 204.726 149.754 204.814 149.569 204.814Z" fill="#F5D2B5"/>
<path d="M128.544 225.392C128.398 225.392 128.243 225.333 128.136 225.217C128.058 225.139 120.268 217.456 109.61 215.453C109.289 215.395 109.084 215.093 109.143 214.772C109.201 214.451 109.522 214.247 109.823 214.305C120.842 216.377 128.632 224.06 128.953 224.39C129.176 224.614 129.176 224.983 128.953 225.217C128.836 225.333 128.69 225.392 128.544 225.392Z" fill="#F5D2B5"/>
<path d="M132.833 220.889C132.687 220.889 132.531 220.831 132.424 220.714C132.346 220.636 124.557 212.954 113.898 210.95C113.577 210.892 113.373 210.59 113.431 210.269C113.49 209.949 113.81 209.754 114.112 209.803C125.13 211.874 132.92 219.557 133.241 219.887C133.465 220.111 133.465 220.481 133.241 220.714C133.124 220.841 132.978 220.889 132.833 220.889Z" fill="#F5D2B5"/>
<path d="M72.7809 197.296C72.9074 198.104 72.5086 198.95 71.6626 199.3L37.6835 213.381C36.9736 213.673 36.1567 213.498 35.6315 212.924L25.7607 202.363C25.1869 201.75 25.1285 200.895 25.4786 200.243C25.6634 199.873 25.9746 199.572 26.4122 199.397L58.8256 186.259C59.4577 186.006 60.1774 186.122 60.7025 186.56L72.1585 196.188C72.5184 196.499 72.7129 196.888 72.7809 197.296Z" fill="#6F5E61"/>
<path d="M72.7809 197.296C72.9074 198.104 72.5086 198.95 71.6626 199.3L37.6835 213.381C36.9736 213.673 36.1567 213.498 35.6315 212.924L25.7607 202.363C25.1869 201.75 25.1285 200.895 25.4786 200.243C27.5501 202.402 36.8082 211.874 36.8082 211.874L72.7809 197.296Z" fill="#36303A"/>
<path d="M27.4335 200.068L37.2168 210.299L68.6966 197.559L57.153 188.058L27.4335 200.068Z" fill="#ABCAD6"/>
<path d="M64.3494 190.401C65.0302 191.082 65.2247 191.996 64.7773 192.444C64.33 192.891 63.4158 192.696 62.7351 192.016C62.0543 191.335 61.8598 190.421 62.3072 189.973C62.7545 189.526 63.6687 189.721 64.3494 190.401Z" fill="#36303A"/>
<path d="M170.439 186.122C168.776 189.477 167.074 192.823 165.343 196.149C163.904 195.876 162.28 195.594 160.549 195.264C162.494 191.559 164.39 187.844 166.267 184.109C167.784 184.839 169.185 185.51 170.439 186.122Z" fill="#36303A"/>
<path d="M166.831 186.667C169.194 187.474 170.507 189.886 169.768 192.055C169.029 194.223 166.52 195.332 164.157 194.534C161.794 193.727 160.481 191.315 161.22 189.147C161.959 186.968 164.468 185.869 166.831 186.667Z" fill="white"/>
<g opacity="0.44">
<path opacity="0.44" d="M181.312 98.0821C177.393 96.8665 175.856 102.993 175.244 105.473C174.874 106.951 174.816 108.4 173.775 109.577C173.114 110.316 172.336 110.822 171.947 111.765C171.12 113.759 171.859 116.54 172.015 118.612C172.073 119.38 172.978 119.283 173.201 118.67C173.444 117.989 173.347 117.192 173.6 116.472C173.843 115.801 174.213 115.198 174.66 114.634C175.555 113.506 176.693 112.582 177.607 111.464C178.219 110.715 178.229 109.985 178.628 109.207C179.347 107.797 180.349 107.175 181.438 106.202C183.432 104.403 184.852 99.181 181.312 98.0821Z" fill="white"/>
</g>
</g>
</svg>
