<svg width="337" height="248" viewBox="0 0 337 248" fill="none" xmlns="http://www.w3.org/2000/svg">
<g clip-path="url(#clip0)">
<path d="M212.341 196.299C212.101 196.216 211.846 196.185 211.593 196.207C211.341 196.229 211.095 196.304 210.873 196.427C210.651 196.55 210.458 196.718 210.306 196.921C210.153 197.124 210.045 197.357 209.988 197.604C209.929 197.853 209.925 198.112 209.978 198.362C210.031 198.612 210.139 198.847 210.294 199.051C210.449 199.254 210.648 199.42 210.875 199.537C211.103 199.654 211.353 199.719 211.609 199.727C211.94 199.743 212.268 199.655 212.546 199.475C212.824 199.295 213.038 199.031 213.158 198.723C213.283 198.514 213.362 198.281 213.388 198.039C213.414 197.797 213.388 197.552 213.31 197.322C213.232 197.091 213.105 196.88 212.938 196.704C212.77 196.527 212.567 196.389 212.341 196.299Z" fill="#FFE1C7"/>
<path d="M335.578 118.481C332.864 121.553 331.259 125.446 331.018 129.539C331.018 129.998 331.72 129.998 331.735 129.539C331.919 125.864 333.276 122.346 335.607 119.499C335.679 119.184 335.593 118.782 335.578 118.481Z" fill="white"/>
<path d="M22.0412 175.661C20.7122 183.578 19.3736 191.495 18.0255 199.411L16.2615 209.809C15.946 211.716 15.9029 214.255 13.9812 215.316C11.3423 216.75 10.2237 214.384 10.3241 212.103L11.9016 175.661H22.0412Z" fill="#964A35"/>
<path d="M315.844 137.914C315.844 138.316 315.844 138.631 315.844 138.846C315.844 139.062 315.844 139.191 315.844 139.191C315.529 139.047 312.13 137.384 307.899 135.29L306.465 134.601C299.781 131.274 291.75 127.23 290.488 126.312C287.219 123.63 284.133 120.731 281.252 117.635C280.592 116.932 279.961 116.201 279.373 115.541C276.72 112.429 274.813 109.489 275.372 107.983C276.806 104.154 282.901 80.3899 282.901 80.3899C282.901 80.3899 314.725 100.468 315.801 102.734C316.762 104.685 316.031 131.69 315.844 137.914Z" fill="#FFC080"/>
<path d="M315.27 153.303L2.32145 184.281C2.2354 181.742 2.20672 179.218 2.16369 176.694L1.94856 162.811C1.94856 162.639 1.94856 162.481 1.94856 162.295C1.94856 162.108 1.94856 161.764 1.94856 161.492L1.51832 139.233C1.51832 138.803 1.51832 138.387 1.51832 137.971C1.51832 137.556 1.51832 137.426 1.51832 137.168C1.26973 121.641 1.02592 106.114 0.786893 90.5866C0.681721 84.85 0.59089 79.1133 0.514401 73.3767C0.428351 68.3571 0.342301 63.3375 0.514401 58.2606C0.514401 57.9881 0.514401 57.7156 0.514401 57.4431C0.514401 56.009 0.614794 54.4314 0.700844 52.9112C50.8966 49.4405 264.903 34.3674 267.728 34.3674C270.955 34.3674 276.591 36.1744 278.011 38.1823C278.771 39.2866 281.023 60.8277 282.916 80.318C284.522 96.7535 285.856 111.726 285.856 111.726C285.856 111.726 314.066 131.073 315.285 134.673C315.556 135.679 315.705 136.714 315.729 137.756C315.729 138.072 315.729 138.387 315.729 138.732C315.722 138.851 315.722 138.971 315.729 139.09C315.944 144.913 315.27 153.303 315.27 153.303Z" fill="#FFC080"/>
<path d="M315.844 137.914C315.844 138.316 315.844 138.631 315.844 138.846L309.792 135.132L308.659 134.429L281.41 117.649L275.343 113.921L1.51831 137.972C1.51831 137.699 1.51831 137.427 1.51831 137.168L275.243 113.046C275.322 113.017 275.408 113.017 275.487 113.046L279.373 115.426L309.978 134.228H310.079L315.715 137.699L315.844 137.914Z" fill="#EDA458"/>
<path d="M310.222 134.659C310.228 134.711 310.223 134.763 310.208 134.813C310.193 134.864 310.168 134.91 310.135 134.95C310.101 134.991 310.06 135.024 310.013 135.047C309.967 135.071 309.916 135.085 309.864 135.089H309.706L307.841 135.247L1.93433 162.295C1.93433 162.037 1.93433 161.764 1.93433 161.492L306.45 134.558L308.573 134.372L309.792 134.271C309.852 134.249 309.918 134.249 309.978 134.271H310.079C310.133 134.319 310.175 134.379 310.2 134.447C310.225 134.514 310.233 134.587 310.222 134.659Z" fill="#EDA458"/>
<path d="M277.48 38.4691C277.484 38.5218 277.478 38.5748 277.461 38.6251C277.444 38.6753 277.418 38.7217 277.383 38.7617C277.349 38.8017 277.306 38.8344 277.259 38.858C277.212 38.8817 277.16 38.8957 277.107 38.8993L0.471436 58.3179C0.471436 58.0454 0.471436 57.7729 0.471436 57.5004L277.021 38.0532C277.08 38.0418 277.141 38.0443 277.199 38.0605C277.257 38.0767 277.31 38.1061 277.355 38.1465C277.399 38.1868 277.434 38.237 277.456 38.293C277.477 38.349 277.486 38.4092 277.48 38.4691Z" fill="#EDA458"/>
<path d="M275.272 113.849C275.179 113.849 275.09 113.813 275.023 113.749C274.956 113.685 274.917 113.597 274.913 113.505C274.239 104.34 272.805 82.914 273.923 81.9531C275.042 80.9922 281.094 80.1317 281.783 80.06C281.83 80.054 281.878 80.0574 281.923 80.0701C281.969 80.0827 282.012 80.1044 282.049 80.1338C282.087 80.1631 282.118 80.1996 282.141 80.2411C282.164 80.2826 282.179 80.3283 282.184 80.3755C282.193 80.47 282.165 80.5642 282.106 80.6388C282.047 80.7134 281.962 80.7629 281.869 80.7771C279.373 81.0783 275.157 81.8097 274.411 82.4837C273.737 83.6454 274.798 102.132 275.644 113.505C275.648 113.601 275.615 113.696 275.551 113.768C275.486 113.84 275.397 113.885 275.3 113.892L275.272 113.849Z" fill="#EDA458"/>
<path d="M294.389 96.8684C294.316 96.8663 294.246 96.8412 294.188 96.7967L273.952 82.455C273.913 82.4279 273.88 82.3933 273.855 82.3533C273.83 82.3133 273.812 82.2686 273.804 82.222C273.796 82.1753 273.798 82.1275 273.808 82.0814C273.819 82.0352 273.839 81.9916 273.866 81.9531C273.893 81.9143 273.928 81.8813 273.968 81.856C274.008 81.8306 274.052 81.8134 274.099 81.8054C274.146 81.7974 274.194 81.7988 274.24 81.8093C274.286 81.8199 274.329 81.8395 274.368 81.867L294.604 96.2087C294.643 96.2358 294.676 96.2704 294.701 96.3104C294.727 96.3504 294.744 96.395 294.752 96.4417C294.76 96.4883 294.758 96.5361 294.748 96.5823C294.737 96.6285 294.718 96.672 294.69 96.7106C294.656 96.7589 294.611 96.7984 294.559 96.8258C294.506 96.8532 294.448 96.8678 294.389 96.8684Z" fill="#EDA458"/>
<path d="M210.103 84.3624C210.006 83.5899 209.842 82.827 209.616 82.0821C208.655 78.927 206.848 76.5176 206.747 73.0756C206.826 71.713 206.798 70.3462 206.661 68.9882C206.287 67.5214 205.808 66.0835 205.227 64.6857C204.991 63.7926 204.933 62.862 205.055 61.9464C205.105 61.6763 205.105 61.3991 205.055 61.129C205.029 60.9428 204.949 60.7683 204.825 60.627C204.581 60.3682 204.248 60.2097 203.893 60.1824C200.564 59.7064 197.184 59.7064 193.854 60.1824C190.519 60.5259 187.168 60.6839 183.815 60.6557C180.43 60.541 177.103 60.082 173.776 60.2685C170.449 60.4549 167.293 60.8852 164.023 60.8278C162.389 60.8278 160.754 60.6844 159.104 60.584C157.727 60.3365 156.322 60.2882 154.931 60.4406C154.724 60.4935 154.532 60.5917 154.369 60.7281C154.205 60.8646 154.074 61.0358 153.984 61.2294C153.618 62.3818 153.618 63.6193 153.984 64.7717C155.175 69.863 156.265 76.2451 157.125 81.5085C158.12 85.6197 159.593 89.6003 161.514 93.369C162.948 95.8214 165.357 90.9452 166.505 93.5841C167.187 95.2459 168.488 96.5777 170.133 97.2986C170.343 97.4054 170.558 97.5012 170.778 97.5854C173.833 98.8905 176.945 100.081 180.057 101.228C183.576 102.627 187.19 103.772 190.871 104.656C193.627 105.386 196.557 105.064 199.089 103.752C200.695 102.906 202.23 101.945 203.807 101.056C205.331 100.298 206.797 99.4302 208.196 98.4602C208.575 98.1454 208.881 97.751 209.092 97.305C209.303 96.8589 209.413 96.372 209.415 95.8788C209.573 94.1721 209.644 92.4511 209.745 90.7588C209.96 90.7588 210.204 90.7588 210.204 90.429C210.339 88.4075 210.305 86.3783 210.103 84.3624Z" fill="#D4A281"/>
<path d="M209.616 82.1108C208.655 78.9557 206.848 76.5463 206.747 73.1043C206.826 71.7417 206.797 70.375 206.661 69.0169C206.287 67.5501 205.808 66.1122 205.227 64.7144C204.991 63.8213 204.933 62.8908 205.055 61.9752C205.105 61.705 205.105 61.4279 205.055 61.1577C205.029 60.9716 204.949 60.797 204.825 60.6558C204.295 61.2581 203.821 61.9178 203.233 62.5058C202.359 63.4094 201.168 63.94 200.265 64.7718C199.38 65.7943 198.624 66.9213 198.013 68.1277C196.1 70.8313 193.913 73.3304 191.488 75.5854C189.695 77.4498 188.203 80.8631 186.411 82.7562C185.923 82.4694 179.613 79.429 177.347 77.9231C175.353 76.6037 173.489 75.0548 171.452 73.8214C169.398 72.5172 167.267 71.339 165.07 70.2933C163.1 69.5553 161.249 68.5308 159.578 67.2529C158.244 66.0052 157.957 64.1981 156.451 63.0795C155.634 62.4628 154.787 61.8748 153.941 61.3155C153.575 62.4679 153.575 63.7054 153.941 64.8579C155.132 69.9491 156.222 76.3312 157.082 81.5946C158.077 85.7058 159.55 89.6864 161.471 93.4551C162.905 95.9075 162.905 98.8189 164.023 101.443C164.827 103.293 168.398 96.5672 170.09 97.3847C170.942 96.8669 171.761 96.297 172.542 95.6781C174.41 94.3087 176.444 93.1811 178.595 92.3221C179.306 92.0233 179.965 91.6117 180.545 91.1031C181.979 89.8697 186.282 82.7562 186.282 82.7562C186.282 82.7562 192.721 88.6076 193.065 90.3716C193.266 91.4616 188.763 93.8567 188.763 94.9466C188.849 96.2804 189.179 97.2986 190.627 97.4851C192.297 97.6374 193.977 97.3351 195.489 96.6103C197.224 95.7067 207.192 93.5411 208.253 92.0353C210.648 88.6076 205.385 87.5894 208.669 85.2804C209.085 84.9935 209.472 84.6923 209.859 84.3912C209.842 83.6256 209.76 82.8628 209.616 82.1108Z" fill="#AB7652"/>
<path d="M261.719 104.34C262.708 98.0157 263.397 93.871 262.809 87.4746C262.321 82.1538 259.854 73.85 255.638 70.1499L254.677 69.3611L254.089 68.8878C250.109 65.7824 245.482 63.6112 240.551 62.5345C234.656 61.3728 229.45 63.0077 224.129 65.4028C221.146 66.837 218.005 67.9986 215.137 69.5762C214.751 69.7874 214.39 70.0425 214.061 70.3363C213.879 70.4825 213.707 70.6406 213.545 70.8096C212.303 72.3335 211.271 74.0169 210.476 75.8148C209.687 77.249 208.855 78.7979 208.11 80.3468L207.809 81.0209C206.063 84.3166 205.31 88.048 205.643 91.7627C207.35 104.054 221.634 108.284 231.859 110.608C238.975 112.306 246.294 112.996 253.601 112.659C255.695 112.544 259.568 112.788 261.131 111.009C261.383 110.714 261.568 110.367 261.675 109.993C261.781 109.62 261.806 109.228 261.747 108.844C261.612 108.203 261.374 107.588 261.045 107.022C260.901 106.75 260.514 105.789 260.17 105.201C260.714 104.968 261.233 104.68 261.719 104.34Z" fill="#964A35"/>
<path d="M259.84 88.5358C259.424 86.8291 258.865 85.1511 258.492 83.4445C258.195 81.6417 257.802 79.8561 257.316 78.0951C256.416 75.4792 254.906 73.1148 252.913 71.1968C250.808 69.1703 248.237 67.6927 245.427 66.8943C242.089 65.8588 238.634 65.2469 235.144 65.0729C228.446 64.8721 222.322 68.4145 216.844 71.8708C213.871 73.8637 211.48 76.6105 209.917 79.8304C208.024 83.1577 206.475 86.7144 206.862 90.6153C206.862 91.0742 207.636 91.0742 207.579 90.6153C207.434 87.1434 208.355 83.7102 210.218 80.777C211.867 77.7796 213.531 74.8969 216.442 72.9751C221.548 69.6192 227.37 66.1772 233.652 65.8043C236.947 65.782 240.229 66.2164 243.404 67.095C246.515 67.7007 249.424 69.0764 251.866 71.0964C254.072 73.0205 255.73 75.4946 256.67 78.2672C257.603 81.0208 257.904 84.0039 258.678 86.8005C259.803 90.6707 260.034 94.746 259.352 98.7184C258.75 102.375 257.732 105.961 257.129 109.632C257.043 110.091 257.746 110.278 257.818 109.819C258.951 102.734 261.604 95.8357 259.84 88.5358Z" fill="#73301E"/>
<path d="M238.012 89.4967C237.874 89.1828 237.644 88.9179 237.352 88.7366C236.916 88.4848 236.422 88.3523 235.918 88.3523C235.415 88.3523 234.92 88.4848 234.484 88.7366C234.025 89.0367 233.699 89.5031 233.576 90.0379C233.453 90.5726 233.542 91.1342 233.824 91.6049C233.798 91.6791 233.798 91.7601 233.824 91.8344C233.983 92.0813 234.187 92.2955 234.427 92.4654C234.631 92.631 234.865 92.7575 235.115 92.8383C235.477 92.9894 235.873 93.0437 236.262 92.996C236.507 92.9663 236.745 92.8935 236.965 92.7809C237.531 92.4759 237.957 91.963 238.152 91.3503C238.347 90.7376 238.297 90.0731 238.012 89.4967ZM234.498 91.5332C234.515 91.4722 234.515 91.4077 234.498 91.3468C234.285 91.0375 234.202 90.6569 234.266 90.2869C234.33 89.9168 234.537 89.5867 234.843 89.3676C235.058 89.2268 235.301 89.1329 235.555 89.0921C235.81 89.0513 236.07 89.0645 236.319 89.1308C236.567 89.1971 236.8 89.315 237 89.4769C237.2 89.6387 237.364 89.841 237.481 90.0704C237.675 90.466 237.704 90.9224 237.562 91.3393C237.419 91.7562 237.117 92.0993 236.721 92.2933C236.326 92.4873 235.869 92.5162 235.452 92.3737C235.035 92.2311 234.692 91.9288 234.498 91.5332Z" fill="#73301E"/>
<path d="M251.981 70.4797C250.256 72.1467 248.983 74.2242 248.281 76.5176C246.172 81.91 240.522 83.8174 237.209 88.249C237.181 88.2758 237.158 88.308 237.143 88.3438C237.128 88.3795 237.12 88.4181 237.12 88.457C237.12 88.4959 237.128 88.5344 237.143 88.5701C237.158 88.6059 237.181 88.6381 237.209 88.6649C237.291 88.7067 237.384 88.718 237.474 88.697C237.563 88.676 237.642 88.624 237.697 88.5502C240.737 84.4772 246.101 82.5984 248.338 77.8657C248.94 76.5606 249.285 75.1408 249.944 73.85C250.514 72.798 251.272 71.8597 252.182 71.0821C252.103 71.0045 252.044 70.9095 252.009 70.8049C251.974 70.7002 251.965 70.5889 251.981 70.4797Z" fill="#73301E"/>
<path d="M241.755 73.3624C240.995 75.9295 241.268 78.468 240.02 80.9347C238.973 83.0286 237.553 84.9074 236.606 87.0586C236.567 87.1461 236.563 87.2459 236.597 87.336C236.63 87.4261 236.698 87.4991 236.786 87.5391C236.873 87.579 236.973 87.5826 237.063 87.549C237.153 87.5153 237.226 87.4473 237.266 87.3598C238.284 85.0508 239.862 83.0573 240.923 80.734C241.985 78.4106 241.755 75.9152 242.472 73.4915C242.601 73.0469 241.884 72.8891 241.755 73.3624Z" fill="#73301E"/>
<path d="M233.064 87.6036C231.429 85.6244 230.468 83.2007 228.303 81.6948C225.693 79.8878 222.767 78.8265 220.314 76.7039C218.905 75.438 217.565 74.0975 216.299 72.6882C216.281 72.8083 216.235 72.9226 216.165 73.0221C216.096 73.1216 216.004 73.2037 215.897 73.2619C217.336 74.9091 218.899 76.4434 220.573 77.8512C222.703 79.3232 224.92 80.6643 227.213 81.8669C229.737 83.3011 230.755 85.9399 232.548 88.1198C232.849 88.464 233.365 87.9478 233.064 87.6036Z" fill="#73301E"/>
<path d="M232.204 89.1812C230.13 89.2629 228.054 89.1283 226.008 88.7796C223.957 88.4067 223.47 86.7575 222.136 85.4954C219.99 83.8067 217.409 82.7623 214.692 82.4837C213.122 82.2379 211.573 81.8687 210.06 81.3794C209.874 81.3794 209.702 81.2216 209.515 81.1499C209.573 81.3563 209.573 81.5745 209.515 81.7809C209.518 81.8096 209.518 81.8384 209.515 81.867C211.339 82.5079 213.215 82.9878 215.123 83.3011C216.757 83.5656 218.349 84.0479 219.855 84.7353C221.562 85.6101 222.25 87.03 223.47 88.3637C224.414 89.1579 225.606 89.599 226.84 89.6115C228.631 89.8598 230.44 89.951 232.247 89.8839C232.663 89.8983 232.663 89.1668 232.204 89.1812Z" fill="#73301E"/>
<path d="M256.886 93.1251C253.72 93.3216 250.545 92.9574 247.506 92.0495C244.781 91.3467 241.77 92.2646 239.217 91.0742C238.787 90.8878 238.414 91.5045 238.844 91.7053C241.554 92.9387 244.495 92.0208 247.305 92.7522C250.409 93.6791 253.653 94.0482 256.886 93.8422C257.345 93.7991 257.345 93.0821 256.886 93.1251Z" fill="#73301E"/>
<path d="M241.612 99.9949C239.725 97.6503 238.109 95.1006 236.793 92.3938C236.592 91.9779 235.961 92.3938 236.162 92.7667C237.516 95.522 239.171 98.1193 241.096 100.511C241.382 100.87 241.899 100.353 241.612 99.9949Z" fill="#73301E"/>
<path d="M234.398 92.3938C234.183 94.8605 234.039 97.3416 233.996 99.8371C233.996 100.296 234.699 100.296 234.713 99.8371C234.713 97.3416 234.9 94.8605 235.115 92.3938C235.158 91.9205 234.441 91.9205 234.398 92.3938Z" fill="#73301E"/>
<path d="M53.1484 130.786C52.2305 129.711 51.2553 128.707 50.2801 127.646C49.9502 127.273 49.606 126.871 49.2905 126.47C48.975 126.068 48.7885 125.839 48.5447 125.523C46.4479 122.766 44.6227 119.812 43.0949 116.703C41.5747 113.619 40.4991 110.307 38.7924 107.338C38.0539 106.03 37.1475 104.825 36.0962 103.752C34.7911 102.433 32.7976 101.644 31.7937 100.024C30.6463 98.1448 31.134 95.7211 31.1626 93.6272C31.1626 92.738 31.3491 91.1031 30.4742 90.5151C29.5994 89.9271 28.6385 90.4434 27.9358 90.5151C26.7741 90.6441 25.6268 90.7589 24.4651 90.8593C22.1418 91.0314 19.8184 91.1461 17.4951 91.1748C12.8627 91.2465 8.30207 90.8736 3.69841 90.5007C2.74203 90.4243 1.78016 90.4532 0.830078 90.5868L1.00218 101.788C1.00218 102.662 1.00218 103.509 1.00218 104.369C1.11691 111.31 1.22686 118.242 1.33204 125.164V127.904C1.33204 128.578 1.33204 129.237 1.33204 129.912C1.33204 130.586 1.33204 130.915 1.33204 131.417L1.41809 137.154C1.41809 137.412 1.41809 137.685 1.41809 137.957C1.41809 138.23 1.41809 138.789 1.41809 139.219C2.80865 140.572 3.98394 142.129 4.9031 143.837C6.05044 146.261 5.72058 150.32 8.87574 151.324C9.07502 151.393 9.28224 151.436 9.49243 151.453C10.4266 151.444 11.3328 151.132 12.0739 150.564C13.5717 149.497 15.247 148.706 17.0218 148.226C20.4925 147.38 24.1926 147.48 27.5486 146.376C30.9045 145.271 34.3035 142.991 38.0036 141.973C41.7038 140.955 45.1744 140.625 48.4443 139.105C50.5669 138.129 53.6073 136.236 54.0376 133.669C54.1158 133.153 54.0765 132.625 53.9225 132.126C53.7686 131.627 53.504 131.169 53.1484 130.786Z" fill="white"/>
<path d="M49.2187 136.925C47.1143 136.993 45.0273 137.33 43.0087 137.929C41.3451 138.517 39.8679 139.549 38.1612 140.022C34.7623 140.983 31.3203 140.18 28.1938 142.231C25.6903 143.942 22.7836 144.97 19.7609 145.214C16.2902 145.587 13.3215 147.595 9.86519 148.082C9.91689 149.234 9.84476 150.388 9.65007 151.524C9.43988 151.508 9.23267 151.464 9.03338 151.395C9.25454 149.678 9.21101 147.937 8.90431 146.232C8.1524 142.144 6.53909 138.262 4.17156 134.845C3.28262 133.716 2.50909 132.5 1.86256 131.217C1.72731 130.904 1.61234 130.583 1.51836 130.256C1.51836 130.141 1.44665 130.012 1.41797 129.883C1.41797 129.209 1.41797 128.549 1.41797 127.875V125.136C1.56139 125.996 1.64744 126.871 1.79085 127.732C1.91667 128.711 2.1524 129.673 2.49359 130.6C2.48557 130.647 2.48557 130.696 2.49359 130.743C3.4681 132.575 4.58039 134.33 5.82085 135.992C7.88138 139.387 9.23731 143.163 9.80783 147.093C9.80783 147.179 9.80783 147.265 9.80783 147.351C13.3789 146.921 16.4193 144.856 20.0334 144.483C22.0379 144.371 23.9946 143.828 25.7701 142.891C26.9604 142.217 28.0217 141.299 29.2694 140.725C32.611 139.291 36.4403 140.18 39.7675 138.588C42.6927 137.206 45.859 136.407 49.0896 136.236C49.6919 136.164 49.6919 136.896 49.2187 136.925Z" fill="#FFE1C7"/>
<path d="M12.3749 101.572C9.82212 102.691 6.99682 102.662 4.32928 103.451L1.01636 104.398C1.01636 103.537 1.01636 102.691 1.01636 101.816C4.58514 100.761 8.28098 100.196 12.0021 100.138C12.6474 100.224 13.0777 101.228 12.3749 101.572Z" fill="#C7916D"/>
<path d="M27.6201 106.42C27.4111 106.521 27.1955 106.607 26.9747 106.678C26.9561 106.583 26.9184 106.492 26.8638 106.412C26.8092 106.332 26.7389 106.263 26.6571 106.211C26.5753 106.159 26.4837 106.123 26.388 106.108C26.2922 106.092 26.1942 106.095 26.0999 106.119C22.2067 107.041 18.3748 108.204 14.6266 109.604C13.3215 110.091 11.5718 110.45 11.8586 112.128C11.8835 112.219 11.9263 112.305 11.9846 112.38C12.0429 112.455 12.1155 112.518 12.1982 112.565C12.281 112.611 12.3722 112.641 12.4665 112.652C12.5608 112.663 12.6565 112.656 12.7478 112.63C15.6161 111.568 18.4845 110.378 21.3528 109.503C23.6618 108.815 26.1286 108.7 28.3085 107.667C29.1977 107.309 28.4662 106.018 27.6201 106.42Z" fill="#C7916D"/>
<path d="M13.8523 125.466C10.1204 126.871 6.49658 128.549 3.01002 130.485L2.47937 130.801L1.86268 131.159L1.44678 131.417C1.44678 130.915 1.44678 130.413 1.44678 129.911C1.44678 129.409 1.44678 128.578 1.44678 127.904L1.77663 127.76C3.64105 126.9 5.63453 126.211 7.26948 125.379C8.90443 124.548 12.6333 122.425 14.2252 124.246C14.3104 124.342 14.3696 124.458 14.397 124.583C14.4244 124.708 14.4191 124.838 14.3817 124.961C14.3442 125.083 14.2758 125.194 14.1831 125.283C14.0904 125.371 13.9764 125.434 13.8523 125.466Z" fill="#C7916D"/>
<path d="M33.744 118.094C33.2643 118.071 32.7834 118.1 32.3099 118.18C32.2436 118.031 32.1257 117.912 31.9781 117.843C31.8305 117.775 31.6631 117.762 31.5067 117.807C28.5093 118.625 24.5797 119.413 22.5145 121.938C22.4174 122.04 22.3521 122.169 22.3268 122.309C22.3014 122.448 22.317 122.591 22.3717 122.722C22.4263 122.853 22.5177 122.965 22.6347 123.044C22.7517 123.124 22.8893 123.168 23.0308 123.171C24.9813 123.041 26.8734 122.451 28.5524 121.45C30.3164 120.546 32.5106 120.632 34.0739 119.456C34.21 119.377 34.3168 119.256 34.3786 119.111C34.4404 118.966 34.4537 118.805 34.4166 118.652C34.3796 118.499 34.2941 118.362 34.1729 118.262C34.0517 118.161 33.9013 118.102 33.744 118.094Z" fill="#C7916D"/>
<path d="M28.2225 132.536C25.8418 132.306 22.701 133.97 20.478 134.788C18.0505 135.62 15.774 136.84 13.7375 138.402C13.0778 138.918 13.6658 140.825 14.6123 140.166C18.8431 137.183 24.0778 136.351 28.5954 133.898C29.2695 133.526 28.8822 132.608 28.2225 132.536Z" fill="#C7916D"/>
<path d="M50.2798 127.645C47.8131 128.334 45.3176 128.922 42.8509 129.553C42.0764 129.739 41.5171 128.549 42.2915 128.219C44.0116 127.318 45.7781 126.509 47.5836 125.795L48.5445 125.523C48.7883 125.838 49.0321 126.168 49.2903 126.469C49.5484 126.771 49.9643 127.273 50.2798 127.645Z" fill="#C7916D"/>
<path d="M136.043 215.545C133.82 213.193 134.523 213.796 132.199 211.544C130.148 209.579 126.147 205.807 125.473 203.843C125.37 203.443 125.37 203.023 125.473 202.624C126.152 200.382 127.162 198.256 128.471 196.313L128.815 196.385C129.331 196.5 129.417 195.697 128.915 195.582L128.571 195.51C128.686 194.663 128.758 193.811 128.786 192.957C128.786 192.441 128.012 192.341 127.983 192.857C127.959 193.682 127.892 194.505 127.782 195.324L124.268 194.506C123.035 194.234 121.199 192.125 121.199 192.125L117.686 199.64V199.77C117.198 200.573 114.688 204.904 115.52 206.854C116.524 209.149 118.259 209.895 119.937 211.673C122.577 214.3 125.552 216.567 128.786 218.414C131.195 219.647 138.897 218.557 136.043 215.545Z" fill="#8C4D37"/>
<path d="M136.043 215.545C133.82 213.193 134.523 213.796 132.199 211.544C130.148 209.579 126.147 205.807 125.473 203.843C125.37 203.443 125.37 203.023 125.473 202.623C122.594 202.669 119.799 201.647 117.628 199.755C117.141 200.558 114.631 204.889 115.463 206.84C116.467 209.135 118.202 209.88 119.88 211.659C122.52 214.286 125.495 216.552 128.729 218.399C131.195 219.647 138.897 218.557 136.043 215.545Z" fill="#FFC080"/>
<path d="M157.039 225.785C156.064 227.033 152.048 227.52 148.721 224.939C146.198 222.899 143.839 220.664 141.665 218.256C140.044 216.635 137.936 211.773 136.99 208.217C136.99 208.002 136.861 207.786 136.789 207.557C135.498 204.036 134.004 200.593 132.314 197.245L140.704 194.664L144.705 205.922L145.379 207.829C145.379 207.829 149.008 212.978 151.962 216.32C154.917 219.661 158.014 224.552 157.039 225.785Z" fill="#8C4D37"/>
<path d="M151.962 216.305C149.008 212.964 145.379 207.815 145.379 207.815L144.705 205.908C142.317 207.305 139.535 207.879 136.789 207.543C136.86 207.772 136.932 207.987 136.989 208.202C137.936 211.73 140.044 216.592 141.665 218.242C143.839 220.65 146.198 222.884 148.721 224.925C152.048 227.506 156.064 227.019 157.039 225.771C158.014 224.523 154.974 219.69 151.962 216.305Z" fill="#FFC080"/>
<path d="M88.6725 8.868C87.726 7.43383 86.4495 7.23308 85.8042 5.3113C84.9724 2.62941 80.2253 -1.63006 77.7442 1.49642C77.0222 1.06184 76.2151 0.787918 75.3778 0.693288C73.6855 0.406455 70.9462 0.133948 69.383 1.0805C69.1916 1.23177 69.0096 1.3946 68.838 1.56811C68.1132 2.18936 67.2825 2.67515 66.3856 3.00227C65.3835 3.2094 64.4172 3.56213 63.5173 4.04923C63.2533 4.2354 63.0039 4.44156 62.7715 4.66591C58.9853 5.01011 57.0348 9.22657 58.469 13.0271C59.0714 14.619 60.2043 15.6946 60.1183 17.5017C59.938 18.7907 60.0708 20.1041 60.5055 21.3309C61.9397 24.988 63.6177 28.5734 65.1665 32.1875C65.2044 32.2449 65.2543 32.2933 65.3128 32.3295C65.3713 32.3656 65.4369 32.3885 65.5052 32.3967C65.5734 32.4049 65.6426 32.3981 65.708 32.3769C65.7733 32.3556 65.8333 32.3203 65.8836 32.2736C72.323 25.5473 75.3204 13.6294 86.3348 13.8159C86.4008 13.8655 86.4818 13.8908 86.5643 13.8876C87.3124 13.8504 88.0164 13.522 88.5256 12.9726C89.0348 12.4232 89.3088 11.6964 89.2892 10.9476C89.3042 10.2072 89.0887 9.48047 88.6725 8.868Z" fill="#3B251D"/>
<path d="M148.434 164.676C146.713 168.763 144.791 173.281 143.027 177.311C139.958 184.367 137.291 190.347 137.018 191.538C136.488 193.416 130.163 199.598 130.163 199.598C130.163 199.598 116.065 196.916 114.989 194.764C113.914 192.613 114.846 192.886 115.534 189.659C116.223 186.432 117.815 184.424 117.542 177.698C117.27 170.972 113.111 142.59 111.504 141.27C109.898 139.951 87.726 122.626 87.3244 122.224C86.9229 121.823 80.0676 113.619 85.1732 113.031C90.2788 112.443 118.159 113.906 118.159 113.906C126.8 118.552 135.188 123.655 143.286 129.195C147.66 132.278 151.202 135.232 152.407 137.341C156.494 144.425 153.138 153.561 148.434 164.676Z" fill="#3B251D"/>
<path d="M81.6882 138.861C80.6644 139.776 79.456 140.461 78.1447 140.869C76.8334 141.278 75.4497 141.4 74.0871 141.227C71.7738 140.933 69.5361 140.209 67.49 139.09C67.49 139.09 68.6373 134.615 69.799 134.615C70.9607 134.615 79.8381 135.017 80.4262 135.261C81.0142 135.505 81.6882 138.861 81.6882 138.861Z" fill="#C76B47"/>
<path d="M70.4585 137.426C73.2866 139.978 76.3947 142.201 79.7232 144.052C83.6528 145.874 84.0257 147.179 86.8941 149C89.2065 150.324 91.729 151.241 94.3517 151.711C94.6529 151.711 97.0766 155.54 101.207 161.391C105.337 167.243 106.442 165.923 107.546 171.76C108.65 177.597 113.197 185.973 118.431 188.97C119.993 189.742 121.347 190.876 122.38 192.278C123.413 193.681 124.095 195.31 124.369 197.03C124.893 198.412 125.571 199.73 126.391 200.96C126.391 200.96 134.853 202.982 138.782 200.96C141.708 199.189 143.863 196.384 144.82 193.101C144.82 192.398 125.774 138.402 117.929 132.966C110.084 127.531 91.1105 117.348 91.1105 117.348C91.1105 117.348 75.3347 122.181 74.5889 122.884C73.8432 123.587 67.9487 128.119 68.2499 129.338C68.5511 130.557 70.4585 137.426 70.4585 137.426Z" fill="#544743"/>
<path d="M120.109 115.097C120.079 115.622 119.988 116.141 119.837 116.645C119.819 116.698 119.791 116.747 119.754 116.789C119.717 116.831 119.672 116.865 119.622 116.889C119.591 116.956 119.539 117.01 119.474 117.044C119.409 117.078 119.335 117.089 119.263 117.076C114.244 116.43 109.339 118.137 104.319 117.951C99.2342 117.857 94.2251 119.194 89.8628 121.808C88.0029 123.106 86.0358 124.244 83.9827 125.207C81.9732 125.846 80.0047 126.608 78.0883 127.488C75.5859 128.749 73.6541 130.912 72.6815 133.54C71.9454 135.7 72.0374 138.056 72.9397 140.151C73.1118 140.567 72.5811 140.926 72.323 140.668H72.2369C69.2831 139.956 66.451 138.81 63.8327 137.269C62.957 136.729 62.2396 135.967 61.7532 135.06C61.4156 133.927 60.9336 132.843 60.319 131.833C58.5072 129.317 56.9324 126.638 55.615 123.831C53.9227 120.661 51.1691 108.786 49.6345 105.645C49.0035 104.369 47.2968 98.1017 45.4754 90.9882C45.289 90.1995 45.0739 89.4107 44.8731 88.6075C43.7831 84.305 42.6932 80.0025 41.7896 76.2737L40.714 71.8852C40.0543 69.1459 39.624 67.3963 39.624 67.3963C39.624 67.3963 33.8874 60.8134 36.139 54.7613C36.8359 52.8449 37.8976 51.0818 39.2655 49.5696C39.6421 49.1573 40.0445 48.7693 40.4702 48.4079C43.3385 46.0129 47.3112 44.3779 50.5094 42.3557C53.8466 40.3441 57.5275 38.968 61.366 38.2971C70.7267 36.4206 80.4012 36.8189 89.576 39.4587C90.7673 39.6402 91.8712 40.1921 92.7311 41.0363C93.1974 41.6233 93.5922 42.2636 93.9071 42.9438C94.9389 45.0595 95.631 47.3245 95.958 49.6556C96.3022 52.9685 102.225 54.7326 103.975 55.1772L104.448 55.2919C104.448 55.2919 103.946 57.8161 103.473 61.0286C103.358 61.7887 103.258 62.5918 103.158 63.3949C102.684 67.2098 102.397 71.3402 103.014 73.348C104.348 77.7509 102.197 82.1681 103.401 86.5423C105.395 93.8135 112.207 98.9909 116.036 105.186C117.829 108.294 119.199 111.627 120.109 115.097Z" fill="#C76B47"/>
<path d="M133.72 36.2893L164.87 36.5761L167.336 38.6126L164.654 43.4171L133.648 48.6948L133.72 36.2893Z" fill="#8C4D37"/>
<path d="M188.132 40.8785C188.011 40.6473 187.845 40.4426 187.644 40.2762C188.218 39.6451 188.031 38.7703 186.827 38.1249C183.971 36.3823 180.83 35.1587 177.548 34.5108C174.349 34.1379 170.377 34.9554 167.25 35.2709C163.768 35.848 160.317 36.5995 156.91 37.5226C157.749 37.5924 158.58 37.7412 159.391 37.9671C160.158 38.8304 160.844 39.7617 161.442 40.7494C161.395 40.7537 161.35 40.7694 161.311 40.795C161.272 40.8206 161.24 40.8555 161.217 40.8965C161.194 40.9376 161.182 40.9835 161.181 41.0304C161.181 41.0772 161.191 41.1236 161.213 41.1653C161.509 41.9062 161.931 42.5904 162.46 43.1875C162.462 43.221 162.462 43.2544 162.46 43.2879C162.474 43.36 162.514 43.4246 162.572 43.4695C162.63 43.5144 162.702 43.5365 162.776 43.5317C163.666 44.3975 164.804 44.9641 166.031 45.1523C167.862 45.1794 169.691 45.2991 171.51 45.5109C173.12 46.0677 174.776 46.4851 176.458 46.7586C178.25 46.8877 178.724 45.5682 177.49 44.2775C176.257 42.9867 173.891 42.8433 171.997 42.327C174.16 41.9104 176.351 41.6564 178.552 41.5669C180.168 41.5133 181.785 41.6481 183.37 41.9685C184.424 42.3671 185.522 42.6367 186.64 42.7716C187.658 42.7716 188.662 41.9254 188.132 40.8785Z" fill="#8C4D37"/>
<path d="M186.884 39.3297C185.443 38.6717 183.939 38.1624 182.395 37.8095C180.8 37.2883 179.139 36.9985 177.462 36.949C177.355 36.949 177.253 36.9913 177.178 37.0666C177.102 37.1419 177.06 37.244 177.06 37.3505C177.06 37.457 177.102 37.5592 177.178 37.6345C177.253 37.7098 177.355 37.7521 177.462 37.7521C180.602 37.8368 183.684 38.6207 186.483 40.0468C186.956 40.2762 187.343 39.5735 186.884 39.3297Z" fill="#3B251D"/>
<path d="M137.004 34.31C134.914 33.7839 132.723 33.8186 130.65 34.4104C129.844 34.7283 129.075 35.1322 128.356 35.6151C127.137 36.2174 125.143 35.1561 123.824 34.855C122.176 34.4916 120.491 34.3327 118.804 34.3817C117.72 34.4089 116.641 34.5289 115.577 34.7402H115.362C111.418 35.5433 107.862 36.8054 103.774 36.0883C102.326 35.7592 100.853 35.5434 99.3713 35.443C97.5918 35.5254 95.8193 35.7218 94.0649 36.0309C90.6803 36.3465 87.3674 35.1992 84.0258 35.3426C81.4282 35.48 78.8772 36.0874 76.4964 37.1353C76.2796 36.3546 76.1214 35.5588 76.0231 34.7546C76.0231 34.2383 75.1626 34.2383 75.22 34.7546C75.3122 35.5565 75.4559 36.3518 75.6502 37.1353L75.7363 37.4795L75.0766 37.8093C74.6176 38.0388 75.0766 38.7415 75.4781 38.4977L75.9514 38.2682C76.3176 39.3902 76.7981 40.4715 77.3856 41.4951C78.736 43.6039 80.4051 45.4908 82.3334 47.0884C83.8967 48.6373 82.9932 51.018 82.735 52.9254C82.5341 54.2131 82.5341 55.5243 82.735 56.812C83.312 59.3117 84.4607 61.6435 86.091 63.6243C86.2487 63.8394 86.4208 64.0258 86.5929 64.2266C87.9044 65.7942 89.7189 66.8586 91.7272 67.2384C93.9757 67.531 96.2581 67.0776 98.224 65.9476L98.3674 65.8759L100.203 64.9007L103.071 63.3661C107.159 61.1718 111.246 58.9919 115.434 56.9554C117.15 56.0989 119.038 55.6429 120.955 55.6216C122.286 55.714 123.624 55.5881 124.914 55.2488C127.553 54.3596 128.929 53.5278 131.64 52.6673C133.074 52.2083 134.508 52.1223 135.842 51.7494C136.162 51.7171 136.467 51.595 136.721 51.397C136.974 51.1991 137.167 50.9335 137.276 50.6308C137.709 48.5427 137.968 46.4225 138.051 44.2917C138.223 42.6425 138.352 41.0075 138.424 39.3582C138.495 37.7089 139.098 34.9697 137.004 34.31Z" fill="#C76B47"/>
<path d="M118.804 34.3818C118.561 37.5212 117.949 40.621 116.983 43.6179C114.516 51.4771 111.088 53.4132 106.944 56.7978C105.464 57.9807 104.232 59.4425 103.315 61.1003C102.542 62.6116 101.457 63.9413 100.131 65.0012C99.5237 65.4406 98.8575 65.793 98.1523 66.0482C96.0482 66.7447 93.8661 67.1782 91.6555 67.3389C89.1027 67.5827 86.5929 67.7118 84.7572 68.013C81.516 68.5293 78.5043 70.7092 75.6933 72.3155C72.5525 74.0652 69.2396 74.5528 65.941 75.8435C63.0726 76.9335 60.864 77.2777 57.9527 78.0521C53.6845 79.0429 49.2294 78.8795 45.0452 77.5788C43.8812 77.2558 42.7408 76.8533 41.6319 76.3741C40.8317 76.0299 40.0555 75.6322 39.3086 75.1838C35.7212 73.2104 32.0028 71.4854 28.1794 70.0208C28.3156 69.046 28.5413 68.0859 28.8535 67.1525C28.9534 66.8787 29.0683 66.6106 29.1977 66.3494C30.6319 63.481 32.5106 58.3467 34.246 55.7078C35.7805 53.3702 38.5484 50.2294 38.8783 49.7848C38.9364 49.7063 39.0162 49.6465 39.1078 49.6126C39.4844 49.2003 39.8867 48.8123 40.3125 48.451C43.1808 46.0559 47.1534 44.421 50.3516 42.3988C53.6888 40.3871 57.3698 39.011 61.2082 38.3401C65.9269 37.3961 70.7423 37.0253 75.5499 37.2359C75.3555 36.4523 75.2118 35.6571 75.1196 34.8551C75.1196 34.3388 75.8654 34.3388 75.9228 34.8551C76.021 35.6594 76.1792 36.4552 76.396 37.2359C78.7768 36.188 81.3279 35.5806 83.9254 35.4431C87.3244 35.2997 90.6373 36.447 93.9645 36.1315C95.719 35.8224 97.4914 35.626 99.271 35.5435C100.753 35.6439 102.225 35.8597 103.674 36.1889C107.761 36.906 111.318 35.6439 115.262 34.8408H115.477C116.57 34.5899 117.684 34.4363 118.804 34.3818Z" fill="white"/>
<path d="M103.774 36.1314C102.326 35.8022 100.854 35.5865 99.3715 35.486C97.5919 35.5685 95.8195 35.7649 94.0651 36.074C90.6804 36.3895 87.3675 35.2422 84.0259 35.3856C81.4284 35.5231 78.8773 36.1305 76.4966 37.1783C76.2797 36.3977 76.1215 35.6019 76.0233 34.7976C76.0233 34.2813 75.1628 34.2813 75.2202 34.7976C75.3123 35.5996 75.456 36.3948 75.6504 37.1783H75.5213C70.7465 36.9774 65.9649 37.353 61.2801 38.297C60.52 38.4547 59.7455 38.6268 58.9854 38.8133C55.9467 39.5281 53.0417 40.724 50.3804 42.3557C47.2253 44.3778 43.2096 46.0128 40.3413 48.4078C39.9155 48.7692 39.5132 49.1572 39.1366 49.5695C39.045 49.6033 38.9652 49.6631 38.9071 49.7416C38.5916 50.1862 35.8093 53.327 34.2748 55.6647C32.5394 58.3036 30.632 63.4666 29.2265 66.3062C29.0972 66.5674 28.9823 66.8355 28.8823 67.1093C31.8615 67.8624 34.7476 68.9447 37.4873 70.3362C38.4912 70.8812 39.4951 71.3975 40.5134 71.8851C41.5316 72.3727 42.9945 73.0611 44.2566 73.5774C45.9462 74.2622 47.6868 74.8137 49.4626 75.2267C51.3256 75.7566 53.2716 75.9318 55.1992 75.743C57.2357 75.4275 58.9424 74.2085 60.9359 73.6061C63.047 73.1144 65.1887 72.7646 67.3466 72.5591C69.3129 72.1988 71.2101 71.5309 72.9685 70.58C76.6973 68.6583 80.0533 65.8903 84.1693 64.743C84.9297 64.5426 85.7005 64.3846 86.4783 64.2697C88.0181 64.0622 89.5718 63.9759 91.125 64.0115C92.9464 64.0115 94.9973 64.4705 96.747 63.7964C97.9944 63.2133 98.9844 62.1927 99.5292 60.9281C100.276 59.1745 101.313 57.5597 102.598 56.1523C102.986 55.7938 103.387 55.4639 103.789 55.1484C106.069 53.3701 108.751 52.108 110.845 50.0715C113.713 47.2892 114.445 43.2592 114.946 39.43C115.15 37.8837 115.275 36.328 115.319 34.769C111.418 35.6008 107.862 36.8485 103.774 36.1314Z" fill="#F5D6C1"/>
<path d="M87.8693 13.4717V13.6151C87.8693 14.1601 87.5825 16.2827 87.267 19.0363C87.1953 19.5669 87.1379 20.1119 87.0662 20.6855C86.5244 24.9797 85.6615 29.2271 84.4847 33.3922C82.8928 39.1289 78.748 41.022 75.8797 41.022C72.9253 41.022 66.7441 38.8707 66.7441 38.8707C66.7441 38.8707 65.1091 34.7977 64.0765 31.4561V31.3414C63.7992 30.4652 63.5694 29.5748 63.3881 28.6738C62.8145 25.49 62.7141 10.4886 65.439 8.17962C68.1639 5.87062 79.1496 7.08965 83.237 8.17962C84.4135 8.56382 85.4648 9.2581 86.28 10.1894C87.0952 11.1207 87.6442 12.2546 87.8693 13.4717Z" fill="#8C4D37"/>
<path d="M76.4964 36.9059L75.8081 41.022L75.1483 44.7795C75.094 45.0922 74.9975 45.3961 74.8615 45.683C74.6151 46.1654 74.2372 46.5681 73.7715 46.8447C72.2595 47.755 70.4915 48.1467 68.7364 47.9604C66.9813 47.774 65.3351 47.0197 64.0479 45.8121C63.4125 45.2257 62.9059 44.5137 62.5603 43.7212C62.2146 42.9287 62.0375 42.073 62.0401 41.2084C62.0434 40.7948 62.0818 40.3821 62.1548 39.975L63.9188 31.5421V31.3413L64.3491 29.1184L64.5499 29.2475L76.4964 36.9059Z" fill="#8C4D37"/>
<path d="M84.4561 23.1953C84.4631 23.1094 84.4631 23.0231 84.4561 22.9371C84.4561 22.4495 84.3413 21.7468 83.8107 21.6607C83.28 21.5747 83.0075 22.0479 82.8068 22.5069C82.5984 22.9195 82.4996 23.3788 82.5199 23.8406C82.5199 24.486 83.0362 25.4182 83.7103 24.9019C83.9081 24.7344 84.0568 24.5163 84.1405 24.2709C84.3026 23.9316 84.4091 23.5684 84.4561 23.1953Z" fill="#3B251D"/>
<path d="M74.1875 23.1953C74.1875 23.1092 74.1875 23.0232 74.1875 22.9371C74.1875 22.4495 74.0871 21.7468 73.5565 21.6607C73.0258 21.5747 72.739 22.0479 72.5382 22.5069C72.3367 22.9219 72.2383 23.3794 72.2514 23.8406C72.2514 24.486 72.7677 25.4182 73.4418 24.9019C73.6396 24.7344 73.7883 24.5163 73.872 24.2709C74.0336 23.9314 74.1401 23.5683 74.1875 23.1953Z" fill="#3B251D"/>
<path d="M75.9945 18.8498C75.6957 18.5004 75.2941 18.2544 74.8471 18.147C74.1677 17.9512 73.453 17.9101 72.7556 18.0268C72.0582 18.1434 71.3958 18.4148 70.8171 18.8211C70.5812 18.9652 70.392 19.1744 70.2721 19.4235C69.8993 20.3843 71.104 20.2122 71.7063 20.1692C72.4174 20.1119 73.1321 20.1119 73.8432 20.1692C74.4312 20.1692 75.5355 20.4847 76.0375 20.1692C76.1413 20.0836 76.221 19.9725 76.2687 19.8468C76.3165 19.721 76.3307 19.585 76.31 19.4521C76.2758 19.2215 76.1646 19.0092 75.9945 18.8498Z" fill="#3B251D"/>
<path d="M87.2669 19.0362C87.1952 19.5669 87.1379 20.1118 87.0662 20.6855H86.8367C86.1268 20.6133 85.4132 20.5846 84.6998 20.5995C84.1118 20.5995 83.0075 20.8433 82.5055 20.4704C82.4033 20.3845 82.3265 20.2723 82.2836 20.1459C82.2406 20.0195 82.233 19.8837 82.2617 19.7533C82.2891 19.5379 82.3845 19.3369 82.5342 19.1796C82.8526 18.8514 83.2624 18.6266 83.7102 18.5343C84.9162 18.237 86.1904 18.4168 87.2669 19.0362Z" fill="#3B251D"/>
<path d="M119.98 85.1654C119.426 84.2465 119.011 83.2511 118.747 82.2111C118.624 81.3504 118.397 80.5078 118.073 79.7013C117.641 79.0139 117.087 78.4112 116.438 77.9229C115.477 76.962 115.563 75.6999 114.774 74.6673C113.331 72.9808 111.7 71.4651 109.912 70.1497C108.311 68.7782 106.284 68.0029 104.176 67.9555C101.433 67.9477 98.6966 68.2363 96.0154 68.816L91.1966 69.6478C90.1815 71.6787 88.8339 73.5255 87.2096 75.1119C86.0902 76.0056 84.8612 76.7526 83.5525 77.3349L83.7533 77.4353C82.9534 79.5875 82.5454 81.8655 82.5486 84.1615C82.5605 85.23 82.6661 86.2953 82.8641 87.3453C83.368 88.9545 83.7751 90.5924 84.0832 92.2502C84.2122 94.3441 82.3048 95.9217 82.7637 97.9869C82.9789 99.0051 83.7533 99.8082 84.0114 100.855C84.2696 101.902 83.2944 103.265 83.6959 104.383C84.0975 105.502 86.134 105.315 87.1666 105.43C88.1366 105.588 89.1291 105.534 90.0768 105.275C91.0245 105.015 91.9053 104.554 92.6595 103.924C94.8968 102.347 97.3492 103.724 99.8303 103.293C101.924 102.935 102.699 101.644 104.133 100.425C105.165 99.5788 106.083 99.8369 107.288 99.7079C108.333 99.5985 109.342 99.2607 110.242 98.7183C112.308 97.4849 113.785 95.2333 115.305 93.4262C116.114 92.2145 117.194 91.2078 118.46 90.4862C119.149 90.2892 119.786 89.9414 120.324 89.4679C121.5 88.1342 120.712 86.4275 119.98 85.1654Z" fill="#964A35"/>
<path d="M73.4561 32.3167C74.9656 32.7633 76.5106 33.0799 78.0741 33.2632C78.9563 33.2891 79.8383 33.2023 80.6986 33.0051C80.4252 33.673 79.9446 34.2356 79.3276 34.6099C78.7105 34.9843 77.9896 35.1507 77.2709 35.0846C76.4141 35.1304 75.5676 34.8804 74.8731 34.3765C74.1787 33.8726 73.6784 33.1454 73.4561 32.3167Z" fill="#3B251D"/>
<path d="M75.8081 41.0219L75.1484 44.7794C75.094 45.0922 74.9976 45.3961 74.8616 45.6829C72.2624 44.9077 70.0089 43.2619 68.4795 41.0219C67.1645 39.0883 66.3603 36.8533 66.1418 34.5251C67.0536 36.0498 68.2458 37.3881 69.6556 38.4691C71.5595 39.6381 73.6358 40.4996 75.8081 41.0219Z" fill="#3B251D"/>
<path d="M83.2657 7.17565C79.1783 6.08569 67.4899 4.99575 64.7219 7.29041C61.954 9.58507 60.4194 21.3596 60.4194 21.3596C60.4194 21.3596 63.5889 30.3374 63.8901 31.3987V31.5995V31.5134V31.4274C64.1714 30.7433 64.3595 30.0246 64.4494 29.2905C64.5269 28.2481 64.6803 27.2128 64.9084 26.1927C65.3673 24.443 66.5146 23.1522 66.7584 21.3022C66.808 20.2595 67.1787 19.2577 67.8197 18.4338C68.1066 18.0753 68.5081 17.8459 68.7376 17.4156C68.9589 16.8275 69.0848 16.2077 69.1105 15.5799C69.2496 14.7988 69.5421 14.0531 69.971 13.3856C71.372 13.2282 72.7863 13.2282 74.1874 13.3856C74.6905 13.4995 75.2069 13.543 75.722 13.5147C76.6074 13.2092 77.5198 12.9883 78.4469 12.855C79.6218 12.9762 80.7696 13.2861 81.8458 13.7728C83.9541 14.5042 85.9762 14.8054 87.7259 13.6724V13.529C87.7259 13.529 87.353 8.26562 83.2657 7.17565Z" fill="#3B251D"/>
<path d="M67.9919 21.4456C67.8537 20.7258 67.5651 20.0433 67.145 19.4428C66.7248 18.8422 66.1826 18.3371 65.5538 17.9606C63.6033 17.0427 62.3269 19.0362 62.5564 22.6646C62.9339 25.3967 63.8556 28.0252 65.267 30.3948L67.9919 21.4456Z" fill="#8C4D37"/>
<path d="M80.3112 27.2253C80.1821 26.0636 80.0531 24.9019 79.9096 23.7403C79.9096 23.224 79.0348 23.224 79.0922 23.7403C79.2499 24.988 79.3933 26.2213 79.5224 27.469C79.6812 28.0379 79.7442 28.6292 79.7089 29.2187C79.4077 30.0505 78.2747 30.0362 77.4572 30.0362C77.3507 30.0362 77.2486 30.0785 77.1733 30.1538C77.098 30.2291 77.0557 30.3313 77.0557 30.4378C77.0557 30.5443 77.098 30.6464 77.1733 30.7217C77.2486 30.797 77.3507 30.8393 77.4572 30.8393C78.4325 30.8393 80.2108 30.7103 80.512 29.563C80.5658 28.778 80.498 27.9895 80.3112 27.2253Z" fill="#3B251D"/>
<path d="M38.9215 105.646L47.7846 134.286L45.4756 137.384L38.9215 136.566L25.0244 108.356L38.9215 105.646Z" fill="#8C4D37"/>
<path d="M46.4078 60.6269C46.4741 58.5653 45.9223 56.531 44.8233 54.7854C43.7244 53.0399 42.1285 51.6629 40.2409 50.8315C40.5277 50.4156 40.8002 49.9853 41.1014 49.5694C41.4025 49.1535 39.7963 49.2683 39.1509 49.5694C39.0593 49.6033 38.9796 49.6631 38.9214 49.7415C38.6059 50.1861 35.8237 53.3269 34.2891 55.6646C32.5538 58.3035 30.6463 63.4665 29.2408 66.3061C29.1115 66.5674 28.9966 66.8355 28.8966 67.1093C28.5844 68.0427 28.3588 69.0028 28.2226 69.9776C28.0727 71.7875 27.4871 73.5343 26.5159 75.0689C24.967 77.091 22.6007 78.7403 21.9409 81.3218C21.5537 82.8421 22.2134 84.1902 22.1417 85.6243C22.0557 87.3884 20.7076 88.3492 19.675 89.64C18.3345 91.7368 17.7198 94.2159 17.9253 96.6961C17.8757 97.6805 18.0575 98.6629 18.4559 99.5644C19.1587 100.999 20.306 101.83 20.7076 103.422C20.8318 104.606 21.1416 105.763 21.6254 106.85C22.3282 107.997 23.6619 108.485 24.3647 109.632C24.4153 109.704 24.4855 109.76 24.5668 109.793C24.6482 109.826 24.7373 109.835 24.8236 109.819C29.8145 109.016 34.7672 108.031 39.6816 106.864C39.7675 106.842 39.8437 106.792 39.8981 106.722C39.9526 106.652 39.9824 106.566 39.9827 106.477C39.9827 105.559 39.4091 103.021 39.7963 102.246C40.1835 101.472 41.7467 100.812 42.2774 100.21C43.0501 99.5068 43.6549 98.6393 44.0471 97.6711C44.4393 96.703 44.6089 95.659 44.5434 94.6165C44.4573 92.9386 45.031 92.6661 45.4039 90.9881C45.5043 90.5865 45.8054 89.0663 45.9058 88.6791C46.164 87.7899 50.2083 82.713 50.323 81.7808C50.7533 79.0702 45.6047 80.4327 45.1887 77.7364C45.1821 77.6505 45.1821 77.5642 45.1887 77.4783C44.988 76.2306 44.7011 74.9111 44.443 73.5774C44.031 71.7477 43.9292 69.8618 44.1418 67.9984C44.4573 65.3739 46.2787 63.4091 46.4078 60.6269Z" fill="#C76B47"/>
<path d="M44.0556 67.9986C43.843 69.862 43.9448 71.7479 44.3568 73.5775C44.615 74.9113 44.9018 76.2307 45.1026 77.4785C43.9386 77.1555 42.7981 76.7529 41.6893 76.2737C40.889 75.9294 40.1128 75.5318 39.3659 75.0834C35.7786 73.11 32.0602 71.3849 28.2368 69.9204C28.373 68.9456 28.5986 67.9855 28.9109 67.0521C29.0108 66.7783 29.1257 66.5101 29.2551 66.2489C30.6892 63.3806 32.568 58.2463 34.3033 55.6075C35.8379 53.2698 38.6058 50.129 38.9357 49.6844C38.9938 49.6059 39.0735 49.5461 39.1651 49.5123C39.8105 49.2254 41.3594 49.1681 41.1156 49.5123C40.8718 49.8565 40.5419 50.3584 40.2551 50.7743C42.1401 51.6079 43.7329 52.9859 44.8292 54.7312C45.9255 56.4766 46.4751 58.5097 46.4077 60.5697C46.2786 63.4093 44.4572 65.3741 44.0556 67.9986Z" fill="white"/>
<path d="M49.778 60.9139C49.9644 56.6114 49.778 51.3337 45.9631 49.5697C46.2499 49.1538 42.3203 49.1108 42.6072 48.6949C42.894 48.2789 39.8105 49.2685 39.1652 49.5554C39.0736 49.5892 38.9938 49.649 38.9357 49.7275C38.6202 50.172 35.8379 53.3129 34.3033 55.6506C32.568 58.2894 30.6606 63.4524 29.2551 66.292C29.1257 66.5532 29.0108 66.8213 28.9109 67.0952C31.89 67.8482 34.7761 68.9305 37.5159 70.322C38.5198 70.867 39.5237 71.3833 40.542 71.8709C41.5602 72.3586 43.0231 73.0469 44.2851 73.5632C43.9409 71.6845 47.4403 70.4941 47.7128 68.7014C48.1861 66.1056 49.6632 63.6962 49.778 60.9139Z" fill="#F5D6C1"/>
<path d="M57.1927 140.166C56.3465 139.104 55.0988 138.43 54.181 137.426C53.2631 136.422 52.6177 135.031 51.4274 134.314C49.7924 133.31 47.6842 133.87 45.7624 133.712C44.9696 133.586 44.1697 133.509 43.3674 133.482C41.4743 133.482 39.6242 134.831 37.8171 134.286C38.1415 135.045 38.3773 135.839 38.5199 136.652C38.8067 137.541 39.0935 138.43 39.3947 139.305C39.9971 141.012 40.6424 142.704 41.3595 144.368C42.0766 146.031 42.7937 147.666 43.6255 149.287C44.0127 150.047 45.2605 153.589 46.4938 152.155C46.7582 151.764 46.8657 151.288 46.795 150.821C46.795 150.348 46.6516 149.889 46.6516 149.387C47.1272 150.298 47.4976 151.261 47.7559 152.256C47.8882 152.746 48.1433 153.194 48.4972 153.558C48.8511 153.922 49.2919 154.189 49.7781 154.335C50.0649 154.335 50.4234 154.335 50.5238 154.063C50.5732 153.909 50.5732 153.743 50.5238 153.589L48.6307 146.662C49.649 148.828 50.6529 150.965 51.6568 153.173C51.8273 153.62 52.097 154.022 52.4456 154.349C52.6241 154.509 52.8499 154.605 53.0883 154.623C53.3268 154.641 53.5646 154.58 53.765 154.45C54.2383 154.063 54.1092 153.303 53.9228 152.7C53.2631 150.606 52.6034 148.512 51.958 146.419C52.7381 147.867 53.6 149.27 54.5395 150.621C54.9554 151.223 55.5577 151.883 56.2748 151.768C56.3968 151.749 56.5084 151.688 56.5903 151.596C56.6432 151.517 56.6782 151.427 56.6931 151.333C56.7079 151.239 56.7022 151.143 56.6764 151.051C56.0597 147.093 52.3739 139.893 52.3739 139.893C53.5074 140.93 54.8463 141.716 56.3035 142.202C56.518 142.214 56.7324 142.178 56.931 142.096C57.1296 142.014 57.3073 141.889 57.4508 141.729C57.5661 141.472 57.6032 141.186 57.5572 140.908C57.5113 140.63 57.3845 140.372 57.1927 140.166Z" fill="#8C4D37"/>
<path d="M52.0441 145.472C51.4704 144.038 50.8968 142.604 50.3374 141.17C50.151 140.682 49.3622 140.897 49.563 141.385C50.1223 142.819 50.696 144.253 51.2553 145.687C51.4561 146.161 52.2305 146.032 52.0441 145.472Z" fill="#3B251D"/>
<path d="M48.7453 145.601L47.9995 143.593C47.8274 143.106 47.0387 143.321 47.2251 143.808L47.9709 145.816C48.143 146.304 48.9174 146.031 48.7453 145.601Z" fill="#3B251D"/>
<path d="M177.677 116.057C177.218 112.73 177.218 108.758 175.913 105.631C175.471 104.649 174.791 103.792 173.934 103.138C173.078 102.485 172.072 102.055 171.008 101.888C168.728 101.372 166.003 101.07 163.937 102.361C161.782 103.993 160.03 106.098 158.818 108.514C155.074 115.01 156.207 122.497 157.584 129.51L156.91 129.438C156.394 129.438 156.394 130.198 156.91 130.241L157.828 130.356C157.943 130.428 156.279 131.632 156.279 131.632C161.694 131.893 167.068 132.715 172.313 134.085C174.048 134.616 172.586 133.138 174.364 133.526C175.052 133.669 176.687 134.429 177.318 133.913C177.949 133.396 178.064 131.833 178.207 131.044C178.487 129.482 178.631 127.899 178.638 126.312C178.561 122.875 178.24 119.448 177.677 116.057Z" fill="#FFA280"/>
<path d="M46.924 148.9C46.1209 146.988 45.3751 145.075 44.6867 143.163C44.5146 142.69 43.7401 142.891 43.9122 143.378C44.615 145.386 45.3464 147.351 46.2356 149.301C46.4364 149.732 47.1391 149.316 46.924 148.9Z" fill="#3B251D"/>
<path d="M296.54 112.357C294.542 111.771 292.491 111.387 290.416 111.21C287.548 110.665 284.809 109.991 282.055 109.173C279.55 108.428 277.074 107.577 274.626 106.621C272.21 105.483 269.729 104.486 267.197 103.638C264.429 102.92 261.532 103.164 258.75 102.562C255.968 101.96 253.185 100.97 250.418 100.181C248.129 99.5116 245.807 98.9611 243.462 98.5319C237.231 96.6731 230.883 95.2357 224.459 94.2294C217.288 93.2686 209.931 94.0717 202.732 92.7953C196.278 91.648 190.297 90.6727 184.016 93.2255C177.074 96.0938 170.936 102.275 162.933 101.214C162.417 101.214 162.417 101.96 162.933 102.017C164.676 102.238 166.444 102.146 168.154 101.744C168.355 107.567 171.424 112.802 171.495 118.682C171.466 122.01 171.125 125.328 170.477 128.592C170.233 130.026 169.043 133.081 170.09 134.443C170.686 134.95 171.421 135.265 172.198 135.347C173.632 135.748 175.196 136.136 176.687 136.509L185.679 138.875C191.222 140.223 196.946 140.669 202.631 140.194C205.701 139.979 208.783 139.979 211.853 140.194C214.994 140.467 218.12 140.94 221.29 141.098C227.558 141.306 233.833 141.119 240.077 140.539C242.501 140.367 244.939 140.151 247.363 139.922L249.256 139.735C251.974 139.588 254.678 139.238 257.345 138.689C259.308 138.079 261.048 136.906 262.348 135.315C263.649 133.723 264.453 131.784 264.659 129.739C264.802 128.747 264.859 127.744 264.831 126.742C268.957 127.645 273.14 128.263 277.351 128.592C279.775 128.778 282.227 128.778 284.651 129.008C286.008 129.1 287.35 129.345 288.652 129.739C290 130.17 291.119 131.173 292.439 131.589C292.785 131.739 293.176 131.746 293.528 131.61C293.88 131.473 294.163 131.203 294.317 130.858C294.8 129.741 295.151 128.571 295.364 127.373C295.794 125.838 296.21 124.333 296.626 122.798C297.435 120.506 298.007 118.137 298.333 115.728C298.451 115.046 298.339 114.346 298.014 113.735C297.689 113.125 297.171 112.64 296.54 112.357Z" fill="#EB755E"/>
<path d="M152.464 137.427C151.259 135.318 147.717 132.364 143.343 129.281C142.82 130.208 142.215 131.086 141.536 131.905C139.792 133.647 137.869 135.199 135.799 136.537C134.448 137.64 133.401 139.071 132.758 140.692C132.116 142.314 131.899 144.073 132.128 145.802C132.501 150.305 134.996 154.192 136.43 158.322C137.362 160.76 137.162 162.983 137.477 165.493C137.834 167.415 138.635 169.227 139.815 170.785C141.079 172.449 142.049 174.316 142.683 176.307C142.784 176.651 142.841 177.009 142.913 177.382C144.677 173.295 146.598 168.777 148.319 164.747C153.138 153.561 156.494 144.425 152.464 137.427Z" fill="#544743"/>
<path d="M174.55 97.2698C174.55 97.0977 174.436 96.8969 174.249 96.8826C173.116 96.7105 169.072 96.3663 165.343 95.9647C163.006 95.8066 160.688 95.4418 158.416 94.8747C158.054 94.7078 157.674 94.5827 157.283 94.5019C156.035 94.2437 154.687 94.3728 153.454 94.0573C151.446 93.3379 149.545 92.3488 147.803 91.1172C144.052 89.2557 140.158 87.697 136.158 86.4562L129.432 83.9464C128.767 83.668 128.081 83.4427 127.381 83.2723L127.567 83.1863C128.04 82.9712 127.567 82.2828 127.166 82.4979C124.963 83.3683 122.884 84.5256 120.984 85.9399C119.494 86.6008 118.056 87.3726 116.682 88.2489C113.555 90.3141 109.353 92.451 106.442 94.717C103.511 96.9471 100.763 99.4073 98.2241 102.074C98.2241 102.074 98.683 106.836 97.6648 108.198C96.4502 109.479 95.4262 110.928 94.6244 112.501C93.9933 114.408 96.2019 115.799 97.9516 116.803L97.8226 117.004C97.5501 117.448 98.2385 117.85 98.5253 117.405L98.6544 117.205C98.9269 117.348 99.1563 117.477 99.3571 117.606C102.709 119.962 106.18 122.144 109.755 124.146C110.312 124.43 110.892 124.665 111.49 124.849C115.739 127.672 120.507 129.622 125.516 130.585C133.418 132.106 141.091 129.883 148.793 132.966C152.722 134.544 156.595 136.265 160.481 137.928C160.543 137.959 160.611 137.975 160.679 137.973C160.748 137.971 160.815 137.952 160.875 137.918C160.935 137.884 160.985 137.836 161.021 137.777C161.058 137.719 161.079 137.653 161.084 137.584C161.499 133.712 161.514 129.538 162.718 125.824C163.679 122.841 166.189 120.847 167.25 117.979C168.197 115.455 170.836 110.737 172.026 107.495C172.234 106.964 172.402 106.417 172.528 105.86C173.231 103.006 174.923 100.425 174.55 97.2698Z" fill="white"/>
<path d="M174.55 97.2698C174.55 97.0977 174.435 96.897 174.249 96.8826C173.116 96.7105 169.072 96.3663 165.343 95.9647C163.006 95.8066 160.688 95.4419 158.416 94.8748C158.054 94.7078 157.673 94.5828 157.283 94.5019C157.025 95.4485 156.738 96.0651 156.451 96.0938C155.017 96.2372 153.669 96.6819 152.263 96.7536C150.718 96.7022 149.183 96.4761 147.688 96.0795C146.384 95.9263 145.072 95.8449 143.759 95.8357C140.508 95.7605 137.418 94.411 135.154 92.0782C134.853 91.7483 134.58 92.0782 134.853 92.4224C137.434 96.1368 140.89 99.5932 145.537 100.382C147.057 100.611 148.606 100.54 150.098 100.913C151.564 101.369 153.001 101.915 154.4 102.548C157.12 103.443 160 103.746 162.847 103.437C164.693 103.266 166.533 103.815 167.982 104.971C168.924 105.769 169.948 106.466 171.036 107.051C171.395 107.237 171.754 107.395 172.112 107.553C172.32 107.021 172.488 106.475 172.614 105.918C173.231 103.006 174.923 100.425 174.55 97.2698Z" fill="#D5E2ED"/>
<path d="M116.323 88.3062C118.03 89.5423 119.28 91.3089 119.876 93.3302C120.473 95.3514 120.384 97.5134 119.622 99.4784C119.536 99.6792 119.464 99.8799 119.378 100.052C118.804 101.151 117.844 101.999 116.682 102.433C115.873 102.767 114.991 102.88 114.124 102.762C113.257 102.643 112.438 102.297 111.748 101.759L110.558 100.855L106.958 98.0872L109.826 93.6987L112.896 85.7534L116.323 88.3062Z" fill="#FFA280"/>
<path d="M114.817 77.5357C114.53 76.1732 114.817 74.4236 114.157 73.2332C113.942 72.8316 112.895 72.1576 112.723 71.9138C112.402 71.2359 112.143 70.5303 111.949 69.8056C111.647 68.9371 111.034 68.2115 110.228 67.769C109.554 67.3675 108.794 67.2097 108.091 66.8368C107.24 66.2457 106.421 65.6089 105.639 64.9294C103.473 63.3949 100.232 63.2371 97.6646 63.4953C96.6177 63.61 93.6059 63.4952 92.7311 64.0546C91.8673 64.8193 90.9021 65.4612 89.8627 65.962C89.2491 66.1574 88.6578 66.4169 88.0987 66.7364C86.1483 67.9268 85.7324 69.4757 84.8575 71.5409C83.6355 73.0062 82.7451 74.7186 82.2473 76.5605C80.8132 81.7952 83.1222 88.2059 83.1222 88.2059C83.1222 88.2059 87.1092 88.0195 87.4247 89.0377C87.56 89.8093 87.7912 90.5609 88.1131 91.275C88.8445 92.4797 90.3647 92.7092 91.5981 93.1538C92.728 93.4844 93.8308 93.9016 94.8967 94.4015C95.8432 94.8748 96.7037 95.6779 97.6789 96.0508C99.1131 96.5957 100.863 95.6922 102.254 95.2476C102.312 95.232 102.365 95.2031 102.41 95.1633C102.455 95.1235 102.49 95.0738 102.512 95.0182C103.399 94.9621 104.266 94.7331 105.065 94.3441C106.335 93.9521 107.554 93.408 108.693 92.7235C109.172 92.319 109.613 91.8727 110.013 91.3897C110.629 90.773 111.447 90.3715 112.021 89.7835C112.866 88.9508 113.517 87.9421 113.928 86.8291C114.652 85.2814 115.136 83.6322 115.362 81.9386C115.419 80.4512 115.235 78.9643 114.817 77.5357Z" fill="#964A35"/>
<path d="M114.817 95.8357C114.475 96.9279 113.918 97.9407 113.179 98.8149C112.44 99.6892 111.535 100.407 110.515 100.927L106.915 98.1591L109.783 93.7705C111.461 92.5372 114.717 87.575 114.717 87.575C115.527 90.2643 115.562 93.1275 114.817 95.8357Z" fill="#DB7753"/>
<path d="M99.1562 131.604C99.1562 131.604 83.3804 146.662 83.8537 146.146C84.327 145.63 87.9841 126.498 87.9841 126.498C87.9841 126.498 91.4404 121.565 93.8498 123.185C96.2592 124.806 99.1562 131.604 99.1562 131.604Z" fill="#DB7753"/>
<path d="M107.231 69.3897L107.302 69.5044C111.519 76.8043 115.592 84.1042 114.731 91.4471C114.373 94.5449 114.029 95.5488 111.619 97.2841C108.034 99.8656 104.448 98.7183 100.791 97.0977C96.1302 95.0182 86.2344 79.8877 86.593 78.4536C87.4822 74.8682 95.915 69.3323 100.002 67.7834C101.239 67.3682 102.566 67.2984 103.84 67.5814C105.114 67.8645 106.286 68.4896 107.231 69.3897Z" fill="#FFA280"/>
<path d="M99.6582 87.0444L99.4861 86.8436C99.1706 86.4564 98.5683 86.0261 98.052 86.3273C97.5357 86.6284 97.7221 87.2021 97.8799 87.6897C98.0269 88.1426 98.2773 88.555 98.6113 88.8944C99.0846 89.3534 100.117 89.7262 100.261 88.8944C100.285 88.6308 100.246 88.3652 100.146 88.12C100.035 87.7402 99.8708 87.3781 99.6582 87.0444Z" fill="#3B251D"/>
<path d="M108.593 81.1784C108.545 81.1081 108.492 81.041 108.435 80.9777C108.091 80.6048 107.489 80.1745 107.001 80.5044C106.514 80.8342 106.671 81.3649 106.858 81.8525C107.006 82.3037 107.262 82.7121 107.603 83.0428C108.105 83.5017 109.138 83.846 109.253 82.9711C109.283 82.706 109.238 82.4378 109.124 82.1967C109 81.8322 108.821 81.4889 108.593 81.1784Z" fill="#3B251D"/>
<path d="M99.1705 82.4981C98.9221 82.4671 98.6699 82.5017 98.4391 82.5984C97.0943 83.0892 95.9023 83.9251 94.9827 85.0222C94.522 85.51 94.2174 86.1242 94.1079 86.7862C93.9788 88.0339 96.4599 85.6962 96.7324 85.4381C97.3218 84.9092 97.9717 84.4518 98.6685 84.0756C98.9602 83.9601 99.2242 83.7842 99.443 83.5593C99.5512 83.446 99.6184 83.2998 99.634 83.1439C99.6496 82.988 99.6127 82.8313 99.529 82.6988C99.4868 82.642 99.433 82.5947 99.3712 82.5601C99.3094 82.5255 99.241 82.5043 99.1705 82.4981Z" fill="#964A35"/>
<path d="M103.516 79.7729C103.597 79.529 103.734 79.3078 103.918 79.1276C104.923 78.1143 106.172 77.3781 107.546 76.9906C108.192 76.7977 108.88 76.7977 109.525 76.9906C110.715 77.3779 107.546 78.6687 107.202 78.8264C106.48 79.1357 105.8 79.5357 105.18 80.0168C104.949 80.2343 104.676 80.4005 104.376 80.5044C104.229 80.5561 104.069 80.5575 103.921 80.5081C103.773 80.4588 103.646 80.3616 103.559 80.2319C103.52 80.1628 103.495 80.0862 103.488 80.007C103.481 79.9279 103.49 79.8481 103.516 79.7729Z" fill="#964A35"/>
<path d="M104.534 93.4837C105.747 93.1527 106.913 92.6709 108.005 92.0495C109.044 91.3432 109.96 90.4711 110.716 89.468C110.872 90.2502 110.793 91.061 110.489 91.7984C110.185 92.5359 109.67 93.1672 109.009 93.6128C108.34 94.0532 107.552 94.277 106.751 94.2539C105.951 94.2308 105.177 93.9619 104.534 93.4837Z" fill="#DB7753"/>
<path d="M105.754 85.4666C105.438 85.1224 104.936 85.6244 105.237 85.983C105.782 86.5996 106.385 87.2163 106.887 87.8761C107.804 89.1094 106.714 89.6687 105.639 90.0129C105.194 90.1707 105.381 90.8591 105.84 90.7157C106.844 90.3858 108.12 89.9986 108.02 88.7079C107.919 87.4171 106.514 86.3415 105.754 85.4666Z" fill="#DB7753"/>
<path d="M128.184 125.853C122.769 122.2 117.587 118.215 112.666 113.921C110.18 111.962 107.859 109.804 105.725 107.467C105.326 107.05 105.02 106.553 104.827 106.009C104.635 105.465 104.559 104.887 104.606 104.312C104.649 103.873 104.649 103.431 104.606 102.992C104.552 102.541 104.338 102.124 104.004 101.816C104.947 101.604 105.906 101.475 106.872 101.429C107.388 101.429 106.255 98.8044 106.255 98.8044C106.255 98.8044 101.953 99.3351 100.074 100.855C97.9084 102.591 96.7037 104.541 94.5237 106.291C92.3438 108.04 82.7206 121.192 83.8966 122.067L92.4012 128.463L96.4885 131.546C97.3347 132.177 100.432 136.222 101.537 136.265C102.469 136.184 103.352 135.813 104.061 135.204C106.183 133.87 107.861 134.257 110.185 134.544C113.742 134.988 114.817 130.858 118.216 129.94C121.612 129.092 124.928 127.95 128.126 126.527C128.183 126.493 128.231 126.446 128.266 126.39C128.301 126.334 128.323 126.27 128.328 126.205C128.334 126.139 128.324 126.072 128.298 126.011C128.273 125.95 128.234 125.896 128.184 125.853Z" fill="white"/>
<path d="M111.017 73.3336C110.356 72.0766 109.614 70.8645 108.794 69.7051C105.796 65.5317 101.279 65.9907 96.9475 67.8838C94.3458 69.2398 91.9024 70.88 89.662 72.7743C87.9123 74.0794 86.0622 75.3701 85.4312 77.593C83.8823 82.9855 88.6294 87.0872 92.4729 89.9699C92.4729 90.5005 92.473 91.0455 92.3439 91.5762C92.505 91.585 92.6579 91.6502 92.7758 91.7603C92.8938 91.8704 92.9693 92.0184 92.9892 92.1785C92.9892 92.1785 92.9892 92.2789 92.9892 92.3363C93.0753 91.5618 93.147 90.7874 93.19 90.0129C93.2185 89.9498 93.2333 89.8814 93.2333 89.8121C93.2333 89.7429 93.2185 89.6744 93.19 89.6114V89.4249C93.19 87.6322 92.5016 86.0116 92.6164 84.1902C92.7454 81.9099 93.8211 80.3897 94.6099 78.3675C94.9772 77.3717 95.1571 76.3166 95.1405 75.2554C96.6792 75.6586 98.3062 75.5632 99.7872 74.9829C100.474 74.7023 101.185 74.4816 101.91 74.3232C102.716 74.2218 103.535 74.3254 104.29 74.6243C105.041 74.8349 105.824 74.903 106.599 74.8251C107.428 74.7167 108.27 74.7654 109.081 74.9685C109.452 75.1283 109.842 75.2391 110.242 75.2984C110.474 75.3224 110.707 75.2782 110.913 75.1711C111.12 75.0641 111.29 74.8989 111.404 74.6961C111.605 74.3232 111.246 73.7495 111.017 73.3336Z" fill="#964A35"/>
<path d="M98.9268 97.4419C98.2794 96.2364 97.4194 95.1578 96.3884 94.2581C93.6061 91.863 91.3688 89.9556 90.0063 86.4419C89.6478 85.524 89.0885 83.7026 87.726 84.4484C87.5109 83.6309 87.1523 82.7417 86.3922 82.5266C85.3883 82.2398 85.1589 82.9282 84.9581 83.8317C84.7736 86.1306 85.0565 88.443 85.7899 90.6296C86.2696 92.7726 87.1084 94.8188 88.271 96.6818C89.4716 98.2425 90.926 99.5903 92.5735 100.669C94.0076 101.673 96.417 103.623 98.3101 103.537C101.551 103.394 99.8017 99.0625 98.9268 97.4419Z" fill="#FFA280"/>
<path d="M94.5813 99.8369C94.5813 99.8369 78.3179 127.086 76.31 132.034C73.2122 139.621 72.28 146.849 75.636 149.473C78.9919 152.098 85.2592 146.232 88.3713 138.846C92.5017 129.036 100.132 102.318 100.132 102.318L94.5813 99.8369Z" fill="#FFA280"/>
<path d="M217.317 91.6909L204.41 89.0664L190.527 86.3127C180.273 84.2762 169.99 82.1537 159.52 81.5226C159.468 81.5139 159.414 81.5185 159.364 81.536C159.314 81.5536 159.269 81.5835 159.233 81.623C159.151 81.6381 159.076 81.6782 159.018 81.7378C158.554 82.2112 158.206 82.7854 158 83.4157C157.597 84.5599 156.929 85.5922 156.05 86.4275C154.754 87.3396 153.72 88.576 153.052 90.0129C153.052 90.2137 147.932 92.451 147.932 92.451C147.932 92.451 156.236 92.7378 160.438 92.9529C165.056 93.1824 174.263 93.4262 178.595 94.7313C182.926 96.0364 187.07 95.4054 191.33 95.6492L216.543 97.1694L217.317 91.6909Z" fill="#FFA280"/>
<path d="M168.053 81.6232C166.138 80.8802 164.131 80.3978 162.087 80.189C159.922 80.0026 157.785 80.4185 155.591 80.189C153.396 79.9596 151.79 79.0704 149.739 78.9557C147.358 78.8123 144.949 78.8122 142.568 78.8409C134.551 78.9413 122.92 82.3116 117.026 88.206C118.352 87.9348 119.626 87.4505 120.798 86.7718C121.499 86.0718 122.252 85.4246 123.049 84.8357C123.049 84.8357 123.049 84.8357 123.049 84.9074C123.882 86.4505 125.289 87.6042 126.965 88.12C129.833 89.3247 132.802 90.3859 135.713 91.5189C141.708 93.8566 147.688 96.2086 153.683 98.5176C156.485 99.3824 159.369 99.9591 162.288 100.239C162.288 100.239 164.095 94.502 164.827 92.9101C165.271 91.9348 165.787 91.0026 166.261 90.0417C167.336 87.4602 167.15 84.7353 168.369 82.1682C168.389 82.1117 168.396 82.0517 168.39 81.9922C168.384 81.9327 168.366 81.8752 168.336 81.8235C168.306 81.7718 168.265 81.7271 168.217 81.6925C168.168 81.658 168.112 81.6343 168.053 81.6232Z" fill="white"/>
<path d="M236.951 100.21C236.779 99.7366 236.42 99.4498 236.305 98.9479C236.305 98.7471 236.449 98.4459 236.435 98.2021C236.435 97.1982 235.287 96.2803 234.556 95.721C232.261 93.9857 229.206 93.5554 226.453 92.9961C222.925 92.2647 215.338 91.2034 215.338 91.2034C214.827 91.5157 214.27 91.7479 213.689 91.8918C213.582 91.8918 213.48 91.9341 213.405 92.0094C213.329 92.0847 213.287 92.1868 213.287 92.2933C213.355 93.3538 213.653 94.3866 214.162 95.3195C213.832 95.1043 213.387 95.6063 213.689 95.9648C215.31 98.1068 217.488 99.7635 219.985 100.755C221.397 101.331 222.743 102.057 224 102.921C224.746 103.422 225.836 104.728 226.869 104.885C227.901 105.043 228.202 104.283 228.016 103.451C227.729 102.089 225.822 100.812 224.129 99.9231C225.921 100.119 227.67 100.603 229.307 101.357C230.865 102.388 232.643 103.041 234.498 103.265H234.699C234.791 103.262 234.882 103.238 234.963 103.195C235.045 103.152 235.116 103.09 235.17 103.015C235.224 102.94 235.26 102.854 235.275 102.763C235.291 102.672 235.285 102.579 235.259 102.49C235.226 102.301 235.135 102.125 235 101.988C236.305 102.089 237.682 102.117 236.951 100.21Z" fill="#FFA280"/>
<path d="M233.982 100.654C231.234 98.6161 228.028 97.2817 224.646 96.7679C224.144 96.6818 223.929 97.4563 224.445 97.5424C227.757 98.0437 230.895 99.354 233.58 101.357C233.996 101.658 234.398 100.956 233.982 100.654Z" fill="#DB7753"/>
<path d="M235.043 97.8436C232.258 96.2042 229.219 95.0409 226.051 94.4017C225.535 94.3299 225.32 95.1044 225.836 95.1904C228.935 95.8031 231.908 96.938 234.627 98.5464C235.086 98.7902 235.502 98.0874 235.043 97.8436Z" fill="#DB7753"/>
<path d="M137.061 94.0574C133.646 90.8891 130.981 86.9989 129.259 82.6702C129.073 82.1969 128.298 82.412 128.485 82.8853C130.246 87.3467 132.98 91.3593 136.487 94.6311C136.875 94.9753 137.448 94.4016 137.061 94.0574Z" fill="#D5E2ED"/>
<path d="M118.532 126.096C116.61 125.451 115.377 123.917 113.842 122.669C112.369 121.646 110.768 120.822 109.081 120.216C107.237 119.386 105.618 118.128 104.359 116.547C103.099 114.965 102.235 113.106 101.838 111.124C101.738 110.622 100.963 110.823 101.064 111.339C101.439 113.214 102.21 114.987 103.325 116.54C104.441 118.094 105.875 119.391 107.532 120.345C109.783 121.622 112.092 122.239 114.057 124.003C115.236 125.249 116.669 126.227 118.259 126.871C118.819 127.043 119.019 126.269 118.532 126.096Z" fill="#D5E2ED"/>
<path d="M157.398 115.699C154.952 121.736 150.235 126.572 144.261 129.166C143.787 129.381 144.189 130.069 144.662 129.869C150.818 127.163 155.668 122.154 158.172 115.914C158.359 115.441 157.584 115.226 157.398 115.699Z" fill="#D5E2ED"/>
<path d="M161.686 106.463C160.994 108.368 160.139 110.211 159.133 111.97C159.08 112.063 159.066 112.174 159.094 112.277C159.122 112.381 159.19 112.469 159.284 112.522C159.377 112.576 159.487 112.59 159.591 112.561C159.694 112.533 159.782 112.465 159.836 112.372C160.867 110.533 161.75 108.615 162.475 106.635C162.647 106.19 161.872 105.975 161.686 106.463Z" fill="#D5E2ED"/>
<path d="M264.831 126.713C264.859 127.716 264.802 128.718 264.659 129.711C264.453 131.756 263.649 133.695 262.348 135.286C261.048 136.878 259.307 138.051 257.344 138.66C254.678 139.21 251.974 139.559 249.256 139.707L247.363 139.893C246.794 138.262 245.892 136.767 244.714 135.503C243.536 134.239 242.109 133.233 240.522 132.55C234.909 130.415 229.439 127.924 224.144 125.093C220.07 122.87 210.892 121.464 210.892 121.464C212.701 121.233 214.532 121.233 216.342 121.464C218.952 121.866 222.58 123.472 239.503 122.669C256.427 121.866 264.831 126.713 264.831 126.713Z" fill="#D4553D"/>
<path d="M94.9972 73.9361C94.654 73.5157 94.2643 73.1356 93.8355 72.8031C93.2331 72.4159 92.4874 72.5449 91.928 72.1147C91.3687 71.6844 91.1536 71.0821 90.6947 70.6805C90.2457 70.2747 89.6959 69.9973 89.1027 69.8774C89.0096 69.8527 88.9104 69.866 88.827 69.9144C88.7436 69.9628 88.6829 70.0423 88.6582 70.1355C88.6334 70.2287 88.6467 70.3279 88.6951 70.4113C88.7436 70.4947 88.8231 70.5554 88.9163 70.5802C90.3505 70.91 90.5656 72.1147 91.6269 72.8461C92.0081 73.056 92.4275 73.1876 92.8603 73.2333C93.5104 73.4754 94.0743 73.9046 94.4809 74.4667C94.739 74.7822 95.3127 74.3233 94.9972 73.9361Z" fill="#73301E"/>
<path d="M92.516 76.9333C91.4803 78.3926 90.8112 80.0799 90.5655 81.8525C90.1497 83.7953 90.1497 85.8041 90.5655 87.7469C90.7089 88.1915 91.4117 88.0051 91.2682 87.5605C90.8768 85.8111 90.8441 84.0004 91.1719 82.238C91.4997 80.4756 92.1814 78.7978 93.1757 77.3062C93.4195 76.9333 92.7884 76.5748 92.516 76.9333Z" fill="#73301E"/>
<path d="M92.2149 74.0365C91.5617 74.6363 91.0446 75.369 90.6983 76.1853C90.3519 77.0017 90.1845 77.8828 90.2071 78.7693C90.2239 78.8539 90.2696 78.93 90.3363 78.9847C90.403 79.0395 90.4866 79.0694 90.5728 79.0694C90.6591 79.0694 90.7427 79.0395 90.8094 78.9847C90.876 78.93 90.9217 78.8539 90.9385 78.7693C90.9158 78.0067 91.0505 77.2476 91.3343 76.5394C91.618 75.8312 92.0448 75.1891 92.5878 74.6532C92.975 74.3951 92.6022 73.7783 92.2149 74.0365Z" fill="#73301E"/>
<path d="M114.674 79.0848C113.864 76.9951 112.556 75.1346 110.864 73.665C109.172 72.1954 107.147 71.1611 104.965 70.6519C104.506 70.5515 104.319 71.2542 104.764 71.3546C106.827 71.8246 108.745 72.7915 110.349 74.1712C111.954 75.5509 113.197 77.3016 113.971 79.2712C114.143 79.7015 114.817 79.515 114.674 79.0848Z" fill="#73301E"/>
<path d="M95.8578 50.3726C95.1144 48.8965 94.4816 47.3673 93.9647 45.7976C93.745 44.3336 93.3897 42.8933 92.9034 41.4951C92.7169 41.0649 92.0859 41.4951 92.2723 41.868C92.7557 43.4048 93.1389 44.9714 93.4197 46.5578C93.8499 47.9919 94.6244 49.254 95.1837 50.6164C96.2814 53.6367 96.9945 56.7831 97.3063 59.9815C97.3063 60.4404 98.0664 60.254 98.009 59.7951C97.6937 56.5758 96.9708 53.4097 95.8578 50.3726Z" fill="#E8C1A7"/>
<path d="M48.6019 54.7471C48.3868 54.3455 47.7271 54.6323 47.9422 55.0482C50.6617 60.2348 51.6897 66.1424 50.8822 71.9427C50.8766 71.9897 50.8803 72.0375 50.8931 72.0832C50.9059 72.1288 50.9275 72.1715 50.9568 72.2088C50.9861 72.2461 51.0225 72.2772 51.0638 72.3005C51.1052 72.3237 51.1507 72.3386 51.1978 72.3442C51.2448 72.3499 51.2926 72.3462 51.3382 72.3334C51.3839 72.3206 51.4266 72.2989 51.4639 72.2696C51.5012 72.2404 51.5323 72.204 51.5556 72.1626C51.5788 72.1213 51.5937 72.0758 51.5993 72.0287C52.438 66.0963 51.3894 60.0505 48.6019 54.7471Z" fill="#E8C1A7"/>
<path d="M74.4314 47.9489C73.246 48.6406 71.9261 49.0705 70.5606 49.2094C69.1952 49.3483 67.8158 49.193 66.5154 48.7541C65.2149 48.3152 64.0236 47.6028 63.0216 46.6649C62.0196 45.7269 61.2302 44.5852 60.7064 43.3165C60.52 42.8863 59.9033 43.3165 60.0754 43.6751C60.6477 45.0277 61.5017 46.2429 62.5804 47.2398C63.6591 48.2366 64.9378 48.9923 66.3313 49.4563C67.7248 49.9204 69.2012 50.0822 70.6622 49.9311C72.1232 49.78 73.5352 49.3194 74.8043 48.5799C74.8697 48.5226 74.913 48.4443 74.9268 48.3584C74.9405 48.2725 74.9239 48.1846 74.8796 48.1097C74.8354 48.0348 74.7664 47.9778 74.6845 47.9484C74.6027 47.9191 74.5131 47.9192 74.4314 47.9489Z" fill="#E8C1A7"/>
<path d="M87.1523 9.28391C86.989 8.64475 86.5958 8.0882 86.048 7.72068C85.6006 7.41828 85.2476 6.99573 85.0297 6.50163C84.8863 6.15743 84.8002 5.79889 84.6281 5.46903C84.2335 4.8436 83.7116 4.30838 83.0963 3.89818C82.481 3.48798 81.7862 3.212 81.0571 3.08831C81.0119 3.07513 80.9645 3.07098 80.9177 3.0761C80.8709 3.08122 80.8256 3.09552 80.7843 3.11816C80.743 3.1408 80.7066 3.17134 80.6771 3.20806C80.6476 3.24477 80.6257 3.28694 80.6125 3.33214C80.5993 3.37734 80.5952 3.42469 80.6003 3.47149C80.6054 3.5183 80.6197 3.56366 80.6423 3.60494C80.665 3.64622 80.6955 3.68265 80.7322 3.71213C80.7689 3.7416 80.8111 3.76354 80.8563 3.77673C81.5706 3.95769 82.2561 4.2377 82.8928 4.60856C83.5975 5.12074 84.104 5.86026 84.327 6.70243C84.4559 7.07482 84.6448 7.42363 84.8863 7.73503C85.4456 8.38041 86.2201 8.50947 86.4495 9.47036C86.5643 9.92929 87.2527 9.78587 87.1523 9.28391Z" fill="#544743"/>
<path d="M81.387 5.21088C80.4733 3.80769 79.1146 2.75211 77.5291 2.21348C77.0989 2.05573 76.8981 2.75848 77.3427 2.9019C78.7567 3.38755 79.9681 4.33141 80.7847 5.58378C81.0141 5.971 81.6308 5.59811 81.387 5.21088Z" fill="#544743"/>
<path d="M69.7129 11.0191C68.9384 11.0191 67.9489 9.58502 67.4756 8.99702C66.808 8.21778 66.2083 7.3829 65.6829 6.50154C65.4391 6.09997 64.808 6.50154 65.0519 6.86008C65.6966 7.93159 66.4409 8.93997 67.2748 9.87183C67.9058 10.5746 68.709 11.6645 69.7129 11.7506C70.1718 11.7936 70.1718 11.0622 69.7129 11.0191Z" fill="#544743"/>
<path d="M37.6306 102.605C33.5003 102.72 29.7284 104.684 25.6267 104.957C25.1678 104.957 25.1534 105.717 25.6267 105.674C29.7284 105.402 33.5003 103.451 37.6306 103.336C38.0896 103.322 38.0896 102.591 37.6306 102.605Z" fill="#A14C2B"/>
<path d="M51.0258 81.0782C49.918 83.9563 48.3644 86.6423 46.4221 89.0378C46.1209 89.4107 46.6372 89.927 46.9241 89.5541C48.9548 87.0656 50.5722 84.2667 51.7142 81.2646C51.9006 80.8344 51.1979 80.6479 51.0258 81.0782Z" fill="#A14C2B"/>
<path d="M84.3699 113.275C80.4054 114.682 76.7972 116.94 73.7992 119.891C70.8011 122.842 68.486 126.414 67.0166 130.356C66.8588 130.801 67.5616 130.987 67.7193 130.542C69.1524 126.721 71.403 123.258 74.3138 120.397C77.2245 117.536 80.7251 115.345 84.5707 113.978C85.001 113.82 84.8145 113.132 84.3699 113.275Z" fill="#A14C2B"/>
<path d="M73.2265 122.21C70.8315 127.058 69.0244 132.249 69.5407 137.699C69.5407 138.172 70.3008 138.172 70.2578 137.699C69.7559 132.35 71.5199 127.316 73.8432 122.569C74.1014 122.153 73.4703 121.794 73.2265 122.21Z" fill="#A14C2B"/>
<path d="M134.537 35.5004C134.351 41.1224 134.308 46.5435 131.999 51.7782C131.812 52.2085 132.443 52.567 132.63 52.1511C134.996 46.7587 135.082 41.2801 135.268 35.5004C135.283 35.0415 134.551 35.0415 134.537 35.5004Z" fill="#A14C2B"/>
<path d="M95.6712 142.403C94.8617 143.567 94.3143 144.894 94.0667 146.29C93.8191 147.686 93.8772 149.12 94.2371 150.492C94.3231 150.951 95.0258 150.75 94.9398 150.291C94.5933 149.019 94.5305 147.687 94.7561 146.388C94.9816 145.09 95.4899 143.856 96.2449 142.776C96.5747 142.403 95.9437 142.044 95.6712 142.403Z" fill="#3B251D"/>
<path d="M142.454 192.929C139.399 198.837 132.415 199.669 126.491 198.45C126.047 198.35 125.846 199.053 126.305 199.139C132.515 200.429 139.872 199.497 143.085 193.302C143.285 192.886 142.669 192.513 142.454 192.929Z" fill="#3B251D"/>
<path d="M208.296 120.661C204.754 120.919 201.125 121.048 197.655 121.45C194.786 121.765 192.678 123.199 190.269 124.605C184.532 127.932 178.466 130.786 172.442 133.612C172.026 133.812 172.442 134.443 172.815 134.243C178.423 131.604 184.044 128.95 189.451 125.896C192.32 124.246 194.901 122.439 198.343 122.11C201.785 121.78 204.983 121.622 208.296 121.392C208.769 121.349 208.769 120.632 208.296 120.661Z" fill="#D4553D"/>
<path d="M195.002 123.831C193.287 126.788 191.074 129.428 188.462 131.632C188.103 131.934 188.619 132.45 188.978 132.149C191.633 129.899 193.883 127.212 195.633 124.203C195.662 124.122 195.662 124.032 195.633 123.95C195.604 123.868 195.547 123.799 195.472 123.755C195.397 123.711 195.309 123.694 195.223 123.708C195.137 123.722 195.059 123.765 195.002 123.831Z" fill="#D4553D"/>
<path d="M333.742 196.127C333.298 199.942 332.753 203.742 332.136 207.6C332.136 207.844 332.05 208.116 332.007 208.36C331.864 209.307 331.706 210.239 331.534 211.228C330.53 216.965 329.282 222.702 326.371 227.592C326.242 227.822 326.098 228.051 325.955 228.266C325.796 228.542 325.624 228.811 325.439 229.069C318.856 238.678 306.522 242.307 295.02 244.186C288.423 245.276 281.783 245.993 275.128 246.48L272.346 246.667C269.152 246.867 265.954 247.016 262.751 247.111H261.547C254.505 247.326 247.449 247.355 240.393 247.298H239.174H236.133H235.029H229.636L219.984 247.197L213.502 247.126H212.527H207.737H206.848L191.861 246.968H191.143L176.931 246.796H176.142L170.018 246.724V216.607C170.018 216.607 197.267 212.835 226.323 208.876L228.962 208.518L238.915 207.17L240.091 207.012C268.373 203.197 294.704 199.755 295.78 199.999C296.856 200.243 314.668 197.661 333.742 196.127Z" fill="#C7916D"/>
<path d="M228.962 208.289C222.263 211.464 215.306 214.064 208.167 216.062C203.248 217.496 197.999 218.5 193.352 220.708C188.928 223.082 185.026 226.32 181.879 230.231C178.193 234.534 177.576 239.453 177.175 244.831C177.175 245.405 177.06 245.978 177.003 246.538H176.214C176.472 244.171 176.644 241.805 177.003 239.367C177.654 234.977 179.766 230.935 182.997 227.894C186.136 224.36 189.955 221.496 194.227 219.475C198.755 217.822 203.37 216.419 208.052 215.273C214.318 213.473 220.448 211.23 226.395 208.561L228.962 208.289Z" fill="#D4A281"/>
<path d="M240.092 206.783C237.039 209.896 233.631 212.64 229.938 214.957C225.363 217.639 220.142 218.715 215.195 220.508C210.028 222.399 205.214 225.143 200.953 228.625C196.651 232.153 192.535 236.413 191.875 242.221C191.724 243.718 191.724 245.227 191.875 246.724H191.158C190.822 243.946 191.116 241.127 192.018 238.478C193.696 233.86 197.64 230.289 201.412 227.349C205.368 224.28 209.756 221.815 214.434 220.034C219.884 217.984 225.664 216.879 230.64 213.681C233.611 211.707 236.387 209.455 238.93 206.955L240.092 206.783Z" fill="#D4A281"/>
<path d="M294.905 203.857C288.002 205.523 281.515 208.588 275.845 212.864C271.548 216.407 268.217 220.98 266.165 226.158C264.282 230.519 260.75 233.958 256.341 235.724C251.225 237.815 246.281 240.303 241.554 243.167C239.678 244.42 237.869 245.77 236.133 247.212H235.029C236.907 245.603 238.88 244.108 240.938 242.737C245.843 239.439 251.163 237.388 256.455 234.878C258.962 233.827 261.209 232.241 263.038 230.231C264.96 227.908 265.749 224.925 267.097 222.286C272.504 211.702 283.747 206.195 294.719 203.169C295.163 203.025 295.35 203.728 294.905 203.857Z" fill="#D4A281"/>
<path d="M332.136 207.557C332.136 207.801 332.05 208.073 332.007 208.317C327.389 208.862 322.728 209.235 318.096 209.751C308.473 210.712 298.62 211.415 289.226 213.853C284.835 214.905 280.658 216.705 276.878 219.174C273.12 221.727 270.309 225.255 267.355 228.639C264.49 231.96 261.168 234.858 257.488 237.244C253.73 239.682 249.729 241.705 245.843 243.928C244.036 244.974 242.2 246.079 240.45 247.312H239.231C241.159 245.931 243.155 244.648 245.212 243.469C249.17 241.188 253.272 239.166 257.129 236.642C261.078 234.019 264.624 230.835 267.656 227.191C270.329 223.772 273.478 220.753 277.007 218.227C280.478 216.059 284.26 214.434 288.222 213.409C297.243 210.927 306.766 210.196 316.045 209.264L331.591 207.686L332.136 207.557Z" fill="#D4A281"/>
<path d="M326.371 227.506C326.242 227.736 326.098 227.965 325.955 228.18C319.946 227.401 313.877 227.181 307.827 227.521C299.911 227.893 291.779 228.682 284.422 231.823C277.767 234.691 271.959 239.238 266.423 243.884L262.751 246.968H261.547C263.612 245.132 265.777 243.411 267.843 241.719C273.422 237.158 279.316 232.841 286.171 230.245C293.658 227.377 301.947 226.803 309.835 226.56C315.364 226.394 320.897 226.711 326.371 227.506Z" fill="#D4A281"/>
<path d="M251.063 222.286C250.537 223.958 249.492 225.42 248.08 226.459C246.431 227.894 244.351 228.754 242.687 230.188C241.224 231.772 239.657 233.257 237.998 234.634C236.349 235.679 234.563 236.49 232.691 237.044C228.389 238.478 224.172 239.353 220.257 241.647C217.786 243.11 215.523 244.9 213.531 246.968H212.556C213.972 245.425 215.538 244.027 217.231 242.795C220.147 240.675 223.401 239.066 226.854 238.033C230.655 236.857 234.799 236.111 238.069 233.731C239.819 232.454 241.009 230.604 242.716 229.27C244.423 227.937 246.244 227.176 247.779 225.8C248.728 225.084 249.491 224.149 250.002 223.075C250.776 220.092 247.736 221.368 246.474 221.641C244.218 222.2 242.03 223.003 239.948 224.036C236.434 225.8 233.466 228.783 229.364 228.955C226.84 229.07 224.316 228.338 221.82 228.955C219.833 229.465 218.063 230.602 216.772 232.196C214.018 235.351 212.885 239.453 210.835 243.038C209.943 244.432 208.915 245.734 207.766 246.925H206.876C208.121 245.627 209.236 244.21 210.204 242.694C212.527 238.607 213.775 233.802 217.374 230.561C218.729 229.298 220.424 228.461 222.251 228.152C224.407 228.032 226.57 228.085 228.719 228.309C231.716 228.309 233.882 226.875 236.277 225.441C238.178 224.21 240.196 223.167 242.3 222.329C243.734 221.669 251.608 218.299 251.063 222.286Z" fill="#D4A281"/>
<path d="M229.149 246.509C229.097 246.522 229.043 246.522 228.991 246.509L171.18 218.17C171.096 218.124 171.033 218.048 171.004 217.957C170.975 217.867 170.981 217.768 171.022 217.682C171.042 217.638 171.071 217.599 171.106 217.566C171.142 217.534 171.184 217.508 171.229 217.492C171.275 217.476 171.323 217.47 171.371 217.473C171.42 217.476 171.467 217.488 171.51 217.51L229.307 245.821C229.393 245.864 229.459 245.939 229.491 246.03C229.523 246.121 229.519 246.22 229.479 246.308C229.45 246.371 229.403 246.423 229.345 246.459C229.286 246.495 229.218 246.512 229.149 246.509Z" fill="#AB7652"/>
<path d="M277.451 205.85L267.886 234.29L272.088 233.257L283.977 205.85H277.451Z" fill="#3B251D"/>
<path d="M275.128 246.423L272.346 246.609C267.886 244.114 262.88 240.084 260.686 233.931C257.496 224.794 257.496 214.845 260.686 205.707C260.771 205.548 260.912 205.427 261.082 205.366C261.251 205.304 261.437 205.308 261.604 205.375C261.771 205.443 261.908 205.57 261.987 205.731C262.066 205.893 262.083 206.078 262.034 206.252C259.017 215.084 259.017 224.668 262.034 233.501C264.415 240.184 270.438 244.243 275.056 246.408L275.128 246.423Z" fill="#3B251D"/>
<path d="M335.679 172.477C335.679 172.721 335.679 172.979 335.679 173.209C335.306 180.623 334.718 188.009 333.857 195.381L333.771 196.112C333.274 200.405 332.662 204.679 331.935 208.934L250.59 214.871C249.888 214.932 249.189 214.733 248.625 214.312L247.621 213.595C247.2 213.29 246.866 212.882 246.649 212.409C246.433 211.937 246.343 211.416 246.387 210.899L256.9 94.1577C256.963 93.4329 257.29 92.7565 257.818 92.2568C258.347 91.7571 259.041 91.469 259.768 91.4471L334.517 88.2346C334.517 89.2816 334.517 90.3141 334.617 91.3611C334.617 91.5906 334.617 91.8487 334.617 92.0782C335.048 104.34 335.578 116.602 335.894 128.836C336.281 143.45 336.381 157.992 335.679 172.477Z" fill="#544743"/>
<path d="M334.617 92.1211L262.909 95.3624C262.405 95.3817 261.925 95.5848 261.561 95.9336C261.196 96.2824 260.972 96.7526 260.93 97.2554L250.475 213.58C250.464 213.672 250.42 213.756 250.351 213.817C250.283 213.878 250.194 213.911 250.102 213.91C250.008 213.9 249.922 213.854 249.861 213.782C249.8 213.71 249.768 213.617 249.772 213.523L260.241 97.1981C260.311 96.5263 260.615 95.9005 261.1 95.4309C261.586 94.9613 262.221 94.678 262.895 94.6309L334.675 91.4041C334.603 91.6335 334.603 91.8917 334.617 92.1211Z" fill="#3B251D"/>
<path d="M265.777 124.519C265.684 124.508 265.598 124.462 265.536 124.39C265.475 124.319 265.443 124.226 265.448 124.132C265.448 123.874 267.355 99.6076 267.384 99.2348C267.384 99.1397 267.422 99.0485 267.489 98.9813C267.556 98.914 267.647 98.8762 267.742 98.8762C267.836 98.8798 267.925 98.9187 267.992 98.9852C268.058 99.0516 268.097 99.1408 268.101 99.2348C268.101 99.3495 266.896 114.91 266.179 124.175C266.177 124.225 266.165 124.273 266.144 124.318C266.122 124.363 266.092 124.403 266.054 124.435C266.016 124.468 265.972 124.492 265.925 124.506C265.877 124.521 265.827 124.525 265.777 124.519Z" fill="#3B251D"/>
<path d="M269.707 124.433C269.66 124.429 269.614 124.416 269.572 124.395C269.53 124.374 269.492 124.344 269.462 124.308C269.431 124.272 269.408 124.23 269.393 124.185C269.379 124.14 269.373 124.093 269.377 124.046C269.377 123.802 271.285 99.5216 271.313 99.1487C271.311 99.1017 271.319 99.0547 271.336 99.011C271.354 98.9672 271.38 98.9277 271.414 98.8951C271.448 98.8625 271.489 98.8376 271.533 98.8219C271.578 98.8063 271.625 98.8004 271.672 98.8045C271.767 98.8045 271.858 98.8423 271.925 98.9095C271.993 98.9767 272.03 99.068 272.03 99.163C272.03 99.2778 270.826 114.838 270.109 124.103C270.098 124.2 270.05 124.288 269.975 124.35C269.9 124.411 269.804 124.441 269.707 124.433Z" fill="#3B251D"/>
<path d="M273.637 124.39C273.59 124.386 273.544 124.373 273.501 124.352C273.459 124.331 273.422 124.301 273.391 124.265C273.361 124.229 273.337 124.187 273.323 124.142C273.308 124.097 273.303 124.05 273.307 124.003C273.307 123.759 275.214 99.4929 275.229 99.1057C275.236 99.0118 275.278 98.9242 275.347 98.8603C275.417 98.7965 275.507 98.7612 275.601 98.7615C275.697 98.7615 275.788 98.7992 275.855 98.8665C275.922 98.9337 275.96 99.0249 275.96 99.12C275.96 99.2348 274.755 114.795 274.024 124.06C274.02 124.107 274.007 124.153 273.986 124.195C273.964 124.237 273.935 124.275 273.899 124.306C273.863 124.336 273.821 124.359 273.776 124.374C273.731 124.388 273.684 124.394 273.637 124.39Z" fill="#3B251D"/>
<path d="M277.566 124.361C277.47 124.35 277.381 124.302 277.32 124.227C277.258 124.152 277.228 124.056 277.236 123.96C277.236 123.716 279.144 99.4497 279.158 99.0625C279.16 99.0154 279.171 98.9691 279.191 98.9263C279.211 98.8835 279.239 98.845 279.273 98.8131C279.308 98.7811 279.348 98.7563 279.393 98.74C279.437 98.7238 279.484 98.7164 279.531 98.7183C279.626 98.7183 279.717 98.7561 279.785 98.8233C279.852 98.8906 279.89 98.9818 279.89 99.0769C279.89 99.1916 278.685 114.752 277.953 124.017C277.952 124.065 277.94 124.113 277.919 124.157C277.899 124.2 277.87 124.24 277.833 124.272C277.797 124.304 277.755 124.328 277.709 124.344C277.663 124.359 277.615 124.365 277.566 124.361Z" fill="#3B251D"/>
<path d="M281.496 124.318C281.449 124.315 281.403 124.302 281.361 124.28C281.319 124.259 281.281 124.229 281.25 124.193C281.22 124.157 281.197 124.116 281.182 124.071C281.168 124.026 281.162 123.978 281.166 123.931C281.166 123.687 283.073 99.4069 283.088 99.034C283.105 98.9494 283.15 98.8732 283.217 98.8185C283.284 98.7638 283.367 98.7339 283.454 98.7339C283.54 98.7339 283.623 98.7638 283.69 98.8185C283.757 98.8732 283.802 98.9494 283.819 99.034C283.819 99.1487 282.615 114.709 281.883 123.988C281.879 124.036 281.867 124.082 281.845 124.124C281.824 124.166 281.794 124.203 281.758 124.234C281.722 124.265 281.68 124.288 281.635 124.302C281.59 124.317 281.543 124.322 281.496 124.318Z" fill="#3B251D"/>
<path d="M285.483 124.275C285.436 124.271 285.39 124.259 285.348 124.237C285.305 124.216 285.268 124.186 285.237 124.15C285.207 124.114 285.183 124.072 285.169 124.027C285.154 123.982 285.149 123.935 285.153 123.888C285.153 123.644 287.06 99.3636 287.075 98.9908C287.077 98.9437 287.088 98.8974 287.107 98.8546C287.127 98.8118 287.155 98.7733 287.19 98.7413C287.224 98.7094 287.265 98.6846 287.309 98.6683C287.354 98.652 287.401 98.6446 287.448 98.6465C287.543 98.6465 287.634 98.6843 287.701 98.7516C287.768 98.8188 287.806 98.91 287.806 99.0051C287.806 99.1198 286.601 114.681 285.87 123.945C285.866 123.992 285.854 124.038 285.832 124.08C285.811 124.123 285.781 124.16 285.745 124.191C285.709 124.221 285.667 124.245 285.622 124.259C285.577 124.274 285.53 124.279 285.483 124.275Z" fill="#3B251D"/>
<path d="M289.355 124.232C289.308 124.228 289.262 124.216 289.22 124.194C289.178 124.173 289.14 124.143 289.11 124.107C289.079 124.071 289.056 124.029 289.041 123.984C289.027 123.939 289.021 123.892 289.025 123.845C289.025 123.601 290.933 99.335 290.947 98.9477C290.954 98.8563 290.994 98.7707 291.061 98.7072C291.127 98.6437 291.214 98.6068 291.306 98.6035C291.401 98.6035 291.492 98.6413 291.559 98.7086C291.626 98.7758 291.664 98.867 291.664 98.9621C291.664 99.0768 290.445 114.637 289.728 123.902C289.721 123.995 289.678 124.081 289.608 124.142C289.539 124.204 289.448 124.236 289.355 124.232Z" fill="#3B251D"/>
<path d="M335.678 173.281C335.678 173.051 335.678 172.793 335.678 172.549L273.436 176.321C273.351 176.328 273.27 176.364 273.21 176.425C273.149 176.485 273.113 176.566 273.106 176.651L270.324 199.468C270.315 199.518 270.318 199.569 270.331 199.618C270.345 199.666 270.369 199.711 270.402 199.75C270.435 199.788 270.475 199.819 270.521 199.839C270.567 199.86 270.617 199.871 270.668 199.87L333.771 196.184L333.857 195.453L271.141 199.095L273.837 177.009L335.678 173.281Z" fill="#3B251D"/>
<path d="M219.812 227.234C219.812 228.668 216.858 229.902 213.215 229.902C209.573 229.902 206.618 228.711 206.618 227.234C206.618 225.757 209.573 224.566 213.215 224.566C216.858 224.566 219.812 225.771 219.812 227.234Z" fill="white"/>
<path d="M220.945 209.866C220.945 211.3 217.503 212.519 213.258 212.519C209.013 212.519 205.571 211.329 205.571 209.866C205.571 208.403 209.013 207.198 213.258 207.198C217.503 207.198 220.945 208.389 220.945 209.866Z" fill="white"/>
<path d="M225.994 219.905C225.647 221.693 224.847 223.362 223.67 224.753C222.624 226.005 221.39 227.089 220.013 227.965C219.55 228.276 219.071 228.563 218.579 228.826H218.464H208.038L207.722 228.654C206.022 227.72 204.486 226.514 203.176 225.083C202.414 224.259 201.772 223.332 201.269 222.329C200.767 221.301 200.47 220.186 200.394 219.045C200.328 218.085 200.385 217.121 200.566 216.176C200.651 215.689 200.776 215.209 200.939 214.742C201.915 212.064 203.852 209.846 206.374 208.518L219.138 208.059C220.629 208.686 221.983 209.597 223.125 210.741C223.489 211.102 223.825 211.49 224.129 211.903C225.126 213.204 225.773 214.74 226.008 216.363C226.008 216.607 226.008 216.836 226.108 217.066C226.206 218.013 226.168 218.969 225.994 219.905Z" fill="white"/>
<path d="M219.382 209.866C219.382 210.684 217.948 211.415 215.983 211.774L215.252 211.874C214.936 211.874 214.635 211.874 214.305 211.96H213.603H213.072H212.283C209.329 211.802 207.063 210.913 207.063 209.852C207.063 209.02 208.497 208.289 210.462 207.944L211.179 207.844C211.816 207.756 212.458 207.713 213.101 207.715H213.818C214.622 207.729 215.424 207.816 216.213 207.973L216.901 208.131C218.407 208.547 219.382 209.135 219.382 209.866Z" fill="#DEB9A0"/>
<path d="M223.455 190.849C222.494 197.016 218.823 202.322 216.901 208.159C216.508 209.34 216.201 210.548 215.983 211.773L215.252 211.874C215.462 210.558 215.783 209.263 216.213 208.002C218.149 202.15 221.791 196.829 222.752 190.648C222.824 190.189 223.513 190.39 223.455 190.849Z" fill="#AB7652"/>
<path d="M211.179 207.858C211.824 209.292 212.47 210.612 213.072 212.003H212.283C211.695 210.655 211.078 209.321 210.462 207.987C207.981 202.638 205.557 197.274 205.155 191.294C205.155 190.835 205.844 190.835 205.872 191.294C206.274 197.188 208.712 202.537 211.179 207.858Z" fill="#AB7652"/>
<path d="M214.305 212.003H213.603C213.43 210.569 213.258 209.135 213.101 207.701C212.699 204.173 212.326 200.635 211.982 197.088C211.982 196.629 212.67 196.629 212.713 197.088C213.058 200.625 213.426 204.168 213.818 207.715C213.975 209.135 214.133 210.569 214.305 212.003Z" fill="#AB7652"/>
<path d="M224.301 189.587C224.248 189.405 224.149 189.241 224.013 189.108C223.878 188.976 223.71 188.881 223.528 188.832C223.345 188.783 223.152 188.782 222.969 188.829C222.785 188.876 222.617 188.969 222.48 189.099C221.304 190.448 221.519 191.882 221.347 193.574C221.103 196.084 219.382 197.877 218.722 200.171C218.645 200.424 218.669 200.697 218.79 200.933C218.91 201.169 219.117 201.348 219.368 201.433C220.042 201.706 220.4 201.935 221.003 201.433C221.508 200.981 221.935 200.448 222.265 199.856C222.868 198.671 223.256 197.389 223.412 196.069C223.814 193.66 224.961 192.054 224.301 189.587Z" fill="#964A35"/>
<path d="M213.918 194.793C213.822 194.629 213.684 194.494 213.52 194.4C213.355 194.305 213.168 194.256 212.979 194.256C212.789 194.256 212.602 194.305 212.438 194.4C212.273 194.494 212.136 194.629 212.039 194.793C210.275 197.762 212.039 201.663 212.039 204.832C212.027 205.064 212.051 205.296 212.111 205.521C212.2 205.711 212.345 205.868 212.528 205.971C212.711 206.074 212.921 206.117 213.129 206.094C214.09 206.094 214.234 205.176 214.219 204.388C214.219 202.236 214.348 200.085 214.391 197.934C214.538 196.863 214.374 195.773 213.918 194.793Z" fill="#964A35"/>
<path d="M209.472 201.347C208.11 197.642 207.027 193.841 206.231 189.974C206.169 189.772 206.049 189.591 205.887 189.455C205.725 189.318 205.528 189.231 205.317 189.204C205.107 189.177 204.894 189.21 204.702 189.301C204.511 189.392 204.349 189.536 204.238 189.716C203.148 191.494 204.108 193.803 204.553 195.682C205.076 198.291 206.047 200.79 207.421 203.068C208.44 204.588 210.003 202.523 209.472 201.347Z" fill="#964A35"/>
<path d="M213.115 225.341C212.498 225.111 211.91 224.882 211.308 224.681C209.255 223.885 207.094 223.402 204.897 223.247C203.653 223.195 202.432 222.888 201.312 222.343C201.815 223.346 202.457 224.273 203.219 225.097H203.463C204.897 225.269 206.174 225.527 207.522 225.814L208.956 226.101C210.326 226.43 211.76 226.375 213.101 225.943C213.149 225.91 213.189 225.865 213.216 225.813C213.244 225.762 213.259 225.704 213.261 225.645C213.262 225.587 213.25 225.529 213.224 225.476C213.199 225.423 213.162 225.376 213.115 225.341Z" fill="#D5E2ED"/>
<path d="M207.048 216.879C204.998 216.435 202.517 216.248 200.968 214.857C200.805 215.324 200.68 215.804 200.595 216.291C201.355 216.621 202.215 216.822 202.918 217.18C203.979 217.697 206.661 219.532 207.923 218.414C208.812 217.611 207.766 217.051 207.048 216.879Z" fill="#D5E2ED"/>
<path d="M223.154 210.856C222.952 211.235 222.696 211.583 222.394 211.888C221.482 212.592 220.423 213.083 219.296 213.322C218.596 213.55 217.911 213.823 217.245 214.14C216.359 214.54 215.437 214.857 214.492 215.086C214.43 215.103 214.373 215.136 214.327 215.182C214.281 215.227 214.248 215.284 214.231 215.346C214.213 215.408 214.213 215.474 214.228 215.536C214.244 215.599 214.275 215.656 214.32 215.703C214.628 215.989 215.013 216.181 215.427 216.255C215.842 216.328 216.269 216.281 216.657 216.119C217.313 215.823 217.946 215.478 218.551 215.086C219.483 214.656 220.53 214.541 221.419 214.154C222.496 213.688 223.421 212.927 224.086 211.96C223.803 211.57 223.491 211.201 223.154 210.856Z" fill="#D5E2ED"/>
<path d="M226.137 217.18C224.87 217.659 223.559 218.01 222.222 218.227C220.518 218.802 218.855 219.492 217.245 220.293C216.398 220.684 215.514 220.991 214.607 221.21C213.562 221.298 212.513 221.322 211.466 221.282C210.72 221.282 210.318 221.641 210.376 222.415C210.377 222.478 210.393 222.539 210.423 222.594C210.453 222.649 210.496 222.696 210.548 222.731C212.427 223.62 215.022 223.017 216.987 222.645C219.72 221.975 222.407 221.132 225.033 220.12C225.32 220.034 225.65 219.977 225.994 219.905C226.166 219.008 226.215 218.091 226.137 217.18Z" fill="#D5E2ED"/>
<path d="M222.38 225.212C221.462 225.556 220.515 226.115 219.511 226.545C218.712 226.948 217.825 227.146 216.93 227.119C216.499 227.119 216.456 227.707 216.829 227.822C217.661 228.094 218.544 228.173 219.411 228.051C219.585 228.037 219.758 228.008 219.927 227.965C221.304 227.089 222.538 226.005 223.584 224.753L222.38 225.212Z" fill="#D5E2ED"/>
</g>
<defs>
<clipPath id="clip0">
<rect width="335.781" height="246.877" fill="white" transform="translate(0.414062 0.39209)"/>
</clipPath>
</defs>
</svg>
