<svg width="266" height="290" viewBox="0 0 266 290" fill="none" xmlns="http://www.w3.org/2000/svg">
<g clip-path="url(#clip0)">
<path d="M194.045 76.0812C189.786 75.2718 187.429 73.6922 183.517 71.7966C183.623 71.4949 183.733 71.1896 183.84 70.8843C183.914 70.6713 183.574 70.579 183.485 70.792L183.187 71.6439L182.864 71.4878C182.661 71.3884 182.48 71.6936 182.686 71.7966C182.81 71.8605 182.938 71.9173 183.066 71.9776L173.592 98.7822C172.062 103.102 170.855 107.82 167.497 111.135C165.92 112.608 164.198 113.916 162.356 115.04C160.376 116.318 158.375 117.566 156.354 118.785C151.778 121.558 151.224 122.122 146.492 124.614C146.453 124.639 146.425 124.678 146.414 124.723C146.403 124.768 146.409 124.815 146.432 124.855C147.068 126.247 145.914 127.844 146.553 129.236C146.879 129.946 147.199 131.295 148.204 131.256C148.789 131.234 148.935 129.981 149.623 129.694C151.09 129.097 163.972 125.313 169.761 122.949C171.941 122.058 174.103 121.061 175.587 119.158C177.294 116.968 178.302 114.188 179.491 111.703C182.076 106.237 184.631 100.756 187.017 95.1969C189.676 89.0096 192.114 82.73 194.152 76.3084C194.168 76.2641 194.166 76.2153 194.146 76.1727C194.126 76.1301 194.09 76.0972 194.045 76.0812V76.0812Z" fill="#F7A37A"/>
<path d="M254.08 171.638C253.874 169.995 253.509 168.376 252.99 166.803C251.925 163.726 249.99 161.376 247.736 159.09C246.578 157.968 245.483 156.783 244.456 155.54C243.309 154.053 242.425 152.381 241.843 150.595C240.725 147.287 240.115 143.801 239.273 140.414C238.515 137.127 237.477 133.911 236.171 130.801C235.777 129.91 235.34 129.026 234.872 128.185C235.649 127.159 234.872 125.313 233.693 124.813C232.376 124.245 230.853 124.813 229.614 125.335C227.892 126.101 226.112 126.729 224.29 127.213C220.572 128.118 216.713 128.288 212.93 127.713C209.32 127.173 205.749 126.162 202.075 126.201C199.281 126.229 196.704 126.985 195.685 129.832C195.274 131.119 195.077 132.464 195.1 133.815C195.071 135.64 195.135 137.468 195.235 139.292C195.64 146.731 196.914 154.096 199.033 161.237C199.569 163.041 200.158 164.833 200.808 166.601C201.372 168.152 201.873 169.828 202.789 171.216C204.35 173.633 207.013 174.056 209.697 173.942C211.202 173.878 212.707 173.694 214.219 173.726C215.937 173.787 217.626 174.187 219.189 174.904C221.989 176.118 224.613 177.808 227.708 178.156C234.176 178.866 240.566 174.499 246.955 176.736C249.05 177.446 252.731 179.221 254.055 176.281C254.673 174.879 254.282 173.087 254.08 171.638Z" fill="#565A94"/>
<path d="M202.639 56.1314C200.939 57.1289 199.217 58.1442 197.499 59.1914L197.521 58.8683C197.521 58.6376 197.166 58.6411 197.166 58.8683L197.134 59.415C187.255 65.4496 180.556 66.5536 172.974 83.511C172.325 84.9991 171.816 86.5439 171.451 88.1257C171.22 89.0948 170.848 90.2556 171.987 90.7562C172.84 91.0618 173.713 91.3085 174.6 91.4945L177.592 92.3216C179.012 92.705 183.339 94.0752 184.816 93.9616C186.087 93.9006 187.282 93.3376 188.139 92.3962C189.104 91.2957 189.559 89.8794 190.382 88.676C192.104 86.1095 192.633 84.6292 194.571 82.2863C196.768 79.6453 196.562 75.6944 196.747 72.4747C196.984 68.1771 197.227 63.8783 197.478 59.5783C199.253 58.5133 201.028 57.4484 202.803 56.4048C202.821 56.377 202.831 56.3447 202.831 56.3115C202.832 56.2784 202.823 56.2458 202.806 56.2173C202.789 56.1889 202.765 56.1658 202.735 56.1506C202.706 56.1354 202.672 56.1288 202.639 56.1314Z" fill="#F1B960"/>
<path d="M238.975 70.8985C238.542 67.3487 238.155 63.7386 237.357 60.2491C236.647 57.2034 235.582 54.1435 233.654 51.6586C231.56 48.9821 228.582 47.4237 225.291 46.735C221.464 45.9328 217.435 46.0002 213.548 46.0251C211.333 46.044 209.118 46.1174 206.903 46.2452C204.954 46.3552 202.98 46.4759 201.092 46.9942C197.833 47.8852 195.348 50.157 193.85 53.1495C192.193 56.4686 191.891 60.2101 192.132 63.8593C192.249 65.6342 192.487 67.3842 192.743 69.1378C191.252 74.214 192.775 80.1067 194.273 85.0835C195.522 89.2403 196.633 93.4326 197.503 97.6853C198.341 101.768 198.841 105.896 199.566 109.996C200.197 113.546 201.106 117.128 203.016 120.223C204.848 123.183 207.553 125.416 210.492 127.22C212.086 128.199 213.743 129.062 215.412 129.903C217.187 130.791 218.962 131.724 220.854 132.246C224.304 133.183 227.378 132.072 229.7 129.406C232.021 126.74 232.185 136.57 233.771 133.467C239.927 121.398 238.965 100.987 239.256 97.1599C239.575 92.9001 239.834 88.6404 239.863 84.3806C239.856 79.8722 239.559 75.3689 238.975 70.8985V70.8985Z" fill="#DE6B45"/>
<path d="M232.071 157.766C226.077 158.923 220.09 160.106 214.113 161.315C214.134 160.584 214.156 159.853 214.18 159.122C214.18 158.898 213.825 158.827 213.825 159.054C213.8 159.832 213.779 160.609 213.754 161.39L211.624 161.812C211.408 161.859 211.464 162.21 211.684 162.167L213.729 161.759C213.278 176.143 208.948 198.972 208.937 213.402C208.937 228.623 214.329 267.852 214.741 276.428C214.75 276.476 214.775 276.519 214.813 276.549C214.851 276.579 214.898 276.594 214.947 276.592C216.079 276.432 217.222 276.3 218.347 276.112C218.926 276.016 219.437 275.896 219.7 275.349C220.027 274.678 219.86 273.727 219.867 272.981C219.867 272.009 219.898 271.037 219.959 270.067C220.168 266.184 223.154 236.745 223.25 232.883C223.323 228.941 223.007 225.002 222.306 221.122C221.901 218.794 220.886 216.305 221.546 214.119C229.451 187.939 232.163 167.758 232.273 157.979C232.273 157.876 232.185 157.741 232.071 157.766Z" fill="#F7A37A"/>
<path d="M258.914 255.744C257.931 254.853 248.851 237.618 244.513 230.451C242.49 227.015 240.111 223.803 237.413 220.867C234.659 217.956 231.489 215.783 228.056 213.767C224.506 211.673 221.279 209.401 219.135 205.801C217.19 202.536 216.2 198.794 215.55 195.078C214.812 190.846 215.5 159.459 214.946 154.748C214.666 152.363 211.812 163.367 211.17 161.049C210.683 159.296 210.179 157.031 208.22 156.434C207.212 156.118 206.09 156.143 205.046 156.111C203.736 156.076 202.423 156.083 201.113 156.136C199.074 156.221 197.042 156.417 195.025 156.725C195.575 155.618 196.197 154.542 196.8 153.474C196.823 153.433 196.829 153.386 196.817 153.341C196.805 153.296 196.776 153.257 196.736 153.233C196.696 153.21 196.649 153.203 196.603 153.214C196.558 153.225 196.519 153.253 196.495 153.293C195.831 154.443 195.167 155.597 194.589 156.793C194.195 156.853 193.8 156.91 193.41 156.981C193.183 157.02 193.279 157.364 193.502 157.336C193.8 157.283 194.102 157.237 194.404 157.19C194.351 157.301 194.294 157.411 194.244 157.521C193.978 158.117 193.737 158.72 193.534 159.338L193.492 159.473L193.46 159.285C193.421 159.058 193.08 159.154 193.105 159.377C193.154 159.668 193.208 159.956 193.257 160.247C193.129 160.799 192.894 161.321 192.565 161.784C192.423 161.961 192.672 162.217 192.814 162.036C193.05 161.72 193.244 161.375 193.392 161.01C194.791 169.056 196.489 177.035 198.486 184.946C199.551 189.117 200.666 193.274 201.898 197.395C203.051 201.247 204.365 205.067 206.321 208.592C209.732 214.74 214.748 219.784 219.994 224.378C225.585 229.273 231.453 233.824 236.817 238.978C243.417 245.328 249.424 252.267 254.765 259.709C254.825 259.79 254.967 259.847 255.045 259.748C256.529 257.849 256.742 257.234 258.854 256.07C258.888 256.062 258.92 256.044 258.944 256.019C258.968 255.993 258.985 255.961 258.991 255.927C258.998 255.892 258.994 255.856 258.98 255.824C258.966 255.791 258.944 255.763 258.914 255.744Z" fill="#F7A37A"/>
<path d="M215.87 36.4904L204.51 38.4889C204.468 37.8677 204.425 37.25 204.379 36.6323C204.379 36.4051 204.024 36.3838 204.045 36.6323C204.091 37.2748 204.138 37.9209 204.18 38.5634L203.183 38.7374C202.973 38.7764 203.051 39.1208 203.264 39.0924L204.208 38.9255C204.627 44.9176 205.049 50.9108 205.472 56.9052C205.471 56.9314 205.476 56.9575 205.487 56.9816C205.497 57.0056 205.513 57.0271 205.533 57.0444C205.552 57.0617 205.575 57.0744 205.601 57.0817C205.626 57.0889 205.652 57.0905 205.678 57.0862L213.154 55.3895C213.75 55.2546 214.347 55.1268 214.929 54.9848C215.244 54.9593 215.544 54.8351 215.784 54.6298C216.281 54.0547 216.139 52.6987 216.196 51.9817C216.56 46.8983 216.517 41.7939 216.065 36.7176C216.072 36.6891 216.072 36.6594 216.065 36.631C216.058 36.6025 216.044 36.5761 216.025 36.5539C216.006 36.5317 215.982 36.5144 215.955 36.5034C215.928 36.4923 215.899 36.4879 215.87 36.4904V36.4904Z" fill="#F7A37A"/>
<path d="M233.161 130.432C231.247 126.016 223.427 116.943 221.091 116.524C218.415 116.027 215.547 116.62 212.874 116.879L192.64 118.899C192.423 118.92 192.416 119.275 192.64 119.254L192.995 119.218L192.973 119.311C187.69 134.567 186.571 150.956 189.732 166.789C189.738 166.811 189.748 166.832 189.762 166.85C189.776 166.869 189.793 166.884 189.813 166.895C189.833 166.907 189.855 166.915 189.878 166.918C189.9 166.921 189.923 166.919 189.945 166.913C192.604 166.09 195.309 167.041 198.011 166.857C200.495 166.686 202.774 165.579 205.206 165.17C210.069 164.35 214.947 165.731 219.817 165.71C221.699 165.734 223.57 165.424 225.344 164.794C226.026 164.809 226.709 164.783 227.389 164.716C231.368 164.329 235.589 162.657 239.419 164.62C239.446 164.635 239.476 164.642 239.506 164.642C239.537 164.642 239.567 164.633 239.593 164.618C239.62 164.603 239.642 164.581 239.657 164.554C239.673 164.528 239.681 164.498 239.682 164.467C239.852 153.513 237.584 140.616 233.161 130.432Z" fill="#421818"/>
<path d="M235.908 67.5687C235.046 65.0022 232.965 63.1811 230.718 61.7754C228.379 60.3622 225.961 59.0822 223.477 57.9416L221.965 57.2317C218.784 55.7195 215.55 54.3149 212.263 53.0181C210.847 53.3164 209.404 53.4651 207.957 53.4618C207.418 53.4618 206.892 53.4299 206.356 53.3837L206.388 53.3588C206.555 53.2026 206.303 52.9506 206.136 53.1068C204.162 54.9492 201.553 56.5927 198.895 58.2647C195.228 60.5756 191.472 62.9362 189.164 65.9251C187.334 68.2943 186.237 71.1472 186.009 74.1322C185.814 76.2621 189.104 100.401 189.764 107.291C190.119 111.025 189.999 114.745 189.843 118.487C189.728 120.295 189.72 122.109 189.818 123.918C189.899 125.036 190.318 125.558 191.475 125.548C195.306 125.523 199.15 125.281 202.984 125.15L214.311 124.752L225.82 124.355C226.689 124.323 227.559 124.305 228.425 124.262C229.013 124.281 229.596 124.146 230.115 123.868C231.034 123.283 231.18 122.094 231.237 121.139C231.592 113.709 231.893 106.304 232.657 98.885C233.42 91.4659 234.456 84.0291 235.77 76.6491C236.292 73.6602 236.884 70.4795 235.908 67.5687Z" fill="#F1B960"/>
<path d="M221.965 57.2212C218.784 55.709 215.55 54.3044 212.263 53.0076C210.847 53.3059 209.404 53.4547 207.957 53.4513C207.418 53.4513 206.892 53.4194 206.356 53.3732L206.388 53.3484C206.555 53.1922 206.303 52.9401 206.136 53.0963C204.163 54.9387 201.553 56.5822 198.895 58.2542C198.852 58.5879 198.813 58.9251 198.777 59.2623C198.582 61.1437 198.451 63.0961 198.912 64.942C199.622 67.7818 201.859 69.8514 204.567 70.8134C211.021 73.1101 217.105 68.6835 220.541 63.483C221.675 61.7164 222.662 59.8595 223.491 57.9311L221.965 57.2212Z" fill="#F7A37A"/>
<path d="M220.836 262.587C220.843 262.561 220.844 262.534 220.839 262.507C220.833 262.48 220.822 262.455 220.806 262.434C220.789 262.412 220.768 262.395 220.744 262.382C220.719 262.37 220.693 262.364 220.665 262.364L213.033 262.577C213.005 262.577 212.976 262.585 212.951 262.599C212.926 262.613 212.905 262.633 212.889 262.657C212.874 262.681 212.864 262.709 212.861 262.738C212.858 262.766 212.863 262.795 212.874 262.822C212.868 262.849 212.868 262.876 212.874 262.903C213.452 265.264 213.072 267.671 213.648 270.003C214.223 272.335 214.336 274.682 214.528 277.046C214.493 277.062 214.464 277.089 214.446 277.122C214.427 277.156 214.421 277.195 214.426 277.233C214.432 277.271 214.449 277.306 214.477 277.333C214.504 277.36 214.54 277.378 214.578 277.383C214.663 277.521 214.933 277.493 214.904 277.301L217.29 276.591C217.9 276.41 218.624 276.293 219.171 275.942C220.236 275.257 219.703 273.812 219.774 272.747C219.884 271.178 220.694 269.698 220.591 268.114C220.538 267.255 220.332 266.425 220.364 265.559C220.432 264.556 220.59 263.562 220.836 262.587V262.587Z" fill="#421818"/>
<path d="M254.857 247.998C254.848 247.973 254.834 247.95 254.814 247.931C254.795 247.913 254.771 247.9 254.745 247.892C254.72 247.885 254.692 247.884 254.666 247.889C254.64 247.895 254.615 247.906 254.595 247.923L249.089 253.248C249.068 253.27 249.052 253.296 249.043 253.324C249.033 253.353 249.029 253.383 249.032 253.413C249.035 253.443 249.045 253.472 249.06 253.498C249.075 253.524 249.096 253.547 249.121 253.564C249.132 253.589 249.149 253.611 249.17 253.628C251.023 255.215 252.195 257.49 254.037 259.066C255.88 260.642 257.371 262.527 258.94 264.391C258.861 264.565 259.05 264.746 259.177 264.639C259.214 264.65 259.254 264.649 259.29 264.636C259.326 264.622 259.358 264.598 259.379 264.566C259.4 264.534 259.411 264.496 259.409 264.457C259.407 264.419 259.393 264.382 259.369 264.352L260.707 262.151C261.116 261.592 261.45 260.982 261.701 260.337C262.056 259.052 260.807 258.207 260.228 257.266C259.358 255.875 259.067 254.072 258.034 252.829C257.474 252.148 256.824 251.59 256.32 250.841C255.753 249.936 255.264 248.985 254.857 247.998V247.998Z" fill="#421818"/>
<path d="M220.428 272.708C220.226 272.548 219.988 272.441 219.735 272.395C219.481 272.349 219.221 272.366 218.976 272.445C218.608 272.587 218.252 272.756 217.911 272.953C217.251 273.214 216.516 273.214 215.855 272.953C215.842 272.913 215.818 272.877 215.785 272.85C214.595 271.991 213.907 273.496 213.637 274.373C213.367 275.25 213.143 276.148 212.607 276.907C211.991 277.728 211.232 278.431 210.367 278.984C208.983 279.928 204.265 281.394 203.073 282.587C202.64 282.999 202.334 283.526 202.192 284.106C202.054 284.717 201.94 285.746 202.192 286.368C202.341 286.723 202.597 286.779 202.952 286.772C203.966 286.705 204.973 286.564 205.966 286.35C208.007 286.027 213.136 284.873 215.131 284.394C216.09 284.167 217.048 283.925 217.996 283.652C218.678 283.509 219.312 283.195 219.838 282.74C220.864 281.693 220.605 279.733 220.648 278.324L220.758 274.614C220.776 274.028 220.967 273.194 220.428 272.708Z" fill="#FDF5F0"/>
<path d="M238.123 179.497C236.852 176.519 233.178 175.177 230.711 173.463C229.083 172.311 227.803 170.734 227.009 168.905C226.233 167.104 225.23 165.41 224.023 163.864C221.095 160.314 216.512 158.465 213.914 154.635C211.542 151.131 211.113 146.779 210.911 142.626C211.311 142.715 211.728 142.693 212.117 142.562C213.217 142.109 214.285 141.581 215.312 140.982C217.537 139.796 219.622 138.363 221.528 136.712C222.478 135.881 223.469 135.099 224.499 134.369C225.688 133.602 226.971 132.99 228.315 132.548C230.197 131.88 232.195 131.011 232.848 128.955C232.855 128.929 232.856 128.902 232.851 128.875C232.846 128.848 232.835 128.823 232.818 128.802C232.802 128.78 232.78 128.763 232.756 128.75C232.732 128.738 232.705 128.732 232.678 128.732C231.181 128.617 229.71 128.281 228.312 127.734C227.574 127.439 226.861 127.082 226.182 126.669C225.713 126.389 225.209 125.878 224.684 125.722C223.775 125.459 222.635 126.566 221.954 127.024C220.857 127.763 219.796 128.551 218.759 129.378C215.178 132.281 212.049 135.701 209.476 139.527C209.244 139.724 209.052 139.966 208.912 140.237C208.067 139.239 207.265 138.203 206.335 137.276C205.038 136.046 203.61 134.964 202.075 134.049C199.338 132.328 196.346 130.762 194.266 128.249C194.312 128.134 194.349 128.015 194.376 127.894C194.384 127.857 194.38 127.817 194.366 127.782C194.351 127.746 194.326 127.716 194.294 127.695C194.331 127.686 194.363 127.665 194.386 127.636C194.41 127.606 194.422 127.57 194.422 127.532C194.408 126.76 194.111 126.019 193.588 125.451C193.064 124.883 192.35 124.527 191.582 124.451C189.967 124.284 188.767 125.59 188.632 127.127C188.586 127.572 188.642 128.022 188.795 128.443C188.948 128.863 189.195 129.244 189.516 129.555C189.285 129.784 189.078 130.035 188.898 130.304C187.833 131.898 188.611 133.854 189.992 134.962C190.916 135.635 191.959 136.129 193.066 136.417C194.379 136.832 195.685 137.234 196.97 137.77C199.434 138.81 201.585 140.254 203.775 141.724C204.507 142.226 205.311 142.611 206.161 142.867C205.902 147.482 203.076 151.926 204.237 156.619C205.302 160.907 209.611 162.895 213.335 164.428C213.639 164.937 213.916 165.46 214.166 165.997C215.11 168.074 215.586 170.325 216.015 172.55C216.214 173.58 216.402 174.613 216.622 175.639C216.828 176.611 217.002 177.666 217.545 178.518C218.276 179.668 219.533 180.101 220.836 180.19C222.586 180.307 224.332 179.906 226.079 180.108C228.045 180.332 229.842 181.276 231.68 181.929C233.217 182.472 234.9 182.866 236.494 182.327C237.797 181.925 238.712 180.878 238.123 179.497ZM193.85 127.72C193.669 127.472 193.495 127.22 193.332 126.953C193.215 126.758 192.906 126.953 193.027 127.131C193.147 127.308 193.3 127.56 193.442 127.766C192.116 127.927 190.863 128.464 189.832 129.314C189.547 129.079 189.323 128.779 189.178 128.439C189.033 128.099 188.973 127.73 189.001 127.362C189.04 126.034 189.977 124.777 191.394 124.823C192.107 124.851 192.783 125.15 193.283 125.66C193.783 126.169 194.07 126.85 194.085 127.564C194.083 127.592 194.089 127.62 194.102 127.645C194.115 127.67 194.135 127.691 194.159 127.706L193.85 127.72Z" fill="#565A94"/>
<path d="M257.704 253.898C257.467 253.997 257.259 254.154 257.097 254.353C256.934 254.552 256.824 254.788 256.774 255.041C256.723 255.43 256.701 255.823 256.71 256.216C256.52 257.227 256.071 258.173 255.408 258.96C255.369 258.946 255.326 258.946 255.287 258.96C253.959 259.584 254.932 260.916 255.585 261.572C256.238 262.229 256.898 262.857 257.31 263.702C257.731 264.638 257.982 265.642 258.052 266.666C258.212 268.338 257.743 274.966 258.212 276.584C258.364 277.162 258.68 277.683 259.121 278.086C259.589 278.501 260.438 279.101 261.098 279.183C261.495 279.236 261.655 279.027 261.808 278.714C262.23 277.794 262.585 276.845 262.873 275.874C263.583 273.929 264.513 267.089 265.056 265.108C265.315 264.156 265.567 263.202 265.784 262.24C265.988 261.574 266.018 260.868 265.872 260.188C265.446 258.768 259.511 254.526 259.511 254.526C259.028 254.228 258.389 253.66 257.704 253.898Z" fill="#FDF5F0"/>
<path d="M229.426 100.394C228.798 98.2808 228.287 96.1346 227.896 93.9651C226.249 84.8954 226.697 75.7298 228.127 66.7098C228.386 65.0804 229.121 61.8643 229.064 59.5108L229.007 59.4895C227.304 58.847 225.578 58.247 223.896 57.5442C223.828 60.3095 223.945 75.8399 223.896 83.0743C223.86 87.1637 223.789 91.2673 224.251 95.3424C224.687 99.2472 225.71 103.053 226.902 106.801C228.322 111.267 229.842 115.704 231.318 120.152C231.325 120.199 231.35 120.242 231.388 120.27C231.426 120.299 231.474 120.311 231.521 120.305C231.568 120.298 231.61 120.273 231.639 120.235C231.668 120.197 231.68 120.149 231.673 120.102C231.879 117.712 232.085 115.323 232.291 112.935C232.483 110.71 232.404 108.718 231.645 106.588C230.885 104.522 230.051 102.499 229.426 100.394Z" fill="#DE6B45"/>
<path d="M194.511 70.6855C195.646 66.5465 196.974 62.4642 198.447 58.4316C197.354 59.1839 196.208 59.8565 195.018 60.4444C190.293 75.7085 185.65 91.4306 186.744 107.571C187.028 111.739 187.482 116.166 189.527 119.886C189.543 119.913 189.565 119.936 189.593 119.951C189.62 119.967 189.651 119.975 189.683 119.975C189.714 119.975 189.745 119.967 189.773 119.951C189.8 119.936 189.823 119.913 189.839 119.886C191.429 116.371 190.595 112.431 190.315 108.739C190.004 104.515 189.968 100.274 190.208 96.0453C190.739 87.4633 192.181 78.9622 194.511 70.6855V70.6855Z" fill="#DE6B45"/>
<path d="M224.822 94.6218C213.019 95.5576 201.17 95.7591 189.342 95.2253V94.668C189.342 94.6209 189.323 94.5757 189.29 94.5424C189.257 94.5091 189.212 94.4905 189.164 94.4905C189.117 94.4905 189.072 94.5091 189.039 94.5424C189.006 94.5757 188.987 94.6209 188.987 94.668C188.955 94.6634 188.922 94.6676 188.892 94.6801C188.862 94.6926 188.836 94.7129 188.817 94.7389L187.315 96.7339C187.226 96.8511 187.35 96.9895 187.471 97.0002C199.895 98.09 212.394 96.9789 224.804 96.205C224.851 96.2041 224.896 96.1851 224.929 96.152C224.962 96.1189 224.981 96.0743 224.982 96.0275C224.982 95.6158 224.982 95.204 225 94.7958C224.999 94.7493 224.98 94.705 224.946 94.6725C224.913 94.64 224.869 94.6218 224.822 94.6218Z" fill="#DE6B45"/>
<path d="M235.894 126.641C235.924 125.564 235.857 124.486 235.692 123.421C235.406 121.411 234.593 119.513 233.335 117.919L233.186 117.752C232.865 117.81 232.535 117.795 232.221 117.708C231.907 117.62 231.616 117.463 231.372 117.248C230.882 116.84 230.495 115.257 229.898 114.99C229.082 116.172 227.527 118.27 226.164 118.782C224.581 119.378 222.721 119.452 221.319 120.464C220.275 121.213 219.782 122.36 219.629 123.627C216.541 124.049 213.378 123.954 210.261 123.911L198.983 123.758C198.459 122.736 197.714 121.843 196.8 121.146C195.512 120.081 194.049 119.19 192.959 117.901C191.947 116.705 191.301 114.863 189.541 114.738C189.541 114.682 189.566 114.625 189.58 114.568C189.633 114.348 189.289 114.252 189.225 114.476C188.277 118.503 187.652 122.599 187.354 126.726C187.283 127.753 187.231 128.781 187.198 129.811C187.173 130.624 186.985 131.682 187.276 132.463C187.766 133.783 189.495 133.275 190.499 133.045C192.537 132.576 194.592 132.15 196.619 131.625C198.039 131.27 198.958 130.56 199.246 129.076C199.296 128.81 199.342 128.529 199.381 128.245C203.404 128.468 207.442 128.495 211.496 128.327C213.683 128.231 215.87 128.086 218.049 127.862C218.706 127.794 219.359 127.709 220.005 127.596C220.138 128.094 220.302 128.584 220.495 129.062C221.123 130.609 222.376 131.224 223.988 131.341C226.091 131.439 228.198 131.228 230.239 130.712C231.325 130.467 232.401 130.173 233.473 129.86C234.183 129.658 235.355 129.591 235.699 128.87C235.976 128.299 235.88 127.269 235.894 126.641Z" fill="#DE6B45"/>
<path d="M220.995 20.7221C220.384 19.7012 219.929 18.5944 219.647 17.4386C219.448 16.5564 219.097 15.7155 218.61 14.9537C217.609 13.5324 216.2 12.4482 214.57 11.8441C210.375 10.2041 205.696 11.6808 201.759 13.3456C197.89 14.9785 193.651 18.0456 193.896 22.6816C193.864 22.6967 193.837 22.7212 193.819 22.752C193.8 22.7827 193.792 22.8183 193.794 22.8539C193.796 22.8896 193.809 22.9238 193.832 22.952C193.854 22.9801 193.884 23.0009 193.918 23.0117C193.918 23.0756 193.918 23.136 193.935 23.2034C193.964 23.4271 194.319 23.4271 194.29 23.2034V23.104C198.972 24.3003 203.459 26.6787 207.474 29.3233C209.579 30.6639 211.35 32.4682 212.65 34.5983C213.86 36.6181 214.698 38.8296 215.525 41.0269C215.533 41.053 215.546 41.077 215.564 41.0972C215.582 41.1174 215.604 41.1333 215.629 41.1435C215.654 41.1538 215.681 41.1582 215.708 41.1565C215.735 41.1547 215.761 41.1469 215.784 41.1334C217.158 40.3418 217.676 38.9042 218.031 37.4381C218.227 36.6394 218.386 35.83 218.599 35.042C218.941 33.9612 219.457 32.9433 220.126 32.0282C221.326 30.2853 222.302 28.6169 222.472 26.4621C222.639 24.3749 222.039 22.497 220.995 20.7221Z" fill="#782C2C"/>
<path d="M217.712 32.5679C217.379 34.3394 216.849 36.0682 216.132 37.7222C215.34 39.3968 214.456 41.0263 213.484 42.6032C211.954 45.191 208.912 47.2995 206.193 48.2828C202.782 49.5395 199.856 50.4127 197.602 47.8568C194.816 44.7082 193.669 36.8916 193.509 30.2357C193.509 30.1824 193.509 30.1292 193.509 30.0795C193.509 29.4796 193.509 28.8903 193.509 28.3046V28.2336C193.5 26.1799 193.632 24.1281 193.903 22.0924C197.453 20.6725 200.535 19.1922 204.152 17.9179L205.66 17.3889L206.527 17.1582C206.67 17.1869 206.814 17.2083 206.96 17.2221C209.214 17.4105 211.449 17.7893 213.64 18.3545C215.387 18.8302 217.048 19.5898 218.741 20.2181C218.781 20.6548 218.812 21.0914 218.834 21.5174C219.001 25.2482 218.457 28.9471 217.712 32.5679Z" fill="#F7A37A"/>
<path d="M197.052 32.9974C197.052 33.8068 196.719 34.467 196.289 34.4706C195.86 34.4741 195.508 33.821 195.498 33.0152C195.487 32.2094 195.831 31.5456 196.261 31.542C196.69 31.5385 197.042 32.1881 197.052 32.9974Z" fill="#421818"/>
<path d="M206.026 33.1571C206.005 33.9664 205.643 34.6125 205.213 34.6018C204.783 34.5912 204.453 33.9274 204.475 33.118C204.496 32.3087 204.858 31.6626 205.284 31.6732C205.71 31.6839 206.044 32.3477 206.026 33.1571Z" fill="#421818"/>
<path d="M197.94 37.6192C197.854 36.8383 198.216 36.0822 198.525 35.3865C198.861 34.5811 199.284 33.8146 199.785 33.1004C199.92 32.9193 200.219 33.1004 200.084 33.2921C199.491 34.139 199.004 35.0558 198.635 36.0218C198.37 36.5389 198.27 37.125 198.348 37.7009C198.543 38.67 199.459 39.0782 200.375 38.7658C200.591 38.6913 200.666 39.0356 200.453 39.1208C200.19 39.2281 199.906 39.2727 199.623 39.2513C199.34 39.2298 199.065 39.1429 198.822 38.9973C198.578 38.8516 198.371 38.6513 198.218 38.4122C198.065 38.173 197.97 37.9016 197.94 37.6192Z" fill="#D38262"/>
<path d="M249.398 141.579C249.007 130.457 249.284 114.43 247.577 110.67C243.203 101.026 230.537 85.8858 230.165 83.2731C230.133 83.0459 234.329 75.6659 236.508 73.6035C236.59 73.5254 238.109 72.5385 238.17 72.6308C238.17 72.6308 254.836 102.197 257.314 107.241C259.195 111.068 254.474 131.313 254.765 139.236C253.065 140.12 251.023 140.57 249.398 141.579Z" fill="#F7A37A"/>
<path d="M201.926 44.0905C201.407 44.3273 200.827 44.3932 200.268 44.2787C200.221 44.2688 200.172 44.278 200.132 44.3043C200.092 44.3306 200.064 44.3718 200.054 44.4189C200.044 44.466 200.053 44.515 200.079 44.5553C200.106 44.5956 200.147 44.6238 200.194 44.6337C200.814 44.7637 201.46 44.6954 202.04 44.4384C202.253 44.3355 202.136 43.9982 201.926 44.0905Z" fill="#D38262"/>
<path d="M220.517 23.711C220.289 22.4756 219.565 21.3681 218.915 20.3174C218.405 19.3981 217.706 18.5972 216.864 17.9674C214.887 16.6398 211.894 16.6327 209.597 16.7214C206.53 16.8385 203.637 17.7544 200.673 18.4644C199.089 18.8344 197.482 19.0953 195.863 19.2453C195.121 20.0298 194.514 21.1019 193.889 21.9645C193.999 22.6744 194.716 22.6105 195.341 22.7454C196.623 23.0258 197.943 22.8732 199.246 22.7454C200.611 22.5987 201.984 22.53 203.357 22.5395C204.72 22.5395 206.136 22.5395 207.45 22.9407C208.147 23.1407 208.787 23.506 209.313 24.0056C209.903 24.602 209.927 25.2658 210.208 25.9899C210.595 26.991 211.766 27.2607 212.277 28.1588C212.948 29.3374 212.313 30.5905 212.487 31.8223C212.583 32.5109 213.25 32.7203 213.875 32.6387C214.433 32.5371 214.955 32.2925 215.39 31.9287C215.617 32.0438 215.823 32.1948 216.001 32.376C216.225 32.6032 216.399 32.912 216.711 33.0647C217.226 33.3309 217.758 33.0647 218.174 32.7381C218.62 32.3999 218.954 31.9343 219.131 31.4026C219.308 30.871 219.319 30.2982 219.164 29.7598C219.814 29.0498 220.105 28.0453 220.318 27.1223C220.618 26.011 220.686 24.8497 220.517 23.711V23.711Z" fill="#782C2C"/>
<path d="M216.672 30.1575C216.278 29.9667 215.827 29.9282 215.407 30.0494C214.986 30.1706 214.625 30.443 214.393 30.8143C213.46 32.2342 213.594 33.7642 214.297 34.751L213.36 38.0807C213.353 38.1115 213.355 38.1434 213.365 38.1734C213.374 38.2033 213.392 38.2301 213.415 38.2511C213.439 38.272 213.467 38.2863 213.498 38.2926C213.529 38.2988 213.561 38.2968 213.591 38.2866C215.909 37.5305 217.851 35.4006 218.021 32.898C218.088 31.8331 217.701 30.6439 216.672 30.1575Z" fill="#F7A37A"/>
<path d="M216.505 31.1798C216.008 31.2814 215.564 31.5571 215.252 31.9572C214.847 32.4755 214.666 33.4197 213.832 33.3771C213.601 33.3771 213.626 33.7321 213.853 33.7321C214.073 33.7351 214.289 33.681 214.482 33.5753C214.674 33.4695 214.835 33.3155 214.95 33.1286C215.163 32.834 215.28 32.479 215.504 32.1915C215.779 31.8428 216.169 31.6036 216.605 31.517C216.842 31.4638 216.729 31.1265 216.505 31.1798Z" fill="#D38262"/>
<path d="M213.459 37.4487C213.357 37.4201 213.263 37.3679 213.185 37.2964C213.107 37.2249 213.046 37.136 213.009 37.0369C212.923 36.8275 212.586 36.9411 212.671 37.1541C212.731 37.3092 212.827 37.4481 212.95 37.5596C213.073 37.6712 213.221 37.7523 213.381 37.7966C213.612 37.8569 213.679 37.5091 213.459 37.4487Z" fill="#D38262"/>
<path d="M263.881 17.5026C263.546 16.8309 263.122 16.2075 262.62 15.6495C261.293 13.2534 259.426 11.2655 256.472 10.8964C251.95 10.3284 247.974 13.0937 243.718 14.0592C241.422 14.6238 239.002 14.3651 236.877 13.328C235.031 12.4406 233.381 11.1981 231.553 10.261C229.975 9.43431 228.245 8.9386 226.468 8.80431C224.692 8.67002 222.907 8.89995 221.223 9.48C219.38 10.1125 217.706 11.1593 216.331 12.5399C215 13.8782 213.676 15.7347 211.784 16.182C211.735 16.0262 211.697 15.8673 211.67 15.7064C211.635 15.4827 211.294 15.575 211.315 15.7987C211.339 15.9499 211.374 16.0993 211.418 16.2459C211.209 16.2795 210.998 16.2949 210.786 16.2921C210.559 16.2921 210.559 16.6471 210.786 16.6471C211.037 16.65 211.288 16.631 211.535 16.5903C211.825 17.2881 212.333 17.8732 212.983 18.2573C213.634 18.6414 214.391 18.8038 215.142 18.7201C216.292 18.6172 217.353 18.1202 218.465 17.8469C220.002 17.5227 221.595 17.575 223.108 17.9995C225.77 18.6491 228.298 19.6857 230.995 20.2252C233.48 20.7187 236.011 21.0665 238.393 21.9469C240.629 22.774 242.82 24.1052 244.137 26.1463C245.28 27.9212 245.457 30.076 247.537 31.0805C248.256 31.4305 249.053 31.5919 249.851 31.5497C250.65 31.5075 251.424 31.263 252.102 30.8391C252.398 30.6241 252.741 30.4838 253.103 30.43C253.464 30.3762 253.834 30.4106 254.179 30.5303C254.575 30.6577 254.985 30.7364 255.4 30.7646C256.273 30.7828 257.134 30.5566 257.885 30.1114C259.532 29.1636 260.604 27.3639 260.349 25.447C260.317 25.2092 260.278 24.9749 260.235 24.7371C260.846 23.5104 261.69 22.4144 262.72 21.5103C263.348 20.9849 263.952 20.5128 264.14 19.6821C264.302 18.9472 264.21 18.1791 263.881 17.5026V17.5026Z" fill="#782C2C"/>
<path d="M249.973 90.3444C249.664 89.315 249.348 88.289 249.018 87.2667C246.714 80.1671 243.608 73.1669 238.422 67.6931C236.371 65.5074 233.996 63.6515 231.379 62.1909C231.24 62.491 231.034 62.7548 230.775 62.9612C230.323 65.6804 229.875 68.4019 229.43 71.1258C228.997 73.7562 228.248 76.5712 228.66 79.2442C229.071 81.9172 230.502 84.4517 231.556 86.894C232.739 89.6557 233.93 92.4163 235.127 95.1757C235.142 95.2033 235.164 95.2262 235.191 95.2419C235.218 95.2576 235.249 95.2654 235.28 95.2644C239.593 94.9698 243.906 94.6929 248.219 94.3876C249.444 94.2989 250.512 93.9332 250.473 92.5133C250.399 91.772 250.231 91.0432 249.973 90.3444V90.3444Z" fill="#F1B960"/>
<path d="M211.315 174.308C209.728 184.193 208.806 194.174 208.557 204.183C208.557 204.41 208.912 204.41 208.912 204.183C209.16 194.206 210.078 184.257 211.66 174.404C211.695 174.18 211.351 174.084 211.315 174.308Z" fill="#D38262"/>
<path d="M208.142 28.8298C208.121 28.8113 208.098 28.7947 208.074 28.7801C208.062 28.7772 208.048 28.7772 208.035 28.7801C207.351 28.3558 206.587 28.0764 205.79 27.9592C204.993 27.842 204.181 27.8894 203.403 28.0986C203.185 28.1236 202.978 28.2066 202.803 28.3389C202.628 28.4713 202.492 28.6482 202.409 28.8512C202.333 29.0285 202.318 29.2259 202.364 29.413C202.411 29.6002 202.518 29.7669 202.668 29.8877C203.194 30.2427 204.07 29.9836 204.628 29.9268C205.086 29.8806 207.02 30.1682 207.528 30.1894C208.156 30.193 208.799 29.3339 208.142 28.8298Z" fill="#782C2C"/>
<path d="M197.865 28.876C197.792 28.6764 197.667 28.5001 197.503 28.3652C197.339 28.2304 197.141 28.142 196.931 28.1092C195.799 27.7833 194.592 27.8356 193.492 28.2583V28.3293C193.492 28.9044 193.492 29.4937 193.492 30.1042C194.253 29.9766 195.024 29.9208 195.796 29.9374C196.314 29.9977 197.137 30.2923 197.624 29.9374C197.773 29.8102 197.877 29.6381 197.921 29.4468C197.964 29.2555 197.945 29.0552 197.865 28.876Z" fill="#782C2C"/>
<path d="M152.495 125.707C152.3 124.642 152.051 123.577 151.76 122.548C151.754 122.521 151.741 122.497 151.722 122.477C151.704 122.457 151.68 122.442 151.654 122.434C151.662 122.4 151.66 122.365 151.649 122.332C151.638 122.299 151.618 122.27 151.59 122.248C151.563 122.226 151.531 122.212 151.496 122.208C151.461 122.204 151.426 122.21 151.395 122.225C149.57 123.19 147.909 122.552 146.45 121.309C145.669 120.645 144.82 119.95 143.727 120.077C142.428 120.23 141.086 121.327 140.128 122.157C139.638 122.556 139.233 123.048 138.936 123.605C138.64 124.162 138.458 124.773 138.402 125.402C138.182 128.313 140.433 131.043 142.41 132.928C143.188 133.669 144.217 134.347 145.346 134.12C145.995 133.925 146.591 133.586 147.092 133.13L149.382 131.355L151.807 129.481C152.236 129.151 152.786 128.863 152.847 128.27C152.91 127.482 152.637 126.47 152.495 125.707Z" fill="#F7A37A"/>
<path d="M147.66 130.418C147.486 130.418 147.305 130.418 147.142 130.439C148.505 129.779 149.698 128.814 149.02 127.539C148.601 126.748 147.465 126.79 146.709 126.829H146.613C147.128 126.456 147.976 125.839 147.557 125.125C147.46 124.975 147.33 124.848 147.177 124.754C147.024 124.66 146.852 124.601 146.674 124.582C146.751 124.464 146.802 124.331 146.823 124.192C146.843 124.052 146.834 123.91 146.794 123.775C146.754 123.64 146.685 123.515 146.592 123.409C146.499 123.303 146.384 123.219 146.255 123.162C145.232 122.64 143.692 122.96 142.652 123.269C142.187 123.407 141.735 123.586 141.303 123.805C141.271 123.695 141.235 123.585 141.21 123.471C141.161 123.251 140.82 123.343 140.855 123.567C140.884 123.705 140.926 123.84 140.965 123.975C140.209 124.4 139.522 124.938 138.928 125.569C138.772 125.732 139.02 125.984 139.18 125.818C139.735 125.229 140.373 124.725 141.076 124.323C141.308 124.953 141.591 125.563 141.92 126.148L141.338 126.524C141.303 126.55 141.278 126.588 141.269 126.631C141.26 126.674 141.267 126.719 141.289 126.757C141.311 126.795 141.347 126.823 141.388 126.836C141.43 126.85 141.476 126.847 141.516 126.829C141.718 126.723 141.92 126.623 142.123 126.524C142.41 127.056 142.701 127.589 142.943 128.146C143.688 129.861 143.983 131.724 144.27 133.556C144.284 133.601 144.314 133.64 144.355 133.663C144.396 133.686 144.445 133.692 144.49 133.68C145.489 133.351 146.455 132.931 147.376 132.424C147.859 132.154 148.878 131.696 148.796 130.982C148.771 130.39 148.104 130.418 147.66 130.418Z" fill="#F7A37A"/>
<path d="M252.39 148.781C254.247 147.965 256.622 146.399 256.462 144.11C256.232 141.571 255.532 139.098 254.399 136.815C254.424 136.798 254.445 136.776 254.459 136.749C254.473 136.723 254.48 136.694 254.48 136.664C254.48 136.634 254.473 136.605 254.459 136.578C254.445 136.552 254.424 136.529 254.399 136.513C253.334 135.924 252.27 136.481 251.471 137.223C250.179 138.43 248.986 139.772 247.769 141.06C247.35 141.478 247.02 141.977 246.8 142.526C246.58 143.075 246.473 143.664 246.487 144.255C246.466 145.569 246.419 147.095 246.813 148.355C247.541 150.776 250.818 149.459 252.39 148.781Z" fill="#F7A37A"/>
<path d="M148.051 110.024C146.858 109.645 146.901 108.324 146.233 107.54C145.353 107.696 144.458 107.816 143.564 108.051C143.241 108.132 142.932 108.232 142.623 108.328C142.751 108.836 142.807 109.359 142.79 109.882C142.719 110.947 142.023 111.448 141.388 112.215C140.799 112.969 140.504 113.911 140.557 114.866C140.634 116.055 140.811 117.236 141.086 118.395C141.377 119.95 141.679 121.504 142.002 123.056C142.634 126.094 143.354 129.119 144.277 132.086C145.144 134.877 146.105 137.883 147.596 140.414C148.029 141.153 148.619 141.664 149.517 141.561C150.168 141.446 150.81 141.284 151.437 141.075C152.131 140.914 152.815 140.714 153.486 140.475C154.355 140.12 155.09 139.562 155.26 138.597C155.459 137.418 155.087 136.034 154.934 134.866C154.129 128.64 153.057 122.457 151.718 116.318C151.363 114.753 151.157 113.028 150.585 111.53C150.113 110.301 149.148 110.376 148.051 110.024Z" fill="#B5D4E8"/>
<path d="M146.9 105.331C146.357 104.838 145.516 105.158 144.902 105.296C144.288 105.434 143.731 105.566 143.145 105.704C142.559 105.843 141.885 105.889 141.391 106.137C141.274 106.189 141.178 106.278 141.118 106.391C141.058 106.503 141.038 106.633 141.061 106.758C141.093 107.468 141.143 108.533 141.611 109.055C142.08 109.577 142.928 109.243 143.493 109.144C144.476 108.974 145.672 108.81 146.585 108.391C147.206 108.107 147.348 107.536 147.348 106.89C147.348 106.379 147.305 105.704 146.9 105.331Z" fill="#421818"/>
<path d="M148.821 122.662C148.42 121.458 146.624 121.632 145.683 121.87C144.114 122.271 142.794 123.29 141.651 124.397C142.374 123.367 143.26 122.46 144.274 121.714C144.75 121.359 146.493 120.333 145.208 119.754C144.061 119.236 142.542 120.202 141.658 120.848C140.393 121.792 139.33 122.981 138.534 124.344C138.512 124.381 138.506 124.425 138.517 124.466C138.527 124.507 138.554 124.543 138.591 124.564C138.628 124.586 138.671 124.592 138.713 124.581C138.754 124.571 138.789 124.544 138.811 124.507C138.903 124.348 139.01 124.195 139.109 124.042C139.585 124.639 140.036 125.249 140.476 125.871C140.486 125.906 140.507 125.937 140.536 125.959C140.891 126.463 141.234 126.975 141.566 127.493C141.463 127.624 141.363 127.756 141.264 127.894C141.164 128.032 141.424 128.221 141.541 128.054C142.69 126.449 144.26 125.194 146.077 124.426C146.787 124.124 147.639 124.046 148.324 123.695C148.525 123.62 148.688 123.471 148.781 123.278C148.873 123.086 148.888 122.865 148.821 122.662V122.662Z" fill="#F7A37A"/>
<path d="M147.38 127.571L147.433 127.532C147.813 127.248 149.322 125.988 148.395 125.533C147.976 125.324 147.203 125.533 146.777 125.647C144.912 126.063 143.256 127.129 142.105 128.654C142.073 128.655 142.043 128.667 142.019 128.687C141.995 128.708 141.979 128.736 141.974 128.767C141.974 128.792 141.974 128.821 141.974 128.845C141.903 128.948 141.828 129.048 141.761 129.154C141.693 129.261 141.789 129.385 141.903 129.385C141.863 129.81 141.889 130.239 141.981 130.656C142.055 131.011 142.194 131.646 142.517 131.884C142.639 132.069 142.821 132.207 143.032 132.275C143.242 132.343 143.47 132.338 143.678 132.26C144.07 132.064 144.43 131.808 144.743 131.501L146.29 130.269C146.805 129.861 147.355 129.47 147.838 129.041C147.962 128.961 148.069 128.857 148.153 128.735C148.236 128.613 148.295 128.475 148.324 128.331C148.363 127.752 147.856 127.585 147.38 127.571Z" fill="#F7A37A"/>
<path d="M202.657 41.9321C202.657 41.9321 202.352 42.0457 202.302 42.0848C201.653 42.1416 201.202 41.0198 200.528 41.1476C200.38 41.1888 200.251 41.2763 200.157 41.3972C200.064 41.5181 200.012 41.6658 200.009 41.8185C199.761 41.5132 199.431 41.2115 199.086 41.3073C198.87 41.3677 198.774 41.6623 198.749 41.8717C198.732 41.9824 198.745 42.0957 198.786 42.1998C198.827 42.304 198.895 42.3954 198.983 42.4646C198.995 42.4677 199.007 42.4677 199.019 42.4646C199.374 42.8586 200.006 42.8764 200.517 42.8764C201.357 42.9074 202.184 42.6576 202.867 42.1664C202.898 42.1386 202.917 42.0996 202.919 42.058C202.921 42.0164 202.907 41.9756 202.879 41.9445C202.852 41.9135 202.813 41.8947 202.771 41.8924C202.729 41.89 202.689 41.9043 202.657 41.9321V41.9321Z" fill="#D38262"/>
<path d="M215.387 18.894C214.883 21.141 214.162 23.8637 211.631 24.5204C211.584 24.5326 211.544 24.5631 211.519 24.605C211.495 24.6469 211.488 24.6969 211.5 24.744C211.512 24.7911 211.543 24.8314 211.585 24.856C211.626 24.8807 211.676 24.8876 211.724 24.8754C214.389 24.1654 215.195 21.3788 215.728 19.0005C215.784 18.7662 215.44 18.6703 215.387 18.894Z" fill="#421818"/>
<path d="M216.48 25.4859C216.291 26.224 215.95 26.9142 215.477 27.5117C215.004 28.1092 214.411 28.6005 213.736 28.954C213.534 29.064 213.711 29.3694 213.914 29.2629C214.629 28.8852 215.257 28.3623 215.758 27.7278C216.259 27.0933 216.623 26.3612 216.824 25.5782C216.837 25.5325 216.83 25.4838 216.807 25.4429C216.783 25.402 216.744 25.3721 216.698 25.3598C216.653 25.3476 216.604 25.354 216.563 25.3776C216.522 25.4013 216.492 25.4402 216.48 25.4859V25.4859Z" fill="#421818"/>
<path d="M254.761 16.7713C254.552 16.6826 254.46 17.0269 254.669 17.1263C255.536 17.4777 256.27 18.0954 256.763 18.8902C257.257 19.6851 257.486 20.6161 257.417 21.5493C257.417 21.7801 257.772 21.7765 257.772 21.5493C257.842 20.5365 257.588 19.5275 257.047 18.6684C256.506 17.8094 255.705 17.145 254.761 16.7713V16.7713Z" fill="#421818"/>
<path d="M252.862 23.0118C252.838 22.9722 252.799 22.9438 252.754 22.9326C252.709 22.9215 252.661 22.9286 252.621 22.9523C252.581 22.9761 252.552 23.0146 252.54 23.0596C252.528 23.1046 252.534 23.1524 252.557 23.1929C253.009 23.9039 253.233 24.7362 253.199 25.5782C253.165 26.4201 252.874 27.2315 252.365 27.9034C252.234 28.0916 252.539 28.2584 252.674 28.0845C253.215 27.357 253.522 26.4829 253.555 25.5774C253.589 24.6718 253.347 23.7773 252.862 23.0118V23.0118Z" fill="#421818"/>
<path d="M103.845 52.0703C103.81 51.0551 103.771 50.0008 103.348 49.0601C102.574 47.3384 100.76 46.4759 99.0388 45.986C96.6657 45.3694 94.246 44.9479 91.8042 44.7258C80.7502 43.4585 69.5896 44.7542 58.674 46.5823C54.5775 47.2674 49.26 47.5088 46.8674 51.4633C45.6711 53.4441 45.2665 55.8118 44.7375 58.034C44.1483 60.604 43.5566 63.1729 42.9626 65.7406C42.7453 66.2149 42.6247 66.7278 42.6077 67.2492L40.9463 74.4837C40.8966 74.7038 41.2374 74.7997 41.3013 74.576L42.7212 68.3994C42.8763 69.1371 43.1535 69.8437 43.5412 70.4902C44.8227 72.6449 46.7928 74.2211 47.6696 76.6349C48.5464 79.0488 48.5465 81.6792 48.3619 84.2066C48.1631 86.8512 47.8152 89.4887 47.5028 92.1227C46.1658 103.397 44.482 114.62 42.4515 125.793C41.9332 128.647 41.3889 131.495 40.8186 134.337C40.5807 135.53 40.247 136.733 40.1086 137.94C40.0163 138.692 40.1548 139.36 40.7938 139.846C41.4327 140.332 42.345 140.425 43.1401 140.524C44.5459 140.697 45.9539 140.852 47.3644 140.989C50.1296 141.259 52.9021 141.472 55.6745 141.667C66.6789 142.441 77.6832 143.045 88.4888 145.512C92.3936 146.406 97.2781 147.255 100.203 143.737C102.652 140.769 102.5 136.389 102.276 132.779C101.566 121.419 101.456 110.06 101.527 98.7005C101.563 92.9675 101.559 87.2275 101.747 81.4981C101.935 75.7688 102.589 70.1778 103.203 64.5159C103.504 61.7648 103.76 59.0031 103.852 56.2342C103.891 54.8356 103.898 53.4512 103.845 52.0703Z" fill="#DBAF9D"/>
<path d="M84.7828 17.9213C84.5272 17.609 84.2644 17.3001 83.9875 17.0055C83.8526 16.86 83.7178 16.7179 83.5793 16.5795C83.7249 15.9334 83.8136 15.2768 83.913 14.62C84.0018 14.0379 84.0621 13.477 84.0976 12.9445C84.3177 9.51541 83.4801 7.03409 81.9039 4.90421C80.1348 2.53635 77.5623 0.895467 74.6693 0.289477C71.4745 -0.370785 68.2798 0.392453 65.3974 1.74138C64.73 2.05021 64.0733 2.39098 63.4308 2.74951C62.4084 3.31747 61.4144 3.94222 60.4525 4.59538C60.1614 4.79417 59.881 5.0001 59.6005 5.21309L58.9757 5.12785L58.6562 5.08526C56.1252 4.79417 53.6865 3.73282 48.77 7.16547C42.9803 10.8218 40.4955 17.9107 43.8572 24.027C45.8663 27.6833 50.0124 32.0495 53.5622 34.0871C57.751 36.4903 64.2117 37.4026 69.0607 37.5162C79.0001 37.7541 85.9506 33.5866 86.9801 29.4511C88.0095 25.3156 87.5729 21.3682 84.7828 17.9213Z" fill="#DBAF9D"/>
<path d="M127.963 264.859C124.253 256.851 119.035 249.01 116.096 240.689C114.654 236.599 113.307 232.479 112.052 228.328C110.86 224.377 110.057 220.246 108.148 216.568C105.506 211.442 99.1985 204.318 98.8222 204.144C98.2897 203.92 98.2082 203.92 98.1301 203.306C97.9846 202.184 98.0662 200.981 98.02 199.848C97.6651 191.07 94.9779 182.312 93.5012 173.651C93.1462 171.581 92.9473 169.128 91.6339 167.393C90.4837 165.877 91.0375 167.059 89.9335 167.868C86.5083 170.367 82.7645 172.397 78.8014 173.903C78.6381 172.795 78.4712 171.689 78.3008 170.584C78.2653 170.36 77.921 170.453 77.9458 170.68C78.1198 171.794 78.3008 172.909 78.457 174.027C78.1339 174.148 77.8109 174.272 77.4879 174.382C77.2714 174.457 77.3637 174.801 77.5803 174.737C77.8927 174.627 78.2015 174.514 78.5104 174.382C79.483 180.857 80.4166 187.342 81.5596 193.789C82.17 197.477 83.0468 201.115 84.1829 204.676C85.3168 208.036 86.6893 211.31 88.29 214.474C91.6055 221.129 95.5422 227.473 99.5996 233.696C103.817 240.163 108.165 246.542 112.468 252.95L119.738 263.77L121.601 266.549C121.889 266.975 122.233 267.777 122.819 267.88C123.504 268.001 124.338 267.22 124.871 266.9L127.874 265.072C127.911 265.052 127.939 265.02 127.955 264.981C127.972 264.943 127.974 264.9 127.963 264.859V264.859Z" fill="#F7A37A"/>
<path d="M48.0708 78.3105L31.7913 79.7908C32.0966 78.6939 32.4019 77.5934 32.6966 76.493C32.7093 76.4459 32.7027 76.3957 32.6784 76.3535C32.6541 76.3112 32.614 76.2803 32.5669 76.2676C32.5199 76.2549 32.4697 76.2614 32.4274 76.2857C32.3851 76.31 32.3543 76.3501 32.3416 76.3971C32.0328 77.5437 31.7204 78.6832 31.4009 79.8263L30.4743 79.9115C30.2471 79.9115 30.2471 80.2664 30.4743 80.2664L31.298 80.1884C26.4632 97.4723 29.8602 94.3876 22.6648 110.82C20.4745 115.821 8.74601 140.812 6.3357 145.714C6.32142 145.741 6.31421 145.772 6.31472 145.803C6.31523 145.833 6.32347 145.864 6.33864 145.89C6.35382 145.917 6.37558 145.94 6.40173 145.956C6.42789 145.973 6.45763 145.982 6.4884 145.984L12.2213 146.626C12.2523 146.626 12.2827 146.618 12.3095 146.602C12.3363 146.587 12.3585 146.564 12.374 146.538C18.2903 137.781 24.2066 129.012 30.123 120.23C32.9806 115.999 35.9304 111.803 38.3763 107.312C40.5706 103.204 42.3906 98.9071 43.8145 94.4727C45.5468 89.2368 46.8886 83.8837 48.2233 78.5377C48.2301 78.5126 48.2315 78.4864 48.2273 78.4608C48.2231 78.4352 48.2133 78.4108 48.1989 78.3892C48.1844 78.3677 48.1655 78.3495 48.1434 78.3359C48.1213 78.3223 48.0965 78.3137 48.0708 78.3105Z" fill="#F7A37A"/>
<path d="M99.0177 70.6535L87.4026 82.1583C86.9412 81.1147 86.4737 80.0746 86.0004 79.0381C85.9793 78.9981 85.944 78.9677 85.9012 78.953C85.8585 78.9383 85.8117 78.9404 85.7706 78.959C85.7294 78.9775 85.6969 79.0111 85.6796 79.0528C85.6623 79.0946 85.6615 79.1413 85.6775 79.1836C86.1674 80.2604 86.6536 81.3407 87.1364 82.4245L86.4725 83.0777C86.3128 83.2375 86.5365 83.5144 86.6998 83.3511L87.2891 82.7689C94.5591 99.1761 95.2121 94.6288 100.125 111.877C101.62 117.127 108.478 143.868 109.749 149.175C109.755 149.205 109.769 149.234 109.789 149.257C109.809 149.281 109.835 149.299 109.864 149.31C109.893 149.321 109.924 149.324 109.955 149.32C109.986 149.316 110.015 149.304 110.04 149.285L114.867 146.129C114.891 146.11 114.91 146.085 114.921 146.056C114.932 146.027 114.936 145.996 114.931 145.966C113.911 135.437 112.891 124.906 111.871 114.373C111.382 109.293 110.988 104.178 110.015 99.1583C109.092 94.5919 107.76 90.1177 106.036 85.7898C104.041 80.6497 101.666 75.6693 99.291 70.696C99.2773 70.6735 99.2588 70.6543 99.2369 70.6397C99.215 70.625 99.1901 70.6153 99.1641 70.6113C99.1381 70.6072 99.1116 70.6089 99.0863 70.6162C99.061 70.6235 99.0375 70.6362 99.0177 70.6535Z" fill="#F7A37A"/>
<path d="M81.375 19.8845L81.4603 19.7851C81.4922 19.6928 81.5241 19.604 81.5525 19.5153C82.4257 16.7003 80.4875 14.4072 78.8262 12.1246C78.6064 11.9169 78.399 11.6964 78.205 11.4644C77.0158 10.009 75.8373 8.75234 74.1511 7.87199C72.6569 7.10371 71.0262 6.63692 69.3518 6.49822C67.4988 6.36392 65.6371 6.57945 63.8638 7.1336C62.723 7.44049 61.545 7.58625 60.3638 7.56667C59.3956 7.598 58.4488 7.85964 57.6019 8.32988C55.8275 9.29816 54.2961 10.6565 53.1229 12.3026C51.9497 13.9486 51.1654 15.8395 50.8291 17.8327C50.8234 17.8637 50.8255 17.8956 50.8353 17.9255C50.8451 17.9554 50.8622 17.9824 50.8852 18.0039C50.9082 18.0255 50.9362 18.0409 50.9667 18.0488C50.9972 18.0568 51.0292 18.0569 51.0598 18.0492C55.7881 19.8241 61.0418 18.9438 65.9157 19.8241C67.1156 20.0147 68.2677 20.4341 69.3093 21.0595C70.4666 21.7943 70.9245 22.8344 71.4392 24.0377C71.7161 24.6696 71.9929 25.3831 72.742 25.5109C72.8406 25.5292 72.9401 25.5422 73.0401 25.55C72.7305 28.4791 72.8033 31.436 73.2566 34.3464C73.269 34.3914 73.2989 34.4297 73.3394 34.453C73.38 34.4763 73.4281 34.4826 73.4732 34.4706C74.3926 34.1973 74.5097 33.3347 74.5877 32.4969C74.6257 32.1361 74.697 31.7796 74.8008 31.432C75.532 30.4309 76.2597 29.4263 76.9307 28.3933C77.3499 27.7661 77.6429 27.0632 77.7933 26.3238C77.9815 25.4044 78.0559 24.4815 78.5813 23.6757C79.3551 22.4865 80.5728 21.6665 81.1656 20.3495C81.2428 20.1979 81.3127 20.0428 81.375 19.8845V19.8845Z" fill="#421818"/>
<path d="M117.618 241.2L108.296 246.972C108.276 246.983 108.259 246.998 108.246 247.017C108.233 247.036 108.224 247.058 108.221 247.08C108.217 247.103 108.219 247.126 108.226 247.148C108.233 247.17 108.245 247.19 108.261 247.206C108.247 247.23 108.239 247.258 108.239 247.286C108.239 247.314 108.247 247.342 108.261 247.366C109.461 250.046 110.679 252.762 112.485 255.101C113.462 256.361 114.484 257.525 115.247 258.935C115.911 260.166 116.482 261.462 117.317 262.594C118.151 263.727 119.379 264.593 120.316 265.693C121.179 266.747 121.938 267.881 122.584 269.08C123.937 271.448 125.176 273.911 127.306 275.69C127.48 275.835 127.7 275.555 127.522 275.409C126.934 274.911 126.396 274.356 125.918 273.752C127.297 272.649 128.608 271.464 129.844 270.202C129.863 270.178 129.876 270.149 129.88 270.118C129.884 270.088 129.88 270.056 129.869 270.028C128.626 267.759 128.165 265.214 127.331 262.79C126.922 261.596 126.38 260.451 125.715 259.378C124.966 258.164 124.175 256.996 123.738 255.626C123.351 254.409 123.174 253.141 122.744 251.924C122.315 250.706 121.583 249.553 121.072 248.335C120.061 245.928 119.471 243.344 117.877 241.235C117.863 241.216 117.845 241.199 117.824 241.186C117.803 241.174 117.78 241.166 117.755 241.162C117.731 241.159 117.707 241.161 117.683 241.167C117.659 241.174 117.637 241.185 117.618 241.2V241.2Z" fill="#FDF5F0"/>
<path d="M128.772 266.918C128.517 266.889 128.258 266.923 128.019 267.017C127.781 267.111 127.568 267.263 127.402 267.458C127.166 267.773 126.955 268.105 126.77 268.452C126.351 269.025 125.728 269.415 125.03 269.542C124.997 269.514 124.956 269.498 124.913 269.495C123.451 269.389 123.664 271.032 123.894 271.92C124.125 272.807 124.413 273.695 124.359 274.618C124.271 275.64 123.999 276.638 123.557 277.564C122.879 279.098 119.652 282.832 119.266 284.476C119.116 285.053 119.135 285.662 119.322 286.229C119.528 286.818 119.975 287.756 120.511 288.153C120.831 288.391 121.072 288.288 121.37 288.096C122.195 287.503 122.975 286.852 123.706 286.148C125.265 284.792 129.013 281.103 130.451 279.644C131.143 278.934 131.832 278.224 132.489 277.514C132.987 277.031 133.353 276.429 133.553 275.764C133.873 274.344 132.62 272.807 131.91 271.59L130.043 268.395C129.78 267.855 129.503 267.046 128.772 266.918Z" fill="#421818"/>
<path d="M73.7038 31.2188C69.9197 31.9004 64.3608 32.5855 60.5696 33.267L60.4311 31.4105C60.4133 31.1869 60.0761 31.1656 60.0974 31.4105C60.1436 32.0566 60.1933 32.6991 60.243 33.3452L59.2455 33.5227C59.0325 33.5617 59.1142 33.9096 59.3271 33.8776L60.2678 33.7072C60.7198 39.6969 61.1694 45.6866 61.6167 51.6763C61.6158 51.7029 61.621 51.7295 61.6316 51.754C61.6422 51.7785 61.658 51.8003 61.678 51.8179C61.698 51.8356 61.7216 51.8486 61.7472 51.856C61.7728 51.8634 61.7999 51.8651 61.8262 51.8609C64.3111 51.2823 68.5708 50.7072 71.0557 50.1286C71.6521 49.9901 72.2484 49.8588 72.8306 49.7168C73.1451 49.6879 73.4434 49.5641 73.686 49.3618C74.1794 48.7832 74.041 47.4272 74.0836 46.7101C74.4271 41.625 74.3606 36.5205 73.8848 31.446C73.899 31.2827 73.821 31.1975 73.7038 31.2188Z" fill="#F7A37A"/>
<path d="M74.8148 27.2857C74.4891 29.0595 73.9677 30.7918 73.2601 32.4506C72.4758 34.1268 71.6 35.7586 70.6367 37.3387C69.1174 39.9372 66.0823 42.0563 63.3702 43.068C59.966 44.3389 57.0445 45.1979 54.7762 42.6811C51.8866 39.4544 50.7224 31.2543 50.5875 24.4707C50.5875 23.7252 50.5697 22.994 50.5875 22.2876C50.5921 20.501 50.7107 18.7166 50.9425 16.9451C54.4923 15.5252 57.5628 14.0165 61.1694 12.7244L62.6781 12.1884L63.5442 11.9541C63.6827 11.979 63.8283 12.0002 63.9774 12.0144C66.2325 12.1923 68.4684 12.5604 70.6615 13.1148C72.408 13.5834 74.073 14.3396 75.7733 14.9572C75.8159 15.3938 75.8443 15.8305 75.8692 16.2565C76.0715 19.9553 75.5461 23.6613 74.8148 27.2857Z" fill="#F7A37A"/>
<path d="M54.4534 27.7508C54.4534 28.5601 54.1267 29.2204 53.6972 29.2275C53.2676 29.2346 52.9128 28.5814 52.9021 27.7756C52.8915 26.9698 53.2252 26.306 53.6547 26.2989C54.0842 26.2918 54.4428 26.9414 54.4534 27.7508Z" fill="#421818"/>
<path d="M63.5302 27.7933C63.5302 28.6026 63.154 29.2522 62.7281 29.2416C62.3021 29.2309 61.9647 28.5706 61.9789 27.7648C61.9931 26.959 62.3552 26.3059 62.7848 26.3165C63.2143 26.3272 63.548 26.9875 63.5302 27.7933Z" fill="#421818"/>
<path d="M55.0675 32.4293C54.9787 31.6483 55.3373 30.8887 55.6426 30.1929C55.9749 29.3867 56.3937 28.619 56.8919 27.9033C57.0233 27.7187 57.3251 27.9033 57.1902 28.0914C56.6085 28.9432 56.1317 29.8622 55.7703 30.8283C55.5073 31.3461 55.4094 31.9322 55.4899 32.5073C55.6922 33.4764 56.6045 33.8776 57.5239 33.551C57.7369 33.4765 57.8149 33.8243 57.6019 33.906C57.3397 34.0163 57.0555 34.0642 56.7716 34.0459C56.4877 34.0275 56.212 33.9434 55.9662 33.8002C55.7204 33.657 55.5112 33.4586 55.3552 33.2206C55.1992 32.9827 55.1007 32.7118 55.0675 32.4293V32.4293Z" fill="#D38262"/>
<path d="M59.8739 24.5099C60.213 24.5714 60.5611 24.5617 60.8962 24.4814C61.52 24.4023 62.1488 24.3691 62.7775 24.3821C63.8212 24.4176 64.7655 24.9678 65.7843 24.9891C66.2174 24.9891 66.874 24.8471 66.8953 24.3004C66.9166 23.7537 66.1534 23.168 65.7203 22.9018C64.893 22.4192 63.9581 22.1514 63.0008 22.1229C62.0434 22.0944 61.094 22.306 60.2395 22.7385C60.2187 22.7501 60.2007 22.7658 60.1862 22.7847C59.8606 22.9323 59.5986 23.1917 59.4479 23.5159C59.396 23.6069 59.3659 23.7087 59.36 23.8133C59.354 23.918 59.3724 24.0225 59.4137 24.1188C59.455 24.2151 59.5179 24.3005 59.5978 24.3684C59.6776 24.4362 59.7722 24.4847 59.8739 24.5099V24.5099Z" fill="#421818"/>
<path d="M54.7268 22.7101C53.4449 22.0601 51.9672 21.9096 50.5806 22.2876C50.5806 22.9976 50.5806 23.7076 50.5806 24.4708C51.0061 24.405 51.4353 24.3659 51.8656 24.3536C52.9093 24.3323 53.8818 24.8257 54.9006 24.7867C55.3337 24.7867 55.9656 24.5808 55.9656 24.0377C55.9656 23.4946 55.1705 22.9514 54.7268 22.7101Z" fill="#421818"/>
<path d="M64.2259 163.591C58.1557 164.216 49.9558 165.224 43.8927 165.898C43.9815 165.188 44.0666 164.446 44.1553 163.719C44.1837 163.498 43.8323 163.396 43.8003 163.619C43.7057 164.393 43.6122 165.167 43.5199 165.941L41.39 166.175C41.1699 166.2 41.1948 166.555 41.4184 166.53L43.4951 166.303C41.7734 180.591 41.4824 202.592 40.201 216.969C38.8449 232.127 36.8641 271.679 36.5198 280.258C36.5241 280.307 36.546 280.352 36.5813 280.385C36.6166 280.419 36.6629 280.438 36.7115 280.439C37.851 280.383 39.0045 280.354 40.1405 280.265C40.7226 280.219 41.2445 280.145 41.5604 279.623C41.9438 278.981 41.8587 278.022 41.9332 277.277C42.0255 276.307 42.1427 275.346 42.2882 274.384C42.842 270.536 52.3127 241.473 52.7494 237.636C53.1702 233.716 53.2024 229.763 52.8452 225.836C52.65 223.479 51.8584 220.913 52.7104 218.794C62.8912 193.413 63.4698 173.548 64.4247 163.818C64.4247 163.719 64.3501 163.577 64.2259 163.591Z" fill="#F7A37A"/>
<path d="M61.5246 35.9968H61.1199C59.1959 35.9968 55.9905 36.1459 55.2237 36.2276C55.1659 36.2297 55.1087 36.2393 55.0533 36.256C54.9042 36.3199 54.9042 36.4618 55.071 36.721C55.6709 37.8675 56.7927 38.9503 58.1665 38.968C59.8101 38.9929 60.8749 37.5481 61.6452 36.2843C61.7091 36.1814 61.6808 36.0004 61.5246 35.9968Z" fill="#D38262"/>
<path d="M55.2236 36.2241C55.9797 36.9552 56.9805 37.379 58.0316 37.4133C59.3344 37.4133 60.3282 36.7886 61.1198 35.9934C59.1958 35.9863 56.001 36.1425 55.2236 36.2241Z" fill="white"/>
<path d="M105.318 175.987C105.112 174.524 104.836 173.072 104.608 171.617C104.129 168.738 103.692 165.848 103.149 162.98C102.91 161.617 102.565 160.275 102.116 158.965C101.761 157.978 101.357 156.949 100.572 156.225C100.136 155.828 99.6168 155.532 99.0528 155.359C98.9889 154.965 98.9287 154.567 98.8613 154.17C98.3672 151.025 97.5742 147.934 96.4934 144.94C95.4498 142.1 94.2181 139.335 93.5295 136.389C92.6385 132.573 92.9828 126.73 88.5313 125.054C87.1114 124.518 85.5318 124.543 84.0409 124.649C80.9355 124.865 77.889 125.605 75.0313 126.84C74.665 126.541 74.2222 126.352 73.7534 126.293C72.2518 126.055 70.6262 126.236 69.1104 126.257C61.2535 126.383 53.4096 126.785 45.5788 127.464C45.6711 127.003 45.7669 126.541 45.8592 126.08C45.9054 125.856 45.561 125.761 45.5043 125.984L45.1954 127.496L44.6416 127.543C44.4144 127.564 44.4144 127.919 44.6416 127.897L45.1208 127.858C43.2927 136.875 41.422 145.884 39.7003 154.922C39.5015 155.955 39.3098 156.992 39.1181 158.028C39.0968 158.152 39.072 158.273 39.0507 158.383C39.0507 158.383 39.0507 158.383 39.0507 158.404C38.1242 158.781 37.1018 158.916 36.2108 159.377C35.0962 159.949 34.5105 160.996 34.1307 162.149C33.9035 162.859 33.6941 163.541 33.4953 164.244C33.4598 164.368 33.4243 164.492 33.3923 164.599C32.6468 167.283 32.054 170.023 31.3583 172.703C30.9039 174.453 30.4353 176.207 30.1549 177.996C29.9419 179.373 29.6331 181.045 30.02 182.415C30.3217 183.498 31.234 183.768 32.2563 183.761C33.3532 183.761 34.4501 183.697 35.547 183.64C35.1306 188.693 34.973 193.764 35.0748 198.833C38.7244 197.969 42.454 197.486 46.2035 197.392C51.4714 197.179 56.7536 197.413 62.0108 196.987C62.5646 196.941 62.9656 196.909 63.317 196.87C66.0681 185.883 66.9946 177.666 69.0322 166.523C70.0297 173.953 73.8884 191.996 74.1902 195.003C75.9793 194.743 77.7706 194.506 79.5644 194.293C87.7751 193.292 96.0321 192.685 104.186 191.432L102.535 179.799C102.695 179.771 102.858 179.746 103.018 179.714C103.842 179.543 104.654 179.27 105.087 178.496C105.521 177.722 105.435 176.824 105.318 175.987Z" fill="#DE6B45"/>
<path d="M100.019 62.521C96.2735 55.3682 88.3788 51.8397 80.8497 49.5856C80.232 49.401 79.6108 49.2211 78.986 49.046C78.3613 48.8709 77.7247 48.6993 77.0763 48.5312C76.5124 49.3754 75.6434 49.9683 74.6517 50.1855C72.5219 50.6008 70.5197 51.2753 68.4786 51.8681C67.6886 52.4606 66.7358 52.7963 65.7488 52.83C65.0389 52.8549 64.3289 52.9259 63.6189 52.9508C61.7517 53.0147 60.1046 51.7509 59.4124 50.1109C58.8409 50.3239 58.2659 50.5227 57.6872 50.7144C53.8819 51.971 49.9132 52.9188 46.3563 54.7079C42.9663 56.4083 40.3216 58.9676 38.142 61.9672C35.682 65.3537 33.6267 69.0668 31.6247 72.7054C29.2392 77.0574 27.0536 81.503 25.0681 86.042C25.0552 86.0775 25.0545 86.1163 25.066 86.1523C25.0776 86.1883 25.1009 86.2194 25.1321 86.2407C27.9116 87.7849 40.6198 89.7905 40.7831 89.7621C39.3631 98.3278 38.0852 126.68 37.1445 136.73C36.6298 142.189 36.541 147.688 37.3681 153.119C37.3821 153.164 37.4127 153.202 37.4536 153.225C37.4945 153.248 37.5426 153.254 37.5883 153.243C46.264 150.467 53.0476 151.404 62.0818 152.317C64.3573 152.547 66.647 152.796 68.9331 152.622C71.0452 152.462 73.1075 151.951 75.1629 151.461C79.7031 150.396 84.2255 150.041 88.8828 150.08C91.1618 150.08 93.4408 150.151 95.7233 150.141C96.2415 150.141 96.7883 150.165 97.3385 150.165C97.4592 147.155 97.9739 144.131 97.9703 141.128C97.9703 139.921 95.521 128.703 95.2016 125.864C94.5555 120.134 96.38 114.699 96.8912 109.048C97.2462 105.143 96.8911 101.217 96.5823 97.2984C96.167 93.2764 95.8723 89.8012 95.8723 89.2261C98.9287 89.2261 104.115 86.9791 107.164 86.7413C107.202 86.7344 107.236 86.7154 107.262 86.6872C107.287 86.659 107.303 86.6231 107.306 86.5851C107.267 81.4485 102.148 66.5678 100.019 62.521Z" fill="#421818"/>
<path d="M49.0328 249.798L38.1135 248.804C38.0908 248.801 38.0678 248.803 38.0461 248.811C38.0244 248.818 38.0046 248.83 37.9882 248.846C37.9718 248.862 37.9592 248.882 37.9514 248.903C37.9436 248.925 37.9408 248.948 37.9431 248.97C37.9165 248.979 37.8927 248.994 37.874 249.015C37.8552 249.035 37.8424 249.06 37.8367 249.088C37.1835 251.952 36.5232 254.852 36.5658 257.809C36.5871 259.403 36.7044 260.947 36.4665 262.534C36.2571 263.919 35.934 265.296 35.9198 266.702C35.9056 268.107 36.367 269.542 36.4558 270.983C36.5091 272.343 36.4343 273.705 36.2322 275.051C35.8772 277.756 35.398 280.468 36.0334 283.173C36.0831 283.393 36.4274 283.301 36.3884 283.077C36.2174 282.325 36.1211 281.558 36.1008 280.787C37.8621 280.74 39.6189 280.586 41.3615 280.326C41.3912 280.318 41.4184 280.302 41.4402 280.28C41.462 280.258 41.4777 280.231 41.4858 280.202C41.8585 277.642 43.0159 275.331 43.811 272.892C44.2019 271.692 44.4566 270.451 44.5706 269.194C44.6984 267.774 44.7695 266.354 45.2452 265.008C45.664 263.801 46.2924 262.673 46.6651 261.459C47.0378 260.245 47.1619 258.867 47.4849 257.586C48.1239 255.051 49.2066 252.616 49.2137 249.982C49.2142 249.958 49.21 249.934 49.2011 249.912C49.1922 249.889 49.1789 249.869 49.1621 249.852C49.1452 249.835 49.125 249.821 49.1028 249.812C49.0806 249.802 49.0569 249.798 49.0328 249.798Z" fill="#FDF5F0"/>
<path d="M42.5119 277.06C42.3247 276.885 42.0977 276.757 41.8503 276.689C41.6029 276.621 41.3425 276.614 41.092 276.67C40.7151 276.778 40.3471 276.916 39.9915 277.081C39.3117 277.288 38.5785 277.226 37.9432 276.907C37.9361 276.866 37.9148 276.828 37.8829 276.801C36.7754 275.839 35.9554 277.28 35.6111 278.125C35.2668 278.97 34.9615 279.847 34.3616 280.56C33.6758 281.325 32.8582 281.959 31.9478 282.434C30.4817 283.251 25.6575 284.295 24.3618 285.377C23.8981 285.746 23.5484 286.238 23.3535 286.797C23.1619 287.394 22.956 288.412 23.1442 289.051C23.2613 289.435 23.4991 289.495 23.8541 289.523C24.8694 289.544 25.8849 289.492 26.8928 289.367C28.9516 289.222 34.1628 288.529 36.1933 288.228C37.1695 288.082 38.1456 287.926 39.1111 287.738C39.8035 287.658 40.4636 287.401 41.028 286.992C42.1426 286.038 42.061 284.064 42.2243 282.665L42.6609 278.981C42.7284 278.405 42.9946 277.593 42.5119 277.06Z" fill="#421818"/>
<path d="M73.5903 47.697C73.033 47.5764 72.4757 47.4663 71.9149 47.3669C69.1425 48.1763 66.1677 48.8223 63.4486 48.3112C61.6038 49.2819 59.6756 50.085 57.6873 50.7108C58.035 52.4947 58.9016 54.1362 60.1785 55.4295C61.4554 56.7228 63.0857 57.6103 64.865 57.9808C69.4052 58.8753 73.8956 56.6496 76.6573 53.0963C77.609 51.86 78.3921 50.5028 78.986 49.0602C77.2017 48.5679 75.403 48.1136 73.5903 47.697Z" fill="#F7A37A"/>
<path d="M96.071 121.877C96.0923 121.167 96.1101 120.457 96.1669 119.676C95.2589 118.055 94.4458 116.383 93.7318 114.668C91.5547 109.194 89.8088 103.559 88.51 97.8132C85.8583 86.3722 84.8857 74.4981 86.0997 62.798C86.4547 59.5428 87.09 56.3338 87.4628 53.0822C87.5526 52.5162 87.5989 51.9442 87.6013 51.3711C85.7092 50.7322 83.8491 49.9796 81.9216 49.4365C80.975 54.6642 80.2365 59.9262 79.7064 65.2225C79.3905 68.4173 79.135 71.6121 79.0143 74.8069C68.8617 76.4144 58.5422 76.6853 48.3192 75.6127C49.4907 71.5975 50.9232 67.663 52.6073 63.8345C53.651 61.3851 54.7372 58.9606 55.8022 56.5255C56.7429 54.3956 57.673 52.2373 57.7511 49.8696C57.7499 49.8309 57.7359 49.7936 57.7116 49.7635C57.6872 49.7333 57.6537 49.712 57.6161 49.7028C57.5309 49.685 57.4421 49.6779 57.3569 49.6637C55.2839 50.5086 53.179 51.2576 51.1023 52.0953C47.7229 60.1747 45.4759 68.7794 43.2572 77.2243C40.9073 86.184 38.9514 95.2786 38.0497 104.512C37.5269 109.767 37.4082 115.056 37.6947 120.329C37.69 120.377 37.7041 120.424 37.7341 120.46C37.764 120.497 37.8073 120.52 37.8544 120.525C37.9014 120.529 37.9485 120.515 37.9851 120.485C38.0217 120.455 38.045 120.412 38.0497 120.365C38.4047 119.158 38.7597 117.948 39.1147 116.734C42.4226 116.488 45.7435 116.469 49.0541 116.677C52.4903 116.897 55.8839 117.483 59.313 117.742C62.7421 118.001 66.2883 117.777 69.7706 117.628L80.381 117.17L90.0613 116.751C91.2505 119.211 92.4717 121.664 93.8028 124.05C94.4234 125.213 95.171 126.303 96.032 127.301C96.0782 127.358 96.1278 127.415 96.174 127.475C96.1136 125.622 96.0213 123.751 96.071 121.877ZM69.5434 110.372C63.2709 110.621 56.9133 111.178 50.6373 110.82C47.3999 110.631 44.1907 110.11 40.9462 110.085C42.5247 104.069 43.9092 98.0048 45.0996 91.8921C46.0083 87.2028 46.6436 82.4461 47.7583 77.7958C58.1477 78.3455 68.5583 78.3715 78.9504 77.8739C78.9504 79.5068 78.9682 81.1362 79.0641 82.762C79.4176 88.4992 80.6136 94.1531 82.6139 99.5419C83.8598 102.975 85.269 106.354 86.767 109.691L69.5434 110.372Z" fill="#DBAF9D"/>
<path d="M76.9447 14.5988C76.5543 13.5339 75.3934 13.0369 74.4101 12.6464C72.9835 12.1289 71.4975 11.7926 69.9871 11.6454C69.3304 11.5638 68.6666 11.4856 68.0028 11.4111C67.7487 10.1102 67.0134 8.95296 65.9438 8.17013C64.9031 7.42418 63.6456 7.04235 62.3658 7.08387C61.7923 7.12416 61.2247 7.22534 60.6725 7.38564C59.8409 7.53697 58.9974 7.61415 58.1521 7.61634C55.5466 7.78673 53.2038 8.86589 52.004 11.2798C51.3813 12.4878 50.9944 13.8033 50.8643 15.1561C50.8011 15.6599 50.8203 16.1707 50.9212 16.6683C50.887 16.8268 50.8974 16.9917 50.9513 17.1446C51.0052 17.2975 51.1004 17.4325 51.2264 17.5345C51.5388 17.7901 52.0181 17.751 52.3908 17.751C53.0883 17.7387 53.7844 17.6817 54.4746 17.5806C57.4529 17.1689 60.4879 16.1607 63.5053 16.8423C64.8222 17.1404 65.7912 17.9498 67.0088 18.4503C67.7649 18.7592 68.5176 18.9899 68.9542 19.7389C69.3909 20.4879 69.4086 21.2866 69.4583 22.0782C69.5257 23.0793 69.5577 24.3004 70.3599 25.0317C70.5896 25.241 70.8785 25.3737 71.1869 25.4115C71.7939 25.5073 72.22 25.3689 72.6673 25.8907C72.9702 26.2778 73.1405 26.7519 73.1535 27.2432C73.3026 29.3305 71.1444 32.8164 73.9061 34.0979C73.9297 34.1106 73.9558 34.1179 73.9825 34.1193C74.0093 34.1207 74.0361 34.1162 74.0609 34.106C74.0857 34.0958 74.108 34.0802 74.1261 34.0604C74.1441 34.0406 74.1574 34.017 74.1652 33.9913C74.8432 30.6084 75.8371 27.3035 76.5187 23.9206C76.8493 22.3449 77.0724 20.7485 77.1862 19.1426C77.2714 17.7226 77.4453 15.9406 76.9447 14.5988Z" fill="#421818"/>
<path d="M73.9842 25.0103C73.6391 24.7847 73.2421 24.651 72.8309 24.6218C72.4196 24.5926 72.0077 24.6689 71.6342 24.8435C70.9881 25.1381 70.2994 25.6316 70.3881 26.4054C70.5172 26.9295 70.7092 27.436 70.9598 27.9141L71.4815 29.2346L70.4911 32.8199C70.4851 32.8504 70.4873 32.8819 70.4973 32.9113C70.5074 32.9407 70.5249 32.967 70.5483 32.9874C70.5716 33.0079 70.6 33.0219 70.6304 33.028C70.6609 33.0341 70.6925 33.0321 70.722 33.0222C73.0364 32.2555 74.9816 30.1185 75.1271 27.6159C75.1697 26.6326 74.8468 25.5534 73.9842 25.0103Z" fill="#F7A37A"/>
<path d="M73.6045 25.9049C73.1079 26.0095 72.6642 26.2861 72.3515 26.6859C71.9504 27.2077 71.7729 28.152 70.9529 28.1058C70.7257 28.1058 70.7505 28.4608 70.9777 28.4608C71.1968 28.4624 71.4127 28.4074 71.6043 28.3011C71.7959 28.1947 71.9566 28.0406 72.0711 27.8537C72.2841 27.5591 72.3976 27.2006 72.6212 26.913C72.8942 26.561 73.2849 26.319 73.7217 26.2315C73.9418 26.1854 73.8246 25.8517 73.6045 25.9049Z" fill="#D38262"/>
<path d="M70.5872 32.1881C70.4858 32.1581 70.3924 32.106 70.3138 32.0353C70.2352 31.9647 70.1735 31.8774 70.1329 31.7798C70.0477 31.5668 69.7105 31.6804 69.7779 31.8934C69.8379 32.0485 69.9333 32.1874 70.0566 32.299C70.1799 32.4105 70.3276 32.4917 70.4879 32.5359C70.7364 32.5963 70.8037 32.2484 70.5872 32.1881Z" fill="#D38262"/>
<path d="M83.4802 16.2708C82.8102 14.3672 82.0096 12.5122 81.0841 10.7189C80.2783 9.15698 79.4121 7.52412 77.907 6.54437C76.5048 5.61788 74.8009 5.30193 73.1574 5.15639C71.0455 4.99724 68.9262 4.96404 66.8104 5.05699C62.3925 5.21378 58.0015 5.81557 53.7044 6.8532C52.8666 7.05554 51.791 7.17269 51.2195 7.91814C50.7084 8.5784 50.6694 9.5759 50.5274 10.3604C50.3144 11.5176 50.1049 12.6713 49.8955 13.8285C47.9648 15.0837 46.3102 16.7192 45.0323 18.635C44.9046 18.8231 45.2133 18.9899 45.3376 18.8124C46.522 17.036 48.0397 15.5062 49.8067 14.3078C49.5701 15.581 49.3334 16.8577 49.0968 18.138C49.0577 18.3616 49.3985 18.4575 49.4517 18.2303C49.705 16.834 49.9582 15.4366 50.2114 14.038C53.5195 11.8967 57.4588 10.9476 61.3791 11.3472C63.0794 11.5354 64.8721 11.9684 66.3275 12.8949C68.0136 13.9599 69.1425 15.7667 70.2323 17.3961C72.1172 20.2111 73.839 23.2462 76.3948 25.5216C78.9507 27.797 82.3264 29.3128 85.7626 28.5425C85.7999 28.5307 85.8325 28.5076 85.856 28.4764C85.8796 28.4452 85.8929 28.4076 85.894 28.3685C85.6566 24.2432 84.8442 20.1713 83.4802 16.2708V16.2708Z" fill="#DBAF9D"/>
<path d="M83.9131 14.6201C84.0018 14.0379 84.0622 13.477 84.0977 12.9445C80.172 10.1265 75.9827 7.69542 71.5883 5.6852C69.3981 4.68771 67.1297 3.66182 64.8082 3.02996C64.3561 2.90453 63.896 2.81081 63.4309 2.74951C62.4085 3.31748 61.4145 3.94223 60.4526 4.59539C60.2573 4.73028 60.0656 4.87229 59.8774 5.01428C60.7613 5.15273 61.6523 5.30538 62.4829 5.42607C64.5436 5.73796 66.5509 6.33534 68.4467 7.20097C70.4736 8.10617 71.3078 9.50121 73.2318 10.5874C74.9712 11.5672 77.7081 12.2949 79.2062 13.6332C80.7042 14.9715 81.9784 16.6683 83.9876 16.9948C83.8527 16.8493 83.7179 16.7073 83.5794 16.5689C83.725 15.9335 83.8137 15.2768 83.9131 14.6201Z" fill="#421818"/>
<path d="M9.14369 139.906C8.82776 140.332 4.82709 145.615 2.71142 148.692C0.924808 151.276 0.158439 154.43 0.560218 157.545C0.812254 159.366 1.27021 161.166 1.66069 162.962C1.89498 164.07 2.06191 165.387 3.17299 165.958C3.19645 165.972 3.22264 165.98 3.2496 165.981C3.27657 165.983 3.30348 165.979 3.32847 165.969C3.35346 165.958 3.37587 165.942 3.39382 165.922C3.41176 165.902 3.42488 165.878 3.43212 165.852C4.39767 162.21 2.77182 158.522 3.30074 154.848C3.28665 156.584 3.428 158.319 3.72314 160.03C3.93493 161.21 4.28406 162.361 4.76329 163.459C5.05793 164.127 5.47313 165.309 6.32153 165.458C6.45407 165.492 6.59325 165.49 6.7247 165.452C6.85614 165.414 6.97511 165.342 7.06945 165.243C7.16379 165.144 7.23011 165.021 7.2615 164.888C7.29289 164.755 7.28831 164.616 7.24815 164.485C7.10429 164.056 6.90502 163.648 6.65536 163.271C6.76377 163.274 6.87134 163.253 6.97117 163.211C7.75923 162.881 7.49296 161.106 7.46811 160.481C7.39711 158.873 7.13449 157.286 7.08834 155.668C7.08834 155.05 7.04575 154.39 7.08834 153.74L7.72724 153.783C7.61299 155.296 7.67863 156.818 7.92258 158.316C7.99003 158.724 8.01849 159.381 8.51901 159.516C8.675 159.545 8.8362 159.527 8.9818 159.464C9.1274 159.4 9.25059 159.295 9.33539 159.161C9.69037 158.664 9.48442 157.936 9.44892 157.386C9.39134 156.439 9.40911 155.49 9.50214 154.546C9.54118 154.138 9.59814 153.736 9.66559 153.335L9.69384 153.314C9.97996 152.956 10.1946 152.546 10.3258 152.107L11.2736 149.846L13.0733 145.465C13.2649 144.997 13.4815 144.518 13.6874 144.046C12.0438 142.523 10.6417 141.55 9.14369 139.906Z" fill="#F7A37A"/>
<path d="M115.638 151.798C115.616 150.232 115.544 148.669 115.421 147.109C115.42 147.072 115.404 147.036 115.379 147.01V147.006C115.119 144.5 114.402 141.941 112.429 140.24C111.653 139.55 110.705 139.083 109.685 138.888C109.341 138.819 108.99 138.798 108.641 138.824C108.623 138.632 108.318 138.575 108.286 138.788C108.286 138.831 108.286 138.873 108.286 138.916C108.173 138.961 108.078 139.04 108.014 139.143C107.95 139.246 107.921 139.367 107.931 139.488C107.933 139.52 107.944 139.552 107.964 139.578C107.983 139.605 108.009 139.626 108.04 139.638C108.07 139.65 108.103 139.654 108.136 139.648C108.168 139.642 108.198 139.627 108.222 139.605C107.935 142.487 107.622 145.373 107.413 148.263C105.808 153.445 104.573 158.912 107.413 163.85C107.429 163.871 107.451 163.889 107.475 163.9C107.499 163.912 107.526 163.919 107.553 163.919C107.58 163.919 107.607 163.912 107.631 163.9C107.655 163.889 107.677 163.871 107.693 163.85C108.819 162.817 108.574 161.202 108.463 159.828C108.391 158.895 108.366 157.959 108.389 157.024L108.999 156.974C109.192 159.081 109.211 161.2 109.056 163.31C108.865 165.834 108.105 168.45 108.787 170.957C108.796 170.982 108.81 171.005 108.829 171.024C108.849 171.043 108.872 171.058 108.898 171.066C108.924 171.075 108.951 171.077 108.978 171.074C109.005 171.07 109.03 171.06 109.053 171.045C109.8 170.52 110.316 169.727 110.494 168.83C110.598 168.785 110.693 168.721 110.774 168.642C110.924 168.489 111.05 168.315 111.147 168.124C111.472 168.137 111.796 168.092 112.106 167.993C112.581 167.638 112.776 166.761 112.961 166.218C113.092 165.834 113.206 165.451 113.316 165.06C113.372 165.043 113.426 165.023 113.479 165C115.013 164.29 115.102 162.16 115.254 160.705C115.451 158.833 115.576 156.957 115.631 155.078C115.95 154.106 115.666 152.796 115.638 151.798Z" fill="#F7A37A"/>
<path d="M42.2171 163.8C42.0503 165.22 41.8445 166.672 41.6209 168.103C41.1417 171.131 40.6021 174.137 40.0838 177.169C39.7075 179.366 39.4554 182.55 36.7895 183.129C36.5658 183.179 36.47 182.834 36.6936 182.774C39.3915 182.185 39.4803 178.578 39.8566 176.384C40.2754 173.924 40.7085 171.468 41.1132 169.004C41.3498 167.584 41.5604 166.164 41.745 164.745C38.9771 164.291 36.1573 164.253 33.3782 164.631C33.4101 164.51 33.4456 164.386 33.4811 164.276C36.2418 163.918 39.0397 163.962 41.7876 164.407C41.9154 163.342 42.0291 162.299 42.1107 161.241C42.1604 160.577 42.2598 159.842 41.8232 159.278C41.4629 158.874 40.9686 158.614 40.4317 158.547C39.9765 158.46 39.5141 158.416 39.0507 158.415C39.072 158.291 39.0969 158.17 39.1182 158.06C40.5381 158.089 42.0787 158.355 42.4444 159.757C42.7603 160.953 42.3591 162.576 42.2171 163.8Z" fill="#421818"/>
<path d="M100.061 178.631C98.3964 178.496 97.6012 176.906 97.303 175.436C97.0262 174.07 96.9089 172.671 96.664 171.301C96.1493 168.415 95.4429 165.572 94.74 162.732C94.7278 162.685 94.6974 162.644 94.6554 162.62C94.6135 162.595 94.5635 162.588 94.5164 162.6C94.4693 162.613 94.4291 162.643 94.4045 162.685C94.3798 162.727 94.3728 162.777 94.385 162.824C95.2299 166.221 96.0748 169.625 96.5931 173.094C96.9232 175.305 97.1361 178.738 100.05 178.976C100.288 179.004 100.288 178.649 100.061 178.631Z" fill="#421818"/>
</g>
<defs>
<clipPath id="clip0">
<rect width="265.535" height="289.507" fill="white" transform="translate(0.4646 0.0480957)"/>
</clipPath>
</defs>
</svg>
