<svg width="376" height="269" viewBox="0 0 376 269" fill="none" xmlns="http://www.w3.org/2000/svg">
<path d="M343.428 4.61274V72.3362C343.428 72.5662 343.239 72.7623 343.003 72.7623C342.767 72.7623 342.578 72.5662 342.578 72.3362V4.27457C342.854 4.37602 343.145 4.491 343.428 4.61274Z" fill="#FFE1C7"/>
<path d="M307.95 0V72.3362C307.95 72.5662 307.761 72.7623 307.524 72.7623C307.288 72.7623 307.099 72.5662 307.099 72.3362V0.0202907C307.376 0.00676356 307.666 0 307.95 0Z" fill="#FFE1C7"/>
<path d="M272.472 0.635773V72.3362C272.472 72.5662 272.282 72.7623 272.046 72.7623C271.817 72.7623 271.621 72.5662 271.621 72.3362V0.642536C271.898 0.642536 272.181 0.642536 272.472 0.635773Z" fill="#FFE1C7"/>
<path d="M236.993 0.83194V72.3362C236.993 72.5662 236.804 72.7623 236.568 72.7623C236.338 72.7623 236.143 72.5662 236.143 72.3362V0.83194C236.419 0.838703 236.71 0.838703 236.993 0.83194Z" fill="#FFE1C7"/>
<path d="M201.515 0.791321V72.3362C201.515 72.5661 201.326 72.7623 201.089 72.7623C200.86 72.7623 200.664 72.5661 200.664 72.3362V0.791321H201.515Z" fill="#FFE1C7"/>
<path d="M166.036 0.70343V72.3362C166.036 72.5662 165.847 72.7623 165.611 72.7623C165.382 72.7623 165.186 72.5662 165.186 72.3362V0.70343H166.036Z" fill="#FFE1C7"/>
<path d="M130.571 0.615479V72.3362C130.571 72.5661 130.376 72.7623 130.146 72.7623C129.91 72.7623 129.721 72.5661 129.721 72.3362V0.615479H130.571Z" fill="#FFE1C7"/>
<path d="M95.0931 0.534332V72.3362C95.0931 72.5662 94.8973 72.7623 94.6678 72.7623C94.4315 72.7623 94.2424 72.5662 94.2424 72.3362V0.534332H95.0931Z" fill="#FFE1C7"/>
<path d="M59.6148 0.446411V72.3362C59.6148 72.5662 59.419 72.7623 59.1895 72.7623C58.9532 72.7623 58.7642 72.5662 58.7642 72.3362V0.446411H59.6148Z" fill="#FFE1C7"/>
<path d="M24.1366 2.40106V72.3362C24.1366 72.5662 23.9475 72.7623 23.7112 72.7623C23.4749 72.7623 23.2859 72.5662 23.2859 72.3362V2.59044C23.5627 2.52281 23.8463 2.46193 24.1366 2.40106Z" fill="#FFE1C7"/>
<path d="M375.22 179.281C375.22 176.995 375.193 174.703 375.16 172.416C375.099 167.723 374.998 163.008 374.876 158.301C374.748 153.411 374.592 148.514 374.417 143.617C374.349 141.365 374.262 139.113 374.181 136.854C373.904 129.339 373.614 121.818 373.35 114.304C346.041 110.516 318.482 109.035 290.95 107.94C261.089 106.749 126.973 91.7273 112.262 90.1581C104.7 89.3533 97.1321 88.7175 89.5436 88.1764C85.7696 87.9126 73.158 85.0246 73.158 85.0246C73.158 85.0246 68.9587 95.4878 67.5274 98.2947C66.508 100.29 65.4818 102.285 64.4623 104.287C63.7939 105.593 63.1188 106.891 62.4504 108.197C62.3424 108.42 62.2209 108.643 62.1061 108.866C58.8114 115.224 55.483 121.561 52.1141 127.885C51.8913 128.305 51.6617 128.731 51.4389 129.15C50.8988 130.158 50.3587 131.166 49.8119 132.167C45.5518 140.107 41.2309 148.007 36.8358 155.873C36.1944 157.029 35.5463 158.186 34.8914 159.342C28.7746 170.252 22.5431 181.081 16.1766 191.841C15.2922 193.329 14.4145 194.824 13.5233 196.312C11.8287 199.166 10.1207 202.007 8.40581 204.854C6.49518 208.027 -0.249426 219.91 0.00712537 219.971C41.2782 229.183 73.5226 234.215 109.723 239.294C146.944 244.529 184.326 248.824 221.647 253.254C259.907 257.793 298.194 262.04 336.576 265.49C346.095 266.349 355.621 267.16 365.154 267.918C365.667 267.958 366.174 267.992 366.687 268.04C368.104 263.968 368.982 259.66 369.732 255.398C370.211 252.666 370.656 249.92 371.068 247.181C371.48 244.394 371.858 241.601 372.196 238.821C373.391 229.081 374.16 219.308 374.626 209.508C374.734 207.33 374.822 205.152 374.903 202.981C375.18 195.095 375.261 187.195 375.22 179.281Z" fill="#625DA8"/>
<path d="M375.16 172.416C368.428 171.828 361.731 171.023 355.101 169.711C349.376 168.582 343.732 167.073 338.277 165.024C332.997 163.035 327.947 160.33 322.384 159.2C316.74 158.051 310.947 158.369 305.229 158.45C299.214 158.538 293.205 158.227 287.216 157.658C274.834 156.468 262.594 154.189 250.327 152.173C238.526 150.246 226.718 148.764 214.774 148.169C202.44 147.56 190.091 147.56 177.757 146.857C165.476 146.154 153.371 144.442 141.326 141.933C129.755 139.519 118.284 136.624 106.685 134.304C93.9387 131.761 81.2462 130.327 68.2498 130.165C62.6462 130.097 56.9885 130.016 51.4457 129.157C50.9056 130.165 50.3655 131.172 49.8186 132.173C90.5495 134.784 129.984 146.911 170.324 152.633C192.4 155.758 214.66 157.253 236.885 158.957C259.414 160.688 281.903 162.941 304.345 165.511C328.352 168.264 351.915 172.971 375.227 179.281C375.22 176.989 375.193 174.703 375.16 172.416ZM374.174 136.854C333.592 128.656 291.929 126.472 250.678 124.104C239.916 123.489 229.162 122.914 218.393 122.339C207.881 121.771 197.336 121.183 186.918 119.6C176.785 118.051 167.09 114.825 157.057 112.85C147.092 110.882 136.898 110.821 126.777 110.868C105.916 110.963 84.2708 111.707 64.4623 104.287C63.7939 105.593 63.1188 106.891 62.4504 108.197C62.3424 108.42 62.2208 108.643 62.1061 108.866C70.606 112.295 80.0107 112.755 89.1655 112.715C94.9987 112.688 100.839 112.464 106.672 112.674C113.437 112.904 120.174 113.641 126.858 114.703C151.859 118.653 175.995 126.898 201.123 130.178C228.054 133.709 255.316 130.367 282.308 133.134C295.615 134.493 308.821 136.495 322.202 136.928C336.015 137.374 349.545 137.571 363.075 140.716C366.788 141.581 370.575 142.582 374.41 143.617C374.349 141.365 374.262 139.113 374.174 136.854Z" fill="white"/>
<path d="M308.328 199.991C282.882 197.746 257.423 195.555 232.011 192.937C219.163 191.611 206.328 190.015 193.622 187.601C181.227 185.233 169.169 181.723 156.996 178.443C145.296 175.291 133.569 173.187 121.545 171.787C108.724 170.286 96.1936 168.5 83.7508 164.977C76.8847 163.029 70.0591 160.905 63.0984 159.322C56.6576 157.868 50.1156 156.914 43.5398 156.346C41.3186 156.15 39.0839 155.995 36.8492 155.886C36.2078 157.043 35.5597 158.199 34.9048 159.356C35.4854 159.444 36.0593 159.525 36.6399 159.633C48.3265 161.629 59.4662 165.808 70.6465 169.596C82.0968 173.472 93.5605 176.542 105.618 177.753C118.642 179.058 131.719 179.268 144.709 181.067C169.642 184.523 193.933 191.321 218.589 196.184C230.66 198.564 242.84 200.485 255.12 201.29C268.043 202.149 281.025 201.567 293.934 202.643C308.355 203.84 322.269 208.047 336.603 209.812C349.241 211.374 362.042 211.246 374.64 209.514C374.748 207.337 374.835 205.159 374.916 202.988C352.691 203.502 330.466 201.946 308.328 199.991Z" fill="white"/>
<path d="M311.663 234.093C285.414 231.489 259.192 228.635 232.983 225.578C207.091 222.555 180.842 220.377 155.619 213.485C143.406 210.15 131.321 206.329 118.865 203.908C106.354 201.473 93.6618 200.12 80.9895 198.767C66.3324 197.198 51.6752 195.643 37.0247 194.073L16.1833 191.855C15.2989 193.343 14.4212 194.838 13.53 196.326C35.3166 198.504 57.0965 200.79 78.7549 204.09C90.6035 205.889 102.398 207.979 114.105 210.516C125.954 213.079 137.687 216.17 149.563 218.605C161.317 221.013 173.193 222.467 185.102 223.847C197.261 225.26 209.427 226.667 221.586 228.081C246.479 230.969 271.364 233.85 296.256 236.738C310.11 238.348 323.978 239.957 337.831 241.56C348.991 242.852 360.273 244.009 371.068 247.188C371.48 244.401 371.858 241.608 372.196 238.828C351.989 237.854 331.802 236.089 311.663 234.093Z" fill="white"/>
<path d="M250.928 16.4219C249.935 13.8112 247.417 11.0584 245.371 9.41486C243.461 7.87953 241.219 7.83218 238.951 7.98098C236.675 5.63403 233.84 4.0987 230.707 3.71994C228.446 3.44264 226.089 3.86198 223.828 3.99049C221.856 4.0987 220.344 5.35672 218.447 5.85046C215.085 6.72973 212.587 8.14331 210.555 11.3222C209.164 13.5068 207.874 16.2663 207.051 19.0732C206.679 20.338 205.714 21.3796 205.525 22.854C205.336 24.342 205.768 25.7083 206.072 27.1421C206.382 28.6031 206.497 30.0978 206.909 31.5317C207.57 33.8583 208.786 36.1647 210.548 37.6797C212.553 39.4044 215.247 39.8711 217.718 40.162C224.341 40.9262 230.903 39.2421 237.506 39.0122C239.268 38.9513 240.861 39.1813 242.576 39.5735C243.582 39.8035 244.635 40.0537 245.655 39.7562C247.093 39.3368 247.998 38.1735 248.045 36.7058C248.362 36.2797 248.652 35.8333 248.936 35.3734C249.091 35.7927 249.766 35.7386 249.753 35.2043C249.706 33.3375 250.597 31.8766 250.88 30.091C251.137 28.4543 250.786 26.8445 250.786 25.2078C250.799 22.0762 252.102 19.5128 250.928 16.4219Z" fill="#964A35"/>
<path d="M330.168 186.992C327.319 173.83 318.556 163.414 307.794 154.52C301.401 149.238 294.245 144.726 287.189 140.398C280.188 136.096 272.984 132.133 265.646 128.46C266.091 128.142 265.666 127.398 265.214 127.723C265.065 127.831 264.903 127.926 264.748 128.027C264.559 127.933 264.37 127.831 264.181 127.743C263.688 127.5 263.256 128.237 263.749 128.48C263.803 128.508 263.857 128.535 263.911 128.562C261.17 130.178 258.111 131.037 255.053 131.964C251.583 133.012 248.221 134.324 244.926 135.826C237.992 138.977 230.863 142.4 224.557 146.688C222.187 148.298 219.912 150.117 218.143 152.396C216.023 155.136 215.206 158.199 214.666 161.568C213.35 169.846 212.155 178.138 210.899 186.424C210.865 186.654 210.953 186.877 211.196 186.951C226.751 191.524 242.428 195.866 258.246 199.403C269.305 201.872 280.722 203.63 291.949 205.443C300.577 206.836 313.459 208.601 321.587 204.151C334.442 197.103 331.289 192.159 330.168 186.992Z" fill="#3B251D"/>
<path d="M243.44 180.445C242.252 176.617 241.05 172.795 239.842 168.974C239.214 166.999 238.586 165.024 237.958 163.049C237.493 161.588 237.209 159.809 236.399 158.497C235.123 156.434 232.132 156.238 229.951 156.373C227.21 156.542 224.597 157.455 222.086 158.544C222.417 156.211 222.815 153.878 222.451 151.51C221.91 148.088 220 145.038 217.576 142.623C211.615 136.691 203.108 135.028 195.594 131.869C195.614 131.828 195.627 131.788 195.648 131.747C195.884 131.253 195.148 130.821 194.912 131.314C194.878 131.389 194.851 131.463 194.817 131.538C194.763 131.517 194.709 131.497 194.662 131.47C194.162 131.247 193.73 131.984 194.23 132.207C194.318 132.248 194.399 132.282 194.486 132.315C194.446 132.424 194.392 132.532 194.351 132.64C194.27 132.599 194.169 132.586 194.054 132.626C187.026 135.082 180.113 137.855 173.348 140.973C166.705 144.037 159.886 147.209 153.992 151.598C144.371 158.774 130.051 168.507 126.622 180.032C125.076 185.233 124.522 192.092 127.945 196.684C137.012 208.865 158.441 204.787 170.89 202.149C178.465 200.546 186 198.767 193.487 196.806C210.305 192.41 226.886 187.107 243.15 180.972C243.353 180.891 243.515 180.682 243.44 180.445Z" fill="#3B251D"/>
<path d="M205.511 159.058C205.511 159.058 200.063 159.674 196.1 161.926C192.745 163.827 190.544 163.326 185.298 162.569C180.065 161.818 177.925 163.319 176.217 163.637C174.509 163.955 166.38 159.782 164.571 159.052C163.801 158.741 163.086 158.057 162.478 157.259C162.242 156.935 162.006 156.583 161.796 156.238C161.31 155.426 160.939 154.608 160.73 154.02C160.189 152.545 162.498 150.8 162.498 150.8C162.498 150.8 165.962 149.184 170.566 148.994C175.157 148.812 181.888 152.816 185.426 152.613C188.957 152.39 192.697 150.469 197.612 151.328C202.514 152.187 205.511 159.058 205.511 159.058Z" fill="#FFA280"/>
<path d="M165.523 153.945C163.552 153.621 161.574 153.465 159.967 152.153C159.541 151.808 158.934 152.41 159.359 152.762C161.108 154.189 163.133 154.412 165.294 154.77C165.834 154.865 166.07 154.04 165.523 153.945Z" fill="#DB7753"/>
<path d="M165.199 157.543C164.281 157.523 163.369 157.435 162.471 157.266C162.235 156.941 161.999 156.59 161.79 156.245C162.91 156.509 164.044 156.657 165.199 156.684C165.753 156.691 165.753 157.55 165.199 157.543Z" fill="#DB7753"/>
<path d="M162.485 150.807C162.485 150.807 149.361 150.53 143.642 148.717C143.656 148.683 143.676 148.649 143.689 148.616C143.919 148.156 143.23 147.75 143.001 148.21C140.726 152.829 138.214 157.327 135.48 161.689C135.392 161.832 135.412 162.061 135.541 162.176C138.687 164.916 143.689 173.1 143.689 173.1L162.485 150.807Z" fill="#FFA280"/>
<path d="M276.846 75.3324C279.047 71.3487 281.876 66.6954 279.79 62.1367C277.839 57.8689 274.409 53.9596 271.006 50.8078C263.343 43.706 253.669 40.047 243.522 38.2343C233.462 36.4352 222.424 35.3192 212.668 38.9716C212.553 38.9716 212.438 39.0121 212.351 39.0865C211.574 39.3841 210.804 39.7088 210.048 40.0673C209.549 40.304 209.954 41.0615 210.453 40.8248C211.007 40.561 211.561 40.3175 212.121 40.0943C212.121 40.1349 212.121 40.1755 212.121 40.2228C203.567 43.5708 197.221 44.8897 189.49 49.8676C186.601 51.7276 179.802 56.7665 179.168 60.5473C178.384 65.2006 180.059 70.5438 180.936 75.0754C181.423 77.6117 181.875 80.1684 182.05 82.752C182.233 85.3898 182.125 88.0479 182.496 90.6654C183.151 95.339 185.845 99.4512 186.398 104.138C186.932 108.677 185.224 113.087 187.452 117.375C188.025 118.477 188.802 119.539 189.126 120.756C189.558 122.366 188.876 123.557 188.079 124.902C187.31 126.188 186.648 127.452 186.999 129.001C187.539 131.409 189.538 132.958 189.592 135.562C189.639 137.638 189.416 139.397 190.247 141.378C191.064 143.333 192.454 144.956 194.176 146.086C197.396 149.157 202.622 150.367 206.754 151.091C215.146 152.565 223.828 153.35 232.355 152.978C239.025 152.687 245.844 152.565 252.332 150.834C257.281 149.508 262.587 147.263 266.152 143.448C269.19 140.202 269.001 135.143 268.718 130.868C268.522 127.933 269.744 125.572 270.804 122.84C271.594 120.797 272.08 118.937 271.816 116.732C271.452 113.682 270.264 110.882 270.257 107.77C270.25 105.18 271.587 102.617 271.695 100.033C271.816 97.1922 271.249 94.5274 270.77 91.7408C270.189 88.3455 271.189 85.3763 272.768 82.2853C273.957 79.8708 275.543 77.6794 276.846 75.3324Z" fill="#FFC080"/>
<path d="M258.827 50.26C255.181 46.8917 251.407 44.2472 246.533 43.0635C240.686 41.6432 234.164 40.8721 228.156 41.0006C221.735 41.1359 215.544 42.9688 209.542 45.1196C209.454 45.0994 209.36 45.0994 209.265 45.1399C205.194 46.9661 200.205 49.0357 197.585 52.8977C194.189 57.9095 204.384 64.274 207.544 65.9514C215.51 70.1921 223.787 72.7893 233.077 72.255C243.015 71.6801 251.88 66.6683 258.543 59.4246C259.671 58.2004 260.927 56.6853 261.197 55.0012C261.521 53.0127 260.191 51.5247 258.827 50.26Z" fill="#FFA280"/>
<path d="M212.216 43.4017C212.31 47.8724 212.506 52.3972 213.728 56.6989C216.354 65.9582 224.604 72.5121 234.461 70.9023C237.472 70.4086 240.402 69.1641 242.61 67.0539C246.607 63.246 248.889 56.2795 248.511 50.8281C248.335 48.3121 247.404 45.7757 245.581 44.0307C243.873 42.394 241.523 41.5756 239.174 41.3118C236.824 41.048 234.455 41.305 232.112 41.5688C225.489 42.306 218.872 43.1177 212.216 43.4017Z" fill="#DB7753"/>
<path d="M243.69 22.6037C240.963 19.1205 237.256 18.3562 233.023 18.7959C228.378 19.2761 223.74 20.5476 219.683 22.9013C216.044 25.0116 211.365 28.718 211.068 33.2563C211.061 33.3307 211.075 33.3916 211.102 33.4457C210.98 33.5066 210.885 33.6216 210.879 33.7907C210.474 43.1447 212.958 57.2669 220.621 64.0981C222.997 66.2219 225.232 68.6568 228.844 68.9949C231.842 69.279 233.469 68.6094 235.805 66.6683C238.451 64.4701 241.692 61.9135 243.008 59.3839C247.201 51.3083 247.977 41.5146 248.166 32.58C248.254 28.6233 246.195 25.8029 243.69 22.6037Z" fill="#FFA280"/>
<path d="M251.4 35.326C250.043 32.4853 247.876 34.2574 246.499 36.0024C246.269 35.7724 245.763 35.8671 245.763 36.2932C245.763 36.5773 245.736 36.8546 245.722 37.1319C245.689 37.2198 245.682 37.301 245.709 37.3754C245.594 39.6547 245.189 41.8596 244.791 44.1254C244.554 45.4849 243.92 48.0821 244.845 49.2792C246.37 51.2609 249.456 47.5545 250.09 46.2492C251.407 43.537 252.784 38.2276 251.4 35.326Z" fill="#FFA280"/>
<path d="M208.401 47.1081C209.036 48.4203 212.121 52.1267 213.647 50.1382C214.572 48.9411 213.937 46.3439 213.701 44.9844C213.309 42.7186 212.904 40.5137 212.783 38.2344C212.81 38.16 212.803 38.0788 212.769 37.9909C212.756 37.7136 212.729 37.4363 212.729 37.1522C212.729 36.7261 212.222 36.6314 211.993 36.8614C210.609 35.1164 208.448 33.3443 207.091 36.185C205.707 39.0866 207.085 44.3959 208.401 47.1081Z" fill="#FFA280"/>
<path d="M192.799 81.4602C192.292 79.093 191.529 76.7866 190.476 74.6087C189.342 72.2618 187.863 70.0298 187.371 67.4258C186.945 65.2074 187.067 63.0498 186.088 60.9531C185.284 59.2284 184.056 57.8419 182.557 56.7191C183.137 56.2186 183.732 55.7316 184.346 55.2582C184.778 54.9268 184.353 54.1828 183.914 54.521C177.169 59.6883 172.194 66.5127 169.149 74.4532C167.441 78.9103 166.691 83.5637 165.307 88.102C164.004 92.3766 160.217 94.5409 158.272 98.4638C156.848 101.345 157.05 105.572 155.693 108.812C153.985 112.884 151.177 115.068 150.461 119.302C149.766 123.421 146.673 126.303 145.343 130.144C144.844 131.592 144.749 133.012 145.026 134.514C145.532 137.273 144.439 137.78 142.434 139.87C140.847 141.521 139.47 149.508 140.334 150.043C142.434 151.334 144.898 152.207 147.133 153.242C149.327 154.256 149.961 155.271 152.156 156.285C153.729 157.009 155.646 158.301 157.469 158.057C160.851 157.604 163.64 153.289 165.51 150.82C168.393 147.019 170.357 142.63 173.578 139.086C176.13 136.279 178.385 133.77 178.945 129.887C179.303 127.412 180.997 125.146 182.624 123.117C183.934 121.487 185.669 120.297 187.202 118.896C189.902 116.428 191.617 113.249 192.569 109.732C193.703 105.525 193.832 101.108 193.865 96.7796C193.906 91.6596 193.872 86.4788 192.799 81.4602Z" fill="#FFC080"/>
<path d="M314.107 171.564C314.107 171.564 319.238 163.577 322.425 161.094C322.553 160.993 322.587 160.77 322.512 160.628C320.095 156.272 317.908 151.794 315.943 147.215C315.748 146.756 315.059 147.114 315.255 147.567C315.268 147.601 315.282 147.635 315.295 147.662C309.678 149.116 296.979 148.697 296.979 148.697L314.107 171.564Z" fill="#FFA280"/>
<path d="M318.164 146.722C317.712 146.127 317.179 145.761 316.625 145.274C315.221 144.05 314.546 143.076 314.822 141.264C314.863 140.979 314.931 140.695 314.964 140.411C315.241 138.193 314.336 136.387 313.357 134.466C311.143 130.124 310.839 125.396 309.651 120.75C309.165 118.842 308.496 116.935 307.41 115.285C306.005 113.154 303.852 111.889 303.325 109.225C302.859 106.871 302.744 104.551 302.022 102.238C301.279 99.8571 300.186 97.6454 298.903 95.5149C297.478 93.1544 296.06 90.8954 295.082 88.2982C294.049 85.5522 293.387 82.6844 292.523 79.8843C291.186 75.5557 289.343 71.3893 287.041 67.4935C281.883 58.7618 274.571 51.4774 265.301 46.3709C264.815 46.1071 264.376 65.9176 263.222 74.7305C262.162 82.8265 261.791 91.1795 264.1 99.1063C265.139 102.684 266.719 106.127 268.927 109.143C270.108 110.746 271.519 112.18 272.633 113.831C273.747 115.488 274.348 117.334 274.915 119.228C275.827 122.272 275.32 126.025 277.913 128.021C279.31 129.096 280.89 129.921 282.234 131.071C283.8 132.417 284.819 134.169 285.69 136.015C287.317 139.471 289.032 142.21 291.463 145.18C294.17 148.48 297.127 151.673 297.951 156.008C297.985 156.184 298.187 156.333 298.363 156.326C301.603 156.191 324.349 154.838 318.164 146.722Z" fill="#FFC080"/>
<path d="M334.219 184.489C334.739 185.037 335.273 185.653 335.846 186.194C335.853 186.201 335.873 186.214 335.88 186.228C336.238 186.552 336.609 186.85 337.014 187.093C340.248 189.028 343.273 184.949 340.417 182.812C340.437 182.805 340.451 182.785 340.478 182.778C341.727 181.743 340.309 179.606 339.87 178.517C338.824 175.886 335.732 166.086 332.923 164.131C328.879 161.317 327.063 161.345 322.134 160.668C322.094 160.533 321.979 160.411 321.804 160.391C318.961 160.1 316.477 161.25 314.06 162.63C313.364 163.035 312.46 163.434 312.129 164.233C311.656 165.335 312.358 166.694 312.703 167.723C313.344 169.643 313.979 171.571 314.613 173.499C315.005 174.682 315.39 175.866 315.788 177.043C316.794 180.086 317.827 183.116 318.921 186.126C319.501 187.722 323.437 199.876 326.165 197.854C327.569 196.826 325.686 193.512 325.362 192.376C325.031 191.219 324.747 190.056 324.491 188.879C325.092 190.617 325.8 192.322 326.644 193.972C327.839 196.312 329.892 200.83 332.964 201.06C333.099 201.067 333.24 200.992 333.308 200.877C334.24 199.477 332.572 196.643 331.937 195.325C331.073 193.519 330.007 190.462 329.358 188.595C330.729 191.206 332.842 194.675 334.827 196.786C335.556 197.563 337.953 200.221 339.148 198.76C340.228 197.421 337.555 194.33 336.981 193.154C335.63 190.401 333.072 183.515 332.775 182.684L332.748 182.623C332.741 182.602 332.741 182.596 332.741 182.596L332.748 182.602C332.822 182.731 333.497 183.718 334.219 184.489Z" fill="#FFA280"/>
<path d="M339.121 181.507C338.864 181.277 338.547 181.108 338.196 180.993C336.704 179.538 335.705 177.787 334.78 175.927C334.246 174.845 333.767 173.133 332.68 172.444C331.573 171.733 329.946 172.329 328.71 172.261C326.05 172.112 323.566 171.07 321.318 169.691C320.845 169.4 320.42 170.144 320.885 170.428C321.885 171.037 322.918 171.578 323.998 172.011C323.944 173.221 323.127 174.263 322.432 175.21C321.655 176.258 320.784 177.164 319.657 177.827C319.184 178.105 319.609 178.849 320.089 178.565C321.345 177.827 322.317 176.806 323.174 175.636C323.917 174.621 324.686 173.566 324.842 172.315C325.125 172.416 325.416 172.518 325.706 172.599C326.449 172.802 327.218 172.958 327.981 173.039C329.034 173.154 330.175 172.856 331.195 172.991C333.173 173.262 333.821 175.988 334.658 177.55C335.286 178.727 335.988 179.816 336.852 180.803C336.258 180.837 335.678 180.999 335.246 181.324C334.057 182.21 334.415 183.921 335.185 184.963C335.509 185.402 336.252 184.976 335.921 184.53C335.401 183.827 334.915 182.535 335.853 181.94C336.333 181.635 337.143 181.574 337.791 181.75C337.825 181.764 337.865 181.777 337.899 181.777C338.135 181.852 338.344 181.96 338.507 182.102C338.925 182.474 339.533 181.872 339.121 181.507Z" fill="#DB7753"/>
<path d="M329.817 188.04C329.318 186.742 328.818 185.45 328.312 184.151C328.116 183.644 327.286 183.86 327.488 184.381C327.988 185.68 328.487 186.972 328.994 188.27C329.189 188.778 330.02 188.554 329.817 188.04Z" fill="#DB7753"/>
<path d="M325.024 188.216C324.74 187.398 324.45 186.573 324.166 185.754C323.984 185.24 323.161 185.457 323.343 185.984C323.626 186.803 323.917 187.628 324.2 188.446C324.383 188.96 325.206 188.737 325.024 188.216Z" fill="#DB7753"/>
<path d="M145.998 165.991C145.694 165.152 144.783 164.679 144.094 164.233C141.684 162.67 139.173 161.351 136.229 161.493C136.04 161.5 135.925 161.615 135.871 161.757C130.747 162.19 125.906 163.8 121.835 166.857C118.986 169.001 117.548 176.434 116.326 179.092C115.82 180.195 114.24 182.312 115.469 183.455C115.489 183.468 115.502 183.482 115.523 183.495C112.457 185.545 115.354 189.921 118.797 188.108C119.951 187.499 120.897 186.458 121.828 185.565C122.672 184.76 124.11 182.92 124.11 182.92C124.11 182.92 123.415 184.503 123.05 185.294C121.7 188.385 120.397 191.53 118.75 194.472C118.095 195.649 115.165 198.693 116.211 200.134C117.359 201.716 120.35 199.444 121.146 198.679C123.314 196.61 125.164 194.155 126.723 191.524C125.947 193.417 124.826 195.169 123.84 196.982C123.111 198.314 121.234 201.141 122.119 202.643C122.186 202.765 122.321 202.846 122.463 202.839C125.643 202.778 128.013 198.226 129.383 195.879C130.349 194.229 131.179 192.511 131.888 190.746C131.557 191.943 131.199 193.133 130.794 194.31C130.396 195.46 128.276 198.774 129.66 199.917C132.367 202.156 137.107 189.826 137.789 188.209C140.401 182.055 142.758 175.778 145.208 169.562C145.62 168.521 146.417 167.161 145.998 165.991Z" fill="#FFA280"/>
<path d="M120.951 182.075C119.648 180.993 117.852 181.324 116.691 182.433C116.292 182.819 116.9 183.421 117.298 183.042C118.095 182.278 119.27 181.967 120.242 182.609C121.221 183.252 121.342 184.584 120.526 185.402C120.134 185.795 120.742 186.397 121.133 186.011C122.24 184.888 122.173 183.083 120.951 182.075Z" fill="#DB7753"/>
<path d="M136.452 172.613C134.42 173.478 132.3 173.695 130.105 173.593C128.782 173.532 127.155 173.025 125.859 173.451C124.927 173.756 124.455 174.473 123.914 175.244C122.794 176.853 121.693 178.477 120.579 180.1C120.269 180.553 121.005 180.986 121.315 180.533C122.206 179.241 123.091 177.942 123.982 176.65C124.401 176.042 124.819 175.162 125.4 174.682C126.365 173.877 127.871 174.283 128.971 174.371C131.712 174.601 134.325 174.432 136.877 173.35C137.383 173.14 136.951 172.396 136.452 172.613Z" fill="#DB7753"/>
<path d="M137.978 178.862C136.337 177.367 134.865 175.717 133.569 173.911C133.252 173.465 132.509 173.891 132.833 174.344C134.17 176.211 135.682 177.922 137.377 179.471C137.775 179.836 138.383 179.234 137.978 178.862Z" fill="#DB7753"/>
<path d="M128.127 187.31C127.736 188.426 127.223 189.481 126.595 190.489C126.305 190.955 127.04 191.388 127.331 190.922C127.992 189.853 128.533 188.723 128.951 187.54C129.133 187.012 128.31 186.789 128.127 187.31Z" fill="#DB7753"/>
<path d="M132.421 188.5C132.151 189.224 131.793 189.907 131.368 190.556C131.064 191.016 131.807 191.449 132.104 190.989C132.57 190.279 132.941 189.521 133.238 188.73C133.441 188.216 132.617 187.993 132.421 188.5Z" fill="#DB7753"/>
<path d="M292.111 158.071C291.942 158.659 291.53 159.261 290.808 159.782C288.587 161.385 280.991 165.037 270.081 169.211C259.178 173.384 244.21 180.032 244.21 180.032L238.222 166.099C238.971 166.099 246.019 165.464 247.525 163.211C249.01 160.959 247.1 155.42 251.475 153.052C255.856 150.678 259.603 153.573 263.661 154.216C267.725 154.858 279.486 156.373 282.592 155.508C285.69 154.642 289.289 155.305 290.801 155.508C291.551 155.609 292.104 156.258 292.199 157.09C292.246 157.401 292.219 157.733 292.111 158.071Z" fill="#FFA280"/>
<path d="M257.558 162.535C256.795 164.787 254.371 165.443 252.305 165.971C251.772 166.106 251.995 166.931 252.535 166.796C254.931 166.187 257.51 165.335 258.381 162.765C258.557 162.237 257.733 162.014 257.558 162.535Z" fill="#DB7753"/>
<path d="M292.111 158.071C290.754 158.653 289.269 158.977 287.723 159.025C287.176 159.045 287.176 158.186 287.723 158.166C289.323 158.125 290.828 157.76 292.206 157.097C292.246 157.401 292.219 157.733 292.111 158.071Z" fill="#DB7753"/>
<path d="M223.436 46.7564C222.646 46.6482 221.991 47.1825 221.235 47.2975C220.769 47.3651 220.317 47.3042 219.905 47.0878C219.493 46.8714 219.169 46.4385 218.643 46.6076C218.251 46.7293 218.163 47.1825 218.332 47.5004C218.839 48.4541 220.25 48.8734 221.424 48.8396C222.234 48.8125 223.045 48.542 223.571 48.0347C223.76 47.8589 223.909 47.6424 223.942 47.4057C224.003 46.9796 223.767 46.797 223.436 46.7564Z" fill="#3B251D"/>
<path d="M235.926 46.7564C236.716 46.6482 237.371 47.1825 238.127 47.2975C238.593 47.3651 239.046 47.3042 239.457 47.0878C239.869 46.8714 240.193 46.4385 240.72 46.6076C241.111 46.7293 241.199 47.1825 241.03 47.5004C240.524 48.4541 239.113 48.8734 237.938 48.8396C237.128 48.8125 236.318 48.542 235.791 48.0347C235.602 47.8589 235.454 47.6424 235.42 47.4057C235.366 46.9796 235.602 46.797 235.926 46.7564Z" fill="#3B251D"/>
<path d="M224.834 42.2857C224.624 42.1505 224.388 42.0422 224.159 41.9678C221.607 41.1021 218.724 41.2644 216.28 42.4007C215.962 42.5495 215.638 42.7254 215.443 43.0162C214.626 44.2201 216.658 44.281 217.319 44.281C219.379 44.281 221.438 44.2675 223.497 44.2539C223.902 44.2539 224.321 44.2472 224.692 44.0916C225.063 43.936 225.394 43.5911 225.401 43.1853C225.408 42.7998 225.158 42.5022 224.834 42.2857Z" fill="#964A35"/>
<path d="M232.861 43.1853C232.868 43.5911 233.199 43.936 233.57 44.0916C233.941 44.2472 234.36 44.2539 234.765 44.2539C236.824 44.2675 238.883 44.281 240.943 44.281C241.604 44.281 243.636 44.2269 242.819 43.0162C242.624 42.7254 242.3 42.5495 241.982 42.4007C239.538 41.2644 236.655 41.1021 234.103 41.9678C233.874 42.0422 233.638 42.1505 233.428 42.2857C233.104 42.5022 232.854 42.7998 232.861 43.1853Z" fill="#964A35"/>
<path d="M231.97 56.8138C231.146 57.1317 230.316 57.4631 229.432 57.5375C228.729 57.5984 228.264 57.6119 227.744 57.0979C227.177 56.5365 227.298 56.1104 227.305 55.3259C227.332 53.4388 227.514 51.5518 227.737 49.6851C227.804 49.1372 226.947 49.144 226.88 49.6851C226.684 51.3489 226.535 53.0195 226.468 54.6969C226.434 55.5558 226.238 56.7192 226.744 57.4902C227.899 59.2487 230.714 58.2071 232.193 57.6322C232.706 57.4429 232.49 56.6177 231.97 56.8138Z" fill="#DB7753"/>
<path d="M235.271 59.269C233.685 60.0874 232.004 60.757 230.161 60.8111C228.797 60.8517 227.467 60.527 226.225 60.0197C225.651 59.783 225.05 59.4381 224.496 59.2013C224.152 59.0525 223.409 58.8429 223.76 59.4584C226.076 63.4827 233.354 63.7464 235.764 59.5395C235.933 59.2216 235.629 59.0796 235.271 59.269Z" fill="#DB7753"/>
<path d="M211.878 45.1129C210.271 43.7466 211.189 42.2045 211.756 40.5881C211.939 40.0673 211.115 39.8441 210.933 40.3581C210.575 41.3659 209.988 42.3195 210.069 43.4287C210.136 44.3351 210.595 45.1332 211.277 45.7148C211.689 46.0733 212.297 45.4713 211.878 45.1129Z" fill="#DB7753"/>
<path d="M248.659 39.5127C248.457 39.0054 247.633 39.2286 247.836 39.7426C248.376 41.1224 248.2 42.5428 247.336 43.7399C247.012 44.1863 247.755 44.6124 248.072 44.1728C249.058 42.8065 249.274 41.0751 248.659 39.5127Z" fill="#DB7753"/>
<path d="M241.111 18.6877C238.093 17.5041 234.657 17.0983 231.491 17.335C228.209 17.5785 224.348 19.5196 221.202 20.5477C215.085 22.5564 210.784 27.5547 210.44 34.0477C210.393 34.1086 210.359 34.183 210.359 34.2844C210.332 36.2526 210.42 38.7754 212.391 39.8711C213.14 40.2905 213.89 40.3108 214.713 40.1214C216.449 39.7291 217.853 39.418 219.635 39.4653C222.626 39.5397 225.016 38.5725 227.014 36.9425C226.549 38.1532 226.265 39.4991 227.284 40.0267C229.033 40.933 231.187 37.8826 232.132 36.8546C233.908 34.9134 235.44 32.7829 236.743 30.5307C236.642 31.4911 236.493 32.4447 236.271 33.3916C236.014 34.5144 235.049 36.1512 235.251 37.301C235.616 39.4112 238.161 37.1387 239.336 37.4227C239.781 37.5309 240.207 37.9706 240.672 38.1261C241.233 38.3087 241.813 38.3696 242.401 38.3764C243.447 38.3899 244.852 38.302 245.824 37.8759C247.89 36.9628 248.396 33.8651 248.497 31.8766C248.788 26.5266 246.033 20.6153 241.111 18.6877Z" fill="#964A35"/>
<path d="M187.917 116.32C185.784 112.16 186.648 107.52 186.635 103.043C186.621 98.3285 184.528 94.0675 184.454 89.3668C184.42 87.0198 184.582 84.6594 184.299 82.3259C184.042 80.1954 183.407 78.1393 182.739 76.1035C181.227 71.4772 179.667 66.8712 178.128 62.2517C177.952 61.7309 177.129 61.9541 177.304 62.4817C178.844 67.1012 180.403 71.7072 181.915 76.3334C182.732 78.8359 183.434 81.3317 183.583 83.9762C183.725 86.6005 183.441 89.2315 183.738 91.8423C183.833 92.6606 184.002 93.4587 184.197 94.2501C180.471 86.9996 177.493 79.4041 175.306 71.5381C175.157 71.0105 174.334 71.2337 174.482 71.768C176.973 80.7162 180.471 89.3194 184.933 97.4695C184.981 97.5507 185.041 97.598 185.102 97.6319C185.143 97.7942 185.19 97.9565 185.23 98.1188C185.804 100.459 185.818 102.819 185.73 105.214C185.588 109.184 185.311 113.127 187.175 116.759C187.431 117.246 188.167 116.813 187.917 116.32Z" fill="#EDA458"/>
<path d="M259.948 136.908C250.178 143.583 237.128 145.024 225.576 144.598C213.748 144.158 202.061 140.946 192.11 134.432C191.651 134.128 191.219 134.872 191.678 135.17C201.751 141.764 213.606 145.004 225.576 145.45C237.263 145.883 250.496 144.402 260.38 137.645C260.832 137.334 260.407 136.59 259.948 136.908Z" fill="#EDA458"/>
<path d="M268.812 123.09C263.904 127.966 258.044 131.612 251.495 133.837C250.975 134.013 251.198 134.838 251.724 134.662C258.408 132.39 264.403 128.677 269.42 123.699C269.811 123.313 269.203 122.704 268.812 123.09Z" fill="#EDA458"/>
<path d="M281.086 62.989C279.034 66.2152 278.095 69.8675 276.968 73.486C276.32 75.5624 275.584 77.632 274.483 79.5123C273.585 81.0476 272.397 82.4274 271.756 84.1048C271.135 85.728 271.249 87.3716 271.479 89.0692C271.81 91.5109 272.053 93.8849 271.884 96.3603C271.58 100.818 269.602 105.099 270.102 109.61C270.162 110.151 271.02 110.158 270.959 109.61C270.5 105.484 272.201 101.589 272.64 97.5372C272.863 95.454 272.863 93.3505 272.64 91.2741C272.377 88.846 271.682 86.4517 272.701 84.1048C273.437 82.4004 274.686 80.98 275.564 79.35C276.353 77.8823 276.948 76.3132 277.474 74.7305C278.75 70.8753 279.621 66.9051 281.829 63.4353C282.119 62.9551 281.383 62.529 281.086 62.989Z" fill="#EDA458"/>
<path d="M315.828 148.751C310.664 152.106 304.574 153.431 298.491 152.477C297.951 152.396 297.721 153.221 298.261 153.303C304.574 154.297 310.893 152.978 316.254 149.488C316.72 149.197 316.288 148.453 315.828 148.751Z" fill="#EDA458"/>
<path d="M158.036 155.65C152.615 152.748 147.092 150.07 141.462 147.608C140.962 147.391 140.523 148.129 141.029 148.345C146.66 150.8 152.189 153.485 157.611 156.387C158.09 156.651 158.522 155.907 158.036 155.65Z" fill="#EDA458"/>
<path d="M242.739 181.101C235.987 184.117 229.02 186.566 221.87 188.46C221.337 188.602 221.566 189.427 222.1 189.285C229.317 187.377 236.352 184.888 243.171 181.838C243.67 181.615 243.238 180.878 242.739 181.101Z" fill="#544743"/>
<path d="M237.337 163.543C236.345 161.25 235.028 157.483 232.395 156.536C231.605 156.252 230.91 156.333 230.14 156.59C228.054 157.293 226.967 158.538 224.564 158.078C221.809 157.55 219.804 156.488 217.016 157.361C215.692 157.773 214.99 157.983 213.566 157.794C212.749 157.685 211.959 157.543 211.129 157.543C209.542 157.543 208.03 157.895 206.551 158.47C206.045 158.666 206.268 159.498 206.781 159.295C208.421 158.659 210.123 158.308 211.891 158.429C213.228 158.517 214.558 158.998 215.902 158.7C217.178 158.416 218.184 157.692 219.568 157.753C220.999 157.821 222.356 158.423 223.733 158.761C225.61 159.228 227.136 159.153 228.851 158.24C229.985 157.631 230.964 156.732 232.524 157.537C233.401 157.99 234.09 159.086 234.61 159.89C235.427 161.162 236.014 162.589 236.615 163.976C236.817 164.483 237.553 164.043 237.337 163.543Z" fill="#544743"/>
<path d="M173.787 164.097C171.1 164.415 168.46 164.943 165.874 165.639C165.807 165.518 165.699 165.423 165.53 165.403C161.526 164.97 157.55 164.625 153.546 165.267C153.006 165.355 153.236 166.18 153.776 166.093C157.233 165.538 160.682 165.761 164.132 166.113C159.022 167.668 154.154 169.961 149.658 172.971C149.205 173.275 149.631 174.019 150.09 173.708C157.206 168.947 165.28 165.951 173.78 164.95C174.327 164.889 174.334 164.03 173.787 164.097Z" fill="#544743"/>
<path d="M315.187 181.703C310.184 174.134 302.643 168.609 293.995 166.093C299.092 166.512 304.034 167.77 308.362 170.881C308.807 171.206 309.239 170.462 308.794 170.144C300.8 164.395 290.741 164.801 281.383 165.376C280.836 165.409 280.83 166.268 281.383 166.235C284.306 166.052 287.297 165.89 290.275 165.923C290.322 166.018 290.403 166.099 290.545 166.126C300.307 168.061 308.942 173.823 314.444 182.142C314.748 182.589 315.491 182.163 315.187 181.703Z" fill="#544743"/>
<path d="M237.702 16.0634C237.587 15.5223 236.763 15.7523 236.878 16.2934C237.715 20.223 237.668 24.1324 236.75 28.0417C236.622 28.576 237.445 28.806 237.574 28.2716C238.525 24.2135 238.566 20.1351 237.702 16.0634Z" fill="#73301E"/>
<path d="M233.692 24.5179C232.22 28.7857 229.837 32.5395 226.616 35.6913C226.225 36.0768 226.826 36.6855 227.224 36.3C230.552 33.04 232.996 29.1509 234.515 24.7478C234.698 24.2271 233.874 24.0039 233.692 24.5179Z" fill="#73301E"/>
<path d="M243.292 10.213C242.867 9.86802 242.259 10.47 242.684 10.8217C248.119 15.2315 248.227 22.482 248.139 28.9142C248.133 29.4688 248.99 29.4688 248.997 28.9142C249.091 22.2588 248.909 14.7648 243.292 10.213Z" fill="#73301E"/>
<path d="M231.963 21.1902C230.849 25.6068 226.198 27.6223 223.733 31.1664C222.91 32.3433 222.302 33.3916 220.884 33.8313C220.128 34.0612 219.352 34.0003 218.616 34.2776C216.928 34.9067 216.037 36.7599 214.167 37.0236C213.627 37.098 213.856 37.9232 214.396 37.8488C216.428 37.558 217.441 35.5627 219.352 35.0487C221.465 34.4806 222.437 34.467 223.814 32.5732C225.448 30.321 227.231 28.6707 229.256 26.7904C230.89 25.2754 232.24 23.6048 232.794 21.4066C232.922 20.8791 232.098 20.6491 231.963 21.1902Z" fill="#73301E"/>
<path d="M235.92 8.14332C232.26 5.80313 226.049 5.14706 222.228 7.37904C221.755 7.65634 222.181 8.40033 222.66 8.11626C226.198 6.05338 232.105 6.71621 235.487 8.88054C235.953 9.1849 236.385 8.44091 235.92 8.14332Z" fill="#73301E"/>
</svg>
