<svg width="311" height="266" viewBox="0 0 311 266" fill="none" xmlns="http://www.w3.org/2000/svg">
<path d="M276.593 174.246C272.986 173.185 221.174 168.005 218.153 167.743C215.844 167.581 213.273 171.575 207.107 190.697C206.171 193.605 205.185 196.613 208.43 198.286C210.18 198.987 212.029 199.408 213.909 199.534L222.073 200.782C232.557 202.368 251.28 204.527 261.802 205.975C265.547 206.474 268.867 205.8 269.99 202.63C272.349 196.027 275.358 189.049 277.479 179.114C278.291 175.681 278.54 174.833 276.593 174.246Z" fill="#221F44"/>
<path d="M0.453767 221.877C9.70282 223.125 20.0004 224.373 26.8279 225.222C30.5725 225.721 33.8927 225.047 35.0285 221.889C37.3751 215.274 40.3957 208.296 42.5176 198.361C43.279 194.891 43.5287 194.042 41.5815 193.455C39.2599 192.769 16.83 190.347 0.391357 188.662L0.453767 221.877Z" fill="#221F44"/>
<path d="M0.453735 198.843L70.6802 194.154H71.2918C117.874 190.684 173.793 186.478 221.074 182.858H221.686C277.255 178.602 299.925 175.12 302.285 174.545C306.404 173.522 310.223 170.801 310.909 166.37C311.102 165.113 310.986 163.828 310.572 162.625C310.491 162.419 310.386 162.222 310.26 162.039C310.148 161.891 310.018 161.757 309.873 161.639C309.1 161.053 289.662 153.626 282.635 152.902C267.868 151.479 270.302 152.702 255.487 153.014C245.264 153.226 206.633 155.923 159.613 159.417L156.83 159.617C111.983 162.95 80.8618 164.867 38.6981 168.1L0.453735 170.634V198.843Z" fill="#9E4F47"/>
<path d="M261.344 263.075C259.341 264.332 254.964 263.504 254.853 263.435C252.975 262.261 255.433 259.292 257.739 258.615C258.526 258.394 255.185 244.322 253.196 241.118C250.876 237.361 240.684 230.719 233.462 225.858C232.081 228.123 231.183 231.161 233.531 235.414C234.539 237.237 236.085 238.77 236.541 240.855C236.767 242.956 236.56 245.08 235.934 247.097L234.235 255.729C233.875 258.352 233.344 260.949 232.647 263.504C232.484 264.074 232.156 264.583 231.703 264.966C231.251 265.35 230.695 265.591 230.106 265.658C227.598 265.951 225.068 265.997 222.552 265.796C221.295 262.924 224.665 260.41 227.04 260.134C227.993 260.023 229.664 246.656 229.733 242.885C229.733 239.985 225.397 233.647 221.005 227.695C216.779 221.977 212.54 216.647 212.181 215.045C211.283 211.081 214.031 201.994 212.346 198.238C212.301 198.123 212.273 198.002 212.263 197.879C210.621 195.597 208.705 193.524 206.56 191.706C196.355 183.42 191.369 175.921 188.607 170.094C188 170.674 187.364 171.24 186.729 171.792C184.202 173.96 182.268 175.631 178.788 175.051C178.112 174.941 176.924 174.761 175.377 174.554C166.553 173.367 145.893 171.005 138.229 171.171C138.159 171.168 138.091 171.149 138.029 171.115C137.968 171.081 137.915 171.034 137.875 170.976C137.835 170.919 137.809 170.853 137.798 170.784C137.788 170.714 137.793 170.644 137.815 170.577C139.679 166.337 144.333 165.868 148.42 166.047C154.593 166.31 160.767 166.917 166.953 166.917C169.696 166.975 172.437 166.776 175.143 166.324C175.681 166.227 176.206 166.116 176.717 165.978C177.619 165.855 178.478 165.511 179.215 164.976C179.952 164.441 180.546 163.732 180.943 162.913C181.633 161.435 182.089 159.819 182.628 158.286L185.003 151.547C185.914 146.852 188.138 142.087 188.98 135.431C188.98 135.238 188.98 135.058 188.98 134.879C188.621 132.117 186.149 130.363 185.293 127.808C184.437 125.253 185.155 122.519 184.671 119.895C184.036 116.539 181.095 114.854 178.291 113.418C178.204 113.359 178.14 113.271 178.112 113.169H177.974C175.888 112.037 174.19 109.745 172.809 107.894C171.732 106.3 171.244 104.381 171.428 102.467C171.524 100.92 171.511 98.1719 172.256 97.4814C173.002 96.791 175.709 98.0476 177.076 98.6553C178.963 99.6373 180.899 100.522 182.876 101.307C183.615 101.451 184.374 101.451 185.113 101.307C185.96 101.149 186.824 101.108 187.682 101.182C191.005 102.137 194.262 103.309 197.432 104.69C197.031 102.601 197.031 100.455 197.432 98.3653C197.628 97.2894 198.104 96.2843 198.813 95.4514C199.213 95.1476 199.683 95.189 200.194 95.9209C200.821 97.2853 201.209 98.7475 201.34 100.243C201.754 102.066 202.196 103.889 202.583 105.767C202.776 106.734 202.928 107.701 203.038 108.667C204.516 112.493 207.485 115.572 209.432 119.163C210.367 120.935 210.971 122.863 211.214 124.853C211.36 126.289 211.832 127.673 212.595 128.899C213.23 129.866 213.976 130.708 214.694 131.661C215.552 132.803 216.034 134.183 216.075 135.61C216.462 136.729 216.765 137.903 217.111 138.98C217.81 141.144 218.556 143.289 219.348 145.415C220.895 149.669 222.621 153.881 224.485 158.01C228.311 166.489 233.116 174.361 237.439 182.564C238.171 183.945 238.903 185.423 239.566 186.956C243.308 193.405 248.224 203.375 250.254 210.543C251.079 212.788 251.331 215.204 250.986 217.572C250.31 219.975 246.76 225.858 253.5 231.299C255.129 232.68 257.132 233.439 258.347 235.207C259.342 237.068 259.948 239.112 260.128 241.214L261.799 249.846C262.297 252.387 262.669 257.69 262.821 260.272C262.865 260.831 262.749 261.391 262.488 261.887C262.226 262.384 261.83 262.795 261.344 263.075Z" fill="#C4C4C4"/>
<path d="M211.089 181.376C208.476 178.247 205.582 175.362 202.445 172.759C198.943 169.917 195.942 166.509 193.565 162.678C192.398 160.592 191.689 158.281 191.487 155.899C191.284 153.518 191.593 151.121 192.391 148.868C193.661 144.725 195.664 140.844 196.272 136.522C196.825 132.425 196.297 128.254 194.739 124.424C193.979 122.563 192.981 120.809 191.769 119.204C190.154 117.091 187.958 115.227 187.088 112.631C185.859 109.013 188.041 104.179 185.127 101.238C184.388 101.381 183.629 101.381 182.89 101.238C180.913 100.453 178.977 99.568 177.09 98.5861C176.482 98.3099 175.612 97.9232 174.756 97.6194C173.692 97.2465 172.67 97.0394 172.27 97.4122C171.771 98.2451 171.522 99.2038 171.552 100.174C171.552 100.961 171.483 101.749 171.441 102.37C171.258 104.285 171.746 106.203 172.822 107.797C174.203 109.662 175.943 112.009 177.987 113.031H178.125C178.154 113.133 178.217 113.221 178.305 113.28C181.067 114.661 184.05 116.401 184.685 119.757C185.168 122.38 184.423 125.101 185.306 127.67C186.19 130.238 188.635 131.992 188.994 134.74C188.994 134.92 188.994 135.099 188.994 135.293C188.151 141.949 185.928 146.713 185.016 151.409L182.641 158.148C182.103 159.681 181.647 161.297 180.956 162.774C180.559 163.594 179.966 164.303 179.229 164.838C178.491 165.373 177.633 165.717 176.731 165.84C176.22 165.978 175.695 166.089 175.156 166.185C175.156 166.475 175.156 166.765 175.156 167.055C175.225 169.486 175.156 171.958 175.363 174.416C176.91 174.623 178.125 174.803 178.774 174.913C182.255 175.493 184.188 173.822 186.715 171.654C187.35 171.102 187.986 170.535 188.593 169.955C191.355 175.783 196.327 183.296 206.546 191.568C208.821 193.513 210.847 195.73 212.581 198.169C214.035 196.431 214.989 194.331 215.343 192.093C215.909 188.516 213.271 184.221 211.089 181.376Z" fill="#F7F7F7"/>
<path d="M168.748 154.323C167.533 143.565 163.224 133.608 159.758 123.43C155.947 112.189 154.566 100.671 153.323 88.9053C152.595 81.9267 151.91 74.9528 151.265 67.9834C151.265 67.5553 150.561 67.6796 150.602 68.1077C150.644 68.5358 150.671 68.812 150.699 69.171C148.045 70.3867 145.557 71.9367 143.297 73.7835C141.011 75.4817 139.071 77.6002 137.58 80.0256C136.323 82.4147 137.345 85.4529 137.745 87.9524L139.513 98.7517C140.576 105.284 141.64 111.705 144.761 117.602C147.882 123.499 151.666 128.857 154.538 134.865C157.752 141.643 160.22 148.751 161.899 156.063C161.911 156.113 161.934 156.16 161.965 156.2C161.997 156.241 162.038 156.274 162.083 156.298C162.129 156.321 162.18 156.335 162.231 156.337C162.283 156.339 162.334 156.331 162.382 156.311C164.346 155.473 166.42 154.924 168.541 154.682C168.61 154.652 168.667 154.601 168.705 154.537C168.742 154.472 168.757 154.397 168.748 154.323Z" fill="#C27353"/>
<path d="M116.92 52.3507C119.83 53.8487 122.957 54.8831 126.187 55.4165C127.954 50.1963 129.846 45.0314 131.904 39.9632C132.525 38.4027 131.904 36.7041 131.6 34.9502C131.319 33.7948 130.705 32.7477 129.832 31.9397C127.167 29.3377 125.127 26.1645 123.866 22.6595C124.543 21.9113 125.287 21.2271 126.09 20.6156C126.394 20.3808 126.09 19.8561 125.772 20.0908C122.14 22.8528 119.71 27.1477 117.762 31.6359C115.387 37.0908 113.385 42.7804 111.258 48.3734C112.925 49.9883 114.836 51.3305 116.92 52.3507Z" fill="#C27353"/>
<path d="M144.222 11.4598C144.017 11.5016 143.805 11.5017 143.6 11.46C143.395 11.4184 143.2 11.3358 143.027 11.2172C142.854 11.0987 142.707 10.9466 142.595 10.77C142.482 10.5934 142.406 10.3959 142.372 10.1893C137.217 8.77551 131.983 7.66877 126.697 6.87495C122.126 6.25351 118.315 5.70111 115.649 8.72547C112.363 18.2128 115.746 35.9171 115.815 35.9447C117.334 39.3557 117.873 40.9024 121.339 42.753C123.935 44.1339 129.735 47.1997 133.768 47.1583C138.118 47.1583 139.61 45.3216 141.833 40.8058C144.788 34.7847 145.617 26.1811 146.142 21.6101C146.666 17.039 147.053 13.9732 146.142 11.2527C145.498 11.281 144.857 11.3501 144.222 11.4598Z" fill="#C27353"/>
<path d="M141.557 28.1007C141.281 29.2193 141.46 30.2412 141.957 30.3517C142.455 30.4622 143.076 29.6612 143.338 28.5288C143.601 27.3964 143.421 26.4021 142.938 26.2778C142.455 26.1535 141.833 26.9683 141.557 28.1007Z" fill="#221F44"/>
<path d="M182.586 103.834C182.393 104.607 182.517 105.298 182.862 105.381C183.207 105.463 183.636 104.897 183.815 104.124C183.995 103.35 183.884 102.66 183.539 102.577C183.194 102.494 182.765 103.06 182.586 103.834Z" fill="#221F44"/>
<path d="M130.73 27.562C130.509 28.6944 130.73 29.7025 131.241 29.7992C131.752 29.8958 132.332 29.0396 132.553 27.9072C132.774 26.7748 132.553 25.7667 132.042 25.67C131.531 25.5734 130.951 26.4158 130.73 27.562Z" fill="#221F44"/>
<path d="M139.513 37.8364C139.513 37.8364 139.513 37.8364 139.513 37.7674C139.513 37.6983 139.375 37.7674 139.181 37.7674C136.93 38.1122 134.634 38.0278 132.415 37.5188H132.318C132.097 37.5188 131.876 37.8364 131.931 38.085C132.187 38.8442 132.668 39.5079 133.309 39.9887C133.95 40.4694 134.721 40.7446 135.522 40.7779C136.258 40.7083 136.972 40.4871 137.618 40.1282C138.265 39.7694 138.83 39.2806 139.278 38.6926C139.485 38.2231 139.568 38.0712 139.513 37.8364Z" fill="#C26359"/>
<path d="M139.154 37.7953C136.903 38.1401 134.607 38.0558 132.387 37.5468C132.713 38.1803 133.197 38.7191 133.792 39.111C134.387 39.5029 135.073 39.7347 135.784 39.7839C136.506 39.7171 137.206 39.5038 137.843 39.1571C138.479 38.8105 139.038 38.3377 139.485 37.7677C139.43 37.671 139.347 37.7677 139.154 37.7953Z" fill="white"/>
<path d="M127.236 23.6538C127.567 24.2338 131.476 24.3029 133.326 24.22C133.851 24.22 134.5 24.3995 134.969 24.0267C136.047 23.1705 134.472 22.0795 133.685 21.8309C132.711 21.4986 131.677 21.3749 130.652 21.4676C129.627 21.5604 128.632 21.8677 127.733 22.3695C127.498 22.5904 127.056 23.3362 127.236 23.6538Z" fill="#F6F6F6"/>
<path d="M141.225 22.2728C142.832 22.1227 144.452 22.3595 145.948 22.9633C145.948 23.5295 145.865 24.0958 145.81 24.6758V25.1177C142.275 25.0348 140.065 24.6343 139.596 24.1648C138.477 23.06 140.328 22.2728 141.225 22.2728Z" fill="#F6F6F6"/>
<path d="M145.341 57.6952C142.813 51.9227 135.812 49.7407 129.556 48.194C129.197 48.1111 109.463 44.9625 99.2433 47.2549C95.4318 48.1111 89.1621 76.5595 90.7226 91.5293C92.1036 90.6317 91.3993 89.5821 92.5593 91.3636C94.0942 93.7108 94.9322 96.445 94.9761 99.2491C94.9761 99.8153 95.0589 100.381 95.0727 100.948C96.8128 101.155 98.539 101.293 100.307 101.362C104.864 101.555 109.449 101.445 114.02 101.597C118.315 101.735 122.623 102.398 126.904 102.301C131.185 102.204 130.688 108.364 126.904 109.206C128.382 109.344 129.846 109.496 131.31 109.689C136.654 95.0923 145.713 70.6626 146.128 67.3897C146.735 64.1458 146.463 60.7985 145.341 57.6952Z" fill="#C27353"/>
<path d="M135.867 257.593C136.406 258.643 137.994 258.974 138.961 259.457C142.137 260.907 145.341 262.33 148.627 263.6C150.025 264.237 151.495 264.701 153.005 264.981C153.765 265.092 154.994 265.354 155.643 264.788C156.071 264.415 157.024 261.598 155.891 261.57L155.781 261.487C154.436 260.96 153.051 260.544 151.638 260.244C149.912 259.734 148.227 258.96 146.542 258.283L136.613 254.279C136.568 254.254 136.517 254.24 136.466 254.238C136.414 254.236 136.363 254.246 136.316 254.268C136.269 254.289 136.227 254.321 136.195 254.362C136.163 254.402 136.14 254.449 136.129 254.5C135.95 255.452 135.37 256.64 135.867 257.593Z" fill="#221F44"/>
<path d="M135.77 230.401C136.494 236.593 136.789 242.826 136.654 249.058C136.654 251.586 136.212 251.406 136.06 253.919C136.06 255.148 136.185 256.46 137.607 256.681C137.773 256.681 147.536 261.391 150.133 262.067C151.417 262.399 155.353 264.042 156.32 262.247C157.093 260.797 154.359 258.78 153.558 257.952C151.331 255.794 149.228 253.512 147.26 251.116C145.325 248.774 144.039 245.964 143.532 242.968C143.014 239.47 143.014 235.915 143.532 232.417C143.532 232.252 139.748 232.625 137.041 231.492C136.792 231.368 135.715 230.111 135.77 230.401Z" fill="#C27353"/>
<path d="M117.459 32.7685C117.942 33.597 120.124 36.4695 121.367 35.4476C122.195 34.7709 122.306 32.2713 122.43 31.3046C122.651 29.5784 122.817 27.8383 122.996 26.0983C123.071 26.1143 123.148 26.1052 123.217 26.0726C123.286 26.04 123.342 25.9857 123.376 25.918C123.411 25.8503 123.422 25.7731 123.408 25.6983C123.395 25.6236 123.357 25.5554 123.3 25.5045C121.394 24.0268 119.309 23.2258 117.666 25.5045C116.944 26.5702 116.541 27.8197 116.504 29.1063C116.468 30.3929 116.799 31.6633 117.459 32.7685Z" fill="#C27353"/>
<path d="M120.234 26.4157C119.986 26.0704 120.566 25.739 120.828 26.0704C121.284 26.5395 121.641 27.0953 121.878 27.705C122.116 28.3146 122.228 28.9657 122.209 29.6195C122.181 29.8796 122.075 30.125 121.905 30.3239C121.809 30.4205 121.629 30.4481 121.546 30.531L121.312 30.6139C120.317 31.8015 120.303 32.6439 121.312 33.1687C121.657 33.4173 121.312 33.9973 120.966 33.7487C120.082 33.072 119.088 32.0915 119.82 30.9177C120.179 30.3377 120.69 30.3515 121.201 29.9648C122.278 29.0395 120.87 27.2995 120.234 26.4157Z" fill="#9E4F47"/>
<path d="M147.26 251.074C146.587 250.196 145.974 249.273 145.424 248.313L145.051 248.147C144.616 247.979 144.144 247.929 143.683 248.002C143.222 248.074 142.789 248.267 142.427 248.561C142.234 248.699 142.068 248.865 141.888 249.017C141.087 249.721 140.922 250.011 139.734 249.914C138.713 249.758 137.756 249.317 136.972 248.644C136.932 248.621 136.887 248.609 136.841 248.609C136.795 248.609 136.749 248.621 136.71 248.644V249.127C136.71 251.655 136.268 251.461 136.116 253.988C136.116 255.204 136.24 256.529 137.662 256.75C137.828 256.75 147.592 261.446 150.188 262.136C151.472 262.468 155.408 264.111 156.375 262.302C157.148 260.921 154.414 258.836 153.613 258.021C151.368 255.825 149.247 253.506 147.26 251.074Z" fill="#221F44"/>
<path d="M158.571 256.543C159.109 257.593 160.711 257.924 161.678 258.408C164.84 259.789 168.044 261.28 171.345 262.551C172.738 263.187 174.203 263.651 175.709 263.932C176.482 264.056 177.697 264.304 178.36 263.738C178.774 263.379 179.741 260.548 178.595 260.521L178.484 260.438C177.14 259.911 175.754 259.495 174.341 259.195C172.601 258.684 170.917 257.911 169.246 257.234L159.33 253.243C159.284 253.221 159.234 253.209 159.184 253.209C159.133 253.208 159.083 253.219 159.037 253.24C158.99 253.261 158.95 253.292 158.917 253.331C158.884 253.369 158.86 253.415 158.847 253.464C158.667 254.403 158.087 255.66 158.571 256.543Z" fill="#221F44"/>
<path d="M158.474 229.421C159.197 235.612 159.492 241.846 159.358 248.078C159.358 250.605 158.93 250.426 158.778 252.939C158.695 254.168 158.902 255.48 160.324 255.701C160.476 255.701 170.24 260.396 172.85 261.073C174.134 261.404 178.07 263.048 179.037 261.252C179.81 259.871 177.076 257.786 176.275 256.958C174.042 254.778 171.934 252.472 169.964 250.053C168.042 247.707 166.757 244.906 166.235 241.919C165.724 238.416 165.724 234.857 166.235 231.354C166.235 231.188 162.451 231.575 159.744 230.443C159.496 230.318 158.433 229.075 158.474 229.421Z" fill="#C27353"/>
<path d="M170.047 250.025C169.369 249.146 168.751 248.224 168.196 247.263C168.078 247.194 167.953 247.138 167.823 247.097C167.39 246.931 166.921 246.881 166.463 246.954C166.004 247.027 165.573 247.219 165.213 247.512C165.02 247.65 164.854 247.815 164.675 247.967C163.86 248.672 163.694 248.962 162.506 248.865C161.484 248.713 160.525 248.272 159.744 247.594C159.703 247.569 159.655 247.555 159.606 247.555C159.558 247.555 159.51 247.569 159.468 247.594V248.064C159.468 250.591 159.04 250.412 158.888 252.925C158.805 254.14 159.013 255.466 160.435 255.687C160.587 255.687 170.35 260.396 172.961 261.073C174.245 261.404 178.181 263.048 179.147 261.239C179.921 259.858 177.186 257.786 176.385 256.958C174.142 254.77 172.025 252.455 170.047 250.025Z" fill="#221F44"/>
<path d="M146.57 12.7993C146.722 10.4516 146.57 7.78632 144.775 6.01866C142.344 3.8966 139.532 2.25629 136.489 1.18521C133.7 0.0114522 130.611 -0.249585 127.664 0.439475C125.991 0.997274 124.235 1.26353 122.472 1.22664C121.141 1.09256 119.796 1.18124 118.494 1.48902C116.088 2.12631 113.985 3.59376 112.556 5.63198C110.789 8.18681 110.692 11.4183 109.297 14.1527C108.068 16.5832 107.419 18.9999 108.607 21.61C109.204 22.735 109.972 23.7601 110.885 24.6482C112.01 26.17 112.698 27.9703 112.874 29.8545C113.247 31.5393 114.586 34.1908 116.768 33.0998C117.187 32.83 117.512 32.4364 117.698 31.9737C117.883 31.511 117.921 31.0021 117.804 30.5173C117.597 29.6717 117.445 28.8138 117.348 27.9487C117.365 27.3292 117.535 26.7234 117.844 26.1859C118.152 25.6484 118.589 25.1959 119.116 24.8691C119.17 24.8554 119.222 24.832 119.268 24.8001L119.516 24.6343C120.161 24.1609 120.909 23.8484 121.698 23.7229C122.266 23.7292 122.832 23.6643 123.383 23.5296C123.681 23.3749 123.944 23.1619 124.158 22.9033C124.371 22.6447 124.53 22.3457 124.626 22.0243C125.068 20.8504 125.096 19.5523 125.496 18.3647C125.981 16.9151 126.879 15.6385 128.078 14.6912C130.399 12.8683 133.768 12.4402 136.641 12.3712C139.799 12.2547 142.96 12.4722 146.073 13.0203C146.28 13.0755 146.57 12.9236 146.57 12.7993Z" fill="#BABABA"/>
<path d="M138.16 26.7059C138.712 28.8878 141.736 34.9918 137.138 34.5775C136.71 34.5775 136.848 33.8732 137.276 33.9146C140.728 34.2323 137.925 28.4735 137.524 26.9268C137.428 26.5125 138.063 26.2916 138.16 26.7059Z" fill="#CC6C59"/>
<path d="M134.459 33.7074C134.855 33.7828 135.263 33.7828 135.66 33.7074C136.088 33.7074 136.143 34.3288 135.66 34.3841C135.198 34.4379 134.731 34.4099 134.279 34.3012C133.906 34.2736 134.044 33.6107 134.459 33.7074Z" fill="#CC6C59"/>
<path d="M124.198 191.955C124.032 195.379 123.632 198.777 123.203 202.188C122.953 203.353 122.97 204.559 123.252 205.716C123.535 206.874 124.075 207.953 124.833 208.872C125.9 210.127 126.702 211.586 127.191 213.159C127.68 214.732 127.845 216.389 127.678 218.028C127.457 221.397 125.813 229.711 125.275 233.025C125.048 234.366 124.96 235.726 125.013 237.085C125.353 237.477 125.754 237.813 126.2 238.08C127.862 238.904 129.667 239.401 131.517 239.543C135.204 240.082 138.974 240.082 142.689 240.441C145.147 240.676 147.605 240.883 150.064 241.104C151.044 229.849 152.508 213.484 153.268 202.257C153.709 195.518 154.073 188.765 154.358 181.998C154.593 176.059 155.325 169.721 154.165 163.838C151.983 152.79 139.886 148.923 131.089 144.338C126.145 141.756 129.142 142.957 125.385 138.814C121.242 134.147 118.632 128.264 115.539 122.864C114.027 119.976 112.301 117.207 110.374 114.578C108.399 112.134 105.651 111.305 102.682 110.711C95.6092 109.314 88.3986 108.739 81.1938 108.999C81.1416 108.955 81.0756 108.931 81.0074 108.931C80.9392 108.931 80.8732 108.955 80.821 108.999C80.7541 109.007 80.6911 109.034 80.6397 109.078C80.5883 109.121 80.5508 109.179 80.5317 109.244C80.5126 109.308 80.5129 109.377 80.5324 109.441C80.5518 109.506 80.5898 109.563 80.6414 109.606C79.2605 117.602 78.2938 127.932 76.9542 135.845C75.7666 142.75 73.9575 150.304 76.0842 157.292C77.9347 163.368 82.8096 167.194 88.6235 169.306C92.1945 170.453 95.8336 171.375 99.5195 172.068C103.202 172.897 106.816 173.891 110.36 175.051C117.887 177.509 117.265 176.515 124.17 180.354C124.381 184.218 124.39 188.09 124.198 191.955Z" fill="#A16E4A"/>
<path d="M151.127 192.203C150.948 195.628 150.561 199.025 150.133 202.436C149.882 203.599 149.898 204.803 150.181 205.959C150.463 207.114 151.004 208.191 151.762 209.107C154 211.869 153.544 218.552 153.295 222.102C153.047 225.651 151.914 228.689 151.417 232.017C151.334 232.459 151.279 232.929 151.238 233.398C152.594 234.995 154.464 236.07 156.527 236.436C160.952 237.124 165.434 237.378 169.909 237.196C171.607 237.196 174.052 236.961 176.468 237.002C177.352 226.783 179.506 212.752 180.183 202.478C180.634 195.729 181.002 188.976 181.288 182.219C181.523 176.281 182.255 169.928 181.095 164.059C178.913 153.011 166.815 149.144 158.018 144.559C153.074 141.977 135.412 134.45 132.318 129.051C130.716 126.289 132.028 116.94 129.998 114.426C127.968 111.913 125.275 111.167 122.306 110.573C115.233 109.178 108.023 108.599 100.818 108.847C100.763 108.81 100.698 108.79 100.631 108.79C100.565 108.79 100.5 108.81 100.445 108.847C100.379 108.857 100.318 108.886 100.268 108.931C100.219 108.975 100.183 109.033 100.166 109.097C100.148 109.161 100.149 109.229 100.17 109.293C100.19 109.356 100.228 109.412 100.279 109.455C98.8983 117.45 97.9316 127.78 96.5782 135.693C95.3905 142.681 93.5953 150.152 95.7082 157.14C97.5587 163.23 102.447 167.056 108.248 169.168C111.826 170.304 115.469 171.226 119.157 171.93C122.803 172.759 118.55 169.555 122.113 170.715C129.639 173.173 144.208 176.709 151.113 180.548C151.321 184.43 151.326 188.321 151.127 192.203Z" fill="#A16E4A"/>
<path d="M151.238 67.224C149.746 53.7732 133.05 48.3045 129.142 47.7245C129.146 47.4327 129.174 47.1418 129.225 46.8545C127.001 47.8402 124.565 48.2532 122.14 48.0559C118.329 47.9455 113.689 47.8488 110.526 45.4459C101.688 44.9349 82.6441 49.3817 80.697 65.2216C80.2827 68.6879 79.095 72.0437 78.4321 75.4685C77.7031 78.9684 77.3971 82.5431 77.5207 86.1159C77.7921 89.7898 77.5269 93.4835 76.7335 97.0809C75.2697 103.005 72.5906 108.888 73.502 115.117C73.7368 116.636 74.1511 118.113 74.4135 119.632C74.6784 121.501 74.6318 123.4 74.2754 125.253C73.9301 127.545 74.2754 129.755 76.4435 130.957C78.6117 132.158 81.7051 131.951 84.2737 131.813H84.7432C87.5032 131.962 90.2692 131.962 93.0292 131.813C106.508 131.412 135.757 134.368 136.171 134.271C138.933 133.567 138.395 132.655 138.256 129.769C138.633 125.462 139.321 121.188 140.314 116.981C140.77 115.365 147.219 94.3604 147.329 92.0127C147.7 87.5429 148.623 83.1361 150.078 78.8934C151.255 75.1232 151.65 71.1522 151.238 67.224Z" fill="#FFCA66"/>
<path d="M142.689 41.3444C142.869 39.3419 142.689 37.3533 140.963 36.0828C139.364 34.7541 137.303 34.1135 135.232 34.3013H134.693C132.757 34.242 130.862 34.8735 129.349 36.0828C128.647 36.8168 128.099 37.6834 127.736 38.6319C127.373 39.5804 127.203 40.5918 127.236 41.6067C127.153 43.4434 126.808 46.4126 128.617 47.6416C129.405 48.0872 130.295 48.3204 131.199 48.3183C132.58 48.4426 133.851 48.6083 135.19 48.6912C136.779 48.7741 138.947 48.8845 140.19 47.6831C141.686 45.8958 142.563 43.6719 142.689 41.3444ZM134.997 43.1673C134.068 43.0965 133.145 42.9581 132.235 42.753C131.916 42.6768 131.616 42.5384 131.351 42.3456C131.086 42.1529 130.861 41.9096 130.69 41.6298C130.52 41.35 130.406 41.0392 130.356 40.7153C130.306 40.3913 130.32 40.0607 130.398 39.7424C130.387 39.1907 130.519 38.6455 130.783 38.161C131.047 37.6765 131.434 37.2695 131.904 36.9804C132.745 36.744 133.604 36.5732 134.472 36.4695C135.308 36.3697 136.093 36.0181 136.723 35.4613C137.138 36.8423 138.56 36.7457 139.623 37.6295C140.335 38.4937 140.73 39.5756 140.742 40.6953C140.789 40.8997 140.789 41.1123 140.742 41.3167C140.608 41.8654 140.292 42.3525 139.845 42.6985C139.399 43.0446 138.849 43.2293 138.284 43.2225C137.189 43.2974 136.089 43.2789 134.997 43.1673Z" fill="#F6F6F6"/>
<path d="M154.966 180.907C154.531 175.9 153.123 171.026 150.823 166.558C148.196 162.087 145.084 157.919 141.543 154.129C141.267 153.798 140.797 154.281 141.073 154.599C144.565 158.352 147.639 162.473 150.243 166.89C152.708 171.81 154.119 177.191 154.386 182.688C155.238 193.96 154.97 205.289 153.585 216.508C153.585 216.936 154.207 216.936 154.248 216.508C155.804 204.704 156.045 192.764 154.966 180.907Z" fill="#221F44"/>
<path d="M176.593 118.79C175.571 117.878 134.293 103.751 128.617 97.4122C124.888 93.2693 121.325 88.8639 117.68 84.5967L116.299 86.1986C113.675 89.3887 111.079 92.6202 108.579 95.8655C108.119 96.5836 107.658 97.3018 107.198 98.0199C107.695 98.5723 108.179 99.1247 108.689 99.6632C112.813 104.034 117.693 107.622 123.093 110.255C134.804 116.194 148.117 119.121 160.78 122.325C168.127 124.19 168.597 123.9 175.971 125.515C175.979 125.552 175.995 125.587 176.017 125.618C176.039 125.648 176.067 125.674 176.099 125.694C176.131 125.713 176.167 125.726 176.205 125.731C176.242 125.735 176.28 125.733 176.316 125.722C176.372 125.695 177.684 119.729 176.593 118.79Z" fill="#C27353"/>
<path d="M200.249 121.925C200.249 121.538 199.945 121.358 199.641 121.207C198.272 120.759 196.842 120.526 195.401 120.516C192.912 120.238 190.406 120.146 187.903 120.24C187.903 119.867 188.041 119.936 187.903 119.618C189.305 119.46 190.717 119.391 192.129 119.411C194.407 119.411 196.658 119.895 198.923 119.839C198.966 119.84 199.009 119.83 199.047 119.811C199.086 119.791 199.119 119.762 199.143 119.726C199.168 119.691 199.183 119.65 199.188 119.607C199.193 119.564 199.187 119.52 199.172 119.48C199.007 119.108 198.749 118.786 198.422 118.543C198.095 118.301 197.711 118.148 197.307 118.099C195.825 117.778 194.32 117.579 192.805 117.506C189.712 117.298 181.854 117.381 181.081 117.506C181.757 117.008 182.462 117.105 183.235 116.677C184.008 116.249 184.533 116 184.519 115.144C184.509 115.074 184.474 115.011 184.421 114.965C184.368 114.92 184.3 114.895 184.229 114.895C182.069 114.626 179.885 114.626 177.725 114.895C176.85 115.191 176.015 115.595 175.239 116.097C174.118 116.679 172.883 117.009 171.621 117.064C171.579 117.065 171.538 117.077 171.501 117.097C171.464 117.118 171.433 117.147 171.41 117.182C171.387 117.217 171.373 117.258 171.369 117.299C171.365 117.341 171.371 117.384 171.386 117.423C171.499 117.918 171.802 118.349 172.228 118.624C171.897 122.09 172.477 125.322 176.261 126.344C178.553 126.951 191.051 128.029 194.214 127.407C194.96 127.255 195.995 127.614 196.258 126.717C196.314 126.549 196.324 126.368 196.285 126.195C196.246 126.023 196.16 125.864 196.037 125.736H196.52C197.003 125.736 198.067 125.667 198.288 125.073C198.895 123.375 191.383 123.292 187.64 123.375C187.64 123.375 187.64 123.278 187.64 123.223C190.002 123.223 192.377 123.223 194.739 123.223C195.76 123.085 200.249 123.554 200.249 121.925Z" fill="#C27353"/>
<path d="M277.584 187.839C274.416 184.22 270.844 180.977 266.936 178.172C266.892 178.147 266.842 178.132 266.792 178.129C266.741 178.125 266.69 178.133 266.642 178.151C266.595 178.17 266.552 178.199 266.517 178.236C266.482 178.273 266.455 178.317 266.439 178.366C266.271 179.189 266.293 180.04 266.504 180.854C266.715 181.667 267.108 182.422 267.654 183.061C269.145 184.557 270.114 186.494 270.416 188.585C270.521 189.955 270.342 191.333 269.892 192.631C268.974 195.261 267.053 197.421 264.547 198.638C254.88 203.237 245.697 195.283 240.27 188.101C240.225 188.047 240.166 188.006 240.099 187.985C240.032 187.964 239.96 187.963 239.893 187.982C239.825 188.001 239.765 188.039 239.719 188.093C239.673 188.146 239.643 188.211 239.634 188.281C237.383 189.11 233.434 191.043 234.732 193.957C234.967 194.468 235.395 194.703 235.698 195.145C236.596 196.443 236.058 197.741 235.947 199.136C235.83 200.903 236.036 202.676 236.555 204.37C237.187 206.428 238.277 208.317 239.745 209.893C240.584 210.805 241.546 211.595 242.603 212.241C245.674 214.008 249.245 214.703 252.754 214.216C255.239 214.023 256.593 215.183 258.278 216.729C259.308 217.807 260.642 218.544 262.103 218.842C265.334 219.326 268.207 217.213 269.988 214.699C270.501 213.939 270.962 213.145 271.369 212.324C271.704 211.346 272.168 210.417 272.75 209.562C273.979 208.361 276.203 208.885 277.639 207.836C280.277 205.889 281.23 201.994 281.437 198.901C281.563 196.893 281.288 194.881 280.626 192.981C279.964 191.082 278.93 189.334 277.584 187.839Z" fill="#C4C4C4"/>
<path d="M196.382 106.513C195.843 104.773 192.239 97.0118 191.286 96.0451C190.913 95.6723 190.609 95.5756 190.375 95.6723C189.449 96.0313 189.339 99.0971 189.297 99.8152C189.274 103.454 189.777 107.078 190.789 110.573C190.784 110.605 190.784 110.638 190.789 110.67C190.828 110.729 190.888 110.771 190.957 110.789C191.026 110.807 191.099 110.799 191.162 110.766C191.211 110.821 191.276 110.859 191.348 110.874C191.42 110.888 191.495 110.88 191.562 110.849C192.405 110.435 194.393 109.952 194.752 108.902C195.111 107.853 196.686 107.452 196.382 106.513Z" fill="#C4C4C4"/>
<path d="M159.275 92.7033C158.902 89.6789 158.294 86.6546 157.645 83.6716C156.282 77.3569 154.436 71.1564 152.121 65.125C150.299 60.3744 146.308 54.16 141.074 52.6133C140.825 52.6133 142.013 53.9943 141.999 54.2428C141.968 54.269 141.945 54.3022 141.93 54.3395C139.168 60.9406 138.905 68.1494 139.168 75.1924C139.264 78.9901 139.485 82.774 139.416 86.5717C139.347 90.3694 138.974 94.2224 138.574 98.0477C138.574 98.2411 138.74 98.3653 138.905 98.3792C141.915 98.704 144.954 98.6529 147.951 98.2272C149.327 97.9634 150.667 97.5369 151.942 96.9567C153.414 96.2719 155.028 95.9454 156.651 96.0039C158.819 96.1143 159.524 94.8576 159.275 92.7033Z" fill="#FFCA66"/>
<path d="M277.763 186.431C274.67 182.771 273.4 180.907 266.992 178.145C266.798 178.062 266.522 178.145 266.495 178.338C266.327 179.162 266.349 180.013 266.559 180.826C266.77 181.64 267.163 182.395 267.71 183.033C269.201 184.53 270.169 186.467 270.472 188.557C270.577 189.928 270.398 191.305 269.947 192.604C270.223 194.44 270.171 196.31 269.795 198.128C268.856 202.271 265.431 203.969 261.592 204.77C257.741 205.439 253.794 205.317 249.992 204.411C246.484 203.679 239.331 199.467 239.151 200.475C239.137 200.52 239.137 200.568 239.151 200.613C238.637 203.684 238.864 206.832 239.814 209.797C240.653 210.708 241.616 211.498 242.673 212.145C245.743 213.912 249.314 214.607 252.823 214.119C255.309 213.926 256.662 215.086 258.347 216.633C259.377 217.71 260.712 218.447 262.172 218.746C265.404 219.229 268.276 217.116 270.058 214.603C270.57 213.842 271.031 213.049 271.439 212.228C271.773 211.249 272.237 210.32 272.82 209.466C274.049 208.264 276.272 208.789 277.708 207.739C280.346 205.792 281.299 201.898 281.506 198.804C281.783 194.364 280.455 189.973 277.763 186.431Z" fill="#F7F7F7"/>
<path d="M174.756 97.6748C174.596 98.3418 174.29 98.9646 173.858 99.4977C173.664 99.8051 173.356 100.023 173.002 100.105C172.753 100.105 172.477 100.105 172.215 100.105C171.99 100.131 171.768 100.178 171.552 100.243C171.522 99.273 171.771 98.3144 172.27 97.4815C172.67 97.0948 173.692 97.302 174.756 97.6748Z" fill="#221F44"/>
<path d="M179.41 108.792C176.951 109.496 174.231 107.853 172.505 106.251C172.187 105.961 171.718 106.444 172.035 106.734C173.969 108.502 176.924 110.228 179.617 109.496C179.71 109.469 179.789 109.405 179.835 109.32C179.882 109.234 179.893 109.134 179.865 109.04C179.838 108.947 179.774 108.868 179.689 108.822C179.603 108.775 179.503 108.764 179.41 108.792Z" fill="#221F44"/>
<path d="M199.586 105.657C199.586 105.933 199.296 106.044 199.089 105.947C198.394 105.697 197.811 105.208 197.445 104.566C197.045 102.477 197.045 100.33 197.445 98.241C197.641 97.1651 198.118 96.16 198.826 95.3271C198.875 95.3691 198.912 95.4229 198.934 95.4834C198.956 95.5439 198.961 95.609 198.951 95.6724C198.633 97.4073 198.55 99.1769 198.702 100.934C198.909 102.577 199.462 104.083 199.586 105.657Z" fill="#221F44"/>
<path d="M191.852 104.428C190.875 101.593 190.376 98.6157 190.375 95.6172C189.449 95.9762 189.339 99.042 189.297 99.7601C189.274 103.399 189.777 107.022 190.789 110.518C190.784 110.55 190.784 110.583 190.789 110.615C190.789 110.615 191.176 110.615 191.3 110.532C192.75 108.695 192.474 106.513 191.852 104.428Z" fill="#221F44"/>
<path d="M262.89 260.134C262.739 257.552 262.366 252.249 261.869 249.708L260.198 241.076C260.017 238.974 259.411 236.93 258.416 235.069C257.201 233.301 255.198 232.473 253.569 231.161C246.83 225.706 250.379 219.837 251.055 217.434C251.4 215.066 251.149 212.65 250.323 210.405C249.002 208.964 247.497 207.701 245.849 206.648C243.487 204.86 241.382 202.755 239.593 200.393C239.578 200.327 239.541 200.268 239.488 200.225C239.436 200.183 239.371 200.159 239.303 200.158C239.249 200.152 239.194 200.158 239.141 200.175C239.089 200.191 239.041 200.218 238.999 200.254C235.768 201.484 235.174 205.143 234.47 208.14C233.917 210.46 233.089 212.421 230.921 213.595C229.277 214.479 227.689 215.072 226.916 216.882C226.142 218.691 226.391 220.472 225.811 222.198C225.065 224.408 222.911 225.388 221.488 227.073C221.315 227.276 221.154 227.488 221.005 227.708C225.397 233.647 229.774 239.985 229.733 242.899C229.664 246.669 227.993 260.037 227.04 260.148C224.665 260.424 221.295 262.91 222.552 265.81C225.068 266.011 227.598 265.965 230.106 265.672C230.695 265.604 231.251 265.364 231.703 264.98C232.156 264.597 232.484 264.088 232.647 263.517C233.344 260.963 233.875 258.366 234.235 255.742L235.934 247.111C236.56 245.094 236.767 242.97 236.541 240.869C236.085 238.784 234.539 237.251 233.531 235.428C231.183 231.175 232.067 228.137 233.462 225.872C240.684 230.733 250.876 237.375 253.196 241.132C255.185 244.336 258.527 258.408 257.739 258.629C255.433 259.292 252.975 262.275 254.853 263.448C254.964 263.517 259.341 264.346 261.344 263.089C261.868 262.808 262.296 262.376 262.571 261.849C262.847 261.322 262.958 260.725 262.89 260.134Z" fill="#F7F7F7"/>
<path d="M214.238 130.1C214.003 129.051 213.534 126.427 212.181 126.247C210.981 126.39 209.811 126.721 208.714 127.228L204.654 128.457C199.13 130.142 193.634 131.877 188.165 133.663C188.113 133.674 188.065 133.699 188.026 133.736C187.987 133.772 187.958 133.819 187.944 133.87C187.927 133.907 187.918 133.947 187.918 133.988C187.918 134.028 187.927 134.068 187.944 134.105C188.082 135.21 188.22 136.315 188.345 137.419C188.347 137.47 188.361 137.52 188.385 137.565C188.409 137.61 188.443 137.649 188.484 137.679C188.525 137.71 188.572 137.731 188.622 137.741C188.672 137.751 188.723 137.749 188.773 137.737C193.229 136.947 197.616 135.807 201.892 134.326C205.897 133.042 210.178 132.158 214.059 130.501C214.13 130.465 214.188 130.406 214.22 130.333C214.253 130.26 214.259 130.177 214.238 130.1Z" fill="#565494"/>
<path d="M248.928 214.092C247.174 213.07 245.006 212.89 243.404 211.606C241.554 210.101 240.988 207.67 240.463 205.461C240.366 205.033 239.717 205.212 239.814 205.627C240.126 207.83 241.034 209.907 242.438 211.634C244.095 213.374 246.581 213.498 248.569 214.672C248.646 214.72 248.739 214.735 248.827 214.714C248.915 214.693 248.991 214.638 249.039 214.561C249.086 214.485 249.102 214.392 249.081 214.304C249.06 214.216 249.005 214.14 248.928 214.092Z" fill="#C4C4C4"/>
<path d="M238.295 219.754C237.9 221.403 236.949 222.867 235.602 223.897C235.27 224.159 235.602 224.739 235.947 224.477C237.429 223.367 238.487 221.783 238.944 219.989C238.975 219.903 238.971 219.808 238.932 219.725C238.893 219.642 238.823 219.578 238.737 219.547C238.651 219.516 238.556 219.52 238.473 219.559C238.39 219.598 238.326 219.668 238.295 219.754Z" fill="#C4C4C4"/>
<path d="M192.501 164.666C191.573 166.492 190.134 168.009 188.358 169.03C188.282 169.074 188.225 169.147 188.202 169.233C188.179 169.318 188.19 169.409 188.234 169.486C188.278 169.563 188.351 169.619 188.436 169.643C188.522 169.666 188.613 169.654 188.69 169.61C190.546 168.525 192.052 166.929 193.026 165.012C193.275 164.625 192.695 164.28 192.501 164.666Z" fill="#C4C4C4"/>
<path d="M192.86 125.391C191.39 125.376 189.922 125.256 188.469 125.032C188.041 125.032 187.861 125.612 188.289 125.681C189.803 125.913 191.33 126.042 192.86 126.068C193.289 126.082 193.289 125.405 192.86 125.391Z" fill="#9E4F47"/>
<path d="M118.246 81.6552C117.076 76.4523 115.243 71.4212 112.791 66.6853C112.842 66.7098 112.898 66.7218 112.955 66.7204C113.011 66.719 113.067 66.7043 113.117 66.6773C113.167 66.6504 113.209 66.612 113.242 66.5654C113.274 66.5188 113.294 66.4652 113.302 66.4091C113.527 62.9551 112.871 59.5006 111.396 56.3693C111.203 55.9688 110.623 56.3693 110.816 56.7008C112.222 59.7199 112.844 63.0445 112.625 66.3677C111.181 63.6078 109.529 60.9624 107.681 58.4546C107.433 58.1094 106.839 58.4546 107.101 58.7999C112.143 65.6736 115.707 73.5164 117.569 81.8347C117.693 82.2628 118.343 82.0833 118.246 81.6552Z" fill="#221F44"/>
<path d="M147.951 71.7813C147.951 71.367 147.232 71.3531 147.274 71.7813C147.702 75.3994 146.114 78.8381 146.114 82.4425C146.114 86.4888 146.114 90.1208 144.581 93.9599C144.415 94.3604 145.064 94.5399 145.23 94.1394C146.509 90.6043 147.045 86.8432 146.804 83.0915C146.652 79.2662 148.337 75.6066 147.951 71.7813Z" fill="#221F44"/>
<path d="M103.759 100.091L102.378 101.238C101.95 101.597 101.204 102.467 100.666 102.619C99.0915 103.061 98.0696 100.078 97.5724 99.1247C96.3434 96.7909 95.0729 94.4708 93.7609 92.2198C91.1923 87.7178 88.4441 83.34 85.5579 79.0452C85.3231 78.6861 84.7293 79.0452 84.9779 79.3766C88.6237 84.8177 92.0485 90.4245 95.1972 96.1418C95.9981 97.6332 96.7991 99.1247 97.5724 100.616C97.9057 101.504 98.4128 102.316 99.0639 103.005C100.832 104.386 102.986 101.624 104.243 100.589C104.588 100.299 104.104 99.8152 103.759 100.091Z" fill="#221F44"/>
<path d="M95.4733 116.318C88.9483 115.999 82.4897 117.754 77.0233 121.331C76.6643 121.566 77.0233 122.146 77.3686 121.911C82.7321 118.398 89.0694 116.673 95.4733 116.981C95.9428 117.008 95.9428 116.332 95.4733 116.318Z" fill="#221F44"/>
<path d="M98.5392 120.171C94.8929 120.195 91.271 120.767 87.7952 121.87C87.3947 121.994 87.5604 122.643 87.9747 122.519C91.3921 121.433 94.9537 120.87 98.5392 120.848C98.6173 120.832 98.6874 120.79 98.7378 120.728C98.7882 120.666 98.8158 120.589 98.8158 120.509C98.8158 120.43 98.7882 120.353 98.7378 120.291C98.6874 120.229 98.6173 120.187 98.5392 120.171Z" fill="#221F44"/>
<path d="M128.617 48.9259C127.123 50.0328 125.413 50.8138 123.598 51.2182C121.783 51.6226 119.903 51.6415 118.08 51.2735C114.904 50.7764 110.94 49.8925 108.634 47.4758C108.33 47.1582 107.861 47.6277 108.164 47.9454C110.706 50.5692 115.069 51.5912 118.619 52.0883C120.447 52.3867 122.318 52.3117 124.117 51.8678C125.916 51.424 127.606 50.6206 129.086 49.5059C129.432 49.133 128.948 48.6635 128.617 48.9259Z" fill="#221F44"/>
</svg>
