<svg width="295" height="309" viewBox="0 0 295 309" fill="none" xmlns="http://www.w3.org/2000/svg">
<path d="M62.4631 151.146C62.4631 151.146 64.4066 214.03 64.3115 218.137C64.2013 222.976 73.4281 236.615 78.1566 222.3C82.8852 207.989 90.8296 148.686 90.8296 148.686L62.4631 151.146Z" fill="#D4A281"/>
<path d="M70.2875 291.034C70.1672 292.261 70.1472 294.1 70.1522 296.083C68.0935 296.143 66.0347 296.219 63.976 296.209C63.1895 296.204 62.4031 296.178 61.6217 296.153C61.6868 294.115 60.4896 261.701 60.9354 238.619C61.231 223.422 66.7911 205.865 66.7911 205.865C66.7911 205.865 72.5415 207.197 76.9895 213.073C78.7027 215.337 79.2537 228.546 79.2537 232.884C79.2537 252.529 73.363 262.898 70.5479 288.575C70.4578 289.366 70.3676 290.193 70.2875 291.034Z" fill="#D4A281"/>
<path d="M119.957 151.146C119.957 151.146 120.408 212.602 119.732 216.654C119.056 220.707 109.038 236.791 104.314 222.48C99.5856 208.169 92.2673 148.691 92.2673 148.691L119.957 151.146Z" fill="#D4A281"/>
<path d="M106.107 213.073C110.56 207.197 119.857 210.553 119.857 210.553C119.857 210.553 121.425 295.908 121.48 296.279C121.66 297.521 126.965 298.312 127.927 298.798C129.77 299.745 135.21 300.491 137.098 301.333C138.822 302.104 140.855 302.916 142.163 304.323C142.588 304.774 142.939 305.335 142.879 305.986C142.874 306.051 142.864 306.117 142.854 306.167V306.172C142.794 306.497 142.664 306.713 142.488 306.863C142.027 307.254 141.251 307.153 140.515 307.158C139.658 307.173 138.802 307.193 137.95 307.213C136.187 307.259 130.927 307.314 129.169 307.344C125.743 307.399 118.78 307.399 115.379 306.933C112.724 306.577 113.04 304.388 112.98 302.144C112.88 298.513 113.055 293.519 112.81 291.039C112.729 290.193 112.639 289.371 112.554 288.575C109.739 262.898 103.347 252.529 103.347 232.884C103.342 228.546 104.394 215.332 106.107 213.073Z" fill="#D4A281"/>
<path d="M112.8 220.787C113.952 223.176 114.678 225.681 114.983 228.315C115.034 228.746 114.357 228.741 114.307 228.315C114.017 225.801 113.32 223.406 112.218 221.127C112.028 220.737 112.609 220.396 112.8 220.787Z" fill="#87524D"/>
<path d="M55.4051 307.123C55.4001 307.379 55.4503 307.614 55.5955 307.814C55.7458 308.01 56.0013 308.1 56.2518 308.125C56.7326 308.18 57.2185 308.225 57.7043 308.255C57.9247 308.275 58.1502 308.29 58.3706 308.3C58.9767 308.335 59.5877 308.355 60.1988 308.36C60.4243 308.365 60.6447 308.375 60.8751 308.375C61.6565 308.391 62.4329 308.396 63.2143 308.411H63.3847C63.56 308.411 63.7402 308.416 63.9206 308.416C64.9224 308.421 65.9192 308.421 66.921 308.411C67.1514 308.406 67.3819 308.406 67.6123 308.395C68.6843 308.37 69.7612 308.335 70.8331 308.275C71.1988 308.255 71.5745 308.23 71.8851 308.04C72.4411 307.704 72.6164 306.968 72.5212 306.327C72.386 305.36 69.8713 294.806 69.8062 294.726C69.706 294.12 69.2403 293.929 69.1501 293.323C69.09 292.892 68.4388 293.073 68.5039 293.498C68.5691 293.979 68.6592 294.45 68.7394 294.931C67.422 294.661 66.1146 294.385 64.7872 294.13C64.0659 293.989 63.3847 293.749 62.7385 294.205C62.0222 294.711 61.6314 295.873 61.2057 296.589C60.5395 297.731 59.8733 298.863 59.2071 300.005C58.4657 301.263 57.7094 302.51 57.0031 303.792C56.6174 304.473 55.4302 306.016 55.4051 307.123Z" fill="#D4A281"/>
<path d="M138.912 304.273C139.818 304.659 140.755 305.064 141.516 305.696C141.922 306.031 142.233 306.427 142.483 306.858C142.659 306.707 142.789 306.492 142.849 306.166V306.161C142.669 305.891 142.448 305.635 142.203 305.4C141.366 304.609 140.299 304.133 139.252 303.692C138.862 303.522 138.516 304.103 138.912 304.273Z" fill="#87524D"/>
<path d="M117.107 295.492C117.392 296.689 117.593 297.897 117.728 299.119C117.773 299.55 117.102 299.545 117.052 299.119C116.927 297.957 116.721 296.81 116.456 295.673C116.356 295.247 117.007 295.066 117.107 295.492Z" fill="#87524D"/>
<path d="M73.1374 224.358C73.6132 222.6 74.3946 220.987 75.4866 219.529C75.7421 219.184 76.3331 219.524 76.0676 219.87C75.0107 221.283 74.2444 222.835 73.7836 224.539C73.6734 224.954 73.0222 224.779 73.1374 224.358Z" fill="#87524D"/>
<path d="M66.6559 220.085C67.6376 221.723 68.1085 223.542 68.0283 225.45C68.0083 225.881 67.337 225.886 67.3521 225.45C67.4272 223.652 67.0014 221.969 66.0697 220.426C65.8493 220.05 66.4355 219.71 66.6559 220.085Z" fill="#87524D"/>
<path d="M66.9114 308.406C67.1418 308.401 67.3722 308.401 67.6026 308.391C67.9081 307.133 68.4541 305.946 69.0152 304.759C69.2055 304.368 68.6244 304.023 68.434 304.413C67.8179 305.721 67.2219 307.028 66.9114 308.406Z" fill="#87524D"/>
<path d="M63.2095 308.406H63.3798C63.5551 308.406 63.7354 308.411 63.9157 308.411C64.2463 307.309 64.6521 306.237 65.138 305.185C65.3133 304.794 64.7322 304.448 64.5519 304.849C64.0209 306.001 63.5701 307.188 63.2095 308.406Z" fill="#87524D"/>
<path d="M60.199 308.36C60.4244 308.365 60.6448 308.375 60.8752 308.375C61.0656 307.429 61.3962 306.527 61.867 305.666C62.0774 305.28 61.4864 304.944 61.281 305.32C60.7501 306.277 60.3893 307.293 60.199 308.36Z" fill="#87524D"/>
<path d="M57.6997 308.25C57.9201 308.27 58.1456 308.285 58.366 308.295C58.4611 307.339 58.5963 306.392 58.8117 305.445C58.9119 305.024 58.2657 304.844 58.1655 305.27C57.9351 306.257 57.7949 307.254 57.6997 308.25Z" fill="#87524D"/>
<path d="M124.831 196.783C120.734 197.104 116.636 197.424 112.544 197.74C107.5 198.136 102.456 198.531 97.4116 198.922C96.0441 199.027 93.5345 199.829 92.5928 198.411C91.6962 197.069 91.8917 190.297 91.9367 188.774C92.0119 186.214 92.3725 176.627 92.0018 174.077C91.7263 172.214 91.0551 170.456 90.4491 168.687C90.4541 173.165 90.5091 184.656 90.2135 189.124C90.1284 190.437 90.0833 196.312 89.8479 197.61C89.7627 198.066 89.6475 198.461 89.2167 198.707C88.4754 199.138 87.2832 198.957 86.4768 198.992C85.2596 199.047 84.0424 199.097 82.8202 199.138C77.6358 199.308 72.4264 199.308 67.272 198.647C65.4086 198.406 63.5703 198.056 61.752 197.63C61.6168 197.6 61.4815 197.565 61.3412 197.535C60.094 197.234 58.8517 196.904 57.6145 196.548C57.9501 190.627 58.0553 173.16 58.461 167.235C58.9319 160.342 58.6463 153.024 59.9687 146.242C60.6299 142.835 62.283 139.77 62.6085 136.239C62.9542 132.487 62.6786 128.63 64.3116 125.133C64.3517 125.043 65.1131 124.898 66.2652 124.663C66.4255 124.632 66.5958 124.597 66.7761 124.557C68.4041 124.222 70.613 123.721 72.7068 122.98C72.8821 122.919 73.0524 122.854 73.2278 122.789C74.1745 122.429 75.0862 122.018 75.8926 121.547C78.873 119.799 82.5847 122.489 86.081 121.767C89.6675 121.031 93.5396 121.677 97.1461 121.923L103.603 122.363C105.346 122.484 107.214 122.428 108.922 122.829C111.783 123.5 115.965 127.082 115.965 127.082C115.965 127.082 117.463 135.322 118.375 138.573C119.607 146.036 120.609 153.545 121.906 161.003C123.309 169.013 124.361 188.649 124.831 196.783Z" fill="#DB6E4F"/>
<path d="M73.293 121.892C73.273 122.188 73.2479 122.489 73.2278 122.789C72.6668 129.997 71.2844 137.671 65.5089 142.595C65.4488 142.645 65.3836 142.665 65.3235 142.66C64.6022 151.681 63.891 160.703 63.1396 169.719C62.6938 175.079 61.9174 192.135 61.7521 197.63C61.6168 197.6 61.4816 197.565 61.3413 197.535C61.3814 196.488 61.4415 190.933 61.5167 189.886C62.228 180.133 63.1596 163.378 63.941 153.63L66.2653 124.662L66.3053 124.167C66.3303 123.846 66.8362 123.846 66.8062 124.167C66.7962 124.297 66.7862 124.427 66.7762 124.557C66.3454 129.957 65.9096 135.357 65.4738 140.757C65.4437 141.182 65.4087 141.613 65.3736 142.039C70.8085 137.235 72.1559 129.907 72.7069 122.979C72.7419 122.614 72.7671 122.253 72.7921 121.892C72.8122 121.572 73.3131 121.572 73.293 121.892Z" fill="#C25738"/>
<path d="M95.1374 114.128C95.1273 121.417 95.1173 128.7 95.1023 135.988C95.0973 139.429 95.1625 142.891 94.8118 146.322C94.5113 149.252 94.0654 153.68 91.4657 155.604C91.6911 152.157 91.8765 148.706 91.6761 145.255C91.4657 141.653 90.529 138.322 89.7225 134.836C88.7508 130.643 89.5222 126.711 90.5591 122.614C90.6393 122.303 90.1534 122.168 90.0783 122.479C89.1666 126.075 88.315 129.712 88.9312 133.433C89.2267 135.207 89.7627 136.925 90.1985 138.663C90.6994 140.676 91.0049 142.72 91.1502 144.789C91.6861 152.568 90.1834 160.317 90.5591 168.101C90.5741 168.422 91.075 168.422 91.06 168.101C90.8697 164.144 91.1602 160.197 91.4257 156.25C93.8401 154.737 94.5013 151.511 94.9621 148.906C95.6033 145.295 95.5982 141.608 95.6032 137.952C95.6182 130.012 95.6283 122.068 95.6383 114.128C95.6383 113.803 95.1374 113.803 95.1374 114.128Z" fill="#C25738"/>
<path d="M88.16 130.137C87.9496 132.186 87.3685 134.09 87.3735 136.173C87.3835 140.807 87.6089 144.949 86.3817 149.493H88.9664C90.0533 145.019 89.8881 140.787 89.878 136.173C89.873 133.969 90.5493 131.886 90.6946 129.697C90.8449 127.357 90.4141 125.078 89.5826 122.899C89.0166 121.407 86.5921 122.053 87.1682 123.566C87.9746 125.679 88.3954 127.868 88.16 130.137Z" fill="white"/>
<path d="M95.854 138.387H98.3586C98.1782 133.614 97.5621 128.885 96.5052 124.217C96.1496 122.644 93.7353 123.31 94.0909 124.883C95.1028 129.341 95.6837 133.829 95.854 138.387Z" fill="white"/>
<path d="M157.32 22.1717C157.42 23.2236 157.701 24.2805 157.896 25.3174C158.061 26.184 158.107 27.2308 158.517 28.0323C159.284 29.54 161.603 28.8488 162.94 28.7786C163.08 28.7686 163.151 28.6685 163.161 28.5633C163.166 28.5633 163.166 28.5633 163.171 28.5633C163.947 28.3028 164.293 27.4262 164.638 26.755C165.775 24.551 166.822 22.3069 167.148 19.8224C167.168 19.6671 167.078 19.5219 166.908 19.5219C164.613 19.5269 162.139 19.2664 159.87 19.6521C158.452 19.8925 157.17 20.5838 157.32 22.1717Z" fill="#D4A281"/>
<path d="M111.903 74.2912C113.345 75.7689 116.621 74.6168 118.555 74.8973C123.373 75.5986 141.161 78.7192 145.924 79.676C148.299 80.1518 150.688 80.5125 153.097 80.768C155.086 80.9733 157.425 81.4091 159.404 81.0284C163.095 80.3121 161.933 77.9379 161.588 75.1578C161.352 73.2694 161.172 71.7216 159.499 70.6296C157.866 69.5576 156.018 67.8896 154.159 67.3136C145.223 64.5636 130.326 58.3623 125.773 57.0399C121.615 55.8328 118.309 54.9712 116.301 54.6055C116.301 54.5404 115.399 54.4402 115.194 54.4052C114.888 54.3501 115.184 65.7257 112.98 70.3641C112.373 71.6464 110.61 72.9638 111.903 74.2912Z" fill="#D4A281"/>
<path d="M159.404 81.0234C159.404 81.0234 166.337 82.7415 167.058 71.1755C167.779 59.6096 163.477 26.1639 163.477 26.1639L159.119 24.7864L156.504 26.3092C156.504 26.3092 152.892 66.6523 154.089 72.1673C155.287 77.6823 159.404 81.0234 159.404 81.0234Z" fill="#D4A281"/>
<path d="M147.46 21.9459L172.836 21.418L172.744 16.9658L147.368 17.4938L147.46 21.9459Z" fill="#383057"/>
<path d="M139.989 18.9609C140.064 22.5925 142.298 25.4878 144.978 25.4327C147.658 25.3776 149.767 22.3871 149.691 18.7555C149.616 15.1239 147.382 12.2287 144.702 12.2838C142.023 12.3389 139.914 15.3293 139.989 18.9609Z" fill="#383057"/>
<path d="M175.169 24.7554C177.849 24.6997 179.96 21.7105 179.885 18.0789C179.809 14.4473 177.575 11.5485 174.895 11.6042C172.215 11.66 170.104 14.6492 170.179 18.2808C170.255 21.9124 172.489 24.8112 175.169 24.7554Z" fill="#383057"/>
<path d="M157.115 29.6353C157.115 29.6353 152.977 27.4964 152.732 24.3106C152.486 21.1299 152.466 17.3379 154.68 15.3644C156.894 13.3908 157.305 12.7847 158.517 13.2405C159.73 13.6963 156.794 17.0675 156.639 18.2747C156.484 19.4818 159.249 19.4818 161.122 22.7527C162.995 26.0237 161.312 31.8342 161.312 31.8342L157.115 29.6353Z" fill="#D4A281"/>
<path d="M162.595 22.3019C163.907 22.4572 165.22 22.4622 166.282 21.5105C168.01 19.9677 168.29 16.3311 166.592 14.6531C165.59 13.6663 164.188 13.6562 162.926 13.5861C161.533 13.506 159.835 13.1703 158.588 14.0569C157.616 14.7482 156.874 16.291 156.699 17.5283C156.248 20.6539 160.526 22.0515 162.595 22.3019Z" fill="#D4A281"/>
<path d="M157.956 14.5278C158.132 14.2724 158.552 14.5078 158.377 14.7633C157.175 16.5214 155.146 20.5087 158.347 21.3552C158.347 21.3452 158.342 21.3351 158.347 21.3201C158.647 19.4016 159.168 17.5633 159.905 15.7701C160.02 15.4846 160.441 15.72 160.326 16.0055C159.604 17.7587 159.103 19.5669 158.813 21.4403C158.813 21.4453 158.808 21.4504 158.808 21.4504C159.469 21.5606 160.16 21.5556 160.837 21.5756C161.152 19.7523 161.643 17.9891 162.309 16.261C162.419 15.9754 162.885 16.0906 162.775 16.3812C162.119 18.0742 161.638 19.8124 161.322 21.6007C161.412 21.6057 161.503 21.6057 161.593 21.6157C162.184 21.6658 162.85 21.8411 163.506 21.9663C163.847 20.3183 164.248 18.6854 164.703 17.0674C164.789 16.7719 165.254 16.8871 165.169 17.1876C164.718 18.7955 164.323 20.4135 163.982 22.0465C164.413 22.1066 164.834 22.1216 165.219 22.0415C165.52 21.9763 165.66 22.4371 165.355 22.5023C164.719 22.6375 164.243 22.5323 163.612 22.4021C162.67 22.2067 161.723 22.1016 160.761 22.0515C160.245 22.0264 159.699 22.0214 159.163 21.9763C159.98 23.0232 160.636 24.4859 160.621 25.8033C160.616 26.1138 160.135 26.1239 160.14 25.8133C160.16 24.561 159.504 23.1184 158.703 22.1567C158.637 22.0815 158.632 21.9914 158.658 21.9162C158.041 21.8211 157.45 21.6307 156.954 21.235C154.946 19.597 156.859 16.1358 157.956 14.5278Z" fill="#87524D"/>
<path d="M153.228 68.5759C153.233 68.2653 153.713 68.2553 153.708 68.5659C153.693 69.7981 153.623 71.0303 153.493 72.2575C153.463 72.5631 152.982 72.5731 153.012 72.2676C153.147 71.0404 153.218 69.8131 153.228 68.5759Z" fill="#DE795B"/>
<path d="M19.3649 19.5719C17.1659 19.2413 14.7666 19.5419 12.5476 19.587C12.3823 19.592 12.3021 19.7322 12.3221 19.8825C12.6878 22.2819 13.7448 24.4358 14.8918 26.5446C15.2375 27.1858 15.5881 28.0273 16.3494 28.2627C16.3544 28.2627 16.3544 28.2627 16.3595 28.2627C16.3745 28.3679 16.4446 28.4631 16.5798 28.4681C17.8772 28.5132 20.1363 29.1293 20.8476 27.6566C21.2233 26.8752 21.2483 25.8583 21.3936 25.0168C21.5639 24.01 21.8094 22.9781 21.8845 21.9563C21.9947 20.4185 20.7324 19.7773 19.3649 19.5719Z" fill="#D4A281"/>
<path d="M65.774 67.7243C63.545 63.2762 63.605 52.2613 63.3095 52.3164C63.1091 52.3564 62.2376 52.4717 62.2376 52.5318C60.2991 52.9225 57.1183 53.8291 53.1161 55.0814C48.7331 56.4539 34.4372 62.7603 25.8417 65.6005C24.0534 66.1915 22.3001 67.8495 20.7373 68.9165C19.1444 70.0085 18.9942 71.5112 18.8089 73.3445C18.5334 76.0444 17.4564 78.3686 21.0429 78.9847C22.9714 79.3153 25.2255 78.8495 27.1439 78.604C29.4682 78.3135 31.7774 77.9128 34.0665 77.4069C38.6598 76.3901 55.8159 73.0089 60.4694 72.2325C62.3327 71.9219 65.5336 72.9688 66.8961 71.5112C68.1283 70.1988 66.3901 68.9565 65.774 67.7243Z" fill="#D4A281"/>
<path d="M67.9534 52.647L81.6031 50.453H95.8489L110.876 54.7758V63.4766C110.876 63.4766 92.4578 77.2516 89.267 76.941C86.0763 76.6304 71.2093 64.4784 70.6483 63.7922C70.0873 63.1059 67.9534 52.647 67.9534 52.647Z" fill="#D4A281"/>
<path d="M111.342 24.2705C111.582 23.3438 112.153 22.6476 112.223 21.6658C112.288 20.714 112.038 19.7824 111.863 18.8507C111.617 17.5032 111.577 16.1558 111.532 14.7883C111.472 12.8147 111.327 10.8161 110.34 9.03288C109.233 7.02424 107.39 5.17588 105.551 3.76332C103.938 2.52107 102.07 1.68455 100.016 1.63947C98.6237 0.983283 97.141 0.287028 95.6032 0.081656C92.1569 -0.37918 88.3851 1.19868 85.2544 2.5862C84.5081 2.6964 83.7718 2.88169 83.0605 3.10209C80.6311 3.84844 78.4921 5.0757 77.4452 7.3949C76.9243 8.55701 76.704 9.79927 76.4936 11.0365C76.3583 11.838 76.2481 12.6695 75.612 13.2806C75.1662 13.7063 74.555 13.9518 74.0591 14.3174C71.9904 15.8552 72.1557 18.8707 71.9353 21.1148C71.9252 21.225 71.9803 21.2951 72.0605 21.3301C72.0655 21.3301 72.1908 22.1566 72.2459 22.2719C72.4112 22.6375 72.6717 22.893 73.0023 23.1084C73.7336 23.5943 74.6503 23.6944 75.4217 24.1002C76.3283 24.5811 77.245 24.9367 78.1817 25.2172C78.1917 25.2473 78.2117 25.2773 78.2417 25.3074C78.8278 25.9085 79.519 26.3843 80.3606 26.6097C81.3874 26.8902 82.4043 26.6548 83.4462 26.7199C84.6134 26.79 85.6702 27.311 86.8523 27.3561C88.1797 27.4062 89.4972 27.316 90.8296 27.4162C93.4995 27.6216 96.1392 28.1225 98.8241 28.1125C101.374 28.1075 103.928 27.842 106.473 27.6717C107.605 27.5965 108.802 27.6116 109.924 27.4262C110.53 27.326 111.056 27.1407 111.292 26.5546C111.562 25.8534 111.151 25.0018 111.342 24.2705Z" fill="#7D4949"/>
<path d="M106.889 12.1385C106.523 10.9664 105.822 9.95953 104.94 9.10298C104.139 8.33158 103.192 7.68541 102.211 7.16446C96.8608 4.32932 89.9583 4.67997 84.9242 8.05108C82.3846 9.75417 80.7066 12.0082 80.3159 15.0538C79.83 18.8156 79.4091 22.6025 79.5945 26.3993C79.7948 30.5719 80.7566 34.7796 82.9656 38.321C85.1796 41.8624 88.736 44.6825 92.8435 45.4188C95.8239 45.9548 97.6522 45.4339 100.112 43.5956C102.786 41.5919 104.8 38.5965 105.401 35.4157C106.248 30.9626 106.674 26.4795 106.924 21.9814C106.954 21.4254 106.984 20.8644 107.009 20.3083C107.054 19.3416 107.089 18.3698 107.124 17.4031C107.184 15.6499 107.415 13.8416 106.889 12.1385Z" fill="#D4A281"/>
<path d="M82.0187 36.648C82.0187 36.648 81.7683 21.4955 81.5178 21.3703C81.2674 21.245 75.5069 21.4304 75.6321 21.746C75.7574 22.0615 82.0187 36.648 82.0187 36.648Z" fill="#7D4949"/>
<path d="M97.2164 57.9766C96.6855 56.4589 96.7305 54.876 96.6704 53.3131L96.5 48.6146C96.3898 45.5641 96.2797 42.5136 96.1695 39.4631C96.1444 38.8119 97.0711 37.9353 96.3949 37.4394C95.5634 36.8283 93.73 37.0236 92.7482 37.1288C91.1954 37.2991 85.7707 34.0983 84.3231 34.5592C83.2962 34.8848 82.0238 36.648 82.0238 36.648C82.0238 36.648 80.6513 50.493 80.2606 52.5568C79.9651 54.1096 79.1786 55.8678 79.349 57.4456C79.4792 58.6628 82.2292 59.2589 83.4314 59.855C85.0644 60.6615 86.8676 61.2876 88.736 61.6633C90.2587 61.9688 91.8517 62.0991 93.2993 61.523C95.0825 60.8067 95.7437 59.319 97.1412 58.2221C97.2113 58.1619 97.2465 58.0618 97.2164 57.9766Z" fill="#D4A281"/>
<path d="M92.5783 26.4444C92.7686 25.8383 92.7936 25.132 92.6032 24.6211C92.2826 23.7545 91.3109 23.8848 91.0154 24.7764C90.825 25.3524 90.7499 25.9636 90.79 26.5697C90.805 26.7901 90.8401 27.0104 90.9453 27.2108C91.0505 27.4061 91.2508 27.5714 91.4762 27.5965C91.7216 27.6215 91.947 27.4863 92.1073 27.311C92.3127 27.0906 92.4731 26.7851 92.5783 26.4444Z" fill="#383057"/>
<path d="M103.708 27.1506C103.899 26.5445 103.924 25.8383 103.733 25.3273C103.413 24.4608 102.441 24.591 102.145 25.4826C101.955 26.0587 101.88 26.6698 101.92 27.2759C101.935 27.4963 101.97 27.7167 102.075 27.917C102.18 28.1174 102.381 28.2777 102.606 28.3028C102.852 28.3278 103.077 28.1925 103.237 28.0172C103.443 27.7918 103.603 27.4863 103.708 27.1506Z" fill="#383057"/>
<path d="M99.1952 30.4867C98.9748 29.3196 98.6341 28.1775 98.2985 27.0405C98.2083 26.7299 97.7225 26.8651 97.8177 27.1757C98.1733 28.3829 98.5389 29.5951 98.7543 30.8423C98.9396 31.9093 99.0649 33.1064 97.9579 33.7376C97.3769 34.0682 96.5353 34.0933 95.8941 34.1283C95.5735 34.1433 95.5735 34.6443 95.8941 34.6292C97.1264 34.5691 98.8896 34.3988 99.3354 33.0213C99.5859 32.2348 99.3454 31.2731 99.1952 30.4867Z" fill="#87524D"/>
<path d="M99.1196 36.2171C97.4616 38.0905 94.1908 37.3292 92.4577 36.0168C92.2022 35.8215 91.9517 36.2573 92.2072 36.4476C94.1157 37.8902 97.6821 38.6065 99.4754 36.5728C99.6858 36.3324 99.335 35.9767 99.1196 36.2171Z" fill="#87524D"/>
<path d="M95.6082 44.9379C91.616 44.9028 87.2081 42.9093 84.6635 39.8337C84.4581 39.5832 84.1075 39.9389 84.3078 40.1893C86.9326 43.3651 91.4908 45.4088 95.6082 45.4438C95.9288 45.4388 95.9288 44.9379 95.6082 44.9379Z" fill="#87524D"/>
<path d="M94.6967 20.4937C94.1407 18.9159 91.2253 19.2414 89.8678 19.6021C89.1666 19.7874 88.4804 20.0529 87.9294 20.4837C87.7441 20.629 87.5737 20.7942 87.4885 21.0046C87.4034 21.21 87.4234 21.4654 87.5887 21.6307C87.8391 21.8812 88.275 21.8311 88.6457 21.7911C90.1083 21.6408 91.576 22.0165 93.0537 22.0866C93.4694 22.1066 93.9152 22.0966 94.2658 21.8862C94.6265 21.6708 94.8218 21.23 94.7768 20.8443C94.7617 20.7191 94.7367 20.6039 94.6967 20.4937Z" fill="#7D4949"/>
<path d="M105.631 19.7873C104.274 19.4317 101.354 19.1111 100.803 20.6889C100.768 20.7941 100.738 20.9144 100.723 21.0396C100.683 21.4253 100.873 21.8611 101.239 22.0815C101.584 22.2869 102.03 22.2969 102.451 22.2768C103.923 22.2017 105.391 21.826 106.854 21.9713C106.879 21.9713 106.904 21.9763 106.929 21.9813C106.959 21.4253 106.989 20.8643 107.014 20.3083C106.588 20.0779 106.112 19.9126 105.631 19.7873Z" fill="#7D4949"/>
<path d="M108.752 19.0259C108.938 16.9221 108.808 14.7982 108.607 12.6994C108.457 11.1466 107.981 9.98954 106.874 8.88754C104.369 6.383 101.179 5.05558 97.7423 4.42443C96.0493 4.11387 94.3211 3.81835 92.598 4.06379C90.8498 4.31425 89.2119 5.05558 87.629 5.80694C84.6587 7.2195 81.6632 9.08792 80.1955 12.1585C79.364 13.8966 79.4191 15.6548 79.344 17.5382C79.2939 18.7354 79.1286 19.9225 78.8381 21.0846C78.6427 21.856 78.4023 22.5774 78.3522 23.3538C78.1619 23.3337 77.9666 23.3237 77.7662 23.3287C77.4456 23.3387 77.4456 23.8396 77.7662 23.8296C77.9365 23.8246 78.1418 23.8496 78.3522 23.8847C78.3522 23.9047 78.3522 23.9298 78.3522 23.9498C78.3773 24.2554 78.8331 24.2654 78.8481 23.9849C80.7716 24.4458 83.5867 25.6379 84.3431 23.5491C84.5885 22.8679 84.4733 22.2117 84.839 21.5505C85.1746 20.9444 85.7206 20.5888 86.1514 20.0578C86.4369 19.7022 86.6572 19.3215 86.8326 18.9207C87.1832 18.4248 87.4036 17.8388 87.6441 17.2377C87.9747 16.4062 88.3203 15.6097 89.1568 15.1689C89.9533 14.7482 90.915 14.7181 91.7716 14.5177C94.3562 13.9066 95.348 11.6876 95.8489 9.35335C97.1312 9.89934 98.5539 10.0797 99.7961 10.7109C101.294 11.4722 101.72 12.8547 102.351 14.2873C102.777 15.2591 103.302 16.1257 104.259 16.6416C104.94 17.0072 105.697 17.1575 106.358 17.5683C107.205 18.0942 107.821 18.8406 108.282 19.7122C108.432 19.9977 108.863 19.7422 108.712 19.4617C108.677 19.3916 108.632 19.3264 108.592 19.2563C108.682 19.2062 108.747 19.1211 108.752 19.0259Z" fill="#7D4949"/>
<path d="M82.149 29.5651C81.7883 28.0774 82.8754 26.9103 82.4446 25.4376C82.6249 23.975 79.7997 21.5756 78.0816 22.382C76.0228 23.3538 77.3753 26.4845 78.0015 27.9171C78.4673 28.974 79.0734 30.0059 79.91 30.8124C80.3457 31.2331 81.4527 32.3401 82.134 31.9193C82.7501 31.5387 82.2842 30.1161 82.149 29.5651Z" fill="#D4A281"/>
<path d="M81.6531 29.1293C81.3225 28.1275 81.2523 27.1106 81.4627 26.0787C81.5278 25.7631 81.047 25.6279 80.9819 25.9435C80.7515 27.0656 80.8116 28.1726 81.1723 29.2595C81.2675 29.5701 81.7533 29.4398 81.6531 29.1293Z" fill="#87524D"/>
<path d="M95.5784 8.02605C95.0775 7.17952 94.3962 6.5183 93.4845 6.12759C92.3775 5.65173 91.1303 5.97733 90.1385 5.26103C88.5706 4.12898 87.118 3.16219 85.1495 4.03878C84.8539 4.16902 85.1094 4.59979 85.3999 4.46955C86.572 3.94861 87.7692 4.18404 88.8212 4.85025C89.4072 5.22092 89.873 5.89214 90.5192 6.16764C91.0301 6.38804 91.5911 6.23782 92.1221 6.2829C93.4294 6.39811 94.4964 7.16449 95.1526 8.27651C95.3129 8.55701 95.7437 8.30155 95.5784 8.02605Z" fill="#5C3632"/>
<path d="M107.765 18.2245C107.475 18.0893 107.219 18.5201 107.515 18.6553C109.594 19.6221 110.025 21.8861 110.17 23.9649C110.19 24.2855 110.691 24.2855 110.671 23.9649C110.511 21.7208 110.004 19.2664 107.765 18.2245Z" fill="#5C3632"/>
<path d="M110.41 17.8839C109.639 16.3912 109.253 15.3844 107.505 15.0688C106.388 14.8634 105.536 14.6781 104.775 13.7514C104.089 12.9199 103.508 11.9982 102.887 11.1216C102.701 10.8612 102.266 11.1116 102.456 11.3721C103.328 12.6043 104.244 14.5078 105.697 15.159C106.338 15.4445 107.034 15.4295 107.7 15.6098C109.048 15.9805 109.393 16.9973 109.979 18.1343C110.13 18.4249 110.561 18.1694 110.41 17.8839Z" fill="#5C3632"/>
<path d="M90.6393 11.2467C87.0628 11.2868 85.2496 14.5628 84.5233 17.6534C84.4481 17.9689 84.934 18.0992 85.0041 17.7886C85.6703 14.9335 87.2882 11.7877 90.6343 11.7476C90.9599 11.7426 90.9649 11.2417 90.6393 11.2467Z" fill="#5C3632"/>
<path d="M116.696 107.026C118.45 98.2296 115.324 103.79 117.853 92.4691C120.383 81.1486 119.191 53.9794 117.363 53.6738C116.15 53.4735 111.762 52.9826 108.927 52.667C108.722 52.647 108.521 52.6269 108.331 52.6019C107.194 52.4817 106.428 52.3965 106.428 52.3965C106.428 52.3965 105.997 52.3765 105.246 52.3464C101.644 56.5991 95.4729 58.733 90.1532 58.6679C86.7971 58.6278 83.6214 58.4374 80.5308 56.9748C77.6556 55.6123 75.3314 53.4334 73.2877 51.029C73.1073 51.019 72.1205 50.9789 70.748 50.9639C70.5527 50.9639 70.3423 50.9589 70.1319 50.9589C66.0395 50.9489 59.4375 51.2194 59.162 53.1579C58.3355 59.0636 60.3592 84.5598 60.2591 85.1308C60.0387 90.3403 60.7349 95.685 61.1356 100.869C61.4161 104.476 61.7167 108.077 62.0223 111.684C62.2527 114.369 62.8988 117.019 62.8537 119.724C62.8086 122.443 61.1156 124.462 60.8701 127.122C60.77 128.219 60.9252 129.331 61.9972 129.867C62.7385 130.238 63.6602 130.323 64.4616 130.493C65.5636 130.729 66.6657 130.954 67.7777 131.144C71.5044 131.795 75.2361 131.986 78.9679 131.264C82.9501 130.498 86.777 129.025 90.594 127.698C90.6891 127.663 90.7843 127.633 90.8795 127.598C101.444 127.633 111.938 127.538 115.965 127.082C125.202 126.03 114.938 115.827 116.696 107.026Z" fill="#383057"/>
<path d="M59.1622 53.1579C59.1622 53.1579 60.4145 54.0646 60.7501 59.4944C61.0858 64.9192 59.4979 72.3527 59.4979 72.3527L54.073 63.702L59.1622 53.1579Z" fill="#D4A281"/>
<path d="M108.927 52.667C108.446 53.2982 107.945 53.9142 107.415 54.5103C104.965 57.2653 101.934 59.5995 98.4331 60.8268C94.1504 62.3295 89.5119 61.8586 85.0939 61.3978C83.1854 61.1974 81.2721 60.9019 79.559 59.9903C77.8208 59.0586 76.3831 57.656 74.9605 56.3136C73.1673 54.6205 71.5143 52.8874 70.1318 50.9589C70.3422 50.9589 70.5526 50.9639 70.7479 50.9639C72.411 53.213 74.4397 55.1866 76.5585 57.1201C78.1013 58.5226 79.7493 59.7699 81.783 60.3359C83.8267 60.9119 86.0256 61.0071 88.1344 61.1774C92.3521 61.518 96.5798 61.3928 100.422 59.4293C103.638 57.7913 106.187 55.3819 108.331 52.6019C108.521 52.6269 108.722 52.647 108.927 52.667Z" fill="#595480"/>
<path d="M21.043 78.9847C21.043 78.9847 14.3659 80.788 13.4342 69.6027C12.5026 58.4174 15.9988 25.9485 15.9988 25.9485L20.1915 24.526L22.7561 25.9485C22.7561 25.9485 27.0639 64.9342 26.017 70.299C24.9701 75.6637 21.043 78.9847 21.043 78.9847Z" fill="#D4A281"/>
<path d="M31.3715 17.1826H6.79199V21.4905H31.3715V17.1826Z" fill="#383057"/>
<path d="M33.8962 24.8716C36.4911 24.8716 38.5948 22.0212 38.5948 18.505C38.5948 14.9889 36.4911 12.1385 33.8962 12.1385C31.3013 12.1385 29.1978 14.9889 29.1978 18.505C29.1978 22.0212 31.3013 24.8716 33.8962 24.8716Z" fill="#383057"/>
<path d="M4.69846 24.8716C7.29338 24.8716 9.39704 22.0212 9.39704 18.505C9.39704 14.9889 7.29338 12.1385 4.69846 12.1385C2.10354 12.1385 0 14.9889 0 18.505C0 22.0212 2.10354 24.8716 4.69846 24.8716Z" fill="#383057"/>
<path d="M22.23 29.1845C22.23 29.1845 26.1922 27.0305 26.3676 23.9449C26.5429 20.8593 26.4828 17.1877 24.2989 15.3243C22.1149 13.4609 21.7092 12.8799 20.5421 13.3457C19.3749 13.8116 22.2901 17.0174 22.4655 18.1795C22.6408 19.3466 19.9609 19.4017 18.2128 22.6075C16.4646 25.8133 18.2128 31.4035 18.2128 31.4035L22.23 29.1845Z" fill="#D4A281"/>
<path d="M22.3854 17.4481C22.19 16.256 21.4437 14.7733 20.4869 14.1271C19.2647 13.2956 17.6268 13.6563 16.2794 13.7615C15.0571 13.8566 13.6997 13.8917 12.7479 14.8684C11.14 16.5264 11.4807 20.0428 13.1838 21.5005C14.2357 22.4021 15.5029 22.372 16.7702 22.1917C18.7739 21.9112 22.8863 20.4736 22.3854 17.4481Z" fill="#D4A281"/>
<path d="M21.1083 14.5729C20.933 14.3325 20.5324 14.5629 20.7077 14.8083C21.9049 16.4864 23.9535 20.3083 20.8679 21.1899C20.8679 21.1799 20.8729 21.1699 20.8679 21.1599C20.5423 19.3115 20.0013 17.5383 19.25 15.8202C19.1298 15.5447 18.729 15.7851 18.8492 16.0556C19.5856 17.7386 20.1016 19.4768 20.4221 21.2851C20.4221 21.2901 20.4272 21.2901 20.4272 21.2951C19.791 21.4153 19.1197 21.4253 18.4635 21.4604C18.1229 19.7022 17.6121 18.0042 16.9308 16.3462C16.8206 16.0707 16.3697 16.1909 16.4799 16.4714C17.1462 18.0993 17.6471 19.7674 17.9927 21.4955C17.9075 21.5005 17.8174 21.5055 17.7322 21.5155C17.1612 21.5756 16.52 21.7559 15.8839 21.8912C15.5182 20.3033 15.1025 18.7305 14.6266 17.1676C14.5415 16.8821 14.0907 17.0023 14.1758 17.2929C14.6467 18.8407 15.0624 20.3985 15.4231 21.9764C15.0073 22.0415 14.6015 22.0665 14.2259 21.9964C13.9353 21.9413 13.8051 22.3871 14.1006 22.4472C14.7167 22.5674 15.1776 22.4522 15.7887 22.312C16.6954 22.1016 17.6121 21.9814 18.5437 21.9112C19.0396 21.8762 19.5705 21.8612 20.0915 21.8061C19.3201 22.8379 18.714 24.2655 18.7591 25.5428C18.7691 25.8434 19.2349 25.8434 19.2249 25.5428C19.1848 24.3306 19.791 22.9181 20.5424 21.9713C20.6025 21.8962 20.6025 21.8111 20.5775 21.7359C21.1735 21.6307 21.7396 21.4354 22.2104 21.0397C24.1239 19.4217 22.2053 16.1057 21.1083 14.5729Z" fill="#87524D"/>
<path d="M26.7736 66.8077C26.7636 66.5071 26.2978 66.5071 26.3078 66.8077C26.3478 67.9998 26.438 69.192 26.5883 70.3741C26.6234 70.6697 27.0942 70.6697 27.0541 70.3741C26.9039 69.192 26.8087 68.0049 26.7736 66.8077Z" fill="#87524D"/>
<path d="M97.572 121.196C95.4131 122.919 93.2141 124.592 90.975 126.215C90.7145 126.401 90.965 126.836 91.2254 126.646C93.4946 124.998 95.7287 123.3 97.9226 121.552C98.1781 121.352 97.8225 120.996 97.572 121.196Z" fill="#595480"/>
<path d="M237.551 242.456L241.959 256.987L253.695 257.584L252.939 241.79L237.551 242.456Z" fill="#D4A281"/>
<path d="M255.152 292.467C255.007 295.913 254.862 298.107 254.842 299.034V299.324C254.266 299.339 253.68 299.359 253.099 299.364C251.571 299.374 249.046 299.319 247.519 299.269H247.514C247.514 297.796 247.504 296.434 247.413 295.527C247.353 294.901 247.343 294.28 247.223 293.699C247.138 293.288 247.053 292.878 246.973 292.467C243.581 275.666 242.099 263.354 241.958 256.988C241.898 254.338 242.079 252.715 242.444 252.229C245.745 247.871 251.01 246.884 251.01 246.884C251.01 246.884 252.372 251.187 253.57 256.988C254.466 261.275 255.263 266.385 255.353 271.178C255.533 280.6 255.348 287.718 255.152 292.467Z" fill="#D4A281"/>
<path d="M258.273 304.979C257.752 304.028 257.191 303.101 256.64 302.169C256.144 301.323 255.653 300.481 255.157 299.635C255.052 299.459 254.952 299.249 254.842 299.034C254.627 298.593 254.376 298.117 254.02 297.867C253.545 297.531 253.039 297.706 252.503 297.812C251.521 298.002 249.547 298.207 248.571 298.408C248.631 298.052 248.696 297.701 248.746 297.346C248.791 297.03 248.31 296.895 248.265 297.215C248.2 297.666 247.854 297.806 247.779 298.257C247.769 298.272 247.669 298.658 247.519 299.269C246.993 301.418 245.846 306.302 245.765 306.863C245.695 307.339 245.826 307.885 246.236 308.135C246.467 308.275 246.747 308.295 247.018 308.311C247.814 308.356 248.611 308.381 249.407 308.401C249.577 308.406 249.748 308.406 249.918 308.411C250.659 308.421 252.402 308.421 253.144 308.416C253.274 308.416 253.409 308.411 253.54 308.411H253.665C254.241 308.401 254.817 308.396 255.398 308.386C255.568 308.386 255.734 308.381 255.899 308.376C256.355 308.371 256.805 308.356 257.256 308.331C257.422 308.321 257.587 308.311 257.752 308.295C258.113 308.275 258.474 308.24 258.829 308.2C259.014 308.18 259.205 308.115 259.315 307.97C259.42 307.825 259.46 307.649 259.455 307.459C259.435 306.637 258.554 305.495 258.273 304.979Z" fill="#FFB299"/>
<path d="M208.924 253.862V242.291L221.612 239.952L224.026 242.626L219.353 264.496L208.924 253.862Z" fill="#D4A281"/>
<path d="M221.406 269.084C220.505 275.937 218.781 282.709 217.484 289.491C217.299 290.468 217.083 291.465 216.868 292.467C216.051 296.189 215.13 300.041 215.03 303.762C214.985 305.425 215.22 307.048 213.251 307.314C210.727 307.659 205.658 307.659 203.118 307.619C201.816 307.599 200.513 307.559 199.206 307.524C198.575 307.509 197.939 307.494 197.302 307.484C196.756 307.479 196.18 307.554 195.84 307.264C195.71 307.154 195.614 306.993 195.569 306.753C195.559 306.708 195.554 306.663 195.549 306.613C195.504 306.132 195.765 305.716 196.08 305.38C197.052 304.333 198.56 303.732 199.837 303.161C201.24 302.54 202.672 301.984 204.04 301.283C204.751 300.922 207.586 300.336 207.721 299.414C207.732 299.349 207.807 296.594 207.922 292.467C208.262 279.714 208.924 253.867 208.924 253.867L220.645 253.231C220.645 253.231 220.795 254.769 220.97 256.912C221.296 260.86 221.702 266.855 221.406 269.084Z" fill="#D4A281"/>
<path d="M259.541 243.588C257.387 234.281 255.724 224.869 254.572 215.387C254.547 215.192 254.381 215.087 254.196 215.172C252.212 216.083 250.058 216.103 247.915 216.033C245.876 215.968 243.832 215.883 241.794 215.803L229.191 215.332C225.108 215.182 220.991 214.856 216.908 214.936C215.01 214.971 213.247 215.332 211.393 215.698C209.129 216.143 206.975 215.848 204.746 215.412C204.781 214.971 204.817 214.536 204.852 214.095C204.877 213.774 204.376 213.774 204.351 214.095C204.316 214.521 204.28 214.951 204.245 215.377C204.09 215.462 204.05 215.708 204.21 215.803C203.439 225.395 202.663 234.988 201.891 244.58C201.881 244.68 201.976 244.805 202.077 244.82C211.203 246.403 220.475 246.859 229.712 246.173C229.822 246.163 229.922 246.103 229.952 245.988C230.834 242.727 231.715 239.471 232.592 236.21C232.737 239.681 233.118 243.137 233.729 246.564C233.754 246.704 233.914 246.759 234.034 246.739C242.39 245.266 250.825 244.325 259.3 243.909C259.466 243.899 259.581 243.754 259.541 243.588Z" fill="#383057"/>
<path d="M232.727 233.39C230.458 228.32 228.329 223.191 226.335 218.007C226.22 217.711 225.734 217.837 225.854 218.142C227.012 221.143 228.214 224.128 229.461 227.093C226.916 225.561 224.367 224.028 221.822 222.5C221.547 222.335 221.291 222.765 221.572 222.931L229.706 227.825C229.731 227.84 229.757 227.845 229.787 227.855C230.608 229.793 231.44 231.727 232.301 233.65C232.421 233.936 232.857 233.68 232.727 233.39Z" fill="#595480"/>
<path d="M218.321 140.281L222.804 139.434L233.378 140.496C233.378 140.496 235.216 143.131 235.216 143.316C235.216 143.502 226.04 146.322 225.649 146.131C225.258 145.941 217.995 141.498 217.995 141.498L218.321 140.281Z" fill="#FFB299"/>
<path d="M173.509 110.652C171.841 110.402 170.023 110.632 168.335 110.662C168.21 110.662 168.145 110.772 168.165 110.888C168.44 112.706 169.247 114.344 170.113 115.947C170.379 116.433 170.644 117.069 171.22 117.249H171.225C171.235 117.329 171.29 117.399 171.391 117.404C172.372 117.44 174.091 117.905 174.632 116.788C174.917 116.197 174.937 115.426 175.042 114.785C175.172 114.018 175.358 113.237 175.418 112.465C175.503 111.293 174.551 110.807 173.509 110.652Z" fill="#D4A281"/>
<path d="M207.546 151.777C206.91 148.055 209.389 140.07 209.159 140.045C209.004 140.03 208.347 139.92 208.332 139.965C206.84 139.82 204.33 139.775 201.15 139.8C197.663 139.825 185.892 141.248 179.024 141.408C177.597 141.443 175.954 142.254 174.586 142.685C173.189 143.126 172.748 144.183 172.207 145.475C171.41 147.374 170.113 148.821 172.583 150.064C173.91 150.73 175.648 150.89 177.096 151.135C178.849 151.436 180.612 151.656 182.386 151.797C185.947 152.072 199.146 153.41 202.697 153.875C204.12 154.061 206.209 155.528 207.521 154.772C208.708 154.096 207.726 152.809 207.546 151.777Z" fill="#D4A281"/>
<path d="M174.782 150.229C174.782 150.229 169.713 151.596 169.007 143.111C168.3 134.626 170.95 115.496 170.95 115.496L174.131 114.419L176.074 115.496C176.074 115.496 179.345 139.575 178.549 143.642C177.762 147.709 174.782 150.229 174.782 150.229Z" fill="#D4A281"/>
<path d="M182.686 109.635H164.032V112.906H182.686V109.635Z" fill="#383057"/>
<path d="M184.6 115.471C186.569 115.471 188.166 113.307 188.166 110.637C188.166 107.968 186.569 105.803 184.6 105.803C182.63 105.803 181.033 107.968 181.033 110.637C181.033 113.307 182.63 115.471 184.6 115.471Z" fill="#383057"/>
<path d="M162.439 115.472C164.409 115.472 166.006 113.307 166.006 110.638C166.006 107.968 164.409 105.804 162.439 105.804C160.47 105.804 158.873 107.968 158.873 110.638C158.873 113.307 160.47 115.472 162.439 115.472Z" fill="#383057"/>
<path d="M175.683 117.945C175.683 117.945 178.689 116.312 178.824 113.968C178.954 111.624 178.914 108.839 177.256 107.426C176.916 107.136 174.266 104.671 174.201 106.329C174.181 106.875 174.757 107.567 175.027 108.002C175.323 108.473 175.608 109.014 175.693 109.58C175.824 110.462 174.712 110.817 173.389 113.252C172.062 115.681 172.638 119.628 172.638 119.628L175.683 117.945Z" fill="#D4A281"/>
<path d="M175.804 109.039C175.654 108.133 175.088 107.011 174.361 106.52C173.435 105.888 172.192 106.164 171.171 106.239C170.244 106.309 169.212 106.339 168.491 107.081C167.268 108.338 167.529 111.008 168.821 112.115C169.618 112.796 170.584 112.776 171.546 112.641C173.059 112.425 176.18 111.333 175.804 109.039Z" fill="#D4A281"/>
<path d="M174.982 107.086C174.767 106.845 174.411 107.201 174.627 107.441C175.854 108.794 175.193 110.602 174.056 111.714C173.825 111.939 174.181 112.295 174.411 112.07C175.764 110.747 176.405 108.659 174.982 107.086Z" fill="#87524D"/>
<path d="M173.069 107.086C172.919 106.8 172.488 107.051 172.638 107.336C173.184 108.388 173.525 109.5 173.66 110.672C173.695 110.988 174.196 110.993 174.161 110.672C174.016 109.41 173.655 108.218 173.069 107.086Z" fill="#87524D"/>
<path d="M170.724 107.587C170.579 107.301 170.148 107.552 170.294 107.837C170.905 109.049 171.481 110.261 171.666 111.624C171.711 111.939 172.192 111.804 172.147 111.489C171.957 110.091 171.351 108.834 170.724 107.587Z" fill="#87524D"/>
<path d="M170.359 111.524C169.973 110.482 169.592 109.445 169.207 108.403C169.096 108.103 168.611 108.233 168.726 108.538C169.111 109.58 169.492 110.617 169.878 111.659C169.983 111.955 170.469 111.824 170.359 111.524Z" fill="#87524D"/>
<path d="M173.505 112.946C173.074 113.768 172.893 114.654 172.989 115.576C173.024 115.892 173.524 115.897 173.489 115.576C173.399 114.74 173.545 113.943 173.935 113.197C174.086 112.916 173.655 112.661 173.505 112.946Z" fill="#87524D"/>
<path d="M241.052 108.814C241.032 108.007 240.857 107.216 240.421 106.48C239.935 105.658 239.209 105.017 238.557 104.336C238.112 103.865 237.681 103.384 237.401 102.793C237.115 102.187 237.125 101.556 236.93 100.925C236.404 99.2415 234.49 97.8089 232.917 97.1878C231.334 96.5616 229.561 96.6968 228.239 97.7287C226.721 96.6618 225.033 95.8053 223.125 96.0707C222.053 96.221 221.442 96.7119 220.62 97.323C220.049 97.7488 219.854 97.5985 219.233 97.3931C218.732 97.2278 218.206 97.1527 217.68 97.1476C213.808 97.1326 211.689 100.734 212.41 104.04C211.438 105.307 211.123 107.201 211.829 108.563C212.435 109.74 213.382 110.422 214.484 110.792C214.83 111.073 215.205 111.353 215.491 111.704C216.132 112.49 216.528 113.492 216.999 114.384C217.535 115.396 218.1 116.393 218.697 117.374C219.428 118.576 220.219 120.114 221.557 120.745C222.564 121.221 223.706 120.896 224.723 121.397C225.805 121.928 226.711 122.809 227.653 123.546C230.297 125.614 236.188 126.761 239.053 124.337C240.566 123.055 240.201 119.919 240.201 119.919C240.201 119.919 242.59 118.516 243.351 116.753C244.614 113.853 243.266 110.176 241.052 108.814Z" fill="#914B42"/>
<path d="M239.504 116.488C239.449 116.964 239.379 117.44 239.294 117.92C239.074 119.178 238.753 120.42 238.377 121.652C236.875 123.145 235.588 124.868 234.531 126.741C232.948 129.562 231.234 133.313 232.001 136.624C231.941 136.649 231.876 136.669 231.811 136.694C228.409 137.917 227.974 133.068 224.387 133.524C222.694 133.734 220.67 134.861 217.63 134.696C213.062 134.445 210.837 131.931 210.712 126.962C210.592 122.228 211.444 118.026 212.491 113.593C212.506 113.522 212.526 113.452 212.541 113.377C212.641 112.941 212.746 112.496 212.861 112.04C212.881 111.96 212.901 111.879 212.926 111.794C213.011 111.459 213.102 111.118 213.192 110.782C213.718 108.839 214.404 106.94 215.867 105.508C217.47 103.93 219.609 102.978 221.747 102.387C222.414 102.202 223.08 102.027 223.756 101.861C223.941 102.598 224.522 103.164 225.524 103.053C228.995 102.663 233.499 104.691 236.188 106.88C238.548 108.804 237.706 112.045 238.017 114.75C238.122 115.691 238.768 116.272 239.504 116.488Z" fill="#D4A281"/>
<path d="M213.357 125.229C213.227 125.324 213.246 125.509 213.302 125.649C213.522 126.205 214.103 126.596 214.719 126.836C215.415 127.112 216.192 127.237 216.943 127.152C217.695 127.067 218.416 126.761 218.922 126.27C219.222 125.98 219.663 125.504 219.002 125.404C218.426 125.314 217.815 125.309 217.234 125.274C216.052 125.204 214.869 125.168 213.687 125.163C213.582 125.163 213.467 125.168 213.377 125.219C213.372 125.219 213.367 125.224 213.357 125.229Z" fill="white"/>
<path d="M232.216 138.428C231.74 135.011 231.58 131.565 231.66 128.119C231.665 127.808 231.365 127.628 231.089 127.678C226.601 128.54 218.206 130.243 218.326 130.814C219.198 134.996 220.064 139.174 220.936 143.356C220.936 143.366 220.936 143.376 220.936 143.381C221.011 144.028 221.036 144.634 221.026 145.285C221.021 145.49 221.176 145.671 221.367 145.726C224.652 146.647 230.057 148.461 232.467 144.804C233.619 143.046 232.477 140.286 232.216 138.428Z" fill="#D4A281"/>
<path d="M222.519 119.363C222.824 118.777 222.98 118.061 222.875 117.5C222.704 116.553 221.682 116.508 221.221 117.364C220.921 117.92 220.731 118.531 220.665 119.163C220.64 119.388 220.635 119.623 220.706 119.844C220.781 120.064 220.951 120.27 221.181 120.34C221.427 120.41 221.687 120.315 221.878 120.164C222.128 119.974 222.348 119.689 222.519 119.363Z" fill="#383057"/>
<path d="M213.873 118.071C214.148 117.54 214.284 116.888 214.194 116.388C214.038 115.531 213.116 115.496 212.696 116.272C212.425 116.773 212.255 117.329 212.195 117.9C212.175 118.106 212.165 118.316 212.235 118.516C212.305 118.717 212.455 118.902 212.666 118.962C212.886 119.027 213.122 118.937 213.297 118.802C213.522 118.627 213.723 118.366 213.873 118.071Z" fill="#383057"/>
<path d="M241.528 115.195C241.438 112.906 240.526 111.238 239.454 109.194C237.395 105.257 233.478 102.312 229.06 101.651C226.02 101.195 222.554 101.561 219.603 102.412C217.61 102.988 216.252 104.361 215.1 105.954C215.09 105.994 215.075 106.039 215.055 106.079C214.9 106.384 214.734 106.69 214.574 107C214.379 107.191 214.158 107.376 213.883 107.521C213.833 107.547 213.808 107.582 213.788 107.617C213.637 107.687 213.482 107.757 213.332 107.822C213.252 107.501 213.327 107.126 213.673 106.7C213.873 106.45 213.522 106.094 213.317 106.344C212.485 107.376 212.886 108.679 214.043 109.275C214.724 109.625 215.511 109.635 216.252 109.555C216.793 109.495 217.304 109.27 217.83 109.204C218.146 108.989 218.456 109.019 218.757 109.295C218.907 109.48 219.077 109.65 219.268 109.801C220.445 110.757 222.288 111.013 223.736 110.642C224.602 110.417 225.048 109.956 225.659 109.35C226.015 108.999 226.426 108.749 226.846 108.508C227.813 109.149 228.68 109.941 229.256 110.898C230.368 112.746 230.152 115.025 229.942 117.074C229.922 117.264 230.147 117.334 230.283 117.269C232.351 116.357 233.704 118.622 233.749 120.365C233.794 121.943 233.328 123.606 232.171 124.708C231.535 125.314 231.55 126.065 231.625 126.957C231.785 128.91 231.765 133.849 231.765 133.849C231.765 133.849 241.638 118.106 241.528 115.195Z" fill="#914B42"/>
<path d="M225.203 114.174C224.983 113.923 224.708 113.718 224.412 113.572C223.846 113.302 223.205 113.227 222.579 113.247C222.218 113.257 221.852 113.297 221.517 113.432C220.81 113.713 220.304 114.629 221.296 114.96C221.647 115.075 222.023 115.03 222.393 115.025C223.089 115.015 223.791 115.165 224.422 115.456C224.617 115.546 224.808 115.651 225.023 115.681C225.99 115.822 225.554 114.574 225.203 114.174Z" fill="#914B42"/>
<path d="M215.225 112.47C214.935 112.25 214.594 112.115 214.249 112.01C213.818 111.879 213.367 111.789 212.921 111.789C212.901 111.874 212.881 111.955 212.856 112.035C212.741 112.491 212.636 112.936 212.535 113.372C212.52 113.447 212.5 113.517 212.485 113.587C212.976 113.567 213.482 113.628 213.953 113.773C214.309 113.878 214.659 114.023 215.03 114.003C216.077 113.943 215.827 112.926 215.225 112.47Z" fill="#914B42"/>
<path d="M215.811 120.345C216.322 119.613 216.863 118.897 217.389 118.171C217.59 117.895 217.134 117.635 216.938 117.905C216.197 118.927 214.619 120.41 214.619 121.767C214.619 122.794 215.541 123.48 216.427 123.776C216.748 123.881 216.888 123.375 216.568 123.27C215.816 123.02 215.03 122.474 215.18 121.507C215.24 121.101 215.581 120.675 215.811 120.345Z" fill="#87524D"/>
<path d="M225.87 132.547C223.906 133.584 221.822 134.125 219.603 134.18C219.268 134.19 219.268 134.711 219.603 134.706C221.907 134.656 224.096 134.085 226.135 133.003C226.431 132.842 226.165 132.392 225.87 132.547Z" fill="#87524D"/>
<path d="M230.332 120.059C230.062 119.879 229.811 120.315 230.082 120.49C230.763 120.941 230.428 122.148 230.067 122.674C229.887 122.939 230.317 123.19 230.498 122.924C231.034 122.148 231.249 120.665 230.332 120.059Z" fill="#87524D"/>
<path d="M239.855 109.856C239.514 110.442 239.023 110.928 238.347 111.083C237.385 111.308 237.205 110.913 236.454 110.667C236.043 110.532 236.188 110.577 235.798 110.637C235.402 110.697 234.986 111.063 234.57 111.168C234.139 111.278 233.679 111.313 233.238 111.283C232.321 111.223 231.5 110.868 230.778 110.312C230.523 110.116 230.273 110.552 230.528 110.742C231.319 111.353 232.231 111.724 233.238 111.784C233.674 111.809 234.11 111.774 234.53 111.684C235.011 111.584 235.442 111.258 235.898 111.158C236.514 111.028 237.335 111.699 238.122 111.624C239.094 111.529 239.82 110.928 240.291 110.106C240.451 109.826 240.015 109.575 239.855 109.856Z" fill="#5E2F2A"/>
<path d="M220.024 104.075C218.05 104.281 214.539 103.69 215.366 100.844C215.456 100.534 214.975 100.404 214.885 100.709C214.554 101.841 214.94 102.963 215.846 103.71C217.013 104.676 218.586 104.721 220.024 104.576C220.344 104.541 220.344 104.04 220.024 104.075Z" fill="#5E2F2A"/>
<path d="M226.195 105.748C224.702 105.728 221.792 105.328 221.887 103.284C221.902 102.963 221.401 102.963 221.386 103.284C221.271 105.658 224.397 106.224 226.195 106.249C226.521 106.254 226.521 105.753 226.195 105.748Z" fill="#5E2F2A"/>
<path d="M201.034 174.012C201.054 175.675 201.07 177.463 201.085 179.332C201.1 180.875 201.114 182.472 201.124 184.1C201.23 196.653 201.31 216.113 201.049 221.754H258.839C259.911 217.08 257.051 196.237 256.891 192.656C256.755 189.65 256.575 186.65 256.355 183.65C256.219 181.821 256.074 179.988 255.914 178.16C255.784 176.662 255.648 175.169 255.503 173.676C255.393 172.489 255.273 171.307 255.153 170.125C255.082 169.464 255.012 168.803 254.942 168.141C254.917 167.896 254.892 167.656 254.867 167.41C254.361 162.717 253.81 158.023 253.244 153.335C252.708 148.862 250.259 144.363 249.412 139.935C249.392 139.825 249.272 139.75 249.172 139.75C248.41 139.73 247.353 139.75 246.146 139.79H246.101C242.675 139.9 238.051 140.186 235.422 140.361C234.169 140.441 233.373 140.501 233.373 140.501C232.847 141.323 231.971 141.904 231.069 142.345C229.782 142.976 228.409 143.622 226.971 143.767C225.494 143.918 224.046 143.552 222.659 143.066C221.396 142.62 218.321 140.286 218.321 140.286C218.321 140.286 217.499 140.231 216.527 140.136C215.956 140.076 215.335 140 214.804 139.92C212.776 139.61 210.727 139.675 208.678 139.675C208.428 139.67 205.097 139.675 205.097 139.68C205.097 139.68 206.329 142.795 206.359 143.677C206.424 145.771 206.61 147.86 206.73 149.953C206.85 152.037 206.905 154.126 206.735 156.205C206.569 158.233 206.214 160.237 205.983 162.256C205.507 166.488 201.17 158.609 200.999 162.857C200.969 163.598 200.974 165.978 200.999 169.364C201.009 170.756 201.024 172.319 201.034 174.012Z" fill="#E6876C"/>
<path d="M216.823 166.208C214.765 162.216 214.023 157.783 213.157 153.425C212.746 151.366 212.31 149.312 211.669 147.314C211.368 146.367 211.023 145.435 210.622 144.529C210.151 143.462 209.004 140.281 208.228 140.015C207.321 139.705 206.329 139.775 205.388 139.705C204.195 139.615 194.608 139.795 191.062 140.236C188.828 140.416 186.594 140.632 184.359 140.812C184.194 140.827 181.77 141.117 181.74 141.022C184.054 148.105 184.655 155.749 187.395 162.677C188.006 164.224 188.677 165.767 189.369 167.32C191.057 167.616 192.76 167.811 194.463 167.976C201.2 168.617 210.246 169.123 216.673 166.574C216.828 166.519 216.904 166.363 216.823 166.208Z" fill="#E6876C"/>
<path d="M277.774 112.465C277.829 113.242 278.019 114.023 278.149 114.785C278.255 115.426 278.275 116.197 278.565 116.788C279.106 117.905 280.819 117.44 281.806 117.404C281.906 117.399 281.961 117.329 281.972 117.249H281.976C282.552 117.069 282.818 116.428 283.083 115.947C283.955 114.344 284.756 112.711 285.032 110.888C285.047 110.772 284.987 110.667 284.862 110.662C283.179 110.632 281.36 110.402 279.687 110.652C278.645 110.807 277.689 111.293 277.774 112.465Z" fill="#D4A281"/>
<path d="M280.985 145.48C280.444 144.188 280.003 143.136 278.605 142.69C277.238 142.259 275.595 141.443 274.167 141.413C267.3 141.248 255.524 139.83 252.042 139.805C251.812 139.805 251.591 139.805 251.371 139.8V153.77C255.834 153.234 267.495 152.057 270.806 151.802C272.58 151.667 274.343 151.446 276.096 151.141C277.544 150.89 279.282 150.735 280.609 150.069C283.079 148.826 281.781 147.379 280.985 145.48Z" fill="#D4A281"/>
<path d="M278.41 150.229C278.41 150.229 283.479 151.596 284.185 143.111C284.892 134.626 282.242 115.496 282.242 115.496L279.061 114.419L277.117 115.496C277.117 115.496 273.846 139.575 274.643 143.642C275.434 147.709 278.41 150.229 278.41 150.229Z" fill="#D4A281"/>
<path d="M270.512 112.907H289.166V109.636H270.512V112.907Z" fill="#383057"/>
<path d="M268.597 115.471C270.567 115.471 272.164 113.307 272.164 110.637C272.164 107.968 270.567 105.803 268.597 105.803C266.627 105.803 265.031 107.968 265.031 110.637C265.031 113.307 266.627 115.471 268.597 115.471Z" fill="#383057"/>
<path d="M290.757 115.471C292.727 115.471 294.324 113.307 294.324 110.637C294.324 107.968 292.727 105.803 290.757 105.803C288.788 105.803 287.191 107.968 287.191 110.637C287.191 113.307 288.788 115.471 290.757 115.471Z" fill="#383057"/>
<path d="M277.513 117.945C277.513 117.945 274.508 116.312 274.372 113.968C274.242 111.624 274.282 108.839 275.94 107.426C276.281 107.136 278.931 104.671 278.996 106.329C279.016 106.875 278.44 107.567 278.169 108.002C277.874 108.473 277.588 109.014 277.503 109.58C277.373 110.462 278.485 110.817 279.807 113.252C281.135 115.681 280.559 119.628 280.559 119.628L277.513 117.945Z" fill="#D4A281"/>
<path d="M281.651 112.636C282.613 112.771 283.574 112.796 284.376 112.11C285.668 111.003 285.929 108.333 284.707 107.076C283.985 106.334 282.953 106.309 282.027 106.234C281.005 106.154 279.762 105.884 278.836 106.515C278.109 107.006 277.544 108.133 277.393 109.034C277.013 111.333 280.133 112.425 281.651 112.636Z" fill="#D4A281"/>
<path d="M278.215 107.086C278.43 106.845 278.786 107.201 278.57 107.441C277.343 108.794 277.999 110.602 279.141 111.714C279.372 111.939 279.016 112.295 278.786 112.07C277.433 110.747 276.792 108.659 278.215 107.086Z" fill="#87524D"/>
<path d="M280.128 107.086C280.278 106.8 280.709 107.051 280.559 107.336C280.013 108.388 279.672 109.5 279.537 110.672C279.502 110.988 279.001 110.993 279.036 110.672C279.181 109.41 279.537 108.218 280.128 107.086Z" fill="#87524D"/>
<path d="M282.472 107.587C282.618 107.301 283.048 107.552 282.903 107.837C282.292 109.049 281.716 110.261 281.531 111.624C281.486 111.939 281.005 111.804 281.05 111.489C281.24 110.091 281.841 108.834 282.472 107.587Z" fill="#87524D"/>
<path d="M282.838 111.524C283.224 110.482 283.609 109.445 283.99 108.403C284.1 108.103 284.586 108.233 284.471 108.538C284.085 109.58 283.7 110.617 283.319 111.659C283.209 111.955 282.728 111.824 282.838 111.524Z" fill="#87524D"/>
<path d="M279.688 112.946C280.118 113.768 280.299 114.654 280.203 115.576C280.168 115.892 279.667 115.897 279.702 115.576C279.793 114.74 279.647 113.943 279.257 113.197C279.106 112.916 279.537 112.661 279.688 112.946Z" fill="#87524D"/>
<path d="M236.369 166.208C238.427 162.216 239.169 157.783 240.035 153.425C240.446 151.366 240.882 149.312 241.523 147.314C241.824 146.367 242.169 145.435 242.57 144.529C243.041 143.462 244.193 140.281 244.964 140.015C245.871 139.705 246.863 139.775 247.804 139.705C248.997 139.615 258.584 139.795 262.13 140.236C264.364 140.416 266.598 140.632 268.833 140.812C268.998 140.827 271.422 141.117 271.452 141.022C269.138 148.105 269.539 155.749 266.799 162.677C266.188 164.224 266.037 166.063 265.346 167.61C263.658 167.906 258.428 167.811 256.725 167.976C249.988 168.617 242.945 169.123 236.519 166.574C236.364 166.519 236.289 166.363 236.369 166.208Z" fill="#E6876C"/>
<path d="M255.153 170.125C253.66 169.885 251.992 169.96 251.03 169.95C246.221 169.9 241.403 169.885 236.594 170.125C231.825 170.37 227.072 171.042 222.288 170.966C217.629 170.896 213.101 169.754 208.478 169.349C205.983 169.133 203.484 169.148 200.999 169.364C201.009 170.756 201.024 172.319 201.034 174.012C205.618 174.032 210.196 174.042 214.779 174.037C223.921 174.027 233.062 173.972 242.199 173.867C246.632 173.817 251.07 173.752 255.503 173.676C255.393 172.489 255.273 171.307 255.153 170.125Z" fill="white"/>
<path d="M255.914 178.159C253.68 177.664 251.426 177.228 249.142 177.058C246.397 176.852 243.847 177.303 241.147 177.649C236.228 178.285 231.269 178.57 226.35 179.191C217.96 180.258 209.49 179.106 201.085 179.332C201.1 180.874 201.115 182.472 201.125 184.1C202.156 184.226 203.194 184.306 204.225 184.381C209.064 184.721 213.938 184.561 218.747 183.915C223.796 183.234 228.735 181.516 233.844 181.35C238.803 181.19 243.787 182.092 248.696 182.708C251.145 183.013 253.605 183.409 256.064 183.629C256.159 183.639 256.255 183.644 256.355 183.649C256.22 181.821 256.074 179.988 255.914 178.159Z" fill="white"/>
<path d="M233.373 140.501C232.847 141.323 231.971 141.904 231.069 142.345C229.782 142.976 228.409 143.622 226.971 143.767C225.494 143.917 224.046 143.552 222.659 143.066C221.396 142.62 218.321 140.286 218.321 140.286C218.321 140.286 217.499 140.231 216.527 140.136C218.446 142.906 220.875 144.949 224.497 145.475C228.023 145.986 231.936 144.774 234.355 142.094C234.821 141.583 235.176 140.997 235.422 140.361C234.17 140.441 233.373 140.501 233.373 140.501Z" fill="white"/>
<path d="M199.993 153.6C200.399 150.66 200.809 147.714 201.215 144.774C201.26 144.458 200.774 144.323 200.734 144.639C200.394 147.088 200.058 149.538 199.717 151.987C199.232 149.277 198.691 146.582 198.079 143.892C198.009 143.577 197.523 143.712 197.598 144.028C199.161 150.9 200.308 157.853 201.035 164.86C201.07 165.176 201.571 165.181 201.536 164.86C201.135 161.089 200.624 157.337 199.993 153.6Z" fill="#B85F46"/>
<path d="M256.42 143.326C255.534 150.935 255.073 158.579 255.038 166.238C255.038 166.558 255.539 166.558 255.539 166.238C255.574 158.579 256.039 150.935 256.921 143.326C256.961 143.006 256.46 143.011 256.42 143.326Z" fill="#B85F46"/>
<path d="M258.273 304.979C257.752 304.028 257.191 303.101 256.64 302.169C256.144 301.323 255.653 300.481 255.157 299.635C255.052 299.459 254.952 299.249 254.842 299.034C254.862 298.107 255.007 295.913 255.152 292.467H246.973C247.053 292.878 247.138 293.288 247.223 293.699C247.343 294.28 247.353 294.901 247.413 295.527C247.503 296.434 247.514 297.796 247.514 299.269H247.519C246.993 301.418 245.845 306.302 245.765 306.863C245.695 307.339 245.825 307.885 246.236 308.135C246.467 308.275 246.747 308.295 247.018 308.311C247.814 308.356 248.61 308.381 249.407 308.401C249.577 308.406 249.748 308.406 249.918 308.411C250.659 308.421 252.402 308.421 253.144 308.416C253.274 308.416 253.409 308.411 253.539 308.411H253.665C254.241 308.401 254.817 308.396 255.398 308.386C255.568 308.386 255.733 308.381 255.899 308.376C256.355 308.371 256.805 308.356 257.256 308.331C257.421 308.321 257.587 308.311 257.752 308.295C258.113 308.275 258.473 308.24 258.829 308.2C259.014 308.18 259.205 308.115 259.315 307.97C259.42 307.825 259.46 307.649 259.455 307.459C259.435 306.637 258.554 305.495 258.273 304.979ZM207.721 299.414C207.586 300.336 204.751 300.922 204.04 301.283C202.672 301.984 201.24 302.54 199.837 303.161C198.56 303.732 197.052 304.333 196.08 305.38C195.765 305.716 195.504 306.132 195.549 306.612C195.554 306.663 195.559 306.708 195.569 306.753C195.614 306.993 195.71 307.153 195.84 307.264C196.18 307.554 196.756 307.479 197.302 307.484C197.939 307.494 198.575 307.509 199.206 307.524C200.513 307.559 201.816 307.599 203.118 307.619C205.658 307.659 210.727 307.659 213.251 307.314C215.22 307.048 214.985 305.425 215.03 303.762C215.13 300.04 216.051 296.189 216.868 292.467H207.922C207.807 296.594 207.732 299.349 207.721 299.414Z" fill="white"/>
<path d="M213.778 255.084C213.432 256.081 213.086 257.083 212.746 258.079C212.64 258.385 213.126 258.515 213.227 258.215C213.572 257.218 213.918 256.216 214.258 255.219C214.364 254.914 213.883 254.778 213.778 255.084Z" fill="#87524D"/>
<path d="M247.088 260.088C246.437 258.716 245.666 257.423 244.764 256.201C244.574 255.946 244.138 256.196 244.333 256.452C245.23 257.674 246.006 258.971 246.657 260.339C246.798 260.634 247.228 260.379 247.088 260.088Z" fill="#87524D"/>
<path d="M250.509 256.682C250.124 257.428 249.923 258.23 249.908 259.071C249.903 259.392 250.404 259.392 250.409 259.071C250.419 258.315 250.599 257.604 250.94 256.932C251.09 256.647 250.655 256.396 250.509 256.682Z" fill="#87524D"/>
</svg>
