<svg width="299" height="479" viewBox="0 0 299 479" fill="none" xmlns="http://www.w3.org/2000/svg">
<g clip-path="url(#clip0)">
<path d="M286.117 243.749C284.858 240.508 283.405 237.342 281.743 234.277C281.007 232.918 280.239 230.797 278.527 230.47C277.552 230.281 276.387 230.608 275.431 230.797C274.191 231.042 272.976 231.376 271.774 231.766C271.667 231.445 271.126 231.464 271.17 231.835C271.176 231.88 271.17 231.917 271.176 231.961C271.151 231.968 271.12 231.98 271.094 231.986C270.729 232.112 270.868 232.666 271.214 232.597C271.246 234.611 269.32 236.795 268.162 238.507C267.356 239.69 267.205 240.81 267.746 242.151C268.432 243.844 269.647 245.379 270.629 246.908L274.229 252.529C274.304 252.642 274.449 252.717 274.587 252.673C277.457 251.78 281.58 250.483 284.519 249.892C285.865 248.173 286.061 245.964 286.117 243.749Z" fill="#F7A37A"/>
<path d="M42.4184 397.135C38.208 396.896 33.9913 396.663 29.781 396.424C30.146 395.587 30.5236 394.75 30.8886 393.913C31.046 393.548 30.5047 393.227 30.3474 393.598C29.9383 394.53 29.5229 395.455 29.1138 396.386L25.2118 396.166C24.8091 396.141 24.8091 396.77 25.2118 396.796C26.4202 396.865 27.6286 396.934 28.8432 396.997C21.8826 412.825 14.6576 428.534 7.15565 444.117C7.05495 444.331 7.17453 444.582 7.42627 444.589C10.2898 444.658 13.2604 444.954 16.1177 444.778C17.8987 444.664 18.9686 443.682 19.919 442.241C23.0028 437.578 25.7342 432.625 28.4153 427.722C33.7585 417.942 38.529 407.853 42.7268 397.526C42.8023 397.33 42.6009 397.142 42.4184 397.135Z" fill="#F7A37A"/>
<path d="M218.134 389.973C214.031 390.968 209.934 391.956 205.83 392.95C205.937 392.044 206.057 391.138 206.164 390.225C206.214 389.829 205.598 389.678 205.554 390.08C205.434 391.087 205.302 392.101 205.182 393.108L201.387 394.026C200.991 394.121 201.179 394.725 201.57 394.631C202.747 394.347 203.923 394.058 205.1 393.775C203.017 410.937 200.645 428.068 197.97 445.149C197.932 445.382 198.127 445.589 198.366 445.527C201.123 444.765 204.056 444.192 206.743 443.192C208.417 442.569 209.153 441.316 209.651 439.667C211.249 434.311 212.432 428.779 213.584 423.31C215.869 412.404 217.518 401.365 218.55 390.269C218.556 390.049 218.311 389.929 218.134 389.973Z" fill="#F7A37A"/>
<path d="M123.152 154.633C118.81 158.232 114.24 161.675 109.162 164.18C104.574 166.439 98.0282 168.831 92.9431 166.899C87.4173 164.797 86.1964 158.352 86.209 153.128C86.2153 147.464 86.6055 141.768 86.9264 136.117C87.6061 124.103 88.6446 112.113 89.9851 100.156C92.748 99.1045 95.5045 98.0598 98.2674 97.0088C98.8842 105.165 99.5765 113.322 100.357 121.466C100.753 125.613 101.175 129.76 101.622 133.902C101.848 135.991 101.515 139.924 104.278 140.434C107.355 140.994 110.345 138.395 112.415 136.488C115.342 133.795 118.199 131.019 121.05 128.244C126.771 122.661 132.385 116.966 137.879 111.163C143.977 104.718 149.925 98.129 155.734 91.4138C160.561 97.8962 166.389 103.516 173.041 108.098C164.683 115.978 156.332 123.857 147.974 131.743C139.799 139.446 131.806 147.452 123.152 154.633Z" fill="#F7A37A"/>
<path d="M219.418 339.524C218.669 325.911 217.272 312.33 215.22 298.855C213.099 284.915 210.192 271.12 207.284 257.331C204.679 244.995 202.073 232.66 199.468 220.318C199.977 219.236 200.418 218.115 200.814 216.976C203.54 215.372 207.039 212.76 205.642 209.128C205.081 207.675 203.772 207.114 202.369 206.68C199.889 205.919 197.366 205.277 194.842 204.685C189.857 203.514 184.81 202.627 179.731 202.023C174.891 201.444 169.611 200.663 164.746 201.318C160.737 201.853 157.855 204.219 155.476 207.372C152.524 211.281 150.076 215.611 147.766 219.922C145.331 224.459 143.052 229.091 140.824 233.742C138.867 237.827 137.004 242.1 136.551 246.657C136.092 251.289 137.501 255.612 139.698 259.634C142.064 263.964 144.915 268.074 147.628 272.196C153.153 280.604 159.145 288.446 165.822 295.96C169.227 299.793 172.431 303.752 174.772 308.34C177.069 312.833 178.642 317.642 180.046 322.475C183.01 332.683 185.76 342.961 188.605 353.2C190.052 358.418 191.689 363.647 192.299 369.047C192.897 374.321 192.633 379.677 192.564 384.976C192.425 395.896 192.287 406.815 192.148 417.74C192.117 420.44 192.079 423.147 192.048 425.853C192.048 426.073 192.255 426.212 192.457 426.168C200.084 424.38 207.813 423.071 215.604 422.259C215.73 422.247 215.894 422.171 215.919 422.02C219.739 394.693 220.929 367.046 219.418 339.524Z" fill="#D18971"/>
<path d="M246.99 21.3855C246.852 22.1596 246.707 22.9211 246.55 23.6701C245.165 30.1335 242.541 36.3264 239.595 42.299C238.154 45.2192 236.574 48.0324 234.523 50.6065C232.446 53.2183 230.092 55.6287 227.751 58.0265C223.937 61.916 219.437 63.9802 214.32 64.6725C207.901 65.5347 197.359 65.8117 194.949 61.532C194.338 60.4496 194.439 56.4972 194.993 51.261C195.144 49.8827 195.32 48.4226 195.534 46.8933C195.654 45.9178 195.799 44.9234 195.956 43.9038C195.289 43.5703 194.615 43.2304 193.967 42.8654C193.344 42.5192 192.809 42.192 192.601 41.4682C192.186 40.0144 193.111 38.1767 193.829 36.9054C194.936 34.9355 196.409 33.1922 197.479 31.1972C198.052 30.121 198.543 29.0196 198.952 27.8867C198.97 27.8049 198.989 27.7168 199.008 27.635C199.04 27.484 199.077 27.3392 199.109 27.1945C199.373 26.0553 199.638 24.9477 199.908 23.8778C199.959 23.6701 200.015 23.4624 200.084 23.2421C201.135 19.5667 203.615 14.192 205.812 12.3794C212.571 11.3095 216.246 12.6752 223.031 11.8445C223.968 11.7312 224.912 11.6179 225.857 11.5109C226.385 11.4921 226.92 11.4669 227.449 11.4417C227.682 11.5424 227.915 11.6368 228.16 11.7186C231.936 12.9648 235.612 14.3493 239.098 16.2248C241.867 17.7101 244.372 19.6548 246.99 21.3855Z" fill="#F7A37A"/>
<path d="M232.679 50.6442C225.907 50.1282 219.129 49.6184 212.357 49.1023C212.602 48.0198 212.841 46.9436 213.087 45.8611C213.175 45.4646 212.621 45.2821 212.527 45.6786C212.275 46.8052 212.017 47.9254 211.765 49.052L209.978 48.9198C209.6 48.8883 209.556 49.5177 209.934 49.5492C210.494 49.5932 211.06 49.6373 211.621 49.675C209.26 60.1349 206.9 70.5948 204.54 81.0546C204.496 81.2497 204.591 81.4511 204.798 81.4574C209.323 81.577 213.842 81.6966 218.367 81.8162C219.45 81.8476 220.532 81.8854 221.615 81.9043C222.15 81.9106 222.766 81.9735 223.257 81.6462C224.403 80.8784 224.862 78.4869 225.322 77.2848C228.556 68.7508 231.086 59.965 232.937 51.047C232.981 50.8393 232.886 50.6568 232.679 50.6442Z" fill="#F7A37A"/>
<path d="M202.306 32.8209C201.991 34.2306 201.129 35.2628 200.386 35.1243C199.644 34.9922 199.298 33.7397 199.619 32.33C199.933 30.9202 200.796 29.8881 201.538 30.0266C202.275 30.165 202.621 31.4111 202.306 32.8209Z" fill="#421818"/>
<path d="M204.779 24.9413C203.47 23.9784 201.803 23.3994 200.084 23.2421C200.015 23.4623 199.959 23.67 199.908 23.8777C199.638 24.9476 199.373 26.0553 199.109 27.1944C199.172 27.1944 199.235 27.2007 199.298 27.207C201.135 27.3958 202.69 28.4783 204.484 28.6293C205.251 28.6923 206.441 28.5035 206.586 27.5406C206.737 26.5084 205.484 25.4574 204.779 24.9413Z" fill="#421818"/>
<path d="M202.149 47.2457C199.927 47.2646 197.731 47.1513 195.534 46.8932C195.32 48.4226 195.144 49.8827 194.993 51.261C197.529 50.4113 200.292 49.4358 202.35 47.7869C202.57 47.6044 202.407 47.2457 202.149 47.2457Z" fill="white"/>
<path d="M159.799 202.495C158.144 198.769 153.072 200.72 150.284 201.564C139.345 204.88 128.414 208.197 117.475 211.514C116.059 211.942 114.637 212.376 113.221 212.804C113.202 212.81 113.183 212.81 113.158 212.823C111.912 213.2 110.666 213.578 109.42 213.955C109.036 214.075 109.199 214.679 109.59 214.56C110.521 214.276 111.446 214 112.378 213.716C102.289 225.687 92.1879 237.77 84.2077 251.283C76.3219 264.644 71.3311 279.314 65.906 293.77C63.1054 301.228 60.1537 308.654 56.5475 315.766C53.1616 322.437 49.0897 328.637 44.5772 334.596C35.7914 346.189 26.0364 357.367 22.147 371.716C17.6723 388.23 19.6862 406.311 11.813 421.907C11.7312 422.07 11.7878 422.329 12.0018 422.366C18.1066 423.512 24.2176 424.657 30.3223 425.803C30.4671 425.828 30.5992 425.784 30.6748 425.658C42.3934 407.249 54.6532 389.18 67.448 371.502C80.1609 353.937 93.4655 336.831 107.091 319.97C119.231 304.954 131.422 289.818 141.133 273.071C145.903 264.845 150.044 256.242 153.153 247.248C156.552 237.43 158.579 227.216 159.554 216.882C159.818 214.1 160.007 211.319 160.127 208.53C160.209 206.642 160.605 204.307 159.799 202.495Z" fill="#D18971"/>
<path d="M279.748 231.124C278.728 229.343 277.709 227.562 276.708 225.768C272.624 218.468 268.753 211.01 265.776 203.175C262.856 195.496 260.811 187.422 260.477 179.184C260.118 170.291 261.925 161.543 263.196 152.782C264.631 142.895 265.455 132.926 265.707 122.938C265.713 122.718 265.499 122.598 265.311 122.636C256.77 124.191 250.118 125.745 241.578 127.3C241.748 125.714 241.112 125.789 240.936 127.419C238.016 127.948 238.028 128.584 240.867 128.067C240.086 135.393 236.329 167.182 236.121 175.773C235.939 183.545 237.223 191.06 241.502 197.674C243.705 201.073 252.61 214.509 255.442 218.084C261.749 226.045 268.061 234.007 274.367 241.968C274.455 242.075 274.638 242.081 274.751 242.018C276.412 241.049 277.998 239.96 279.471 238.721C280.44 237.902 281.856 236.939 281.863 235.53C281.869 234.026 280.447 232.339 279.748 231.124Z" fill="#F7A37A"/>
<path d="M267.941 116.298C267.954 109.206 266.947 101.842 263.379 95.5487C255.984 82.521 231.86 75.1764 205.843 76.0198C190.336 76.517 172.368 80.0602 164.35 83.5469C157.534 86.5111 151.007 90.2054 145.211 94.9634C139.308 99.8031 134.399 105.725 129.49 111.585C123.888 118.268 117.318 126.11 112.069 133.486C111.931 133.681 111.836 133.983 112.069 134.027C126.595 137.124 131.139 138.855 141.951 137.911C136.098 145.11 130.925 152.883 128.363 162.015C127.369 165.571 126.695 169.215 125.6 172.745C124.518 176.232 122.913 179.467 120.987 182.538C117.425 188.215 113.013 193.275 109.602 199.059C105.612 205.812 102.918 213.32 101.597 221.105C101.565 221.3 101.678 221.508 101.892 221.501C132.466 221.237 163.047 222.634 193.47 225.706C195.32 225.894 197.17 226.14 199.021 226.278C200.248 226.366 201.507 226.303 202.564 225.573C204.465 224.252 205.012 221.659 205.579 219.532C207.246 213.2 223.956 178.246 230.098 166.968C234.132 159.56 238.003 152.002 241.175 144.154C241.609 144.273 242.05 144.361 242.509 144.405C246.229 144.758 249.646 142.757 253.259 142.272C255.468 141.976 257.368 142.543 259.407 143.329C260.534 143.764 263.334 144.374 264.581 143.889C265.758 143.424 267.929 124.461 267.941 116.298Z" fill="#421818"/>
<path d="M98.8841 90.8726C97.8709 87.3104 94.7304 85.5608 91.3445 84.6986C89.0536 84.1133 86.0705 84.0378 84.0691 82.6847C82.1181 81.3567 81.5202 78.1219 80.7461 76.0387C79.9972 74.0373 79.393 71.9038 78.449 69.9906C77.8889 68.8515 77.0581 67.8256 75.6861 67.9011C75.5036 67.9137 75.384 68.0396 75.3714 68.2158C75.3022 69.0088 75.2896 69.8018 75.3085 70.5885C75.1512 70.5004 74.9057 70.5318 74.8176 70.7521C74.0057 72.8982 73.5023 75.208 73.4582 77.5114C73.3638 77.5114 73.2694 77.5491 73.2128 77.6624C71.7778 80.3561 70.4184 83.2826 71.6583 86.3161C72.6841 88.8335 74.7421 90.967 76.7371 92.7544C81.1552 96.7067 86.5803 99.6584 89.7837 104.813C89.8403 104.901 89.9473 104.976 90.0543 104.97C92.7794 104.825 95.4982 104.574 98.2044 104.24C98.1918 104.334 98.1856 104.429 98.1793 104.517C98.1352 104.92 98.7646 104.913 98.8086 104.517C98.8212 104.391 99.2681 99.0731 99.3247 96.82C99.375 94.8438 99.4317 92.7921 98.8841 90.8726Z" fill="#F7A37A"/>
<path d="M197.378 353.565L193.476 351.526C203.716 331.928 214.132 312.198 224.422 292.889C229.01 284.286 233.673 275.563 238.293 266.966L238.368 266.821C242.251 259.596 246.266 252.119 253.913 247.777C261.176 243.648 269.565 243.013 276.815 242.931C277.419 242.925 278.061 242.906 278.729 242.887C284.89 242.717 294.198 242.453 296.376 250.76C298.075 257.224 294.809 264.021 292.178 269.49C291.7 270.49 291.234 271.46 290.818 272.385C286.929 281.038 282.876 289.755 278.779 298.302C270.528 315.496 261.686 332.796 252.497 349.732C252.063 350.525 251.276 351.016 250.376 351.041C249.464 351.067 248.614 350.595 248.142 349.821C247.67 349.046 247.645 348.109 248.079 347.309L248.633 347.611C257.784 330.751 266.588 313.519 274.808 296.395C278.892 287.886 282.926 279.194 286.803 270.578C287.237 269.609 287.709 268.627 288.213 267.583C290.649 262.516 293.405 256.777 292.115 251.88C290.919 247.318 285.633 247.104 278.848 247.292C278.15 247.311 277.482 247.33 276.859 247.336C270.169 247.412 262.472 247.972 256.084 251.603C249.545 255.323 245.832 262.227 242.245 268.904L242.169 269.049C237.55 277.64 232.886 286.356 228.305 294.953C218.021 314.262 207.618 333.98 197.378 353.565ZM248.639 347.611L251.956 349.411C252.277 348.82 252.258 348.096 251.899 347.517C251.547 346.944 250.943 346.611 250.263 346.63C249.589 346.649 248.966 347.02 248.639 347.611Z" fill="#421818"/>
<path d="M37.7927 464.181C35.3508 460.851 30.4733 463.759 27.7545 460.675C26.3573 459.089 25.7154 456.893 25.086 454.91C24.3875 452.701 21.9644 448.95 22.0085 446.615C22.0337 445.212 22.3169 443.827 22.9966 442.594C23.5567 441.568 24.4693 440.725 24.9224 439.642C25.4825 438.295 25.1741 437.175 24.1987 436.137C21.1652 432.902 16.5268 430.881 12.2976 429.849C11.8255 429.736 6.75294 438.176 3.98378 442.046C2.36634 444.299 -1.44755 448.17 0.566383 451.166C1.66146 452.789 3.82015 453.947 5.28654 455.225C7.16202 456.855 8.94309 458.592 10.6235 460.423C13.3737 463.425 17.1058 468.076 21.4169 468.687C25.7217 469.291 30.3978 468.737 34.7089 468.341C35.8984 468.234 37.4277 468.215 38.1514 467.076C38.7619 466.132 38.3969 464.999 37.7927 464.181Z" fill="#421818"/>
<path d="M228.506 448.384C226.863 446.596 223.622 447.484 221.552 447.522C219.607 447.553 217.662 447.339 215.774 446.861C214.283 446.483 210.922 445.917 210.462 444.299C210.249 443.557 210.267 442.707 210.324 441.939C210.557 438.717 211.52 438.05 211.274 434.771C211.262 434.639 211.186 434.494 211.041 434.469C207.8 433.802 199.386 434.167 198.769 434.475C197.875 437.653 197.064 440.85 196.359 444.079C195.78 446.729 194.905 449.586 194.961 452.317C195.081 458.019 201.689 456.383 205.396 455.804C208.713 455.281 214.27 454.684 217.549 453.979C220.639 453.312 223.855 452.77 226.882 451.833C228.349 451.373 229.865 449.863 228.506 448.384Z" fill="#421818"/>
<path d="M297.735 316.389C295.979 310.876 290.592 309.441 285.161 308.938C283.814 308.818 282.461 308.749 281.171 308.698C280.145 308.648 279.163 308.61 278.231 308.554C278.024 308.541 277.816 308.522 277.615 308.51C277.206 308.478 276.778 308.453 276.331 308.422C258.652 307.333 217.99 308.201 213.804 308.22C205.094 308.252 196.428 309.447 189.146 314.564C182.897 318.957 178.271 325.263 174.495 331.821C169.976 339.669 166.414 348.071 162.619 356.284C160.064 361.803 157.515 367.323 154.96 372.842C152.367 378.45 149.768 384.064 147.175 389.671C143.361 397.928 139.541 406.179 135.72 414.436C131.548 423.455 126.437 432.587 124.323 442.373C122.875 449.076 123.498 457.49 131.176 459.781C135.664 461.122 140.699 461.336 145.337 461.783C150.554 462.286 214.239 462.173 224.95 461.827C228.387 461.72 232.087 461.82 235.423 460.769C235.876 460.631 236.329 460.467 236.77 460.278C237.021 460.171 237.273 460.052 237.518 459.926C241.131 458.088 243.277 454.482 245.184 451.065C255.008 433.487 263.505 415.185 271.246 396.607C279.037 377.927 286.061 358.934 292.921 339.896C294.462 335.622 296.231 331.362 297.376 326.956C298.251 323.576 298.824 319.794 297.735 316.389Z" fill="#565A94"/>
<path d="M149.415 454.589C147.049 453.664 144.588 454.577 142.593 455.942C138.043 459.058 133.883 464.351 134.153 470.084C134.285 472.841 135.066 475.081 137.344 475.83C139.805 476.636 142.253 475.471 144.166 473.955C148.484 470.525 151.473 465.213 152.172 459.744C152.461 457.434 151.687 455.483 149.415 454.589Z" fill="#421818"/>
<path d="M218.222 456.691C215.856 455.766 213.395 456.679 211.4 458.044C206.85 461.16 202.69 466.453 202.961 472.186C203.093 474.943 203.873 477.183 206.151 477.932C208.612 478.738 211.06 477.573 212.974 476.056C217.291 472.626 220.28 467.315 220.979 461.846C221.275 459.53 220.494 457.579 218.222 456.691Z" fill="#421818"/>
<path d="M278.238 308.554C275.808 309.133 273.455 310.083 271.302 311.398C264.606 315.496 260.515 322.551 257.041 329.36C242.421 358.04 230.577 388.11 219.28 418.219C216.454 425.752 213.666 433.298 210.89 440.85C210.192 442.738 209.5 444.626 208.807 446.515C208.121 448.384 206.932 450.649 207.649 452.67C208.826 455.999 213.565 456.842 216.536 457.528C223.175 459.07 229.985 459.7 236.776 460.279C236.335 460.467 235.882 460.631 235.429 460.769C231.036 460.386 226.637 459.97 222.282 459.278C218.304 458.649 213.786 458.07 210.192 456.125C207.794 454.835 206.359 452.72 206.976 449.938C207.442 447.855 208.398 445.803 209.135 443.796C209.865 441.813 210.595 439.831 211.325 437.855C214.276 429.83 217.247 421.812 220.268 413.813C226.278 397.897 232.496 382.05 239.199 366.41C242.597 358.468 246.128 350.582 249.81 342.765C253.108 335.773 256.298 328.574 260.414 322.016C263.977 316.345 268.659 311.304 275.034 308.875C275.462 308.711 275.897 308.56 276.337 308.422C276.784 308.453 277.212 308.478 277.621 308.51C277.822 308.522 278.03 308.541 278.238 308.554Z" fill="#421818"/>
<path d="M99.2996 89.2048C98.2989 84.472 94.3781 80.9728 92.5403 76.5988C92.0243 75.3653 91.8795 72.4828 90.4194 71.8786C88.9341 71.2619 88.16 73.1122 88.0342 74.2387C87.5622 78.5183 91.1495 82.4644 92.5844 86.2594C93.0879 87.581 93.4529 88.9593 93.5662 90.3754C93.6543 91.5334 93.5347 92.7166 93.7487 93.8683C94.1515 96.0459 95.7438 97.1472 97.7892 97.6948C97.6507 98.1164 97.5311 98.406 97.4745 98.3997C97.078 98.3493 96.9395 98.9661 97.3423 99.0164C98.3808 99.1423 98.7647 96.6375 98.9724 95.8885C99.5639 93.7236 99.7653 91.4138 99.2996 89.2048Z" fill="#F7A37A"/>
<path d="M252.409 20.2338C253.07 18.4087 252.239 16.6716 250.729 16.1996C252.094 14.8906 252.875 13.0969 252.126 11.0074C250.936 7.69074 246.657 7.26278 243.472 7.57116C244.448 6.79076 245.322 5.7838 245.291 4.47474C245.253 2.8573 243.856 2.00767 242.578 1.53565C238.204 -0.0754971 232.987 0.157364 228.493 1.67411C227.782 1.91326 227.09 2.23423 226.391 2.53003C226.052 0.780425 224.138 -0.0125617 222.458 2.53628e-05C219.28 0.018906 216.051 1.31538 213.282 3.21603C209.795 5.00969 207.366 8.49002 205.799 12.1843C205.642 12.1843 205.497 12.9018 205.528 12.971C205.553 13.0214 205.591 13.0654 205.616 13.1158C206.044 14.5255 207.574 15.1675 208.694 16.0926C210.752 17.7793 211.564 20.4541 211.564 23.047C211.564 25.8036 210.211 28.0504 209.858 30.7062C209.739 31.5999 209.789 32.5377 210.173 33.3621C210.595 34.2747 211.388 34.7026 212.105 35.3509C214.698 37.7173 212.59 41.0906 211.513 43.6458C210.582 45.8611 210.141 48.4037 210.991 50.7197C211.627 52.4505 212.948 53.942 214.711 54.5525C216.001 54.9993 217.259 55.0812 218.468 55.7986C219.588 56.4657 220.57 57.3405 221.684 58.0202C224 59.4237 227.159 59.5873 229.777 59.0461C230.734 58.851 231.162 58.4293 231.653 57.5923C231.879 57.2021 232.093 56.7993 232.307 56.4028C234.63 53.6399 238.771 52.9162 241.408 50.4995C244.378 47.7869 245.851 44.2248 246.506 40.2724C246.921 37.7865 247.229 35.1998 248.671 33.0474C250.005 31.0587 252.006 29.693 253.372 27.7231C255.014 25.3504 255.455 21.203 252.409 20.2338Z" fill="#421818"/>
<path d="M141.384 260.163C137.514 256.374 133.65 252.585 129.779 248.797C129.49 248.513 129.043 248.96 129.332 249.243C133.203 253.032 137.067 256.821 140.938 260.609C141.227 260.893 141.674 260.446 141.384 260.163Z" fill="#421818"/>
<path d="M161.48 371.835C159.302 371.445 157.018 371.861 154.966 372.842C152.373 378.45 149.774 384.064 147.181 389.671C147.326 390.118 147.483 390.552 147.659 390.968C149.635 395.694 155.262 396.852 159.699 395.103C164.199 393.334 169.133 388.721 169.674 383.692C170.184 379.004 166.313 372.71 161.48 371.835Z" fill="#EEDED4"/>
<path d="M219.991 355.497C219.827 351.558 216.769 348.039 213.477 346.133C206.346 342.004 197.366 346.277 194.225 353.414C192.582 357.146 191.909 364.403 198.719 368.563C204.226 371.93 211.948 370.778 216.221 365.806C218.6 363.031 220.148 359.185 219.991 355.497Z" fill="#EEDED4"/>
<path d="M213.458 356.404C213.37 354.245 211.696 352.325 209.89 351.281C205.988 349.021 201.073 351.362 199.354 355.264C198.454 357.304 198.089 361.275 201.815 363.553C204.83 365.397 209.053 364.768 211.394 362.043C212.697 360.526 213.54 358.424 213.458 356.404Z" fill="#565A94"/>
<path d="M206.668 392.327C204.49 388.941 202.463 385.461 200.575 381.905C200.506 381.767 200.38 381.729 200.267 381.754C200.21 381.748 200.147 381.754 200.084 381.785C196.541 383.699 193.086 385.763 189.719 387.972C189.618 388.035 189.581 388.129 189.581 388.224C189.568 388.287 189.568 388.362 189.606 388.438C191.487 391.994 193.514 395.461 195.685 398.847C195.754 399.005 195.931 399.112 196.113 398.992C199.48 396.783 202.935 394.725 206.479 392.805C206.51 392.787 206.529 392.768 206.548 392.749C206.693 392.667 206.781 392.503 206.668 392.327Z" fill="#782C2C"/>
<path d="M164.746 382.868C162.052 380.81 159.447 378.645 156.936 376.373C156.841 376.285 156.734 376.291 156.646 376.342C156.602 376.354 156.552 376.373 156.514 376.417C154.261 378.947 152.121 381.571 150.088 384.284C150.032 384.366 150.026 384.448 150.051 384.523C150.057 384.58 150.082 384.636 150.133 384.687C152.644 386.959 155.237 389.124 157.93 391.175C158.031 391.282 158.201 391.314 158.308 391.163C160.341 388.45 162.48 385.826 164.734 383.296C164.752 383.277 164.759 383.252 164.771 383.233C164.866 383.126 164.885 382.975 164.746 382.868Z" fill="#782C2C"/>
<path d="M179.284 365.901C181.455 362.508 183.759 359.21 186.207 356.013C186.301 355.894 186.283 355.762 186.213 355.667C186.195 355.611 186.163 355.56 186.106 355.516C182.884 353.099 179.567 350.821 176.156 348.681C176.056 348.618 175.955 348.625 175.873 348.656C175.804 348.669 175.741 348.7 175.691 348.769C173.249 351.967 170.945 355.258 168.774 358.644C168.661 358.77 168.636 358.978 168.824 359.091C172.235 361.231 175.552 363.509 178.774 365.926C178.8 365.945 178.825 365.951 178.856 365.963C178.982 366.064 179.171 366.077 179.284 365.901Z" fill="#421818"/>
<path d="M231.728 341.57C233.9 338.178 236.203 334.88 238.651 331.683C238.746 331.563 238.727 331.431 238.658 331.336C238.639 331.28 238.607 331.229 238.551 331.185C235.328 328.769 232.012 326.49 228.601 324.351C228.5 324.288 228.399 324.294 228.317 324.325C228.248 324.338 228.185 324.369 228.135 324.439C225.693 327.636 223.389 330.927 221.218 334.313C221.105 334.439 221.08 334.647 221.269 334.76C224.68 336.9 227.996 339.178 231.219 341.595C231.244 341.614 231.269 341.62 231.3 341.633C231.433 341.733 231.615 341.74 231.728 341.57Z" fill="#D18971"/>
<path d="M234.611 111.257C234.63 110.855 234 110.855 233.981 111.257C233.61 120.144 233.761 129.037 234.447 137.904C234.479 138.307 235.108 138.307 235.077 137.904C234.397 129.037 234.239 120.144 234.611 111.257Z" fill="#565A94"/>
<path d="M168.824 98.7773C159.736 108.576 152.304 119.791 146.822 131.982C146.658 132.347 147.2 132.668 147.363 132.297C152.82 120.156 160.215 108.979 169.265 99.2178C169.548 98.9283 169.101 98.4815 168.824 98.7773Z" fill="#8EA168"/>
<path d="M284.877 245.367C284.254 244.227 282.851 243.825 282.02 245.064C281.598 245.7 281.491 246.48 281.573 247.273C281.447 247.091 281.328 246.921 281.221 246.776C280.491 245.801 278.552 243.365 277.526 245.367C276.929 246.525 277.199 247.758 277.803 248.885C277.193 248.299 276.545 247.771 276.092 247.305C275.198 246.386 273.637 243.944 272.171 245.492C271.441 246.26 271.548 247.399 272.038 248.343C271.73 247.966 271.415 247.588 271.094 247.229C270.27 246.304 269.257 245.215 267.91 245.241C264.977 245.297 267.52 248.765 268.344 249.778C269.597 251.301 272.926 254.763 275.261 253.661C275.613 253.636 275.966 253.542 276.217 253.328C277.363 253.806 278.785 253.964 279.301 252.736C279.32 252.686 279.333 252.642 279.345 252.592C280.252 253.064 281.397 253.133 282.209 252.566C282.668 252.245 282.901 251.83 282.996 251.364C283.833 251.754 284.739 251.824 285.393 250.93C286.482 249.432 285.658 246.795 284.877 245.367Z" fill="#F7A37A"/>
<path d="M190.732 166.364C191.525 164.57 192.306 162.764 193.073 160.958C193.558 159.837 194.036 158.711 194.508 157.584C195.119 156.137 195.717 154.689 196.315 153.242C196.409 153.028 196.497 152.814 196.579 152.6C200.437 143.235 204.068 133.763 207.46 124.191C210.016 116.997 212.483 109.753 214.736 102.44C215.447 100.13 216.177 97.3298 216.234 94.6487C222.71 88.7139 229.897 83.5595 237.632 79.3302C237.846 79.2106 237.82 78.9085 237.632 78.7827C232.603 75.5415 226.196 75.8247 220.859 78.1722C216.901 79.9092 213.59 82.6847 210.62 85.8063C210.613 85.8063 210.607 85.8 210.601 85.8C210.399 85.7308 210.198 85.6678 209.99 85.6112C209.185 85.3657 208.354 85.1958 207.536 85.0448C203.93 84.3902 200.292 83.8616 196.654 83.3833C195.641 83.2511 194.628 83.1189 193.615 82.9994C191.154 82.7036 188.693 82.4392 186.226 82.2127C182.425 81.8665 178.617 81.5959 174.803 81.4071C173.733 81.3504 172.305 81.3316 170.838 81.3316C168.459 81.3379 165.967 81.4008 164.664 81.4826C164.066 81.5204 163.72 81.5644 163.745 81.6022C154.664 81.9672 145.79 86.0895 138.515 92.0998C133.379 96.348 128.948 101.427 124.946 106.915C124.946 106.915 124.946 106.921 124.946 106.927C124.763 107.173 124.587 107.418 124.417 107.664C120.641 112.913 117.255 118.508 114.001 124.077C109.741 131.365 105.725 138.823 101.962 146.432C101.861 146.627 101.767 146.829 101.672 147.024C99.0037 152.43 96.4674 157.911 94.057 163.456C92.5465 166.93 91.0927 170.429 89.6893 173.954C88.355 177.302 86.876 180.688 86.1775 184.275C85.6425 187.044 85.5481 190.285 86.8823 192.803C88.2984 195.484 91.2878 196.453 93.8871 197.139C95.6744 197.611 97.4933 197.907 99.3247 198.089C101.968 198.36 104.636 198.404 107.305 198.448C109.545 198.48 111.78 198.511 113.995 198.668C121.302 199.185 128.546 200.33 135.789 201.444C137.948 201.777 140.126 202.136 142.31 202.476C142.656 202.533 143.008 202.583 143.361 202.633C147.772 203.307 152.222 203.854 156.646 203.848C162.273 203.842 167.484 202.149 171.946 198.335C180.505 200.437 189.429 200.166 198.108 198.687C203.08 197.838 207.976 196.61 212.822 195.207C214.427 194.741 216.473 194.464 217.41 192.91C218.569 190.99 219.166 188.548 219.972 186.465C220.054 186.251 219.796 185.987 219.582 186.075C206.346 191.481 191.896 193.476 177.723 191.89C179.265 189.738 180.65 187.434 181.921 185.1C185.206 179.07 187.95 172.676 190.732 166.364Z" fill="#A67A6F"/>
<path d="M168.969 136.325C166.156 141.699 163.292 147.049 160.467 152.43C172.487 153.153 184.546 153.204 196.579 152.6C196.497 152.814 196.409 153.028 196.315 153.242C189.511 153.581 182.695 153.72 175.886 153.632C170.637 153.563 165.388 153.361 160.152 153.04C156.351 160.29 152.65 167.591 149.308 175.049C146.445 181.456 143.474 188.202 141.907 195.069C141.252 197.926 141.473 200.783 143.361 202.633C143.008 202.583 142.656 202.533 142.31 202.476C141.032 200.846 140.705 198.675 141.007 196.472C141.454 193.18 142.75 189.927 143.864 186.818C145.104 183.369 146.47 179.977 147.93 176.622C150.957 169.674 154.381 162.908 157.874 156.187C158.427 155.123 158.981 154.066 159.535 153.002C151.939 152.524 144.361 151.782 136.815 150.775C130.516 149.925 124.266 148.591 117.954 147.854C112.547 147.225 107.034 147.917 101.672 147.024C101.767 146.828 101.861 146.627 101.962 146.432C104.901 146.904 107.884 146.885 110.867 146.891C114.159 146.891 117.4 147.093 120.654 147.596C133.499 149.598 146.249 151.53 159.233 152.361C159.441 152.373 159.648 152.386 159.85 152.398C166.477 139.679 173.142 126.985 179.788 114.285C173.331 115.927 166.452 115.147 159.888 114.694C151.857 114.146 143.732 113.894 135.733 112.95C132.668 112.585 129.112 112.113 126.431 110.458C125.405 109.822 124.593 108.771 124.417 107.664C124.587 107.418 124.763 107.173 124.946 106.927C124.524 108.803 127.369 110.332 128.93 110.873C130.704 111.484 132.555 111.874 134.411 112.145C138.276 112.717 142.215 112.856 146.111 113.12C153.065 113.599 160.02 114.184 166.98 114.524C171.512 114.744 175.98 114.593 180.235 113.429C180.247 113.403 180.26 113.378 180.272 113.353C180.386 113.145 180.606 113.164 180.744 113.29C182.639 112.73 184.489 111.969 186.283 110.936C191.62 107.865 196.422 103.567 200.575 99.0479C204.295 94.9948 207.479 90.4949 209.99 85.6111C210.198 85.6678 210.4 85.7307 210.601 85.8C207.423 92.0117 203.143 97.6003 198.133 102.453C193.401 107.034 187.888 111.679 181.55 113.781C181.242 113.882 180.927 113.97 180.612 114.058C176.729 121.484 172.852 128.904 168.969 136.325Z" fill="#421818"/>
<path d="M164.664 81.4826C157.483 83.9937 150.756 87.8957 145.412 93.3333C142.14 96.6626 139.566 100.508 137.665 104.762C136.476 107.425 135.349 110.055 133.341 112.227C131.541 114.178 129.358 115.719 127.23 117.287C123.215 120.238 119.055 123.744 118.4 128.993C118.382 129.163 118.558 129.314 118.715 129.307C120.679 129.263 122.636 129.213 124.6 129.169C124.725 129.163 124.883 129.074 124.902 128.936C125.644 123.87 130.132 121.069 133.574 117.834C136.671 114.92 138.269 111.182 140.535 107.67C141.869 105.606 143.436 104.02 145.513 102.711C147.263 101.609 148.861 100.546 150.202 98.9472C153.122 95.492 154.878 91.4264 158.748 88.8209C161.083 87.2475 163.538 85.8377 165.936 84.365C167.15 83.6224 168.365 82.8735 169.58 82.1308C169.989 81.8791 170.41 81.5959 170.838 81.3315C168.459 81.3378 165.967 81.4008 164.664 81.4826Z" fill="#421818"/>
<path d="M186.226 82.2126C183.123 83.5406 180.153 85.2084 177.843 87.7069C174.463 91.3698 172.947 96.3354 169.536 99.9856C163.853 106.046 155.249 108.715 152.203 117.054C151.152 119.917 150.177 122.265 147.905 124.373C146.224 125.934 144.487 127.375 143.694 129.597C143.625 129.798 143.808 129.987 143.996 129.993L149.698 130.201C149.881 130.207 150 130.056 150.013 129.886C150.309 125.638 154.406 122.963 156.263 119.395C157.383 117.23 158.1 114.889 159.743 113.032C161.153 111.44 162.971 110.282 164.784 109.206C168.239 107.141 171.373 105.153 173.884 101.924C176.71 98.2927 178.686 94.076 181.575 90.4887C183.136 88.5502 184.955 86.7692 187.158 85.5797C189.216 84.472 191.639 84.2518 193.615 82.9993C191.154 82.7035 188.693 82.4392 186.226 82.2126Z" fill="#421818"/>
<path d="M136.52 130.106C134.997 130.006 133.48 129.905 131.957 129.804C131.743 129.792 131.648 129.955 131.655 130.125C128.237 134.361 125.688 139.144 124.071 144.342C123.133 147.357 122.378 150.441 120.893 153.254C119.691 155.52 118.155 157.584 116.619 159.63C113.435 163.878 110.729 167.968 109.753 173.274C109.237 176.093 108.985 178.982 108.104 181.72C107.198 184.539 105.423 186.748 103.718 189.109C101.716 191.878 100.357 194.917 99.3247 198.089C101.968 198.36 104.636 198.404 107.305 198.448C108.526 193.923 109.835 189.379 111.962 185.194C114.171 180.858 117.815 177.447 118.841 172.563C119.332 170.234 119.621 167.912 120.44 165.665C121.289 163.33 122.491 161.134 123.744 158.994C126.028 155.067 128.489 151.221 129.748 146.816C130.528 144.072 131.013 141.252 132.051 138.59C133.178 135.701 134.776 133.039 136.746 130.648C136.922 130.434 136.803 130.132 136.52 130.106Z" fill="#421818"/>
<path d="M193.476 157.251C191.645 156.942 189.58 157.276 187.736 157.332C183.834 157.458 179.914 157.471 176.018 157.754C172.796 157.993 169.548 158.56 166.703 160.177C160.725 163.569 157.779 170.366 155.237 176.414C155.13 176.679 154.186 177.975 155.891 178.076C159.101 178.277 160.196 174.942 161.234 172.475C162.631 169.164 165.13 166.596 168.195 164.771C174.847 160.825 182.765 160.939 190.248 160.907C190.833 160.907 191.985 161.014 193.073 160.957C193.558 159.837 194.036 158.711 194.508 157.584C194.194 157.42 193.841 157.313 193.476 157.251Z" fill="#421818"/>
<path d="M285.192 309.063C285.186 309.019 285.173 308.975 285.161 308.938C283.814 308.818 282.461 308.749 281.17 308.698C281.309 308.975 281.391 309.284 281.416 309.598C281.479 310.322 281.277 311.077 281.082 311.77C280.717 313.066 280.27 314.35 279.805 315.621C278.842 318.252 277.722 320.82 276.564 323.369C274.317 328.29 272.013 333.18 269.855 338.14C265.581 347.951 261.616 357.889 257.777 367.87C255.568 373.61 253.403 379.356 251.232 385.108C251.219 385.14 251.207 385.165 251.201 385.197C251.194 385.215 251.188 385.241 251.175 385.26C251.062 385.562 251.421 385.719 251.647 385.587H254.505C254.662 385.681 254.914 385.656 255.002 385.429C259.376 373.824 263.75 362.225 268.439 350.746C270.805 344.937 273.259 339.166 275.833 333.445C278.231 328.108 280.868 322.872 283.008 317.428C283.612 315.886 284.179 314.325 284.663 312.739C285.022 311.581 285.45 310.291 285.192 309.063Z" fill="#421818"/>
</g>
<defs>
<clipPath id="clip0">
<rect width="298.333" height="478.19" fill="white"/>
</clipPath>
</defs>
</svg>
