<svg width="346" height="260" viewBox="0 0 346 260" fill="none" xmlns="http://www.w3.org/2000/svg">
<g clip-path="url(#clip0)">
<path d="M345.036 14.2088C344.994 13.2825 344.428 -0.10097 330.889 0.152759C290.876 0.906553 81.1022 0.241397 41.0698 0.108374C29.5855 0.0689602 29.5855 0 18.1012 0C7.39046 0 4.47135 8.58242 5.10937 9.60719C5.10937 9.66877 5.10937 17.49 5.10937 17.5516C4.09692 58.4142 1.73703 202.305 0.645754 241.985C0.522585 246.479 2.34549 252.031 5.63657 255.09C10.115 259.254 12.6572 259.99 23.0527 259.99C65.647 259.99 330.891 260.081 342.987 259.323C343.94 259.261 344.859 258.584 344.815 257.583C344.605 252.997 346.041 37.3251 345.036 14.2088Z" fill="#F2E7E1"/>
<path d="M30.602 34.1794C30.5577 36.4392 30.5141 38.7014 30.4714 40.9661C30.7178 40.9833 31.0307 40.966 31.4248 40.9537C86.7967 40.5916 84.2446 40.4364 88.0826 40.5473C88.122 38.4994 88.1597 36.4556 88.1959 34.4159C84.5525 34.3691 49.3705 34.3814 30.602 34.1794Z" fill="#F2E7E1"/>
<path d="M127.218 33.8911C127.174 36.1509 127.131 38.4131 127.088 40.6777C127.334 40.6925 127.647 40.6654 128.041 40.6629C183.416 40.3008 180.861 40.1481 184.699 40.2589C184.738 38.2094 184.777 36.1648 184.815 34.1251C181.169 34.0832 145.987 34.0906 127.218 33.8911Z" fill="#F2E7E1"/>
<path d="M223.133 33.2852C223.088 35.5416 223.045 37.803 223.002 40.0693C223.248 40.0865 223.561 40.0693 223.955 40.0693C279.33 39.7071 276.775 39.5544 280.613 39.6653C280.653 37.6158 280.691 35.5712 280.729 33.5315C277.083 33.4773 241.901 33.4847 223.133 33.2852Z" fill="#F2E7E1"/>
<path d="M319.978 27.9644C319.599 27.622 319.306 27.7378 318.522 27.7181C291.703 27.3855 56.5268 27.8979 29.0625 27.553C28.8641 27.5472 28.6671 27.5889 28.488 27.6746C28.3089 27.7603 28.1528 27.8875 28.0329 28.0457C27.8198 28.2916 27.7003 28.6047 27.6954 28.93C27.3489 56.5839 27.0007 84.2379 26.6509 111.892C26.6509 111.931 26.6509 111.971 26.6509 112.012C26.641 112.212 26.681 112.411 26.7669 112.591C26.8529 112.771 26.9823 112.927 27.1436 113.045C27.3809 113.239 27.6792 113.344 27.9861 113.34C33.8046 113.414 312.132 113.439 318.123 113.515C319.222 113.527 319.288 112.589 319.328 111.665C319.673 84.3906 320.017 57.1161 320.36 29.8415C320.402 28.9153 320.557 28.3832 319.978 27.9644Z" fill="#78ADD9"/>
<path d="M271.343 107.697C268.665 106.597 265.862 105.827 262.997 105.406C256.962 104.45 250.754 104.337 244.66 104.58C239.386 104.792 233.516 104.952 228.508 106.797C226.106 107.682 220.984 110.226 222.167 113.611C237.765 113.636 259.901 113.658 275.07 113.683C275.433 113.327 275.686 112.875 275.799 112.379C275.911 111.884 275.878 111.366 275.703 110.889C275.125 109.123 272.863 108.34 271.343 107.697Z" fill="#442232"/>
<path d="M283.643 99.1782C282.197 100.903 281.426 103.395 280.603 105.47C279.546 108.179 278.626 110.939 277.849 113.742L287.892 113.761C288.533 111.879 288.991 109.82 289.491 108.226C290.245 105.834 291.509 102.959 290.93 100.407C290.065 96.5867 285.922 96.4463 283.643 99.1782Z" fill="white"/>
<path d="M276.159 93.074C276.153 93.0497 276.144 93.0259 276.135 93.0026C276.329 92.8228 276.531 92.6503 276.714 92.4533C277.002 92.1429 276.536 91.6723 276.246 91.9852C273.977 94.4486 270.725 95.4906 267.456 95.6803C265.397 95.7936 263.692 95.3896 262.101 94.0298C260.679 92.7871 259.426 91.3635 258.374 89.7953C258.62 88.8863 258.672 87.5634 257.709 87.487C257.664 87.4857 257.619 87.4951 257.578 87.5142C257.332 86.5288 256.913 85.7898 256.171 86.2184C255.605 86.5534 255.455 87.4723 255.489 88.0586C255.548 89.1055 256.546 89.8125 256.989 90.7388C256.967 90.8348 258.98 97.5869 265.288 99.198C268.074 99.9099 271.092 99.2842 273.77 98.2126C274.772 97.816 276.026 97.3382 276.595 96.3479C277.317 95.1137 276.322 94.3156 276.159 93.074Z" fill="#D95F5F"/>
<path d="M272.405 83.7918C272.651 82.9598 272.948 82.1437 273.294 81.3482C273.322 81.0476 273.354 80.752 273.395 80.4662C273.772 77.7812 276.255 74.8892 279.401 76.6135C282.328 78.2197 283.195 81.4664 282.244 84.2032C281.778 86.7553 280.298 88.5757 276.874 88.3762C275.324 88.285 274.203 88.2555 273.649 86.977C273.403 86.3784 273.432 85.3881 273.339 84.7107C272.853 84.5629 272.24 84.4027 272.405 83.7918Z" fill="#D95F5F"/>
<path d="M277.898 85.637C277.923 85.5089 277.943 85.3907 277.97 85.2577C277.985 85.1954 278.022 85.1404 278.073 85.1024C278.079 85.0482 278.099 84.9964 278.131 84.9523C278.164 84.9083 278.207 84.8735 278.257 84.8515C278.307 84.8295 278.362 84.8211 278.416 84.8271C278.47 84.8331 278.522 84.8533 278.566 84.8857C278.566 84.6394 278.554 84.393 278.541 84.1614C278.524 83.7894 279.14 83.7255 279.194 84.0974C279.194 84.127 279.194 84.154 279.194 84.1811C279.193 84.1942 279.193 84.2075 279.194 84.2206C279.234 84.1736 279.286 84.1382 279.344 84.1184C279.402 84.0985 279.465 84.0948 279.525 84.1077C279.585 84.1206 279.641 84.1496 279.686 84.1916C279.731 84.2336 279.763 84.287 279.78 84.3462C279.78 84.292 279.793 84.2378 279.798 84.1861C279.8 84.0985 279.838 84.0156 279.901 83.9556C279.965 83.8955 280.05 83.8632 280.138 83.8658C280.225 83.8684 280.308 83.9058 280.368 83.9695C280.428 84.0333 280.46 84.1183 280.458 84.2058V84.2649C280.544 84.269 280.625 84.3047 280.687 84.3651C280.748 84.4256 280.785 84.5065 280.79 84.5925C280.79 84.6837 280.79 84.7748 280.79 84.866C280.829 84.8664 280.866 84.8745 280.902 84.8897C280.937 84.9049 280.968 84.9271 280.995 84.9547C281.045 84.9177 281.105 84.8951 281.168 84.8893C281.23 84.8835 281.293 84.8947 281.349 84.9217C281.406 84.9487 281.454 84.9906 281.489 85.0428C281.524 85.095 281.544 85.1556 281.547 85.2182C281.571 86.532 281.598 87.8409 281.626 89.1449C281.626 89.7632 281.916 90.884 281.579 91.4456C281.498 91.5411 281.398 91.6182 281.285 91.6717C281.172 91.7252 281.049 91.754 280.923 91.756C280.923 91.8669 280.923 91.9802 280.923 92.0911C280.914 92.1741 280.874 92.2506 280.811 92.3054C280.748 92.3602 280.667 92.3893 280.583 92.3868C280.5 92.3843 280.42 92.3505 280.36 92.292C280.301 92.2336 280.265 92.1548 280.261 92.0714C280.261 92.0098 280.261 91.9482 280.261 91.8866H280.241C280.241 92.0787 280.216 92.2734 280.214 92.4655C280.212 92.5197 280.197 92.5726 280.169 92.6194C280.142 92.6661 280.103 92.7052 280.056 92.7331C280.01 92.7611 279.957 92.7769 279.903 92.7792C279.849 92.7815 279.795 92.7702 279.746 92.7463C279.204 92.8546 278.644 92.8241 278.118 92.6577C278.118 92.5912 278.118 92.5246 278.118 92.4581C278.055 92.4872 277.984 92.4957 277.916 92.4825C277.848 92.4692 277.786 92.4348 277.738 92.3842L277.292 92.468C277.103 92.5049 276.856 92.3546 276.886 92.1354C277.188 89.9824 277.306 87.8076 277.238 85.6346C277.233 85.2355 277.849 85.2478 277.898 85.637Z" fill="#D95F5F"/>
<path d="M233.959 81.9123C233.932 81.6118 233.9 81.3137 233.858 81.0304C233.693 79.8948 233.2 78.8322 232.439 77.9734C230.694 78.7477 228.808 79.1536 226.899 79.1657C226.49 79.1657 226.091 79.1459 225.694 79.1114C225.147 79.9372 224.8 80.8796 224.681 81.8633C224.562 82.8469 224.675 83.8447 225.01 84.7772C225.475 87.3293 226.956 89.1498 230.38 88.9502C231.929 88.8591 233.05 88.827 233.604 87.5485C233.863 86.9524 233.821 85.9621 233.915 85.2822C234.407 85.1369 235.013 84.9768 234.848 84.3659C234.603 83.5304 234.306 82.711 233.959 81.9123V81.9123Z" fill="#D95F5F"/>
<path d="M231.326 86.4351C231.343 86.3094 231.368 86.1887 231.385 86.0557C231.391 85.9917 231.376 85.9273 231.341 85.8734C231.353 85.8202 231.351 85.7646 231.335 85.7124C231.319 85.6601 231.29 85.6129 231.25 85.5757C231.21 85.5384 231.161 85.5124 231.107 85.5002C231.054 85.4881 230.999 85.4902 230.946 85.5064C231.038 85.2822 231.121 85.0556 231.215 84.8314C231.355 84.4865 230.796 84.218 230.621 84.5506C230.606 84.5776 230.599 84.6023 230.584 84.6269L230.567 84.6614C230.545 84.6041 230.508 84.5538 230.46 84.5159C230.412 84.478 230.354 84.4538 230.293 84.446C230.232 84.4381 230.17 84.4469 230.114 84.4714C230.058 84.4959 230.009 84.5352 229.973 84.5851L230.01 84.4274C230.037 84.3441 230.03 84.2534 229.991 84.1753C229.951 84.0973 229.882 84.0382 229.799 84.0111C229.715 83.984 229.625 83.9911 229.546 84.0308C229.468 84.0705 229.409 84.1396 229.382 84.2229L229.363 84.2796C229.28 84.2544 229.191 84.2606 229.113 84.297C229.035 84.3334 228.973 84.3973 228.939 84.4766C228.902 84.5604 228.872 84.6466 228.838 84.723C228.764 84.7002 228.685 84.7064 228.616 84.7402C228.581 84.6883 228.532 84.6469 228.476 84.6203C228.419 84.5938 228.356 84.583 228.293 84.5893C228.231 84.5957 228.172 84.6188 228.121 84.6562C228.071 84.6936 228.032 84.7439 228.008 84.8018L226.616 88.4747C226.397 89.0536 225.759 90.0168 225.877 90.6573C225.926 90.9036 226.167 91.049 226.389 91.1697C226.357 91.2781 226.323 91.384 226.291 91.4899C226.264 91.5732 226.271 91.6639 226.31 91.7419C226.35 91.82 226.419 91.8791 226.502 91.9062C226.586 91.9333 226.676 91.9262 226.755 91.8865C226.833 91.8468 226.892 91.7777 226.919 91.6944C226.941 91.6352 226.963 91.5786 226.983 91.5219H227.003C226.946 91.7067 226.894 91.8939 226.833 92.0762C226.816 92.1277 226.813 92.1825 226.823 92.2356C226.834 92.2886 226.857 92.3383 226.891 92.3801C226.925 92.422 226.969 92.4546 227.019 92.4751C227.069 92.4955 227.124 92.5032 227.177 92.4974C227.205 92.58 227.263 92.6489 227.339 92.6902C227.416 92.7314 227.505 92.7418 227.589 92.7192C227.958 92.8627 228.348 92.9459 228.744 92.9655C228.769 92.9039 228.786 92.8399 228.808 92.7783C228.858 92.8265 228.922 92.8578 228.991 92.868C229.06 92.8781 229.131 92.8666 229.193 92.8349L229.584 93.064C229.627 93.0908 229.675 93.1076 229.725 93.113C229.775 93.1184 229.826 93.1124 229.874 93.0953C229.921 93.0782 229.964 93.0505 229.999 93.0144C230.035 92.9782 230.061 92.9346 230.077 92.8867C230.516 90.757 231.136 88.6687 231.929 86.6444C232.089 86.2798 231.503 86.0853 231.326 86.4351Z" fill="#D95F5F"/>
<path d="M282.564 89.9725C282.564 89.8075 282.547 89.6424 282.53 89.4799C282.529 89.4292 282.516 89.3795 282.493 89.3344C282.47 89.2892 282.437 89.2498 282.397 89.2191C282.357 89.1883 282.31 89.167 282.261 89.1567C282.211 89.1464 282.16 89.1474 282.111 89.1596C280.505 89.3952 278.924 89.7787 277.389 90.3051C276.618 90.5859 276.403 90.9653 276.352 91.5491C275.654 91.9433 272.656 96.6754 272.065 98.8703C271.255 101.853 270.043 104.918 269.562 107.985C269.316 109.591 268.641 112.005 269.124 113.759H283.217C284.096 112.552 285.476 102.6 285.9 99.592C286.222 97.2247 283.892 91.3964 282.564 89.9725Z" fill="#F2E7E1"/>
<path d="M126.506 107.391C123.827 106.29 121.024 105.52 118.158 105.1C112.125 104.144 105.915 104.031 99.8206 104.275C94.5465 104.487 88.6788 104.647 83.6707 106.492C81.2665 107.376 76.1476 109.921 77.33 113.306C92.9281 113.33 115.062 113.35 130.234 113.377C130.596 113.021 130.848 112.568 130.96 112.073C131.072 111.578 131.04 111.061 130.867 110.583C130.285 108.817 128.024 108.024 126.506 107.391Z" fill="#442232"/>
<path d="M138.555 98.853C137.111 100.577 136.338 103.068 135.518 105.142C134.46 107.852 133.541 110.613 132.763 113.416C136.641 113.416 140.06 113.429 142.807 113.436C143.447 111.552 143.905 109.495 144.405 107.901C145.159 105.507 146.423 102.632 145.844 100.08C144.979 96.259 140.836 96.126 138.555 98.853Z" fill="white"/>
<path d="M318.433 157.063C318.056 156.72 317.761 156.836 316.98 156.816C290.159 156.484 54.9845 156.996 27.5178 156.649C27.3195 156.644 27.1229 156.686 26.9439 156.772C26.765 156.857 26.6088 156.984 26.4881 157.141C26.2768 157.388 26.1584 157.701 26.1531 158.026C25.8033 185.68 25.4544 213.334 25.1062 240.988C25.1062 241.027 25.1062 241.067 25.1062 241.106C25.0955 241.306 25.135 241.505 25.221 241.686C25.3071 241.867 25.437 242.023 25.5989 242.14C25.8372 242.333 26.1348 242.438 26.4413 242.436C32.2598 242.51 310.587 242.535 316.581 242.611C317.677 242.623 317.744 241.685 317.785 240.761C318.129 213.486 318.472 186.212 318.815 158.937C318.857 158.014 319.022 157.481 318.433 157.063Z" fill="#78ADD9"/>
<path d="M155.857 191.533C155.663 190.688 155.416 189.856 155.118 189.042C155.118 188.742 155.091 188.444 155.069 188.155C154.845 185.446 152.529 182.423 149.29 183.968C146.28 185.404 145.228 188.596 146.019 191.385C146.339 193.957 147.711 195.858 151.143 195.856C152.695 195.856 153.815 195.888 154.443 194.644C154.734 194.063 154.749 193.07 154.882 192.397C155.367 192.284 155.988 192.161 155.857 191.533Z" fill="#D95F5F"/>
<path d="M151.677 193.503C151.694 193.375 151.719 193.257 151.736 193.122C151.743 193.058 151.727 192.995 151.692 192.942C151.704 192.889 151.702 192.833 151.686 192.781C151.67 192.729 151.641 192.681 151.601 192.644C151.561 192.607 151.512 192.58 151.459 192.568C151.406 192.555 151.35 192.557 151.298 192.572C151.389 192.348 151.473 192.121 151.564 191.897C151.707 191.555 151.147 191.286 150.97 191.619C150.958 191.644 150.948 191.671 150.936 191.695C150.931 191.708 150.926 191.719 150.918 191.73C150.896 191.672 150.859 191.622 150.811 191.584C150.763 191.546 150.705 191.522 150.644 191.514C150.583 191.506 150.522 191.515 150.465 191.54C150.409 191.564 150.36 191.604 150.325 191.653C150.339 191.599 150.349 191.548 150.364 191.496C150.391 191.412 150.383 191.321 150.343 191.243C150.303 191.165 150.233 191.106 150.15 191.08C150.066 191.053 149.975 191.06 149.897 191.1C149.819 191.141 149.76 191.21 149.734 191.294C149.734 191.311 149.721 191.331 149.716 191.35C149.634 191.324 149.544 191.33 149.466 191.366C149.387 191.402 149.324 191.466 149.29 191.545C149.253 191.629 149.226 191.715 149.192 191.791C149.155 191.779 149.116 191.774 149.078 191.776C149.04 191.779 149.002 191.789 148.967 191.806C148.932 191.754 148.884 191.713 148.827 191.686C148.77 191.66 148.707 191.649 148.645 191.656C148.583 191.662 148.523 191.686 148.473 191.724C148.423 191.761 148.385 191.812 148.361 191.87C147.898 193.094 147.434 194.318 146.97 195.543C146.753 196.122 146.115 197.085 146.243 197.726C146.292 197.972 146.534 198.117 146.758 198.238C146.726 198.346 146.689 198.452 146.657 198.558C146.637 198.64 146.65 198.725 146.69 198.798C146.731 198.871 146.798 198.926 146.878 198.951C146.957 198.977 147.044 198.972 147.119 198.937C147.195 198.902 147.255 198.84 147.287 198.763L147.351 198.59H147.369C147.314 198.775 147.263 198.962 147.201 199.145C147.185 199.196 147.182 199.251 147.192 199.304C147.202 199.357 147.225 199.407 147.26 199.449C147.294 199.49 147.338 199.523 147.388 199.543C147.438 199.564 147.492 199.572 147.546 199.566C147.573 199.648 147.631 199.717 147.708 199.758C147.784 199.799 147.874 199.808 147.957 199.785C148.327 199.929 148.717 200.012 149.113 200.031C149.137 199.97 149.155 199.906 149.177 199.844C149.227 199.892 149.291 199.924 149.36 199.934C149.429 199.944 149.499 199.933 149.561 199.901L149.953 200.13C149.995 200.157 150.044 200.174 150.094 200.179C150.144 200.184 150.195 200.178 150.242 200.161C150.29 200.144 150.333 200.116 150.368 200.08C150.403 200.044 150.43 200.001 150.445 199.953C150.883 197.823 151.501 195.735 152.293 193.71C152.438 193.333 151.852 193.141 151.677 193.503Z" fill="#D95F5F"/>
<path d="M77.0588 189.188C76.8182 188.355 76.5261 187.538 76.1843 186.741C76.1572 186.438 76.1277 186.143 76.0883 185.857C75.7237 183.172 73.2554 180.263 70.0998 181.972C67.1683 183.561 66.284 186.803 67.2176 189.547C67.6709 192.102 69.1415 193.93 72.5656 193.747C74.1175 193.666 75.2384 193.641 75.8 192.365C76.0611 191.769 76.0217 190.779 76.1203 190.101C76.608 189.959 77.2214 189.808 77.0588 189.188Z" fill="#D95F5F"/>
<path d="M72.1912 191.245C72.1764 191.117 72.1666 190.998 72.1469 190.86C72.1377 190.797 72.1062 190.74 72.0581 190.698C72.0553 190.644 72.0384 190.591 72.0091 190.546C71.9797 190.5 71.9391 190.463 71.891 190.438C71.843 190.413 71.7892 190.402 71.7351 190.404C71.6811 190.406 71.6285 190.423 71.5827 190.451C71.6123 190.205 71.632 189.959 71.664 189.73C71.7108 189.36 71.0999 189.237 71.0186 189.614C71.0186 189.643 71.0186 189.67 71.0038 189.698C71.0038 189.71 71.0038 189.725 71.0038 189.737C70.9679 189.687 70.9191 189.648 70.8627 189.624C70.8062 189.599 70.7443 189.591 70.6834 189.599C70.6225 189.607 70.565 189.631 70.5169 189.67C70.4687 189.708 70.4319 189.758 70.4102 189.816C70.4102 189.762 70.4102 189.707 70.4102 189.653C70.4141 189.566 70.3831 189.48 70.3239 189.415C70.2648 189.351 70.1824 189.312 70.0948 189.308C70.0073 189.305 69.9218 189.335 69.8571 189.395C69.7924 189.454 69.7539 189.536 69.75 189.624C69.75 189.643 69.75 189.663 69.75 189.683C69.664 189.679 69.5797 189.707 69.5136 189.763C69.4475 189.818 69.4044 189.896 69.3928 189.981C69.378 190.072 69.3731 190.163 69.3632 190.254C69.3248 190.252 69.2863 190.258 69.2499 190.27C69.2136 190.283 69.1801 190.303 69.1514 190.328C69.1038 190.287 69.046 190.26 68.9842 190.249C68.9223 190.238 68.8587 190.244 68.8001 190.267C68.7414 190.289 68.69 190.327 68.6512 190.377C68.6124 190.426 68.5878 190.485 68.5799 190.547L68.1956 194.457C68.1365 195.07 67.7719 196.169 68.0626 196.753C68.1361 196.854 68.2303 196.939 68.339 197.001C68.4477 197.064 68.5685 197.103 68.6932 197.115C68.6932 197.226 68.6932 197.337 68.6809 197.45C68.6789 197.493 68.6856 197.537 68.7004 197.577C68.7151 197.618 68.7378 197.656 68.7671 197.688C68.7964 197.72 68.8317 197.746 68.871 197.764C68.9103 197.782 68.9528 197.793 68.9962 197.795C69.0395 197.797 69.0828 197.79 69.1236 197.775C69.1644 197.76 69.2019 197.738 69.2339 197.708C69.2659 197.679 69.2919 197.644 69.3102 197.605C69.3286 197.565 69.3391 197.523 69.341 197.479C69.341 197.42 69.3411 197.359 69.3583 197.297H69.378C69.378 197.492 69.378 197.684 69.3583 197.878C69.3562 197.932 69.3676 197.986 69.3914 198.035C69.4153 198.083 69.4508 198.125 69.4948 198.156C69.5388 198.187 69.5899 198.207 69.6435 198.214C69.6971 198.22 69.7514 198.213 69.8017 198.194C69.8497 198.266 69.9236 198.318 70.0084 198.338C70.0932 198.357 70.1823 198.344 70.2574 198.3C70.6511 198.339 71.0485 198.315 71.4349 198.231C71.4349 198.164 71.4349 198.1 71.4497 198.034C71.5103 198.068 71.58 198.082 71.649 198.074C71.718 198.066 71.7828 198.036 71.834 197.989C71.9793 198.029 72.1272 198.066 72.2725 198.108C72.3208 198.122 72.3717 198.126 72.4215 198.118C72.4713 198.11 72.5186 198.091 72.5599 198.062C72.6012 198.033 72.6354 197.995 72.6599 197.951C72.6843 197.906 72.6984 197.857 72.7011 197.807C72.5676 195.637 72.6203 193.46 72.8587 191.299C72.8883 190.895 72.2749 190.86 72.1912 191.245Z" fill="#D95F5F"/>
<path d="M186.364 187.099C186.642 186.277 186.971 185.473 187.349 184.692C187.389 184.391 187.433 184.098 187.485 183.815C187.965 181.147 190.559 178.349 193.643 180.194C196.503 181.918 197.245 185.187 196.19 187.889C195.629 190.419 194.079 192.183 190.665 191.851C189.121 191.7 188 191.626 187.495 190.328C187.261 189.722 187.342 188.734 187.273 188.052C186.78 187.88 186.174 187.697 186.364 187.099Z" fill="#D95F5F"/>
<path d="M190.34 189.432C190.34 189.304 190.32 189.185 190.318 189.047C190.316 188.983 190.338 188.921 190.379 188.872C190.372 188.818 190.378 188.763 190.399 188.712C190.42 188.662 190.453 188.617 190.497 188.584C190.54 188.55 190.591 188.529 190.645 188.521C190.7 188.514 190.755 188.521 190.805 188.542C190.736 188.311 190.675 188.077 190.603 187.845C190.495 187.49 191.079 187.276 191.222 187.626C191.234 187.651 191.239 187.678 191.251 187.705C191.251 187.717 191.251 187.729 191.264 187.742C191.291 187.686 191.332 187.64 191.384 187.606C191.435 187.573 191.495 187.554 191.556 187.552C191.618 187.549 191.679 187.564 191.732 187.593C191.786 187.623 191.831 187.667 191.862 187.72L191.84 187.559C191.821 187.474 191.838 187.384 191.885 187.311C191.932 187.237 192.007 187.185 192.093 187.166C192.178 187.148 192.268 187.164 192.341 187.211C192.415 187.259 192.467 187.333 192.485 187.419C192.485 187.439 192.485 187.458 192.485 187.476C192.571 187.459 192.661 187.475 192.735 187.52C192.81 187.566 192.865 187.638 192.889 187.722C192.919 187.808 192.939 187.897 192.966 187.986C193.041 187.969 193.12 187.982 193.185 188.023C193.225 187.974 193.278 187.937 193.337 187.916C193.396 187.895 193.46 187.89 193.522 187.902C193.584 187.915 193.641 187.944 193.687 187.986C193.734 188.029 193.768 188.083 193.786 188.143C194.129 189.406 194.473 190.67 194.818 191.934C194.978 192.53 195.523 193.55 195.333 194.174C195.262 194.42 195.006 194.536 194.771 194.637C194.794 194.748 194.821 194.856 194.84 194.964C194.859 195.05 194.844 195.14 194.796 195.213C194.749 195.287 194.675 195.339 194.589 195.358C194.504 195.377 194.414 195.362 194.34 195.315C194.266 195.267 194.214 195.193 194.195 195.107C194.18 195.048 194.163 194.989 194.148 194.93H194.129C194.165 195.12 194.2 195.309 194.244 195.499C194.256 195.552 194.254 195.607 194.239 195.659C194.224 195.711 194.196 195.758 194.157 195.796C194.119 195.834 194.072 195.862 194.02 195.878C193.968 195.893 193.913 195.895 193.86 195.883C193.825 195.963 193.761 196.026 193.681 196.06C193.6 196.093 193.51 196.094 193.429 196.063C193.048 196.169 192.652 196.213 192.256 196.194C192.239 196.129 192.227 196.065 192.21 196.001C192.155 196.045 192.089 196.07 192.019 196.073C191.95 196.077 191.881 196.059 191.823 196.021C191.685 196.085 191.547 196.147 191.411 196.213C191.366 196.235 191.316 196.247 191.266 196.247C191.216 196.247 191.166 196.236 191.12 196.215C191.074 196.193 191.034 196.162 191.002 196.123C190.971 196.084 190.948 196.038 190.936 195.989C190.708 193.827 190.296 191.688 189.704 189.597C189.598 189.205 190.187 189.07 190.34 189.432Z" fill="#D95F5F"/>
<path d="M137.761 206.988L138.5 205.658C138.707 205.283 138.136 204.951 137.929 205.323C135.892 208.996 133.832 212.693 131.219 215.997C130.056 217.475 126.312 221.943 125.858 222.419C125.405 222.894 124.196 223.145 123.725 223.559C122.966 224.227 122.516 225.022 122.651 226.042C122.67 226.112 122.712 226.175 122.77 226.219C122.828 226.264 122.898 226.288 122.971 226.289C124.043 226.365 124.723 226.899 125.514 225.882C125.988 225.249 126.395 224.569 126.73 223.852C128.309 223.172 129.852 221.62 131.004 220.65C133.027 218.948 134.893 217.069 136.579 215.033C137.353 214.099 138.087 213.135 138.784 212.141C139.422 211.232 140.434 210.119 140.732 209.055C141.166 207.468 138.868 207.185 137.761 206.988Z" fill="#D95F5F"/>
<path d="M170.083 213.245C170.058 213.162 170.001 213.092 169.926 213.049C169.85 213.006 169.762 212.993 169.677 213.013C169.445 213.051 169.223 213.135 169.024 213.26C168.965 213.167 168.879 213.094 168.778 213.05C168.068 212.691 167.477 213.876 167.216 214.528C165.674 214.95 164.087 215.19 162.489 215.245C161.651 215.265 160.713 215.272 159.976 214.799C158.843 214.075 159.045 213.117 158.823 212.021C158.513 210.493 156.385 211.092 155.104 211.479C155.104 211.417 155.104 211.356 155.104 211.294C155.123 210.868 154.463 210.87 154.443 211.294C154.352 213.238 153.904 216.509 155.182 218.204C156.202 219.551 158.227 219.507 159.72 219.263C161.053 219.046 162.321 218.558 163.575 218.081C164.78 217.625 166.13 217.275 167.27 216.664C167.417 216.583 167.556 216.49 167.687 216.386C169.157 215.987 170.638 214.962 170.083 213.245Z" fill="#D95F5F"/>
<path d="M157.582 243.347C157.142 241.715 156.726 240.073 156.335 238.421C155.606 235.332 154.971 232.224 154.431 229.097C154.142 227.428 153.88 225.756 153.645 224.081C153.483 222.904 153.438 221.576 152.926 220.482C152.017 218.541 149.83 218.159 147.933 217.738C145.277 217.149 142.575 216.802 139.996 217.871C139.908 217.909 139.839 217.979 139.803 218.067C139.767 218.155 139.767 218.254 139.804 218.342C137.754 222.308 136.165 226.124 136.086 230.676C135.998 235.814 136.069 240.96 136.062 246.102C136.063 246.174 136.088 246.244 136.132 246.301C136.176 246.359 136.238 246.4 136.308 246.419C137.558 246.675 138.829 246.815 140.104 246.838C140.177 246.837 140.247 246.812 140.304 246.767C140.361 246.723 140.402 246.661 140.422 246.592C142.087 241.908 143.871 237.272 145.772 232.683L147.849 241.51C148.095 242.495 148.125 244.444 148.871 245.205C149.243 245.582 149.842 245.51 150.327 245.537C152.029 245.641 153.732 245.71 155.431 245.784C156.091 245.818 157.429 246.153 157.87 245.397C158.2 244.845 157.732 243.899 157.582 243.347Z" fill="#46698A"/>
<path d="M149.46 197.891C147.196 197.605 143.536 197.807 141.513 198.908C139.311 200.108 133.741 209.678 133.911 210.649C134.158 212.077 136.394 212.797 137.83 213.05C137.269 215.445 135.835 219.359 136.2 219.701C137.242 220.687 139.237 221.032 140.565 221.357C142.324 221.79 154.581 222.453 155.564 221.773C156.274 221.28 156.303 220.394 156.22 219.618C156.023 217.745 155.574 215.863 155.234 214.006L159.043 213.24C159.111 213.218 159.171 213.176 159.215 213.119C159.259 213.062 159.285 212.994 159.289 212.922C159.432 204.096 158.434 199.019 149.46 197.891Z" fill="#442232"/>
<path d="M150.596 183.157C149.401 181.911 147.857 182.605 147.086 183.896C146.77 183.221 145.984 182.793 145.181 182.738C144.92 182.715 144.657 182.77 144.427 182.896C144.197 183.022 144.009 183.213 143.888 183.446C143.767 183.679 143.718 183.943 143.748 184.204C143.777 184.465 143.883 184.711 144.053 184.911C144.216 185.102 144.418 185.255 144.647 185.359C144.169 186.039 143.893 186.84 143.851 187.67C143.826 188.409 144.058 188.882 144.203 189.584C144.349 190.286 144.152 190.993 144.226 191.661C144.258 192.122 144.408 192.567 144.66 192.955C144.912 193.343 145.258 193.66 145.667 193.878C146.31 194.245 147.554 194.774 148.275 194.516C148.608 194.395 148.549 194.358 148.793 194.075C149.243 193.553 149.409 193.191 150.024 192.801C150.64 192.412 151.162 192.097 151.352 191.38C151.512 190.779 151.325 190.084 151.352 189.468C151.446 187.867 152.227 186.266 153.958 186.002C153.999 186.019 154.042 186.027 154.086 186.025C154.129 186.023 154.172 186.011 154.21 185.99C154.248 185.969 154.282 185.94 154.307 185.905C154.333 185.869 154.35 185.829 154.357 185.786C154.86 183.404 152.51 181.938 150.596 183.157Z" fill="#442232"/>
<path d="M259.901 187.38C260.227 186.575 260.602 185.792 261.024 185.034C261.081 184.739 261.142 184.446 261.209 184.167C261.847 181.531 264.603 178.896 267.564 180.921C270.319 182.803 270.865 186.118 269.651 188.752C268.939 191.245 267.289 192.912 263.901 192.378C262.367 192.131 261.253 191.996 260.827 190.671C260.628 190.05 260.768 189.069 260.741 188.385C260.265 188.192 259.672 187.973 259.901 187.38Z" fill="#D95F5F"/>
<path d="M263.727 189.954C263.727 189.823 263.727 189.707 263.727 189.567C263.729 189.503 263.755 189.442 263.798 189.394C263.795 189.34 263.805 189.286 263.829 189.237C263.853 189.188 263.889 189.146 263.934 189.116C263.979 189.085 264.032 189.067 264.086 189.063C264.14 189.058 264.195 189.068 264.244 189.091C264.19 188.857 264.14 188.621 264.084 188.385C264.073 188.306 264.092 188.226 264.135 188.16C264.178 188.093 264.244 188.045 264.32 188.022C264.396 188 264.478 188.006 264.55 188.038C264.622 188.071 264.681 188.128 264.714 188.2C264.714 188.227 264.729 188.256 264.739 188.281C264.738 188.293 264.738 188.306 264.739 188.318C264.769 188.265 264.814 188.221 264.867 188.19C264.921 188.16 264.981 188.145 265.043 188.147C265.104 188.148 265.164 188.166 265.216 188.199C265.268 188.232 265.31 188.278 265.338 188.333C265.338 188.281 265.338 188.227 265.338 188.173C265.324 188.086 265.345 187.998 265.397 187.927C265.448 187.856 265.526 187.808 265.612 187.795C265.699 187.781 265.787 187.802 265.858 187.854C265.929 187.905 265.977 187.983 265.99 188.069C265.99 188.089 265.99 188.109 265.99 188.128C266.076 188.116 266.163 188.135 266.235 188.183C266.306 188.231 266.358 188.303 266.38 188.387C266.402 188.476 266.417 188.567 266.439 188.655C266.477 188.649 266.515 188.651 266.552 188.66C266.589 188.669 266.625 188.685 266.656 188.707C266.698 188.661 266.752 188.627 266.813 188.609C266.873 188.591 266.937 188.59 266.998 188.606C267.059 188.622 267.114 188.654 267.158 188.699C267.202 188.745 267.233 188.801 267.247 188.862L268.052 192.708C268.178 193.311 268.661 194.363 268.434 194.974C268.348 195.208 268.087 195.316 267.845 195.403C267.863 195.514 267.88 195.624 267.895 195.735C267.908 195.822 267.886 195.91 267.835 195.981C267.783 196.052 267.705 196.099 267.619 196.112C267.532 196.126 267.444 196.104 267.373 196.052C267.302 196 267.255 195.923 267.242 195.836L267.205 195.656H267.185C267.212 195.849 267.234 196.041 267.269 196.23C267.277 196.284 267.272 196.339 267.253 196.39C267.235 196.441 267.204 196.487 267.163 196.523C267.122 196.559 267.073 196.584 267.02 196.596C266.967 196.608 266.912 196.607 266.86 196.593C266.348 196.801 265.79 196.875 265.242 196.807C265.227 196.743 265.219 196.676 265.207 196.612C265.15 196.653 265.082 196.675 265.012 196.675C264.943 196.675 264.874 196.653 264.818 196.612L264.397 196.777C264.35 196.797 264.301 196.806 264.25 196.804C264.2 196.802 264.151 196.788 264.107 196.765C264.063 196.741 264.025 196.708 263.995 196.667C263.965 196.627 263.945 196.58 263.936 196.531C263.833 194.359 263.546 192.2 263.076 190.077C262.997 189.68 263.596 189.579 263.727 189.954Z" fill="#D95F5F"/>
<path d="M195.53 218.835C194.129 218.029 191.764 218.083 190.172 217.889C187.869 217.61 185.556 217.46 183.236 217.408C183.807 216.292 184.408 215.191 185.049 214.1C185.093 214.024 185.105 213.934 185.082 213.849C185.06 213.764 185.005 213.692 184.929 213.648C184.853 213.604 184.763 213.592 184.678 213.614C184.594 213.636 184.521 213.691 184.477 213.767C179.058 223.012 176.102 233.366 173.678 243.732C173.656 243.817 173.667 243.907 173.711 243.983C173.754 244.06 173.825 244.116 173.909 244.141C175.533 244.513 177.589 245.015 179.26 244.742C180.462 244.545 180.984 243.264 181.578 242.338L187.82 232.745L187.574 243.542C187.575 243.629 187.611 243.712 187.672 243.774C187.734 243.835 187.817 243.871 187.904 243.872L191.414 244.289C192.175 244.377 193.427 244.769 194.175 244.564C195.284 244.259 195.203 243.222 195.299 242.229C195.742 237.654 196.05 233.067 196.222 228.469C196.306 226.225 196.358 223.981 196.378 221.734C196.387 220.707 196.567 219.431 195.53 218.835Z" fill="#9E4D4D"/>
<path d="M212.446 190.794C212.752 190.296 212.934 189.731 212.977 189.149C213.019 188.566 212.922 187.981 212.693 187.444C212.313 186.458 211.422 184.694 210.165 184.82C210.115 184.821 210.065 184.833 210.019 184.856C209.974 184.878 209.935 184.911 209.904 184.952C209.873 184.992 209.852 185.039 209.842 185.089C209.833 185.138 209.834 185.19 209.848 185.239C210.027 185.791 210.018 186.345 210.148 186.894C210.303 187.54 210.293 187.345 210.032 186.823C210.002 186.774 209.96 186.733 209.91 186.705C209.86 186.677 209.804 186.663 209.747 186.663C209.689 186.663 209.633 186.677 209.583 186.705C209.533 186.733 209.491 186.774 209.461 186.823C209.143 187.542 208.823 188.301 209.057 189.099C209.202 189.592 210.042 190.368 210.441 190.73C211.326 194.22 211.599 202.347 208.126 201.63C207.416 201.482 201.603 196.211 200.999 194.225C200.975 194.155 200.929 194.095 200.867 194.054C200.806 194.013 200.733 193.993 200.659 193.997C200.585 194.002 200.515 194.03 200.458 194.077C200.402 194.125 200.363 194.19 200.346 194.262C200.31 194.21 200.258 194.17 200.198 194.15C200.137 194.129 200.072 194.129 200.011 194.149C198.977 194.445 196.974 195.058 196.609 196.24C196.245 197.423 197.949 198.859 198.624 199.63C200.893 202.239 203.837 205.936 207.372 206.801C210.284 207.513 212.749 205.897 213.131 202.931C213.636 199.017 213.045 194.735 212.446 190.794Z" fill="#D95F5F"/>
<path d="M185.039 201.611C185.073 201.507 185.113 201.404 185.147 201.298C185.27 200.889 184.654 200.677 184.519 201.083C184.048 202.692 183.061 204.101 181.711 205.094C180.362 206.087 178.723 206.61 177.047 206.582C173.887 206.582 171.135 204.904 169.076 202.623C169.229 201.33 168.724 199.359 167.679 199.421C167.613 199.425 167.549 199.443 167.49 199.472C167.491 199.453 167.491 199.433 167.49 199.413C167.453 199.255 167.396 199.102 167.322 198.958C167.223 198.741 167.076 198.374 166.787 198.315C166.189 198.189 165.992 199.1 165.92 199.487C165.716 200.569 166.046 201.783 166.413 202.788C166.514 203.114 166.683 203.414 166.91 203.669C167.136 203.924 167.414 204.128 167.726 204.266C168.029 205.55 169.561 206.941 170.33 207.668C172.547 209.767 175.257 211.087 178.388 210.87C179.835 210.756 181.238 210.319 182.494 209.59C183.749 208.862 184.825 207.861 185.642 206.661C186.623 205.202 187.724 201.81 185.039 201.611Z" fill="#D95F5F"/>
<path d="M204.66 197.255C203.743 195.986 202.714 194.1 201.253 193.491C197.848 192.072 189.776 194.277 189.675 194.319C188.167 194.942 186.625 195.58 185.381 196.666C184.036 197.841 183.164 199.43 182.339 200.987C181.846 201.913 181.368 202.84 180.883 203.768C180.649 204.219 180.001 205.017 180.004 205.581C180.004 206.623 182.029 207.254 182.972 207.67C181.685 213.175 180.179 218.623 178.457 224.012C178.444 224.061 178.443 224.113 178.453 224.162C178.463 224.212 178.484 224.258 178.514 224.299C178.545 224.339 178.584 224.372 178.629 224.395C178.674 224.418 178.724 224.43 178.774 224.431L188.406 225.032L192.902 225.313C193.887 225.375 195.639 225.806 196.565 225.503C197.08 225.333 197.171 225.148 197.412 224.685C198.06 223.453 198.432 221.933 198.856 220.603C199.765 217.754 200.491 214.849 201.031 211.907C201.562 209.167 201.946 206.4 202.184 203.618C203.067 202.75 203.894 201.826 204.66 200.852C205.859 199.268 205.81 198.849 204.66 197.255Z" fill="#F2E7E1"/>
<path d="M197.999 185.096C197.91 184.47 197.93 183.813 197.841 183.197C197.752 182.581 197.637 182.135 197.154 181.684C196.577 181.142 195.868 180.992 195.161 180.699C194.176 180.29 193.469 179.524 192.419 179.302C191.727 179.154 190.828 179.056 190.138 179.302C189.486 179.559 188.89 179.939 188.382 180.421C187.818 181.095 188.135 181.77 188.815 181.967C188.995 182.652 189.227 183.386 189.774 183.859C190.549 184.532 191.599 184.598 191.651 185.941C191.685 186.852 191.316 187.601 191.651 188.5C192.009 189.325 192.574 190.043 193.291 190.584C194.407 191.469 194.735 191.045 195.508 190.134C196.067 189.473 196.878 189.202 197.403 188.486C197.844 187.881 198.101 187.161 198.142 186.414C198.141 185.971 198.093 185.529 197.999 185.096V185.096Z" fill="#442232"/>
<path d="M92.3517 225.528C93.2878 224.493 91.7457 221.603 91.0239 220.687C90.8933 220.305 88.3339 215.514 86.9347 213.511C85.3508 211.24 83.8062 208.934 83.082 206.227C82.673 204.702 82.4464 203.158 81.8503 201.687C81.2826 200.385 80.624 199.125 79.8796 197.915C79.8392 197.85 79.7773 197.801 79.7045 197.776C79.6316 197.751 79.5524 197.753 79.4806 197.78C79.4087 197.807 79.3487 197.859 79.3109 197.926C79.2731 197.993 79.2599 198.071 79.2736 198.147C79.2208 198.147 79.1691 198.163 79.1253 198.192C79.0814 198.221 79.0473 198.263 79.0272 198.312C77.9162 200.605 77.6946 201.022 78.0665 203.643C78.4385 206.264 80.5299 211.215 82.4193 212.903C84.6364 214.891 89.339 221.49 89.9992 221.943C90.2283 222.337 90.0139 223.705 90.1248 224.18C90.2948 224.919 90.5879 226.008 91.5831 225.892C91.7411 225.874 91.8951 225.83 92.0388 225.762C92.108 225.757 92.1743 225.732 92.2298 225.691C92.2853 225.649 92.3277 225.593 92.3517 225.528V225.528Z" fill="#D95F5F"/>
<path d="M83.4982 227.991C83.4751 227.918 83.4276 227.855 83.3636 227.813C83.2997 227.771 83.2233 227.753 83.1472 227.761C83.0711 227.768 83 227.802 82.946 227.856C82.8919 227.91 82.8581 227.981 82.8503 228.058C77.4713 228.301 72.1743 229.468 67.1906 231.506C67.1244 231.534 67.0682 231.581 67.0295 231.641C66.9908 231.701 66.9714 231.772 66.9739 231.844C66.9497 231.905 66.9453 231.972 66.9615 232.036C67.6488 234.819 68.8411 237.399 70.2772 239.874C71.0162 241.143 71.7947 242.387 72.5977 243.616C72.8145 243.944 72.9943 244.328 73.3367 244.38C73.3334 244.422 73.3394 244.465 73.3542 244.506C73.3689 244.546 73.3922 244.582 73.4224 244.613C73.4525 244.643 73.4889 244.667 73.5289 244.682C73.569 244.697 73.6118 244.703 73.6545 244.7C76.3248 244.602 78.9951 244.454 81.658 244.257C83.0942 244.148 84.0204 244.286 84.22 242.707C84.8358 237.879 84.8727 232.671 83.4982 227.991Z" fill="#D95F5F"/>
<path d="M83.3134 223.803C82.301 221.433 81.2614 219.002 80.5692 216.514C79.7957 213.725 79.3375 210.929 79.8844 208.121C80.5692 204.672 82.1286 200.637 79.7169 197.615C78.5025 196.09 74.3812 195.398 70.5137 195.802C66.6462 196.206 63.0349 197.664 62.2786 198.711C60.9237 200.581 61.1134 202.694 62.0865 204.695C63.3526 207.306 65.3406 209.513 66.3654 212.255C67.6192 215.61 66.7792 219.024 66.0377 222.389C65.38 225.372 65.0056 228.351 65.2297 231.412C65.3529 233.11 65.3061 236.211 67.267 236.886C68.3903 237.273 69.8338 237.063 70.994 237.027C72.6658 236.972 74.3336 236.838 75.9972 236.623C79.0345 236.231 84.2151 234.652 84.3505 234.499C87.0061 231.272 84.6362 226.887 83.3134 223.803Z" fill="#F2E7E1"/>
<path d="M71.2331 212.782C71.1825 212.676 71.1615 212.558 71.1724 212.441C71.1832 212.324 71.2255 212.212 71.2947 212.117C71.3513 211.796 71.541 211.56 71.2158 211.277C70.8907 210.993 70.3586 211.062 69.9841 211.124C68.5997 211.358 67.5996 212.39 66.7818 213.447C64.6312 213.767 61.3377 214.812 61.1825 212.595C61.111 211.567 61.6752 210.264 61.9683 209.286C62.291 208.195 62.6605 207.116 63.0054 206.03C63.3502 204.943 65.4885 199.026 63.3404 198.568C63.3311 198.5 63.3013 198.435 63.255 198.384C63.2087 198.332 63.148 198.296 63.0808 198.28C63.0136 198.263 62.9429 198.267 62.878 198.292C62.8132 198.316 62.7572 198.359 62.7172 198.415L62.5792 198.617C62.5444 198.637 62.5145 198.664 62.4919 198.697C62.4692 198.73 62.4545 198.768 62.4486 198.807C59.1994 203.551 57.1942 209.175 56.9627 214.942C56.7287 220.763 67.6809 215.189 67.6563 215.088L67.7129 215.053C67.8681 215.011 68.0233 214.955 68.1883 214.903C68.9466 214.711 69.694 214.479 70.4276 214.208C70.7848 214.058 71.1986 213.829 71.3415 213.44C71.4228 213.223 71.3686 213.169 71.3563 212.979C71.3259 212.907 71.2843 212.841 71.2331 212.782V212.782Z" fill="#D95F5F"/>
<path d="M65.4145 197.065C62.4806 197.484 60.8818 199.957 59.793 202.485C59.49 203.192 58.9924 203.889 59.5615 204.52C59.8596 204.85 60.5887 204.946 60.9853 205.086C61.8746 205.401 62.7737 205.697 63.6753 205.98C63.7599 206.002 63.8498 205.991 63.9257 205.947C64.0016 205.904 64.0577 205.833 64.0818 205.749C64.1748 205.406 64.2032 205.05 64.1655 204.697C64.1635 204.62 64.1334 204.546 64.0808 204.489C64.0282 204.432 63.9567 204.397 63.8798 204.389C64.2197 203.677 64.3873 202.692 64.6188 202.009C64.6354 201.962 64.6401 201.912 64.6322 201.863C64.6244 201.814 64.6044 201.767 64.574 201.728C64.5436 201.689 64.5039 201.657 64.4584 201.637C64.4128 201.617 64.363 201.609 64.3134 201.613C64.3317 201.572 64.3412 201.527 64.3412 201.482C64.3412 201.437 64.3317 201.393 64.3134 201.352C64.4989 200.977 64.682 200.604 64.8627 200.231C64.8937 200.173 64.9066 200.106 64.8997 200.041C64.8929 199.975 64.8667 199.913 64.8244 199.862C64.7822 199.811 64.7257 199.774 64.6624 199.756C64.599 199.737 64.5315 199.738 64.4685 199.758C64.5104 199.637 64.5523 199.512 64.5868 199.388C64.6068 199.319 64.6023 199.246 64.574 199.179C64.5457 199.113 64.4954 199.059 64.4316 199.026V199.026C64.4542 198.974 64.4644 198.918 64.4614 198.861C64.4584 198.804 64.4423 198.749 64.4144 198.7C64.3865 198.65 64.3475 198.608 64.3004 198.576C64.2534 198.544 64.1997 198.524 64.1434 198.516C64.1261 198.473 64.0968 198.435 64.0588 198.408C64.0209 198.38 63.9758 198.364 63.9291 198.361H63.8231L63.7838 198.339C64.3395 198.017 64.9514 197.804 65.5869 197.711C66.0106 197.642 65.8308 197.006 65.4145 197.065Z" fill="#F2E7E1"/>
<path d="M82.6976 201.633C81.7271 198.45 79.0814 195.999 75.6475 196.053C75.5645 196.06 75.4873 196.098 75.431 196.16C75.3747 196.221 75.3435 196.301 75.3435 196.384C75.3435 196.468 75.3747 196.548 75.431 196.609C75.4873 196.671 75.5645 196.709 75.6475 196.716C76.8924 196.689 78.1151 197.047 79.1479 197.743C79.0869 197.742 79.0273 197.761 78.978 197.797C78.5806 198.058 78.2607 198.42 78.0517 198.847C78.0219 198.902 78.0086 198.965 78.0134 199.028C78.0182 199.091 78.0409 199.151 78.0788 199.201C77.9543 199.473 77.8634 199.758 77.8078 200.051C77.2462 201.128 76.6451 202.184 75.9948 203.217C75.9646 203.27 75.9499 203.331 75.9524 203.393C75.955 203.455 75.9746 203.514 76.0091 203.565C76.0436 203.617 76.0916 203.657 76.1478 203.682C76.204 203.708 76.2662 203.717 76.3274 203.709C76.0958 204.012 75.8667 204.318 75.6376 204.621C75.4873 204.82 75.6622 205.057 75.8667 205.113L75.7977 205.185C75.5095 205.498 75.9628 205.956 76.2658 205.653C76.522 205.398 76.7831 205.145 77.0491 204.894C76.8939 205.067 76.7412 205.242 76.5958 205.434L76.5712 205.456C76.5511 205.476 76.5321 205.497 76.5146 205.52C76.4912 205.549 76.4741 205.583 76.4645 205.62C76.4549 205.656 76.4529 205.694 76.4587 205.732C76.4645 205.769 76.4779 205.804 76.4981 205.836C76.5183 205.868 76.5449 205.895 76.5762 205.916C76.4752 206.02 76.3717 206.121 76.2732 206.229H76.2485C75.8445 206.36 76.0169 206.998 76.4234 206.865C78.4125 206.251 80.3099 205.371 82.0646 204.251C83.1706 203.515 83.0721 202.842 82.6976 201.633Z" fill="#F2E7E1"/>
<path d="M70.5284 195.777C69.2293 195.912 67.9443 196.159 66.688 196.516C67.6733 199.167 69.4716 202.968 72.6371 202.633C75.8025 202.298 75.4108 198.359 75.0561 195.804C73.5523 195.631 72.0342 195.622 70.5284 195.777V195.777Z" fill="#D95F5F"/>
<path d="M74.6546 182.49C71.1172 179.578 66.4638 181.871 64.7813 185.67C63.6531 188.222 64.2887 190.821 63.5768 193.407C62.9708 195.575 61.3425 197.393 61.1134 199.687C61.005 200.827 61.3597 201.857 61.6947 202.928C62.1751 204.406 62.0618 205.956 62.5002 207.424C63.2836 210.057 65.3258 208.656 67.3507 208.887C69.3756 209.119 70.4594 209.114 71.1443 206.951C71.9375 204.448 70.8462 202.561 70.0013 200.285C69.6195 199.253 69.3829 198.194 69.5751 197.102C69.7426 196.164 70.287 195.821 70.8068 195.132C71.5458 194.146 71.6 193.062 71.4645 191.873C71.2502 190.01 70.9102 188.224 71.9375 186.505C72.7036 185.224 73.9451 184.335 74.6472 183.007C74.672 182.962 74.6863 182.913 74.689 182.862C74.7333 182.807 74.7546 182.738 74.7481 182.669C74.7416 182.599 74.708 182.535 74.6546 182.49Z" fill="#442232"/>
<path d="M265.042 246.865C265.042 246.865 267.491 221.985 267.192 219.689C267 218.194 265.153 220.45 263.909 219.532C262.431 218.438 260.49 218.125 258.709 217.896C256.718 217.649 254.709 217.592 252.708 217.726C252.888 217.453 252.476 217.085 252.178 217.334C249.813 219.286 247.637 221.455 245.677 223.813C244.098 225.722 242.413 227.796 241.509 230.127C240.467 232.817 240.77 235.723 241.509 238.45C241.858 239.828 242.306 241.178 242.852 242.49C243.123 243.109 243.33 243.476 243.997 243.665C244.49 243.811 245.182 243.688 245.692 243.683C246.488 243.683 247.35 243.761 248.136 243.663C248.725 243.591 249.089 243.574 249.419 243.032C249.946 242.16 249.683 240.404 249.855 239.428C250.136 237.854 249.695 236.403 250.382 234.96C250.961 233.748 254.73 230.587 255.674 229.612C256.391 228.661 256.479 234.519 256.506 235.361C256.612 238.731 256.595 242.104 256.479 245.461C256.48 245.549 256.515 245.633 256.576 245.695C256.638 245.757 256.722 245.792 256.809 245.794L264.214 245.816C265.399 245.816 266.707 246.062 267.086 244.69C267.343 243.756 265.099 247.804 265.042 246.865Z" fill="#9E4D4D"/>
<path d="M251.673 209.22C251.156 209.179 250.638 209.304 250.195 209.575C250.508 209.294 250.828 209.025 251.139 208.74C251.449 208.454 250.996 207.927 250.673 208.225C250.225 208.634 249.767 209.025 249.316 209.424C248.806 209.637 248.317 209.898 247.858 210.205C248.528 209.597 249.183 208.974 249.828 208.308C250.139 207.986 249.671 207.471 249.36 207.794C247.216 210.028 244.806 211.992 242.184 213.642C240.588 214.048 238.413 214.467 238.199 216.558C238.197 216.62 238.212 216.681 238.241 216.736C238.27 216.791 238.312 216.837 238.364 216.871C238.448 216.954 238.553 217.011 238.668 217.036C238.783 217.062 238.903 217.054 239.014 217.014C239.248 216.982 240.246 216.521 240.32 216.356C240.206 216.63 240.393 216.987 240.692 216.891C241.773 216.544 242.275 215.659 243.187 215.019C243.822 215.134 250.057 211.644 251.907 209.846C251.953 209.794 251.984 209.731 251.997 209.664C252.01 209.596 252.004 209.526 251.98 209.462C251.956 209.397 251.914 209.341 251.86 209.298C251.806 209.255 251.742 209.228 251.673 209.22V209.22Z" fill="#D95F5F"/>
<path d="M271.129 211.732C271.078 211.739 271.03 211.757 270.987 211.785C270.944 211.813 270.909 211.851 270.883 211.895C270.636 211.792 270.314 211.964 270.424 212.265C272.119 216.874 271.693 221.726 271.008 226.486C270.984 226.533 270.971 226.585 270.971 226.638C270.968 226.726 270.96 226.813 270.947 226.899C269.998 227.355 269.042 228.838 269.429 229.686C269.458 229.736 269.499 229.778 269.55 229.807C269.6 229.836 269.657 229.851 269.715 229.851C269.842 229.839 269.966 229.806 270.082 229.752C270.057 230.279 270.114 231.08 270.506 231.435C271.71 232.533 272.676 229.991 272.792 229.249C272.904 228.723 272.961 228.187 272.962 227.648C273.853 224.08 274.422 220.438 274.661 216.768C274.785 214.523 274.011 211.383 271.129 211.732Z" fill="#D95F5F"/>
<path d="M275.731 218.164C275.543 216.524 275.767 214.876 275.529 213.238C275.398 212.397 275.204 211.567 274.95 210.754L274.703 206.899C274.543 204.313 274.472 201.687 273.405 199.278C272.634 197.536 271.415 195.745 269.786 194.698C269.613 194.592 269.43 194.502 269.239 194.432C269.358 193.799 269.405 193.094 269.114 192.575C269.085 192.525 269.043 192.483 268.993 192.454C268.943 192.425 268.886 192.41 268.828 192.41C267.675 192.424 266.296 192.996 265.212 193.368C265.039 193.423 264.873 193.5 264.719 193.597C264.32 193.397 263.96 193.119 263.524 192.9C263.461 192.865 263.387 192.851 263.315 192.86C263.243 192.869 263.176 192.901 263.123 192.952C262.759 193.355 262.481 193.828 262.303 194.341C262.286 194.387 262.281 194.436 262.291 194.484C262.3 194.531 262.322 194.576 262.354 194.612C262.303 194.703 262.251 194.794 262.204 194.89C260.778 195.4 259.45 196.15 258.277 197.107C255.728 199.228 252.651 204.005 250.023 206.032C249.394 206.525 248.126 207.178 247.19 207.971C246.919 208.118 246.658 208.282 246.409 208.464C245.33 209.269 245.177 210.599 243.978 211.304C242.349 212.255 241.002 212.89 242.598 214.77C243.012 215.262 243.197 215.472 243.854 215.262C244.256 215.139 244.795 214.523 245.118 214.358C245.877 213.967 246.736 213.848 247.564 213.713C248.724 213.521 249.929 213.299 250.87 212.728C250.673 213.292 250.488 213.863 250.326 214.452C250.094 215.29 249.898 216.136 249.737 216.992C249.633 217.553 249.244 218.664 249.513 219.236C249.875 220.039 251.528 220.14 252.269 220.339C254.21 220.864 256.156 221.372 258.12 221.817C259.977 222.231 261.847 222.584 263.731 222.837C264.771 222.975 266.303 223.436 267.271 222.815C268.239 222.194 268.308 220.615 268.572 219.647L269.045 217.923C269.241 218.448 269.48 218.956 269.762 219.44C270.7 221.093 269.624 221.721 269.567 223.239C269.525 224.416 270.491 225.296 270.35 226.486C270.351 226.558 270.376 226.629 270.42 226.686C270.465 226.743 270.527 226.785 270.597 226.803C271.578 227.141 272.598 227.355 273.632 227.441C273.719 227.441 273.803 227.406 273.864 227.344C273.926 227.282 273.961 227.199 273.962 227.111C274.014 226.168 274.043 225.202 274.319 224.291C274.595 223.379 275.124 222.744 275.521 221.931C276.127 220.714 275.878 219.467 275.731 218.164Z" fill="#46698A"/>
<path d="M270.126 181.288C269.833 180.184 269.575 179.179 268.308 178.807C267.308 178.514 266.38 178.905 265.71 179.603C264.36 178.408 262.101 178.531 261.82 180.512C260.298 180.499 260.421 183.258 262.374 182.876C262.677 183.731 263.805 183.761 264.675 184.022C267.799 184.96 265.131 187.271 265.535 189.178C265.665 189.789 266.027 190.121 266.481 190.525C266.707 190.732 267.276 191.449 267.601 191.511C268.528 191.686 269.545 189.897 269.959 189.252C270.354 188.666 270.631 188.008 270.774 187.315C270.929 186.451 271.141 185.67 271.353 184.84C271.757 183.253 270.493 182.702 270.126 181.288Z" fill="#442232"/>
<path d="M40.6797 81.5528C41.665 78.7322 42.6676 76.0496 44.998 74.0592C46.8234 72.4999 49.0798 71.4997 51.1565 70.3247C58.8151 65.9817 65.3628 59.8849 69.3855 51.9824C73.2604 44.373 74.9059 35.931 76.2829 27.5604C52.8685 27.5604 35.4129 27.5161 29.0624 27.4373C28.8639 27.4316 28.667 27.4734 28.4879 27.5591C28.3089 27.6447 28.1528 27.7719 28.0327 27.9299C27.8188 28.1754 27.6993 28.4888 27.6952 28.8143C27.3487 56.4682 27.0005 84.1221 26.6507 111.776C26.6507 111.815 26.6507 111.855 26.6507 111.894C26.6406 112.094 26.6805 112.292 26.7665 112.473C26.8525 112.653 26.982 112.809 27.1434 112.926C27.3793 113.122 27.6772 113.226 27.9834 113.222C28.2027 113.222 28.8161 113.222 29.7792 113.222L35.1987 97.4564C37.024 92.1675 38.8223 86.8392 40.6797 81.5528Z" fill="#47567A"/>
<path d="M307.484 81.8828C306.498 79.0622 305.496 76.3821 303.165 74.3892C301.34 72.8324 299.083 71.8298 297.007 70.6548C289.348 66.3118 282.801 60.215 278.778 52.3124C274.903 44.7031 273.257 36.261 271.88 27.8904C295.295 27.8904 312.75 27.8486 319.101 27.7673C319.299 27.7621 319.496 27.804 319.675 27.8897C319.854 27.9753 320.01 28.1022 320.131 28.26C320.344 28.5056 320.464 28.8189 320.468 29.1443C320.815 56.7983 321.163 84.4522 321.513 112.106C321.513 112.146 321.513 112.185 321.513 112.224C321.523 112.424 321.483 112.623 321.397 112.803C321.311 112.983 321.181 113.139 321.02 113.256C320.784 113.451 320.486 113.557 320.18 113.555H318.384L312.965 97.7889C311.139 92.5049 309.341 87.1791 307.484 81.8828Z" fill="#47567A"/>
<path d="M277.221 90.8668L272.343 92.7956C271.587 93.0937 270.077 93.3474 269.513 93.9583C268.949 94.5692 269.245 95.4044 269.392 96.1606C269.575 97.0819 269.814 99.1167 270.508 99.799C271.338 100.607 274.009 98.6412 274.642 98.1091C275.418 97.4613 275.674 96.6828 276.068 95.7591C276.617 94.4707 277.164 93.2242 277.354 91.8176C277.361 91.7697 277.357 91.7208 277.344 91.6742C277.331 91.6275 277.308 91.5841 277.278 91.5467L277.396 91.4999C277.788 91.3496 277.618 90.7092 277.221 90.8668Z" fill="#F2E7E1"/>
<path d="M258.793 82.2179C258.144 82.0812 257.484 82.0086 256.822 82.0011H256.792C256.732 81.9948 256.672 82.0106 256.623 82.0455C256.574 82.0805 256.54 82.1321 256.526 82.1908C256.52 82.2026 256.515 82.215 256.511 82.2277C256.373 83.1515 256.265 84.0753 256.199 85.0064C256.157 85.6469 255.977 86.4845 256.184 87.1028C256.311 87.4088 256.554 87.6527 256.859 87.7827C256.844 87.9797 256.829 88.1743 256.817 88.3714C256.785 88.7877 256.817 90.6303 256.726 91.0614C256.524 91.0909 256.29 91.086 256.112 91.1008C256.029 91.108 255.952 91.146 255.896 91.2073C255.84 91.2687 255.808 91.3489 255.808 91.4321C255.808 91.5154 255.84 91.5956 255.896 91.6569C255.952 91.7183 256.029 91.7563 256.112 91.7635C256.635 91.825 257.154 91.862 257.679 91.8792C258.105 91.894 258.103 91.2338 257.679 91.2191C257.571 91.2191 257.465 91.1993 257.356 91.1944C257.363 91.1734 257.368 91.152 257.371 91.1304C257.447 90.5096 257.487 88.5586 257.524 87.928C257.754 87.9277 257.975 87.8396 258.142 87.6816C258.554 87.2678 258.566 86.3268 258.659 85.7873C258.794 85.0061 258.889 84.2184 258.943 83.4274C258.975 83.0628 259.214 82.3337 258.793 82.2179Z" fill="#F2E7E1"/>
<path d="M284.229 97.5252C283.778 96.769 282.244 96.7493 281.458 96.806C281.422 96.7542 281.373 96.7134 281.315 96.6882C281.258 96.663 281.194 96.6544 281.132 96.6634C281.07 96.6723 281.011 96.6985 280.963 96.7389C280.915 96.7793 280.879 96.8325 280.859 96.8922C279.822 100.521 278.315 105.098 274.607 106.578C271.294 107.899 267.71 108.396 264.13 108.746C262.985 108.522 262 108.103 260.812 108.758C260.253 109.064 258.925 109.896 259.391 110.709C259.546 110.98 259.78 111.032 260.078 111.091C260.87 111.237 261.673 111.31 262.478 111.31C263.088 111.31 263.956 111.167 264.47 110.714C267.508 110.83 270.56 110.82 273.563 110.305C276.334 109.83 279.458 109.017 281.313 106.741C282.929 104.77 283.478 102.154 283.99 99.7152C284.113 99.1314 284.569 98.0967 284.229 97.5252Z" fill="#D95F5F"/>
<path d="M284.685 100.491C284.679 99.2502 284.554 98.0128 284.311 96.796C284.202 96.2393 283.466 96.1974 283.15 96.5817H283.096C282.897 96.2418 282.392 96.0742 282.111 96.3354C281.943 96.3061 281.771 96.3303 281.618 96.4043H281.601C281.468 95.9117 280.633 95.8328 280.411 96.3033C279.795 97.6253 279.232 98.9704 278.721 100.338C278.686 100.434 278.675 100.536 278.689 100.636L278.046 100.523C277.214 100.378 276.854 101.651 277.694 101.799L281.717 102.501C282.362 102.612 283.638 103.122 284.264 102.639C284.84 102.178 284.685 101.112 284.685 100.491Z" fill="#F2E7E1"/>
<path d="M90.27 80.0672C89.9226 78.9414 88.8117 78.4512 88.2352 77.4585C87.7426 76.6283 87.1169 75.9977 86.097 75.9188C84.9442 75.8326 84.3456 76.5618 83.5425 77.2442C83.2174 77.5201 83.6879 77.9832 84.0106 77.7122C84.4565 77.2962 84.9784 76.97 85.5477 76.7515C84.4909 78.7862 85.0206 81.0797 86.57 82.74C87.5357 83.7746 89.8044 84.7649 90.1838 82.6784C90.3316 81.8655 90.5213 80.8826 90.27 80.0672Z" fill="#442232"/>
<path d="M281.867 76.9857C280.938 76.5891 280.635 75.8254 279.682 75.552C278.984 75.3705 278.248 75.391 277.561 75.6111C277.287 75.699 277.035 75.8442 276.822 76.0372C276.445 76.238 276.01 76.3032 275.59 76.222C275.186 76.323 274.977 76.3132 274.625 76.5521C273.999 76.9709 273.785 77.6138 273.767 78.3282C273.766 78.3875 273.782 78.4459 273.814 78.4957C273.967 79.1559 274.39 79.6707 275.147 79.6954C275.428 79.6954 275.639 79.5599 275.905 79.5008C276.521 79.3579 276.201 79.1165 277.026 79.4342C277.852 79.752 277.603 79.8186 277.738 80.6389C277.827 81.1685 278.135 81.6907 278.206 82.1982C278.435 83.787 277.482 84.4645 276.132 84.8783C275.292 85.137 273.469 84.967 272.853 85.5976C271.794 86.684 273.839 88.7114 274.758 89.0587C277.751 90.1795 278.206 85.4375 281.116 86.4524C281.186 86.4715 281.26 86.4669 281.327 86.4393C281.395 86.4116 281.451 86.3626 281.488 86.2997C282.202 85.2503 283.234 84.2625 283.577 83.0012C283.823 82.0996 283.618 81.2768 283.823 80.4073C284.274 78.609 283.458 77.6779 281.867 76.9857Z" fill="#47567A"/>
<path d="M129.967 83.1441C130.213 82.3118 130.51 81.4957 130.857 80.7004C130.884 80.3999 130.916 80.1018 130.958 79.8185C131.335 77.1334 133.818 74.239 136.963 75.9658C139.89 77.5695 140.755 80.8162 139.806 83.5555C139.341 86.1051 137.86 87.928 134.436 87.726C132.886 87.6349 131.766 87.6053 131.211 86.3268C130.953 85.7306 130.995 84.7404 130.901 84.0605C130.416 83.9028 129.802 83.7427 129.967 83.1441Z" fill="#D95F5F"/>
<path d="M135.461 84.9744C135.485 84.8488 135.505 84.728 135.532 84.595C135.548 84.533 135.585 84.4783 135.636 84.4399C135.642 84.3858 135.662 84.3343 135.695 84.2905C135.727 84.2468 135.77 84.2123 135.82 84.1906C135.87 84.1689 135.925 84.1608 135.979 84.1669C136.033 84.173 136.085 84.1932 136.128 84.2255C136.128 83.9792 136.116 83.7329 136.104 83.5013C136.086 83.1293 136.702 83.0653 136.757 83.4372C136.757 83.4643 136.757 83.4915 136.757 83.521C136.755 83.5333 136.755 83.5457 136.757 83.5579C136.796 83.5109 136.848 83.4756 136.906 83.4558C136.965 83.4359 137.027 83.4322 137.087 83.4451C137.147 83.458 137.203 83.487 137.248 83.529C137.293 83.571 137.326 83.6244 137.343 83.6836C137.343 83.6319 137.343 83.5777 137.36 83.5235C137.363 83.4359 137.4 83.353 137.464 83.293C137.527 83.2329 137.612 83.2006 137.7 83.2032C137.788 83.2058 137.87 83.2431 137.93 83.3069C137.991 83.3706 138.023 83.4557 138.02 83.5432V83.6048C138.106 83.6077 138.189 83.6425 138.25 83.7026C138.312 83.7628 138.35 83.8438 138.355 83.9299C138.355 84.0211 138.355 84.1122 138.355 84.2034C138.433 84.2066 138.506 84.2391 138.56 84.2945C138.61 84.2567 138.67 84.2334 138.732 84.2271C138.795 84.2207 138.858 84.2316 138.914 84.2585C138.971 84.2854 139.02 84.3272 139.054 84.3796C139.089 84.432 139.109 84.4928 139.111 84.5556C139.136 85.8694 139.162 87.1791 139.19 88.4847C139.203 89.1006 139.481 90.2239 139.144 90.7831C139.063 90.8789 138.963 90.9563 138.85 91.0103C138.737 91.0642 138.613 91.0934 138.488 91.0959C138.488 91.2068 138.488 91.3176 138.476 91.4309C138.467 91.514 138.427 91.5905 138.363 91.6453C138.3 91.7001 138.219 91.7292 138.135 91.7267C138.052 91.7242 137.973 91.6904 137.913 91.6319C137.853 91.5735 137.818 91.4947 137.813 91.4112C137.813 91.3497 137.813 91.2881 137.813 91.2265H137.794C137.794 91.4186 137.769 91.6107 137.766 91.8054C137.765 91.8596 137.749 91.9125 137.722 91.9593C137.694 92.006 137.655 92.0451 137.609 92.073C137.562 92.101 137.51 92.1168 137.455 92.1191C137.401 92.1214 137.347 92.1101 137.298 92.0862C137.245 92.1547 137.168 92.2 137.082 92.2129C136.996 92.2257 136.909 92.2051 136.838 92.1552C136.443 92.1632 136.049 92.1091 135.67 91.995C135.67 91.9285 135.67 91.8645 135.67 91.798C135.607 91.8264 135.536 91.8344 135.468 91.8207C135.4 91.807 135.338 91.7724 135.291 91.7216L134.845 91.8078C134.655 91.8448 134.409 91.6945 134.438 91.4753C134.74 89.3215 134.858 87.1458 134.791 84.9719C134.796 84.5729 135.412 84.5852 135.461 84.9744Z" fill="#D95F5F"/>
<path d="M111.285 89.7261C110.635 89.6109 109.975 89.5606 109.315 89.5759C109.306 89.5748 109.296 89.5748 109.287 89.5759C109.227 89.5711 109.168 89.5885 109.119 89.6248C109.071 89.6611 109.038 89.7138 109.026 89.7729C109.02 89.7843 109.015 89.7969 109.014 89.8099C108.906 90.7362 108.827 91.6649 108.797 92.596C108.778 93.2365 108.627 94.074 108.854 94.6923C108.992 94.994 109.243 95.2293 109.553 95.3476L109.529 95.9363C109.514 96.3551 109.605 98.1953 109.529 98.6313C109.327 98.6658 109.093 98.6707 108.918 98.6904C108.835 98.6999 108.758 98.7402 108.704 98.8035C108.649 98.8668 108.62 98.9484 108.623 99.032C108.626 99.1156 108.66 99.1951 108.719 99.2546C108.778 99.3141 108.857 99.3492 108.94 99.3531C109.462 99.395 109.985 99.4171 110.509 99.4147C110.933 99.4147 110.911 98.7545 110.485 98.7545C110.376 98.7545 110.27 98.7422 110.162 98.7422C110.163 98.72 110.163 98.6978 110.162 98.6756C110.216 98.0524 110.189 96.1014 110.204 95.4732C110.433 95.4679 110.652 95.3744 110.815 95.2121C111.211 94.7835 111.192 93.8449 111.266 93.3005C111.375 92.5156 111.442 91.7254 111.468 90.9332C111.495 90.5637 111.709 89.8271 111.285 89.7261Z" fill="#F2E7E1"/>
<path d="M133.823 91.7783C132.837 92.7193 125.201 95.934 123.866 96.2444C120.392 97.0549 116.766 97.0056 113.182 96.8135C112.083 96.4193 111.172 95.8577 109.898 96.3208C109.302 96.54 107.864 97.1633 108.201 98.0451C108.314 98.3383 108.536 98.4245 108.824 98.5378C109.585 98.8 110.367 98.9937 111.162 99.1167C111.766 99.2128 112.64 99.1955 113.224 98.826C116.207 99.3975 119.227 99.8459 122.274 99.7868C124.691 99.7424 128.997 99.2349 131.093 97.9096C130.189 96.7322 134.365 93.1824 133.823 91.7783Z" fill="#D95F5F"/>
<path d="M233.36 98.2617C232.914 95.8477 232.169 93.4985 231.143 91.2681C230.348 89.6028 225.635 89.3959 225.492 89.5043C225.431 89.5017 225.37 89.521 225.321 89.5589C225.271 89.5967 225.237 89.6506 225.224 89.7112C222.317 92.113 221.243 96.4018 220.159 99.8333C219.364 102.356 218.681 104.915 218.124 107.499C218.105 107.595 218.083 107.691 218.063 107.79C216.831 109.197 215.671 111.224 215.984 113.02C215.999 113.075 216.028 113.125 216.068 113.165C216.108 113.206 216.158 113.236 216.213 113.251C217.129 113.569 218.235 113.483 219.199 113.535C220.401 113.6 221.604 113.645 222.807 113.668C225.325 113.712 227.84 113.668 230.353 113.525C230.44 113.522 230.523 113.486 230.585 113.425C230.647 113.363 230.683 113.28 230.685 113.192C230.75 111.869 230.712 110.543 230.572 109.226C231.331 107.783 231.91 106.125 232.476 104.721C233.314 102.622 233.789 100.511 233.36 98.2617Z" fill="#47567A"/>
<path d="M88.462 81.6809C88.4349 81.3779 88.4029 81.0823 88.361 80.7965C88.1947 79.6614 87.7016 78.5993 86.9421 77.7395C85.1976 78.5157 83.3113 78.9225 81.4019 78.9342C80.993 78.9342 80.594 78.912 80.1998 78.88C79.6513 79.7054 79.3035 80.6476 79.1842 81.6314C79.0648 82.6152 79.1773 83.6132 79.5125 84.5458C79.9781 87.0954 81.4586 88.9159 84.8827 88.7164C86.4322 88.6252 87.5531 88.5956 88.1073 87.3171C88.3537 86.721 88.3241 85.7307 88.4177 85.0508C88.9104 84.9055 89.5163 84.7454 89.3513 84.1344C89.1064 83.2988 88.8094 82.4794 88.462 81.6809V81.6809Z" fill="#D95F5F"/>
<path d="M85.8312 86.216C85.8484 86.0879 85.8731 85.9696 85.8903 85.8341C85.8971 85.7708 85.8814 85.7072 85.8459 85.6543C85.8581 85.601 85.8561 85.5455 85.8401 85.4932C85.8242 85.441 85.7948 85.3939 85.7549 85.3565C85.7151 85.3191 85.6661 85.2928 85.6129 85.2802C85.5597 85.2677 85.5042 85.2692 85.4518 85.2848C85.543 85.0606 85.6267 84.834 85.7203 84.6098C85.8607 84.2674 85.3015 83.9989 85.1266 84.3315C85.1119 84.3561 85.1045 84.3832 85.0897 84.4078C85.0825 84.4185 85.0767 84.4301 85.0724 84.4423C85.0507 84.3849 85.0139 84.3344 84.9658 84.2962C84.9176 84.258 84.8601 84.2336 84.7992 84.2255C84.7383 84.2174 84.6763 84.2259 84.6199 84.2502C84.5635 84.2746 84.5147 84.3137 84.4787 84.3635L84.5157 84.2059C84.5393 84.1235 84.5299 84.0351 84.4896 83.9595C84.4492 83.8839 84.381 83.827 84.2994 83.8007C84.2178 83.7745 84.1293 83.7811 84.0524 83.819C83.9755 83.8569 83.9164 83.9232 83.8875 84.0038L83.8678 84.0605C83.7856 84.0346 83.6968 84.0402 83.6185 84.0761C83.5402 84.1121 83.478 84.1759 83.4441 84.2551C83.4072 84.3389 83.3776 84.4251 83.3431 84.5015C83.2701 84.4776 83.1907 84.4829 83.1215 84.5162C83.0861 84.4644 83.0374 84.4231 82.9804 84.3967C82.9235 84.3703 82.8605 84.3599 82.7981 84.3664C82.7357 84.373 82.6762 84.3963 82.626 84.434C82.5758 84.4716 82.5367 84.5222 82.513 84.5803L81.1212 88.2532C80.9019 88.8296 80.2639 89.7928 80.3822 90.4333C80.4314 90.6796 80.6729 90.8249 80.897 90.9481C80.8625 91.054 80.828 91.16 80.796 91.2684C80.7724 91.3507 80.7818 91.4391 80.8222 91.5147C80.8625 91.5903 80.9307 91.6472 81.0123 91.6735C81.0939 91.6997 81.1825 91.6931 81.2593 91.6552C81.3362 91.6173 81.3953 91.5511 81.4242 91.4704L81.4907 91.2979L81.5079 91.3102C81.4513 91.495 81.3995 91.6797 81.3379 91.8645C81.3216 91.916 81.3185 91.9708 81.3287 92.0239C81.3389 92.0769 81.3622 92.1266 81.3964 92.1684C81.4307 92.2102 81.4748 92.2429 81.5248 92.2633C81.5748 92.2838 81.6291 92.2915 81.6828 92.2858C81.71 92.3682 81.768 92.437 81.8446 92.4778C81.9212 92.5186 82.0106 92.5284 82.0942 92.505C82.4636 92.6485 82.8537 92.7317 83.2495 92.7513C83.2741 92.6897 83.2914 92.6257 83.3136 92.5641C83.3633 92.613 83.4272 92.6451 83.4962 92.6557C83.5652 92.6663 83.6357 92.6549 83.6979 92.6232L84.0896 92.8523C84.1324 92.8786 84.1806 92.8951 84.2307 92.9002C84.2807 92.9054 84.3312 92.8992 84.3785 92.8822C84.4259 92.8651 84.4688 92.8377 84.5041 92.8018C84.5393 92.7659 84.566 92.7226 84.5822 92.6749C85.0212 90.5453 85.6409 88.4571 86.4347 86.4328C86.5924 86.0608 86.0061 85.8662 85.8312 86.216Z" fill="#D95F5F"/>
<path d="M85.6389 91.0467C84.8432 89.3839 80.1307 89.1745 79.9878 89.2854C79.9257 89.2818 79.8643 89.3007 79.815 89.3387C79.7657 89.3767 79.7317 89.4313 79.7194 89.4923C76.8126 91.8941 75.7385 96.1804 74.6546 99.6144C73.859 102.134 73.1766 104.694 72.6199 107.28C72.6002 107.376 72.578 107.472 72.5583 107.569C71.3389 108.975 70.1664 111.003 70.4792 112.798C70.4941 112.853 70.523 112.904 70.5632 112.944C70.6033 112.985 70.6533 113.014 70.7083 113.03C71.6247 113.348 72.7308 113.261 73.6939 113.316C74.8961 113.383 76.099 113.427 77.3028 113.446C79.8204 113.493 82.3354 113.446 84.8481 113.303C84.9353 113.301 85.0185 113.266 85.0803 113.205C85.1422 113.143 85.1782 113.06 85.1807 112.973C85.2455 111.649 85.2076 110.323 85.0674 109.005C87.6293 99.2177 86.6341 93.1258 85.6389 91.0467Z" fill="#442232"/>
<path d="M220.105 113.513C220.723 111.665 221.174 109.655 221.662 108.093C222.416 105.701 223.679 102.824 223.103 100.272C222.236 96.4513 218.092 96.3182 215.814 99.0403C214.368 100.765 213.597 103.255 212.776 105.329C211.737 107.997 210.832 110.716 210.067 113.476L220.105 113.513Z" fill="white"/>
<path d="M229.109 86.743C228.66 85.1295 228.52 82.3088 230.537 81.6979C231.291 81.4737 231.735 81.9196 232.414 81.2989C233.912 79.9268 233.713 78.8773 232.318 77.5767C230.924 76.276 226.384 76.345 224.711 79.1508C223.588 81.0328 223.65 83.3065 223.674 85.3782C223.699 87.6273 223.47 90.0094 224.566 92.0589C225.625 94.0296 227.466 95.0569 228.939 96.6433C229.345 97.0818 229.614 97.8602 230.232 98.0499C230.887 98.2543 232.092 97.5892 232.641 97.2665C234.006 96.4659 232.87 94.3326 232.429 93.2069C231.537 90.9504 229.742 89.0684 229.109 86.743Z" fill="#442232"/>
<path d="M244.249 85.1146C244.897 84.9768 245.557 84.9042 246.219 84.8979H246.249C246.309 84.8915 246.369 84.9073 246.418 84.9422C246.467 84.9772 246.501 85.0288 246.515 85.0875C246.521 85.0994 246.526 85.1118 246.53 85.1245C246.668 86.0458 246.776 86.972 246.843 87.9032C246.884 88.5412 247.064 89.3812 246.857 89.9995C246.73 90.3055 246.487 90.5495 246.182 90.6794C246.197 90.874 246.212 91.0711 246.224 91.2657C246.256 91.6845 246.224 93.527 246.315 93.9581C246.517 93.9877 246.751 93.9828 246.929 93.9976C247.012 94.0048 247.089 94.0428 247.145 94.1041C247.202 94.1654 247.233 94.2457 247.233 94.3289C247.233 94.4122 247.202 94.4924 247.145 94.5537C247.089 94.6151 247.012 94.6531 246.929 94.6602C246.407 94.7194 245.887 94.7588 245.362 94.776C244.938 94.7908 244.938 94.1281 245.362 94.1158C245.47 94.1158 245.579 94.0961 245.685 94.0912C245.678 94.0702 245.673 94.0488 245.67 94.0271C245.596 93.4063 245.554 91.4553 245.517 90.8247C245.287 90.8268 245.065 90.7383 244.899 90.5784C244.488 90.167 244.475 89.226 244.382 88.6865C244.247 87.9053 244.152 87.1176 244.098 86.3266C244.066 85.9571 243.827 85.2279 244.249 85.1146Z" fill="#F2E7E1"/>
<path d="M246.87 89.1177C246.131 88.6793 245.704 89.433 245.466 90.4135C245.424 90.3932 245.379 90.3838 245.333 90.3863C244.369 90.4627 244.426 91.7856 244.667 92.6921C243.613 94.2568 242.357 95.6763 240.933 96.9143C239.342 98.2741 237.637 98.6781 235.578 98.5648C233.399 98.4785 231.268 97.8972 229.348 96.865C228.871 98.0967 228.435 99.3424 228.04 100.602C228.448 100.804 228.875 100.971 229.271 101.124C231.949 102.181 234.967 102.809 237.753 102.11C244.061 100.499 246.074 93.7341 246.054 93.6503C246.495 92.7241 247.493 92.0171 247.552 90.9677C247.584 90.3691 247.439 89.4527 246.87 89.1177Z" fill="#D95F5F"/>
<path d="M141.434 98.9909C141.423 97.7436 141.257 96.5026 140.942 95.2958C140.804 94.7391 139.85 94.6972 139.444 95.0815H139.373C139.217 94.9011 139.004 94.7787 138.77 94.734C138.536 94.6893 138.293 94.7249 138.082 94.8351C137.872 94.8063 137.659 94.8291 137.461 94.9016H137.441C137.269 94.409 136.187 94.3301 135.902 94.8007C135.107 96.126 134.378 97.4709 133.717 98.8357C133.672 98.9282 133.657 99.0324 133.675 99.1337L132.842 99.0204C131.766 98.8751 131.303 100.151 132.386 100.296L137.589 100.999C138.424 101.109 140.075 101.619 140.883 101.136C141.634 100.676 141.432 99.6092 141.434 98.9909Z" fill="#F2E7E1"/>
<path d="M76.5344 113.38C77.1527 111.53 77.6035 109.522 78.0937 107.96C78.8475 105.566 80.1112 102.691 79.5323 100.139C78.6652 96.3182 74.5218 96.1852 72.2432 98.9072C70.7972 100.632 70.0261 103.122 69.2058 105.196C68.1658 107.864 67.2614 110.583 66.4961 113.343L76.5344 113.38Z" fill="white"/>
<path d="M104.215 90.4972C104.866 90.3819 105.526 90.3316 106.186 90.3469C106.198 90.3469 106.206 90.3469 106.216 90.3469C106.276 90.3422 106.336 90.36 106.384 90.3968C106.433 90.4336 106.465 90.4869 106.477 90.5465V90.5465C106.477 90.5465 106.489 90.5686 106.489 90.5834C106.598 91.5096 106.676 92.4383 106.706 93.3695C106.726 94.0124 106.876 94.8475 106.647 95.4658C106.51 95.768 106.26 96.0036 105.95 96.1211C105.95 96.3181 105.964 96.5153 105.974 96.7123C105.989 97.1311 105.898 98.9688 105.974 99.4048C106.176 99.4393 106.408 99.4442 106.585 99.4639C106.668 99.4733 106.745 99.5137 106.799 99.577C106.854 99.6403 106.883 99.7218 106.88 99.8054C106.877 99.889 106.843 99.9685 106.784 100.028C106.726 100.088 106.647 100.123 106.563 100.127C106.041 100.168 105.519 100.191 104.994 100.188C104.568 100.188 104.592 99.5279 105.019 99.5279C105.127 99.5279 105.233 99.5156 105.341 99.5156C105.335 99.4948 105.33 99.4733 105.329 99.4516C105.275 98.8283 105.302 96.8749 105.287 96.2492C105.057 96.2429 104.838 96.1485 104.676 95.9856C104.28 95.5594 104.299 94.6184 104.225 94.0765C104.116 93.2907 104.049 92.4997 104.023 91.7067C103.996 91.3347 103.782 90.5982 104.215 90.4972Z" fill="#F2E7E1"/>
<path d="M105.592 96.4636C104.319 95.9956 103.407 96.5572 102.309 96.9563C100.973 97.0277 94.9578 96.737 90.068 95.6679C86.0158 94.7836 82.4192 91.2338 80.6209 92.5567C79.34 93.5001 80.3451 95.1186 81.2639 95.9438C82.6237 97.1755 86.1907 98.8309 88.0234 99.2078C89.6911 99.7399 91.5239 99.8828 93.2162 99.9148C96.2634 99.9739 99.2811 99.5255 102.267 98.954C102.853 99.3236 103.725 99.3408 104.329 99.2448C105.128 99.1217 105.914 98.9271 106.679 98.6634C106.967 98.5599 107.189 98.4737 107.302 98.1707C107.627 97.3061 106.186 96.6927 105.592 96.4636Z" fill="#D95F5F"/>
<path d="M150.753 73.2339C149.894 72.4949 148.509 72.8422 147.566 73.1822C146.879 73.442 146.229 73.7898 145.632 74.2168C144.211 75.2021 143.351 75.5298 141.538 75.3352C140.454 75.1973 139.354 75.3319 138.336 75.7268C136.897 74.8572 134.995 74.8893 133.409 75.5101C132.463 75.8771 130.564 77.2812 131.399 78.3873C131.512 78.8799 132.086 79.21 132.505 79.3726C132.706 79.4373 132.912 79.4852 133.121 79.5155L133.946 79.6288C134.782 80.3383 135.04 81.1134 134.722 81.9542C134.653 83.048 134.672 84.494 135.865 85.0163C136.128 85.0871 136.396 85.1332 136.668 85.1542C137.16 85.2626 137.67 85.6616 138.126 85.7084C138.695 85.7651 138.619 85.8661 139.163 85.4744C139.41 85.2982 139.624 85.0817 139.799 84.834C141.03 83.7328 141.769 80.8162 140.809 78.4292C141.166 78.7445 142.504 79.8333 144.258 79.7742C145.154 79.7422 146.428 80.3678 146.475 80.4393C146.832 80.8236 147.009 81.1142 147.531 81.3359C148.43 81.7153 149.62 81.735 150.293 80.9517C150.59 80.5694 150.762 80.1049 150.785 79.6214C150.862 78.5805 151.013 77.5464 151.239 76.5274C151.512 75.4287 151.734 74.0739 150.753 73.2339Z" fill="#47567A"/>
<path d="M140.356 90.0145C137.801 89.1227 134.345 91.0664 132.167 93.3894C131.106 95.0423 129.908 97.2347 129.554 98.5378C128.746 101.521 127.534 104.585 127.051 107.652C126.805 109.258 126.132 111.673 126.612 113.426H140.705C141.587 112.217 142.967 102.267 143.39 99.2596C143.698 97.0622 141.71 91.8793 140.356 90.0145Z" fill="#F2E7E1"/>
<path d="M139.035 95.7074C137.936 95.2393 136.503 95.8848 135.717 96.6558C134.769 97.587 134.522 98.8728 134.424 100.134C133.685 103.393 133.717 106.413 130.236 108.086C128.398 108.97 125.085 109.98 122.939 110.648C122.915 110.645 122.89 110.645 122.865 110.648C121.88 110.862 121.02 110.054 120.01 110.485C119.451 110.732 118.626 111.36 118.498 111.978C118.476 112.063 118.488 112.152 118.531 112.228C118.574 112.304 118.645 112.36 118.729 112.384C119.835 112.567 121.213 112.732 122.37 112.426C122.415 112.53 133.456 112.057 136.848 107.376C138.179 105.455 139.108 103.285 139.58 100.996C140.501 98.8679 140.994 96.5499 139.035 95.7074Z" fill="#D95F5F"/>
<path d="M85.9864 76.6531C84.7547 76.3624 83.5698 76.6901 82.5229 77.2936C81.1311 76.9167 79.4437 77.1433 78.5002 78.3233C78.3094 78.5624 78.1679 78.8371 78.0839 79.1313C77.8104 79.8703 77.8006 80.0994 77.3277 80.7916C76.8966 81.4197 76.6822 81.9962 76.7931 82.7623C76.9901 84.127 78.1874 84.733 78.7367 85.9154C79.052 86.5879 79.089 87.2629 79.7738 87.7334C79.9823 87.8786 80.2187 87.9791 80.4679 88.0287C80.7172 88.0783 80.9739 88.0759 81.2222 88.0216C81.3675 87.9625 81.508 87.896 81.6484 87.8221C81.9826 87.6192 82.3787 87.5431 82.7643 87.6078C82.9544 87.556 83.1361 87.4771 83.3038 87.3737C83.7324 87.0387 83.8408 86.4573 83.7965 85.9499C83.7226 85.2256 83.3949 85.4178 83.252 84.7305C82.6411 83.957 82.7594 82.8091 84.065 82.4913C84.2743 82.4396 84.4887 82.5308 84.6981 82.4913C85.1907 82.245 85.3336 82.1317 85.5356 81.6045C85.5873 81.3237 85.6366 81.0404 85.6834 80.7571C86.1186 80 86.7172 79.6075 87.4792 79.5796C87.6098 79.4564 87.7921 79.4096 87.9152 79.2544C88.8636 78.0326 86.9323 76.8773 85.9864 76.6531Z" fill="#442232"/>
<path d="M86.2179 27.7179C85.0207 34.4651 84.8926 41.5891 88.3881 47.6565C92.2335 54.3298 99.8035 57.7736 107.3 58.0027C124.075 58.5249 135.611 44.156 144.388 31.1395C143.809 36.7067 144.245 42.3503 147.098 47.2919C150.943 53.9627 158.513 57.4065 166.009 57.6381C182.824 58.1628 194.375 43.7274 203.159 30.6838C202.487 36.4432 202.859 42.3085 205.805 47.4224C209.65 54.0957 217.22 57.5395 224.717 57.7686C242.916 58.3377 254.95 41.3773 263.983 27.6292C212.863 27.6316 138.153 27.7179 86.2179 27.7179Z" fill="#47567A"/>
<path d="M318.682 171.414C281.113 171.235 67.1711 171.202 25.9045 171.028C25.9045 171.69 25.8897 172.35 25.8799 173.013C66.9839 173.188 280.919 173.22 318.658 173.397C318.665 172.737 318.672 172.072 318.682 171.414Z" fill="#301824"/>
<path d="M320.446 43.9763C282.877 43.799 68.9348 43.7669 27.6682 43.592C27.6682 44.2522 27.6534 44.9149 27.6436 45.5751C68.7475 45.75 282.682 45.782 320.421 45.9594C320.43 45.2943 320.438 44.6332 320.446 43.9763Z" fill="#301824"/>
</g>
<defs>
<clipPath id="clip0">
<rect width="344.767" height="260" fill="white" transform="translate(0.630127)"/>
</clipPath>
</defs>
</svg>
