<svg width="380" height="269" viewBox="0 0 380 269" fill="none" xmlns="http://www.w3.org/2000/svg">
<path d="M321.615 34.8211C321.429 28.908 316.118 26.6418 310.904 27.664C310.204 27.7961 309.512 27.9637 308.826 28.1671C309.656 26.9904 310.447 25.79 311.181 24.546C313.731 20.2493 316.752 13.635 311.209 10.2159C306.833 7.51591 300.92 9.16006 296.511 10.8815C294.825 11.5405 293.184 12.3101 291.6 13.1853C292.62 11.1133 293.521 8.86493 293.581 6.70571C293.741 0.073549 286.269 -1.08334 281.418 0.836183C275.796 3.06077 269.859 6.15498 265.186 10.3882C264.85 9.16114 264.152 8.06368 263.183 7.23857C258.718 3.4332 251.397 7.96361 247.439 10.4754C237.584 16.7557 230.251 26.3022 226.724 37.4438C220.385 44.6227 220.09 55.9022 220.843 64.9551C221.301 70.4304 222.725 75.767 226.344 80.03C229.418 83.6511 233.775 85.9728 238.247 87.3773C248.608 90.6458 260.693 90.3823 271.311 88.7401C282.048 87.0781 292.527 82.7577 300.475 75.2024C304.04 71.8091 309.351 66.2407 308.967 60.8981C308.769 58.0614 307.247 56.5499 305.243 55.8962C307.974 53.6038 310.577 51.1636 313.042 48.5866C316.671 44.8347 321.795 40.548 321.615 34.8211Z" fill="#46698A"/>
<path d="M195.497 242.259C197.327 242.039 199.156 241.823 200.984 241.599C201.816 241.497 202.647 241.394 203.478 241.288L204.1 241.209C207.864 240.644 211.606 240.02 215.342 239.301C232.844 235.943 250.262 231.554 268.158 230.959C268.445 230.949 268.728 230.959 269.007 230.969C269.742 228.224 269.998 225.32 270.146 222.451C270.491 216.193 270.42 209.922 270.267 203.658C269.956 190.96 269.509 178.261 268.772 165.579C267.302 140.264 265.864 157.061 260.157 132.317C256.932 118.335 252.897 104.425 252.839 89.9624C252.846 89.6011 252.722 89.2494 252.49 88.9719C252.413 88.0409 251.066 75.874 249.979 76.3296C229.844 84.8067 209.527 92.8268 189.027 100.39C188.696 100.493 188.406 100.696 188.196 100.971C187.986 101.247 187.867 101.581 187.857 101.927C186.985 119.042 186.084 187.139 184.582 243.637C188.215 243.134 191.86 242.696 195.497 242.259Z" fill="#442232"/>
<path d="M378.268 83.9483C378.256 83.4594 378.056 82.994 377.709 82.6495C377.362 82.305 376.895 82.1081 376.406 82.1001C359.185 82.1655 262.954 83.2372 251.258 83.1302C249.594 83.1164 249.753 83.9226 249.737 85.9887C249.737 86.056 244.468 223.481 243.671 249.281C243.289 250.369 243.848 251.813 245.353 251.795C288.736 251.266 358.464 253.92 370.782 253.112C371.754 253.049 372.687 252.32 372.644 251.264C372.442 246.385 379.292 108.512 378.268 83.9483Z" fill="#D98C5F"/>
<path d="M246.26 177.123C244.935 211.393 244.081 237.272 243.715 249.281C243.335 250.368 243.893 251.812 245.397 251.795C288.779 251.266 358.508 253.92 370.827 253.112C371.798 253.048 372.733 252.319 372.689 251.264C372.579 248.619 374.052 217.548 375.71 177.123H246.26Z" fill="#5E3E4D"/>
<path d="M363.464 192.238C363.55 192.082 363.587 191.904 363.569 191.727C363.552 191.55 363.482 191.383 363.368 191.246C363.254 191.11 363.101 191.012 362.93 190.964C362.758 190.916 362.577 190.921 362.408 190.978C346.7 190.56 353.247 190.944 337.161 190.51C337.045 190.503 336.929 190.524 336.823 190.572C336.717 190.62 336.624 190.694 336.553 190.786C336.426 190.928 336.355 191.112 336.355 191.303C335.919 207.499 335.145 235.783 334.709 251.979C334.709 252.003 334.709 252.024 334.709 252.048C334.701 252.165 334.723 252.282 334.771 252.388C334.819 252.494 334.893 252.587 334.986 252.658C335.124 252.774 335.298 252.837 335.478 252.839C351.7 253.274 344.901 252.88 361.123 253.316C361.765 253.334 362.004 252.722 361.844 252.242C362.264 236.282 363.034 208.212 363.464 192.238Z" fill="#78ADD9"/>
<path d="M357.872 223.347C357.747 223.253 357.605 223.187 357.453 223.15C357.301 223.114 357.144 223.11 356.991 223.137C355.501 223.038 345.129 222.905 341.012 222.839C340.896 222.832 340.78 222.854 340.674 222.902C340.568 222.95 340.476 223.023 340.404 223.115C340.276 223.256 340.206 223.439 340.206 223.63C339.77 239.826 340.091 233.19 339.655 249.382C339.655 249.406 339.655 249.429 339.655 249.451C339.648 249.568 339.669 249.685 339.718 249.792C339.767 249.898 339.841 249.991 339.935 250.061C340.072 250.176 340.245 250.239 340.424 250.242C343.94 250.378 354.231 250.527 356.8 250.549C357.444 250.549 357.684 249.954 357.521 249.475C357.951 233.501 357.624 240.363 358.054 224.387C358.06 223.78 358.209 223.604 357.872 223.347ZM355.933 248.94C353.952 248.843 344.2 248.792 341.274 248.679C341.696 232.994 341.359 240.141 341.781 224.456C356.717 224.852 354.402 224.678 356.45 224.717C356.02 240.402 356.355 233.255 355.933 248.94ZM358.492 196.574C358.367 196.481 358.225 196.414 358.073 196.377C357.922 196.341 357.764 196.336 357.611 196.362C356.121 196.263 345.749 196.13 341.632 196.065C341.517 196.058 341.401 196.079 341.295 196.127C341.189 196.175 341.097 196.248 341.026 196.34C340.898 196.481 340.827 196.665 340.828 196.855C340.392 213.052 340.715 203.224 340.279 219.42C340.279 219.444 340.279 219.468 340.279 219.492C340.271 219.608 340.292 219.725 340.341 219.831C340.389 219.937 340.463 220.03 340.557 220.1C340.695 220.214 340.869 220.277 341.048 220.28C344.564 220.417 354.853 220.567 357.422 220.587C358.066 220.587 358.306 219.993 358.143 219.513C358.573 203.539 358.246 213.59 358.676 197.616C358.682 197.006 358.821 196.824 358.492 196.574ZM356.553 218.975C354.572 218.878 344.82 218.828 341.894 218.713C342.316 203.028 341.981 213.365 342.403 197.682C357.339 198.078 355.022 197.903 357.062 197.943C356.642 213.628 356.975 203.29 356.553 218.975ZM337.522 221.78V224.218C337.522 225.244 339.119 225.246 339.119 224.218V221.78C339.119 220.753 337.522 220.751 337.522 221.78Z" fill="#442232"/>
<path d="M255.88 237.318C256.401 237.601 256.983 237.989 257.571 238.263C257.968 238.346 258.433 238.461 258.629 238.516C259.305 238.714 261.951 239.768 262.573 239.416C260.989 239.224 260.645 239.179 261.543 239.279C261.955 239.327 262.369 239.368 262.783 239.404C263.49 239.467 264.202 239.513 264.911 239.554C266.601 239.655 268.294 239.721 269.988 239.77C277.212 239.99 284.437 239.673 291.647 239.247C298.644 238.835 305.663 238.186 312.673 238.136C313.887 238.136 315.102 238.106 316.316 238.043C316.847 238.015 317.378 237.978 317.901 237.934C318.923 237.635 319.961 237.394 321.011 237.211C321.294 236.991 321.312 236.995 321.197 237.11C322.718 235.91 324.507 235.094 326.411 234.733C326.857 218.129 327.304 201.525 327.75 184.922C327.797 184.181 327.93 183.755 327.467 183.413C327.168 183.133 326.93 183.215 326.302 183.193C304.739 182.618 273.833 183.145 251.751 182.551C251.592 182.544 251.434 182.575 251.289 182.64C251.144 182.706 251.017 182.805 250.917 182.929C250.744 183.125 250.645 183.375 250.638 183.637C250.169 201.054 249.701 218.473 249.232 235.894C251.537 235.736 253.841 236.23 255.88 237.318Z" fill="#78ADD9"/>
<path d="M249.852 218.652C260.628 218.677 308.567 218.775 326.851 218.794C326.871 218.212 326.888 217.63 326.908 217.047C308.634 217.027 260.697 216.932 249.907 216.906C249.889 217.487 249.87 218.069 249.852 218.652ZM250.513 198.107L250.458 199.855C260.981 199.88 308.955 199.977 327.457 199.997C327.475 199.415 327.494 198.832 327.512 198.25C309.024 198.228 261.052 198.131 250.513 198.105V198.107Z" fill="#442232"/>
<path d="M275.125 182.912C274.493 202.523 273.716 226.344 272.924 251.323L274.669 251.353C275.461 226.375 276.238 202.559 276.87 182.943C276.242 182.93 275.661 182.92 275.125 182.912ZM258.6 251.072L260.347 251.103C261.139 226.379 261.904 202.642 262.544 182.781L260.798 182.747C260.159 202.606 259.378 226.348 258.6 251.072Z" fill="#442232"/>
<path d="M302.663 182.967C302.029 202.578 301.255 226.993 300.461 251.973L302.208 252.003C303 227.025 303.777 202.614 304.409 182.999C303.779 182.995 303.198 182.975 302.663 182.967ZM286.138 251.721L287.886 251.753C288.678 227.029 289.443 202.695 290.082 182.836L288.335 182.803C287.705 202.664 286.923 226.997 286.138 251.721Z" fill="#442232"/>
<path d="M313.145 251.888L314.892 251.92C315.684 227.196 316.449 202.862 317.089 183.003L315.341 182.969C314.704 202.828 313.929 227.17 313.145 251.888Z" fill="#442232"/>
<path d="M326.405 234.103C311.758 234.091 262.223 233.857 249.277 233.844C249.008 242.227 249.101 241.965 248.832 250.345C248.83 250.376 248.83 250.408 248.832 250.44C248.824 250.608 248.862 250.775 248.942 250.922C249.023 251.07 249.142 251.193 249.287 251.278C249.525 251.439 249.806 251.525 250.093 251.525C255.692 251.65 318.959 251.904 324.723 252.032C325.779 252.056 325.856 251.303 325.912 250.559C326.177 242.068 326.136 242.593 326.405 234.103Z" fill="#5E3E4D"/>
<path d="M285.845 249.869C285.939 249.744 286.006 249.601 286.042 249.449C286.079 249.298 286.084 249.14 286.057 248.986C286.154 247.496 286.289 241.912 286.352 237.796C286.36 237.679 286.339 237.563 286.291 237.457C286.243 237.351 286.169 237.258 286.077 237.187C285.936 237.059 285.752 236.989 285.562 236.989C269.366 236.553 269.62 236.876 253.423 236.441C253.4 236.439 253.377 236.439 253.354 236.441C253.237 236.432 253.12 236.453 253.013 236.501C252.906 236.55 252.813 236.624 252.742 236.718C252.628 236.857 252.564 237.03 252.562 237.209C252.425 240.725 252.274 246.226 252.255 248.798C252.255 249.44 252.849 249.679 253.328 249.519C269.303 249.947 268.827 249.62 284.801 250.05C285.413 250.058 285.596 250.204 285.845 249.869ZM253.869 247.928C253.966 245.947 254.018 240.983 254.131 238.049C269.816 238.471 269.051 238.136 284.738 238.558C284.342 253.495 284.516 246.389 284.475 248.437C268.789 248.015 269.554 248.35 253.869 247.928ZM322.724 250.489C322.818 250.365 322.886 250.222 322.922 250.071C322.959 249.919 322.963 249.762 322.936 249.608C323.035 248.118 323.168 242.532 323.233 238.416C323.241 238.3 323.219 238.184 323.171 238.078C323.123 237.973 323.05 237.88 322.958 237.809C322.818 237.681 322.634 237.61 322.443 237.611C306.247 237.178 305.968 237.498 289.772 237.063H289.696C289.58 237.055 289.463 237.076 289.356 237.124C289.25 237.173 289.157 237.247 289.086 237.34C288.972 237.479 288.909 237.652 288.906 237.831C288.769 241.347 288.621 246.848 288.599 249.42C288.599 250.063 289.193 250.303 289.672 250.141C305.647 250.571 305.702 250.244 321.676 250.672C322.293 250.678 322.477 250.826 322.724 250.489ZM290.217 248.55C290.316 246.569 290.366 241.603 290.479 238.669C306.164 239.091 305.93 238.756 321.617 239.178C321.221 254.115 321.395 247.009 321.356 249.057C305.671 248.637 305.902 248.972 290.217 248.55Z" fill="#442232"/>
<path d="M296.122 98.7814C279.9 98.3436 286.572 98.7299 270.35 98.2941C270.243 98.2889 270.136 98.3073 270.036 98.3479C269.937 98.3886 269.847 98.4506 269.774 98.5295C269.701 98.6084 269.646 98.7024 269.613 98.8047C269.58 98.9071 269.57 99.0154 269.584 99.1221C269.526 100.857 269.445 103.102 269.32 106.18C269.295 106.838 269.94 107.08 270.42 106.899C286.319 107.323 279.681 106.937 295.827 107.371C295.98 107.382 296.133 107.343 296.262 107.259C296.391 107.176 296.489 107.052 296.54 106.907V106.891V106.881C296.585 106.782 296.611 106.675 296.616 106.566C296.732 103.652 296.814 101.489 296.869 99.7936C296.903 99.6768 296.909 99.5538 296.888 99.434C296.866 99.3143 296.818 99.2011 296.746 99.1032C296.673 99.0053 296.58 98.9254 296.472 98.8696C296.363 98.8138 296.244 98.7836 296.122 98.7814ZM295.051 105.754C280.063 105.358 285.938 105.715 270.953 105.318C271.04 103.102 271.105 101.345 271.151 99.9105C286.063 100.307 280.398 99.962 295.251 100.354C295.205 101.788 295.14 103.546 295.051 105.754Z" fill="#442232"/>
<path d="M294.441 159.931C278.219 159.493 284.891 159.879 268.669 159.444C268.561 159.438 268.454 159.456 268.354 159.497C268.254 159.537 268.165 159.599 268.092 159.678C268.018 159.757 267.964 159.851 267.931 159.954C267.898 160.056 267.888 160.165 267.902 160.272C267.845 162.007 267.761 162.124 267.639 165.2C267.613 165.86 268.259 166.102 268.736 165.921C284.639 166.347 277.997 165.959 294.136 166.393C294.289 166.404 294.442 166.365 294.57 166.281C294.699 166.198 294.797 166.074 294.849 165.929V165.913V165.903C294.894 165.804 294.919 165.697 294.924 165.588C295.041 162.674 295.122 162.639 295.178 160.943C295.211 160.827 295.218 160.705 295.197 160.586C295.176 160.467 295.128 160.354 295.057 160.257C294.986 160.159 294.893 160.079 294.787 160.022C294.68 159.966 294.561 159.935 294.441 159.931ZM293.367 164.77C278.379 164.374 284.243 164.731 269.267 164.335C269.356 162.118 269.421 162.488 269.465 161.054C284.379 161.45 278.714 161.106 293.565 161.498C293.519 162.938 293.45 162.568 293.367 164.77Z" fill="#442232"/>
<path d="M292.866 113.235C292.618 112.535 292.384 112.357 291.776 112.193C290.031 111.719 277.868 111.959 273.776 111.895C273.702 111.886 273.626 111.889 273.554 111.905C273.474 111.92 273.398 111.952 273.332 112C273.265 112.048 273.211 112.109 273.171 112.181C273.164 112.191 273.157 112.202 273.152 112.214C273.14 112.236 273.129 112.257 273.12 112.28C273.104 112.314 273.091 112.35 273.08 112.387C273.056 112.472 273.043 112.561 273.041 112.65C272.909 121.044 272.656 129.43 272.284 137.808C272.279 137.909 272.289 138.009 272.314 138.107C271.896 145.338 271.889 152.587 272.294 159.818C272.316 160.214 272.571 160.67 272.936 160.611C274.396 160.397 289.047 160.163 289.11 160.177C292.39 160.888 292.04 159.614 291.895 155.908C291.677 150.32 293.478 114.952 292.866 113.235Z" fill="white"/>
<path d="M293.551 111.505C293.446 111.405 293.321 111.329 293.185 111.282C293.048 111.235 292.903 111.218 292.759 111.232C277.052 110.814 288.918 111.198 272.831 110.764C272.715 110.757 272.599 110.778 272.493 110.826C272.387 110.874 272.295 110.947 272.224 111.04C272.096 111.18 272.025 111.364 272.026 111.555L270.719 160.145C270.719 160.169 270.719 160.19 270.719 160.214C270.711 160.331 270.732 160.447 270.78 160.553C270.829 160.66 270.903 160.752 270.996 160.822C271.133 160.939 271.307 161.004 271.488 161.005C287.709 161.44 275.59 161.046 291.812 161.482C292.456 161.5 292.557 160.888 292.533 160.408L293.823 112.486C293.846 112.062 293.775 111.681 293.551 111.505ZM290.94 159.87C276.097 159.473 287.177 159.828 272.32 159.436L272.955 135.799C287.799 136.195 276.493 135.837 291.576 136.249L290.94 159.87ZM291.618 134.66C276.501 134.246 287.806 134.615 272.997 134.21C273.192 126.937 273.391 119.662 273.591 112.387C288.528 112.783 277.446 112.43 292.212 112.818L291.618 134.66Z" fill="#442232"/>
<path d="M285.641 112.22C285.007 131.831 285.297 136.035 284.504 161.012L286.249 161.044C287.042 136.065 286.755 131.867 287.387 112.252L285.641 112.22ZM277.096 160.763L278.843 160.793C279.635 136.071 279.336 131.95 279.976 112.091L278.229 112.056C277.591 131.917 277.88 136.047 277.096 160.763Z" fill="#442232"/>
<path d="M357.038 99.0469C340.816 98.6111 347.488 98.9954 331.266 98.5596C331.157 98.5532 331.048 98.5711 330.947 98.6121C330.846 98.653 330.755 98.716 330.681 98.7964C330.607 98.8768 330.552 98.9726 330.519 99.0769C330.487 99.1812 330.478 99.2914 330.494 99.3995C330.436 101.133 330.355 103.377 330.23 106.456C330.204 107.113 330.85 107.357 331.33 107.177C347.23 107.601 340.59 107.212 356.727 107.646C356.88 107.658 357.033 107.619 357.162 107.535C357.291 107.451 357.389 107.328 357.44 107.183V107.167C357.485 107.068 357.511 106.961 357.515 106.852C357.632 103.94 357.714 101.775 357.769 100.079C357.806 99.9622 357.816 99.8383 357.797 99.7172C357.778 99.5961 357.731 99.481 357.661 99.381C357.59 99.2809 357.497 99.1987 357.389 99.1407C357.281 99.0828 357.161 99.0507 357.038 99.0469ZM355.966 106.022C340.979 105.626 346.844 105.98 331.866 105.584C331.956 103.367 332.021 101.61 332.064 100.178C346.977 100.574 341.311 100.228 356.164 100.62C356.111 102.054 356.048 103.811 355.957 106.022H355.966Z" fill="#442232"/>
<path d="M355.344 160.196C339.123 159.761 345.794 160.145 329.572 159.709C329.465 159.704 329.357 159.722 329.258 159.763C329.158 159.804 329.068 159.866 328.995 159.945C328.922 160.024 328.867 160.119 328.835 160.221C328.802 160.324 328.792 160.432 328.806 160.539C328.748 162.272 328.665 162.389 328.542 165.468C328.517 166.125 329.162 166.369 329.64 166.189C345.543 166.613 338.901 166.224 355.039 166.658C355.192 166.67 355.345 166.631 355.474 166.547C355.602 166.463 355.699 166.339 355.75 166.195C355.752 166.189 355.752 166.184 355.75 166.179C355.75 166.179 355.75 166.179 355.75 166.169C355.796 166.07 355.821 165.963 355.824 165.854C355.943 162.942 356.022 162.904 356.079 161.209C356.113 161.093 356.12 160.971 356.099 160.852C356.078 160.733 356.03 160.621 355.959 160.523C355.889 160.425 355.796 160.345 355.69 160.288C355.583 160.232 355.465 160.2 355.344 160.196ZM354.265 165.044C339.277 164.648 345.141 165.002 330.165 164.606C330.254 162.389 330.319 162.76 330.363 161.328C345.277 161.724 339.612 161.377 354.463 161.769C354.425 163.204 354.36 162.833 354.265 165.044Z" fill="#442232"/>
<path d="M353.772 113.5C353.524 112.802 353.29 112.624 352.682 112.458C350.937 111.986 338.774 112.224 334.681 112.163C334.607 112.151 334.532 112.154 334.459 112.172C334.379 112.186 334.303 112.218 334.237 112.265C334.171 112.313 334.116 112.374 334.077 112.446C334.07 112.457 334.063 112.468 334.057 112.479C334.045 112.501 334.036 112.523 334.026 112.545C334.01 112.58 333.997 112.615 333.986 112.652C333.962 112.737 333.948 112.825 333.946 112.913C333.814 121.308 333.562 129.694 333.19 138.071C333.183 138.172 333.193 138.273 333.219 138.37C332.802 145.598 332.796 152.845 333.202 160.073C333.223 160.47 333.479 160.925 333.843 160.866C335.301 160.652 349.954 160.418 350.018 160.432C353.298 161.145 352.947 159.869 352.803 156.163C352.583 150.587 354.384 115.219 353.772 113.5Z" fill="white"/>
<path d="M354.463 111.772C354.359 111.672 354.234 111.595 354.097 111.548C353.96 111.5 353.815 111.483 353.671 111.497C337.964 111.079 349.829 111.463 333.742 111.031C333.626 111.023 333.51 111.044 333.404 111.092C333.299 111.14 333.206 111.214 333.136 111.307C333.007 111.447 332.937 111.631 332.938 111.822L331.615 160.412C331.615 160.436 331.615 160.46 331.615 160.482C331.607 160.598 331.628 160.715 331.676 160.822C331.725 160.928 331.799 161.021 331.892 161.092C332.03 161.207 332.204 161.271 332.383 161.272C348.605 161.708 336.486 161.314 352.708 161.749C353.352 161.767 353.453 161.155 353.429 160.676L354.718 112.753C354.756 112.329 354.681 111.937 354.463 111.772ZM351.846 160.135C337.003 159.739 348.082 160.095 333.225 159.703L333.861 136.067C348.704 136.463 337.399 136.102 352.482 136.516L351.846 160.135ZM352.524 134.922C337.407 134.506 348.712 134.874 333.903 134.472C334.097 127.195 334.295 119.92 334.497 112.646C349.433 113.042 338.352 112.69 353.118 113.08L352.524 134.922Z" fill="#442232"/>
<path d="M346.539 112.485C345.905 132.097 346.194 136.3 345.402 161.278L347.147 161.31C347.94 136.332 347.652 132.134 348.284 112.517L346.539 112.485ZM338.001 161.028L339.749 161.06C340.541 136.336 340.242 132.216 340.882 112.357L339.134 112.323C338.497 132.182 338.786 136.304 338.001 161.028Z" fill="#442232"/>
<path d="M378.234 76.5017C362.006 76.3274 250.181 76.3512 250.181 76.3512L249.996 83.7837C249.996 83.7837 362.032 83.7738 378.26 83.9481C379.296 83.958 379.268 76.5116 378.234 76.5017Z" fill="#5E3E4D"/>
<path d="M250.232 25.281C250.191 24.2906 249.412 23.4031 248.37 23.4209C207.618 24.0825 83.491 23.514 42.7333 23.3694C31.0379 23.3298 19.3431 23.2559 7.64899 23.1476C5.98303 23.1317 5.46998 24.9304 6.12567 26.0259C6.12567 26.0952 6.10388 26.1566 6.1019 26.224C5.00446 72.8928 0.913813 222.015 0.115497 248.007C-0.264842 249.105 0.293779 250.559 1.79731 250.541C45.1797 250.008 230.803 252.748 243.119 251.928C244.091 251.862 245.024 251.125 244.981 250.065C244.777 245.163 251.256 50.0209 250.232 25.281Z" fill="#442232"/>
<path d="M20.539 121.221C20.5059 123.039 20.4709 124.857 20.434 126.677C20.6321 126.691 20.8836 126.677 21.2006 126.677C65.73 126.386 63.6777 126.263 66.7621 126.352C66.7937 124.704 66.8248 123.06 66.8551 121.42C63.9234 121.376 35.6317 121.388 20.539 121.221Z" fill="#CC9E89"/>
<path d="M98.235 120.992C98.1994 122.809 98.1637 124.628 98.1281 126.449C98.3261 126.463 98.5797 126.449 98.8947 126.439C143.424 126.148 141.372 126.023 144.456 126.112C144.487 124.466 144.517 122.822 144.547 121.182C141.619 121.144 113.326 121.15 98.235 120.992Z" fill="#CC9E89"/>
<path d="M175.365 120.5C175.329 122.318 175.293 124.137 175.258 125.958C175.456 125.97 175.709 125.958 176.024 125.948C220.554 125.655 218.501 125.532 221.586 125.621C221.617 123.973 221.649 122.329 221.679 120.689C218.749 120.657 190.455 120.663 175.365 120.5Z" fill="#CC9E89"/>
<path d="M141.74 170.26C141.437 169.935 141.2 170.044 140.572 170.018C119.001 169.649 127.997 170.143 105.905 169.758C105.739 169.756 105.576 169.797 105.431 169.877C105.285 169.958 105.164 170.074 105.077 170.216C104.903 170.46 104.809 170.752 104.81 171.052L104.138 249.624C104.138 249.661 104.138 249.699 104.138 249.737C104.127 249.919 104.156 250.102 104.225 250.272C104.294 250.442 104.399 250.594 104.534 250.717C104.715 250.896 104.958 250.997 105.212 250.998C109.891 251.08 135.599 251.185 140.419 251.268C141.303 251.284 141.354 250.394 141.384 249.519C141.604 223.687 141.825 197.857 142.045 172.027C142.083 171.161 142.208 170.658 141.74 170.26Z" fill="#B2C2D1"/>
<path d="M93.6632 169.948C93.3601 169.673 93.1224 169.766 92.4944 169.75C70.926 169.483 44.5796 169.895 22.4942 169.618C22.3345 169.613 22.1761 169.646 22.032 169.715C21.888 169.784 21.7625 169.887 21.6661 170.014C21.4942 170.211 21.398 170.463 21.3947 170.725C21.1134 192.963 20.8335 215.201 20.5548 237.439C20.5529 237.471 20.5529 237.502 20.5548 237.534C20.546 237.694 20.5777 237.855 20.6469 238C20.7161 238.145 20.8207 238.27 20.951 238.364C21.1408 238.521 21.3803 238.605 21.6265 238.602C26.3055 238.661 87.3539 238.681 92.1735 238.742C93.055 238.754 93.1085 238 93.1422 237.255C93.4182 215.322 93.6942 193.39 93.9702 171.458C94.0039 170.713 94.1307 170.283 93.6632 169.948Z" fill="#B2C2D1"/>
<path d="M224.872 170.658C224.569 170.382 224.331 170.475 223.701 170.459C202.135 170.192 175.789 170.604 153.701 170.327C153.542 170.322 153.383 170.356 153.239 170.425C153.095 170.494 152.97 170.596 152.873 170.723C152.703 170.921 152.607 171.173 152.604 171.434C152.322 193.672 152.042 215.91 151.762 238.148C151.762 238.18 151.762 238.211 151.762 238.243C151.753 238.404 151.784 238.564 151.854 238.709C151.923 238.854 152.028 238.979 152.158 239.073C152.349 239.23 152.589 239.314 152.836 239.311C157.515 239.37 218.563 239.39 223.381 239.451C224.264 239.463 224.318 238.709 224.349 237.964C224.627 216.031 224.903 194.099 225.179 172.167C225.213 171.42 225.338 170.992 224.872 170.658Z" fill="#B2C2D1"/>
<path d="M249.941 40.9619C233.715 40.7876 22.6308 40.7638 6.40492 40.5994C5.37682 40.5994 5.40257 42.1841 6.42869 42.196C22.6565 42.3703 233.741 42.3822 249.967 42.5566C250.995 42.5744 250.969 40.9777 249.941 40.9619Z" fill="#5E3E4D"/>
<path d="M57.9488 59.0737C57.6398 58.3764 57.3545 58.1982 56.5958 58.0337C54.4327 57.5603 51.7208 57.9545 49.5002 57.9268L34.2668 57.7287C34.175 57.7181 34.0822 57.7215 33.9914 57.7386C33.8982 57.7499 33.8082 57.78 33.7268 57.8269C33.6454 57.8739 33.5744 57.9369 33.518 58.012L33.4922 58.0476C33.4779 58.068 33.4646 58.0892 33.4526 58.111C33.4344 58.1456 33.4185 58.1813 33.4051 58.218C33.3744 58.3026 33.3577 58.3915 33.3555 58.4814C33.1957 66.874 32.8828 75.2599 32.4166 83.6393C32.4108 83.7411 32.4236 83.8431 32.4542 83.9404C31.9369 91.1653 31.9296 98.4176 32.4324 105.644C32.4582 106.04 32.7771 106.493 33.2248 106.436C35.0354 106.224 36.844 106.04 38.6565 105.869C41.2793 106.176 43.904 106.446 46.5505 106.367C48.7296 106.303 50.9086 106.071 53.0876 105.939C53.1507 105.969 53.2172 105.991 53.2857 106.004C57.3546 106.715 56.9188 105.441 56.7405 101.733C56.4691 96.1331 56.8177 90.5587 57.2377 84.9744C57.2484 84.8777 57.2384 84.7798 57.2083 84.6873C57.1783 84.5947 57.1288 84.5096 57.0633 84.4376C57.3724 80.6738 57.6834 76.9101 57.9726 73.1582C58.1707 70.7117 58.2876 68.2712 58.2618 65.8168C58.246 63.9766 58.7095 60.7932 57.9488 59.0737Z" fill="white"/>
<path d="M59.0323 57.3126C58.9279 57.2125 58.803 57.1362 58.6662 57.089C58.5294 57.0418 58.384 57.0248 58.24 57.0392C42.5332 56.6213 49.0801 57.0056 32.993 56.5718C32.877 56.5637 32.7609 56.5846 32.655 56.6327C32.5492 56.6807 32.457 56.7544 32.3868 56.8471C32.2585 56.9878 32.1878 57.1717 32.1887 57.3622L30.8813 105.952C30.8813 105.976 30.8813 105.998 30.8813 106.022C30.8733 106.138 30.8944 106.255 30.9428 106.361C30.9913 106.467 31.0655 106.56 31.1586 106.63C31.2961 106.746 31.47 106.81 31.6499 106.81C47.8718 107.248 41.0732 106.852 57.2951 107.29C57.9369 107.305 58.0379 106.695 58.0161 106.216C58.444 90.2364 58.8732 74.2622 59.3037 58.2932C59.3315 57.8693 59.2562 57.479 59.0323 57.3126ZM57.6873 58.62C57.4918 65.9019 57.2937 73.1825 57.093 80.4618C41.9745 80.0478 47.9609 80.4162 33.1574 80.0121C33.3528 72.7381 33.5509 65.4635 33.7517 58.1882C48.6879 58.5923 42.9254 58.2318 57.6873 58.62ZM32.4859 105.243L33.1217 81.6068C47.9649 82.003 41.9805 81.6444 57.0574 82.0565L56.4215 105.677C41.5783 105.285 47.3409 105.636 32.4859 105.243Z" fill="#442232"/>
<path d="M135.078 59.6065C134.769 58.9092 134.484 58.7289 133.725 58.5645C131.562 58.091 128.85 58.4852 126.63 58.4575L111.396 58.2594C111.305 58.2479 111.212 58.2512 111.121 58.2693C111.028 58.2799 110.937 58.3095 110.856 58.3566C110.774 58.4036 110.703 58.467 110.648 58.5427C110.638 58.553 110.629 58.5643 110.622 58.5763C110.608 58.5981 110.594 58.6199 110.582 58.6417C110.564 58.6763 110.548 58.712 110.535 58.7487C110.504 58.8326 110.488 58.9209 110.485 59.0102C110.324 67.4054 110.011 75.7913 109.546 84.1681C109.54 84.2692 109.553 84.3706 109.584 84.4672C109.067 91.692 109.059 98.9444 109.562 106.17C109.588 106.566 109.907 107.022 110.354 106.963C112.165 106.749 113.974 106.555 115.786 106.394C118.409 106.701 121.034 106.971 123.68 106.893C125.859 106.83 128.038 106.598 130.217 106.463C130.28 106.493 130.347 106.515 130.415 106.529C134.484 107.24 134.048 105.966 133.868 102.26C133.599 96.6598 133.947 91.0835 134.367 85.4992C134.378 85.4025 134.368 85.3046 134.338 85.2121C134.308 85.1196 134.258 85.0345 134.193 84.9624C134.502 81.1986 134.813 77.4447 135.102 73.6849C135.3 71.2385 135.417 68.798 135.391 66.3416C135.372 64.5073 135.837 61.3259 135.078 59.6065Z" fill="white"/>
<path d="M136.164 57.8456C136.06 57.7454 135.935 57.6691 135.798 57.6219C135.661 57.5747 135.516 57.5578 135.372 57.5723C119.665 57.1523 126.212 57.5366 110.125 57.1047C110.009 57.0966 109.893 57.1175 109.787 57.1656C109.681 57.2137 109.589 57.2874 109.519 57.3801C109.39 57.5206 109.319 57.7046 109.32 57.8951L108.013 106.483C108.013 106.507 108.013 106.531 108.013 106.553C108.005 106.67 108.026 106.786 108.075 106.893C108.123 106.999 108.197 107.092 108.29 107.163C108.428 107.278 108.602 107.342 108.782 107.343C125.003 107.779 118.205 107.385 134.425 107.821C135.069 107.838 135.17 107.226 135.146 106.747L136.435 58.8261C136.461 58.3943 136.386 58.012 136.164 57.8456ZM134.819 59.153C134.622 66.4336 134.424 73.7142 134.225 80.9948C119.106 80.5788 125.093 80.9473 110.289 80.5451C110.483 73.2698 110.681 65.9951 110.883 58.7212C125.818 59.1154 120.055 58.7628 134.817 59.153H134.819ZM109.62 105.776L110.255 82.1398C125.099 82.536 119.112 82.1754 134.191 82.5894L133.555 106.208C118.708 105.816 124.477 106.168 109.62 105.776Z" fill="#442232"/>
<path d="M211.854 60.3157C211.544 59.6184 211.259 59.4381 210.501 59.2737C208.337 58.8003 205.623 59.1945 203.405 59.1667L188.171 58.9686C188.08 58.9571 187.987 58.9604 187.896 58.9786C187.802 58.9891 187.712 59.0188 187.63 59.0658C187.548 59.1128 187.477 59.1762 187.421 59.2519L187.397 59.2856C187.383 59.3074 187.369 59.3292 187.357 59.351C187.339 59.3855 187.323 59.4213 187.31 59.458C187.279 59.5419 187.263 59.6302 187.26 59.7194C187.1 68.1146 186.787 76.5006 186.321 84.8773C186.315 84.9784 186.328 85.0798 186.359 85.1764C185.842 92.4013 185.834 99.6536 186.335 106.88C186.363 107.276 186.682 107.731 187.127 107.672C188.936 107.458 190.747 107.264 192.557 107.105C195.182 107.41 197.807 107.68 200.453 107.603C202.632 107.539 204.811 107.307 206.99 107.173C207.053 107.203 207.12 107.225 207.188 107.238C211.257 107.949 210.821 106.675 210.641 102.969C210.372 97.3691 210.72 91.7927 211.14 86.2104C211.151 86.1137 211.141 86.0158 211.111 85.9232C211.081 85.8306 211.032 85.7455 210.966 85.6736C211.275 81.9098 211.586 78.1461 211.875 74.3942C212.063 71.9477 212.19 69.5072 212.165 67.0509C212.151 65.2165 212.612 62.0351 211.854 60.3157Z" fill="white"/>
<path d="M212.937 58.5546C212.833 58.4544 212.708 58.3781 212.571 58.3309C212.434 58.2837 212.289 58.2667 212.145 58.2812C196.438 57.8612 202.985 58.2456 186.898 57.8137C186.782 57.8056 186.666 57.8265 186.56 57.8746C186.454 57.9227 186.362 57.9964 186.292 58.089C186.162 58.229 186.091 58.4134 186.094 58.6041L184.786 107.192C184.786 107.216 184.786 107.24 184.786 107.262C184.778 107.379 184.799 107.496 184.847 107.602C184.896 107.709 184.97 107.801 185.063 107.872C185.201 107.987 185.375 108.051 185.555 108.052C201.777 108.488 194.976 108.094 211.198 108.53C211.842 108.547 211.943 107.935 211.919 107.456L213.209 59.5351C213.236 59.1112 213.161 58.721 212.937 58.5546ZM211.592 59.862L210.998 81.7037C195.881 81.2877 201.868 81.6562 187.064 81.2541C187.258 73.9788 187.456 66.7041 187.658 59.4301C202.593 59.8243 196.83 59.4717 211.592 59.862ZM186.391 106.485L187.027 82.8487C201.87 83.2449 195.883 82.8844 210.962 83.2984L210.326 106.927C195.483 106.531 201.246 106.877 186.391 106.485Z" fill="#442232"/>
<path d="M67.4949 98.088V97.7672H67.2968C67.0987 97.5691 66.7382 97.4086 66.2232 97.4046C39.5618 97.2323 49.0643 97.3809 22.4029 97.2065C21.3927 97.2065 20.9985 97.7672 21.2025 98.2287C20.9648 107.043 20.7277 115.857 20.4913 124.672C20.4636 125.7 22.0582 125.698 22.0761 124.672L22.7714 98.8052L30.0375 98.8487C29.8077 107.426 29.5772 116.004 29.3461 124.583C29.3184 125.611 30.915 125.611 30.9427 124.583C31.1725 116.008 31.403 107.433 31.6341 98.8567C34.7402 98.8745 37.0678 98.8844 38.9913 98.8903C38.7615 107.453 38.531 116.017 38.2999 124.583C38.2722 125.611 39.8688 125.611 39.8966 124.583C40.1264 116.021 40.3568 107.459 40.5879 98.8943L47.854 98.9062C47.6242 107.436 47.395 115.966 47.1666 124.496C47.1388 125.522 48.7335 125.522 48.7612 124.496L49.4506 98.9102C51.4078 98.9102 53.7829 98.926 56.99 98.9438C56.7576 107.519 56.5265 116.095 56.2967 124.672C56.269 125.7 57.8656 125.698 57.8933 124.672C58.1231 116.099 58.3536 107.525 58.5847 98.9518C60.6587 98.9636 63.0537 98.9775 65.8508 98.9973C65.621 107.525 65.3918 116.053 65.1634 124.583C65.1356 125.611 66.7303 125.611 66.7481 124.583C66.9845 115.847 67.2196 107.11 67.4533 98.3714C67.491 98.282 67.5054 98.1845 67.4949 98.088Z" fill="#CC9E89"/>
<path d="M145.155 97.2898L145.165 96.9688H144.967C144.671 96.7113 144.285 96.581 143.894 96.6063C117.232 96.434 126.735 96.5825 100.073 96.4082C99.0631 96.4082 98.6689 96.9708 98.8709 97.4304C98.6359 106.246 98.3988 115.06 98.1598 123.874C98.132 124.902 99.7287 124.902 99.7564 123.874L100.452 98.0068L107.718 98.0504C107.487 106.634 107.256 115.213 107.026 123.787C106.999 124.813 108.593 124.813 108.611 123.787C108.842 115.212 109.073 106.636 109.303 98.0603C112.409 98.0762 114.738 98.0861 116.662 98.092C116.431 106.656 116.2 115.221 115.97 123.787C115.943 124.813 117.537 124.813 117.565 123.787C117.796 115.222 118.027 106.659 118.256 98.096L125.524 98.1079L124.835 123.698C124.807 124.724 126.404 124.724 126.432 123.698C126.659 115.169 126.888 106.641 127.119 98.1138C129.076 98.1138 131.453 98.1277 134.658 98.1455C134.429 106.72 134.198 115.296 133.967 123.874C133.939 124.902 135.534 124.902 135.552 123.874C135.784 115.3 136.015 106.727 136.245 98.1534L143.511 98.199L142.822 123.787C142.794 124.813 144.391 124.813 144.419 123.787C144.652 115.049 144.887 106.312 145.124 97.575C145.158 97.4841 145.169 97.386 145.155 97.2898Z" fill="#CC9E89"/>
<path d="M222.285 96.759L222.295 96.4361C222.23 96.4361 222.166 96.4361 222.097 96.4361C221.801 96.1785 221.415 96.0483 221.023 96.0736C194.362 95.9012 203.864 96.0498 177.203 95.8755C176.193 95.8755 175.797 96.4361 176.001 96.8957C175.763 105.711 175.526 114.526 175.289 123.341C175.262 124.367 176.858 124.367 176.886 123.341L177.581 97.4721L184.847 97.5177C184.615 106.102 184.384 114.68 184.154 123.252C184.128 124.28 185.723 124.278 185.751 123.252C185.981 114.677 186.211 106.102 186.442 97.5256C189.548 97.5415 191.878 97.5514 193.799 97.5573L193.11 123.252C193.082 124.28 194.677 124.278 194.705 123.252C194.934 114.689 195.165 106.126 195.396 97.5613C198.068 97.5613 200.025 97.5613 202.662 97.5751C202.433 106.105 202.204 114.634 201.975 123.163C201.947 124.191 203.543 124.191 203.571 123.163C203.798 114.634 204.027 106.106 204.259 97.5791C206.216 97.5791 208.593 97.5949 211.798 97.6108C211.568 106.195 211.338 114.772 211.107 123.341C211.079 124.367 212.674 124.367 212.691 123.341C212.923 114.768 213.153 106.194 213.383 97.6207L220.649 97.6643C220.422 106.194 220.193 114.723 219.961 123.252C219.934 124.28 221.53 124.278 221.558 123.252C221.792 114.515 222.026 105.778 222.261 97.0403C222.294 96.9502 222.302 96.8532 222.285 96.759Z" fill="#CC9E89"/>
<path d="M123.11 187.393C122.882 208.949 122.648 231.104 122.432 251.096L124.029 251.105C124.243 231.098 124.476 208.935 124.706 187.365C124.182 187.491 123.637 187.5 123.11 187.393Z" fill="#442232"/>
<path d="M141.814 243.449C141.596 243.251 141.297 243.219 140.823 243.227C125.116 242.807 120.093 243.255 104.007 242.821C103.891 242.813 103.775 242.834 103.669 242.882C103.563 242.93 103.47 243.004 103.399 243.096C103.272 243.238 103.202 243.421 103.201 243.611C103.136 245.269 103.136 246.555 103.043 250.097C103.043 250.121 103.043 250.143 103.043 250.166C103.035 250.283 103.056 250.4 103.105 250.507C103.153 250.614 103.228 250.706 103.322 250.776C103.459 250.892 103.632 250.955 103.811 250.957C120.033 251.393 124.936 250.998 141.158 251.434C141.802 251.452 141.897 250.875 141.879 250.36C141.98 247.234 141.946 247.203 142.02 244.542C142.061 243.958 142.15 243.699 141.814 243.449Z" fill="#301824"/>
<path d="M127.686 212.58C127.755 211.558 126.164 211.421 126.101 212.447C126.018 213.715 125.933 214.984 125.847 216.253C125.778 217.277 127.369 217.414 127.432 216.388C127.515 215.124 127.6 213.855 127.686 212.58Z" fill="#442232"/>
<path d="M120.948 212.669C121.016 211.645 119.427 211.509 119.364 212.537L119.108 216.342C119.041 217.366 120.631 217.503 120.693 216.475L120.948 212.669Z" fill="#442232"/>
<path d="M119.905 196.364C117.613 196.243 110.705 196.214 108.415 196.176C108.358 196.177 108.303 196.195 108.256 196.228C108.209 196.26 108.173 196.305 108.152 196.358C108.079 196.411 108.021 196.481 107.983 196.562C107.944 196.643 107.927 196.732 107.932 196.822C107.847 199.199 107.793 199.805 107.708 202.19C107.692 202.307 107.72 202.426 107.787 202.524C107.854 202.621 107.954 202.691 108.068 202.719C110.4 202.939 117.298 203.085 119.629 202.872C119.778 202.858 119.871 202.731 119.922 202.572C119.971 202.483 120 202.385 120.008 202.283C120.168 200.082 120.255 197.119 120.239 197.042C120.279 196.743 120.17 196.378 119.905 196.364Z" fill="#F5E4D5"/>
<path d="M75.4385 197.272C76.0988 188.04 76.845 178.816 77.677 169.6H76.0922C75.2682 178.781 74.5246 187.97 73.8617 197.167C72.2052 197.296 70.635 197.958 69.3848 199.052C68.2576 200.031 66.5679 201.962 66.5402 203.583C66.5402 203.583 66.2767 204.502 66.661 204.555C69.258 204.922 75.6009 204.799 77.9979 204.72C78.1716 204.717 78.3399 204.659 78.4782 204.554C78.6164 204.449 78.7175 204.302 78.7665 204.136C79.6302 201.033 78.5406 197.951 75.4385 197.272ZM40.4651 197.139C41.1254 187.971 41.8656 178.811 42.6858 169.659H41.101C40.2835 178.772 39.5453 187.896 38.8863 197.032C37.2303 197.161 35.6606 197.823 34.4114 198.918C33.2842 199.896 31.5945 201.828 31.5668 203.448C31.5668 203.448 31.438 204.122 31.6876 204.421C32.5454 205.457 40.6018 204.993 42.9987 204.914C43.1725 204.911 43.3408 204.853 43.4793 204.747C43.6178 204.642 43.7194 204.496 43.7693 204.33C44.631 201.229 43.5673 197.818 40.4651 197.139Z" fill="#F5E4D5"/>
<path d="M208.963 197.258C209.61 188.265 210.337 179.28 211.142 170.301H209.546C208.753 179.247 208.031 188.198 207.379 197.155C205.722 197.285 204.152 197.947 202.902 199.042C201.774 200.019 200.085 201.95 200.057 203.573C200.057 203.573 199.93 204.246 200.178 204.545C201.038 205.579 209.092 205.118 211.491 205.039C211.666 205.035 211.835 204.975 211.973 204.868C212.111 204.761 212.212 204.613 212.26 204.444C213.129 201.352 212.065 197.939 208.963 197.258ZM173.99 197.125C174.632 188.195 175.351 179.271 176.149 170.355H174.553C173.76 179.237 173.043 188.125 172.401 197.018C170.745 197.147 169.175 197.81 167.926 198.906C166.799 199.882 165.109 201.814 165.082 203.434C165.082 203.434 164.953 204.11 165.203 204.409C166.06 205.443 174.117 204.979 176.514 204.902C176.689 204.898 176.858 204.838 176.997 204.732C177.135 204.625 177.236 204.476 177.284 204.308C178.16 201.219 177.092 197.806 174 197.127L173.99 197.125Z" fill="#F5E4D5"/>
<path d="M75.4662 233.455C73.3114 232.572 71.057 231.954 68.7528 231.615C63.9015 230.846 58.9075 230.755 54.0067 230.951C49.7655 231.122 45.0469 231.249 41.0197 232.734C39.0863 233.445 34.9679 235.492 35.9208 238.214C35.9685 238.336 36.0247 238.454 36.0892 238.568C48.371 238.586 65.825 238.604 78.085 238.624C78.8773 237.974 79.3369 237.132 78.9724 236.023C78.5049 234.604 76.6864 233.972 75.4662 233.455Z" fill="#F5E4D5"/>
<path d="M204.962 234.547C202.808 233.663 200.554 233.045 198.25 232.706C193.397 231.938 188.405 231.847 183.504 232.043C179.263 232.213 174.543 232.34 170.515 233.826C168.584 234.537 164.466 236.583 165.416 239.305C177.96 239.325 195.76 239.34 207.959 239.362C208.251 239.076 208.454 238.712 208.544 238.313C208.634 237.914 208.608 237.498 208.468 237.114C208.003 235.688 206.184 235.064 204.962 234.547Z" fill="#F5E4D5"/>
<path d="M83.487 226.972C82.3262 228.358 81.7042 230.361 81.0445 232.029C80.1935 234.207 79.4544 236.427 78.8298 238.681L86.9061 238.699C87.4211 237.183 87.7896 235.529 88.1917 234.248C88.7979 232.322 89.8141 230.01 89.3486 227.958C88.6533 224.882 85.3214 224.775 83.487 226.972Z" fill="#D95F5F"/>
<path d="M214.853 227.699C213.69 229.085 213.07 231.09 212.408 232.756C211.558 234.935 210.819 237.156 210.193 239.41C213.311 239.41 216.061 239.42 218.27 239.426C218.785 237.912 219.153 236.256 219.555 234.975C220.162 233.051 221.178 230.737 220.712 228.685C220.017 225.613 216.685 225.506 214.853 227.699Z" fill="#D95F5F"/>
<path d="M164.844 239.452C165.341 237.964 165.704 236.349 166.098 235.093C166.704 233.17 167.72 230.858 167.255 228.806C166.558 225.734 163.226 225.627 161.393 227.815C160.23 229.202 159.61 231.205 158.951 232.873C158.114 235.018 157.387 237.205 156.772 239.424L164.844 239.452Z" fill="#D95F5F"/>
<path d="M64.7296 217.081C65.4823 216.122 66.2173 215.153 66.9086 214.161C67.9367 212.697 70.1811 208.957 67.5167 207.887C64.8524 206.818 62.1247 210.324 61.2134 212.356C60.9979 212.847 60.8081 213.349 60.6449 213.86C60.5795 212.707 60.2725 211.972 59.5376 212.128C58.1192 212.431 57.8102 214.876 57.824 215.997C57.8739 218.258 58.2066 220.503 58.8145 222.681C58.8145 222.762 58.8026 222.845 58.8006 222.926C58.8003 222.976 58.8146 223.024 58.8417 223.065C58.8689 223.107 58.9077 223.139 58.9532 223.158C58.9908 223.289 59.0265 223.424 59.0681 223.554C59.0872 223.613 59.1261 223.664 59.1782 223.697C59.2302 223.73 59.2923 223.745 59.3538 223.738C59.4152 223.73 59.4723 223.702 59.5152 223.657C59.5581 223.613 59.5842 223.555 59.589 223.493C61.7681 223.204 63.6143 222.055 65.4368 220.862C66.4391 220.209 68.8638 218.881 67.9248 217.307C67.2632 216.179 65.8508 216.524 64.7296 217.081Z" fill="#46698A"/>
<path d="M60.5637 228.755C59.8941 226.797 59.8585 224.913 60.5875 222.966C60.5981 222.927 60.5995 222.886 60.5916 222.845C60.5838 222.805 60.5669 222.768 60.5422 222.735C60.5176 222.703 60.4858 222.676 60.4493 222.658C60.4129 222.64 60.3727 222.63 60.3319 222.629C59.9357 222.608 59.5396 222.602 59.1572 222.608C59.1169 222.588 59.0722 222.578 59.0273 222.579C58.9823 222.581 58.9383 222.593 58.8992 222.615C58.8601 222.638 58.8271 222.669 58.803 222.707C58.7789 222.745 58.7645 222.789 58.7611 222.833C58.671 224.741 57.9203 226.559 56.6375 227.974C55.8055 228.921 54.8091 229.757 54.2604 230.918C53.9395 231.611 53.7453 232.54 54.3436 233.154C54.7398 233.56 55.3756 233.653 56.0254 233.637C59.0087 233.74 60.4587 234.178 61.1263 232.473C61.5958 231.274 60.946 229.878 60.5637 228.755Z" fill="#442232"/>
<path d="M197.733 220.654C197.222 218.967 195.115 219.708 193.239 220.906C195.121 218.557 196.905 215.651 194.637 215.272C192.656 214.939 191.398 216.403 190.59 218.317C190.408 217.277 189.901 216.594 188.825 216.802C187.534 217.051 187.314 218.683 187.415 219.733C187.579 221.429 188.267 223.057 189.18 224.488C189.13 224.504 189.084 224.533 189.048 224.572C189.012 224.611 188.987 224.658 188.973 224.709C188.96 224.76 188.96 224.814 188.973 224.865C188.986 224.916 189.011 224.964 189.047 225.003C189.083 225.062 189.141 225.106 189.209 225.123C189.277 225.141 189.349 225.132 189.41 225.098L189.485 225.058C189.526 225.033 189.559 224.997 189.58 224.953C189.624 224.96 189.669 224.956 189.712 224.943C189.755 224.93 189.794 224.908 189.827 224.878C190.566 224.979 192.266 224.563 192.631 224.491C193.67 224.304 194.679 223.978 195.632 223.521C196.662 223.01 198.151 222.035 197.733 220.654Z" fill="#46698A"/>
<path d="M190.709 230.353C190.037 228.396 190.004 226.514 190.733 224.565C190.743 224.525 190.744 224.484 190.736 224.444C190.728 224.405 190.711 224.367 190.687 224.335C190.662 224.302 190.63 224.276 190.594 224.257C190.558 224.239 190.518 224.229 190.477 224.228C190.081 224.206 189.695 224.202 189.301 224.208C189.26 224.188 189.216 224.178 189.171 224.179C189.126 224.18 189.082 224.192 189.043 224.214C189.003 224.236 188.97 224.268 188.946 224.306C188.922 224.344 188.908 224.387 188.904 224.432C188.816 226.343 188.065 228.164 186.781 229.583C185.947 230.527 184.952 231.365 184.404 232.526C184.081 233.219 183.889 234.149 184.485 234.761C184.881 235.167 185.517 235.26 186.169 235.244C189.152 235.347 190.6 235.787 191.268 234.079C191.739 232.871 191.091 231.474 190.709 230.353Z" fill="#442232"/>
<path d="M45.3956 214.864C45.2903 214.175 45.1414 213.492 44.9499 212.822C44.9499 212.578 44.9658 212.338 44.9638 212.107C44.9519 209.928 43.282 207.352 40.5899 208.392C38.088 209.357 37.048 211.851 37.5115 214.137C37.6086 216.221 38.5911 217.83 41.3426 218.04C42.5867 218.133 43.484 218.238 44.0625 217.269C44.3339 216.821 44.4052 216.029 44.5537 215.496C44.9559 215.431 45.461 215.369 45.3956 214.864Z" fill="#D95F5F"/>
<path d="M41.834 215.763C41.8478 215.66 41.8637 215.565 41.8736 215.456C41.8788 215.405 41.8647 215.353 41.834 215.312C41.843 215.269 41.8404 215.224 41.8265 215.182C41.8126 215.14 41.7879 215.103 41.7549 215.074C41.7219 215.045 41.6818 215.025 41.6386 215.016C41.5955 215.007 41.5508 215.01 41.5091 215.024C41.5784 214.842 41.6398 214.658 41.7072 214.476C41.7229 214.414 41.7163 214.349 41.6885 214.292C41.6607 214.235 41.6136 214.19 41.5555 214.165C41.4974 214.139 41.4322 214.135 41.3714 214.153C41.3107 214.171 41.2584 214.211 41.2238 214.264C41.2238 214.286 41.208 214.305 41.1981 214.327L41.1862 214.355C41.1674 214.309 41.1366 214.269 41.097 214.24C41.0574 214.21 41.0105 214.192 40.9613 214.187C40.9121 214.182 40.8625 214.19 40.8176 214.211C40.7728 214.232 40.7345 214.264 40.7068 214.305C40.7167 214.264 40.7246 214.22 40.7345 214.179C40.7477 214.113 40.7359 214.045 40.7014 213.988C40.6668 213.93 40.6121 213.888 40.5479 213.869C40.4838 213.85 40.4149 213.856 40.3548 213.886C40.2948 213.915 40.2479 213.966 40.2235 214.028L40.2096 214.076C40.1428 214.057 40.0713 214.063 40.009 214.094C39.9468 214.125 39.8982 214.177 39.8728 214.242C39.8451 214.309 39.8233 214.381 39.7976 214.44C39.7381 214.423 39.6742 214.429 39.6193 214.458C39.5898 214.417 39.5498 214.385 39.5036 214.365C39.4574 214.345 39.4066 214.338 39.3567 214.344C39.3068 214.351 39.2595 214.371 39.22 214.402C39.1804 214.433 39.15 214.474 39.132 214.521C38.786 215.516 38.44 216.511 38.094 217.507C37.9315 217.974 37.4382 218.764 37.5571 219.276C37.6027 219.474 37.7988 219.583 37.981 219.672C37.9573 219.757 37.9315 219.844 37.9077 219.931C37.888 219.999 37.8961 220.072 37.9301 220.134C37.964 220.196 38.0212 220.241 38.089 220.261C38.1568 220.281 38.2296 220.273 38.2914 220.239C38.3533 220.205 38.3991 220.148 38.4188 220.08L38.4664 219.939H38.4802C38.4406 220.09 38.403 220.24 38.3554 220.389C38.3434 220.431 38.342 220.475 38.3516 220.518C38.3611 220.561 38.3811 220.6 38.4099 220.633C38.4387 220.666 38.4753 220.691 38.5163 220.706C38.5573 220.721 38.6014 220.726 38.6446 220.72C38.6677 220.786 38.7155 220.84 38.778 220.872C38.8404 220.903 38.9127 220.909 38.9794 220.888C38.9943 220.927 39.0182 220.962 39.0492 220.99C39.0801 221.018 39.1174 221.039 39.1577 221.05C39.1981 221.061 39.2405 221.062 39.2814 221.054C39.3224 221.045 39.3608 221.027 39.3934 221.001C39.4003 221.061 39.4276 221.118 39.4707 221.16C39.5139 221.203 39.5703 221.23 39.6307 221.237C39.6912 221.243 39.752 221.229 39.8032 221.196C39.8544 221.163 39.8929 221.114 39.9124 221.056C39.9303 221.007 39.9441 220.955 39.962 220.906C40.0031 220.944 40.055 220.968 40.1104 220.974C40.1659 220.981 40.222 220.97 40.271 220.943C40.378 221.001 40.4849 221.058 40.5899 221.118C40.6248 221.14 40.6643 221.153 40.7053 221.157C40.7463 221.161 40.7877 221.155 40.8261 221.141C40.8646 221.126 40.899 221.102 40.9268 221.072C40.9546 221.041 40.9749 221.005 40.9861 220.965C41.2919 219.244 41.7439 217.551 42.3371 215.906C42.4421 215.621 41.9687 215.482 41.834 215.763Z" fill="#D95F5F"/>
<path d="M76.6825 218.775C76.6825 218.671 76.6944 218.576 76.7043 218.465C76.7102 218.414 76.7341 218.366 76.7717 218.331C76.7715 218.287 76.783 218.243 76.8051 218.205C76.8271 218.167 76.8588 218.135 76.8971 218.113C76.9353 218.091 76.9787 218.08 77.0228 218.08C77.0668 218.08 77.1101 218.092 77.148 218.115C77.1163 217.917 77.0926 217.729 77.0609 217.536C77.0584 217.474 77.0782 217.412 77.1168 217.362C77.1554 217.312 77.2103 217.278 77.2718 217.265C77.3333 217.251 77.3976 217.26 77.4532 217.29C77.5088 217.319 77.5523 217.367 77.5759 217.425C77.5759 217.447 77.5759 217.471 77.5898 217.493V217.522C77.6174 217.481 77.6555 217.449 77.7002 217.428C77.7449 217.407 77.7945 217.398 77.8437 217.403C77.8929 217.408 77.9398 217.426 77.9795 217.455C78.0192 217.485 78.0502 217.524 78.0692 217.57V217.439C78.0638 217.37 78.0862 217.3 78.1315 217.247C78.1768 217.194 78.2413 217.161 78.3111 217.155C78.3808 217.149 78.4501 217.17 78.5038 217.215C78.5576 217.26 78.5915 217.324 78.5981 217.394V217.443C78.6673 217.438 78.7361 217.458 78.7911 217.501C78.846 217.543 78.8831 217.605 78.8952 217.673C78.9091 217.744 78.915 217.818 78.9269 217.891C78.9578 217.888 78.9889 217.891 79.0185 217.9C79.0481 217.909 79.0756 217.925 79.0993 217.945C79.1359 217.91 79.1815 217.885 79.231 217.874C79.2805 217.863 79.3321 217.866 79.3801 217.883C79.428 217.899 79.4706 217.928 79.5032 217.967C79.5358 218.006 79.5571 218.053 79.5648 218.103C79.7048 219.146 79.8461 220.189 79.9887 221.233C80.0541 221.726 80.3849 222.596 80.163 223.073C80.1072 223.157 80.0342 223.228 79.9489 223.282C79.8635 223.336 79.7677 223.37 79.6678 223.384C79.6678 223.473 79.6817 223.562 79.6876 223.652C79.6875 223.718 79.6624 223.783 79.6171 223.832C79.5718 223.881 79.5097 223.912 79.443 223.918C79.3764 223.923 79.31 223.904 79.257 223.863C79.204 223.822 79.1682 223.763 79.1567 223.697L79.1389 223.551H79.123C79.123 223.705 79.1389 223.859 79.1547 224.014C79.1581 224.057 79.1507 224.101 79.1331 224.141C79.1154 224.18 79.0882 224.215 79.0538 224.242C79.0194 224.268 78.9789 224.286 78.936 224.293C78.8931 224.3 78.8491 224.296 78.8081 224.281C78.7718 224.341 78.714 224.385 78.6465 224.403C78.5791 224.422 78.5072 224.413 78.4456 224.381C78.4229 224.416 78.3923 224.445 78.3562 224.467C78.3201 224.488 78.2795 224.5 78.2376 224.503C78.1958 224.506 78.1539 224.499 78.1154 224.482C78.0768 224.466 78.0427 224.44 78.0157 224.408C77.9968 224.466 77.959 224.515 77.9084 224.548C77.8578 224.581 77.7975 224.596 77.7373 224.591C77.6771 224.585 77.6205 224.56 77.5768 224.518C77.5331 224.476 77.5048 224.421 77.4967 224.361C77.4967 224.307 77.4868 224.254 77.4789 224.202C77.4308 224.231 77.375 224.244 77.3192 224.239C77.2635 224.234 77.2106 224.213 77.1679 224.177L76.8212 224.285C76.7829 224.299 76.742 224.303 76.7016 224.299C76.6613 224.294 76.6225 224.28 76.5883 224.258C76.5542 224.236 76.5255 224.207 76.5044 224.172C76.4833 224.137 76.4704 224.098 76.4666 224.058C76.5097 222.309 76.4037 220.56 76.1497 218.83C76.114 218.515 76.6073 218.467 76.6825 218.775Z" fill="#D95F5F"/>
<path d="M39.6608 238.619C40.2313 237.344 40.2016 235.632 40.3779 234.307C40.8196 230.977 41.4099 227.495 41.4456 224.131C41.4673 223.219 41.3381 222.31 41.0633 221.441C41.4417 221.106 41.8557 220.7 41.8299 220.334C41.7863 219.674 40.4631 219.276 40.0154 219.04C39.4112 218.721 38.4306 217.931 37.7076 218.028C37.1133 218.107 36.8617 218.86 36.6458 219.396C34.3776 221.641 32.4977 224.224 31.2418 227.186C30.4653 229.016 29.9879 230.949 29.459 232.861C29.0932 234.174 28.728 235.487 28.3635 236.801C28.2447 237.229 28.1417 237.924 28.007 238.619H39.6608Z" fill="#46698A"/>
<path d="M33.4586 238.56C33.9558 237.074 34.3183 235.458 34.7105 234.202C35.3167 232.279 36.3329 229.965 35.8674 227.913C35.1721 224.84 31.8401 224.733 30.0078 226.922C28.845 228.309 28.2249 230.313 27.5633 231.979C26.7281 234.125 26.0009 236.312 25.3843 238.53L33.4586 238.56Z" fill="#D95F5F"/>
<path d="M45.1837 209.486C44.8826 208.812 44.3239 208.953 43.797 208.478C43.2701 208.002 43.2027 207.685 42.4104 207.539C41.9132 207.448 41.2357 207.404 40.7484 207.586C40.3106 207.751 40.2135 208.038 39.847 208.284C39.2132 208.709 38.6842 208.462 38.084 208.737C37.95 208.789 37.8286 208.868 37.7281 208.971C37.6276 209.073 37.5504 209.196 37.5016 209.331C36.2932 210.124 35.5207 211.075 35.8277 212.636C35.9684 213.323 35.8 213.981 36.0258 214.656C36.2516 215.332 37.355 216.12 37.9889 216.53C38.8308 217.077 39.7718 216.909 40.2254 215.972C40.4591 215.5 40.2848 215.043 40.1283 214.585C39.9822 214.422 39.889 214.218 39.8609 214.001C39.6747 213.436 39.9897 212.675 40.6533 212.671C40.8304 212.692 41.0022 212.746 41.1604 212.828C41.4655 212.927 41.6319 212.828 41.8399 212.63C42.2638 211.825 43.591 211.417 43.9179 211.336C44.314 211.233 44.8806 211.297 45.1659 210.94C45.4254 210.609 45.3362 209.823 45.1837 209.486Z" fill="#442232"/>
<path d="M78.4475 238.641C78.503 238.483 78.5466 238.307 78.6001 238.105C78.8796 237.005 79.2323 235.926 79.6559 234.874C80.4859 232.831 81.0426 230.849 81.0683 228.634C81.0881 226.32 80.6563 224.03 80.1848 221.776C80.1744 221.731 80.1522 221.691 80.1204 221.658C80.0886 221.626 80.0485 221.602 80.0044 221.591C79.9603 221.58 79.914 221.58 79.8704 221.593C79.8267 221.606 79.7875 221.631 79.7569 221.665C79.7355 221.667 79.7147 221.673 79.6955 221.683C76.423 223.402 74.7749 226.134 73.1129 229.311C72.3324 230.807 71.3043 232.344 71.0923 234.052C70.8942 235.609 71.2904 237.154 71.7322 238.641H78.4475Z" fill="#D98C5F"/>
<path d="M53.3967 235.177C52.0219 234.186 50.4649 234.792 48.9792 235.163C48.9433 235.17 48.9096 235.186 48.8808 235.209C48.8519 235.232 48.8287 235.26 48.8128 235.294C48.1848 235.656 48.6444 236.482 49.2922 236.694C49.9776 236.914 50.4807 236.548 51.1226 236.439C52.0635 236.28 52.9054 237.156 53.8701 237.011C55.0309 236.839 53.8325 235.49 53.3967 235.177Z" fill="#D95F5F"/>
<path d="M50.2212 234.723C50.2192 234.653 50.1906 234.587 50.1412 234.538C50.0919 234.488 50.0255 234.46 49.9558 234.458C47.7946 234.259 46.9012 234.359 44.839 233.628C42.4956 232.796 41.7884 229.838 41.2 227.667C40.79 226.153 40.4394 220.787 37.9117 221.066C37.8898 221.015 37.8531 220.972 37.8063 220.942C37.7596 220.912 37.7049 220.897 37.6495 220.899C37.594 220.9 37.5403 220.918 37.4952 220.951C37.4501 220.983 37.4158 221.028 37.3967 221.08C37.3808 221.124 37.3689 221.167 37.3531 221.211C37.2877 221.237 37.2223 221.261 37.155 221.292C37.113 221.314 37.0782 221.348 37.0547 221.389C37.0312 221.431 37.0199 221.478 37.0222 221.525C37.0245 221.572 37.0402 221.618 37.0676 221.657C37.095 221.696 37.1329 221.726 37.1768 221.744C36.3606 224.258 36.006 226.916 36.3448 229.551C36.6261 231.73 37.4046 234.701 39.2092 236.159C40.1086 236.884 41.2714 237.051 42.3787 237.161C44.007 237.322 47.3608 237.492 48.1947 237.455C48.6662 237.435 49.3991 237.5 49.8151 237.209C50.5045 236.728 50.243 235.422 50.2212 234.723Z" fill="#46698A"/>
<path d="M76.6152 212.313C76.5977 212.262 76.5653 212.217 76.5222 212.185C76.4791 212.153 76.4273 212.135 76.3735 212.132C76.3426 212.105 76.3049 212.085 76.2642 212.077C76.2236 212.068 76.1813 212.07 76.1417 212.083C75.0819 212.376 74.4302 213.283 73.9627 214.246C73.7575 214.669 73.6345 215.128 73.6002 215.597C73.5626 216.025 73.6002 216.498 73.4596 216.914C73.2793 217.473 72.8891 217.853 72.58 218.325C71.7659 219.565 72.2175 220.306 72.267 221.693C72.2908 222.334 72.2413 223.113 73.1842 223.089C73.4972 223.089 73.6299 222.901 73.8617 222.786C73.9594 222.694 74.0483 222.593 74.1271 222.485L74.8185 222.519C74.9532 222.519 74.973 222.576 75.1493 222.562C76.1001 222.487 76.5241 221.651 76.8767 220.839C78.0375 218.164 77.574 214.963 76.6152 212.313Z" fill="#442232"/>
<path d="M80.2562 212.511C78.5288 212.594 76.8549 213.054 75.1236 212.792C74.7456 213.323 74.4794 213.926 74.3411 214.563C74.2936 214.789 74.2519 215.025 74.2143 215.264C73.8942 215.884 73.6123 216.523 73.3704 217.178C73.206 217.659 73.6894 217.822 74.0717 217.97C74.1113 218.521 74.0221 219.311 74.1984 219.805C74.5748 220.86 75.4742 220.944 76.7123 221.1C79.4499 221.443 80.7336 220.06 81.2427 218.038C82.0152 216.209 81.7478 214.018 80.2562 212.511Z" fill="#D95F5F"/>
<path d="M82.5322 218.202C82.4847 217.013 82.6967 215.825 82.4609 214.652C82.0925 212.822 80.896 212.017 79.1231 211.718C77.465 211.439 75.7555 211.697 74.8185 213.218C74.7704 213.293 74.7431 213.379 74.7393 213.468C74.7451 213.519 74.7655 213.567 74.7982 213.607C74.8309 213.648 74.8743 213.677 74.9235 213.693C75.5891 214.022 75.7931 214.725 76.0546 215.335C76.1081 215.462 76.0922 215.625 76.1576 215.758C76.2346 215.931 76.3529 216.084 76.5023 216.201C77.0569 216.469 77.6908 216.183 78.1881 216.661C78.3065 216.788 78.3983 216.937 78.4578 217.1C78.5174 217.263 78.5435 217.436 78.5347 217.61C78.5347 218.321 78.2237 218.957 77.9721 219.606C77.917 220.201 77.9686 220.801 78.1247 221.377C78.1347 221.416 78.1537 221.452 78.1802 221.481C78.2066 221.511 78.2396 221.534 78.2767 221.549C78.3137 221.564 78.3537 221.569 78.3934 221.566C78.433 221.562 78.4713 221.549 78.505 221.528C78.5565 221.536 78.6094 221.53 78.6575 221.51C79.1468 221.292 79.7609 221.57 80.2641 221.455C80.5216 221.397 80.7078 221.205 80.9455 221.116C81.5398 220.892 82.1341 221.209 82.5501 220.621C83.0057 219.987 82.558 218.872 82.5322 218.202Z" fill="#442232"/>
<path d="M73.4675 220.195C72.2261 220.143 70.984 220.126 69.7413 220.143C69.67 220.144 69.602 220.174 69.552 220.224C69.502 220.275 69.4739 220.344 69.4739 220.415C69.4739 220.415 69.4739 220.415 69.4739 220.427C69.2956 221.813 68.7687 224.826 71.0151 224.824C72.996 224.824 73.6161 221.976 73.725 220.466C73.7261 220.396 73.6997 220.329 73.6516 220.278C73.6035 220.227 73.5374 220.198 73.4675 220.195Z" fill="#F5E4D5"/>
<path d="M77.4095 225.224C76.3933 225.456 75.3711 227.172 74.8343 227.847C74.3291 228.485 72.8018 230.557 72.5463 230.795C71.9817 231.324 70.5139 232.639 69.9592 230.724C69.7611 230.024 70.3554 226.589 70.6129 225.781C71.2686 225.223 72.6057 224.196 72.166 223.404C72.4473 222.669 72.475 222.055 71.7698 222.051C71.1478 222.051 70.1712 222.396 69.7889 222.915C69.563 223.222 69.5016 223.656 69.3927 224.014C69.2329 224.589 69.0711 225.163 68.9073 225.738C67.5821 228.626 65.2228 235.389 70.0147 235.781C72.1026 235.951 73.6873 234.674 74.967 233.231C76.736 231.227 77.3441 230.062 78.602 227.713C78.7427 227.455 79.024 224.856 77.4095 225.224Z" fill="#D95F5F"/>
<path d="M78.3901 229.795C78.6247 229.055 78.7736 228.292 78.8338 227.519C78.992 226.854 79.0671 226.173 79.0576 225.49C79.0544 225.45 79.0428 225.411 79.0236 225.375C79.0044 225.34 78.978 225.309 78.9461 225.284C78.9142 225.26 78.8775 225.242 78.8384 225.232C78.7993 225.223 78.7586 225.222 78.7189 225.229C78.7152 225.189 78.7031 225.151 78.6834 225.117C78.6637 225.083 78.6368 225.054 78.6046 225.031C78.5725 225.008 78.5357 224.993 78.497 224.985C78.4583 224.978 78.4184 224.979 78.3802 224.989C78.4077 224.937 78.4175 224.878 78.4081 224.82C78.3987 224.762 78.3706 224.709 78.328 224.669C78.2855 224.629 78.231 224.604 78.1728 224.597C78.1145 224.591 78.0559 224.604 78.0058 224.634L78.0395 224.573C78.0749 224.512 78.0847 224.439 78.0667 224.371C78.0487 224.303 78.0043 224.245 77.9434 224.209C77.8824 224.174 77.8099 224.164 77.7417 224.182C77.6736 224.2 77.6153 224.245 77.5799 224.305C77.3091 224.754 77.0305 225.196 76.7439 225.631C76.7935 225.504 76.845 225.377 76.8965 225.256C76.925 225.196 76.9298 225.127 76.9101 225.063C76.8904 224.999 76.8475 224.945 76.7898 224.911C76.7322 224.878 76.664 224.867 76.5987 224.881C76.5334 224.895 76.4757 224.933 76.4369 224.987C76.2784 225.203 76.1318 225.421 75.9951 225.643C75.9614 225.615 75.9215 225.597 75.879 225.589C75.8364 225.581 75.7925 225.583 75.7512 225.596C75.7099 225.609 75.6724 225.632 75.642 225.663C75.6117 225.694 75.5894 225.732 75.5772 225.773L75.5593 225.837C75.5299 225.852 75.5043 225.873 75.4844 225.9C75.4646 225.926 75.4509 225.957 75.4444 225.989C75.3474 226.411 75.2463 226.831 75.1512 227.253C75.074 227.144 74.9967 227.039 74.9234 226.928C74.7352 226.643 74.2737 226.91 74.4639 227.196L74.5312 227.291C74.4822 227.317 74.4444 227.359 74.4247 227.411C74.405 227.463 74.4048 227.52 74.4242 227.572C74.654 228.283 75.1928 228.761 75.7396 229.244C76.3868 229.813 77.0711 230.338 77.7879 230.817C77.8314 230.845 77.8832 230.857 77.9345 230.85C77.9988 230.87 78.0654 230.88 78.1326 230.88C78.1844 230.879 78.2347 230.862 78.2773 230.833C78.32 230.803 78.3533 230.762 78.3731 230.714C78.393 230.666 78.3986 230.614 78.3893 230.563C78.38 230.512 78.3562 230.464 78.3207 230.427C78.1836 230.265 78.0317 230.116 77.8671 229.983C77.9043 229.974 77.9389 229.956 77.9681 229.931C78.0023 229.959 78.0429 229.978 78.0863 229.987C78.1297 229.995 78.1744 229.992 78.2165 229.978C78.2585 229.965 78.2964 229.941 78.3267 229.909C78.3571 229.877 78.3788 229.837 78.3901 229.795Z" fill="#D98C5F"/>
<path d="M205.8 216.623C205.859 215.928 205.96 215.236 206.103 214.553C206.077 214.311 206.053 214.074 206.039 213.842C205.901 211.663 207.388 208.985 210.146 209.835C212.711 210.627 213.91 213.04 213.616 215.351C213.662 217.435 212.792 219.115 210.063 219.511C208.829 219.692 207.939 219.85 207.289 218.933C206.988 218.503 206.863 217.717 206.677 217.198C206.277 217.158 205.77 217.13 205.8 216.623Z" fill="#D95F5F"/>
<path d="M209.754 217.11C209.754 217.007 209.754 216.912 209.754 216.801C209.755 216.75 209.774 216.7 209.807 216.661C209.803 216.617 209.81 216.573 209.829 216.533C209.847 216.493 209.875 216.458 209.911 216.433C209.946 216.407 209.988 216.391 210.032 216.387C210.076 216.382 210.12 216.389 210.16 216.407C210.11 216.219 210.067 216.031 210.015 215.843C209.938 215.553 210.411 215.397 210.518 215.68C210.518 215.702 210.53 215.724 210.538 215.746C210.538 215.755 210.538 215.765 210.548 215.775C210.571 215.732 210.606 215.696 210.649 215.67C210.691 215.645 210.739 215.632 210.789 215.632C210.838 215.632 210.886 215.645 210.929 215.67C210.971 215.696 211.006 215.732 211.029 215.775C211.029 215.734 211.029 215.69 211.016 215.647C211.009 215.612 211.01 215.577 211.017 215.543C211.024 215.509 211.038 215.476 211.058 215.447C211.078 215.419 211.103 215.394 211.132 215.375C211.161 215.356 211.194 215.343 211.228 215.337C211.263 215.33 211.298 215.331 211.332 215.338C211.366 215.345 211.399 215.359 211.428 215.379C211.456 215.399 211.481 215.424 211.5 215.453C211.519 215.482 211.532 215.515 211.538 215.549C211.538 215.565 211.538 215.581 211.538 215.597C211.606 215.585 211.676 215.599 211.735 215.635C211.793 215.672 211.836 215.729 211.855 215.795C211.877 215.864 211.891 215.938 211.909 216.009C211.939 216.003 211.97 216.003 212.001 216.009C212.031 216.015 212.06 216.027 212.085 216.045C212.119 216.007 212.161 215.979 212.21 215.963C212.258 215.948 212.309 215.945 212.358 215.957C212.407 215.968 212.452 215.993 212.489 216.028C212.525 216.063 212.551 216.107 212.565 216.156L213.296 219.23C213.41 219.713 213.821 220.547 213.652 221.045C213.587 221.233 213.381 221.326 213.189 221.401C213.204 221.49 213.222 221.577 213.236 221.667C213.249 221.736 213.234 221.808 213.194 221.866C213.154 221.924 213.093 221.964 213.023 221.977C212.954 221.989 212.882 221.974 212.824 221.934C212.766 221.894 212.726 221.833 212.713 221.764C212.701 221.716 212.691 221.669 212.679 221.619H212.664C212.689 221.772 212.711 221.926 212.743 222.079C212.75 222.122 212.747 222.166 212.733 222.207C212.72 222.248 212.696 222.286 212.664 222.315C212.632 222.345 212.593 222.366 212.551 222.377C212.509 222.388 212.464 222.388 212.422 222.378C212.392 222.441 212.339 222.49 212.275 222.515C212.21 222.54 212.138 222.539 212.073 222.512C212.054 222.55 212.027 222.582 211.993 222.607C211.959 222.632 211.919 222.648 211.878 222.655C211.836 222.662 211.794 222.659 211.754 222.646C211.714 222.633 211.677 222.611 211.647 222.582C211.634 222.641 211.601 222.693 211.553 222.731C211.506 222.768 211.447 222.789 211.387 222.789C211.327 222.789 211.268 222.768 211.221 222.731C211.173 222.693 211.14 222.641 211.126 222.582C211.113 222.53 211.107 222.477 211.093 222.425C211.048 222.458 210.993 222.476 210.937 222.476C210.881 222.476 210.827 222.458 210.782 222.425L210.445 222.568C210.408 222.584 210.367 222.592 210.326 222.591C210.286 222.59 210.246 222.579 210.21 222.56C210.174 222.541 210.142 222.514 210.118 222.481C210.094 222.448 210.078 222.41 210.071 222.37C209.942 220.626 209.663 218.897 209.239 217.202C209.163 216.908 209.657 216.813 209.754 217.11Z" fill="#D95F5F"/>
<path d="M213.771 211.059C213.504 210.835 213.319 210.825 213.016 210.673C212.407 210.386 211.831 210.032 211.301 209.617C210.822 209.248 210.223 209.07 209.621 209.118C208.785 209.205 207.907 209.789 207.143 210.13C206.659 210.346 206.186 210.597 206.041 211.146C205.984 211.386 205.993 211.637 206.067 211.873C206.142 212.108 206.28 212.318 206.465 212.481C206.606 212.575 206.755 212.655 206.911 212.719C207.533 213.077 208.034 213.115 208.371 213.452C208.718 214.244 208.266 215.272 209.082 215.9C209.183 215.959 209.289 216.008 209.399 216.047C209.948 216.33 209.795 216.245 210.025 216.681C210.078 216.812 210.157 216.931 210.257 217.031C210.358 217.13 210.478 217.208 210.609 217.259C210.726 217.29 210.846 217.311 210.966 217.323C211.336 217.41 211.693 217.543 212.03 217.719C212.269 217.832 212.46 218 212.745 217.927C212.84 217.902 212.929 217.859 213.006 217.8C213.355 217.602 213.575 217.132 213.69 216.794C214.01 215.764 214.134 214.684 214.056 213.608C214.593 212.802 214.609 211.762 213.771 211.059Z" fill="#442232"/>
<path d="M208.072 223.182V223.166C208.071 223.15 208.071 223.134 208.072 223.119C208.072 222.996 208.072 222.873 208.072 222.752C206.638 224.513 205.459 226.456 204.308 228.426C203.439 229.919 202.595 231.306 200.818 231.809C199.302 232.239 197.733 231.938 196.262 231.492C196.503 230.953 196.727 230.244 196.21 230.129C196.111 230.102 196.006 230.107 195.91 230.142C195.814 230.178 195.731 230.243 195.673 230.327C195.42 229.426 194.968 228.531 194.253 229.275C193.492 230.068 194.556 231.726 195.234 232.445C196.392 233.196 197.25 233.812 198.205 233.941C200.366 234.232 203.157 234.378 204.94 232.93C206.838 231.399 207.763 228.923 208.736 226.768C208.898 226.407 209.102 225.975 209.268 225.541C208.314 225.212 207.902 224.133 208.072 223.182Z" fill="#D95F5F"/>
<path d="M213.977 220.296C213.977 220.163 213.963 220.03 213.949 219.9C213.948 219.86 213.938 219.82 213.92 219.785C213.902 219.749 213.876 219.717 213.845 219.693C213.813 219.668 213.776 219.651 213.737 219.642C213.698 219.633 213.658 219.633 213.619 219.642C212.327 219.832 211.056 220.14 209.821 220.563C209.201 220.787 209.029 221.094 208.987 221.554C208.426 221.871 206.016 225.676 205.538 227.441C204.889 229.84 203.914 232.304 203.528 234.771C203.33 236.062 202.787 238.003 203.175 239.414H214.508C215.215 238.441 216.324 230.44 216.665 228.021C216.927 226.128 215.053 221.439 213.977 220.296Z" fill="#F5E4D5"/>
<path d="M211.529 225.454C211.483 225.423 209.851 226.3 209.805 226.298C209.684 226.161 209.326 226.169 209.324 226.419C209.302 229.755 208.381 232.546 207.684 233.776C206.495 235.854 202.434 236.898 200.156 235.606C200.089 235.434 200.023 235.262 199.972 235.084C199.925 234.822 199.83 234.571 199.691 234.345C199.657 234.305 199.613 234.276 199.563 234.262C199.513 234.247 199.46 234.247 199.411 234.261C199.361 234.275 199.316 234.304 199.282 234.343C199.248 234.382 199.226 234.43 199.219 234.481C199.196 234.619 199.192 234.759 199.207 234.897C199.176 234.881 199.146 234.862 199.118 234.842C198.666 234.503 198.92 234.089 198.615 233.719C198.31 233.348 197.868 233.457 197.652 233.824C197.317 234.398 197.454 235.21 197.789 235.759C198.237 236.496 199.334 236.605 199.968 237.082C199.987 237.098 200.009 237.111 200.031 237.122C204.889 238.853 207.48 237.5 209.211 236.26C212.137 234.155 215.548 228.291 211.529 225.454Z" fill="#D95F5F"/>
<path d="M215.51 229.547C215.528 229.503 215.532 229.455 215.521 229.41C215.511 229.364 215.486 229.322 215.451 229.291C215.439 229.249 215.417 229.212 215.386 229.181C215.355 229.151 215.317 229.129 215.274 229.119C215.011 229.059 214.744 229.016 214.482 228.964C214.498 228.947 214.518 228.931 214.532 228.913C214.565 228.879 214.588 228.838 214.6 228.792C214.613 228.747 214.613 228.699 214.601 228.653C214.465 228.387 214.24 228.177 213.965 228.059C213.885 227.908 213.781 227.77 213.656 227.653C213.666 227.617 213.668 227.58 213.662 227.543C213.655 227.507 213.641 227.472 213.619 227.442C213.597 227.412 213.569 227.387 213.536 227.369C213.504 227.352 213.467 227.342 213.43 227.34C213.559 227.243 213.69 227.142 213.817 227.051L213.87 227.009C214.096 226.831 213.87 226.566 213.646 226.571C213.719 226.514 213.795 226.461 213.868 226.401C213.908 226.359 213.933 226.305 213.94 226.248C213.947 226.19 213.935 226.132 213.905 226.082C213.876 226.031 213.831 225.992 213.778 225.97C213.724 225.947 213.665 225.943 213.609 225.957C213.513 225.993 213.422 226.039 213.327 226.076C213.327 226.076 213.327 226.06 213.327 226.052C213.371 226.017 213.416 225.983 213.46 225.945C213.704 225.747 213.393 225.405 213.137 225.528C213.111 225.541 213.086 225.555 213.058 225.567C213.063 225.526 213.057 225.485 213.042 225.446C213.026 225.408 213.001 225.375 212.969 225.349C212.937 225.323 212.899 225.305 212.858 225.298C212.818 225.291 212.776 225.294 212.737 225.308C212.604 225.349 212.479 225.401 212.351 225.452C212.361 225.412 212.362 225.369 212.352 225.328C212.343 225.287 212.324 225.249 212.298 225.216C212.271 225.184 212.237 225.159 212.198 225.142C212.159 225.126 212.117 225.119 212.075 225.121C212.08 225.073 212.071 225.024 212.05 224.98C212.029 224.937 211.996 224.9 211.955 224.873C211.914 224.847 211.867 224.832 211.818 224.831C211.769 224.83 211.721 224.842 211.679 224.866L211.582 224.923C211.54 224.909 211.495 224.909 211.453 224.923C210.225 225.352 209.094 226.02 208.127 226.89C208.093 226.924 208.068 226.966 208.056 227.013C208.045 227.06 208.047 227.109 208.062 227.155C208.077 227.201 208.105 227.241 208.142 227.272C208.179 227.303 208.224 227.322 208.272 227.328C208.26 227.374 208.258 227.423 208.268 227.47C208.278 227.517 208.299 227.56 208.329 227.598C208.371 227.649 208.417 227.695 208.46 227.744C208.457 227.782 208.461 227.82 208.474 227.855C208.486 227.891 208.506 227.924 208.531 227.951C208.557 227.979 208.589 228 208.623 228.015C208.658 228.029 208.696 228.036 208.733 228.035L208.811 228.107C208.794 228.151 208.789 228.199 208.795 228.245C208.801 228.292 208.818 228.337 208.844 228.376H208.68C208.642 228.378 208.605 228.389 208.571 228.406C208.537 228.423 208.507 228.447 208.483 228.477C208.459 228.506 208.441 228.54 208.431 228.577C208.42 228.613 208.417 228.651 208.422 228.689H208.117C207.83 228.689 207.743 229.149 208.048 229.212L208.397 229.281C207.987 229.281 207.577 229.281 207.172 229.305C206.895 229.323 206.776 229.781 207.101 229.828H207.172C207.266 229.842 207.359 229.85 207.452 229.864C207.272 229.901 207.099 229.964 206.939 230.052C206.899 230.076 206.866 230.109 206.843 230.15C206.82 230.19 206.808 230.235 206.808 230.282C206.808 230.328 206.82 230.374 206.843 230.414C206.866 230.454 206.899 230.488 206.939 230.512C207.781 230.908 208.688 230.878 209.597 230.848C211.107 231.165 212.643 231.336 214.185 231.357C214.504 231.357 214.522 230.937 214.256 230.834C214.104 230.775 213.949 230.728 213.793 230.676L214.282 230.654C214.327 230.653 214.37 230.64 214.408 230.616C214.446 230.592 214.477 230.559 214.498 230.52L214.835 230.565L214.906 230.575C215.203 230.613 215.271 230.111 214.977 230.054L214.383 229.933C214.347 229.908 214.304 229.892 214.26 229.888H214.443C214.732 229.943 215.021 229.991 215.31 230.05C215.599 230.109 215.774 229.66 215.51 229.547ZM213.097 228.725C213.304 228.685 213.507 228.63 213.706 228.562C214.078 228.731 213.971 228.792 213.694 228.812C213.496 228.78 213.296 228.754 213.097 228.727V228.725Z" fill="#F5E4D5"/>
<path d="M209.183 221.294C207.792 222.203 206.566 223.341 205.558 224.662C204.807 225.652 203.619 227.237 203.559 228.537C203.559 228.583 203.571 228.629 203.594 228.669C203.617 228.709 203.65 228.743 203.69 228.766C204.324 229.109 205.255 229.163 205.95 229.262C206.018 229.278 206.09 229.268 206.151 229.234C206.212 229.2 206.258 229.144 206.279 229.077C207.2 226.643 208.69 224.41 209.369 221.891C209.374 221.862 209.374 221.832 209.369 221.804C209.397 221.786 209.421 221.766 209.447 221.748C209.734 221.566 209.468 221.104 209.183 221.294Z" fill="#F5E4D5"/>
<path d="M205.822 233.733C204.684 232.409 204.122 230.393 203.425 228.814C202.684 227.136 201.963 225.456 201.362 223.723C201.351 223.684 201.33 223.648 201.302 223.618C201.275 223.587 201.24 223.564 201.202 223.549C201.164 223.533 201.123 223.527 201.083 223.53C201.042 223.532 201.002 223.544 200.966 223.564C198.569 224.715 196.256 225.753 193.708 226.522C193.65 226.537 193.599 226.573 193.566 226.623C193.532 226.673 193.518 226.734 193.526 226.793C193.496 226.823 193.476 226.861 193.469 226.903C193.462 226.945 193.469 226.988 193.488 227.025C194.098 228.513 194.71 230.02 195.63 231.35C196.654 232.831 198.068 234.06 199.393 235.266L199.411 235.278C199.429 235.322 199.461 235.36 199.503 235.383C199.545 235.407 199.594 235.416 199.641 235.408C201.741 235.22 203.813 234.996 205.766 234.149C205.801 234.128 205.831 234.1 205.853 234.067C205.876 234.033 205.89 233.994 205.896 233.954C205.901 233.914 205.897 233.873 205.884 233.835C205.871 233.796 205.85 233.761 205.822 233.733Z" fill="#B6C8D9"/>
<path d="M244.551 186.759C228.505 186.58 19.7802 186.531 3.73659 186.353C2.72037 186.343 2.74613 187.937 3.76235 187.949C19.8079 188.126 228.531 188.177 244.577 188.345C245.593 188.367 245.567 186.773 244.551 186.759Z" fill="#442232"/>
<path d="M145.783 210.938C145.574 210.827 145.353 210.739 145.124 210.677C145.032 210.836 144.92 210.983 144.791 211.114C144.366 211.528 143.799 211.762 143.206 211.768H142.788C142.596 211.766 142.405 211.738 142.22 211.685C141.702 212.325 141.37 213.095 141.261 213.911C141.233 214.129 141.204 214.704 141.186 214.928C140.946 215.534 140.702 215.815 140.542 216.441C140.423 216.906 140.889 217.021 141.257 217.128C141.336 217.641 141.312 218.392 141.513 218.842C141.944 219.805 142.794 219.819 143.969 219.872C146.566 219.993 147.671 218.6 148 216.663C148.701 214.579 148.014 212.127 145.783 210.938Z" fill="#D95F5F"/>
<path d="M146.81 217.352C146.861 218.343 147.265 223.372 147.024 223.804C146.932 223.969 143.458 224.612 143.476 224.446C143.654 222.8 143.65 219.426 143.545 217.774C143.527 217.463 146.798 217.115 146.81 217.352Z" fill="#D95F5F"/>
<path d="M144.771 246.478C144.151 244.838 142.196 243.849 140.595 243.546C140.774 243.172 140.95 242.799 141.128 242.429C141.306 242.058 140.732 241.789 140.548 242.161C138.892 245.616 137.208 249.14 136.586 252.956C135.891 257.24 135.954 261.729 135.71 266.059C135.698 266.244 135.831 266.475 136.055 266.432L137.372 266.174C137.511 266.147 137.087 266.028 137.111 265.879C137.527 263.157 138.133 260.396 138.729 257.708C139.353 254.893 141.017 252.581 142.762 250.307C143.543 249.297 145.322 247.934 144.771 246.478Z" fill="#D95F5F"/>
<path d="M133.452 266.879C132.814 267.087 132.765 267.034 132.87 267.801C132.87 267.853 132.891 267.903 132.928 267.941C132.965 267.978 133.015 267.999 133.068 267.999C134.256 267.907 135.643 267.84 136.798 267.68C137.281 267.612 137.364 267.466 137.406 266.929C137.44 266.473 137.461 265.61 137.465 265.596C137.465 265.352 137.436 265.334 137.317 265.324C137.047 265.303 136.326 265.245 135.908 265.259C135.782 265.259 135.815 265.259 135.744 265.303C135.673 265.346 135.671 265.723 135.643 265.814C135.622 265.927 135.57 266.033 135.492 266.118C135.414 266.203 135.313 266.265 135.201 266.295C134.892 266.392 133.815 266.761 133.452 266.879Z" fill="#442232"/>
<path d="M150.334 244.041C148.818 243.16 146.679 243.621 145.243 244.394C145.146 243.998 145.044 243.592 144.953 243.192C144.862 242.791 144.238 242.948 144.333 243.348C145.223 247.076 146.136 250.876 148.057 254.227C150.217 257.991 153.093 261.44 155.629 264.956C155.653 264.999 155.687 265.035 155.728 265.062C155.769 265.09 155.815 265.107 155.864 265.114C155.913 265.121 155.962 265.117 156.009 265.102C156.056 265.087 156.098 265.061 156.134 265.027L156.993 263.997C157.085 263.89 156.68 264.065 156.597 263.934C155.211 261.557 153.937 259.031 152.707 256.567C151.421 253.992 151.257 251.145 151.181 248.281C151.154 247.005 151.679 244.826 150.334 244.041Z" fill="#D95F5F"/>
<path d="M154.389 267.018C154.024 267.583 153.951 267.573 154.515 268.102C154.549 268.142 154.597 268.166 154.649 268.171C154.701 268.175 154.753 268.159 154.793 268.126C155.668 267.3 156.686 266.388 157.491 265.529C157.822 265.172 157.796 265.006 157.491 264.562C157.231 264.188 156.698 263.502 156.698 263.488C156.538 263.304 156.51 263.306 156.411 263.373C156.189 263.524 155.599 263.93 155.276 264.209C155.181 264.293 155.201 264.263 155.175 264.346C155.149 264.429 155.373 264.718 155.421 264.808C155.476 264.909 155.502 265.024 155.495 265.14C155.487 265.255 155.447 265.366 155.379 265.459C155.197 265.727 154.597 266.697 154.389 267.018Z" fill="#442232"/>
<path d="M153.331 245.945C153.227 242.32 152.373 238.756 150.823 235.478C151.051 234.448 150.918 233.204 150.932 232.162C150.952 230.694 150.932 229.22 150.855 227.754C150.783 226.546 150.647 225.27 149.997 224.262C149.895 224.042 149.774 223.832 149.636 223.634C148.477 222.006 146.815 221.766 144.418 222.219C144.359 222.229 142.4 223.531 141.863 225.161C141.094 227.491 141.194 229.274 141.009 231.716C140.924 232.853 140.686 234.291 140.954 235.401L140.984 235.51C139.329 239.584 136.626 244.622 136.055 248.998C135.827 250.719 135.764 251.276 137.547 251.341C140.284 251.442 143.044 251.355 145.777 251.224C147.098 251.161 148.419 251.076 149.739 250.969C150.494 250.909 151.898 251.01 152.592 250.547C153.759 249.752 153.36 247.092 153.331 245.945Z" fill="#78ADD9"/>
<path d="M157.36 212.643C156.734 210.464 155.316 209.078 153.02 209.656C152.41 209.816 151.814 210.023 151.237 210.276C150.494 210.595 148.733 210.359 148.59 210.351C148.274 210.314 147.954 210.348 147.652 210.451C147.351 210.554 147.077 210.723 146.849 210.946C145.025 210.185 142.109 210.296 141.784 212.332C141.773 212.4 141.785 212.47 141.818 212.531C141.809 212.565 141.808 212.602 141.815 212.637C141.822 212.672 141.837 212.705 141.858 212.734C141.879 212.763 141.906 212.787 141.938 212.805C141.969 212.822 142.004 212.833 142.039 212.836C143.426 213.034 143.002 214.238 143.44 215.042C143.709 215.538 144.08 215.514 144.526 215.74C145.813 216.393 145.294 217.023 145.783 218.077C145.878 218.304 146.026 218.504 146.214 218.661C146.403 218.818 146.627 218.927 146.867 218.978C147.152 219.05 147.198 218.905 147.517 218.465C149.042 217.178 149.484 215.114 148.903 213.263C149.471 213.619 150.12 213.824 150.789 213.858C151.992 213.879 152.851 213.521 153.87 214.521C154.147 214.793 154.193 215.151 154.547 215.369C156.316 216.449 157.812 214.204 157.36 212.643Z" fill="#9E4D4D"/>
<path d="M154.389 232.257C154.297 231.566 153.564 223.624 151.009 222.404C150.03 221.936 148.578 221.809 147.744 222.671C147.638 222.786 147.547 222.914 147.475 223.054C146.751 222.891 145.997 222.92 145.287 223.139C144.578 223.357 143.938 223.756 143.43 224.298C141.875 225.898 141.596 228.194 141.772 230.324C141.806 230.73 142.445 230.734 142.41 230.324C142.279 228.739 142.358 227.077 143.188 225.672C144.046 224.222 145.631 223.311 147.251 223.638C146.998 224.727 147.334 226.146 147.501 227.057C147.519 227.156 148.069 230.104 148.365 231.512C148.563 232.439 148.699 233.802 149.294 234.717C148.752 235.415 147.965 235.88 147.093 236.019C145.009 236.346 143.377 234.737 142.976 232.794C142.893 232.398 142.277 232.56 142.36 232.962C142.818 235.183 144.795 237.071 147.184 236.674C148.171 236.51 149.064 235.991 149.696 235.214C149.916 235.561 150.225 235.726 150.744 235.728H150.781C151.038 235.767 151.3 235.743 151.546 235.658C152.457 235.518 153.602 235.181 154.121 234.751C154.799 234.184 154.494 232.982 154.389 232.257Z" fill="#46698A"/>
<path d="M143.208 227.396C142.434 229.113 141.227 230.979 139.987 231.993C139.377 232.495 138.47 231.488 139.195 230.369C139.393 229.749 140.877 226.255 142.139 225.036C142.22 225.186 142.349 225.305 142.505 225.375C142.753 225.454 142.994 225.264 143.194 225.149C143.519 224.963 143.941 224.801 144.219 224.555C144.417 224.377 144.417 224.198 144.369 223.947C144.322 223.695 144.32 223.365 144.078 223.228C143.836 223.091 143.495 223.228 143.27 223.291C142.666 223.481 142.13 223.844 141.73 224.335C139.3 225.248 137.632 228.23 136.895 230.536C136.269 232.495 136.711 235.46 139.262 235.636C141.948 235.823 144.131 232.425 145.274 230.433C145.575 229.91 145.986 229.234 146.332 228.527L143.208 227.396Z" fill="#D95F5F"/>
</svg>
