<svg width="350" height="323" viewBox="0 0 350 323" fill="none" xmlns="http://www.w3.org/2000/svg">
<mask id="mask0" mask-type="alpha" maskUnits="userSpaceOnUse" x="0" y="0" width="350" height="323">
<rect width="350" height="323" rx="80" fill="#C4C4C4"/>
</mask>
<g mask="url(#mask0)">
<path d="M94.8998 156.97C94.0798 154.25 90.9198 154.77 88.9398 154.01C88.8698 153.98 88.7998 154.02 88.7498 154.09C87.3198 154.09 85.8998 154.08 84.4698 154.06C84.4398 154.02 84.3898 153.99 84.3298 154.01C82.1598 154.77 79.1298 154.25 77.6598 156.99C76.8398 158.53 76.7898 160.79 76.5398 162.57L75.6898 168.65C74.5098 177.02 73.3398 185.4 72.1598 193.77C72.1298 193.98 72.3298 194.09 72.4198 193.99C75.9398 194.23 79.4598 194.42 82.9898 194.54C84.6798 194.6 86.3598 194.68 88.0498 194.62C89.1198 194.58 90.8698 194.8 91.7098 193.72C91.7798 193.63 91.7598 193.51 91.7098 193.44C92.5098 185.14 93.3098 176.85 94.1098 168.55L94.6898 162.51C94.8598 160.74 95.3498 158.49 94.8998 156.97Z" fill="#565A94"/>
<path d="M91.5398 144.02C90.5498 143.4 89.0698 143.56 88.0098 143.57C86.9298 143.58 85.4498 143.46 84.4398 144.08C83.5298 144.64 83.4798 146.25 83.3098 147.37C83.0198 149.26 82.8298 151.18 82.7098 153.1C82.6298 154.35 82.5898 154.41 83.0698 154.45C83.6198 154.5 84.2398 154.54 84.7798 154.56C85.5398 154.59 86.3098 154.6 87.0698 154.58C87.7298 154.57 88.3898 154.54 89.0498 154.5C89.6098 154.47 90.3198 154.55 90.8498 154.34C91.6898 154 91.6398 152.34 91.7598 151.43C91.9798 149.76 92.1598 148.06 92.2598 146.37C92.3098 145.45 92.2598 144.47 91.5398 144.02Z" fill="#421818"/>
<path d="M306.21 232.5C306.22 232.61 306.23 232.71 306.24 232.82C306.52 235.34 306.64 238.09 307.31 240.55C307.58 241.54 307.95 242.15 308.86 242.6C309.07 242.7 309.33 242.59 309.46 242.41C309.63 243.21 309.78 244.9 310.69 245.29C311.37 245.58 311.91 245.21 312.34 244.55C312.37 246.16 312.72 247.48 313.81 247.63C316.57 247.99 317.21 243.65 317.42 241.15C317.66 241.81 318 242.38 318.51 242.78C318.7 242.93 319.08 242.9 319.21 242.67C321.38 238.77 321.39 219.57 319.36 214.69C318.81 213.37 318.11 212.08 317.78 210.68C317.39 209.02 317.5 207.27 317.51 205.58C317.53 202.9 317.44 200.22 317.25 197.55C316.47 186.46 314.07 175.57 311.68 164.74C311.54 164.11 310.56 164.33 310.7 164.96C310.79 165.38 310.89 165.81 310.98 166.23C308.87 165.56 304.75 164.82 303.2 166.82C302.82 167.31 302.84 167.84 302.84 168.43C302.82 170.5 303.62 172.87 303.99 174.92C305.55 183.59 307.12 192.26 308.68 200.93C309.05 202.96 309.67 205.11 309.69 207.19C309.7 208.35 309.47 209.12 308.8 209.8C306.69 210.92 303.75 211.89 302.74 214.26C301.71 216.68 302 219.65 302.07 222.2C302.15 225.6 301.36 233.5 306.21 232.5Z" fill="#EB8773"/>
<path d="M309.34 232.61C309.74 230.15 309.69 227.71 309.17 225.27C309.04 224.64 310.02 224.49 310.16 225.11C310.7 227.64 310.76 230.17 310.34 232.72C310.23 233.36 309.24 233.25 309.34 232.61Z" fill="#CC6C59"/>
<path d="M329.99 195.27C329.72 194.24 329.45 193.21 329.18 192.19C329.18 192.17 329.19 192.14 329.19 192.12C327.65 184.31 328.82 176.33 327.67 168.49C327.14 164.85 326.05 161.33 325.09 157.78C323.92 153.48 323.09 149.12 322.49 144.71C320.51 130.15 320.56 115.02 314.52 101.35C311.67 94.91 307.55 89.13 301.87 84.91C301.35 84.53 300.71 85.29 301.23 85.68C302.46 86.59 303.59 87.57 304.66 88.59C304.63 88.61 304.61 88.62 304.58 88.65C302.61 90.79 302.06 93.49 301.99 96.33C301.89 100.28 302.29 104.27 302.48 108.22C302.91 116.97 303.33 125.73 303.76 134.48C304.39 147.48 305.03 160.49 305.66 173.49C305.59 174.14 305.53 174.79 305.47 175.44C305.07 179.87 305.48 184.18 306.01 188.58C306.31 191.06 306.62 193.55 306.63 196.05C306.65 198.25 306.13 200.36 306.09 202.54C306.04 205.88 308.19 206.34 311.1 206.58C315.9 206.98 320.69 207.37 325.49 207.77C327.73 207.96 330.79 209 331.46 206.11C332.23 202.73 330.84 198.53 329.99 195.27Z" fill="#75748F"/>
<path d="M299.69 32.34C298.88 25.23 296.49 18.93 291.02 14.07C285.85 9.48005 278.93 7.19005 272.06 7.30005C268.14 7.36005 264.22 8.26005 260.45 9.27005C257.17 10.14 254.11 11.39 251.61 13.74C251.17 14.15 251.9 14.75 252.33 14.34C252.72 13.97 253.13 13.64 253.56 13.32C254.17 13.93 253.93 15.83 254.26 16.61C254.66 17.57 255.41 18.47 256.03 19.3C257.56 21.35 259.3 23.24 261.14 25.02C265.16 28.9 269.67 32.21 274.02 35.7C278.64 39.4 282.8 43.33 286.49 47.98C289.51 51.8 292.97 55.56 298.17 55.7C298.32 55.7 298.5 55.57 298.55 55.43C301.29 48 300.57 40.06 299.69 32.34Z" fill="white"/>
<path d="M259.78 86.8C264.4 88.34 269.24 89.19 274.09 89.26C275.56 81.2 277.24 73.19 279.18 65.27C279.77 62.85 278.49 60.48 277.65 57.97C277.05 56.17 275.7 54.97 274.41 53.96C270.07 50.54 266.42 46.97 263.64 41.57C264.49 40.33 265.42 39.16 266.47 38.08C266.88 37.66 266.3 36.96 265.89 37.38C261.15 42.24 258.48 49.07 256.57 56.09C254.25 64.64 252.52 73.45 250.59 82.13C253.41 84.17 256.39 85.67 259.78 86.8Z" fill="#EB8773"/>
<path d="M291.2 20.7301C289.76 21.2201 288.63 20.3701 288.21 19.2601C280.31 18.4001 272.38 17.6601 264.42 17.7401C257.56 17.8101 251.84 17.8101 248.49 22.8401C245.7 37.5101 254.47 62.8501 254.58 62.8801C257.56 67.5701 258.68 69.7201 264.21 71.7101C268.34 73.1901 277.54 76.4501 283.42 75.5201C289.82 74.5101 291.63 71.5801 293.94 64.4401C297 54.9501 296.37 42.1201 296.15 35.2701C295.93 28.3501 295.85 23.8201 293.98 20.0101C293.05 20.2101 292.12 20.4101 291.2 20.7301Z" fill="#EB8773"/>
<path d="M290.85 45.8C290.69 47.52 291.18 48.96 291.93 49.03C292.69 49.1 293.43 47.76 293.58 46.05C293.74 44.33 293.25 42.89 292.5 42.82C291.75 42.75 291.01 44.09 290.85 45.8Z" fill="#221F44"/>
<path d="M274.8 47.33C274.72 49.05 275.27 50.48 276.03 50.51C276.79 50.54 277.47 49.18 277.55 47.46C277.63 45.74 277.08 44.31 276.32 44.28C275.56 44.25 274.88 45.61 274.8 47.33Z" fill="#221F44"/>
<path d="M278.8 62.6001C279.83 64.9401 282.93 66.0001 284.99 65.7701C288.18 65.4201 290.33 62.0701 290.41 61.8901C290.72 61.1401 290.81 60.9101 290.67 60.5801C290.55 60.3001 290.45 60.4901 290.1 60.5801C286.23 61.6701 283.41 61.8801 279.26 61.6701C278.91 61.6601 278.64 62.2301 278.8 62.6001Z" fill="#CC6C59"/>
<path d="M268.88 42.3901C269.48 43.1601 275.25 42.4201 277.97 41.9001C278.73 41.7501 279.75 41.9301 280.35 41.2701C281.74 39.7801 279.19 38.5001 277.98 38.3101C274.99 37.8401 271.48 38.4601 269.34 40.3701C268.97 40.7201 268.49 41.9001 268.88 42.3901Z" fill="white"/>
<path d="M289.1 37.21C291.33 36.67 293.92 36.65 296.21 37.23C296.27 38.05 296.32 38.9 296.37 39.78C296.38 39.99 296.39 40.21 296.4 40.43C291.18 41.06 287.84 40.95 287.05 40.37C285.24 39.04 287.8 37.52 289.1 37.21Z" fill="white"/>
<path d="M285.56 44.81C286.84 47.9 292.59 56.25 285.74 56.61C285.1 56.64 285.16 55.65 285.79 55.61C290.94 55.34 285.57 47.46 284.67 45.26C284.43 44.68 285.32 44.22 285.56 44.81Z" fill="#CC6C59"/>
<path d="M281.61 55.9201C282.22 55.9701 282.8 55.9201 283.4 55.7501C284.02 55.5801 284.23 56.5601 283.61 56.7301C282.94 56.9201 282.25 56.9801 281.56 56.9201C280.92 56.8601 280.97 55.8601 281.61 55.9201Z" fill="#CC6C59"/>
<path d="M302.78 89.17C297.77 81.24 286.97 79.61 277.43 78.74C277.42 78.74 277.41 78.74 277.39 78.74C276.86 78.69 247.11 78.4901 232.61 84.1501C227.19 86.2601 218.72 91.56 216.47 97.03C215.28 99.91 214.8 100.67 214.69 103.62C214.62 105.56 224.35 129.51 230.01 151.18C231.8 149.55 230.57 148.17 232.67 150.52C235.64 153.86 237.13 157.24 238 161.58C238.16 162.4 238.39 163.23 238.52 164.06C241.13 163.98 243.71 163.79 246.31 163.5C253.07 162.75 259.78 161.57 266.54 160.76C272.88 160 279.37 160 285.66 158.91C291.89 157.82 292.58 166.98 287.25 169.1C289.45 168.97 291.64 168.87 293.84 168.81C298.43 146.16 306.26 108.19 306.12 103.28C305.99 98.38 305.41 93.32 302.78 89.17Z" fill="#EB8773"/>
<path d="M263.03 222.11C261.96 216.33 260.96 210.53 259.75 204.78C258.77 200.14 257.59 194.37 254.25 190.78C251.34 187.66 246.14 188.04 242.25 187.9C236.4 187.68 230.56 187.96 224.75 188.66C224.65 188.67 224.57 188.71 224.51 188.77C224.42 188.76 224.34 188.76 224.25 188.75C224.01 188.73 223.85 188.86 223.77 189.02C223.54 188.94 223.27 189.01 223.17 189.3C213.9 215.85 209.87 244.72 215.18 272.55C218 287.34 223.58 301.37 229.12 315.31C234.8 329.6 242.24 344.75 240.07 360.52C238.88 369.17 236.47 377.72 234.54 386.23C232.91 393.43 231.27 400.63 229.64 407.83C229.59 407.88 229.55 407.94 229.52 408.02C227.56 413.61 225.59 419.21 223.63 424.8C223.54 425.06 223.66 425.34 223.92 425.45C228.15 427.31 232.52 428.8 237.02 429.87C239.31 430.42 241.64 430.87 243.97 431.18C245.41 431.37 246.89 431.53 248.02 430.45C249.16 429.37 249.37 427.41 249.75 425.98C250.44 423.4 251.16 420.83 251.91 418.26C253.36 413.28 254.91 408.33 256.57 403.42C259.86 393.64 263.6 384.03 267.6 374.52C271.33 365.66 275.03 356.75 277.05 347.32C281.39 327.06 277.23 306.66 274.06 286.54C270.65 265.01 266.98 243.53 263.03 222.11Z" fill="#565494"/>
<path d="M302.06 204.95C301.54 200.44 301.45 195.21 299.24 191.12C294.6 182.57 281.63 184.4 273.65 184.62C260.34 184.99 247.05 186.06 233.85 187.77C233.21 187.85 233.3 188.85 233.94 188.77C236.52 188.44 239.1 188.13 241.69 187.85C242.57 191.98 241.01 195.9 239.7 199.77C238.61 202.99 237.85 206.21 237.67 209.61C237.26 217.2 238.67 224.9 239.81 232.37C242.33 248.79 245.79 265.05 249.38 281.27C256.63 314.05 263.56 346.72 266.58 380.21C268.28 398.99 268.62 414.34 268.38 433.19C268.38 433.38 268.59 433.63 268.79 433.64C276.02 433.99 285.21 439.04 287.97 431.04C289.77 425.81 290.12 417.91 290.99 412.46C291.89 406.81 292.69 401.15 293.44 395.48C296.5 372.35 299.31 349.16 301.47 325.92C303.58 303.17 304.98 280.34 304.96 257.48C304.95 245.79 304.56 234.09 303.71 222.43C303.28 216.59 302.73 210.76 302.06 204.95Z" fill="#565494"/>
<path d="M297.28 95.62C296.24 91.6 293.65 87.96 289.41 87.12C289.39 86.89 289.37 86.66 289.33 86.43C289.26 85.96 288.59 85.79 288.38 86.26C288.19 86.68 288 87.11 287.81 87.53C287.6 87.98 288.1 88.34 288.46 88.2C288.36 96.16 278.33 98.46 271.79 98.82C264.25 99.24 254.94 99.75 250.07 92.8C250.47 92.86 250.91 92.43 250.57 92.05C247.02 87.99 243.84 101.81 243.39 103.51C241.27 111.51 240.13 119.73 239.47 127.96C238.16 144.41 238.76 160.95 237.57 177.41C236.97 185.72 235.91 194.01 233.91 202.11C231.75 210.85 228.21 219.24 227.2 228.24C226.26 236.55 227.08 245.03 229.61 253C230.54 255.92 230.96 257.84 234.29 257.61C238.86 257.29 243.44 256.87 247.99 256.29C253.23 255.61 258.48 254.23 263.79 254.28C268.8 254.32 273.56 255.75 278.58 254.89C287.16 253.42 295.88 247.45 304.74 250.53C305.12 250.66 305.44 250.43 305.45 250.03C305.71 238.62 305.02 227.22 303.28 215.94C302.41 210.31 301.26 204.69 301.09 198.98C300.92 193.11 301.82 187.28 302.45 181.46C303.65 170.35 302.86 159.29 301.95 148.19C301.02 136.76 300.09 125.33 299.16 113.9C298.66 107.92 298.79 101.45 297.28 95.62Z" fill="white"/>
<path d="M260.04 139.86C261.13 119.05 259.87 99.4201 251.49 80.1801C250.93 79.3201 249.95 79.1401 250.07 79.4201C241.93 80.8901 221.56 83.2701 212.63 101.71C204.14 119.23 198 139.37 198.2 158.35C198.31 168.89 198.76 179.44 198.15 189.98C197.5 201.07 195.38 211.77 191.4 222.16C187.67 231.89 183.07 241.27 179.3 250.99C175.66 260.36 172.57 269.98 170.79 279.89C168.66 291.8 169.62 303.69 168.94 315.69C168.24 327.98 164.45 339.71 160.64 351.32C160.55 351.59 160.79 351.84 161.02 351.92C170.88 355.02 180.77 357.98 190.72 360.8C193.14 361.49 197.03 362.91 200.68 363.36C207.39 366.12 214.45 367.96 221.71 368.82C222.06 368.86 222.3 368.65 222.32 368.31C222.78 358.96 223.29 348.96 228.29 340.74C232.91 333.13 240.38 328.09 243.46 319.44C246.65 310.48 246.82 300.49 246.45 291.1C246.04 280.81 244.75 270.58 244.61 260.28C244.02 219.52 257.92 180.37 260.04 139.86Z" fill="#75748F"/>
<path d="M295.9 81.5201C288.56 79.1001 283.94 78.2301 276.25 77.7001C275.61 77.6601 276.35 78.7201 276.35 78.7301C280.97 90.0201 284.48 100.94 288.85 112.33C291.03 118.01 292.93 123.83 293.87 129.86C294.77 135.6 294.86 141.44 294.75 147.24C294.51 159.15 293.68 170.89 295.86 182.69C296.9 188.34 298.29 193.93 299.19 199.61C299.98 204.61 300.42 209.66 300.75 214.71C301.13 217.18 301.46 219.66 301.67 222.16C302.57 232.59 303.11 243.03 304.17 253.42C309.65 242.75 312.76 231.03 313.27 219.01C313.88 204.36 311.48 189.75 311.76 175.09C312.05 160.31 314.63 145.75 315.82 131.04C316.39 124.07 314.19 87.5401 295.9 81.5201Z" fill="#75748F"/>
<path d="M296.39 22.42C296.1 21.33 295.14 20.51 294.39 19.74C293.21 18.53 288.33 18.07 287.02 17.01C284.77 15.19 282.15 14.38 279.28 14.23C277.91 14.16 276.41 14.22 274.88 14.42C273.62 13.76 272.3 13.23 270.95 12.79C266.48 11.33 261.26 10.34 256.63 11.59C256.56 11.42 256.41 11.3 256.18 11.33C249.79 12.2 244.58 16.33 241.19 21.68C237.59 27.35 235.09 34.75 234.79 41.47C234.46 48.71 237.36 50.96 241.41 56.67C243.97 60.27 252.93 70.78 256.26 69.17C258.91 67.88 259.46 64.58 259.38 61.87C259.23 57.03 258.83 52.55 259.79 47.74C260.37 46.76 261.07 45.83 261.96 44.9C263.9 42.87 265.89 40.99 267.4 38.6C267.82 37.93 268.19 37.24 268.53 36.54C269.38 35.55 270.01 34.33 270.7 33.13C272.54 29.93 275.32 27.63 278.86 26.51C282.37 25.4 289.83 24.73 293.47 24.73C295.1 24.72 296.99 24.62 296.39 22.42Z" fill="white"/>
<path d="M256.38 57.85C257.27 58.96 261.1 62.72 262.7 60.96C263.78 59.78 263.42 56.07 263.39 54.61C263.34 52.01 263.2 49.41 263.1 46.82C263.6 46.95 263.95 46.18 263.43 45.89C260.3 44.12 257.06 43.39 255.13 47.08C253.32 50.52 253.99 54.87 256.38 57.85Z" fill="#EB8773"/>
<path d="M259.12 47.97C258.66 47.52 259.45 46.9 259.9 47.35C261.2 48.64 262.79 50.28 262.7 52.28C262.68 52.67 262.65 53.04 262.4 53.37C262.28 53.53 262.02 53.61 261.92 53.76C261.81 53.82 261.7 53.87 261.59 53.93C260.37 55.89 260.55 57.14 262.12 57.69C262.68 57.99 262.31 58.92 261.74 58.62C260.28 57.83 258.61 56.59 259.43 54.71C259.84 53.78 260.6 53.69 261.19 53.02C262.67 51.32 260.22 49.07 259.12 47.97Z" fill="#CC6C59"/>
<path d="M262.58 25.7401C260.18 28.4401 258.38 31.5201 257.22 34.9401C257.01 35.5401 257.92 35.9701 258.13 35.3601C259.27 32.0201 261.01 29.0201 263.35 26.3801C263.77 25.9001 263 25.2601 262.58 25.7401Z" fill="#565494"/>
<path d="M253.56 33.5901C252.69 35.3301 252.34 37.2001 252.49 39.1401C252.54 39.7801 253.54 39.6901 253.49 39.0501C253.35 37.2801 253.68 35.6101 254.47 34.0201C254.75 33.4401 253.85 33.0201 253.56 33.5901Z" fill="#565494"/>
<path d="M292.43 21.6001C290.88 18.4401 288.07 14.2701 284.43 13.3601C283.8 13.2001 283.63 14.1901 284.25 14.3401C287.49 15.1501 290.1 19.1301 291.49 21.9501C291.78 22.5301 292.71 22.1801 292.43 21.6001Z" fill="#565494"/>
<path d="M271.49 284.49C271.33 283.87 270.39 284.22 270.55 284.84C276.96 309.71 283.64 337.3 271.59 361.62C271.3 362.2 272.21 362.62 272.5 362.04C284.68 337.47 277.97 309.63 271.49 284.49Z" fill="#221F44"/>
<path d="M307.22 114.67C307.05 114.05 306.12 114.41 306.28 115.02C309.12 125.44 309.99 136.22 308.89 146.96C308.82 147.6 309.81 147.78 309.87 147.14C311 136.21 310.11 125.26 307.22 114.67Z" fill="#221F44"/>
<path d="M235.95 82.93C235.74 82.9 235.56 82.84 235.39 82.77C219.13 88.26 210.4 100.88 203.12 114.81C193.27 133.67 190.53 155.1 188.75 176.02C187.81 187.02 186.46 198.19 186.76 209.27C186.66 210.58 186.58 211.89 186.52 213.2C186.35 217.1 186.27 221.51 187.55 225.25C189.94 232.27 198.23 221.89 200.63 219.64C204.02 216.47 207.68 214.47 211.85 212.51C215.01 211.03 218.26 209.34 220.39 206.48C223.86 201.82 223.33 196.04 222.79 190.44C225.75 186.29 221.8 184.1 224.76 176.68C228.23 168.01 227.19 157.97 228.11 148.84C229.2 138.04 231.35 127.37 234.04 116.86C237.03 105.16 240.7 93.66 244.4 82.17C241.67 82.84 238.93 83.34 235.95 82.93Z" fill="#75748F"/>
<path d="M234.78 117.67C234.17 110.3 230.97 103.39 225.81 98.1101C225.36 97.6501 224.64 98.3401 225.09 98.8101C230.52 104.35 233.76 111.83 233.88 119.61C234 127.61 230.41 134.83 228.18 142.33C227.05 146.12 226.44 149.96 226.27 153.91C226.1 157.88 226.63 162.06 225.68 165.96C225.13 168.2 223.99 170 222.5 171.51C222.24 171.52 222 171.75 221.99 172.01C220.86 173.06 219.57 173.97 218.19 174.79C214.57 176.95 210.76 178.85 207.05 180.85C206.48 181.16 206.97 182.03 207.54 181.72C211.47 179.6 215.54 177.63 219.34 175.26C220.48 174.55 221.59 173.75 222.58 172.86C224.21 174.72 225.26 176.91 225.71 179.37C225.83 180 226.79 179.75 226.68 179.12C226.2 176.51 225.04 174.15 223.3 172.17C224.34 171.12 225.22 169.94 225.84 168.55C227.49 164.89 227.16 160.74 227.19 156.83C227.22 151.67 227.84 146.69 229.38 141.76C231.87 133.83 235.48 126.19 234.78 117.67Z" fill="#221F44"/>
<path d="M192.06 92.2701C193.56 91.3801 194.88 90.3001 196.04 89.0801C209.73 109.85 208.07 141.26 210.71 159.91C212.37 171.65 222.47 196.73 228.41 219.75C228.95 221.84 226.67 237.99 224.97 235.73C224.46 235.05 197.83 183.48 195.3 171.73C192.32 157.88 191.25 133.62 188.45 119.73C186.73 111.19 185.73 101.83 188.72 93.6901C189.84 93.2101 190.95 92.7401 192.06 92.2701Z" fill="#EB8773"/>
<path d="M104.96 77.9C106.87 76.44 109.29 75.84 111.12 74.26C114.13 71.67 113.39 68.72 113.71 65.24C114.06 61.42 116.81 58.43 120 56.54C122.03 55.34 124.34 54.77 126.4 53.63C129.17 52.11 130.76 49.61 131.79 46.69C133.18 42.75 133.08 36.69 136.72 33.99C141.31 30.58 144.57 36.57 147.2 39.32C147.32 39.45 147.35 39.6 147.33 39.73C147.58 39.89 147.71 40.23 147.42 40.47C142.84 44.39 144.06 51.28 145.01 56.49C145.79 60.78 146.7 65.26 145.63 69.58C145.12 71.62 144.01 73.28 143.09 75.14C141.73 77.88 142.02 80.62 142.04 83.56C142.06 88.21 140.76 92.65 138.36 96.62C138.29 96.89 138.05 97.08 137.76 97C135.97 96.52 136.32 98.91 135.91 99.61C135.62 100.11 135.17 100.27 134.67 100.51C133.24 101.19 131.66 101.56 130.23 102.28C128.96 102.92 127.72 103.62 126.4 104.14C123.24 105.41 119.31 105.68 116.91 102.86C115.33 101.01 114.9 97.17 112 96.96C110.05 96.82 108.55 96.92 106.7 96.06C103.35 94.5 100.9 91.23 100.64 87.51C100.36 83.86 102.04 80.13 104.96 77.9Z" fill="#5C3632"/>
<path d="M150.36 84.8401C154.7 85.6701 159.15 85.7801 163.48 85.1201C163.62 76.9301 163.96 68.7701 164.54 60.6501C164.72 58.1701 163.23 56.0101 162.12 53.6601C161.32 51.9701 159.94 50.9901 158.65 50.1801C154.29 47.4501 150.51 44.4701 147.24 39.5501C147.82 38.2001 148.48 36.9001 149.26 35.6801C149.56 35.2101 148.94 34.6001 148.64 35.0701C145.12 40.5801 143.73 47.7301 143.04 54.9601C142.21 63.7601 141.94 72.7201 141.48 81.6001C144.3 83.2001 147.18 84.2301 150.36 84.8401Z" fill="#EB8773"/>
<path d="M137.69 14.95C138.8 14.93 139.91 14.84 141.01 14.68C144.45 14.16 147.8 13.31 151.2 12.57C151.59 12.48 155.53 12.02 154.2 12.03C155.39 11.97 156.57 11.92 157.76 11.89C161.13 11.8 164.5 11.81 167.86 11.95C169.69 12.03 171.51 12.13 173.34 12.28C173.48 12.29 179.22 12.9 175.69 12.43C176.1 12.48 176.5 12.52 176.9 12.56C182.86 17.71 182.91 22.7 183.32 32.9C183.59 39.75 184.34 52.58 181.36 62.09C179.12 69.26 177.33 72.2 170.94 73.27C165.07 74.25 155.84 71.0701 151.7 69.6201C146.15 67.6801 145.01 65.54 141.99 60.87C141.86 60.83 130.24 28.16 137.36 15.51C137.46 15.32 137.58 15.13 137.69 14.95Z" fill="#EB8773"/>
<path d="M177.77 42.4501C177.95 44.1601 178.72 45.4901 179.47 45.4101C180.22 45.3301 180.69 43.8701 180.5 42.1601C180.32 40.4501 179.55 39.1201 178.8 39.2001C178.05 39.2801 177.59 40.7401 177.77 42.4501Z" fill="#221F44"/>
<path d="M160.82 43.0701C161 44.7801 161.77 46.1101 162.52 46.0301C163.27 45.9501 163.74 44.4901 163.55 42.7801C163.37 41.0701 162.6 39.7401 161.85 39.8201C161.09 39.9001 160.63 41.3601 160.82 43.0701Z" fill="#221F44"/>
<path d="M165.58 57.06C169.12 58.06 173.62 58.29 176.49 56.77C176.8 56.6 176.93 56.47 177.07 56.82C177.24 57.23 177.17 57.5 176.92 58.36C176.86 58.57 174.96 62.37 171.75 62.5C169.67 62.58 166.43 61.02 165.19 58.13C165 57.67 165.22 56.96 165.58 57.06Z" fill="#C26359"/>
<path d="M165.82 57.1801C167.28 58.9501 169.97 59.8701 171.79 59.8001C174.56 59.6801 176.37 57.3801 176.86 56.6501C176.76 56.6101 176.64 56.6801 176.42 56.7701C173.63 57.9901 169.3 57.8901 165.82 57.1801Z" fill="white"/>
<path d="M154.05 35.1401C156.73 33.3401 160.89 32.8901 164.34 33.5101C165.74 33.7601 168.59 35.1701 166.82 36.5901C166.05 37.2101 164.71 36.9001 163.81 36.8201C161.05 36.6001 158.52 36.7101 155.84 37.3101C154.99 37.5001 153.93 37.9301 153.3 37.1301C152.9 36.6201 153.57 35.4601 154.05 35.1401Z" fill="#5C3632"/>
<path d="M175.83 33.4C178.16 32.86 180.88 32.83 183.3 33.41C183.38 34.23 183.44 35.08 183.51 35.96C183.52 36.17 183.54 36.39 183.55 36.61C181.26 36.32 179.07 36.35 176.75 36.65C175.86 36.76 174.58 37.14 173.74 36.56C171.81 35.24 174.48 33.72 175.83 33.4Z" fill="#5C3632"/>
<path d="M173.13 41.1401C174.43 44.2201 180.26 52.5201 173.41 52.9401C172.77 52.9801 172.82 51.9801 173.46 51.9401C178.61 51.6201 173.17 43.7901 172.25 41.6001C172 41.0101 172.88 40.5501 173.13 41.1401Z" fill="#CC6C59"/>
<path d="M168.86 52.2901C169.47 52.3401 170.05 52.2801 170.64 52.1101C171.26 51.9301 171.48 52.9101 170.86 53.0901C170.19 53.2801 169.5 53.3501 168.81 53.3001C168.17 53.2401 168.22 52.2401 168.86 52.2901Z" fill="#CC6C59"/>
<path d="M188.17 186.36C185.54 185.89 182.81 185.88 180.19 186.37C178.58 186.67 176.97 186.96 175.35 187.21C175.01 187.25 174.41 187.33 173.97 187.37C171.18 187.63 168.39 187.85 165.59 187.94C160.49 188.11 155.43 187.89 150.36 187.44C148.34 187.26 146.33 187.07 144.32 186.88C143.84 186.83 143.54 186.81 143.37 186.81C142.71 186.68 142.05 186.52 141.43 186.4C139.48 186.01 137.6 185.27 135.67 184.85C135.37 184.67 135.07 184.48 134.76 184.29C134.47 183.65 134.13 182.93 134.06 182.71C133.73 181.77 133.44 180.82 133.11 179.88C131.11 174.22 128.53 168.78 126.13 163.29C127.27 165.91 125.37 160.82 125.11 159.81C124.56 157.66 124.15 155.48 123.65 153.31C122.48 148.24 120.76 142.93 117.77 138.63C116.26 136.46 114.47 134.66 112.5 133.26C110.3 123.78 108.8 116.04 108.71 112.57C108.62 108.88 108.72 105.16 109.05 101.45C109.31 98.51 109.45 95.31 110.79 92.49C113.33 87.14 120.92 84.08 126.44 82.25C141.22 77.36 172.45 79.83 172.98 79.9C172.99 79.9 173 79.9 173.02 79.9C182.5 81.27 193.19 83.47 197.78 91.65C200.18 95.93 200.5 101.01 200.37 105.92C200.2 112.52 190.04 177.72 188.17 186.36Z" fill="#EB8773"/>
<path d="M99.9001 390.22C102.37 385.33 105.01 380.49 106.84 375.31C110.05 366.24 108.98 355.83 114.58 347.64C119.32 340.71 126.86 336.31 131.62 329.41C134.44 325.32 135.25 320.62 136.8 316C138.3 311.54 140.98 308.25 144.28 304.98C144.33 304.93 144.38 304.88 144.43 304.83C140.54 292.14 135.62 279.76 132.21 266.9C129.93 262.65 127.7 258.38 125.66 254.03C122.47 247.21 120.87 239.99 120.57 232.48C119.9 215.71 124.8 199.3 124.37 182.54C124.36 182.22 124.67 181.95 124.99 182.04C144.53 187.44 187.73 183.86 188.48 184.41C189.59 185.23 192.87 212.6 193.31 213.91C195.05 219.04 215.33 271.35 216.85 277.37C218.93 285.58 219.65 293.56 217.03 301.73C215.34 306.97 213.23 312.16 210.98 317.25C213.21 330.38 224.31 369.25 226.65 385.75C228.99 402.32 229.38 417.27 231.98 433.75C232.03 434.04 231.74 434.23 231.5 434.27C220.5 435.81 217.12 432.04 206.32 435.09C201.7 436.39 202.25 433.91 197.29 433.52C192.25 433.12 187.49 430.91 182.38 431.73C182.13 431.77 181.85 431.49 181.86 431.25C182.96 410.92 180.02 390.46 173.07 371.31C171.24 366.27 169.11 361.35 166.99 356.43C165.6 358.32 158.47 370.23 157.14 372.16C146.71 387.39 138.24 403.86 130.13 420.41C129.98 420.72 129.59 420.73 129.35 420.54C120.25 413.36 111.15 406.18 102.06 399C100.73 397.95 98.8701 396.89 98.4901 395.1C98.1101 393.36 99.1601 391.69 99.9001 390.22Z" fill="#565494"/>
<path d="M181.58 249.72C191.37 270.48 200.28 291.65 208.28 313.16C208.5 313.76 207.54 314.02 207.32 313.43C199.35 291.99 190.48 270.91 180.73 250.22C180.44 249.64 181.3 249.14 181.58 249.72Z" fill="#221F44"/>
<path d="M150.96 312.51C157.61 324.22 162.66 336.74 166 349.79C166.16 350.41 165.2 350.68 165.04 350.06C161.72 337.09 156.71 324.66 150.1 313.02C149.78 312.46 150.65 311.95 150.96 312.51Z" fill="#221F44"/>
<path d="M190.64 195.62C190.69 195.95 190.74 196.28 190.79 196.61C168.47 198.18 146.03 197.06 123.99 193.29C124.02 192.96 124.05 192.62 124.07 192.29C146.03 196.05 168.39 197.17 190.64 195.62Z" fill="#221F44"/>
<path d="M172.19 218.11C169.16 218.94 166.1 219.67 162.98 219.99C160.21 220.27 157.39 220.2 154.67 219.55C151.37 218.76 146.37 220.02 143.14 219.02C140.03 218.06 121.99 215.08 118.82 214.84C116.4 214.65 114.81 213.72 113.45 211.53C110.52 206.8 118.97 171.02 118.84 165.36C118.78 162.68 119.15 160.09 119.58 157.47C120.3 153.1 119.9 149.85 118.43 145.79C117.49 143.2 116.73 140.69 117.03 137.87C117.36 134.75 118.46 131.65 119.58 128.78C119.58 128.78 105.06 125.22 101.99 124.33C98.9199 123.44 100.58 120.38 100.58 120.38C100.58 120.38 106.27 103.83 108.67 93.56C110.65 85.07 124.12 80.83 128.25 79.73C128.67 79.68 129.09 79.66 129.45 79.61C131.51 79.34 133.58 79.23 135.65 79.23C136.18 79.23 136.33 79.33 136.25 80C139.44 87.26 139.26 83.72 142.97 90.69C146.23 96.82 150.24 104.29 157.09 106.19C160.02 107 163.41 106.77 165.98 104.92C169.31 102.52 169.9 98.11 170.03 94.12C170.3 85.54 169.84 83.47 168.56 80.14C168.47 79.92 168.53 79.71 168.65 79.56C168.65 79.3 168.8 79.1 169.1 79.11C172.77 79.2 176.73 79.63 179.98 80.39C182.43 80.96 188.83 83.27 190.29 84.07C192.95 85.53 196.46 87.78 197.6 89.93C199.98 94.42 202.67 99.72 203.94 105.27C204.51 107.78 192.62 108.22 193.96 111.45C196.96 118.68 197.82 132.39 196.71 140.2C195.5 148.72 194.79 154.86 195.24 163.58C195.47 168.08 196.31 172.57 194.87 176.95C193.77 180.27 195.14 199.09 194.34 205.05C194.67 205.17 193.28 212.54 192.89 212.81C190.93 214.15 188.73 214.9 186.39 214.78L172.19 218.11Z" fill="#FFCA66"/>
<path d="M133.17 40.66C133.29 39.01 133.37 37.11 133.91 35.46C132.91 33.43 132.8 31.07 133.67 28.96C134.25 27.57 134.99 26.58 134.95 24.97C134.92 23.89 134.56 22.85 134.41 21.79C134.16 20.07 134.19 18.34 134.59 16.65C135.29 13.69 137.07 11.05 139.64 9.39005C142.77 7.36005 145.68 7.89005 149.2 7.73005C153.48 7.53005 157.1 4.89005 161.5 5.00005C165.06 5.09005 168.51 6.20005 171.73 7.67005C174.42 8.90005 177.88 10.31 178.78 13.41C178.83 13.58 178.79 13.71 178.71 13.82C178.8 13.96 178.83 14.13 178.75 14.32C177.03 18.1 175.06 21.01 171.11 22.63C167.32 24.18 163.17 24.3 159.27 25.41C157.09 26.04 154.93 26.97 153.29 28.58C151.4 30.45 150.76 33.07 149.77 35.45C148.7 38.03 146.86 40.54 144.07 40.99C142.28 43.05 141.98 46.69 142.04 49.15C142.11 51.99 143.33 56.32 143.72 59.07C143.99 60.99 141.64 63.72 140.07 61.57C138.88 59.93 138.29 55.55 137.55 53.69C137.02 52.37 136.44 51.06 135.69 49.85C135 48.76 134.06 47.79 133.57 46.59C132.82 44.75 133.03 42.58 133.17 40.66Z" fill="#5C3632"/>
<path d="M139.38 42.0601C141.43 38.4301 144.64 39.2601 147.71 41.1201C148.22 41.4301 147.85 42.1901 147.35 42.0401C147.38 44.6401 147.44 47.2401 147.41 49.8401C147.39 51.3101 147.64 55.0201 146.53 56.1701C144.88 57.8701 141.17 54.0001 140.31 52.8701C138.01 49.8201 137.47 45.4501 139.38 42.0601Z" fill="#EB8773"/>
<path d="M143.34 43.0801C142.9 42.6101 143.71 42.0201 144.14 42.4801C145.4 43.8101 146.94 45.4901 146.79 47.4901C146.76 47.8801 146.72 48.2501 146.46 48.5701C146.34 48.7201 146.07 48.8001 145.97 48.9501C145.86 49.0001 145.74 49.0601 145.63 49.1101C144.36 51.0301 144.49 52.2901 146.05 52.8801C146.6 53.2001 146.2 54.1201 145.65 53.7901C144.21 52.9601 142.58 51.6701 143.46 49.8101C143.89 48.8901 144.66 48.8301 145.27 48.1801C146.79 46.5301 144.42 44.2101 143.34 43.0801Z" fill="#CC6C59"/>
<path d="M174.8 11.14C174.8 11.03 174.84 10.94 174.89 10.87C174.59 10.54 175.05 9.9 175.56 10.12C177.6 11.01 179.82 10.86 181.67 12.24C183.02 13.25 183.97 14.7 184.59 16.25C185.6 18.79 185.53 21.38 185.82 24.04C186.04 26.07 186.81 28.07 185.5 29.9C182.88 33.55 182.37 27.78 181.86 26.07C180.96 23.09 179.36 21.3 177.07 19.33C175.8 18.24 174.95 17.17 175.11 15.51C174.76 14.11 174.8 12.51 174.8 11.14Z" fill="#5C3632"/>
<path d="M94.3199 178.51C94.5599 167.8 96.1599 157.16 98.9799 146.83C99.1099 146.35 99.8099 146.35 99.9399 146.83C102.49 156.19 111.98 161.13 121.06 161.99C126.36 162.49 131.72 161.84 136.95 160.97C139.2 160.6 141.61 160.36 143.8 159.67C146.98 158.66 148 155.81 148.19 152.74C148.79 143.26 146.32 133.38 143.91 124.29C141.43 114.89 131.99 83.9401 131.72 78.9301C131.67 77.9601 136.77 77.7501 136.87 77.9301C154.44 111.18 169.03 147.12 170.23 185.19C170.38 190.07 170.32 194.95 170 199.82C169.76 203.54 169.6 277.52 168.04 280.97C164.87 287.99 156.63 289.94 149.61 289.27C140.45 288.4 131.21 285.44 122.4 282.9C117.95 281.62 113.49 280.3 109.12 278.77C105.61 277.55 102.05 276.01 99.4799 273.24C93.6099 266.92 94.1399 186.48 94.3199 178.51Z" fill="#221F44"/>
<path d="M95.5501 167.04C95.8401 163.12 96.2401 159.21 96.6901 155.32C97.6001 147.53 98.8301 139.8 100.34 132.15C102.01 123.73 104.05 115.41 106.43 107.25C107.91 102.19 108.03 97.17 111.29 91.8C111.97 91.94 112.65 92.06 113.33 92.13C113.47 92.16 113.61 92.2 113.75 92.23C116 92.75 118.34 92.99 120.63 93.24C121.8 93.24 122.94 93.12 124.05 92.91C127.72 100.53 127.24 112.47 126.31 119.47C124.25 134.99 119.39 149.94 114.28 164.32C112.97 168.02 111.61 171.7 110.25 175.37C109.34 177.82 108.58 182.09 106.35 183.47C102.14 186.08 97.0501 180.76 95.9001 176.33C95.1301 173.3 95.3201 170.09 95.5501 167.04Z" fill="#EB8773"/>
<path d="M99.83 184.91C96.1 181.74 94.6899 176.68 95.7799 171.99C95.8499 171.69 96.08 171.6 96.31 171.64C101.56 168.9 107.14 166.88 112.96 165.78C119.07 164.62 125.33 164.43 131.41 163.06C137.73 161.64 143.72 159.11 149.72 156.73C152.32 155.7 154.93 154.69 157.58 153.8C159.48 153.17 161.59 152.37 163.6 152.97C164.88 153.36 166.11 154.35 166.39 155.71C166.79 157.61 165.26 159.02 163.92 160.1C159.16 163.95 153.96 167.38 148.8 170.65C143.37 174.1 137.78 177.29 132.05 180.22C126.68 182.97 121.08 185.98 115.18 187.44C110.05 188.72 104.05 188.49 99.83 184.91Z" fill="#EB8773"/>
<path d="M163.97 136.7C164.19 134.86 165.93 138.42 167.32 139.29C169.14 140.43 170.91 141.64 172.67 142.87C173.64 145.21 173.03 149.23 174.89 150.98C169.54 156.43 165.71 159.34 159.26 163.44C159.07 163.56 158.78 163.5 158.67 163.29C157.22 160.71 153.31 157.01 153.31 154.47C153.31 151.18 163.49 140.68 163.97 136.7Z" fill="#EB8773"/>
<path d="M167.53 124.62C169.69 125.53 171.34 127.21 172.37 129.25C172.51 128.46 172.8 127.72 173.39 127.12C173.51 127 173.7 127.01 173.85 127.06C176.34 127.93 176.27 131.57 176.18 134.01C176.21 133.58 176.23 133.16 176.27 132.73C176.35 131.79 174.11 129.77 175.73 129.89C178.65 130.1 179.31 135.31 179.93 139.06C180.6 143.16 176.57 148.8 174.54 151.37C174.21 151.79 173.59 151.09 173.89 150.74C173.26 150.39 172.56 150.43 172.65 149.5L172.64 149.49C171.91 148.59 170.94 148.32 170.75 147.25C168.62 146.1 165.83 143.85 166.06 141.74C166.6 136.64 169.3 131.48 165.53 126.93C163.92 125.03 165.43 123.74 167.53 124.62Z" fill="#EB8773"/>
<path d="M161.59 127.5C161.35 126.85 160.94 125.6 161.59 125.02C163.17 123.6 165.87 126.56 166.55 127.72C168.48 131.06 168.24 135.63 167.67 139.3C167.59 139.8 166.99 139.73 166.78 139.38C166.73 139.4 166.67 139.41 166.6 139.41C165.88 139.39 164.41 139.68 163.96 138.88C163.67 138.34 163.95 137.38 163.99 136.83C164.07 135.52 164.19 134.26 163.96 132.95C163.6 130.84 162.29 129.42 161.59 127.5Z" fill="#EB8773"/>
<path d="M153.82 144.48C155.01 142.03 156.27 139.62 157.49 137.19C157.88 136.41 158.38 134.5 159.54 134.47C162.37 134.39 160.14 141.77 160.06 142.82C159.91 144.85 159.94 146.76 159.13 148.67C158.1 151.1 156.35 153.27 154.88 155.45C154.8 155.57 154.68 155.64 154.57 155.67C154.61 155.83 154.65 155.99 154.7 156.15C154.87 156.79 153.87 157.07 153.7 156.43C152.62 152.38 151.94 148.35 153.82 144.48Z" fill="#EB8773"/>
<path d="M166.47 127.21C168.32 130.68 170.04 134.29 169.05 138.29C168.9 138.91 167.93 138.65 168.09 138.02C169.02 134.28 167.33 130.92 165.61 127.71C165.3 127.14 166.17 126.64 166.47 127.21Z" fill="#CC6C59"/>
<path d="M172.88 130.11C174.33 132.92 174.81 135.92 174.34 139.05C174.24 139.68 173.28 139.41 173.38 138.78C173.81 135.94 173.33 133.17 172.02 130.61C171.72 130.05 172.59 129.54 172.88 130.11Z" fill="#CC6C59"/>
<path d="M176.19 141.42C176.76 140.25 177.01 139.02 176.95 137.72C176.92 137.08 177.92 137.08 177.95 137.72C178.02 139.19 177.71 140.6 177.06 141.92C176.77 142.51 175.9 142 176.19 141.42Z" fill="#CC6C59"/>
<path d="M217.63 219.7C218.5 219.1 218.39 218.75 219.44 218.82C222.38 219.03 224.42 219.02 227.33 219.49C227.34 219 228.13 218.81 228.3 219.36C228.42 219.72 228.51 220.09 228.61 220.45C232.09 226.97 235.81 233.89 233.92 241.49C233.82 241.88 233.35 241.96 233.08 241.71C232.04 240.78 232.06 239.81 231.76 238.52C231.58 237.74 231.19 237.06 230.75 236.42C230.82 237.96 231.55 240.39 229.97 247.75C229.5 249.94 228.94 252.13 227.95 254.15C227.4 255.28 226.62 257.19 225.33 257.64C225.16 257.7 224.97 257.62 224.84 257.51C223.7 256.49 224.71 254.35 225.07 253.16C226 250.08 226.8 247.19 226.97 243.95C227.01 243.17 227 242.37 226.98 241.57C226.93 241.56 226.88 241.55 226.82 241.55C226.43 243.75 225.87 245.92 225.17 248.06C224.52 250.04 223.89 252.18 222.93 254.04C222.54 254.78 221.93 255.89 220.97 256.01C219.6 256.19 219.44 255.04 219.62 253.94C219.41 253.98 219.17 254 218.88 253.96C218.71 253.93 218.57 253.76 218.53 253.61C217.85 251.39 219.31 248.71 219.89 246.59C220.55 244.21 220.92 239.25 220.87 239.19C220.36 241.76 219.74 244.34 218.69 246.74C218.18 247.9 216.61 251.18 214.95 251.08C213.48 251 213.76 249.34 214.03 248.34C214.99 244.78 216.66 241.6 216.72 237.81C216.74 236.37 216.51 226.21 216.51 226.21C216.2 224.36 216.43 220.52 217.63 219.7Z" fill="#EB8773"/>
<path d="M221.46 221.86C221.49 221.22 222.49 221.22 222.46 221.86C222.37 223.82 222.46 225.57 223.69 227.21C224.61 228.43 225.61 229.61 226.56 230.8C227.76 232.3 228.9 233.66 229.04 235.64C229.09 236.28 228.09 236.28 228.04 235.64C227.82 232.49 224.32 229.89 222.61 227.44C221.42 225.72 221.38 223.89 221.46 221.86Z" fill="#CC6C59"/>
<path d="M220.99 234.05C221.85 234.28 222.7 234.52 223.54 234.8C224.06 234.97 224.88 235.08 225.26 235.5C225.69 235.98 224.98 236.69 224.55 236.21C224.4 236.04 223.94 235.99 223.72 235.91C223.37 235.79 223.03 235.68 222.68 235.57C222.03 235.37 221.38 235.19 220.73 235.01C220.1 234.85 220.37 233.88 220.99 234.05Z" fill="#CC6C59"/>
<path d="M119.59 128.79C119.59 128.79 105.07 125.23 102 124.34C98.93 123.45 100.59 120.39 100.59 120.39C100.59 120.39 106.28 103.84 108.68 93.57C110.66 85.08 124.13 80.84 128.26 79.74C128.68 79.69 129.1 79.67 129.46 79.62C131.52 79.35 130.19 89.07 132.26 89.07C132.79 89.07 134.74 99.84 134.65 100.51C137.84 107.77 135.04 119.18 130.44 126.95C130.45 126.96 130.36 133.8 119.59 128.79Z" fill="#FFCA66"/>
<path d="M154.26 196.16C142.23 189.31 128.09 187.18 114.75 184.22C110.52 183.28 105.78 182.35 100.9 181.45C102.48 177.68 104.18 173.96 106.32 170.47C108.62 166.72 115.69 156.27 120.8 161.7C121.24 162.17 121.96 161.47 121.52 161C116.98 156.18 111.09 162.3 108.27 165.89C104.65 170.52 102.15 175.86 99.8999 181.27C89.3299 179.35 78.1899 177.61 70.0499 176.44C68.8899 175.85 68.0299 177.68 67.6999 178.16C57.4499 193.44 43.7699 246.04 41.5499 254.98C40.5899 258.84 38.8299 263.21 39.0099 267.23C39.1399 270.27 41.1099 271.82 43.7999 272.77C62.6099 279.41 82.6799 284.21 102.52 286.26C107.44 286.77 123.28 291.11 127.12 290.02C132.95 288.37 134.84 280.62 136.18 277.56C137.89 273.67 149.1 219.51 154.47 196.72C154.53 196.52 154.46 196.28 154.26 196.16Z" fill="#FFCA66"/>
<path d="M121.18 221.21C106.61 217.92 92.0498 214.62 77.4798 211.33C77.1598 211.26 76.8498 211.46 76.8398 211.8C76.7498 213.93 76.4498 216 75.9698 218.05C74.7098 222.01 73.4398 225.98 72.1798 229.94C72.0898 230.21 72.2698 230.46 72.5198 230.56C83.6098 234.94 95.1198 238.19 106.89 240.17C109.46 240.6 112.22 241.26 114.83 241.32C116.25 241.35 116.92 241.08 117.46 239.75C119.7 234.22 120.61 227.7 121.51 221.83C121.55 221.57 121.47 221.27 121.18 221.21Z" fill="white"/>
</g>
</svg>
