<svg width="350" height="323" viewBox="0 0 350 323" fill="none" xmlns="http://www.w3.org/2000/svg">
<mask id="mask0" mask-type="alpha" maskUnits="userSpaceOnUse" x="0" y="0" width="350" height="323">
<rect width="350" height="323" rx="80" fill="#C4C4C4"/>
</mask>
<g mask="url(#mask0)">
<path d="M274.829 283.699C271.739 291.785 261.654 299.187 250.901 307.03C245.798 307.886 240.656 308.575 235.496 309.117C201.98 312.666 167.393 310.177 133.908 309.851L164.265 149.554C164.265 149.554 167.495 123.07 173.642 119.835C179.803 116.612 205.031 117.741 226.411 118.59C247.798 119.439 280.709 127.078 284.143 130.518C287.564 133.951 277.919 275.613 274.829 283.699Z" fill="#FFC080"/>
<path d="M278.766 134.021L278.613 133.977C278.371 133.9 253.901 126.548 231.406 123.887C208.898 121.226 175.095 121.641 174.757 121.647H174.751C174.528 121.647 174.349 121.468 174.349 121.252C174.349 121.028 174.528 120.843 174.744 120.843C175.088 120.837 208.943 120.422 231.502 123.089C253.137 125.649 276.575 132.534 278.696 133.166L283.13 130.971C283.328 130.875 283.57 130.952 283.672 131.156C283.774 131.354 283.691 131.596 283.487 131.698L278.766 134.021Z" fill="#EDA458"/>
<path d="M271.803 259.812C271.79 259.812 271.784 259.812 271.771 259.812C271.548 259.793 271.383 259.601 271.402 259.378C271.446 258.778 276.186 199.307 276.983 186.792C277.779 174.284 278.32 133.996 278.327 133.587C278.327 133.364 278.512 133.192 278.728 133.192H278.735C278.957 133.192 279.136 133.377 279.13 133.6C279.123 134.009 278.582 174.316 277.785 186.843C276.989 199.37 272.249 258.848 272.204 259.442C272.185 259.652 272.013 259.812 271.803 259.812Z" fill="#EDA458"/>
<path d="M202.19 129.848L193.112 131.768C193.112 131.768 190.589 145.917 194.023 154.609C197.45 163.301 197.354 165.828 207.745 166.128C218.136 166.434 230.342 144.2 232.158 140.052C233.974 135.91 234.076 133.989 234.076 133.989L218.741 129.139L202.19 129.848Z" fill="#C27353"/>
<path d="M262.585 271.254V304.344C260.992 304.835 259.374 305.276 257.743 305.652V271.248H262.585V271.254Z" fill="#3B251D"/>
<path d="M230.743 132.943C230.743 132.943 230.571 135.144 230.291 138.827C230.227 139.727 230.151 140.709 230.081 141.775C228.66 160.793 225.526 204.597 225.997 214.029C226.602 226.155 220.493 244.751 220.493 244.751L177.165 237.067C177.165 237.067 172.929 192.599 173.738 185.528C174.547 178.451 181.606 135.106 181.606 135.106L195.22 131.322C195.22 131.322 195.016 134.047 195.105 137.831C195.137 139.235 195.22 140.792 195.367 142.4C196.029 149.944 198.157 158.821 204.4 160.269C211.803 161.986 219.607 148.993 224.029 140.033L224.035 140.026C224.519 139.031 224.971 138.093 225.366 137.231C226.813 134.111 227.654 131.966 227.654 131.966L230.743 132.943Z" fill="white"/>
<path d="M196.086 161.016C195.494 161.01 194.908 161.029 194.322 161.086C193.545 161.156 192.704 161.31 192.2 161.91C191.627 162.592 191.71 163.613 191.952 164.475C192.379 165.975 193.201 167.353 194.315 168.438C194.468 168.585 194.628 168.725 194.819 168.802C197.443 169.848 196.373 165.739 196.125 164.871C196.08 164.717 196.048 164.558 196.086 164.405C196.157 164.13 196.443 163.964 196.724 163.92C197.004 163.875 197.291 163.913 197.571 163.888C198.456 163.805 199.227 162.828 198.871 162.012C198.552 161.278 197.615 161.086 196.819 161.042C196.577 161.029 196.335 161.022 196.086 161.016Z" fill="#D5E2ED"/>
<path d="M187.658 226.027C187.066 226.02 186.479 226.04 185.893 226.097C185.116 226.167 184.275 226.32 183.772 226.92C183.198 227.603 183.281 228.624 183.523 229.486C183.95 230.985 184.772 232.364 185.887 233.449C186.04 233.596 186.199 233.736 186.39 233.813C189.015 234.859 187.945 230.749 187.696 229.881C187.652 229.728 187.62 229.569 187.658 229.416C187.728 229.141 188.015 228.975 188.295 228.931C188.575 228.886 188.862 228.924 189.142 228.899C190.028 228.816 190.799 227.839 190.442 227.022C190.123 226.288 189.187 226.097 188.391 226.052C188.155 226.033 187.906 226.027 187.658 226.027Z" fill="#D5E2ED"/>
<path d="M217.46 202.102C217.129 201.617 216.766 201.145 216.39 200.691C215.887 200.098 215.275 199.498 214.498 199.428C213.606 199.351 212.822 200.009 212.262 200.704C211.287 201.917 210.631 203.385 210.389 204.923C210.357 205.127 210.332 205.344 210.382 205.548C211.039 208.298 213.778 205.057 214.339 204.355C214.441 204.233 214.549 204.112 214.695 204.055C214.957 203.953 215.262 204.093 215.46 204.297C215.657 204.501 215.791 204.757 215.976 204.974C216.549 205.65 217.798 205.72 218.257 204.961C218.671 204.278 218.289 203.404 217.868 202.727C217.734 202.51 217.601 202.306 217.46 202.102Z" fill="#D5E2ED"/>
<path d="M195.373 142.4C194.334 143.122 191.378 144.94 191.468 142.337C191.474 142.126 191.557 141.935 191.646 141.737C192.283 140.32 193.309 139.076 194.57 138.169C194.742 138.048 194.927 137.927 195.118 137.831C195.143 139.242 195.226 140.792 195.373 142.4Z" fill="#D5E2ED"/>
<path d="M215.919 234.081C215.728 233.519 215.505 232.97 215.256 232.434C214.931 231.726 214.498 230.985 213.765 230.711C212.925 230.398 212.001 230.82 211.275 231.343C210.013 232.249 208.994 233.494 208.35 234.91C208.261 235.102 208.185 235.3 208.178 235.51C208.076 238.337 211.58 235.938 212.313 235.414C212.44 235.325 212.581 235.236 212.74 235.223C213.02 235.197 213.275 235.414 213.415 235.657C213.555 235.906 213.613 236.187 213.734 236.442C214.109 237.246 215.288 237.648 215.938 237.035C216.518 236.487 216.384 235.542 216.155 234.776C216.072 234.553 215.995 234.317 215.919 234.081Z" fill="#D5E2ED"/>
<path d="M219.843 170.238C220.092 169.702 220.321 169.159 220.518 168.598C220.78 167.864 220.983 167.028 220.652 166.326C220.27 165.515 219.308 165.171 218.429 165.037C216.893 164.8 215.294 164.979 213.848 165.541C213.651 165.617 213.46 165.7 213.307 165.847C211.262 167.8 215.441 168.534 216.326 168.674C216.479 168.7 216.645 168.732 216.766 168.834C216.989 169.012 217.014 169.344 216.944 169.619C216.868 169.893 216.715 170.136 216.626 170.404C216.333 171.24 216.9 172.356 217.785 172.369C218.582 172.382 219.149 171.61 219.518 170.908C219.627 170.678 219.735 170.461 219.843 170.238Z" fill="#D5E2ED"/>
<path d="M205.687 182.574C205.209 182.229 204.713 181.91 204.203 181.61C203.528 181.221 202.75 180.863 201.999 181.061C201.139 181.291 200.622 182.172 200.323 183.02C199.813 184.488 199.699 186.096 199.985 187.622C200.024 187.826 200.075 188.036 200.189 188.209C201.731 190.576 203.215 186.594 203.515 185.745C203.566 185.599 203.629 185.445 203.751 185.343C203.967 185.158 204.298 185.19 204.553 185.311C204.808 185.433 205.018 185.631 205.267 185.771C206.038 186.211 207.235 185.854 207.407 184.986C207.567 184.201 206.91 183.505 206.286 183.014C206.089 182.867 205.891 182.72 205.687 182.574Z" fill="#D5E2ED"/>
<path d="M190.264 200.245C190.423 199.677 190.557 199.102 190.659 198.515C190.799 197.749 190.862 196.894 190.423 196.25C189.913 195.516 188.913 195.331 188.015 195.337C186.46 195.356 184.912 195.79 183.581 196.588C183.402 196.696 183.224 196.811 183.097 196.977C181.402 199.236 185.638 199.281 186.537 199.268C186.696 199.268 186.862 199.275 186.995 199.351C187.244 199.492 187.327 199.811 187.295 200.092C187.269 200.372 187.155 200.64 187.104 200.921C186.951 201.795 187.69 202.804 188.569 202.67C189.359 202.555 189.786 201.7 190.041 200.94C190.123 200.717 190.194 200.481 190.264 200.245Z" fill="#D5E2ED"/>
<path d="M231.432 140.805C231.304 141.405 230.705 141.75 230.081 141.775C229.807 141.781 229.527 141.724 229.285 141.59C229.042 141.443 228.832 141.252 228.577 141.13C228.316 141.009 227.991 140.977 227.781 141.162C227.66 141.265 227.596 141.411 227.545 141.564C227.246 142.413 225.762 146.389 224.22 144.028C224.105 143.849 224.061 143.639 224.016 143.441C223.806 142.311 223.806 141.15 224.035 140.026L224.041 140.02C224.526 139.025 224.978 138.086 225.373 137.225C225.564 137.065 225.787 136.944 226.029 136.88C226.781 136.676 227.564 137.033 228.233 137.429C228.749 137.723 229.24 138.042 229.718 138.393C229.909 138.533 230.113 138.674 230.298 138.827C230.304 138.827 230.304 138.827 230.317 138.833C230.935 139.331 231.584 140.026 231.432 140.805Z" fill="#D5E2ED"/>
<path d="M203.005 210.96C202.425 211.062 201.846 211.189 201.279 211.349C200.527 211.56 199.731 211.866 199.348 212.549C198.909 213.327 199.176 214.316 199.571 215.114C200.259 216.505 201.323 217.718 202.617 218.579C202.789 218.694 202.973 218.809 203.177 218.848C205.948 219.396 204.146 215.555 203.744 214.744C203.674 214.604 203.61 214.45 203.623 214.291C203.642 214.01 203.897 213.793 204.158 213.697C204.426 213.602 204.713 213.589 204.986 213.512C205.84 213.27 206.42 212.166 205.923 211.432C205.477 210.768 204.521 210.749 203.731 210.858C203.496 210.877 203.247 210.915 203.005 210.96Z" fill="#D5E2ED"/>
<path d="M273.052 213.953C273.122 206.167 273.281 181.431 271.198 174.399C269.414 168.368 266.738 159.319 263.33 154.003C254.857 140.799 229.317 131.915 229.195 132.42C229.183 132.483 224.895 149.382 223.659 157.8C222.442 166.109 222.525 174.424 221.844 182.765C221.487 187.143 220.569 191.253 219.181 195.414C217.913 199.224 217.167 202.88 217.25 206.914C217.339 211.075 217.996 215.197 218.059 219.365C218.129 223.819 217.11 227.974 215.791 232.198C214.46 236.455 213.32 240.667 212.753 245.102C212.358 248.216 212.166 251.35 212.052 254.49C211.663 254.279 211.275 254.068 210.892 253.858C210.434 253.609 210.026 254.311 210.485 254.553C211.001 254.834 211.51 255.102 212.026 255.377C211.975 256.927 211.943 258.478 211.905 260.029C211.892 260.552 212.702 260.552 212.714 260.029C212.746 258.612 212.784 257.202 212.842 255.798C218.225 258.574 223.615 260.75 229.813 261.242C237.044 261.816 244.422 261.286 251.557 260.029C255.233 259.378 258.909 258.542 262.464 257.393C265.069 256.545 267.669 255.383 269.542 253.315C273.409 249.052 273.294 242.715 273.23 237.329C273.141 229.537 272.975 221.745 273.052 213.953Z" fill="#EB755E"/>
<path d="M256.609 157.685C249.754 164.035 246.008 172.631 245.505 181.916C245.358 184.66 245.32 187.487 244.339 190.091C243.453 192.446 241.867 194.437 241.083 196.85C240.217 199.511 239.956 202.28 239.956 205.063C238.732 206.186 237.535 207.335 236.624 208.739C235.158 210.991 234.585 213.806 233.578 216.276C232.368 219.249 230.896 222.083 229.304 224.865C228.788 225.765 228.24 226.646 228.144 227.699C228.017 229.141 228.667 230.462 228.252 231.924C227.335 235.172 223.939 236.582 221.015 237.463C218.492 238.222 215.944 238.918 213.402 239.62C213.339 239.524 213.275 239.441 213.217 239.339C212.956 238.892 212.256 239.295 212.523 239.748C212.542 239.786 212.568 239.811 212.593 239.843C212.147 239.965 211.701 240.086 211.255 240.213C210.758 240.354 210.969 241.132 211.472 240.992C212.007 240.839 212.542 240.698 213.077 240.545C216.199 244.476 221.958 242.115 225.87 240.667C227.373 240.111 228.947 239.856 230.298 238.963C231.871 237.922 232.948 237.067 234.897 236.882C236.528 236.729 239.79 237.75 240.803 236.123C241.567 234.897 241.752 232.849 242.071 231.356C242.039 230.941 242.007 230.52 241.988 230.111C241.816 226.856 242.383 223.506 241.72 220.302C241.166 217.635 240.427 215.497 240.822 212.753C240.848 212.568 240.854 204.246 240.771 204.316C240.816 201.853 241.102 199.409 241.873 197.06C242.631 194.756 244.09 192.855 244.995 190.627C245.842 188.534 246.078 186.275 246.218 184.035C246.517 179.178 247.008 174.609 248.9 170.072C250.78 165.566 253.621 161.571 257.195 158.259C257.558 157.902 256.985 157.334 256.609 157.685Z" fill="#D4553D"/>
<path d="M194.182 131.43C194.36 130.939 174.917 134.979 168.578 141.833C161.735 149.223 161.321 158.687 161.411 168.278C161.461 173.869 161.557 179.542 160.111 184.986C158.824 189.823 156.632 194.239 156.836 199.364C156.945 202.102 157.391 204.795 157.225 207.545C157.027 210.679 156.301 213.748 155.594 216.799C155.014 219.294 154.441 221.796 153.861 224.291C153.39 226.34 152.714 228.548 153.32 230.641C154.53 234.795 159.225 235.957 162.984 236.353C168.278 236.914 173.432 237.693 178.541 239.058C178.28 241.458 178.102 243.864 178.076 246.289C178.07 246.806 178.879 246.851 178.885 246.327C178.911 243.96 179.077 241.605 179.319 239.263C179.969 239.441 180.618 239.633 181.268 239.831C181.765 239.984 182.02 239.218 181.523 239.065C180.822 238.848 180.115 238.65 179.408 238.452C180.803 226.052 184.555 213.946 184.645 201.368C184.67 197.558 184.562 193.742 184.912 189.945C185.269 186.052 186.454 182.478 187.441 178.732C188.308 175.432 188.397 172.299 187.913 168.929C187.346 164.986 187.015 161.131 187.352 157.149C188.085 148.253 191.156 139.758 194.182 131.43Z" fill="#EB755E"/>
<path d="M292.763 253.494C292.342 257.202 291.852 260.916 291.285 264.617L235.49 309.117C201.591 312.704 166.596 310.119 132.755 309.838H132.608C126.117 309.781 119.637 309.736 113.152 309.679C107.954 309.641 102.755 309.596 97.5564 309.551L-61.9037 270.68C-64.2099 262.045 -65.0445 252.996 -65.4012 243.921L26.6499 197.456L292.763 253.494Z" fill="#964A35"/>
<path d="M226.004 308.492C225.883 308.492 225.768 308.441 225.685 308.339C225.545 308.166 225.577 307.911 225.755 307.771L291.533 255.823C291.712 255.683 291.96 255.715 292.1 255.894C292.24 256.066 292.209 256.321 292.03 256.461L226.252 308.403C226.176 308.46 226.086 308.492 226.004 308.492Z" fill="#73301E"/>
<path d="M116.038 308.824C116.006 308.824 115.974 308.817 115.942 308.811L-62.2286 264.547C-62.4452 264.496 -62.579 264.273 -62.5216 264.056C-62.4707 263.839 -62.2477 263.705 -62.0311 263.762L116.134 308.026C116.35 308.077 116.484 308.3 116.427 308.517C116.382 308.702 116.216 308.824 116.038 308.824Z" fill="#73301E"/>
<path d="M51.3111 213.889C51.3111 209.798 43.5643 206.48 34.0145 206.48C29.8799 206.48 25.5605 207.016 21.7381 208.669C20.362 209.262 18.9604 210.015 17.9539 211.157C16.8517 212.415 16.7115 213.914 16.7115 215.51C16.7115 219.6 24.4584 222.919 34.0082 222.919C43.5579 222.919 51.3048 219.6 51.3048 215.51C51.3048 215.235 51.2665 214.967 51.1965 214.699C51.2665 214.431 51.3111 214.163 51.3111 213.889Z" fill="#C7916D"/>
<path d="M46.4566 217.973C42.8443 221.643 35.8046 220.622 31.1221 220.545C29.7015 220.526 28.4783 220.347 27.1404 219.888C26.051 219.518 25.0189 219.588 23.9359 219.288C22.3623 218.847 22.2158 217.673 21.0946 216.863C19.8268 215.95 18.4443 216.142 18.164 214.055C18.0939 213.544 17.2912 213.538 17.3549 214.055C17.6862 216.576 19.865 217.118 21.5341 218.63C22.5089 219.511 23.1077 219.932 24.4265 220.181C25.2674 220.341 26.0829 220.405 26.9238 220.66C27.6437 220.883 28.2617 221.132 29.0134 221.241C32.4345 221.726 36.4353 221.566 39.8501 221.234C42.4493 220.985 45.1251 220.462 47.0172 218.535C47.3931 218.171 46.8197 217.603 46.4566 217.973Z" fill="#AB7652"/>
<path d="M34.7279 211.598C34.5049 211.426 34.1673 211.406 33.8678 211.413C33.5493 211.419 33.2308 211.426 32.9059 211.432C32.7784 211.432 32.6447 211.438 32.53 211.502C32.3197 211.617 32.256 211.904 32.3197 212.134C32.5109 212.823 33.097 212.778 33.6958 212.817C34.0207 212.836 34.3648 212.804 34.626 212.606C34.8872 212.415 35.0273 212.032 34.8617 211.751C34.8298 211.694 34.7852 211.643 34.7279 211.598Z" fill="#AB7652"/>
<path d="M45.2333 209.766C43.8891 209.67 42.8252 209.485 41.5956 209.958C40.8375 210.245 40.022 210.347 39.2576 210.589C38.3657 210.877 37.6203 211.445 36.6328 211.343C36.1168 211.285 36.1231 212.096 36.6328 212.153C37.1934 212.21 37.6139 212.121 38.1554 211.93C39.0155 211.63 39.6589 211.406 40.5699 211.279C41.1051 211.202 41.2644 211.055 41.7358 210.87C42.9717 210.385 43.9592 210.481 45.2397 210.577C45.7494 210.609 45.7494 209.804 45.2333 209.766Z" fill="#AB7652"/>
<path d="M37.1553 209.115C36.3972 209.441 35.6454 209.773 34.8873 210.098C34.4095 210.302 34.8236 211.004 35.295 210.794C36.0531 210.468 36.8049 210.136 37.563 209.811C38.0408 209.607 37.6267 208.911 37.1553 209.115Z" fill="#AB7652"/>
<path d="M32.3007 210.047C31.3515 209.594 30.6316 208.968 29.5932 208.745C28.3573 208.483 27.2933 207.826 25.9937 207.698C25.4777 207.647 25.4777 208.458 25.9937 208.509C27.1022 208.617 27.8858 209.281 28.9179 209.524C29.5804 209.677 30.0519 209.658 30.6698 210.021C31.0839 210.264 31.4598 210.545 31.8994 210.749C32.3645 210.966 32.7722 210.27 32.3007 210.047Z" fill="#AB7652"/>
<path d="M31.4598 212.632C29.7079 212.37 28.3636 212.415 26.7264 213.059C25.6178 213.493 24.6813 213.149 23.5728 213.276C22.7956 213.366 22.2031 213.691 21.5469 214.106C21.1074 214.38 21.5087 215.082 21.9547 214.801C23.369 213.921 24.5667 214.47 26.032 214.17C26.4078 214.093 26.7837 213.895 27.1341 213.755C28.5866 213.18 29.727 213.18 31.2496 213.41C31.7529 213.493 31.9759 212.708 31.4598 212.632Z" fill="#AB7652"/>
<path d="M32.7213 213.563C32.0714 213.64 31.4153 213.729 30.81 214.004C30.1602 214.304 29.727 215.006 29.0453 215.21C28.5484 215.357 28.7587 216.135 29.262 215.988C29.7971 215.829 30.1347 215.484 30.5552 215.133C31.1795 214.604 31.9313 214.463 32.7213 214.374C33.2309 214.31 33.2373 213.506 32.7213 213.563Z" fill="#AB7652"/>
<path d="M42.0098 218.943C41.4683 217.437 40.4936 216.844 39.0601 216.359C37.8943 215.963 37.786 215.286 37.0533 214.45C36.5692 213.895 35.9703 213.576 35.2632 213.378C34.7599 213.238 34.5496 214.016 35.0466 214.157C36.5373 214.572 36.6711 215.886 37.7605 216.703C38.1427 216.99 38.5823 217.054 39.0283 217.175C40.1049 217.463 40.8439 218.075 41.2326 219.16C41.4046 219.645 42.1882 219.435 42.0098 218.943Z" fill="#AB7652"/>
<path d="M245.466 269.314L227.641 270.763L229.227 288.14L248.193 285.415L245.466 269.314Z" fill="white"/>
<path d="M229.113 283.795C228.609 283.795 228.1 283.775 227.603 283.744C221.64 283.354 215.116 281.791 207.662 278.97L207.299 278.83C207.089 278.753 206.962 278.504 207.044 278.3C207.127 278.089 207.331 277.981 207.541 278.057L207.949 278.217C215.326 281.006 221.774 282.55 227.654 282.939C230.941 283.156 234.407 282.633 237.401 281.465C241.243 279.966 243.842 277.279 244.53 274.082C245.097 271.433 243.632 268.919 240.172 266.602C237.771 264.994 234.655 263.641 231.362 262.205C223.029 258.58 213.587 254.477 213.46 244.751C213.345 236.155 214.282 231.56 215.263 226.697C215.74 224.329 216.237 221.879 216.651 218.828C217.346 213.697 217.257 199.945 217.174 186.652C217.104 175.701 217.027 164.373 217.403 158.081C218.219 144.36 220.073 108.705 220.092 108.348C220.104 108.124 220.289 107.952 220.519 107.965C220.742 107.977 220.913 108.169 220.901 108.392C220.882 108.75 219.028 144.411 218.212 158.132C217.843 164.398 217.913 175.713 217.983 186.652C218.066 199.977 218.155 213.755 217.454 218.943C217.04 222.019 216.537 224.476 216.053 226.863C215.078 231.688 214.154 236.238 214.262 244.745C214.383 253.947 223.175 257.77 231.68 261.465C235.012 262.913 238.153 264.279 240.618 265.926C244.326 268.408 245.951 271.286 245.314 274.247C244.568 277.713 241.79 280.616 237.688 282.212C235.05 283.252 232.05 283.795 229.113 283.795Z" fill="#FFE1C7"/>
<path d="M232.89 85.7498C232.75 84.6521 231.986 83.9437 231.737 82.8907C231.253 80.855 233.152 78.2129 231.463 76.3686C230.227 75.0156 227.794 75.0603 225.812 75.2773C225.806 75.2071 225.793 75.1433 225.787 75.0731C225.768 73.7202 226.029 72.3736 225.443 71.0909C223.946 67.817 220.034 67.6001 216.377 68.6211C214.925 66.63 212.918 65.6728 209.917 66.1003C208.516 66.2982 207.121 66.6938 205.757 67.2044C204.12 66.0621 201.782 66.3684 200.081 67.147C198.367 67.9319 197.061 69.2402 195.953 70.7144C195.526 70.0698 194.87 69.655 193.85 69.7379C191.232 69.9613 188.983 72.8076 187.747 74.8561C186.027 77.7151 184.842 81.0145 185.25 84.3841C185.709 88.1876 186.562 91.9783 187.225 95.75C187.314 96.2605 188.091 96.0435 188.002 95.533C187.983 95.4245 187.964 95.316 187.945 95.2075C190.028 95.3224 191.366 96.9178 192.653 98.392C193.959 99.8917 195.297 101.36 196.679 102.789C199.202 105.399 201.776 107.99 204.439 110.454C207.095 112.904 209.93 115.023 213.109 116.746C214.778 117.652 216.498 118.546 218.244 119.299C219.021 119.63 219.856 120.026 220.709 119.733C221.57 119.439 221.971 118.667 222.321 117.888C223.149 116.05 223.678 114.015 224.341 112.106L228.386 100.46C229.272 97.907 230.514 95.1884 230.769 92.4314C231.33 91.4678 231.846 90.4786 232.228 89.4256C232.648 88.3152 233.043 86.9559 232.89 85.7498Z" fill="#3B251D"/>
<path d="M225.195 136.918C225.195 136.918 220.149 145.713 214.702 146.217C209.255 146.727 202.903 141.577 202.903 141.577L201.674 132.885L201.119 128.941L200.673 125.814L206.356 118.807L219.353 102.783L222.066 99.4385L222.277 101.902L223.455 116.05L225.195 136.918Z" fill="#C27353"/>
<path d="M217.996 122.47C216.581 125.438 212.886 130.556 208.248 132.107C205.617 132.981 203.247 133.013 201.68 132.885L200.68 125.808L206.363 118.801C211.937 114.831 221.009 109.63 221.302 109.535C221.697 109.401 219.404 119.503 217.996 122.47Z" fill="#944C2F"/>
<path d="M221.589 88.1748C221.767 88.0025 221.825 87.6578 221.557 87.4664C219.327 85.8199 217.136 84.3712 214.364 83.8352C211.638 83.3119 208.79 83.1651 206.012 82.98C199.992 82.5588 193.946 82.6801 188.085 84.2308C187.958 84.2627 187.875 84.3329 187.824 84.4351C187.817 84.4414 187.805 84.4414 187.798 84.4542C187.008 85.6093 186.83 86.8218 186.811 88.2067C186.804 88.5385 186.804 88.8768 186.817 89.215C186.824 91.2954 186.964 93.3759 187.066 95.4563C187.289 99.8725 188.601 112.489 189.729 116.695C191.85 124.602 197.539 128.118 201.107 128.941C201.693 129.088 202.228 129.146 202.68 129.146C205.955 129.12 211.396 126.682 213.785 124.391C217.435 120.888 220.251 116.765 221.417 113.312C221.799 112.189 221.997 111.136 221.997 110.198C222.003 108.379 222.149 105.265 222.258 101.896C222.423 96.6433 222.449 90.7594 221.589 88.1748Z" fill="#C27353"/>
<path d="M195.099 102.349C195.074 102.247 195.048 102.145 195.016 102.042C194.832 101.462 194.386 100.696 193.729 100.824C193.201 100.926 192.946 101.621 192.895 102.24C192.85 102.808 192.908 103.408 193.131 103.931C193.443 104.672 194.405 105.572 194.978 104.665C195.144 104.404 195.201 104.078 195.22 103.753C195.246 103.281 195.207 102.802 195.099 102.349Z" fill="#3B251D"/>
<path d="M209.574 101.768C209.548 101.666 209.523 101.57 209.491 101.474C209.319 100.919 208.892 100.192 208.268 100.313C207.764 100.409 207.522 101.072 207.471 101.659C207.427 102.202 207.484 102.77 207.694 103.268C207.994 103.97 208.911 104.831 209.459 103.963C209.612 103.714 209.669 103.402 209.688 103.095C209.72 102.655 209.675 102.202 209.574 101.768Z" fill="#3B251D"/>
<path d="M203.916 113.287C202.967 113.644 201.674 114.225 200.642 113.9C198.514 113.223 199.094 111.379 199.227 109.924C199.425 107.786 199.667 105.654 199.928 103.529C199.992 103.012 199.183 103.019 199.119 103.529C198.858 105.661 198.616 107.792 198.418 109.924C198.316 111.002 197.979 112.362 198.546 113.364C199.705 115.419 202.387 114.729 204.126 114.072C204.611 113.887 204.407 113.102 203.916 113.287Z" fill="#944C2F"/>
<path d="M199.871 117.518C199.673 117.505 196.246 117.237 196.246 117.237C196.246 117.237 198.832 120.92 202.591 120.549C207.739 120.045 208.987 116.599 208.987 116.599C208.987 116.599 204.579 117.773 199.871 117.518Z" fill="#944C2F"/>
<path d="M197.724 97.7411C197.647 97.5688 197.533 97.4093 197.393 97.2944C197.087 97.0391 196.698 96.9179 196.316 96.8285C193.959 96.2542 191.372 96.4712 189.27 97.6837C188.958 97.8624 188.646 98.0794 188.505 98.4112C187.856 99.9747 191.022 99.2983 191.614 99.1898C193.003 98.9345 194.43 98.8771 195.838 99.0111C196.208 99.043 196.584 99.0941 196.947 99.0175C197.31 98.9409 197.66 98.7112 197.775 98.3538C197.832 98.1496 197.807 97.939 197.724 97.7411Z" fill="#3B251D"/>
<path d="M205.038 97.8941C205.146 98.2451 205.503 98.4812 205.866 98.5578C206.229 98.6344 206.605 98.5897 206.974 98.5514C208.382 98.4174 209.803 98.4812 211.198 98.7301C211.791 98.8386 214.957 99.515 214.307 97.9515C214.167 97.6197 213.855 97.4027 213.543 97.224C211.44 96.0115 208.854 95.7945 206.496 96.3688C206.114 96.4646 205.719 96.5794 205.42 96.8347C205.286 96.9496 205.165 97.1091 205.088 97.2814C205.006 97.4856 204.98 97.6962 205.038 97.8941Z" fill="#3B251D"/>
<path d="M227.654 102.578C227.654 102.578 224.137 89.7255 223.27 87.1409C223.449 86.9686 223.506 86.624 223.239 86.4325C221.009 84.786 218.002 82.9226 215.237 82.3929C212.51 81.8696 209.07 81.5696 206.292 81.3846C200.272 80.9634 192.799 81.5824 186.938 83.1332C186.811 83.1651 186.728 83.2353 186.677 83.3374C186.67 83.3438 186.256 84.6073 186.244 84.6201C185.454 85.7752 186.823 86.8282 186.811 88.213C186.804 88.5449 186.804 88.8831 186.817 89.2213C188.059 87.6961 189.722 87.109 192.181 87.0324C195.074 86.9303 197.959 86.9431 200.852 86.9048C203.534 86.8665 206.216 86.8346 208.904 86.7899C211.956 86.7516 215.46 86.407 217.371 89.3235C219.996 93.2929 218.148 98.4111 219.34 102.795C219.372 102.923 219.403 103.044 219.442 103.178C219.83 104.391 220.506 105.539 220.531 106.854C220.563 108.06 223.264 115.884 223.436 116.063L227.654 102.578Z" fill="#3B251D"/>
<path d="M223.723 100.555C223.303 98.9026 222.2 96.803 220.168 97.0965C218.359 97.3582 217.69 99.094 217.435 100.709C217.257 100.734 217.078 100.855 217.059 101.085C216.753 104.665 217.435 108.431 217.754 111.998C217.773 112.196 217.926 112.426 218.155 112.4C219.837 112.228 221.576 109.681 222.379 108.373C223.812 106.057 224.398 103.217 223.723 100.555Z" fill="#C27353"/>
<path d="M180.389 300.132L226.431 264.904C226.832 264.598 226.705 263.966 226.22 263.839L140.852 241.311C140.852 241.311 146.299 263.341 146.904 264.151C147.51 264.968 180.389 300.132 180.389 300.132Z" fill="white"/>
<path d="M221.754 265.409L216.32 269.48L215.498 270.106H215.492L208.089 275.677L207.261 276.29L199.858 281.861L199.036 282.474L191.627 288.045L190.805 288.657L179.319 297.286L175.955 288.37L175.656 287.585L174.496 284.497V284.49L174.152 283.578L172.591 279.455L172.292 278.67L171.03 275.326L170.686 274.407L169.043 270.042L168.743 269.257L167.571 266.155L167.227 265.236L165.494 260.635L165.195 259.85L164.112 256.978L163.768 256.059L161.946 251.222L161.646 250.437L160.926 248.535L163.373 249.174L164.379 249.435L175.471 252.333L176.477 252.601L187.569 255.498L188.575 255.76L199.673 258.657L200.674 258.918H200.68L211.147 261.65L212.147 261.918L221.551 264.369C222.035 264.471 222.156 265.109 221.754 265.409Z" fill="#FFE1C7"/>
<path d="M41.9461 213.506L66.8749 271.024L180.389 300.132L156.875 237.827C156.696 237.354 156.295 237.003 155.804 236.895L43.6471 211.451C42.4558 211.176 41.4619 212.383 41.9461 213.506Z" fill="white"/>
<path d="M177.306 295.556C177.274 295.556 177.236 295.55 177.204 295.543L65.4224 266.672C65.2058 266.615 65.0784 266.398 65.1294 266.181C65.1867 265.964 65.4097 265.836 65.6199 265.887L177.401 294.758C177.618 294.816 177.745 295.033 177.694 295.25C177.65 295.435 177.484 295.556 177.306 295.556Z" fill="#FFE1C7"/>
<path d="M153.498 246.57C153.473 246.57 153.441 246.57 153.415 246.563L131.595 241.866C131.468 241.841 131.36 241.751 131.309 241.63L129.219 236.627C129.162 236.487 129.187 236.327 129.283 236.212C129.378 236.097 129.531 236.046 129.678 236.078L151.835 240.928C151.969 240.96 152.084 241.056 152.128 241.183L153.88 246.034C153.931 246.174 153.9 246.327 153.804 246.436C153.721 246.525 153.613 246.57 153.498 246.57ZM131.971 241.12L152.874 245.619L151.447 241.662L130.264 237.023L131.971 241.12Z" fill="#FFE1C7"/>
<path d="M272.09 242.371C271.682 239.895 270.93 237.438 269.618 235.287C266.579 230.296 260.418 227.884 255.143 226.014C253.188 225.319 249.588 224.01 247.6 225.248C246.868 225.701 246.575 226.461 246.294 227.233C244.721 227.176 243.256 227.814 242.243 228.943C238.337 230.424 234.126 232.134 231.374 235.363C230.17 236.78 226.794 240.565 224.78 240.616C223.455 240.648 217.747 243.143 216.193 244.757C213.53 247.521 218.658 251.184 220.378 253.679C222.825 257.227 222.933 260.029 226.997 261.471C229.055 262.205 242.504 261.771 244.957 260.922C250.104 259.135 254.819 257.502 260.094 256.181C264.075 255.185 270.382 253.124 272.09 248.893C272.892 246.921 272.421 244.394 272.09 242.371Z" fill="#EB755E"/>
<path d="M204.247 256.646C203.419 254.566 200.629 252.179 200.629 252.179C200.629 252.179 191.054 249.033 188.333 248.695C182.052 247.91 179.835 250.105 178.459 251.241C176.273 253.047 174.515 254.611 172.534 257.31C171.897 258.185 165.851 266.066 169.979 265.977C171.667 265.938 174.037 263.009 174.821 261.841C176.006 260.08 179.21 257.489 179.21 257.489C179.21 257.489 176.962 260.75 176.057 262.524C175.203 264.202 174.477 265.951 173.904 267.751C173.496 269.033 172.808 270.814 173.668 272.065C174.522 273.303 175.356 273.156 176.089 272.467C177.159 273.328 179.026 271.88 180.249 270.623C180.574 270.284 180.88 269.933 181.179 269.57C182.479 270.22 184.173 269.384 185.135 268.166C186.097 266.953 186.983 265.677 187.849 264.375C190.085 262.02 192.863 262.339 194.08 262.601C196.628 263.143 200.635 263.577 202.999 262.243C205.114 261.069 205.057 258.682 204.247 256.646Z" fill="#C27353"/>
<path d="M196.342 253.111C196.342 253.111 215.913 245.753 218.435 245.466C220.958 245.179 226.609 245.759 229.431 250.52C232.254 255.281 231.553 258.612 230.24 260.131C228.928 261.65 201.387 262.869 201.387 262.869L196.342 253.111Z" fill="#C27353"/>
<path d="M183.326 257.489C180.472 261.663 177.981 266.047 175.847 270.635C175.63 271.101 176.324 271.516 176.541 271.044C178.675 266.455 181.166 262.071 184.02 257.897C184.32 257.47 183.619 257.068 183.326 257.489Z" fill="#944C2F"/>
<path d="M186.237 260.24C184.103 262.173 182.447 264.49 181.3 267.138C181.096 267.61 181.791 268.025 181.995 267.547C183.116 264.962 184.721 262.703 186.804 260.814C187.199 260.463 186.626 259.889 186.237 260.24Z" fill="#944C2F"/>
<path d="M207.306 257.291C205.433 255.006 203.4 253.149 200.686 251.918C200.215 251.701 199.884 252.441 200.361 252.658C202.967 253.838 204.859 255.581 206.662 257.77C206.981 258.172 207.637 257.693 207.306 257.291Z" fill="#944C2F"/>
<path d="M175.808 136.995C169.705 140.141 162.118 145.847 157.703 151.227C154.422 155.228 152.912 159.804 148.682 163.205C143.101 167.691 139.38 174.201 135.29 180.104C134.15 181.75 133.462 183.665 132.564 185.458C131.608 187.354 129.69 191.151 129.69 191.151C129.69 191.151 125.67 185.771 123.804 184.01C122.313 182.606 113.783 172.765 111.801 172.593C107.558 172.21 100.761 175.458 98.0023 178.566C95.0972 181.833 92.5553 187.188 94.8424 190.991C95.5368 192.146 96.2885 193.148 96.7536 194.437C97.1995 195.669 108.113 214.54 111.801 218.343C115.12 221.764 117.58 224.623 122.096 226.053C124.963 226.959 127.932 227.508 130.92 227.833C133.526 228.12 143.681 224.738 146.681 222.734C148.707 221.381 152.842 216.34 154.829 214.948C161.092 210.564 161.742 201.859 164.838 195.031C168.38 187.207 170.954 178.981 170.572 170.302C170.164 161.099 176.267 136.759 175.808 136.995Z" fill="#EB755E"/>
<path d="M109.756 185.063C106.622 188.904 98.0787 188.809 97.2696 187.092C96.7855 186.058 93.0713 178.062 90.1981 171.878C89.5674 170.538 88.9877 169.274 88.4844 168.189C87.4587 165.987 86.7706 164.513 86.7706 164.513L96.0783 154.96C96.0783 154.96 97.1104 156.198 98.6776 158.074C99.5249 159.095 100.525 160.295 101.608 161.597C106.609 167.634 113.254 175.745 113.566 176.619C114.076 178.03 112.878 181.221 109.756 185.063Z" fill="#C27353"/>
<path d="M193.194 110.709C191.971 110.709 190.792 110.236 189.837 109.362C188.779 108.386 188.117 107.026 187.977 105.52C187.69 102.406 189.754 99.6619 192.589 99.3939C195.418 99.1258 197.96 101.449 198.246 104.563C198.386 106.063 197.985 107.524 197.125 108.679C196.252 109.847 195.016 110.562 193.634 110.69C193.487 110.702 193.341 110.709 193.194 110.709ZM193.029 100.179C192.908 100.179 192.786 100.185 192.665 100.198C190.276 100.421 188.537 102.776 188.786 105.444C188.907 106.746 189.474 107.926 190.385 108.762C191.283 109.592 192.411 109.988 193.564 109.879C194.71 109.771 195.749 109.171 196.482 108.194C197.221 107.199 197.565 105.935 197.444 104.64C197.208 102.106 195.265 100.179 193.029 100.179Z" fill="white"/>
<path d="M207.911 110.402C205.261 110.402 202.961 108.162 202.687 105.214C202.4 102.1 204.464 99.3555 207.299 99.0875C208.682 98.9599 210.026 99.4321 211.103 100.415C212.16 101.391 212.823 102.751 212.963 104.257C213.25 107.371 211.185 110.115 208.35 110.383C208.204 110.396 208.057 110.402 207.911 110.402ZM207.745 99.8788C207.624 99.8788 207.503 99.8852 207.376 99.898C204.987 100.121 203.247 102.47 203.496 105.144C203.744 107.811 205.885 109.809 208.28 109.579C210.669 109.356 212.409 107.001 212.16 104.333C212.039 103.031 211.472 101.851 210.561 101.015C209.752 100.274 208.764 99.8788 207.745 99.8788Z" fill="white"/>
<path d="M197.86 104.208L197.838 105.018L203.06 105.157L203.082 104.347L197.86 104.208Z" fill="white"/>
<path d="M212.256 103.325C212.141 103.325 212.033 103.28 211.95 103.191C211.803 103.025 211.816 102.77 211.988 102.623L219.748 95.769C219.913 95.6222 220.168 95.635 220.315 95.8073C220.461 95.9732 220.448 96.2285 220.276 96.3753L212.517 103.229C212.447 103.293 212.351 103.325 212.256 103.325Z" fill="white"/>
<path d="M96.607 151.896L97.913 158.655L94.3072 167.947L87.1783 165.579L74.9082 160.799L82.9608 147.582L96.607 151.896Z" fill="#C27353"/>
<path d="M87.7581 150.493C87.4842 150.154 88.9367 144.87 88.6564 144.551C88.1913 144.021 82.8399 141.935 80.4764 140.697C80.2597 140.582 80.0623 140.69 79.9667 140.85C79.1066 140.55 78.2275 140.397 77.4439 140.601C75.9659 140.984 75.2651 142.63 75.0676 144.015C74.9274 145.011 75.1377 145.93 75.195 146.912C75.246 147.889 75.1695 149.191 74.7108 150.103C74.4496 150.627 74.0992 150.978 73.8826 151.546C73.5896 152.311 73.5067 153.115 73.5832 153.932C73.6851 155.017 73.9336 155.17 73.4239 156.657C73.3092 156.996 73.0353 157.296 72.9525 157.653C72.583 159.178 73.6851 160.135 74.9211 160.805C76.6539 161.737 79.4061 162.88 81.4065 162.529C82.5277 162.331 83.1648 161.431 83.1266 160.308C83.1266 160.269 83.1138 160.244 83.1138 160.206C83.8783 160.289 84.6492 160.11 85.3691 159.497C86.1973 158.789 86.089 158.151 86.2801 157.187C86.5604 155.764 88.3251 155.164 88.6182 153.581C88.8029 152.471 88.4525 151.354 87.7581 150.493Z" fill="#C27353"/>
<path d="M95.9382 148.584C94.6832 144.207 91.9565 139.401 87.6307 138.297C86.1336 137.914 84.5154 138.055 83.0757 137.429C81.7951 136.874 80.7631 135.904 79.5463 135.234C78.4632 134.64 76.6794 133.932 76.1697 135.553C75.7174 136.982 76.8387 138.635 77.8134 139.548C79.7629 141.379 82.4449 142.209 84.388 144.092C86.8344 146.459 86.4522 149.408 87.6881 152.299C88.5035 154.213 90.1918 155.789 92.2049 156.364C95.7662 157.385 97.0276 154.207 96.5371 151.201C96.3969 150.378 96.1994 149.491 95.9382 148.584Z" fill="#C27353"/>
<path d="M86.414 145.33C84.6875 143.677 82.5851 142.503 80.3617 141.667C79.8776 141.482 79.661 142.267 80.1451 142.445C81.8525 143.083 83.4006 143.913 84.8213 145.036C85.5858 145.643 86.4012 146.306 86.9364 147.136C87.7901 148.457 86.879 149.427 85.3373 149.057C83.802 148.693 82.4131 147.736 80.9797 147.11C79.5845 146.498 78.1447 145.981 76.7049 145.457C76.2144 145.279 76.0041 146.064 76.4883 146.236C79.2086 147.219 81.7633 148.712 84.4836 149.638C84.5665 149.669 84.8149 149.816 84.8531 149.855C85.9362 150.518 86.0636 151.884 85.6113 152.401C85.1589 152.918 83.6873 153.575 82.5788 152.969C81.9735 152.835 81.3747 152.656 80.7759 152.477C79.2532 152.024 77.7752 151.475 76.3163 150.856C75.8449 150.652 75.4308 151.348 75.9086 151.552C77.5459 152.248 79.2023 152.873 80.916 153.364C81.6996 153.588 82.6234 153.901 83.528 153.996C83.5153 154.098 83.5471 154.207 83.63 154.309C84.1842 156 83.8529 156.906 82.6361 157.021C82.2411 157.2 81.827 157.238 81.4066 157.155C80.6357 157.136 79.7056 156.913 78.9347 156.785C77.616 156.568 76.3163 156.287 75.0294 155.911C74.5325 155.764 74.3159 156.543 74.8128 156.689C76.431 157.162 78.0746 157.468 79.7374 157.723C79.7565 157.761 79.7693 157.8 79.8011 157.838C80.3426 158.47 81.0116 159.217 80.9287 160.116C80.8523 160.952 80.1451 161.418 79.3488 161.348C78.8328 161.303 78.8328 162.107 79.3488 162.159C80.349 162.248 81.3683 161.642 81.6614 160.652C81.9672 159.631 81.4894 158.706 80.8842 157.908C81.6805 158.023 82.5023 158.087 83.2541 157.768C84.8531 157.091 85.3246 155.356 84.3881 154.015C84.6811 153.99 84.9678 153.939 85.2418 153.83C87.1848 153.065 86.9236 151.354 85.9999 150.008C86.8663 150.116 87.7709 150.033 88.1596 149.331C88.9304 147.972 87.2931 146.172 86.414 145.33Z" fill="#944C2F"/>
<path d="M91.0074 159.21C88.9879 157.047 87.6819 154.366 88.2297 151.348C88.3189 150.837 87.5417 150.62 87.4525 151.131C86.8537 154.449 88.2043 157.391 90.4404 159.778C90.7908 160.167 91.3578 159.593 91.0074 159.21Z" fill="#944C2F"/>
<path d="M142.387 215.561C140.922 210.188 139.979 204.629 135.851 200.583C135.787 200.519 135.717 200.494 135.653 200.481C134.258 197.558 132.296 194.922 130.257 192.414C129.926 192.012 129.359 192.587 129.684 192.989C132.525 196.48 135.201 200.238 136.322 204.667C137.495 209.288 137.539 214.291 137.966 219.02C138.011 219.537 138.82 219.537 138.775 219.02C138.316 213.991 138.323 208.618 136.908 203.736C136.787 203.321 136.647 202.919 136.501 202.517C139.489 206.295 140.342 211.138 141.61 215.772C141.744 216.276 142.521 216.059 142.387 215.561Z" fill="#D4553D"/>
<path d="M267.394 241.911C265.216 237.801 262.221 234.023 258.138 231.681C255.984 230.443 253.614 229.748 251.232 229.109C248.696 228.433 246.186 227.833 243.625 228.688C243.135 228.854 243.345 229.633 243.842 229.467C246.575 228.554 249.327 229.409 252.003 230.156C254.181 230.762 256.316 231.49 258.252 232.69C261.96 234.987 264.674 238.503 266.694 242.32C266.942 242.779 267.637 242.377 267.394 241.911Z" fill="#D4553D"/>
<path d="M261.629 244.917C258.934 238.088 253.723 232.607 247.014 229.633C246.543 229.422 246.135 230.118 246.607 230.328C253.118 233.213 258.233 238.497 260.852 245.128C261.043 245.613 261.82 245.402 261.629 244.917Z" fill="#D4553D"/>
<path d="M232.228 248.618C230.291 245.574 227.66 242 223.608 242.543C223.099 242.613 223.092 243.417 223.608 243.353C227.552 242.83 230.132 246.627 231.89 249.608C233.795 252.837 234.146 256.487 232.948 260.035C232.782 260.527 233.559 260.744 233.725 260.252C235.076 256.245 234.483 252.173 232.228 248.618Z" fill="#D4553D"/>
<path d="M115.911 179.447C113.184 187.66 104.8 192.344 96.3842 190.391C95.8809 190.276 95.6643 191.055 96.1676 191.17C105.029 193.225 113.821 188.304 116.688 179.664C116.853 179.172 116.076 178.955 115.911 179.447Z" fill="#D4553D"/>
<path d="M168.297 146.115C168.265 145.598 167.456 145.591 167.488 146.115C167.851 151.539 165.386 156.434 164.405 161.661C163.468 166.658 164.762 171.591 164.526 176.6C164.271 181.999 160.894 186.218 159.41 191.259C157.989 196.084 157.964 201.183 157.964 206.167C157.715 206.371 157.792 206.888 158.206 206.888C158.314 206.888 158.397 206.85 158.461 206.792C158.626 206.76 158.773 206.639 158.773 206.416C158.773 200.947 158.779 195.324 160.633 190.104C162.271 185.49 165.106 181.648 165.341 176.6C165.596 171.15 164.22 165.93 165.481 160.506C166.59 155.713 168.629 151.137 168.297 146.115Z" fill="#D4553D"/>
<path d="M223.85 182.363V184.52C223.85 185.043 224.659 185.043 224.659 184.52V182.363C224.653 181.846 223.85 181.846 223.85 182.363Z" fill="#D4553D"/>
<path d="M218.333 205.14V207.297C218.333 207.82 219.142 207.82 219.142 207.297V205.14C219.142 204.616 218.333 204.616 218.333 205.14Z" fill="#D4553D"/>
<path d="M217.008 232.658C216.779 233.417 216.549 234.183 216.32 234.942C216.167 235.44 216.951 235.657 217.097 235.159C217.327 234.4 217.556 233.634 217.785 232.875C217.938 232.37 217.161 232.16 217.008 232.658Z" fill="#D4553D"/>
<path d="M101.614 161.59C100.041 165.017 97.7092 167.947 94.1097 170.008C92.8611 170.729 91.5487 171.348 90.2044 171.878C89.5737 170.538 88.994 169.274 88.4907 168.189C89.338 167.876 90.1599 167.513 90.9689 167.104C95.059 165.069 97.2951 161.903 98.6839 158.068C99.5312 159.089 100.531 160.295 101.614 161.59Z" fill="#3B251D"/>
<path d="M224.335 75.7367C223.213 75.9154 222.2 76.343 221.372 77.1471C221.111 77.4024 220.843 77.7278 220.646 78.0342C220.155 78.7808 219.894 79.0297 219.091 79.4956C216.957 80.7528 215.435 82.3227 214.466 84.6457C214.269 85.1243 215.046 85.3349 215.243 84.8626C215.728 83.7012 216.39 82.6482 217.295 81.7675C218.206 80.8804 219.27 80.5039 220.283 79.8083C220.767 79.4764 220.875 79.1829 221.206 78.6723C222.009 77.4343 223.099 76.7514 224.538 76.5217C225.061 76.4387 224.844 75.6602 224.335 75.7367Z" fill="#544743"/>
<path d="M214.007 78.1745C212.236 79.8721 210.516 81.7419 210.497 84.3393C210.491 84.8626 211.3 84.8626 211.306 84.3393C211.325 81.9589 212.975 80.2869 214.581 78.7425C214.95 78.3851 214.383 77.8172 214.007 78.1745Z" fill="#544743"/>
<path d="M194.704 73.6117C192.653 76.6047 191.525 79.9679 191.347 83.5927C191.321 84.1097 192.13 84.1097 192.156 83.5927C192.334 80.1019 193.43 76.8983 195.405 74.0201C195.692 73.5925 194.997 73.1905 194.704 73.6117Z" fill="#544743"/>
<path d="M217.811 158.514C217.805 158.514 217.792 158.514 217.785 158.514C217.562 158.502 217.39 158.31 217.41 158.087C218.225 144.366 220.079 108.711 220.098 108.354C220.111 108.131 220.295 107.958 220.525 107.971C220.748 107.984 220.92 108.175 220.907 108.399C220.888 108.756 219.034 144.417 218.219 158.138C218.2 158.349 218.021 158.514 217.811 158.514Z" fill="#FFE1C7"/>
<path d="M222.423 104.563C222.175 105.437 221.264 105.948 220.385 105.699C219.506 105.45 218.989 104.538 219.238 103.663C219.486 102.789 220.397 102.278 221.277 102.527C222.156 102.77 222.672 103.682 222.423 104.563Z" fill="white"/>
<path d="M220.487 109.483L220.321 109.471C219.958 109.445 219.69 109.132 219.716 108.769L219.996 104.703C220.021 104.34 220.334 104.072 220.697 104.091L220.862 104.104C221.226 104.129 221.493 104.442 221.468 104.806L221.187 108.871C221.155 109.241 220.843 109.509 220.487 109.483Z" fill="white"/>
<path d="M217.996 188.037H216.919C216.288 188.037 215.779 187.526 215.779 186.894V178.394C215.779 177.762 216.288 177.251 216.919 177.251H217.996C218.626 177.251 219.136 177.762 219.136 178.394V186.894C219.142 187.526 218.626 188.037 217.996 188.037Z" fill="#FFE1C7"/>
</g>
</svg>
