<svg width="350" height="323" viewBox="0 0 350 323" fill="none" xmlns="http://www.w3.org/2000/svg">
<mask id="mask0" mask-type="alpha" maskUnits="userSpaceOnUse" x="0" y="0" width="350" height="323">
<rect width="350" height="323" rx="80" fill="#C4C4C4"/>
</mask>
<g mask="url(#mask0)">
<path d="M81.8473 185.59C82.7473 184.96 84.3773 185.78 85.1973 186.02C87.0273 186.56 88.8473 187.15 90.6373 187.8C93.9073 188.99 97.1973 190.31 100.227 192.05C102.747 193.5 105.117 195.3 106.907 197.62C108.187 199.27 109.777 204.09 109.167 203.87C104.387 202.12 102.627 203.11 98.8873 202.31C95.9273 201.68 92.1373 199.49 89.6873 197.61C87.0273 195.56 84.7273 192.94 82.9173 190.11C82.2673 189.11 80.3073 186.67 81.8473 185.59Z" fill="#EB8773"/>
<path d="M228.657 259.86C229.517 256.93 231.577 254.56 234.067 252.88C234.017 252.77 233.967 252.66 233.917 252.55C233.647 251.97 234.507 251.46 234.777 252.05C237.897 258.81 241.927 265.75 243.007 273.22C243.537 276.91 243.377 280.64 243.087 284.34C242.817 287.8 242.957 291.72 242.117 295.09C241.717 296.71 240.447 297.47 238.847 296.89C236.417 296.01 235.207 292.79 234.627 290.52C232.727 283.18 233.827 275.5 230.287 268.53C228.827 265.66 227.707 263.1 228.657 259.86Z" fill="white"/>
<path d="M144.697 78.29C145.577 75.27 148.207 72.65 151.427 72.37C152.787 72.25 153.897 72.55 154.817 73.12C154.827 73.12 154.827 73.12 154.837 73.13C158.237 74.75 159.537 79.51 159.857 82.97C160.177 86.48 159.027 90.35 155.717 92.09C147.937 96.19 142.947 84.31 144.697 78.29Z" fill="white"/>
<path d="M103.787 192.27C103.887 191.96 104.137 191.85 104.387 191.87C104.527 191.74 104.727 191.65 104.967 191.71C117.997 194.61 131.197 196.21 144.287 198.75C149.847 199.83 155.797 201.01 161.047 203.2C163.187 204.09 164.007 205.82 165.197 207.73C167.047 210.7 168.897 213.67 170.747 216.64C170.877 216.85 170.807 217.23 170.607 217.38C168.207 219.1 165.577 219.48 162.667 219.49C159.117 219.51 155.507 219.39 151.977 218.98C144.757 218.15 138.107 215.11 131.397 212.5C123.787 209.55 116.177 206.61 108.577 203.66C106.557 202.88 103.547 202.3 102.587 200.06C101.567 197.66 103.087 194.53 103.787 192.27Z" fill="#EB8773"/>
<path d="M147.387 261.92C147.357 261.28 148.357 261.28 148.387 261.92C148.397 262.09 148.397 262.26 148.407 262.42C151.297 262.24 153.247 259.99 155.517 258.43C157.867 256.82 160.587 256.29 163.377 256.04C168.517 255.58 173.887 256.12 178.677 258.11C182.897 259.87 186.517 262.82 188.647 266.91C191.537 272.44 191.597 278.87 193.017 284.83C195.807 296.51 203.027 306.39 209.907 315.98C213.427 320.89 216.957 325.82 219.967 331.07C223.287 336.87 225.657 343.24 229.617 348.67C233.387 353.85 238.397 358.02 242.077 363.26C245.647 368.36 238.507 372.08 237.077 376.56C236.337 378.89 236.797 381.59 235.247 383.64C233.817 385.53 231.247 386.11 229.167 386.97C226.067 388.25 223.077 389.79 220.227 391.55C217.617 393.16 215.357 395.33 212.777 396.93C211.177 397.92 209.837 397.68 208.447 396.49C205.937 394.34 203.887 391.49 201.487 389.19C196.517 384.43 191.077 380.17 185.527 376.11C175.737 368.94 164.427 362.57 156.487 353.23C152.147 348.12 149.587 342.19 148.667 335.55C147.607 327.86 148.207 319.97 148.287 312.23C148.437 295.45 148.137 278.68 147.387 261.92Z" fill="#221F44"/>
<path d="M113.247 192.08C116.187 192.39 119.137 192.71 122.077 193.02C126.867 193.53 126.377 188.35 126.667 185.02C127.117 179.78 128.387 175.58 131.027 171.04C132.417 168.65 133.827 166.24 134.447 163.52C135.147 160.41 134.907 157.17 134.757 154.01C134.647 151.68 134.607 149.36 134.607 147.04C134.967 147 135.307 146.93 135.657 146.85C135.657 148.35 135.677 149.85 135.707 151.35C139.167 152.84 141.177 156.85 142.667 160.11C144.497 164.13 145.607 168.43 146.367 172.77C148.157 182.89 148.927 193.34 148.977 203.61C149.007 209.13 148.757 214.65 148.127 220.13C147.897 222.11 147.937 224.7 147.187 226.55C146.737 227.66 146.137 227.91 144.947 227.84C142.927 227.73 140.967 226.7 138.967 226.37C136.157 225.92 133.437 226.95 130.627 226.68C125.877 226.22 121.057 223.58 116.697 221.73C115.447 221.2 114.787 220.73 114.707 219.31C114.627 217.94 115.137 216.4 115.277 215.04C115.417 213.68 115.497 212.31 115.527 210.95C115.667 204.74 114.687 198.6 112.767 192.71C112.677 192.43 112.927 192.05 113.247 192.08Z" fill="#565494"/>
<path d="M186.897 117.65C182.637 118.83 178.217 119.3 173.847 118.99C173.047 110.84 172.047 102.73 170.807 94.68C170.427 92.22 171.737 89.95 172.657 87.52C173.317 85.78 174.607 84.69 175.837 83.77C179.967 80.7 183.487 77.42 186.347 72.25C185.657 70.95 184.897 69.71 184.017 68.55C183.677 68.1 184.247 67.45 184.587 67.89C188.547 73.1 190.507 80.11 191.767 87.27C193.307 95.97 194.297 104.89 195.467 113.7C192.807 115.52 190.017 116.79 186.897 117.65Z" fill="#EB8773"/>
<path d="M189.667 46.49C188.567 46.65 187.457 46.74 186.347 46.76C182.867 46.8 179.427 46.51 175.957 46.33C175.557 46.31 171.597 46.48 172.907 46.28C171.727 46.41 170.547 46.55 169.367 46.71C166.027 47.16 162.707 47.72 159.407 48.4C157.617 48.77 155.827 49.17 154.057 49.61C153.917 49.64 148.347 51.18 151.757 50.14C151.367 50.26 150.977 50.36 150.587 50.46C145.537 56.5 146.297 61.44 147.537 71.57C148.367 78.37 149.707 91.15 154.177 100.06C157.547 106.77 159.787 109.38 166.267 109.41C172.227 109.43 180.817 104.8 184.667 102.71C189.827 99.9 190.607 97.6 192.837 92.51C192.957 92.45 199.147 58.33 190.087 47C189.957 46.82 189.807 46.65 189.667 46.49Z" fill="#EB8773"/>
<path d="M154.337 81.4601C154.757 83.1301 154.497 84.6401 153.767 84.8201C153.027 85.0001 152.097 83.8001 151.677 82.1301C151.257 80.4601 151.517 78.9501 152.247 78.7701C152.977 78.5901 153.917 79.7901 154.337 81.4601Z" fill="#221F44"/>
<path d="M171.417 80.03C171.757 81.72 171.437 83.21 170.687 83.36C169.937 83.51 169.067 82.26 168.727 80.57C168.387 78.88 168.707 77.39 169.457 77.24C170.187 77.09 171.067 78.34 171.417 80.03Z" fill="#221F44"/>
<path d="M170.097 95.35C169.337 97.25 166.397 98.53 164.327 98.69C161.137 98.94 158.657 96.79 158.557 96.67C158.167 96.17 158.057 96 158.157 95.74C158.247 95.51 158.387 95.58 158.727 95.65C161.807 96.3 166.217 95.7 169.537 94.73C169.887 94.63 170.217 95.05 170.097 95.35Z" fill="#CC6C59"/>
<path d="M177.377 73.43C176.877 74.32 175.777 74.07 174.897 74.02C172.157 73.86 169.637 74.16 166.957 74.82C166.077 75.04 164.817 75.56 163.947 75.07C161.977 73.95 164.557 72.1 165.897 71.63C169.197 70.46 173.377 70.23 176.317 71.58C176.847 71.82 177.697 72.85 177.377 73.43Z" fill="#221F44"/>
<path d="M154.797 72.39C152.517 72.2 149.947 72.57 147.767 73.5C147.837 74.32 147.917 75.17 147.997 76.04C148.017 76.24 148.047 76.47 148.067 76.69C150.177 76.07 152.247 75.78 154.477 75.73C155.327 75.71 156.607 75.89 157.297 75.2C158.897 73.62 156.127 72.5 154.797 72.39Z" fill="#221F44"/>
<path d="M159.037 79.4301C158.247 82.6801 153.837 91.8101 160.667 91.1201C161.307 91.0601 161.097 90.0801 160.457 90.1401C155.317 90.6601 159.427 82.0501 159.987 79.7401C160.147 79.1201 159.197 78.8101 159.037 79.4301Z" fill="#CC6C59"/>
<path d="M165.057 89.7401C164.457 89.8901 163.877 89.92 163.267 89.85C162.627 89.77 162.567 90.77 163.207 90.85C163.897 90.93 164.587 90.89 165.267 90.72C165.887 90.57 165.687 89.5901 165.057 89.7401Z" fill="#CC6C59"/>
<path d="M161.977 222.93C164.527 222.15 167.237 221.81 169.897 221.98C171.527 222.09 173.167 222.18 174.807 222.23C175.157 222.23 175.757 222.23 176.197 222.22C178.997 222.15 181.797 222.03 184.587 221.79C189.667 221.35 194.667 220.53 199.647 219.48C201.627 219.06 203.607 218.63 205.577 218.2C206.047 218.1 206.347 218.04 206.517 218.02C207.157 217.82 207.787 217.58 208.397 217.38C210.287 216.76 212.067 215.8 213.927 215.16C214.197 214.95 214.477 214.72 214.757 214.5C214.967 213.83 215.217 213.08 215.267 212.85C215.477 211.88 215.657 210.9 215.877 209.93C217.187 204.07 219.097 198.36 220.827 192.62C220.007 195.36 221.287 190.08 221.417 189.04C221.707 186.84 221.857 184.62 222.087 182.41C222.637 177.23 223.717 171.76 226.167 167.14C227.407 164.8 228.967 162.8 230.757 161.17C231.807 151.5 232.377 143.63 232.047 140.18C231.697 136.5 231.157 132.83 230.387 129.18C229.777 126.29 229.257 123.13 227.597 120.49C224.437 115.49 216.647 113.97 210.947 112.81C195.687 109.73 164.867 115.28 164.347 115.42C164.337 115.42 164.327 115.42 164.317 115.43C155.067 117.92 144.717 121.38 141.137 130.05C139.257 134.59 139.557 139.67 140.267 144.53C141.207 151.06 159.087 214.58 161.977 222.93Z" fill="#EB8773"/>
<path d="M165.287 387.25C165.967 380.92 167.097 374.64 168.157 368.36C169.247 361.91 170.237 355.44 170.627 348.91C171.017 342.26 170.897 335.6 171.037 328.95C171.167 322.77 171.527 316.57 172.717 310.49C173.927 304.32 176.097 298.38 177.317 292.21C178.817 284.61 178.357 276.84 178.957 269.15C179.507 262.14 181.057 255.28 183.487 248.68C183.557 248.49 183.757 248.29 183.977 248.33C199.587 250.87 228.067 249.53 227.867 248.33C227.757 247.7 233.687 257.19 233.797 257.83C234.047 259.33 241.597 268.62 223.577 315.11C219.797 324.85 221.487 335.55 221.197 345.96C220.927 355.71 219.287 364.76 216.067 373.96C212.487 384.2 208.107 394.38 208.147 405.42C208.147 405.82 207.697 406 207.377 405.83C195.917 399.46 183.587 395.91 170.587 394.54C169.037 394.38 167.307 394.23 166.117 393.11C164.537 391.61 165.077 389.19 165.287 387.25Z" fill="#221F44"/>
<path d="M145.247 282.72C145.737 276.65 146.017 270.51 146.747 264.46C147.157 261.08 148.737 257.37 152.637 257.33C175.677 254.34 198.857 252.58 222.087 252.09C222.727 252.08 222.727 253.08 222.087 253.09C222.027 253.09 221.957 253.09 221.897 253.1C221.897 253.18 221.877 253.27 221.817 253.36C218.837 257.65 216.437 262.26 214.717 267.19C213.587 270.41 212.677 273.91 210.467 276.6C207.987 279.62 204.507 280.19 200.797 280.47C195.637 280.86 190.437 281.11 185.357 282.16C180.497 283.16 176.207 285.24 171.667 287.12C167.317 288.92 163.407 289.28 158.767 289.38C156.167 289.43 154.007 289.98 151.607 290.94C150.257 291.48 148.717 292.06 147.277 291.49C143.967 290.17 145.037 285.37 145.247 282.72Z" fill="white"/>
<path d="M135.317 163.48C134.707 156.71 134.047 149.79 134.797 143C135.417 137.42 137.137 132 140.647 127.56C143.957 123.38 148.477 120.32 153.297 118.15C159.917 115.18 176.077 111.64 191.877 111.38C207.497 111.12 220.377 112.88 226.377 117.13C231.227 120.56 234.107 128.13 237.097 133.24C240.147 138.45 242.247 143.93 242.717 150C243.757 163.43 238.447 176.36 237.507 189.64C236.997 196.82 237.507 204.02 238.907 211.08C240.147 217.33 241.927 223.59 241.907 230.01C241.897 233.29 241.357 236.53 240.097 239.57C238.697 242.95 236.477 245.95 235.207 249.4C234.267 251.94 233.947 254.59 233.777 257.25C229.397 256.99 225.037 256.85 220.567 257.47C213.527 258.45 206.747 260.39 199.967 262.46C187.037 266.41 173.977 268.41 160.747 270.68C155.717 271.14 150.687 271.68 145.667 272.31C145.387 272.34 145.187 272.05 145.167 271.81C144.127 256.56 145.847 243.99 142.747 229.03C141.377 222.43 139.717 215.91 140.777 209.14C141.327 205.62 142.317 202.17 142.537 198.6C142.777 194.64 138.427 188.08 137.837 184.17C136.807 177.3 135.937 170.4 135.317 163.48Z" fill="#565494"/>
<path d="M176.037 325.78C178.927 312.04 181.147 298.16 182.737 284.21C182.807 283.58 183.807 283.57 183.737 284.21C182.207 297.61 180.107 310.94 177.397 324.15C174.617 337.67 169.937 351.3 170.267 365.24C170.287 365.88 169.287 365.88 169.267 365.24C168.947 351.82 173.307 338.77 176.037 325.78Z" fill="#565494"/>
<path d="M223.117 255.41C224.297 253.89 225.597 252.4 227.197 251.31C228.817 250.2 230.917 249.81 232.347 248.44C234.017 246.83 235.067 244.18 236.137 242.14C237.267 240 240.737 233.24 241.757 231.04C242.027 230.46 250.157 236 250.197 236.87C250.257 237.95 244.837 245.3 244.407 246.29C243.707 247.91 238.837 254 238.027 255.54C237.287 256.93 238.227 258.41 237.667 259.89C236.467 263.03 235.327 266.06 233.657 269.01C233.527 269.24 233.217 269.34 232.977 269.21C229.127 267.08 225.037 264.54 221.937 261.36C219.837 259.2 221.537 257.46 223.117 255.41Z" fill="#EB8773"/>
<path d="M214.937 116.32C216.017 114.66 218.437 114.16 219.807 115.54C219.857 115.5 219.887 115.44 219.887 115.37C219.747 115.03 220.007 114.53 220.457 114.68C230.747 117.91 237.727 126.97 242.287 136.32C247.417 146.84 249.867 158.38 252.857 169.63C254.457 175.63 256.267 181.54 258.537 187.32C260.787 193.06 263.297 198.7 265.337 204.52C269.197 215.59 270.587 227.01 266.277 238.17C263.757 244.71 259.927 250.56 255.547 256.01C248.957 248.15 241.417 241.26 233.517 234.75C234.397 229.94 234.687 224.99 234.707 220.08C234.737 209.9 233.987 199.68 232.677 189.58C231.337 179.22 229.337 168.94 226.707 158.83C224.107 148.84 220.677 139.15 217.317 129.41C216.387 126.72 215.357 124.02 214.657 121.26C214.257 119.68 213.987 117.78 214.937 116.32Z" fill="#565494"/>
<path d="M171.567 112.74C171.567 112.53 171.637 112.33 171.807 112.2C174.327 110.36 177.577 110.52 180.347 110.36C184.437 108.99 188.907 109.42 193.047 109.68C193.357 109.7 193.507 110.04 193.527 110.38C194.137 110.38 194.747 110.39 195.347 110.4C192.777 117.14 188.237 121.93 182.837 123C176.867 124.19 171.717 121.06 169.157 113.29C169.957 113.1 170.757 112.92 171.567 112.74Z" fill="#EB8773"/>
<path d="M142.037 56.79C142.757 54.17 144.287 50.97 147.767 50.38C149.757 50.05 149.307 47.32 150.617 45.77C151.647 44.56 152.727 43.5 154.077 42.64C159.977 38.88 167.217 39.76 173.657 41.41C174.827 41.59 175.987 41.86 177.117 42.24C179.457 43.02 181.177 43.35 183.527 42.34C184.687 41.84 185.817 41.39 187.107 41.37C189.357 41.34 191.607 42.34 193.107 44.01C195.077 46.2 194.727 48.98 195.817 51.53C196.497 53.12 197.937 53.75 198.837 55.14C199.487 56.14 199.707 57.36 199.817 58.54C200.147 62.24 198.997 65.46 197.967 68.94C197.617 70.12 197.327 71.35 197.377 72.59C197.437 74.07 198.137 75.4 198.397 76.84C198.667 78.35 198.497 79.87 198.107 81.35C197.597 83.29 196.657 85.06 195.957 86.93C194.917 89.73 194.297 93.31 194.997 96.22C195.147 96.85 191.487 92.93 191.347 91.03C190.987 86.23 191.837 81.35 190.897 76.59C190.657 75.4 190.377 73.64 189.367 72.83C187.687 71.47 187.747 72.76 186.547 72.62C185.227 72.47 184.347 72.06 183.547 70.92C182.637 69.62 182.497 67.99 181.737 66.62C180.567 64.51 178.107 62.92 175.897 62.1C173.247 61.11 171.187 62.12 168.547 62.38C167.977 62.44 167.397 62.43 166.827 62.4C165.797 62.58 164.647 62.52 163.197 62.24C160.477 61.71 158.687 62.13 156.397 63.7C155.197 64.52 154.207 65.15 152.707 65.07C151.957 65.03 151.257 64.7 150.507 64.62C149.427 64.5 148.567 65.03 147.547 65.06C147.067 65.07 146.677 65.07 146.327 64.96C145.427 65.38 144.457 65.39 143.407 64.51C141.237 62.7 141.357 59.29 142.037 56.79Z" fill="#221F44"/>
<path d="M193.207 84.3301C192.547 85.5901 189.507 90.0101 187.607 88.5901C186.317 87.6301 185.967 83.9301 185.717 82.4901C185.267 79.9301 184.907 77.3501 184.517 74.7901C184.057 75.0201 183.567 74.3201 184.017 73.9401C186.757 71.6101 189.787 70.2701 192.397 73.5201C194.807 76.5601 194.987 80.9501 193.207 84.3301Z" fill="#EB8773"/>
<path d="M188.627 75.16C188.987 74.63 188.097 74.17 187.737 74.7C186.707 76.22 185.467 78.13 185.927 80.07C186.017 80.45 186.117 80.81 186.427 81.08C186.567 81.21 186.847 81.24 186.977 81.37C187.097 81.4 187.217 81.44 187.337 81.47C188.907 83.16 188.967 84.42 187.537 85.26C187.047 85.66 187.587 86.51 188.087 86.1C189.377 85.04 190.777 83.51 189.607 81.82C189.027 80.99 188.257 81.05 187.557 80.5C185.787 79.12 187.757 76.45 188.627 75.16Z" fill="#CC6C59"/>
<path d="M142.277 146.99C142.457 146.37 143.417 146.64 143.237 147.26C141.707 152.56 141.217 157.99 141.737 163.47C141.797 164.11 140.797 164.11 140.737 163.47C140.217 157.89 140.727 152.37 142.277 146.99Z" fill="#565494"/>
<path d="M182.607 76.0001C183.487 72.9801 186.117 70.3601 189.337 70.0701C190.697 69.9501 191.807 70.2501 192.727 70.8201C192.727 70.8201 192.737 70.8201 192.747 70.8301C196.147 72.4501 197.447 77.2101 197.767 80.6701C198.087 84.1801 196.937 88.0501 193.627 89.7901C185.847 93.8901 180.857 82.0201 182.607 76.0001Z" fill="white"/>
<path d="M148.137 48.14C157.737 46.95 169.827 43.87 178.797 49.11C186.457 53.58 189.397 66.04 190.507 74.11C190.767 76 187.877 76.81 187.617 74.91C186.547 67.07 183.717 54.18 175.557 50.92C167.057 47.52 156.877 50.06 148.137 51.14C146.227 51.38 146.247 48.38 148.137 48.14Z" fill="white"/>
<path d="M156.627 108.12C158.147 107.66 160.237 108.01 161.807 108.02C163.827 108.04 166.057 108.34 168.017 107.79C169.807 107.29 171.917 106.35 172.677 108.77C173.127 110.2 172.717 111.73 173.157 113.19C173.677 114.93 174.677 116.5 175.217 118.24C175.847 120.27 176.097 122.34 176.047 124.42C179.137 119.69 183.427 115.9 187.557 112.03C190.177 109.58 192.767 107.05 194.887 104.15C196.977 101.3 198.177 97.5301 200.937 95.2301C202.687 93.7701 205.377 92.9301 207.517 94.0801C208.587 94.6601 209.237 95.6801 209.847 96.6901C211.167 98.8901 212.347 99.7901 214.947 100.32C223.017 101.98 222.707 109.79 224.147 116.41C224.287 117.04 223.317 117.31 223.187 116.68C223.117 116.36 223.057 116.03 222.997 115.71C222.977 115.72 222.947 115.74 222.927 115.74C222.907 115.92 222.807 116.09 222.597 116.18C218.587 117.79 214.567 119.41 210.387 120.52C206.227 121.63 202.017 121.86 197.777 122.51C190.207 123.67 183.347 127.76 175.637 128.1C175.527 128.6 174.887 128.51 174.717 128.12C174.627 128.11 174.547 128.09 174.487 128.05C172.407 128.53 170.077 126.65 168.387 125.69C165.297 123.93 162.267 121.99 159.757 119.46C158.057 117.76 151.567 109.65 156.627 108.12Z" fill="#565494"/>
<path d="M154.477 182.64C154.807 178.7 156.157 174.97 157.097 171.16C158.187 166.74 158.067 162.65 157.567 158.17C157.367 156.38 156.047 152.42 158.137 151.35C159.437 150.68 162.087 150.88 163.547 150.72C165.817 150.48 168.077 150.26 170.347 150.04C179.417 149.2 188.507 148.58 197.617 148.18C198.087 148.16 198.207 148.68 197.997 148.98C197.257 153.43 198.387 157.76 198.757 162.19C199.077 165.97 198.417 169.45 197.367 173.07C196.157 177.26 195.047 181.29 195.127 185.71C195.207 190.47 196.247 195.16 197.277 199.79C197.337 200.05 197.207 200.34 196.927 200.41C186.807 202.74 161.037 205.59 158.537 205.59C158.327 205.59 158.097 205.44 158.057 205.22C157.707 203.46 157.837 201.77 157.977 200C158.187 197.38 157.837 195.29 156.767 192.9C155.247 189.5 154.167 186.44 154.477 182.64Z" fill="white"/>
<path d="M161.307 122.34C164.717 125.7 170.157 126.55 172.107 131.33C172.347 131.93 171.387 132.18 171.147 131.6C169.327 127.16 163.807 126.21 160.607 123.05C160.137 122.59 160.847 121.89 161.307 122.34Z" fill="#565494"/>
<path d="M81.3173 172.81C85.4173 173.21 89.1273 173.6 95.1673 174.27C97.2373 174.5 97.0173 175 98.1573 176.42C103.087 182.54 107.377 188.39 112.117 194.67C112.277 194.88 112.407 195.36 110.647 195.28C110.427 195.27 100.147 194.55 99.9373 194.52C97.2073 194.17 97.4773 194.42 95.6373 192.44C91.0273 187.5 84.8273 179.17 81.0773 173.57C80.9173 173.32 80.9873 172.78 81.3173 172.81Z" fill="#221F44"/>
<path d="M83.2673 183.13C82.9473 182.43 82.8673 181.68 83.2573 181.14C83.1673 181.06 83.1073 180.94 83.1373 180.78C83.2873 179.88 83.4673 178.55 84.2873 177.98C85.4773 177.14 87.7073 178.09 88.9073 178.41C91.3673 179.06 95.8873 180.26 96.9673 182.96C97.5073 184.3 96.7873 184.47 95.9073 184.31C97.4673 185.49 98.8273 187.14 98.8873 188.94C98.9373 190.52 97.8173 190.31 96.6973 189.76C97.5273 190.74 98.0773 191.86 97.4073 192.66C96.9573 193.2 96.0773 192.81 95.5573 192.65C93.0673 191.9 90.6673 191.07 88.1273 190.47C85.5073 189.84 82.2373 188.72 81.2173 185.92C80.4773 183.92 81.7473 183.22 83.2673 183.13Z" fill="#EB8773"/>
<path d="M214.697 158.01C216.377 162.2 218.217 166.34 221.187 169.74C219.707 165.78 219.027 161.57 219.157 157.3C219.177 156.66 220.177 156.66 220.157 157.3C219.947 164.65 222.247 171.23 226.337 177.27C229.787 182.37 233.897 187.11 235.867 193.05C236.707 195.57 237.137 198.25 236.847 200.9C236.477 204.38 234.557 207.33 234.467 210.87C234.397 213.9 234.827 216.83 234.387 219.86C233.927 223.01 232.877 225.98 231.387 228.79C231.087 229.36 230.217 228.85 230.527 228.29C232.227 225.09 233.297 221.66 233.597 218.04C233.847 215 233.177 211.93 233.597 208.9C234.047 205.67 235.837 202.94 235.927 199.62C236.027 196.12 234.887 192.67 233.327 189.58C230.527 184.06 226.187 179.51 223.177 174.11C222.767 173.37 222.397 172.62 222.047 171.85C221.917 171.87 221.777 171.84 221.647 171.71C217.837 167.97 215.677 163.16 213.717 158.27C213.497 157.68 214.457 157.42 214.697 158.01Z" fill="#221F44"/>
<path d="M197.087 110.89C200.527 108.4 203.567 105.46 206.147 102.09C206.537 101.59 207.407 102.08 207.007 102.59C204.317 106.1 201.177 109.16 197.587 111.75C197.067 112.13 196.567 111.26 197.087 110.89Z" fill="#221F44"/>
<path d="M176.937 132.41C181.237 127.9 186.877 125.06 193.077 124.4C197.127 123.97 200.927 123.75 204.667 121.96C207.877 120.42 210.597 118.14 212.797 115.36C213.197 114.86 213.897 115.57 213.507 116.07C209.757 120.8 204.387 124.03 198.387 124.91C194.547 125.47 190.757 125.44 187.067 126.82C183.467 128.16 180.307 130.35 177.657 133.12C177.197 133.58 176.487 132.87 176.937 132.41Z" fill="#221F44"/>
<path d="M166.297 113.89C167.957 116.64 170.067 119.02 172.617 120.98C173.117 121.37 172.627 122.24 172.117 121.84C169.427 119.78 167.197 117.3 165.447 114.39C165.097 113.84 165.967 113.34 166.297 113.89Z" fill="#221F44"/>
<path d="M141.957 195.59C142.687 188.72 138.037 182.55 139.157 175.61C139.257 174.98 140.227 175.25 140.117 175.88C139.037 182.56 143.527 188.54 143.017 195.19C142.747 198.74 141.407 202.13 141.107 205.71C140.767 209.67 141.137 213.62 142.047 217.49C142.197 218.12 141.227 218.38 141.087 217.76C140.227 214.11 139.827 210.38 140.047 206.63C140.257 202.84 141.557 199.31 141.957 195.59Z" fill="#221F44"/>
<path d="M136.607 204.5C136.667 203.86 137.667 203.86 137.607 204.5C137.417 206.58 137.587 208.6 138.137 210.61C138.307 211.23 137.347 211.5 137.177 210.88C136.597 208.79 136.407 206.67 136.607 204.5Z" fill="#221F44"/>
<path d="M128.157 191.78C129.287 192.47 130.237 193.34 131.037 194.39C131.427 194.9 130.557 195.4 130.177 194.89C129.487 193.98 128.627 193.23 127.657 192.63C127.097 192.31 127.607 191.45 128.157 191.78Z" fill="#221F44"/>
</g>
</svg>
