<?xml version="1.0" encoding="UTF-8"?>
<svg width="217px" height="125px" viewBox="0 0 217 125" version="1.1" xmlns="http://www.w3.org/2000/svg" xmlns:xlink="http://www.w3.org/1999/xlink">
    <!-- Generator: Sketch 60.1 (88133) - https://sketch.com -->
    <title>Artboard</title>
    <desc>Created with Sketch.</desc>
    <g id="Artboard" stroke="none" stroke-width="1" fill="none" fill-rule="evenodd">
        <g id="Hounslow-Connect-Logo" transform="translate(6.000000, 7.000000)" fill-rule="nonzero">
            <polygon id="Path" fill="#FF5892" points="0 0 0 69.95 156.21 69.95 170.76 84.69 185.32 69.95 204.28 69.95 204.28 0"></polygon>
            <g id="Group" transform="translate(9.000000, 9.000000)" fill="#FFFFFF">
                <path d="M158.98,28.96 L152.91,28.96 L159.61,51.41 L165.53,51.41 L169.94,38.41 L170,38.41 L173.93,51.41 L179.93,51.41 L187.1,28.96 L181.03,28.96 L176.81,43.46 L176.75,43.46 L172.34,28.96 L167.7,28.96 L162.99,43.46 L162.93,43.46 L158.98,28.96 Z M140.92,33.88 C144.285121,33.8321262 147.087843,36.4494715 147.27,39.81 C147.362396,42.1369329 146.17366,44.3277623 144.172469,45.5187224 C142.171277,46.7096825 139.678723,46.7096825 137.677531,45.5187224 C135.67634,44.3277623 134.487604,42.1369329 134.58,39.81 C134.76717,36.4573432 137.562394,33.8472912 140.92,33.89 M140.92,28.23 C134.46,28.23 128.51,32.99 128.51,39.78 C128.51,47.05 133.72,52.17 140.92,52.17 C148.12,52.17 153.34,47.04 153.34,39.81 C153.34,33.02 147.39,28.26 140.92,28.26 M121.53,29 L115.69,29 L115.69,51.41 L128.52,51.41 L128.52,46.47 L121.52,46.47 L121.53,29 Z M112.81,30.21 C110.655977,29.0492725 108.256375,28.4185201 105.81,28.37 C101.31,28.37 98.07,31.37 98.07,35.9 C98.07,40.25 100.48,41.2 104.14,42.24 C105.39,42.6 107.68,43.17 107.68,44.8 C107.68,46.43 106.23,47.07 104.86,47.07 C102.906463,46.9530669 101.063551,46.1241121 99.68,44.74 L97.17,49.45 C99.4772832,51.0881996 102.230434,51.9814908 105.06,52.01 C107.369355,52.0725732 109.627362,51.3222637 111.44,49.89 C113.059852,48.3296873 113.90878,46.1341836 113.76,43.89 C113.76,40.26 111.35,38.68 108.22,37.76 L106.73,37.31 C105.73,36.98 104.14,36.48 104.14,35.17 C104.14,33.86 105.57,33.29 106.64,33.29 C108.063598,33.3236511 109.431403,33.8502738 110.51,34.78 L112.81,30.21 Z M72.71,51.41 L78.55,51.41 L78.55,37.66 L78.61,37.66 L89.28,51.41 L95.11,51.41 L95.11,28.96 L89.28,28.96 L89.28,42.69 L89.22,42.69 L78.53,28.96 L72.69,28.96 L72.71,51.41 Z M63.95,28.96 L63.95,40.81 C63.95,43.73 63.74,46.92 59.95,46.92 C56.16,46.92 55.95,43.73 55.95,40.81 L55.95,28.96 L50.2,28.96 L50.2,41.59 C50.2,44.48 50.32,47.33 52.55,49.51 C54.43,51.35 57.37,52.01 59.99,52.01 C62.61,52.01 65.56,51.35 67.44,49.51 C69.67,47.33 69.79,44.51 69.79,41.59 L69.79,28.96 L63.95,28.96 Z M35.95,33.88 C39.322817,33.8212633 42.1375877,36.4416072 42.32,39.81 C42.4520432,42.1600361 41.2733539,44.3903289 39.2573271,45.6051297 C37.2413004,46.8199305 34.7186996,46.8199305 32.7026729,45.6051297 C30.6866461,44.3903289 29.5079568,42.1600361 29.64,39.81 C29.8271697,36.4573432 32.6223943,33.8472912 35.98,33.89 M35.98,28.23 C29.52,28.23 23.56,32.99 23.56,39.78 C23.56,47.05 28.77,52.17 35.98,52.17 C43.19,52.17 48.4,47.04 48.4,39.81 C48.4,33.02 42.4,28.26 35.98,28.26 M7.41,37.63 L7.41,28.96 L1.57,28.96 L1.57,51.41 L7.41,51.41 L7.41,42.21 L15.81,42.21 L15.81,51.41 L21.64,51.41 L21.64,28.96 L15.81,28.96 L15.81,37.63 L7.41,37.63 Z" id="Shape"></path>
                <path d="M65.5,6.12 L65.5,1.12 L52.73,1.12 L52.73,23.62 L65.5,23.62 L65.5,18.68 L58.56,18.68 L58.56,14.81 L65.14,14.81 L65.14,9.87 L58.56,9.87 L58.56,6.12 L65.5,6.12 Z M27.24,23.62 L33.08,23.62 L33.08,9.87 L33.08,9.87 L43.81,23.62 L49.65,23.62 L49.65,1.17 L43.81,1.17 L43.81,14.9 L43.81,14.9 L33.08,1.17 L27.24,1.17 L27.24,23.62 Z M12.86,6.09 C16.2156143,6.05243166 19.0078382,8.6596817 19.2,12.01 C19.3320432,14.3600361 18.1533539,16.5903289 16.1373271,17.8051297 C14.1213004,19.0199305 11.5986996,19.0199305 9.58267285,17.8051297 C7.56664607,16.5903289 6.38795679,14.3600361 6.52,12.01 C6.7071697,8.65734317 9.50239426,6.04729121 12.86,6.09 M12.86,0.43 C6.4,0.43 0.44,5.19 0.44,11.98 C0.44,19.25 5.65,24.37 12.86,24.37 C20.07,24.37 25.27,19.25 25.27,11.98 C25.27,5.19 19.27,0.43 12.86,0.43" id="Shape"></path>
            </g>
            <path d="M143.49,49.28 C143.433433,50.8850498 144.022705,52.4457778 145.125951,53.6129254 C146.229197,54.7800729 147.754309,55.4561988 149.36,55.49 C151.881196,55.6165799 154.225936,54.1970416 155.282516,51.9044252 C156.339097,49.6118088 155.895094,46.9070438 154.16102,45.0725299 C152.426947,43.2380159 149.751437,42.6425812 147.403021,43.5685368 C145.054605,44.4944924 143.50543,46.7556754 143.49,49.28 M160.55,49.28 C160.55,55.28 155.74,59.93 149.3,59.93 C142.86,59.93 138.09,55.36 138.09,49.28 C138.09,43.2 142.89,38.74 149.3,38.74 C155.71,38.74 160.55,43.25 160.55,49.28" id="Shape" fill="#FFFFFF"></path>
            <path d="M200.81,97.74 L203.24,97.74 L203.24,96.48 L200.81,96.48 L200.81,91.48 L199.46,91.48 L199.46,96.48 L197.93,96.48 L197.93,97.74 L199.46,97.74 L199.46,110.34 L200.81,110.34 L200.81,97.74 Z M195.62,97.89 C194.270868,96.752738 192.554169,96.1449625 190.79,96.18 C186.796981,96.18 183.56,99.4169813 183.56,103.41 C183.56,107.403019 186.796981,110.64 190.79,110.64 C192.633576,110.623409 194.409144,109.941591 195.79,108.72 L195.79,106.89 C194.545519,108.437927 192.675939,109.350722 190.69,109.38 C187.623756,109.07222 185.28925,106.491652 185.28925,103.41 C185.28925,100.328348 187.623756,97.7477797 190.69,97.44 C192.571786,97.4333821 194.360818,98.2565564 195.58,99.69 L195.62,97.89 Z M169.7,102.27 C169.989892,99.5389971 172.293654,97.4668333 175.04,97.4668333 C177.786346,97.4668333 180.090108,99.5389971 180.38,102.27 L169.7,102.27 Z M181.7,103.53 C181.7,99.53 179.24,96.18 175.04,96.18 C170.84,96.18 168.32,99.51 168.32,103.38 C168.32,107.25 170.93,110.64 175.04,110.64 C177.662215,110.700611 180.082804,109.238902 181.25,106.89 L180.11,106.23 C179.206661,108.120087 177.314461,109.338989 175.22,109.38 C173.681422,109.424985 172.196525,108.812459 171.13713,107.6958 C170.077735,106.57914 169.544155,105.064083 169.67,103.53 L181.7,103.53 Z M156.32,96.53 L154.97,96.53 L154.97,110.39 L156.32,110.39 L156.32,103.55 C156.32,100.73 156.89,97.49 160.32,97.49 C163.32,97.49 163.65,99.49 163.65,102.02 L163.65,110.39 L165,110.39 L165,102.02 C165,98.45 164,96.23 160.44,96.23 C158.713688,96.2017839 157.120785,97.1552004 156.33,98.69 L156.27,98.69 L156.32,96.53 Z M141.62,96.53 L140.27,96.53 L140.27,110.39 L141.62,110.39 L141.62,103.55 C141.62,100.73 142.19,97.49 145.67,97.49 C148.67,97.49 149,99.49 149,102.02 L149,110.39 L150.35,110.39 L150.35,102.02 C150.35,98.45 149.35,96.23 145.79,96.23 C144.063688,96.2017839 142.470785,97.1552004 141.68,98.69 L141.62,98.69 L141.62,96.53 Z M129.62,97.53 C132.066239,97.4320728 134.326624,98.8302085 135.331397,101.06272 C136.336169,103.295232 135.883777,105.91429 134.188322,107.680389 C132.492867,109.446488 129.894447,110.005359 127.6228,109.092508 C125.351153,108.179658 123.861959,105.978198 123.86,103.53 C123.798599,100.284471 126.374668,97.6010651 129.62,97.53 M129.71,96.27 C125.724959,96.303072 122.518108,99.554551 122.539998,103.539668 C122.562113,107.524786 125.804671,110.740656 129.789834,110.729752 C133.774997,110.718791 136.999863,107.485178 137.000029,103.5 C137.005472,101.570382 136.237236,99.7190939 134.867158,98.3602925 C133.497081,97.0014912 131.639506,96.2485817 129.71,96.27 M120.17,97.98 C118.820868,96.842738 117.104169,96.2349625 115.34,96.27 C111.346981,96.2700002 108.11,99.5069814 108.11,103.5 C108.11,107.493019 111.346981,110.73 115.34,110.73 C117.183576,110.713409 118.959144,110.031591 120.34,108.81 L120.34,106.98 C119.095519,108.527927 117.225939,109.440722 115.24,109.47 C112.173756,109.16222 109.83925,106.581652 109.83925,103.5 C109.83925,100.418348 112.173756,97.8377797 115.24,97.53 C117.121786,97.5233821 118.910818,98.3465564 120.13,99.78 L120.17,97.98 Z" id="Shape" fill="#1D1D1B"></path>
        </g>
    </g>
</svg>