<?xml version="1.0" encoding="UTF-8"?>
<svg width="472px" height="65px" viewBox="0 0 472 65" version="1.1" xmlns="http://www.w3.org/2000/svg" xmlns:xlink="http://www.w3.org/1999/xlink">
    <!-- Generator: Sketch 57.1 (83088) - https://sketch.com -->
    <title>Group</title>
    <desc>Created with Sketch.</desc>
    <defs>
        <polygon id="path-1" points="0.0918332296 0.23 192.4584 0.23 192.4584 59.0590813 0.0918332296 59.0590813"></polygon>
        <polygon id="path-3" points="0 0.281753804 13.8875079 0.281753804 13.8875079 22.205439 0 22.205439"></polygon>
    </defs>
    <g id="Symbols" stroke="none" stroke-width="1" fill="none" fill-rule="evenodd">
        <g id="Logo">
            <g id="Group">
                <path d="M10.1264833,19.2700362 C5.67293102,16.3506993 8.56640364,8.9980025 13.9316522,10.0366698 C16.3519535,10.5041194 18.1585178,12.7850367 17.9981543,15.2171586 C17.8655079,17.2322324 16.5964583,18.1552725 15.110621,19.3313087 C14.3018742,19.9726932 14.7126819,21.1744243 15.4115501,21.6596627 C16.8874884,22.6854825 18.3634267,23.7103141 19.8403549,24.7351456 C21.4123134,25.8271792 22.8981507,23.2586766 21.3390609,22.1755374 C19.8621327,21.1497176 18.3861944,20.1248861 16.9102561,19.1000545 C17.0102358,19.8758431 17.1112054,20.6516317 17.2111852,21.4284085 C19.9621124,19.2482944 21.5944546,16.7549 20.8094653,13.0785516 C20.0957487,9.73821351 16.4905392,6.92066798 13.0823195,7.00170577 C5.08493145,7.19342932 1.96378224,17.4624983 8.62777733,21.8296444 C10.2294327,22.8801709 11.7192296,20.3146331 10.1264833,19.2700362" id="Fill-1" fill="#39486C"></path>
                <path d="M54.2814744,22.2664323 C54.2213131,23.5993471 54.1922352,24.8438697 54.1922352,26 C54.1922352,27.1551259 54.2213131,28.3996484 54.2814744,29.7335677 C54.3697108,32.1924791 55.1167128,34.1853224 56.5214776,35.711093 C57.9262423,37.2368636 59.9446517,37.9992467 62.5777083,37.9992467 C63.9975133,37.9992467 65.1957245,37.8214577 66.1713392,37.4668843 C67.1479565,37.110302 67.9531143,36.651265 68.5898207,36.0887689 C69.2245217,35.5262728 69.7128304,34.8824157 70.0527413,34.1551886 C70.3926523,33.428966 70.6523483,32.6967167 70.8298239,31.9554272 C70.8879798,31.6289786 71.0363775,31.3848955 71.2730117,31.2221734 C71.5096459,31.0594513 71.74628,30.9780903 71.9829142,30.9780903 L74.0243854,30.9780903 C74.2900975,30.9780903 74.5197128,31.0745182 74.7112261,31.2663695 C74.903742,31.4592253 75,31.6882416 75,31.9554272 C74.9699194,32.9327641 74.7182449,34.0005022 74.2459792,35.1556281 C73.7727109,36.310754 73.0397465,37.3995857 72.0500943,38.4221232 C71.0584366,39.4446607 69.7870292,40.295436 68.2348695,40.9774625 C66.681707,41.6584845 64.7956523,42 62.5777083,42 C60.6545542,42 58.9399591,41.6956494 57.4319175,41.0879528 C55.9228733,40.4822651 54.6284041,39.6445477 53.5495127,38.5768096 C52.4696186,37.5110804 51.6333775,36.2444598 51.0427947,34.7769477 C50.4502066,33.3104401 50.1253359,31.7043129 50.0661774,29.9545483 C49.9779409,27.317848 49.9779409,24.6811476 50.0661774,22.0434428 C50.1253359,20.3258208 50.4502066,18.7267248 51.0427947,17.2441459 C51.6333775,15.7625714 52.4696186,14.4889196 53.5495127,13.422186 C54.6284041,12.3554523 55.9228733,11.5187394 57.4319175,10.9110428 C58.9399591,10.3043506 60.6545542,10 62.5777083,10 C64.7956523,10 66.681707,10.340511 68.2348695,11.0225375 C69.7870292,11.7035595 71.0584366,12.5553393 72.0500943,13.5778768 C73.0397465,14.5994099 73.7727109,15.6882416 74.2459792,16.8443719 C74.7182449,17.9994978 74.9699194,19.0662314 75,20.0445728 C75,20.310754 74.903742,20.5407747 74.7112261,20.7336305 C74.5197128,20.9264863 74.2900975,21.0219097 74.0243854,21.0219097 L71.9829142,21.0219097 C71.74628,21.0219097 71.5096459,20.9415531 71.2730117,20.7778266 C71.0363775,20.6141001 70.8879798,20.370017 70.8298239,20.0445728 C70.6523483,19.3042878 70.3926523,18.5700295 70.0527413,17.8448114 C69.7128304,17.1185887 69.2245217,16.4737272 68.5898207,15.9112311 C67.9531143,15.3477306 67.1479565,14.8886936 66.1713392,14.5331157 C65.1957245,14.1775378 63.9975133,14.0007533 62.5777083,14.0007533 C59.9446517,14.0007533 57.9262423,14.7631364 56.5214776,16.288907 C55.1167128,17.8146776 54.3697108,19.8075209 54.2814744,22.2664323" id="Fill-3" fill="#39486C"></path>
                <path d="M95.9494457,31.867247 C96.0081493,31.36302 96.0370037,30.7493095 96.0370037,30.0220976 C96.0370037,29.2968946 96.0081493,28.6661086 95.9494457,28.1337574 C95.8618876,27.2448313 95.6698569,26.415167 95.3773335,25.6447644 C95.0828201,24.8743618 94.6728892,24.2084205 94.1445561,23.6449318 C93.6162229,23.0824475 92.9704823,22.6384866 92.2073344,22.3110404 C91.4441865,21.9856031 90.5487065,21.8228844 89.5218895,21.8228844 C88.4940775,21.8228844 87.5985976,21.9856031 86.8364446,22.3110404 C86.0732967,22.6384866 85.4275561,23.0824475 84.899223,23.6449318 C84.3708898,24.2084205 83.959964,24.8743618 83.6664456,25.6447644 C83.3729271,26.415167 83.1818914,27.2448313 83.0943334,28.1337574 C83.0356297,28.6661086 83.0057803,29.2968946 83.0057803,30.0220976 C83.0057803,30.7493095 83.0356297,31.36302 83.0943334,31.867247 C83.1818914,32.7561731 83.3729271,33.5858374 83.6664456,34.3562401 C83.959964,35.1266427 84.3708898,35.7925839 84.899223,36.3560727 C85.4275561,36.918557 86.0732967,37.3635222 86.8364446,37.6889596 C87.5985976,38.0154014 88.4940775,38.17812 89.5218895,38.17812 C90.5487065,38.17812 91.4441865,38.0154014 92.2073344,37.6889596 C92.9704823,37.3635222 93.6162229,36.918557 94.1445561,36.3560727 C94.6728892,35.7925839 95.0828201,35.1266427 95.3773335,34.3562401 C95.6698569,33.5858374 95.8618876,32.7561731 95.9494457,31.867247 M89.5218895,18 C91.106889,18 92.5157775,18.2450824 93.7485549,18.7342429 C94.9803373,19.2223989 96.0370037,19.8973801 96.918554,20.7551687 C97.7981143,21.6159705 98.4955937,22.6605842 99.0090022,23.8900142 C99.5224107,25.1194442 99.8378186,26.4603666 99.955226,27.911777 C99.9850753,28.1779526 100,28.4973634 100,28.8669959 L100,30.0220976 L100,31.1771993 C100,31.5488407 99.9850753,31.8521805 99.955226,32.0892274 C99.8079693,33.5707709 99.4855965,34.9187244 98.9871127,36.1330878 C98.4876338,37.3484557 97.7981143,38.3850339 96.918554,39.2448313 C96.0370037,40.1036243 94.9803373,40.7776011 93.7485549,41.2657571 C92.5157775,41.755922 91.106889,42 89.5218895,42 C87.93689,42 86.5280015,41.755922 85.2952241,41.2657571 C84.0624467,40.7776011 83.0057803,40.1036243 82.1252251,39.2448313 C81.2456647,38.3850339 80.5481854,37.3484557 80.0347768,36.1330878 C79.5203734,34.9187244 79.2049654,33.5707709 79.087558,32.0892274 C79.0587037,31.8521805 79.0358192,31.5488407 79.0218895,31.1771993 C79.0069648,30.8075668 79,30.4228677 79,30.0220976 C79,29.6233364 79.0069648,29.2376329 79.0218895,28.8669959 C79.0358192,28.4973634 79.0587037,28.1779526 79.087558,27.911777 C79.2049654,26.4603666 79.5203734,25.1194442 80.0347768,23.8900142 C80.5481854,22.6605842 81.2456647,21.6159705 82.1252251,20.7551687 C83.0057803,19.8973801 84.0624467,19.2223989 85.2952241,18.7342429 C86.5280015,18.2450824 87.93689,18 89.5218895,18" id="Fill-5" fill="#39486C"></path>
                <path d="M126,39.8289625 C126,40.1467315 125.884551,40.4213466 125.653654,40.6537888 C125.421779,40.8852501 125.147833,41 124.830838,41 L123.229234,41 C122.911261,41 122.637315,40.8852501 122.406418,40.6537888 C122.175521,40.4213466 122.060072,40.1467315 122.060072,39.8289625 L122.060072,28.3716259 C122.060072,26.1452817 121.525878,24.4818984 120.458468,23.3814763 C119.391058,22.2820349 117.904902,21.7328046 116,21.7328046 C114.181196,21.7328046 112.716564,22.2820349 111.606105,23.3814763 C110.494668,24.4818984 109.938949,26.1452817 109.938949,28.3716259 L109.938949,39.8289625 C109.938949,40.1467315 109.823501,40.4213466 109.592603,40.6537888 C109.361706,40.8852501 109.08776,41 108.770766,41 L107.168183,41 C106.851189,41 106.576265,40.8852501 106.346346,40.6537888 C106.11447,40.4213466 106,40.1467315 106,39.8289625 L106,19.6064987 C106,19.2887297 106.11447,19.0131338 106.346346,18.7816724 C106.576265,18.5502111 106.851189,18.4344804 107.168183,18.4344804 L108.770766,18.4344804 C109.08776,18.4344804 109.361706,18.5502111 109.592603,18.7816724 C109.823501,19.0131338 109.938949,19.2887297 109.938949,19.6064987 L109.938949,20.9511321 C110.486841,20.2292866 111.302808,19.5554987 112.384894,18.9327108 C113.46698,18.3118844 114.888563,18 116.648665,18 C118.005675,18 119.260933,18.2255767 120.415419,18.6737879 C121.569905,19.1219991 122.558067,19.757537 123.380882,20.5823632 C124.203698,21.4071895 124.845514,22.4271886 125.307308,23.6413799 C125.768124,24.856552 126,26.2168777 126,27.7213765 L126,39.8289625 Z" id="Fill-7" fill="#39486C"></path>
                <path d="M152,39.8289625 C152,40.1467315 151.884551,40.4213466 151.653654,40.6537888 C151.421779,40.8852501 151.147833,41 150.830838,41 L149.229234,41 C148.911261,41 148.637315,40.8852501 148.406418,40.6537888 C148.175521,40.4213466 148.060072,40.1467315 148.060072,39.8289625 L148.060072,28.3716259 C148.060072,26.1452817 147.525878,24.4818984 146.458468,23.3814763 C145.391058,22.2820349 143.904902,21.7328046 142,21.7328046 C140.181196,21.7328046 138.716564,22.2820349 137.606105,23.3814763 C136.494668,24.4818984 135.938949,26.1452817 135.938949,28.3716259 L135.938949,39.8289625 C135.938949,40.1467315 135.823501,40.4213466 135.592603,40.6537888 C135.361706,40.8852501 135.08776,41 134.770766,41 L133.168183,41 C132.851189,41 132.576265,40.8852501 132.346346,40.6537888 C132.11447,40.4213466 132,40.1467315 132,39.8289625 L132,19.6064987 C132,19.2887297 132.11447,19.0131338 132.346346,18.7816724 C132.576265,18.5502111 132.851189,18.4344804 133.168183,18.4344804 L134.770766,18.4344804 C135.08776,18.4344804 135.361706,18.5502111 135.592603,18.7816724 C135.823501,19.0131338 135.938949,19.2887297 135.938949,19.6064987 L135.938949,20.9511321 C136.486841,20.2292866 137.302808,19.5554987 138.384894,18.9327108 C139.46698,18.3118844 140.888563,18 142.648665,18 C144.005675,18 145.260933,18.2255767 146.415419,18.6737879 C147.569905,19.1219991 148.558067,19.757537 149.380882,20.5823632 C150.203698,21.4071895 150.845514,22.4271886 151.307308,23.6413799 C151.768124,24.856552 152,26.2168777 152,27.7213765 L152,39.8289625 Z" id="Fill-9" fill="#39486C"></path>
                <path d="M161.957,27.9111874 L174.108478,27.9111874 L174.108478,27.7775918 C174.108478,25.9705353 173.552407,24.5271 172.443196,23.4452769 C171.333008,22.3634537 169.855363,21.8220399 168.011239,21.8220399 C167.174688,21.8220399 166.395798,21.9636714 165.676521,22.2439208 C164.95529,22.5271837 164.320059,22.9269661 163.772783,23.4452769 C163.225507,23.9635877 162.792573,24.5933956 162.475935,25.3336961 C162.158319,26.075001 161.985341,26.8886285 161.957,27.7775918 L161.957,27.9111874 Z M158.108478,27.7775918 C158.223797,26.4155192 158.541412,25.1408362 159.060347,23.9555518 C159.578304,22.7712719 160.255558,21.7336458 161.092108,20.8446825 C161.928659,19.9557192 162.930369,19.2606203 164.097239,18.7563722 C165.265087,18.2521241 166.568776,18 168.011239,18 C169.568043,18 170.957733,18.2601599 172.184217,18.7774662 C173.408747,19.2967815 174.454434,20.0451178 175.318348,21.0224752 C176.184217,21.9998326 176.846812,23.1861215 177.308087,24.5783284 C177.768385,25.9705353 178,27.5264722 178,29.2441301 L178,30.4444816 C178,30.7719416 177.883704,31.052191 177.654043,31.2892479 C177.422429,31.5273093 177.148791,31.6448332 176.832152,31.6448332 L161.957,31.6448332 L161.957,31.91102 C162.014659,33.9260034 162.612753,35.4739045 163.751283,36.5557276 C164.889812,37.6385552 166.309797,38.1789646 168.011239,38.1789646 C169.596384,38.1789646 170.785732,37.948939 171.578304,37.488888 C172.370877,37.0298414 173.011972,36.5185619 173.502565,35.9560541 C173.733203,35.7189972 173.9355,35.5552672 174.108478,35.4668731 C174.280479,35.3784791 174.540435,35.334282 174.886391,35.334282 L176.184217,35.334282 C176.500855,35.334282 176.789152,35.4528104 177.048131,35.6888628 C177.308087,35.9259197 177.408747,36.2081781 177.351087,36.5336291 C177.265087,37.0670071 177.01979,37.6526179 176.616174,38.2894572 C176.211581,38.9273009 175.628146,39.5199431 174.864891,40.0673838 C174.10066,40.6148244 173.149768,41.073871 172.011239,41.445528 C170.871732,41.815176 169.538725,42 168.011239,42 C166.568776,42 165.271928,41.7408446 164.118739,41.2225338 C162.965551,40.704223 161.963841,39.9930524 161.113609,39.0890219 C160.263376,38.1859959 159.578304,37.1192399 159.060347,35.888754 C158.541412,34.6602771 158.223797,33.3192985 158.108478,31.8668229 C157.963841,30.5047503 157.963841,29.1416733 158.108478,27.7775918 L158.108478,27.7775918 Z" id="Fill-11" fill="#39486C"></path>
                <path d="M187.020159,31.5564391 C187.134949,32.7417235 187.389057,33.7492153 187.779539,34.5789143 C188.170021,35.4086134 188.647821,36.0896497 189.21196,36.6230277 C189.777079,37.1554012 190.405971,37.5491567 191.100597,37.8002762 C191.795223,38.0524003 192.503585,38.1789646 193.227644,38.1789646 C194.616896,38.1789646 195.803059,37.9117733 196.788094,37.3783953 C197.771166,36.8450174 198.538394,35.9560541 199.087816,34.7115055 C199.289925,34.2383962 199.500864,33.9199766 199.717689,33.7552421 C199.934514,33.5935211 200.202358,33.5111539 200.521218,33.5111539 L201.823152,33.5111539 C202.141032,33.5111539 202.423591,33.6296823 202.66985,33.8677437 C202.915128,34.1048006 203.024031,34.38505 202.995579,34.7115055 C202.966145,35.4226761 202.741471,36.2001423 202.322537,37.0449086 C201.902622,37.8896748 201.280598,38.6751768 200.455484,39.4014146 C199.631351,40.126648 198.617864,40.7423932 197.416985,41.2456368 C196.216106,41.7478759 194.819005,42 193.227644,42 C191.636283,42 190.225447,41.7338133 188.995134,41.2014398 C187.764822,40.6670573 186.722883,39.941824 185.869317,39.0227263 C185.015751,38.1046332 184.350558,37.02281 183.872757,35.7782614 C183.394957,34.5337128 183.127113,33.2007701 183.069228,31.7784288 C183.040776,31.3043151 183.01821,30.7187042 183.004475,30.0226008 C182.989758,29.3264973 183.011342,28.7268238 183.069228,28.2225756 C183.184999,26.8002344 183.482275,25.4672917 183.959095,24.2227431 C184.436896,22.9781945 185.095221,21.8973758 185.935051,20.9782782 C186.773901,20.060185 187.801123,19.3339472 189.016719,18.8005692 C190.232314,18.2671912 191.636283,18 193.227644,18 C194.819005,18 196.216106,18.2521241 197.416985,18.7563722 C198.617864,19.2606203 199.631351,19.8743565 200.455484,20.6005943 C201.280598,21.3258276 201.902622,22.1113297 202.322537,22.9550914 C202.741471,23.7998577 202.966145,24.5783284 202.995579,25.289499 C203.024031,25.6159545 202.915128,25.8962039 202.66985,26.1342653 C202.423591,26.3713221 202.141032,26.4888461 201.823152,26.4888461 L200.521218,26.4888461 C200.202358,26.4888461 199.934514,26.4074834 199.717689,26.2447579 C199.500864,26.0820324 199.289925,25.7636128 199.087816,25.289499 C198.538394,24.0439459 197.771166,23.1559871 196.788094,22.6216047 C195.803059,22.0892312 194.616896,21.8230444 193.227644,21.8230444 C192.503585,21.8230444 191.787374,21.9496087 191.079013,22.2007282 C190.36967,22.4528523 189.732929,22.8445988 189.168791,23.3779768 C188.604652,23.9113548 188.126852,24.5933956 187.73637,25.4230946 C187.345888,26.2527937 187.106497,27.2602854 187.020159,28.4445654 C186.93284,29.5414557 186.93284,30.5780773 187.020159,31.5564391" id="Fill-13" fill="#39486C"></path>
                <path d="M214.628746,33.359287 C214.628746,33.912876 214.680549,34.4289671 214.786186,34.9085469 C214.890808,35.3901003 215.077704,35.804552 215.347892,36.1538755 C215.61808,36.5031991 216,36.7725927 216.493652,36.9610696 C216.988319,37.15152 217.62519,37.245265 218.404266,37.245265 L220.786186,37.245265 C221.115287,37.245265 221.399695,37.362693 221.640427,37.5945886 C221.879126,37.827471 222,38.1047589 222,38.4244788 L222,39.821773 C222,40.1414929 221.879126,40.417794 221.640427,40.6516632 C221.399695,40.8845456 221.115287,41 220.786186,41 L217.954292,41 C215.347892,41 213.46064,40.3447716 212.291519,39.0353016 C211.123413,37.7258316 210.53936,35.8341557 210.53936,33.359287 L210.53936,22.0506764 L207.212798,22.0506764 C206.883697,22.0506764 206.598273,21.935222 206.359573,21.7023396 C206.118842,21.4684705 206,21.1921693 206,20.8724495 L206,19.4751552 C206,19.1544485 206.118842,18.8781474 206.359573,18.645265 C206.598273,18.4123826 206.883697,18.2949546 207.212798,18.2949546 L210.53936,18.2949546 L210.53936,11.178227 C210.53936,10.8585071 210.658202,10.582206 210.898933,10.3493236 C211.137633,10.1164412 211.422042,10 211.752158,10 L213.415947,10 C213.745048,10 214.029457,10.1164412 214.269172,10.3493236 C214.508888,10.582206 214.628746,10.8585071 214.628746,11.178227 L214.628746,18.2949546 L220.337227,18.2949546 C220.666328,18.2949546 220.950736,18.4123826 221.190452,18.645265 C221.430168,18.8781474 221.550025,19.1544485 221.550025,19.4751552 L221.550025,20.8724495 C221.550025,21.1921693 221.430168,21.4684705 221.190452,21.7023396 C220.950736,21.935222 220.666328,22.0506764 220.337227,22.0506764 L214.628746,22.0506764 L214.628746,33.359287 Z" id="Fill-15" fill="#39486C"></path>
                <path d="M228.957,27.9111874 L241.108478,27.9111874 L241.108478,27.7775918 C241.108478,25.9705353 240.552407,24.5271 239.443196,23.4452769 C238.333008,22.3634537 236.855363,21.8220399 235.011239,21.8220399 C234.174688,21.8220399 233.395798,21.9636714 232.676521,22.2439208 C231.95529,22.5271837 231.320059,22.9269661 230.772783,23.4452769 C230.225507,23.9635877 229.792573,24.5933956 229.475935,25.3336961 C229.158319,26.075001 228.985341,26.8886285 228.957,27.7775918 L228.957,27.9111874 Z M225.108478,27.7775918 C225.223797,26.4155192 225.541412,25.1408362 226.060347,23.9555518 C226.578304,22.7712719 227.255558,21.7336458 228.092108,20.8446825 C228.928659,19.9557192 229.930369,19.2606203 231.097239,18.7563722 C232.265087,18.2521241 233.568776,18 235.011239,18 C236.568043,18 237.957733,18.2601599 239.184217,18.7774662 C240.408747,19.2967815 241.454434,20.0451178 242.319326,21.0224752 C243.184217,21.9998326 243.846812,23.1861215 244.308087,24.5783284 C244.769362,25.9705353 245,27.5264722 245,29.2441301 L245,30.4444816 C245,30.7719416 244.884681,31.052191 244.654043,31.2892479 C244.422429,31.5273093 244.149768,31.6448332 243.83313,31.6448332 L228.957,31.6448332 L228.957,31.91102 C229.014659,33.9260034 229.612753,35.4739045 230.751283,36.5557276 C231.889812,37.6385552 233.309797,38.1789646 235.011239,38.1789646 C236.596384,38.1789646 237.785732,37.948939 238.578304,37.488888 C239.370877,37.0298414 240.011972,36.5185619 240.502565,35.9560541 C240.733203,35.7189972 240.9355,35.5552672 241.108478,35.4668731 C241.280479,35.3784791 241.540435,35.334282 241.886391,35.334282 L243.184217,35.334282 C243.500855,35.334282 243.789152,35.4528104 244.048131,35.6888628 C244.308087,35.9259197 244.409724,36.2081781 244.351087,36.5336291 C244.265087,37.0670071 244.01979,37.6526179 243.616174,38.2894572 C243.212558,38.9273009 242.628146,39.5199431 241.864891,40.0673838 C241.10066,40.6148244 240.149768,41.073871 239.011239,41.445528 C237.871732,41.815176 236.538725,42 235.011239,42 C233.568776,42 232.271928,41.7408446 231.118739,41.2225338 C229.965551,40.704223 228.963841,39.9930524 228.113609,39.0890219 C227.263376,38.1859959 226.578304,37.1192399 226.060347,35.888754 C225.541412,34.6602771 225.223797,33.3192985 225.108478,31.8668229 C224.963841,30.5047503 224.963841,29.1416733 225.108478,27.7775918 L225.108478,27.7775918 Z" id="Fill-17" fill="#39486C"></path>
                <path d="M266.968625,31.9109144 C266.997664,31.4669303 267.012684,30.8823179 267.012684,30.155068 C267.012684,29.4288226 266.997664,28.8442101 266.968625,28.400226 C266.880507,26.295822 266.251669,24.6735725 265.086115,23.5324732 C263.918558,22.3923784 262.404539,21.8218288 260.544059,21.8218288 C258.595461,21.8218288 257.059413,22.4436074 255.935915,23.688169 C254.813418,24.9337351 254.193591,26.6212763 254.075434,28.7548106 C254.046395,29.5855228 254.046395,30.4152306 254.075434,31.2439338 C254.193591,33.3774681 254.813418,35.0670182 255.935915,36.3115799 C257.059413,37.555137 258.595461,38.1779201 260.544059,38.1779201 C262.375501,38.1779201 263.881509,37.6154063 265.064085,36.4893744 C266.24466,35.3633424 266.880507,33.8375239 266.968625,31.9109144 M260.101469,17.9987444 C261.932911,17.9987444 263.39486,18.3181718 264.487316,18.9550177 C265.579773,19.5918636 266.406876,20.2819475 266.968625,21.0212512 L266.968625,11.1993596 C266.968625,10.8739053 267.086782,10.5916439 267.323097,10.3545845 C267.559413,10.1185297 267.839786,10 268.164219,10 L269.804406,10 C270.128838,10 270.410214,10.1185297 270.646529,10.3545845 C270.881842,10.5916439 271,10.8739053 271,11.1993596 L271,40.3556518 C271,40.6811062 270.881842,40.9633675 270.646529,41.2004269 C270.410214,41.4374863 270.128838,41.5560159 269.804406,41.5560159 L268.164219,41.5560159 C267.839786,41.5560159 267.559413,41.4374863 267.323097,41.2004269 C267.086782,40.9633675 266.968625,40.6811062 266.968625,40.3556518 L266.968625,38.9774932 C266.377837,39.7780708 265.535714,40.4822174 264.444259,41.0889286 C263.350801,41.6956399 261.901869,42 260.101469,42 C258.712617,42 257.420895,41.7559092 256.2253,41.2657187 C255.027704,40.7775371 253.987316,40.074395 253.100134,39.1552877 C252.214953,38.2371849 251.506008,37.1262203 250.974299,35.8223938 C250.44259,34.5185673 250.133178,33.0520137 250.044059,31.4227328 C250.014019,30.9777443 250,30.4965942 250,29.9772734 C250,29.4599617 250.014019,28.9778071 250.044059,28.533823 C250.133178,26.9045422 250.44259,25.436984 250.974299,24.1331575 C251.506008,22.8293311 252.214953,21.7253979 253.100134,20.8213579 C253.987316,19.9183225 255.027704,19.2212073 256.2253,18.7330257 C257.420895,18.2448441 258.712617,17.9987444 260.101469,17.9987444" id="Fill-19" fill="#39486C"></path>
                <g id="Group-23" transform="translate(279.000000, 0.000000)">
                    <mask id="mask-2" fill="white">
                        <use xlink:href="#path-1"></use>
                    </mask>
                    <g id="Clip-22"></g>
                    <path d="M23.5724,54.9873 C3.6344,51.0103 0.0918332296,35.9683 0.0918332296,28.1753 C0.0918332296,18.5553 -0.4036,6.0943 27.9504,1.3633 C43.2394,-1.1867 80.6574,1.3633 99.9844,1.3633 C118.4974,1.3633 143.2224,1.5613 158.0894,3.9173 C187.5214,8.5823 192.4584,19.8063 192.4584,29.6443 C192.4584,39.1663 188.3454,53.6343 160.4764,58.3913 C145.0044,61.0323 119.6784,54.9873 99.9844,54.9873 C99.9844,54.9873 32.0704,56.6813 23.5724,54.9873" id="Fill-21" fill="#39486C" mask="url(#mask-2)"></path>
                </g>
                <path d="M306.903518,26.4004004 L320.598995,39.4004004 C320.759799,39.5605606 320.866332,39.7007007 320.919598,39.8208208 C320.973869,39.9399399 321,40.04004 321,40.1211211 C321,40.3603604 320.912563,40.5675676 320.739698,40.7407407 C320.565829,40.9149149 320.358794,41 320.116583,41 L317.627136,41 C317.252261,41 316.943719,40.9269269 316.703518,40.7807808 C316.462312,40.6336336 316.288442,40.5065065 316.180905,40.4004004 L304.81608,29.6006006 L304.81608,39.9199199 C304.81608,40.2132132 304.707538,40.4664665 304.494472,40.6796797 C304.280402,40.8938939 304.026131,41 303.731658,41 L302.084422,41 C301.78995,41 301.535678,40.8938939 301.321608,40.6796797 C301.106533,40.4664665 301,40.2132132 301,39.9199199 L301,14.0800801 C301,13.7867868 301.106533,13.5335335 301.321608,13.3203203 C301.535678,13.1071071 301.78995,13 302.084422,13 L303.731658,13 C304.026131,13 304.280402,13.1071071 304.494472,13.3203203 C304.707538,13.5335335 304.81608,13.7867868 304.81608,14.0800801 L304.81608,23.4004004 L315.538693,13.5995996 C315.645226,13.4934935 315.820101,13.3663664 316.060302,13.2202202 C316.302513,13.0740741 316.609045,13 316.98392,13 L319.314573,13 C319.554774,13 319.761809,13.0870871 319.936683,13.2602603 C320.110553,13.4334334 320.19799,13.6396396 320.19799,13.8798799 C320.19799,13.95996 320.169849,14.0600601 320.116583,14.1801802 C320.063317,14.3003003 319.955779,14.4404404 319.79598,14.5995996 L306.903518,26.4004004 Z" id="Fill-24" fill="#FFFFFF"></path>
                <path d="M327.639233,39.9351473 C327.639233,40.2243057 327.54363,40.4739884 327.351522,40.6841957 C327.158512,40.8953898 326.930327,41 326.666967,41 L325.333033,41 C325.067869,41 324.839684,40.8953898 324.648478,40.6841957 C324.455468,40.4739884 324.359865,40.2243057 324.359865,39.9351473 L324.359865,21.55731 C324.359865,21.2691386 324.455468,21.0194558 324.648478,20.8082617 C324.839684,20.5980544 325.067869,20.4934442 325.333033,20.4934442 L326.666967,20.4934442 C326.930327,20.4934442 327.158512,20.5980544 327.351522,20.8082617 C327.54363,21.0194558 327.639233,21.2691386 327.639233,21.55731 L327.639233,39.9351473 Z M328,16.3129846 C328,16.602143 327.903495,16.8518257 327.711387,17.062033 C327.519278,17.2732271 327.291094,17.3778373 327.026832,17.3778373 L324.972266,17.3778373 C324.708005,17.3778373 324.47982,17.2732271 324.287711,17.062033 C324.094701,16.8518257 324,16.602143 324,16.3129846 L324,14.0648527 C324,13.7756943 324.094701,13.5260116 324.287711,13.3158043 C324.47982,13.1055971 324.708005,13 324.972266,13 L327.026832,13 C327.291094,13 327.519278,13.1055971 327.711387,13.3158043 C327.903495,13.5260116 328,13.7756943 328,14.0648527 L328,16.3129846 Z" id="Fill-26" fill="#FFFFFF"></path>
                <path d="M352,39.9301195 C352,40.2206431 351.896653,40.4715048 351.688983,40.6827046 C351.480338,40.8948959 351.233669,41 350.948001,41 L349.506012,41 C349.220344,41 348.973676,40.8948959 348.766981,40.6827046 C348.558336,40.4715048 348.454014,40.2206431 348.454014,39.9301195 L348.454014,29.4702772 C348.454014,27.4356202 347.973351,25.9175598 347.013,24.9131215 C346.051674,23.9096747 344.714007,23.4079513 343.000975,23.4079513 C341.363991,23.4079513 340.044849,23.9096747 339.045499,24.9131215 C338.045174,25.9175598 337.545986,27.4356202 337.545986,29.4702772 L337.545986,39.9301195 C337.545986,40.2206431 337.441664,40.4715048 337.233994,40.6827046 C337.026324,40.8948959 336.779656,41 336.493988,41 L335.051999,41 C334.766331,41 334.519662,40.8948959 334.311992,40.6827046 C334.104322,40.4715048 334,40.2206431 334,39.9301195 L334,21.4655083 C334,21.1759762 334.104322,20.9251145 334.311992,20.7129232 C334.519662,20.5017234 334.766331,20.3966193 335.051999,20.3966193 L336.493988,20.3966193 C336.779656,20.3966193 337.026324,20.5017234 337.233994,20.7129232 C337.441664,20.9251145 337.545986,21.1759762 337.545986,21.4655083 L337.545986,22.6940365 C338.039324,22.034657 338.773481,21.4208886 339.747481,20.8517399 C340.721482,20.2845743 341.999675,20 343.58401,20 C344.80468,20 345.934677,20.2052505 346.974001,20.6147599 C348.01235,21.0242693 348.902502,21.6053166 349.642509,22.3579017 C350.38349,23.1104868 350.961651,24.0415506 351.376016,25.1510931 C351.791355,26.2606355 352,27.5020539 352,28.8753482 L352,39.9301195 Z" id="Fill-28" fill="#FFFFFF"></path>
                <path d="M372.351864,29.3603604 C372.271619,27.4664665 371.703886,26.007007 370.648664,24.97998 C369.59244,23.953954 368.224264,23.4404404 366.540122,23.4404404 C364.775736,23.4404404 363.386496,24 362.371397,25.1201201 C361.355295,26.2402402 360.794583,27.7597598 360.688259,29.6796797 C360.661176,30.4264264 360.661176,31.1741742 360.688259,31.9199199 C360.794583,33.8408408 361.355295,35.3603604 362.371397,36.4794795 C363.386496,37.5995996 364.775736,38.1601602 366.540122,38.1601602 C368.224264,38.1601602 369.59244,37.6396396 370.648664,36.5995996 C371.703886,35.5595596 372.271619,34.1071071 372.351864,32.2402402 C372.377943,31.8408408 372.391986,31.3603604 372.391986,30.7997998 C372.391986,30.2402402 372.377943,29.7597598 372.351864,29.3603604 M357.040122,29.4804805 C357.120367,28.014014 357.401225,26.6936937 357.881691,25.5205205 C358.363161,24.3473473 359.004118,23.3543544 359.805564,22.5405405 C360.608014,21.7267267 361.548886,21.1001001 362.632193,20.6606607 C363.714497,20.2202202 364.883064,20 366.139901,20 C367.795956,20 369.117992,20.2872873 370.108014,20.8598599 C371.09603,21.4344344 371.844314,22.0540541 372.351864,22.7197197 L372.351864,21.4794795 C372.351864,21.1871872 372.458188,20.9339339 372.672843,20.7197197 C372.886496,20.5065065 373.14027,20.4004004 373.434167,20.4004004 L374.917696,20.4004004 C375.211593,20.4004004 375.465368,20.5065065 375.67902,20.7197197 C375.892672,20.9339339 376,21.1871872 376,21.4794795 L376,40.9199199 C376,43.6926927 375.211593,45.8998999 373.63478,47.5395395 C372.057966,49.1801802 369.692746,50 366.540122,50 C364.936226,50 363.567047,49.8078078 362.431581,49.4244244 C361.296114,49.039039 360.360258,48.5555556 359.625013,47.971972 C358.890772,47.3883884 358.3431,46.7517518 357.983001,46.0630631 C357.620895,45.3723724 357.427304,44.7097097 357.401225,44.0740741 C357.374142,43.7817818 357.474448,43.5295295 357.702143,43.3183183 C357.928835,43.1051051 358.189632,43 358.483529,43 L359.6862,43 C359.980097,43 360.22685,43.0720721 360.427463,43.2182182 C360.628075,43.3623624 360.821666,43.6456456 361.008236,44.0680681 C361.088481,44.2272272 361.214866,44.4434434 361.389399,44.7217217 C361.562929,44.997998 361.842783,45.2742743 362.230968,45.5525526 C362.61815,45.8278278 363.126703,46.0650651 363.754619,46.2642643 C364.382536,46.4604605 365.177964,46.5605606 366.139901,46.5605606 C367.021592,46.5605606 367.8431,46.4734735 368.604424,46.3003003 C369.365748,46.1261261 370.027769,45.8398398 370.588481,45.4394394 C371.150195,45.04004 371.583518,44.5065065 371.891458,43.8398398 C372.198395,43.1731732 372.351864,42.3593594 372.351864,41.3993994 L372.351864,38.8798799 C371.817232,39.5995996 371.055908,40.2332332 370.067891,40.7797798 C369.077869,41.3263263 367.768873,41.6006006 366.139901,41.6006006 C364.883064,41.6006006 363.714497,41.3803804 362.632193,40.9399399 C361.548886,40.5005005 360.608014,39.8738739 359.805564,39.0600601 C359.004118,38.2472472 358.363161,37.2542543 357.881691,36.0800801 C357.401225,34.9069069 357.120367,33.5875876 357.040122,32.1201201 C357.01304,31.7197197 357,31.2802803 357,30.7997998 C357,30.3203203 357.01304,29.8808809 357.040122,29.4804805" id="Fill-30" fill="#FFFFFF"></path>
                <path d="M394.29956,35.7256465 C394.29956,35.2097507 394.157118,34.7825563 393.872234,34.4420243 C393.588368,34.1035314 393.161042,33.8119381 392.592291,33.5672444 C392.023541,33.3225507 391.297086,33.0921309 390.416998,32.8739457 C389.535893,32.6567801 388.512345,32.4263602 387.347373,32.1816665 C385.151731,31.7198072 383.613358,30.9531004 382.73327,29.8795069 C381.852164,28.806933 381.411611,27.5508388 381.411611,26.1112244 C381.411611,25.2965984 381.573385,24.5217351 381.898967,23.7886736 C382.224548,23.0556122 382.711903,22.4041153 383.363067,21.8331634 C384.013213,21.2622115 384.832254,20.814626 385.822226,20.4883678 C386.812198,20.1631291 387.970048,20 389.298829,20 C390.626592,20 391.785459,20.1498749 392.775431,20.4486051 C393.764385,20.7473352 394.597671,21.12763 395.275288,21.5884697 C395.952905,22.050329 396.467731,22.5458337 396.820784,23.0760033 C397.171802,23.6051534 397.363081,24.1149319 397.389534,24.6032997 C397.415988,24.9030494 397.315261,25.1609973 397.084301,25.3781629 C396.854359,25.5953286 396.589824,25.7034016 396.291713,25.7034016 L394.950724,25.7034016 C394.786915,25.7034016 394.590549,25.6697562 394.361624,25.6014459 C394.129647,25.5341552 393.920054,25.3781629 393.729792,25.1334693 C393.377757,24.67161 392.855809,24.2851979 392.164965,23.9721939 C391.474121,23.6602095 390.518743,23.5042173 389.298829,23.5042173 C388.051444,23.5042173 387.04214,23.7346371 386.269901,24.1964964 C385.497662,24.6583557 385.111034,25.2965984 385.111034,26.1112244 C385.111034,26.6271202 385.218883,27.0420799 385.436615,27.3540643 C385.653331,27.6660488 386.006383,27.9382705 386.493739,28.1686903 C386.982111,28.3991102 387.624118,28.6101585 388.424845,28.8008156 C389.224555,28.9904532 390.219614,29.2218927 391.413075,29.4930948 C392.659442,29.764297 393.703339,30.1109463 394.543747,30.5320234 C395.383137,30.9531004 396.060754,31.4282139 396.576597,31.957364 C397.091424,32.4875336 397.457703,33.0717397 397.673401,33.7089628 C397.890116,34.3472055 398,35.0201131 398,35.7256465 C398,36.5412921 397.802616,37.32839 397.409883,38.0889795 C397.01715,38.849569 396.454504,39.5153397 395.721945,40.085272 C394.991421,40.6562239 394.103194,41.1180832 393.059297,41.4708499 C392.016418,41.8225971 390.83008,42 389.502317,42 C388.173537,42 386.99432,41.8368709 385.965686,41.5116322 C384.935016,41.185374 384.053911,40.7846881 383.322369,40.3095746 C382.58981,39.834461 382.027164,39.3175456 381.635449,38.7618871 C381.241698,38.205209 381.031088,37.6811567 381.004634,37.1917694 C380.977163,36.8940588 381.071786,36.6371304 381.289518,36.4189452 C381.506234,36.2017796 381.776873,36.092687 382.102455,36.092687 L383.565538,36.092687 C383.728329,36.092687 383.918591,36.1130781 384.135306,36.1538604 C384.352021,36.1946427 384.55551,36.3506349 384.744754,36.6228566 C385.178185,37.220317 385.774406,37.6811567 386.534436,38.007415 C387.292431,38.3336732 388.282403,38.4968023 389.502317,38.4968023 C390.097521,38.4968023 390.687638,38.428492 391.270633,38.2928909 C391.853628,38.1572898 392.368454,37.9666327 392.816129,37.721939 C393.262786,37.4782649 393.621943,37.1866716 393.893601,36.8471591 C394.163223,36.5076467 394.29956,36.1334693 394.29956,35.7256465" id="Fill-32" fill="#FFFFFF"></path>
                <path d="M407.550573,34.0986888 C407.550573,34.5980544 407.595839,35.0648527 407.688339,35.4980967 C407.778871,35.9323276 407.943207,36.3063584 408.180361,36.6231496 C408.415548,36.937967 408.750123,37.1817285 409.182119,37.3524602 C409.615098,37.5231919 410.172067,37.6090512 410.853026,37.6090512 L412.938216,37.6090512 C413.226541,37.6090512 413.475504,37.7136614 413.684122,37.9238686 C413.893723,38.1350627 414,38.3847455 414,38.6739038 L414,39.9351473 C414,40.2243057 413.893723,40.4739884 413.684122,40.6841957 C413.475504,40.8953898 413.226541,41 412.938216,41 L410.460392,41 C408.180361,41 406.528151,40.4088538 405.505729,39.2245876 C404.483306,38.0422952 403.971603,36.3339913 403.971603,34.0986888 L403.971603,23.8843931 L401.061784,23.8843931 C400.773459,23.8843931 400.524496,23.7797829 400.314894,23.5695756 C400.105293,23.3593684 400,23.1096856 400,22.8195404 L400,21.55731 C400,21.2691386 400.105293,21.0194558 400.314894,20.8082617 C400.524496,20.5980544 400.773459,20.4934442 401.061784,20.4934442 L403.971603,20.4934442 L403.971603,14.0648527 C403.971603,13.7756943 404.076896,13.5260116 404.287482,13.3158043 C404.496099,13.1055971 404.745062,13 405.033387,13 L406.488789,13 C406.777114,13 407.026077,13.1055971 407.236663,13.3158043 C407.446264,13.5260116 407.550573,13.7756943 407.550573,14.0648527 L407.550573,20.4934442 L412.544598,20.4934442 C412.832923,20.4934442 413.081887,20.5980544 413.291488,20.8082617 C413.501089,21.0194558 413.606382,21.2691386 413.606382,21.55731 L413.606382,22.8195404 C413.606382,23.1096856 413.501089,23.3593684 413.291488,23.5695756 C413.081887,23.7797829 412.832923,23.8843931 412.544598,23.8843931 L407.550573,23.8843931 L407.550573,34.0986888 Z" id="Fill-34" fill="#FFFFFF"></path>
                <path d="M433.33496,32.711247 C433.387787,32.2494091 433.414699,31.6866398 433.414699,31.0208999 C433.414699,30.3551601 433.387787,29.7781176 433.33496,29.2897725 C433.25522,28.4741647 433.081786,27.71463 432.816651,27.0081097 C432.551516,26.3015895 432.179729,25.6909032 431.701291,25.1740118 C431.223848,24.6591594 430.639754,24.2513555 429.950005,23.9526391 C429.258263,23.6539228 428.448904,23.5040549 427.519935,23.5040549 C426.58997,23.5040549 425.780611,23.6539228 425.090861,23.9526391 C424.399119,24.2513555 423.815025,24.6591594 423.337583,25.1740118 C422.859144,25.6909032 422.487357,26.3015895 422.223219,27.0081097 C421.957087,27.71463 421.783653,28.4741647 421.70491,29.2897725 C421.651086,29.7781176 421.62517,30.3551601 421.62517,31.0208999 C421.62517,31.6866398 421.651086,32.2494091 421.70491,32.711247 C421.783653,33.5258353 421.957087,34.2863895 422.223219,34.9929098 C422.487357,35.6984105 422.859144,36.3101163 423.337583,36.8259882 C423.815025,37.3418601 424.399119,37.749664 425.090861,38.0483804 C425.780611,38.3470967 426.58997,38.4959451 427.519935,38.4959451 C428.448904,38.4959451 429.258263,38.3470967 429.950005,38.0483804 C430.639754,37.749664 431.223848,37.3418601 431.701291,36.8259882 C432.179729,36.3101163 432.551516,35.6984105 432.816651,34.9929098 C433.081786,34.2863895 433.25522,33.5258353 433.33496,32.711247 M427.519935,20 C428.953258,20 430.228098,20.2242921 431.343458,20.6728764 C432.458819,21.1204412 433.414699,21.7392836 434.211101,22.5263451 C435.008499,23.3144261 435.638443,24.2717457 436.102927,25.3983039 C436.567412,26.5258816 436.852481,27.7554104 436.96013,29.084851 C436.986046,29.3295333 437,29.6221326 437,29.9616294 L437,31.0208999 L437,32.0801705 C437,32.4196673 436.986046,32.6979934 436.96013,32.915149 C436.826566,34.2731359 436.534519,35.5087817 436.082992,36.6220863 C435.631466,37.7353909 435.008499,38.6865934 434.211101,39.4736549 C433.414699,40.2617359 432.458819,40.8795588 431.343458,41.3281431 C430.228098,41.7757079 428.953258,42 427.519935,42 C426.086612,42 424.810775,41.7757079 423.696412,41.3281431 C422.581051,40.8795588 421.62517,40.2617359 420.827773,39.4736549 C420.031371,38.6865934 419.401427,37.7353909 418.936943,36.6220863 C418.471462,35.5087817 418.186392,34.2731359 418.07974,32.915149 C418.052828,32.6979934 418.032893,32.4196673 418.020932,32.0801705 C418.00598,31.7406738 418,31.3869039 418,31.0208999 C418,30.6538765 418.00598,30.3011261 418.020932,29.9616294 C418.032893,29.6221326 418.052828,29.3295333 418.07974,29.084851 C418.186392,27.7554104 418.471462,26.5258816 418.936943,25.3983039 C419.401427,24.2717457 420.031371,23.3144261 420.827773,22.5263451 C421.62517,21.7392836 422.581051,21.1204412 423.696412,20.6728764 C424.810775,20.2242921 426.086612,20 427.519935,20" id="Fill-36" fill="#FFFFFF"></path>
                <path d="M460,39.9301195 C460,40.2206431 459.895678,40.4715048 459.688008,40.6827046 C459.480338,40.8948959 459.233669,41 458.948001,41 L457.506012,41 C457.21937,41 456.973676,40.8948959 456.766006,40.6827046 C456.558336,40.4715048 456.454014,40.2206431 456.454014,39.9301195 L456.454014,29.4702772 C456.454014,27.4356202 455.973351,25.9175598 455.013,24.9131215 C454.051674,23.9096747 452.714007,23.4079513 451,23.4079513 C449.363991,23.4079513 448.044849,23.9096747 447.045499,24.9131215 C446.045174,25.9175598 445.545986,27.4356202 445.545986,29.4702772 L445.545986,39.9301195 C445.545986,40.2206431 445.440689,40.4715048 445.233019,40.6827046 C445.026324,40.8948959 444.779656,41 444.493988,41 L443.051999,41 C442.765356,41 442.518687,40.8948959 442.311017,40.6827046 C442.104322,40.4715048 442,40.2206431 442,39.9301195 L442,21.4655083 C442,21.1759762 442.104322,20.9251145 442.311017,20.7129232 C442.518687,20.5017234 442.765356,20.3966193 443.051999,20.3966193 L444.493988,20.3966193 C444.779656,20.3966193 445.026324,20.5017234 445.233019,20.7129232 C445.440689,20.9251145 445.545986,21.1759762 445.545986,21.4655083 L445.545986,22.6940365 C446.039324,22.034657 446.773481,21.4208886 447.747481,20.8517399 C448.721482,20.2845743 449.999675,20 451.58401,20 C452.80468,20 453.934677,20.2052505 454.974001,20.6147599 C456.01235,21.0242693 456.902502,21.6053166 457.642509,22.3579017 C458.38349,23.1104868 458.960676,24.0415506 459.376016,25.1510931 C459.791355,26.2606355 460,27.5020539 460,28.8753482 L460,39.9301195 Z" id="Fill-38" fill="#FFFFFF"></path>
                <polygon id="Fill-40" fill="#39486C" points="323 19 323.080175 12 330 12 330 18.918934"></polygon>
                <path d="M326.499612,18 C329.830874,18 329.83605,13 326.499612,13 C323.169385,13 323.164209,18 326.499612,18" id="Fill-42" fill="#50B9AD"></path>
                <path d="M19.9649001,30.547521 C19.9145134,27.0070431 22.4951053,23.5487619 25.9293081,22.9272737 C27.8044856,22.5884624 27.0091653,19.6895206 25.1418917,20.0273295 C20.451972,20.8753602 16.9328034,25.7720859 17.0009737,30.547521 C17.028637,32.4811513 19.9925634,32.4871657 19.9649001,30.547521" id="Fill-44" fill="#50B9AD"></path>
                <path d="M32.0739817,22.8074013 C35.845362,23.5401395 38.7205924,25.7421904 39.0146726,29.6178385 C39.1537646,31.4535204 42.135301,31.4679066 41.9952155,29.6178385 C41.6057579,24.4896301 38.0171843,21.0340597 32.8658126,20.0327787 C30.9930381,19.6692868 30.1912721,22.4410321 32.0739817,22.8074013" id="Fill-46" fill="#50B9AD"></path>
                <path d="M34.2161537,21.3583464 C36.9793946,19.1807925 38.573496,16.7250229 37.8085645,13.0521825 C37.1256606,9.77552918 33.5174373,6.90882616 30.1513434,7.00222012 C22.2183912,7.22243324 18.865145,17.4023749 25.6467469,21.7584658 C27.2546843,22.7916979 28.742051,20.238602 27.1430082,19.2112684 C22.698697,16.3563625 25.5578014,9.13750097 30.8382005,9.99279302 C33.2110693,10.378166 35.025558,12.6422322 35.0038157,14.9584024 C34.9840501,17.0415793 33.641961,18.0728452 32.119016,19.2732033 C30.6247312,20.4509503 32.7347167,22.5252793 34.2161537,21.3583464" id="Fill-48" fill="#50B9AD"></path>
                <g id="Group-52" transform="translate(0.000000, 20.000000)">
                    <mask id="mask-4" fill="white">
                        <use xlink:href="#path-3"></use>
                    </mask>
                    <g id="Clip-51"></g>
                    <path d="M8.359,0.3198 C2.481,1.5708 -0.195,7.3788 0.011,12.9318 C0.271,19.9598 6.016,22.6868 12.449,22.1368 C14.358,21.9738 14.376,18.9718 12.449,19.1368 C7.482,19.5618 3.137,18.0708 3.002,12.5538 C2.906,8.6698 4.653,4.1718 9.156,3.2128 C11.044,2.8108 10.245,-0.0812 8.359,0.3198" id="Fill-50" fill="#39486C" mask="url(#mask-4)"></path>
                </g>
                <g id="Group-119" transform="translate(3.000000, 51.000000)" fill="#39486C">
                    <path d="M5.1105,6.5449 L8.1405,0.6809 C8.2005,0.5609 8.2825,0.4499 8.3875,0.3509 C8.4925,0.2499 8.6305,0.1999 8.8005,0.1999 L9.3705,0.1999 C9.4805,0.1999 9.5755,0.2399 9.6555,0.3199 C9.7355,0.3999 9.7755,0.4949 9.7755,0.6059 L9.7755,10.2949 C9.7755,10.4049 9.7355,10.4999 9.6555,10.5799 C9.5755,10.6599 9.4805,10.6999 9.3705,10.6999 L8.7555,10.6999 C8.6455,10.6999 8.5505,10.6599 8.4705,10.5799 C8.3905,10.4999 8.3505,10.4049 8.3505,10.2949 L8.3505,3.1859 L6.0105,7.6999 C5.9305,7.8509 5.8455,7.9679 5.7555,8.0529 C5.6655,8.1379 5.5455,8.1809 5.3955,8.1809 L4.8255,8.1809 C4.6755,8.1809 4.5555,8.1379 4.4655,8.0529 C4.3755,7.9679 4.2905,7.8509 4.2105,7.6999 L1.8705,3.1859 L1.8705,10.2949 C1.8705,10.4049 1.8305,10.4999 1.7505,10.5799 C1.6705,10.6599 1.5755,10.6999 1.4655,10.6999 L0.8505,10.6999 C0.7405,10.6999 0.6455,10.6599 0.5655,10.5799 C0.4855,10.4999 0.4455,10.4049 0.4455,10.2949 L0.4455,0.6059 C0.4455,0.4949 0.4855,0.3999 0.5655,0.3199 C0.6455,0.2399 0.7405,0.1999 0.8505,0.1999 L1.4205,0.1999 C1.5905,0.1999 1.7275,0.2499 1.8335,0.3509 C1.9385,0.4499 2.0205,0.5609 2.0805,0.6809 L5.1105,6.5449 Z" id="Fill-53"></path>
                    <path d="M14.3951,9.5605 C14.7551,9.5605 15.0851,9.5045 15.3851,9.3955 C15.6851,9.2855 15.9421,9.1325 16.1571,8.9375 C16.3731,8.7435 16.5381,8.5095 16.6521,8.2405 C16.7671,7.9695 16.8251,7.6695 16.8251,7.3395 L16.8251,6.9645 L15.0551,7.2495 C14.4251,7.3505 13.9251,7.5105 13.5551,7.7305 C13.1851,7.9505 13.0001,8.2355 13.0001,8.5845 C13.0001,8.6955 13.0251,8.8055 13.0751,8.9145 C13.1251,9.0255 13.2051,9.1295 13.3151,9.2305 C13.4251,9.3305 13.5671,9.4105 13.7431,9.4695 C13.9171,9.5305 14.1351,9.5605 14.3951,9.5605 M11.6351,8.7355 C11.6351,8.3345 11.7151,7.9855 11.8751,7.6855 C12.0351,7.3845 12.2551,7.1295 12.5351,6.9195 C12.8151,6.7095 13.1431,6.5395 13.5181,6.4105 C13.8931,6.2805 14.2901,6.1805 14.7101,6.1105 L16.8251,5.7655 L16.8251,5.5705 C16.8251,5.0605 16.6571,4.6775 16.3221,4.4225 C15.9871,4.1675 15.5701,4.0395 15.0701,4.0395 C14.6301,4.0395 14.2971,4.1205 14.0721,4.2805 C13.8481,4.4405 13.6551,4.6295 13.4951,4.8505 C13.4351,4.9305 13.3701,4.9855 13.3001,5.0155 C13.2301,5.0445 13.1351,5.0605 13.0151,5.0605 L12.5651,5.0605 C12.4551,5.0605 12.3571,5.0205 12.2721,4.9405 C12.1871,4.8605 12.1501,4.7655 12.1601,4.6555 C12.1801,4.4355 12.2671,4.2095 12.4221,3.9805 C12.5771,3.7495 12.7881,3.5445 13.0521,3.3655 C13.3171,3.1855 13.6231,3.0385 13.9671,2.9225 C14.3121,2.8075 14.6801,2.7495 15.0701,2.7495 C15.5201,2.7495 15.9371,2.8155 16.3221,2.9455 C16.7081,3.0755 17.0371,3.2655 17.3121,3.5155 C17.5871,3.7655 17.8021,4.0755 17.9581,4.4455 C18.1121,4.8155 18.1901,5.2405 18.1901,5.7195 L18.1901,10.2945 C18.1901,10.4055 18.1501,10.4995 18.0701,10.5805 C17.9901,10.6605 17.8951,10.7005 17.7851,10.7005 L17.2301,10.7005 C17.1201,10.7005 17.0251,10.6605 16.9451,10.5805 C16.8651,10.4995 16.8251,10.4055 16.8251,10.2945 L16.8251,9.6805 C16.7351,9.8705 16.5951,10.0385 16.4051,10.1825 C16.2151,10.3285 15.9981,10.4505 15.7521,10.5495 C15.5071,10.6505 15.2521,10.7245 14.9871,10.7755 C14.7221,10.8255 14.4751,10.8505 14.2451,10.8505 C13.8551,10.8505 13.4971,10.7945 13.1721,10.6855 C12.8471,10.5755 12.5721,10.4275 12.3481,10.2435 C12.1231,10.0575 11.9471,9.8345 11.8221,9.5755 C11.6971,9.3155 11.6351,9.0355 11.6351,8.7355" id="Fill-55"></path>
                    <path d="M21.7452,7.4004 L21.7452,10.2954 C21.7452,10.4054 21.7042,10.5004 21.6252,10.5804 C21.5452,10.6604 21.4502,10.7004 21.3402,10.7004 L20.7852,10.7004 C20.6752,10.7004 20.5792,10.6604 20.5002,10.5804 C20.4202,10.5004 20.3802,10.4054 20.3802,10.2954 L20.3802,0.4554 C20.3802,0.3454 20.4202,0.2504 20.5002,0.1704 C20.5792,0.0894 20.6752,0.0494 20.7852,0.0494 L21.3402,0.0494 C21.4502,0.0494 21.5452,0.0894 21.6252,0.1704 C21.7042,0.2504 21.7452,0.3454 21.7452,0.4554 L21.7452,5.4204 L24.6702,3.1554 C24.7302,3.1054 24.8072,3.0494 24.9022,2.9904 C24.9972,2.9304 25.1152,2.9004 25.2552,2.9004 L26.0052,2.9004 C26.1042,2.9004 26.1902,2.9354 26.2602,3.0044 C26.3292,3.0754 26.3652,3.1604 26.3652,3.2594 C26.3652,3.3104 26.3572,3.3574 26.3422,3.4024 C26.3272,3.4474 26.2802,3.5004 26.2002,3.5604 L22.5852,6.3794 L26.5752,10.0554 C26.6352,10.1154 26.6752,10.1654 26.6952,10.2054 C26.7152,10.2454 26.7252,10.2904 26.7252,10.3394 C26.7252,10.4404 26.6902,10.5254 26.6202,10.5944 C26.5502,10.6654 26.4652,10.7004 26.3652,10.7004 L25.6602,10.7004 C25.5102,10.7004 25.3822,10.6704 25.2772,10.6104 C25.1722,10.5494 25.0952,10.4954 25.0452,10.4454 L21.7452,7.4004 Z" id="Fill-57"></path>
                    <path d="M29.4103,10.2949 C29.4103,10.4049 29.3693,10.4999 29.2903,10.5799 C29.2103,10.6599 29.1153,10.6999 29.0053,10.6999 L28.4503,10.6999 C28.3403,10.6999 28.2443,10.6599 28.1653,10.5799 C28.0853,10.4999 28.0453,10.4049 28.0453,10.2949 L28.0453,3.3059 C28.0453,3.1949 28.0853,3.1009 28.1653,3.0209 C28.2443,2.9409 28.3403,2.8999 28.4503,2.8999 L29.0053,2.8999 C29.1153,2.8999 29.2103,2.9409 29.2903,3.0209 C29.3693,3.1009 29.4103,3.1949 29.4103,3.3059 L29.4103,10.2949 Z M29.5603,1.3109 C29.5603,1.4199 29.5203,1.5159 29.4403,1.5949 C29.3603,1.6759 29.2643,1.7149 29.1553,1.7149 L28.3003,1.7149 C28.1903,1.7149 28.0953,1.6759 28.0153,1.5949 C27.9343,1.5159 27.8953,1.4199 27.8953,1.3109 L27.8953,0.4549 C27.8953,0.3459 27.9343,0.2499 28.0153,0.1699 C28.0953,0.0899 28.1903,0.0499 28.3003,0.0499 L29.1553,0.0499 C29.2643,0.0499 29.3603,0.0899 29.4403,0.1699 C29.5203,0.2499 29.5603,0.3459 29.5603,0.4549 L29.5603,1.3109 Z" id="Fill-59"></path>
                    <path d="M38.59,10.2949 C38.59,10.4049 38.55,10.4999 38.47,10.5799 C38.39,10.6599 38.295,10.6999 38.185,10.6999 L37.63,10.6999 C37.52,10.6999 37.425,10.6599 37.345,10.5799 C37.265,10.4999 37.225,10.4049 37.225,10.2949 L37.225,6.3349 C37.225,5.5659 37.04,4.9899 36.67,4.6099 C36.3,4.2309 35.785,4.0399 35.125,4.0399 C34.495,4.0399 33.987,4.2309 33.602,4.6099 C33.217,4.9899 33.025,5.5659 33.025,6.3349 L33.025,10.2949 C33.025,10.4049 32.985,10.4999 32.905,10.5799 C32.825,10.6599 32.73,10.6999 32.62,10.6999 L32.065,10.6999 C31.955,10.6999 31.86,10.6599 31.78,10.5799 C31.7,10.4999 31.66,10.4049 31.66,10.2949 L31.66,3.3059 C31.66,3.1949 31.7,3.1009 31.78,3.0209 C31.86,2.9409 31.955,2.8999 32.065,2.8999 L32.62,2.8999 C32.73,2.8999 32.825,2.9409 32.905,3.0209 C32.985,3.1009 33.025,3.1949 33.025,3.3059 L33.025,3.7709 C33.215,3.5209 33.497,3.2879 33.872,3.0719 C34.247,2.8579 34.74,2.7499 35.35,2.7499 C35.82,2.7499 36.255,2.8279 36.655,2.9829 C37.055,3.1379 37.397,3.3579 37.682,3.6429 C37.967,3.9279 38.19,4.2799 38.35,4.6999 C38.509,5.1199 38.59,5.5909 38.59,6.1099 L38.59,10.2949 Z" id="Fill-61"></path>
                    <path d="M46.1197,6.2598 C46.0897,5.5498 45.8767,5.0028 45.4817,4.6178 C45.0867,4.2328 44.5747,4.0398 43.9447,4.0398 C43.2847,4.0398 42.7647,4.2498 42.3847,4.6698 C42.0047,5.0898 41.7947,5.6598 41.7547,6.3798 C41.7447,6.6598 41.7447,6.9408 41.7547,7.2198 C41.7947,7.9408 42.0047,8.5098 42.3847,8.9308 C42.7647,9.3508 43.2847,9.5608 43.9447,9.5608 C44.5747,9.5608 45.0867,9.3648 45.4817,8.9758 C45.8767,8.5848 46.0897,8.0398 46.1197,7.3398 C46.1297,7.1908 46.1347,7.0098 46.1347,6.7998 C46.1347,6.5898 46.1297,6.4098 46.1197,6.2598 M40.3897,6.3058 C40.4197,5.7548 40.5247,5.2608 40.7047,4.8208 C40.8847,4.3798 41.1247,4.0078 41.4247,3.7028 C41.7247,3.3978 42.0777,3.1628 42.4817,2.9978 C42.8877,2.8328 43.3247,2.7498 43.7947,2.7498 C44.4147,2.7498 44.9097,2.8578 45.2797,3.0718 C45.6497,3.2878 45.9297,3.5208 46.1197,3.7708 L46.1197,3.3058 C46.1197,3.1958 46.1597,3.1008 46.2397,3.0208 C46.3197,2.9408 46.4147,2.9008 46.5247,2.9008 L47.0797,2.9008 C47.1897,2.9008 47.2847,2.9408 47.3647,3.0208 C47.4447,3.1008 47.4847,3.1958 47.4847,3.3058 L47.4847,10.5948 C47.4847,11.6348 47.1897,12.4628 46.5997,13.0778 C46.0097,13.6928 45.1247,13.9998 43.9447,13.9998 C43.3447,13.9998 42.8317,13.9278 42.4077,13.7838 C41.9817,13.6398 41.6317,13.4578 41.3567,13.2388 C41.0817,13.0208 40.8767,12.7818 40.7427,12.5238 C40.6067,12.2648 40.5347,12.0168 40.5247,11.7788 C40.5147,11.6678 40.5527,11.5738 40.6377,11.4938 C40.7227,11.4148 40.8197,11.3748 40.9297,11.3748 L41.3797,11.3748 C41.4897,11.3748 41.5817,11.4028 41.6577,11.4568 C41.7317,11.5108 41.8047,11.6168 41.8747,11.7758 C41.9047,11.8348 41.9527,11.9168 42.0167,12.0208 C42.0817,12.1238 42.1867,12.2288 42.3317,12.3318 C42.4767,12.4358 42.6667,12.5248 42.9027,12.5988 C43.1377,12.6728 43.4347,12.7098 43.7947,12.7098 C44.1247,12.7098 44.4327,12.6778 44.7177,12.6128 C45.0017,12.5478 45.2497,12.4408 45.4597,12.2898 C45.6697,12.1408 45.8317,11.9408 45.9477,11.6908 C46.0617,11.4408 46.1197,11.1348 46.1197,10.7758 L46.1197,9.8298 C45.9197,10.1008 45.6347,10.3378 45.2647,10.5428 C44.8947,10.7468 44.4047,10.8508 43.7947,10.8508 C43.3247,10.8508 42.8877,10.7678 42.4817,10.6028 C42.0777,10.4378 41.7247,10.2028 41.4247,9.8978 C41.1247,9.5928 40.8847,9.2208 40.7047,8.7808 C40.5247,8.3398 40.4197,7.8458 40.3897,7.2948 C40.3797,7.1458 40.3747,6.9808 40.3747,6.7998 C40.3747,6.6198 40.3797,6.4548 40.3897,6.3058" id="Fill-63"></path>
                    <path d="M54.7599,10.2949 C54.7599,10.4049 54.7189,10.4999 54.6399,10.5799 C54.5599,10.6599 54.4649,10.6999 54.3549,10.6999 L53.7999,10.6999 C53.6899,10.6999 53.5939,10.6599 53.5149,10.5799 C53.4349,10.4999 53.3949,10.4049 53.3949,10.2949 L53.3949,0.4549 C53.3949,0.3459 53.4349,0.2499 53.5149,0.1699 C53.5939,0.0899 53.6899,0.0499 53.7999,0.0499 L54.3549,0.0499 C54.4649,0.0499 54.5599,0.0899 54.6399,0.1699 C54.7189,0.2499 54.7599,0.3459 54.7599,0.4549 L54.7599,10.2949 Z" id="Fill-65"></path>
                    <path d="M58.3746,10.2949 C58.3746,10.4049 58.3336,10.4999 58.2546,10.5799 C58.1746,10.6599 58.0796,10.6999 57.9696,10.6999 L57.4146,10.6999 C57.3046,10.6999 57.2086,10.6599 57.1296,10.5799 C57.0496,10.4999 57.0096,10.4049 57.0096,10.2949 L57.0096,3.3059 C57.0096,3.1949 57.0496,3.1009 57.1296,3.0209 C57.2086,2.9409 57.3046,2.8999 57.4146,2.8999 L57.9696,2.8999 C58.0796,2.8999 58.1746,2.9409 58.2546,3.0209 C58.3336,3.1009 58.3746,3.1949 58.3746,3.3059 L58.3746,10.2949 Z M58.5246,1.3109 C58.5246,1.4199 58.4846,1.5159 58.4046,1.5949 C58.3246,1.6759 58.2286,1.7149 58.1196,1.7149 L57.2646,1.7149 C57.1546,1.7149 57.0596,1.6759 56.9796,1.5949 C56.8986,1.5159 56.8596,1.4199 56.8596,1.3109 L56.8596,0.4549 C56.8596,0.3459 56.8986,0.2499 56.9796,0.1699 C57.0596,0.0899 57.1546,0.0499 57.2646,0.0499 L58.1196,0.0499 C58.2286,0.0499 58.3246,0.0899 58.4046,0.1699 C58.4846,0.2499 58.5246,0.3459 58.5246,0.4549 L58.5246,1.3109 Z" id="Fill-67"></path>
                    <path d="M67.5548,10.2949 C67.5548,10.4049 67.5148,10.4999 67.4348,10.5799 C67.3548,10.6599 67.2598,10.6999 67.1498,10.6999 L66.5948,10.6999 C66.4848,10.6999 66.3898,10.6599 66.3098,10.5799 C66.2298,10.4999 66.1898,10.4049 66.1898,10.2949 L66.1898,6.3349 C66.1898,5.5659 66.0048,4.9899 65.6348,4.6099 C65.2648,4.2309 64.7498,4.0399 64.0898,4.0399 C63.4598,4.0399 62.9518,4.2309 62.5668,4.6099 C62.1818,4.9899 61.9898,5.5659 61.9898,6.3349 L61.9898,10.2949 C61.9898,10.4049 61.9498,10.4999 61.8698,10.5799 C61.7898,10.6599 61.6948,10.6999 61.5848,10.6999 L61.0298,10.6999 C60.9198,10.6999 60.8248,10.6599 60.7448,10.5799 C60.6648,10.4999 60.6248,10.4049 60.6248,10.2949 L60.6248,3.3059 C60.6248,3.1949 60.6648,3.1009 60.7448,3.0209 C60.8248,2.9409 60.9198,2.8999 61.0298,2.8999 L61.5848,2.8999 C61.6948,2.8999 61.7898,2.9409 61.8698,3.0209 C61.9498,3.1009 61.9898,3.1949 61.9898,3.3059 L61.9898,3.7709 C62.1798,3.5209 62.4618,3.2879 62.8368,3.0719 C63.2118,2.8579 63.7048,2.7499 64.3148,2.7499 C64.7848,2.7499 65.2198,2.8279 65.6198,2.9829 C66.0198,3.1379 66.3618,3.3579 66.6468,3.6429 C66.9318,3.9279 67.1548,4.2799 67.3148,4.6999 C67.4738,5.1199 67.5548,5.5909 67.5548,6.1099 L67.5548,10.2949 Z" id="Fill-69"></path>
                    <path d="M71.0943,7.4004 L71.0943,10.2954 C71.0943,10.4054 71.0533,10.5004 70.9743,10.5804 C70.8943,10.6604 70.7993,10.7004 70.6893,10.7004 L70.1343,10.7004 C70.0243,10.7004 69.9283,10.6604 69.8493,10.5804 C69.7693,10.5004 69.7293,10.4054 69.7293,10.2954 L69.7293,0.4554 C69.7293,0.3454 69.7693,0.2504 69.8493,0.1704 C69.9283,0.0894 70.0243,0.0494 70.1343,0.0494 L70.6893,0.0494 C70.7993,0.0494 70.8943,0.0894 70.9743,0.1704 C71.0533,0.2504 71.0943,0.3454 71.0943,0.4554 L71.0943,5.4204 L74.0193,3.1554 C74.0793,3.1054 74.1563,3.0494 74.2513,2.9904 C74.3463,2.9304 74.4643,2.9004 74.6043,2.9004 L75.3543,2.9004 C75.4533,2.9004 75.5393,2.9354 75.6093,3.0044 C75.6783,3.0754 75.7143,3.1604 75.7143,3.2594 C75.7143,3.3104 75.7063,3.3574 75.6913,3.4024 C75.6763,3.4474 75.6293,3.5004 75.5493,3.5604 L71.9343,6.3794 L75.9243,10.0554 C75.9843,10.1154 76.0243,10.1654 76.0443,10.2054 C76.0643,10.2454 76.0743,10.2904 76.0743,10.3394 C76.0743,10.4404 76.0393,10.5254 75.9693,10.5944 C75.8993,10.6654 75.8143,10.7004 75.7143,10.7004 L75.0093,10.7004 C74.8593,10.7004 74.7313,10.6704 74.6263,10.6104 C74.5213,10.5494 74.4443,10.4954 74.3943,10.4454 L71.0943,7.4004 Z" id="Fill-71"></path>
                    <path d="M81.8341,8.54 C81.8341,8.351 81.7821,8.192 81.6771,8.067 C81.5721,7.942 81.4141,7.835 81.2041,7.745 C80.9941,7.655 80.7271,7.57 80.4011,7.49 C80.0771,7.41 79.6991,7.325 79.2691,7.235 C78.4591,7.065 77.8921,6.783 77.5661,6.388 C77.2421,5.993 77.0791,5.53 77.0791,5 C77.0791,4.7 77.1391,4.415 77.2591,4.145 C77.3791,3.875 77.5591,3.635 77.7991,3.425 C78.0391,3.215 78.3411,3.05 78.7071,2.931 C79.0711,2.811 79.4991,2.75 79.9891,2.75 C80.4791,2.75 80.9061,2.806 81.2721,2.915 C81.6361,3.025 81.9441,3.165 82.1941,3.335 C82.4441,3.505 82.6341,3.687 82.7641,3.883 C82.8941,4.078 82.9641,4.266 82.9741,4.445 C82.9841,4.556 82.9461,4.65 82.8611,4.73 C82.7761,4.811 82.6791,4.851 82.5691,4.851 L82.0741,4.851 C82.0141,4.851 81.9411,4.838 81.8561,4.812 C81.7721,4.788 81.6941,4.73 81.6241,4.641 C81.4941,4.471 81.3021,4.328 81.0461,4.213 C80.7921,4.098 80.4391,4.04 79.9891,4.04 C79.5291,4.04 79.1571,4.125 78.8721,4.295 C78.5861,4.466 78.4441,4.7 78.4441,5 C78.4441,5.19 78.4841,5.343 78.5641,5.458 C78.6441,5.573 78.7741,5.673 78.9541,5.758 C79.1341,5.843 79.3721,5.92 79.6671,5.99 C79.9611,6.061 80.3291,6.145 80.7691,6.245 C81.2291,6.346 81.6141,6.473 81.9241,6.628 C82.2341,6.783 82.4841,6.958 82.6741,7.152 C82.8641,7.348 82.9991,7.562 83.0791,7.798 C83.1591,8.033 83.1991,8.28 83.1991,8.54 C83.1991,8.84 83.1261,9.13 82.9811,9.41 C82.8361,9.69 82.6291,9.936 82.3591,10.145 C82.0891,10.355 81.7611,10.525 81.3761,10.655 C80.9921,10.785 80.5541,10.851 80.0641,10.851 C79.5741,10.851 79.1391,10.79 78.7591,10.67 C78.3791,10.55 78.0541,10.402 77.7841,10.227 C77.5141,10.053 77.3061,9.862 77.1621,9.657 C77.0171,9.453 76.9391,9.26 76.9291,9.08 C76.9191,8.971 76.9541,8.875 77.0341,8.795 C77.1141,8.715 77.2141,8.675 77.3341,8.675 L77.8741,8.675 C77.9341,8.675 78.0041,8.683 78.0841,8.697 C78.1641,8.713 78.2391,8.77 78.3091,8.87 C78.4691,9.09 78.6891,9.26 78.9691,9.38 C79.2491,9.5 79.6141,9.561 80.0641,9.561 C80.2841,9.561 80.5011,9.535 80.7161,9.485 C80.9321,9.436 81.1221,9.365 81.2871,9.275 C81.4521,9.186 81.5841,9.078 81.6841,8.953 C81.7841,8.828 81.8341,8.69 81.8341,8.54" id="Fill-73"></path>
                    <path d="M84.8639,9.4824 C84.8839,9.3424 84.9469,9.2114 85.0509,9.0864 C85.1559,8.9624 85.3089,8.9004 85.5089,8.9004 L86.3789,8.9004 C86.4689,8.9004 86.5469,8.9324 86.6119,8.9974 C86.6759,9.0614 86.7089,9.1384 86.7089,9.2284 C86.7089,9.2684 86.7039,9.3034 86.6939,9.3334 L85.9139,11.3474 C85.8739,11.4474 85.8059,11.5514 85.7119,11.6614 C85.6159,11.7704 85.4689,11.8254 85.2689,11.8254 L84.8939,11.8254 C84.8039,11.8254 84.7259,11.7934 84.6619,11.7284 C84.5959,11.6634 84.5639,11.5864 84.5639,11.4974 L84.5639,11.4664 L84.8639,9.4824 Z" id="Fill-75"></path>
                    <path d="M93.3985,7.3252 C93.4385,7.7252 93.5255,8.0652 93.6615,8.3452 C93.7955,8.6252 93.9605,8.8552 94.1565,9.0352 C94.3515,9.2152 94.5685,9.3472 94.8085,9.4322 C95.0485,9.5172 95.2935,9.5602 95.5435,9.5602 C96.0235,9.5602 96.4335,9.4702 96.7735,9.2902 C97.1135,9.1102 97.3785,8.8102 97.5685,8.3902 C97.6385,8.2302 97.7105,8.1232 97.7865,8.0672 C97.8605,8.0122 97.9535,7.9852 98.0635,7.9852 L98.5135,7.9852 C98.6235,7.9852 98.7215,8.0252 98.8065,8.1052 C98.8915,8.1852 98.9285,8.2802 98.9185,8.3902 C98.9085,8.6302 98.8315,8.8922 98.6865,9.1782 C98.5415,9.4632 98.3265,9.7272 98.0415,9.9722 C97.7555,10.2182 97.4055,10.4252 96.9915,10.5952 C96.5765,10.7642 96.0935,10.8502 95.5435,10.8502 C94.9935,10.8502 94.5055,10.7602 94.0815,10.5802 C93.6555,10.4002 93.2955,10.1552 93.0015,9.8452 C92.7065,9.5352 92.4765,9.1702 92.3115,8.7502 C92.1465,8.3302 92.0535,7.8802 92.0335,7.4002 C92.0235,7.2402 92.0165,7.0432 92.0115,6.8072 C92.0055,6.5732 92.0135,6.3702 92.0335,6.2002 C92.0735,5.7202 92.1765,5.2702 92.3405,4.8502 C92.5055,4.4302 92.7335,4.0652 93.0235,3.7552 C93.3135,3.4452 93.6685,3.2002 94.0885,3.0202 C94.5085,2.8402 94.9935,2.7502 95.5435,2.7502 C96.0935,2.7502 96.5765,2.8352 96.9915,3.0052 C97.4055,3.1762 97.7555,3.3832 98.0415,3.6282 C98.3265,3.8732 98.5415,4.1372 98.6865,4.4232 C98.8315,4.7082 98.9085,4.9702 98.9185,5.2102 C98.9285,5.3202 98.8915,5.4152 98.8065,5.4952 C98.7215,5.5752 98.6235,5.6152 98.5135,5.6152 L98.0635,5.6152 C97.9535,5.6152 97.8605,5.5882 97.7865,5.5322 C97.7105,5.4772 97.6385,5.3702 97.5685,5.2102 C97.3785,4.7902 97.1135,4.4902 96.7735,4.3102 C96.4335,4.1302 96.0235,4.0402 95.5435,4.0402 C95.2935,4.0402 95.0455,4.0832 94.8015,4.1682 C94.5555,4.2532 94.3355,4.3852 94.1415,4.5652 C93.9465,4.7452 93.7815,4.9752 93.6465,5.2552 C93.5115,5.5352 93.4285,5.8752 93.3985,6.2752 C93.3685,6.6452 93.3685,6.9952 93.3985,7.3252" id="Fill-77"></path>
                    <path d="M106.1036,7.4307 C106.1236,7.2607 106.1336,7.0527 106.1336,6.8077 C106.1336,6.5627 106.1236,6.3507 106.1036,6.1697 C106.0736,5.8697 106.0086,5.5907 105.9086,5.3297 C105.8086,5.0707 105.6686,4.8457 105.4886,4.6557 C105.3086,4.4657 105.0886,4.3157 104.8286,4.2047 C104.5686,4.0957 104.2636,4.0397 103.9136,4.0397 C103.5636,4.0397 103.2586,4.0957 102.9986,4.2047 C102.7386,4.3157 102.5186,4.4657 102.3386,4.6557 C102.1586,4.8457 102.0186,5.0707 101.9186,5.3297 C101.8186,5.5907 101.7536,5.8697 101.7236,6.1697 C101.7036,6.3507 101.6936,6.5627 101.6936,6.8077 C101.6936,7.0527 101.7036,7.2607 101.7236,7.4307 C101.7536,7.7307 101.8186,8.0107 101.9186,8.2707 C102.0186,8.5307 102.1586,8.7547 102.3386,8.9457 C102.5186,9.1357 102.7386,9.2847 102.9986,9.3957 C103.2586,9.5047 103.5636,9.5607 103.9136,9.5607 C104.2636,9.5607 104.5686,9.5047 104.8286,9.3957 C105.0886,9.2847 105.3086,9.1357 105.4886,8.9457 C105.6686,8.7547 105.8086,8.5307 105.9086,8.2707 C106.0086,8.0107 106.0736,7.7307 106.1036,7.4307 M103.9136,2.7497 C104.4536,2.7497 104.9336,2.8327 105.3536,2.9977 C105.7736,3.1627 106.1336,3.3907 106.4336,3.6807 C106.7336,3.9707 106.9716,4.3237 107.1466,4.7377 C107.3216,5.1527 107.4286,5.6057 107.4686,6.0947 C107.4786,6.1857 107.4836,6.2927 107.4836,6.4177 L107.4836,6.8077 L107.4836,7.1977 C107.4836,7.3237 107.4786,7.4247 107.4686,7.5047 C107.4186,8.0047 107.3086,8.4597 107.1386,8.8697 C106.9686,9.2807 106.7336,9.6297 106.4336,9.9197 C106.1336,10.2097 105.7736,10.4377 105.3536,10.6027 C104.9336,10.7677 104.4536,10.8507 103.9136,10.8507 C103.3736,10.8507 102.8936,10.7677 102.4736,10.6027 C102.0536,10.4377 101.6936,10.2097 101.3936,9.9197 C101.0936,9.6297 100.8556,9.2807 100.6816,8.8697 C100.5066,8.4597 100.3986,8.0047 100.3586,7.5047 C100.3486,7.4247 100.3416,7.3237 100.3366,7.1977 C100.3316,7.0737 100.3286,6.9427 100.3286,6.8077 C100.3286,6.6727 100.3316,6.5427 100.3366,6.4177 C100.3416,6.2927 100.3486,6.1857 100.3586,6.0947 C100.3986,5.6057 100.5066,5.1527 100.6816,4.7377 C100.8556,4.3237 101.0936,3.9707 101.3936,3.6807 C101.6936,3.3907 102.0536,3.1627 102.4736,2.9977 C102.8936,2.8327 103.3736,2.7497 103.9136,2.7497" id="Fill-79"></path>
                    <path d="M116.3038,10.2949 C116.3038,10.4049 116.2638,10.4999 116.1838,10.5799 C116.1038,10.6599 116.0088,10.6999 115.8988,10.6999 L115.3438,10.6999 C115.2338,10.6999 115.1388,10.6599 115.0588,10.5799 C114.9788,10.4999 114.9388,10.4049 114.9388,10.2949 L114.9388,6.3349 C114.9388,5.5659 114.7538,4.9899 114.3838,4.6099 C114.0138,4.2309 113.4988,4.0399 112.8388,4.0399 C112.2088,4.0399 111.7008,4.2309 111.3158,4.6099 C110.9308,4.9899 110.7388,5.5659 110.7388,6.3349 L110.7388,10.2949 C110.7388,10.4049 110.6988,10.4999 110.6188,10.5799 C110.5388,10.6599 110.4438,10.6999 110.3338,10.6999 L109.7788,10.6999 C109.6688,10.6999 109.5738,10.6599 109.4938,10.5799 C109.4138,10.4999 109.3738,10.4049 109.3738,10.2949 L109.3738,3.3059 C109.3738,3.1949 109.4138,3.1009 109.4938,3.0209 C109.5738,2.9409 109.6688,2.8999 109.7788,2.8999 L110.3338,2.8999 C110.4438,2.8999 110.5388,2.9409 110.6188,3.0209 C110.6988,3.1009 110.7388,3.1949 110.7388,3.3059 L110.7388,3.7709 C110.9288,3.5209 111.2108,3.2879 111.5858,3.0719 C111.9608,2.8579 112.4538,2.7499 113.0638,2.7499 C113.5338,2.7499 113.9688,2.8279 114.3688,2.9829 C114.7688,3.1379 115.1108,3.3579 115.3958,3.6429 C115.6808,3.9279 115.9038,4.2799 116.0638,4.6999 C116.2228,5.1199 116.3038,5.5909 116.3038,6.1099 L116.3038,10.2949 Z" id="Fill-81"></path>
                    <path d="M125.4088,10.2949 C125.4088,10.4049 125.3688,10.4999 125.2888,10.5799 C125.2088,10.6599 125.1138,10.6999 125.0038,10.6999 L124.4488,10.6999 C124.3388,10.6999 124.2438,10.6599 124.1638,10.5799 C124.0838,10.4999 124.0438,10.4049 124.0438,10.2949 L124.0438,6.3349 C124.0438,5.5659 123.8588,4.9899 123.4888,4.6099 C123.1188,4.2309 122.6038,4.0399 121.9438,4.0399 C121.3138,4.0399 120.8058,4.2309 120.4208,4.6099 C120.0358,4.9899 119.8438,5.5659 119.8438,6.3349 L119.8438,10.2949 C119.8438,10.4049 119.8038,10.4999 119.7238,10.5799 C119.6438,10.6599 119.5488,10.6999 119.4388,10.6999 L118.8838,10.6999 C118.7738,10.6999 118.6788,10.6599 118.5988,10.5799 C118.5188,10.4999 118.4788,10.4049 118.4788,10.2949 L118.4788,3.3059 C118.4788,3.1949 118.5188,3.1009 118.5988,3.0209 C118.6788,2.9409 118.7738,2.8999 118.8838,2.8999 L119.4388,2.8999 C119.5488,2.8999 119.6438,2.9409 119.7238,3.0209 C119.8038,3.1009 119.8438,3.1949 119.8438,3.3059 L119.8438,3.7709 C120.0338,3.5209 120.3158,3.2879 120.6908,3.0719 C121.0658,2.8579 121.5588,2.7499 122.1688,2.7499 C122.6388,2.7499 123.0738,2.8279 123.4738,2.9829 C123.8738,3.1379 124.2158,3.3579 124.5008,3.6429 C124.7858,3.9279 125.0088,4.2799 125.1688,4.6999 C125.3278,5.1199 125.4088,5.5909 125.4088,6.1099 L125.4088,10.2949 Z" id="Fill-83"></path>
                    <path d="M128.5587,6.0947 L132.7737,6.0947 L132.7737,6.0497 C132.7737,5.4407 132.5807,4.9527 132.1957,4.5877 C131.8107,4.2227 131.2987,4.0397 130.6587,4.0397 C130.3687,4.0397 130.0987,4.0877 129.8487,4.1827 C129.5987,4.2787 129.3787,4.4127 129.1887,4.5877 C128.9987,4.7627 128.8487,4.9757 128.7387,5.2257 C128.6287,5.4757 128.5687,5.7497 128.5587,6.0497 L128.5587,6.0947 Z M127.2237,6.0497 C127.2637,5.5907 127.3737,5.1597 127.5537,4.7597 C127.7337,4.3607 127.9687,4.0097 128.2587,3.7097 C128.5487,3.4097 128.8957,3.1757 129.3007,3.0047 C129.7057,2.8347 130.1587,2.7497 130.6587,2.7497 C131.1987,2.7497 131.6807,2.8377 132.1057,3.0127 C132.5307,3.1877 132.8937,3.4407 133.1937,3.7707 C133.4937,4.1007 133.7237,4.4997 133.8837,4.9697 C134.0437,5.4407 134.1237,5.9657 134.1237,6.5447 L134.1237,6.9497 C134.1237,7.0607 134.0837,7.1557 134.0037,7.2357 C133.9237,7.3157 133.8287,7.3557 133.7187,7.3557 L128.5587,7.3557 L128.5587,7.4457 C128.5787,8.1247 128.7857,8.6477 129.1817,9.0127 C129.5757,9.3777 130.0687,9.5607 130.6587,9.5607 C131.2087,9.5607 131.6207,9.4827 131.8957,9.3277 C132.1707,9.1727 132.3937,8.9997 132.5637,8.8107 C132.6437,8.7307 132.7137,8.6747 132.7737,8.6457 C132.8337,8.6157 132.9237,8.6007 133.0437,8.6007 L133.4937,8.6007 C133.6037,8.6007 133.7037,8.6407 133.7937,8.7197 C133.8837,8.8007 133.9187,8.8957 133.8987,9.0047 C133.8687,9.1857 133.7837,9.3827 133.6437,9.5977 C133.5037,9.8127 133.3007,10.0127 133.0367,10.1977 C132.7707,10.3827 132.4407,10.5377 132.0457,10.6627 C131.6507,10.7877 131.1887,10.8507 130.6587,10.8507 C130.1587,10.8507 129.7087,10.7627 129.3087,10.5877 C128.9087,10.4127 128.5607,10.1727 128.2667,9.8677 C127.9707,9.5627 127.7337,9.2027 127.5537,8.7877 C127.3737,8.3727 127.2637,7.9197 127.2237,7.4307 C127.1737,6.9707 127.1737,6.5107 127.2237,6.0497 L127.2237,6.0497 Z" id="Fill-85"></path>
                    <path d="M136.9435,7.3252 C136.9835,7.7252 137.0705,8.0652 137.2065,8.3452 C137.3405,8.6252 137.5055,8.8552 137.7015,9.0352 C137.8965,9.2152 138.1135,9.3472 138.3535,9.4322 C138.5935,9.5172 138.8385,9.5602 139.0885,9.5602 C139.5685,9.5602 139.9785,9.4702 140.3185,9.2902 C140.6585,9.1102 140.9235,8.8102 141.1135,8.3902 C141.1835,8.2302 141.2555,8.1232 141.3315,8.0672 C141.4055,8.0122 141.4985,7.9852 141.6085,7.9852 L142.0585,7.9852 C142.1685,7.9852 142.2665,8.0252 142.3515,8.1052 C142.4365,8.1852 142.4735,8.2802 142.4635,8.3902 C142.4535,8.6302 142.3765,8.8922 142.2315,9.1782 C142.0865,9.4632 141.8715,9.7272 141.5865,9.9722 C141.3005,10.2182 140.9505,10.4252 140.5365,10.5952 C140.1215,10.7642 139.6385,10.8502 139.0885,10.8502 C138.5385,10.8502 138.0505,10.7602 137.6265,10.5802 C137.2005,10.4002 136.8405,10.1552 136.5465,9.8452 C136.2515,9.5352 136.0215,9.1702 135.8565,8.7502 C135.6915,8.3302 135.5985,7.8802 135.5785,7.4002 C135.5685,7.2402 135.5615,7.0432 135.5565,6.8072 C135.5505,6.5732 135.5585,6.3702 135.5785,6.2002 C135.6185,5.7202 135.7215,5.2702 135.8855,4.8502 C136.0505,4.4302 136.2785,4.0652 136.5685,3.7552 C136.8585,3.4452 137.2135,3.2002 137.6335,3.0202 C138.0535,2.8402 138.5385,2.7502 139.0885,2.7502 C139.6385,2.7502 140.1215,2.8352 140.5365,3.0052 C140.9505,3.1762 141.3005,3.3832 141.5865,3.6282 C141.8715,3.8732 142.0865,4.1372 142.2315,4.4232 C142.3765,4.7082 142.4535,4.9702 142.4635,5.2102 C142.4735,5.3202 142.4365,5.4152 142.3515,5.4952 C142.2665,5.5752 142.1685,5.6152 142.0585,5.6152 L141.6085,5.6152 C141.4985,5.6152 141.4055,5.5882 141.3315,5.5322 C141.2555,5.4772 141.1835,5.3702 141.1135,5.2102 C140.9235,4.7902 140.6585,4.4902 140.3185,4.3102 C139.9785,4.1302 139.5685,4.0402 139.0885,4.0402 C138.8385,4.0402 138.5905,4.0832 138.3465,4.1682 C138.1005,4.2532 137.8805,4.3852 137.6865,4.5652 C137.4915,4.7452 137.3265,4.9752 137.1915,5.2552 C137.0565,5.5352 136.9735,5.8752 136.9435,6.2752 C136.9135,6.6452 136.9135,6.9952 136.9435,7.3252" id="Fill-87"></path>
                    <path d="M146.3033,8.0752 C146.3033,8.2652 146.3203,8.4422 146.3553,8.6072 C146.3903,8.7722 146.4533,8.9152 146.5433,9.0352 C146.6333,9.1552 146.7613,9.2482 146.9263,9.3122 C147.0913,9.3782 147.3033,9.4102 147.5633,9.4102 L148.3583,9.4102 C148.4683,9.4102 148.5633,9.4502 148.6433,9.5302 C148.7233,9.6102 148.7633,9.7052 148.7633,9.8152 L148.7633,10.2952 C148.7633,10.4052 148.7233,10.5002 148.6433,10.5802 C148.5633,10.6602 148.4683,10.7002 148.3583,10.7002 L147.4133,10.7002 C146.5433,10.7002 145.9133,10.4752 145.5233,10.0252 C145.1333,9.5752 144.9383,8.9252 144.9383,8.0752 L144.9383,4.1902 L143.8283,4.1902 C143.7183,4.1902 143.6233,4.1502 143.5433,4.0702 C143.4633,3.9902 143.4233,3.8952 143.4233,3.7852 L143.4233,3.3052 C143.4233,3.1952 143.4633,3.1002 143.5433,3.0202 C143.6233,2.9402 143.7183,2.9002 143.8283,2.9002 L144.9383,2.9002 L144.9383,0.4552 C144.9383,0.3462 144.9783,0.2502 145.0583,0.1702 C145.1383,0.0902 145.2333,0.0502 145.3433,0.0502 L145.8983,0.0502 C146.0083,0.0502 146.1033,0.0902 146.1833,0.1702 C146.2633,0.2502 146.3033,0.3462 146.3033,0.4552 L146.3033,2.9002 L148.2083,2.9002 C148.3183,2.9002 148.4133,2.9402 148.4933,3.0202 C148.5733,3.1002 148.6133,3.1952 148.6133,3.3052 L148.6133,3.7852 C148.6133,3.8952 148.5733,3.9902 148.4933,4.0702 C148.4133,4.1502 148.3183,4.1902 148.2083,4.1902 L146.3033,4.1902 L146.3033,8.0752 Z" id="Fill-89"></path>
                    <path d="M151.6285,10.2949 C151.6285,10.4049 151.5875,10.4999 151.5085,10.5799 C151.4285,10.6599 151.3335,10.6999 151.2235,10.6999 L150.6685,10.6999 C150.5585,10.6999 150.4625,10.6599 150.3835,10.5799 C150.3035,10.4999 150.2635,10.4049 150.2635,10.2949 L150.2635,3.3059 C150.2635,3.1949 150.3035,3.1009 150.3835,3.0209 C150.4625,2.9409 150.5585,2.8999 150.6685,2.8999 L151.2235,2.8999 C151.3335,2.8999 151.4285,2.9409 151.5085,3.0209 C151.5875,3.1009 151.6285,3.1949 151.6285,3.3059 L151.6285,10.2949 Z M151.7785,1.3109 C151.7785,1.4199 151.7385,1.5159 151.6585,1.5949 C151.5785,1.6759 151.4825,1.7149 151.3735,1.7149 L150.5185,1.7149 C150.4085,1.7149 150.3135,1.6759 150.2335,1.5949 C150.1525,1.5159 150.1135,1.4199 150.1135,1.3109 L150.1135,0.4549 C150.1135,0.3459 150.1525,0.2499 150.2335,0.1699 C150.3135,0.0899 150.4085,0.0499 150.5185,0.0499 L151.3735,0.0499 C151.4825,0.0499 151.5785,0.0899 151.6585,0.1699 C151.7385,0.2499 151.7785,0.3459 151.7785,0.4549 L151.7785,1.3109 Z" id="Fill-91"></path>
                    <path d="M160.8082,10.2949 C160.8082,10.4049 160.7682,10.4999 160.6882,10.5799 C160.6082,10.6599 160.5132,10.6999 160.4032,10.6999 L159.8482,10.6999 C159.7382,10.6999 159.6432,10.6599 159.5632,10.5799 C159.4832,10.4999 159.4432,10.4049 159.4432,10.2949 L159.4432,6.3349 C159.4432,5.5659 159.2582,4.9899 158.8882,4.6099 C158.5182,4.2309 158.0032,4.0399 157.3432,4.0399 C156.7132,4.0399 156.2052,4.2309 155.8202,4.6099 C155.4352,4.9899 155.2432,5.5659 155.2432,6.3349 L155.2432,10.2949 C155.2432,10.4049 155.2032,10.4999 155.1232,10.5799 C155.0432,10.6599 154.9482,10.6999 154.8382,10.6999 L154.2832,10.6999 C154.1732,10.6999 154.0782,10.6599 153.9982,10.5799 C153.9182,10.4999 153.8782,10.4049 153.8782,10.2949 L153.8782,3.3059 C153.8782,3.1949 153.9182,3.1009 153.9982,3.0209 C154.0782,2.9409 154.1732,2.8999 154.2832,2.8999 L154.8382,2.8999 C154.9482,2.8999 155.0432,2.9409 155.1232,3.0209 C155.2032,3.1009 155.2432,3.1949 155.2432,3.3059 L155.2432,3.7709 C155.4332,3.5209 155.7152,3.2879 156.0902,3.0719 C156.4652,2.8579 156.9582,2.7499 157.5682,2.7499 C158.0382,2.7499 158.4732,2.8279 158.8732,2.9829 C159.2732,3.1379 159.6152,3.3579 159.9002,3.6429 C160.1852,3.9279 160.4082,4.2799 160.5682,4.6999 C160.7272,5.1199 160.8082,5.5909 160.8082,6.1099 L160.8082,10.2949 Z" id="Fill-93"></path>
                    <path d="M168.338,6.2598 C168.308,5.5498 168.095,5.0028 167.7,4.6178 C167.305,4.2328 166.793,4.0398 166.163,4.0398 C165.503,4.0398 164.983,4.2498 164.603,4.6698 C164.223,5.0898 164.013,5.6598 163.973,6.3798 C163.963,6.6598 163.963,6.9408 163.973,7.2198 C164.013,7.9408 164.223,8.5098 164.603,8.9308 C164.983,9.3508 165.503,9.5608 166.163,9.5608 C166.793,9.5608 167.305,9.3648 167.7,8.9758 C168.095,8.5848 168.308,8.0398 168.338,7.3398 C168.348,7.1908 168.353,7.0098 168.353,6.7998 C168.353,6.5898 168.348,6.4098 168.338,6.2598 M162.608,6.3058 C162.638,5.7548 162.743,5.2608 162.923,4.8208 C163.103,4.3798 163.343,4.0078 163.643,3.7028 C163.943,3.3978 164.296,3.1628 164.7,2.9978 C165.106,2.8328 165.543,2.7498 166.013,2.7498 C166.633,2.7498 167.128,2.8578 167.498,3.0718 C167.868,3.2878 168.148,3.5208 168.338,3.7708 L168.338,3.3058 C168.338,3.1958 168.378,3.1008 168.458,3.0208 C168.538,2.9408 168.633,2.9008 168.743,2.9008 L169.298,2.9008 C169.408,2.9008 169.503,2.9408 169.583,3.0208 C169.663,3.1008 169.703,3.1958 169.703,3.3058 L169.703,10.5948 C169.703,11.6348 169.408,12.4628 168.818,13.0778 C168.228,13.6928 167.343,13.9998 166.163,13.9998 C165.563,13.9998 165.05,13.9278 164.626,13.7838 C164.2,13.6398 163.85,13.4578 163.575,13.2388 C163.3,13.0208 163.095,12.7818 162.961,12.5238 C162.825,12.2648 162.753,12.0168 162.743,11.7788 C162.733,11.6678 162.771,11.5738 162.856,11.4938 C162.941,11.4148 163.038,11.3748 163.148,11.3748 L163.598,11.3748 C163.708,11.3748 163.8,11.4028 163.876,11.4568 C163.95,11.5108 164.023,11.6168 164.093,11.7758 C164.123,11.8348 164.171,11.9168 164.235,12.0208 C164.3,12.1238 164.405,12.2288 164.55,12.3318 C164.695,12.4358 164.885,12.5248 165.121,12.5988 C165.356,12.6728 165.653,12.7098 166.013,12.7098 C166.343,12.7098 166.651,12.6778 166.936,12.6128 C167.22,12.5478 167.468,12.4408 167.678,12.2898 C167.888,12.1408 168.05,11.9408 168.166,11.6908 C168.28,11.4408 168.338,11.1348 168.338,10.7758 L168.338,9.8298 C168.138,10.1008 167.853,10.3378 167.483,10.5428 C167.113,10.7468 166.623,10.8508 166.013,10.8508 C165.543,10.8508 165.106,10.7678 164.7,10.6028 C164.296,10.4378 163.943,10.2028 163.643,9.8978 C163.343,9.5928 163.103,9.2208 162.923,8.7808 C162.743,8.3398 162.638,7.8458 162.608,7.2948 C162.598,7.1458 162.593,6.9808 162.593,6.7998 C162.593,6.6198 162.598,6.4548 162.608,6.3058" id="Fill-95"></path>
                    <path d="M176.6178,7.3252 C176.6578,7.7252 176.7448,8.0652 176.8808,8.3452 C177.0148,8.6252 177.1798,8.8552 177.3758,9.0352 C177.5708,9.2152 177.7878,9.3472 178.0278,9.4322 C178.2678,9.5172 178.5128,9.5602 178.7628,9.5602 C179.2428,9.5602 179.6528,9.4702 179.9928,9.2902 C180.3328,9.1102 180.5978,8.8102 180.7878,8.3902 C180.8578,8.2302 180.9298,8.1232 181.0058,8.0672 C181.0798,8.0122 181.1728,7.9852 181.2828,7.9852 L181.7328,7.9852 C181.8428,7.9852 181.9408,8.0252 182.0258,8.1052 C182.1108,8.1852 182.1478,8.2802 182.1378,8.3902 C182.1278,8.6302 182.0508,8.8922 181.9058,9.1782 C181.7608,9.4632 181.5458,9.7272 181.2608,9.9722 C180.9748,10.2182 180.6248,10.4252 180.2108,10.5952 C179.7958,10.7642 179.3128,10.8502 178.7628,10.8502 C178.2128,10.8502 177.7248,10.7602 177.3008,10.5802 C176.8748,10.4002 176.5148,10.1552 176.2208,9.8452 C175.9258,9.5352 175.6958,9.1702 175.5308,8.7502 C175.3658,8.3302 175.2728,7.8802 175.2528,7.4002 C175.2428,7.2402 175.2358,7.0432 175.2308,6.8072 C175.2248,6.5732 175.2328,6.3702 175.2528,6.2002 C175.2928,5.7202 175.3958,5.2702 175.5598,4.8502 C175.7248,4.4302 175.9528,4.0652 176.2428,3.7552 C176.5328,3.4452 176.8878,3.2002 177.3078,3.0202 C177.7278,2.8402 178.2128,2.7502 178.7628,2.7502 C179.3128,2.7502 179.7958,2.8352 180.2108,3.0052 C180.6248,3.1762 180.9748,3.3832 181.2608,3.6282 C181.5458,3.8732 181.7608,4.1372 181.9058,4.4232 C182.0508,4.7082 182.1278,4.9702 182.1378,5.2102 C182.1478,5.3202 182.1108,5.4152 182.0258,5.4952 C181.9408,5.5752 181.8428,5.6152 181.7328,5.6152 L181.2828,5.6152 C181.1728,5.6152 181.0798,5.5882 181.0058,5.5322 C180.9298,5.4772 180.8578,5.3702 180.7878,5.2102 C180.5978,4.7902 180.3328,4.4902 179.9928,4.3102 C179.6528,4.1302 179.2428,4.0402 178.7628,4.0402 C178.5128,4.0402 178.2648,4.0832 178.0208,4.1682 C177.7748,4.2532 177.5548,4.3852 177.3608,4.5652 C177.1658,4.7452 177.0008,4.9752 176.8658,5.2552 C176.7308,5.5352 176.6478,5.8752 176.6178,6.2752 C176.5878,6.6452 176.5878,6.9952 176.6178,7.3252" id="Fill-97"></path>
                    <path d="M189.3224,7.4307 C189.3424,7.2607 189.3524,7.0527 189.3524,6.8077 C189.3524,6.5627 189.3424,6.3507 189.3224,6.1697 C189.2924,5.8697 189.2274,5.5907 189.1274,5.3297 C189.0274,5.0707 188.8874,4.8457 188.7074,4.6557 C188.5274,4.4657 188.3074,4.3157 188.0474,4.2047 C187.7874,4.0957 187.4824,4.0397 187.1324,4.0397 C186.7824,4.0397 186.4774,4.0957 186.2174,4.2047 C185.9574,4.3157 185.7374,4.4657 185.5574,4.6557 C185.3774,4.8457 185.2374,5.0707 185.1374,5.3297 C185.0374,5.5907 184.9724,5.8697 184.9424,6.1697 C184.9224,6.3507 184.9124,6.5627 184.9124,6.8077 C184.9124,7.0527 184.9224,7.2607 184.9424,7.4307 C184.9724,7.7307 185.0374,8.0107 185.1374,8.2707 C185.2374,8.5307 185.3774,8.7547 185.5574,8.9457 C185.7374,9.1357 185.9574,9.2847 186.2174,9.3957 C186.4774,9.5047 186.7824,9.5607 187.1324,9.5607 C187.4824,9.5607 187.7874,9.5047 188.0474,9.3957 C188.3074,9.2847 188.5274,9.1357 188.7074,8.9457 C188.8874,8.7547 189.0274,8.5307 189.1274,8.2707 C189.2274,8.0107 189.2924,7.7307 189.3224,7.4307 M187.1324,2.7497 C187.6724,2.7497 188.1524,2.8327 188.5724,2.9977 C188.9924,3.1627 189.3524,3.3907 189.6524,3.6807 C189.9524,3.9707 190.1904,4.3237 190.3654,4.7377 C190.5404,5.1527 190.6474,5.6057 190.6874,6.0947 C190.6974,6.1857 190.7024,6.2927 190.7024,6.4177 L190.7024,6.8077 L190.7024,7.1977 C190.7024,7.3237 190.6974,7.4247 190.6874,7.5047 C190.6374,8.0047 190.5274,8.4597 190.3574,8.8697 C190.1874,9.2807 189.9524,9.6297 189.6524,9.9197 C189.3524,10.2097 188.9924,10.4377 188.5724,10.6027 C188.1524,10.7677 187.6724,10.8507 187.1324,10.8507 C186.5924,10.8507 186.1124,10.7677 185.6924,10.6027 C185.2724,10.4377 184.9124,10.2097 184.6124,9.9197 C184.3124,9.6297 184.0744,9.2807 183.9004,8.8697 C183.7254,8.4597 183.6174,8.0047 183.5774,7.5047 C183.5674,7.4247 183.5604,7.3237 183.5554,7.1977 C183.5504,7.0737 183.5474,6.9427 183.5474,6.8077 C183.5474,6.6727 183.5504,6.5427 183.5554,6.4177 C183.5604,6.2927 183.5674,6.1857 183.5774,6.0947 C183.6174,5.6057 183.7254,5.1527 183.9004,4.7377 C184.0744,4.3237 184.3124,3.9707 184.6124,3.6807 C184.9124,3.3907 185.2724,3.1627 185.6924,2.9977 C186.1124,2.8327 186.5924,2.7497 187.1324,2.7497" id="Fill-99"></path>
                    <path d="M193.9576,3.7705 C194.0476,3.6505 194.1526,3.5285 194.2726,3.4025 C194.3926,3.2775 194.5296,3.1675 194.6846,3.0725 C194.8396,2.9775 195.0226,2.9005 195.2326,2.8395 C195.4426,2.7805 195.6866,2.7495 195.9676,2.7495 C196.5776,2.7495 197.0826,2.8625 197.4826,3.0875 C197.8826,3.3125 198.1976,3.6345 198.4276,4.0555 C198.5576,3.8745 198.6946,3.7055 198.8396,3.5445 C198.9846,3.3855 199.1546,3.2455 199.3496,3.1245 C199.5446,3.0045 199.7646,2.9135 200.0096,2.8475 C200.2546,2.7835 200.5426,2.7495 200.8726,2.7495 C201.8826,2.7495 202.6176,3.0525 203.0776,3.6575 C203.5376,4.2625 203.7676,5.0895 203.7676,6.1405 L203.7676,10.2945 C203.7676,10.4055 203.7276,10.4995 203.6476,10.5805 C203.5666,10.6605 203.4726,10.7005 203.3626,10.7005 L202.8076,10.7005 C202.6976,10.7005 202.6026,10.6605 202.5226,10.5805 C202.4416,10.4995 202.4026,10.4055 202.4026,10.2945 L202.4026,6.2905 C202.4026,5.5205 202.2526,4.9535 201.9526,4.5875 C201.6526,4.2225 201.2116,4.0405 200.6326,4.0405 C200.1026,4.0405 199.6746,4.2145 199.3496,4.5655 C199.0246,4.9155 198.8626,5.4555 198.8626,6.1855 L198.8626,10.2945 C198.8626,10.4055 198.8226,10.4995 198.7426,10.5805 C198.6626,10.6605 198.5676,10.7005 198.4576,10.7005 L197.9026,10.7005 C197.7916,10.7005 197.6976,10.6605 197.6176,10.5805 C197.5376,10.4995 197.4976,10.4055 197.4976,10.2945 L197.4976,6.2905 C197.4976,5.5205 197.3476,4.9535 197.0476,4.5875 C196.7476,4.2225 196.3076,4.0405 195.7276,4.0405 C195.1976,4.0405 194.7696,4.2145 194.4446,4.5655 C194.1196,4.9155 193.9576,5.4555 193.9576,6.1855 L193.9576,10.2945 C193.9576,10.4055 193.9166,10.4995 193.8376,10.5805 C193.7576,10.6605 193.6626,10.7005 193.5526,10.7005 L192.9976,10.7005 C192.8876,10.7005 192.7916,10.6605 192.7126,10.5805 C192.6326,10.4995 192.5926,10.4055 192.5926,10.2945 L192.5926,3.3055 C192.5926,3.1955 192.6326,3.1005 192.7126,3.0205 C192.7916,2.9405 192.8876,2.9005 192.9976,2.9005 L193.5526,2.9005 C193.6626,2.9005 193.7576,2.9405 193.8376,3.0205 C193.9166,3.1005 193.9576,3.1955 193.9576,3.3055 L193.9576,3.7705 Z" id="Fill-101"></path>
                    <path d="M207.3077,3.7705 C207.3977,3.6505 207.5027,3.5285 207.6227,3.4025 C207.7427,3.2775 207.8797,3.1675 208.0347,3.0725 C208.1897,2.9775 208.3727,2.9005 208.5827,2.8395 C208.7927,2.7805 209.0367,2.7495 209.3177,2.7495 C209.9277,2.7495 210.4327,2.8625 210.8327,3.0875 C211.2327,3.3125 211.5477,3.6345 211.7777,4.0555 C211.9077,3.8745 212.0447,3.7055 212.1897,3.5445 C212.3347,3.3855 212.5047,3.2455 212.6997,3.1245 C212.8947,3.0045 213.1147,2.9135 213.3597,2.8475 C213.6047,2.7835 213.8927,2.7495 214.2227,2.7495 C215.2327,2.7495 215.9677,3.0525 216.4277,3.6575 C216.8877,4.2625 217.1177,5.0895 217.1177,6.1405 L217.1177,10.2945 C217.1177,10.4055 217.0777,10.4995 216.9977,10.5805 C216.9167,10.6605 216.8227,10.7005 216.7127,10.7005 L216.1577,10.7005 C216.0477,10.7005 215.9527,10.6605 215.8727,10.5805 C215.7917,10.4995 215.7527,10.4055 215.7527,10.2945 L215.7527,6.2905 C215.7527,5.5205 215.6027,4.9535 215.3027,4.5875 C215.0027,4.2225 214.5617,4.0405 213.9827,4.0405 C213.4527,4.0405 213.0247,4.2145 212.6997,4.5655 C212.3747,4.9155 212.2127,5.4555 212.2127,6.1855 L212.2127,10.2945 C212.2127,10.4055 212.1727,10.4995 212.0927,10.5805 C212.0127,10.6605 211.9177,10.7005 211.8077,10.7005 L211.2527,10.7005 C211.1417,10.7005 211.0477,10.6605 210.9677,10.5805 C210.8877,10.4995 210.8477,10.4055 210.8477,10.2945 L210.8477,6.2905 C210.8477,5.5205 210.6977,4.9535 210.3977,4.5875 C210.0977,4.2225 209.6577,4.0405 209.0777,4.0405 C208.5477,4.0405 208.1197,4.2145 207.7947,4.5655 C207.4697,4.9155 207.3077,5.4555 207.3077,6.1855 L207.3077,10.2945 C207.3077,10.4055 207.2667,10.4995 207.1877,10.5805 C207.1077,10.6605 207.0127,10.7005 206.9027,10.7005 L206.3477,10.7005 C206.2377,10.7005 206.1417,10.6605 206.0627,10.5805 C205.9827,10.4995 205.9427,10.4055 205.9427,10.2945 L205.9427,3.3055 C205.9427,3.1955 205.9827,3.1005 206.0627,3.0205 C206.1417,2.9405 206.2377,2.9005 206.3477,2.9005 L206.9027,2.9005 C207.0127,2.9005 207.1077,2.9405 207.1877,3.0205 C207.2667,3.1005 207.3077,3.1955 207.3077,3.3055 L207.3077,3.7705 Z" id="Fill-103"></path>
                    <path d="M219.2174,3.3057 C219.2174,3.1957 219.2574,3.1007 219.3374,3.0207 C219.4174,2.9407 219.5124,2.9007 219.6224,2.9007 L220.1774,2.9007 C220.2874,2.9007 220.3824,2.9407 220.4624,3.0207 C220.5424,3.1007 220.5824,3.1957 220.5824,3.3057 L220.5824,7.2657 C220.5824,8.0347 220.7554,8.6107 221.1004,8.9907 C221.4454,9.3697 221.9474,9.5607 222.6074,9.5607 C223.2374,9.5607 223.7324,9.3697 224.0924,8.9907 C224.4524,8.6107 224.6324,8.0347 224.6324,7.2657 L224.6324,3.3057 C224.6324,3.1957 224.6724,3.1007 224.7524,3.0207 C224.8324,2.9407 224.9274,2.9007 225.0374,2.9007 L225.5924,2.9007 C225.7024,2.9007 225.7974,2.9407 225.8774,3.0207 C225.9574,3.1007 225.9974,3.1957 225.9974,3.3057 L225.9974,10.2947 C225.9974,10.4057 225.9574,10.4997 225.8774,10.5797 C225.7974,10.6597 225.7024,10.7007 225.5924,10.7007 L225.0374,10.7007 C224.9274,10.7007 224.8324,10.6597 224.7524,10.5797 C224.6724,10.4997 224.6324,10.4057 224.6324,10.2947 L224.6324,9.8297 C224.4424,10.0797 224.1724,10.3127 223.8224,10.5277 C223.4724,10.7427 222.9924,10.8507 222.3824,10.8507 C221.9124,10.8507 221.4824,10.7727 221.0924,10.6177 C220.7024,10.4627 220.3674,10.2427 220.0874,9.9577 C219.8074,9.6727 219.5924,9.3237 219.4424,8.9077 C219.2924,8.4927 219.2174,8.0207 219.2174,7.4907 L219.2174,3.3057 Z" id="Fill-105"></path>
                    <path d="M235.1769,10.2949 C235.1769,10.4049 235.1369,10.4999 235.0569,10.5799 C234.9769,10.6599 234.8819,10.6999 234.7729,10.6999 L234.2169,10.6999 C234.1069,10.6999 234.0119,10.6599 233.9319,10.5799 C233.8519,10.4999 233.8129,10.4049 233.8129,10.2949 L233.8129,6.3349 C233.8129,5.5659 233.6269,4.9899 233.2569,4.6099 C232.8869,4.2309 232.3719,4.0399 231.7119,4.0399 C231.0819,4.0399 230.5739,4.2309 230.1899,4.6099 C229.8049,4.9899 229.6129,5.5659 229.6129,6.3349 L229.6129,10.2949 C229.6129,10.4049 229.5719,10.4999 229.4919,10.5799 C229.4119,10.6599 229.3169,10.6999 229.2069,10.6999 L228.6519,10.6999 C228.5419,10.6999 228.4469,10.6599 228.3669,10.5799 C228.2869,10.4999 228.2469,10.4049 228.2469,10.2949 L228.2469,3.3059 C228.2469,3.1949 228.2869,3.1009 228.3669,3.0209 C228.4469,2.9409 228.5419,2.8999 228.6519,2.8999 L229.2069,2.8999 C229.3169,2.8999 229.4119,2.9409 229.4919,3.0209 C229.5719,3.1009 229.6129,3.1949 229.6129,3.3059 L229.6129,3.7709 C229.8019,3.5209 230.0849,3.2879 230.4599,3.0719 C230.8349,2.8579 231.3269,2.7499 231.9379,2.7499 C232.4069,2.7499 232.8419,2.8279 233.2419,2.9829 C233.6419,3.1379 233.9849,3.3579 234.2699,3.6429 C234.5549,3.9279 234.7779,4.2799 234.9379,4.6999 C235.0969,5.1199 235.1769,5.5909 235.1769,6.1099 L235.1769,10.2949 Z" id="Fill-107"></path>
                    <path d="M238.7179,10.2949 C238.7179,10.4049 238.6779,10.4999 238.5979,10.5799 C238.5179,10.6599 238.4229,10.6999 238.3129,10.6999 L237.7579,10.6999 C237.6479,10.6999 237.5529,10.6599 237.4729,10.5799 C237.3929,10.4999 237.3529,10.4049 237.3529,10.2949 L237.3529,3.3059 C237.3529,3.1949 237.3929,3.1009 237.4729,3.0209 C237.5529,2.9409 237.6479,2.8999 237.7579,2.8999 L238.3129,2.8999 C238.4229,2.8999 238.5179,2.9409 238.5979,3.0209 C238.6779,3.1009 238.7179,3.1949 238.7179,3.3059 L238.7179,10.2949 Z M238.8669,1.3109 C238.8669,1.4199 238.8269,1.5159 238.7469,1.5949 C238.6669,1.6759 238.5719,1.7149 238.4629,1.7149 L237.6079,1.7149 C237.4969,1.7149 237.4029,1.6759 237.3219,1.5949 C237.2419,1.5159 237.2019,1.4199 237.2019,1.3109 L237.2019,0.4549 C237.2019,0.3459 237.2419,0.2499 237.3219,0.1699 C237.4029,0.0899 237.4969,0.0499 237.6079,0.0499 L238.4629,0.0499 C238.5719,0.0499 238.6669,0.0899 238.7469,0.1699 C238.8269,0.2499 238.8669,0.3459 238.8669,0.4549 L238.8669,1.3109 Z" id="Fill-109"></path>
                    <path d="M243.0069,8.0752 C243.0069,8.2652 243.0249,8.4422 243.0599,8.6072 C243.0939,8.7722 243.1569,8.9152 243.2469,9.0352 C243.3369,9.1552 243.4639,9.2482 243.6289,9.3122 C243.7939,9.3782 244.0069,9.4102 244.2669,9.4102 L245.0619,9.4102 C245.1719,9.4102 245.2669,9.4502 245.3469,9.5302 C245.4269,9.6102 245.4669,9.7052 245.4669,9.8152 L245.4669,10.2952 C245.4669,10.4052 245.4269,10.5002 245.3469,10.5802 C245.2669,10.6602 245.1719,10.7002 245.0619,10.7002 L244.1169,10.7002 C243.2469,10.7002 242.6169,10.4752 242.2269,10.0252 C241.8369,9.5752 241.6419,8.9252 241.6419,8.0752 L241.6419,4.1902 L240.5319,4.1902 C240.4219,4.1902 240.3269,4.1502 240.2469,4.0702 C240.1669,3.9902 240.1269,3.8952 240.1269,3.7852 L240.1269,3.3052 C240.1269,3.1952 240.1669,3.1002 240.2469,3.0202 C240.3269,2.9402 240.4219,2.9002 240.5319,2.9002 L241.6419,2.9002 L241.6419,0.4552 C241.6419,0.3462 241.6819,0.2502 241.7619,0.1702 C241.8419,0.0902 241.9369,0.0502 242.0469,0.0502 L242.6019,0.0502 C242.7119,0.0502 242.8069,0.0902 242.8869,0.1702 C242.9669,0.2502 243.0069,0.3462 243.0069,0.4552 L243.0069,2.9002 L244.9119,2.9002 C245.0219,2.9002 245.1159,2.9402 245.1969,3.0202 C245.2769,3.1002 245.3169,3.1952 245.3169,3.3052 L245.3169,3.7852 C245.3169,3.8952 245.2769,3.9902 245.1969,4.0702 C245.1159,4.1502 245.0219,4.1902 244.9119,4.1902 L243.0069,4.1902 L243.0069,8.0752 Z" id="Fill-111"></path>
                    <path d="M248.3321,10.2949 C248.3321,10.4049 248.2921,10.4999 248.2121,10.5799 C248.1321,10.6599 248.0371,10.6999 247.9271,10.6999 L247.3721,10.6999 C247.2621,10.6999 247.1671,10.6599 247.0871,10.5799 C247.0071,10.4999 246.9671,10.4049 246.9671,10.2949 L246.9671,3.3059 C246.9671,3.1949 247.0071,3.1009 247.0871,3.0209 C247.1671,2.9409 247.2621,2.8999 247.3721,2.8999 L247.9271,2.8999 C248.0371,2.8999 248.1321,2.9409 248.2121,3.0209 C248.2921,3.1009 248.3321,3.1949 248.3321,3.3059 L248.3321,10.2949 Z M248.4811,1.3109 C248.4811,1.4199 248.4411,1.5159 248.3611,1.5949 C248.2811,1.6759 248.1861,1.7149 248.0771,1.7149 L247.2221,1.7149 C247.1111,1.7149 247.0171,1.6759 246.9361,1.5949 C246.8561,1.5159 246.8161,1.4199 246.8161,1.3109 L246.8161,0.4549 C246.8161,0.3459 246.8561,0.2499 246.9361,0.1699 C247.0171,0.0899 247.1111,0.0499 247.2221,0.0499 L248.0771,0.0499 C248.1861,0.0499 248.2811,0.0899 248.3611,0.1699 C248.4411,0.2499 248.4811,0.3459 248.4811,0.4549 L248.4811,1.3109 Z" id="Fill-113"></path>
                    <path d="M251.5567,6.0947 L255.7727,6.0947 L255.7727,6.0497 C255.7727,5.4407 255.5787,4.9527 255.1947,4.5877 C254.8097,4.2227 254.2967,4.0397 253.6577,4.0397 C253.3677,4.0397 253.0967,4.0877 252.8467,4.1827 C252.5967,4.2787 252.3767,4.4127 252.1877,4.5877 C251.9967,4.7627 251.8467,4.9757 251.7377,5.2257 C251.6267,5.4757 251.5667,5.7497 251.5567,6.0497 L251.5567,6.0947 Z M250.2217,6.0497 C250.2617,5.5907 250.3717,5.1597 250.5517,4.7597 C250.7327,4.3607 250.9667,4.0097 251.2567,3.7097 C251.5467,3.4097 251.8947,3.1757 252.2997,3.0047 C252.7037,2.8347 253.1577,2.7497 253.6577,2.7497 C254.1977,2.7497 254.6797,2.8377 255.1047,3.0127 C255.5297,3.1877 255.8917,3.4407 256.1927,3.7707 C256.4927,4.1007 256.7217,4.4997 256.8817,4.9697 C257.0417,5.4407 257.1217,5.9657 257.1217,6.5447 L257.1217,6.9497 C257.1217,7.0607 257.0817,7.1557 257.0017,7.2357 C256.9217,7.3157 256.8267,7.3557 256.7167,7.3557 L251.5567,7.3557 L251.5567,7.4457 C251.5777,8.1247 251.7847,8.6477 252.1797,9.0127 C252.5747,9.3777 253.0667,9.5607 253.6577,9.5607 C254.2067,9.5607 254.6187,9.4827 254.8947,9.3277 C255.1697,9.1727 255.3917,8.9997 255.5627,8.8107 C255.6417,8.7307 255.7117,8.6747 255.7727,8.6457 C255.8317,8.6157 255.9217,8.6007 256.0417,8.6007 L256.4927,8.6007 C256.6017,8.6007 256.7017,8.6407 256.7917,8.7197 C256.8817,8.8007 256.9167,8.8957 256.8977,9.0047 C256.8677,9.1857 256.7827,9.3827 256.6417,9.5977 C256.5017,9.8127 256.2997,10.0127 256.0347,10.1977 C255.7697,10.3827 255.4397,10.5377 255.0447,10.6627 C254.6497,10.7877 254.1867,10.8507 253.6577,10.8507 C253.1577,10.8507 252.7067,10.7627 252.3067,10.5877 C251.9077,10.4127 251.5597,10.1727 251.2647,9.8677 C250.9697,9.5627 250.7327,9.2027 250.5517,8.7877 C250.3717,8.3727 250.2617,7.9197 250.2217,7.4307 C250.1717,6.9707 250.1717,6.5107 250.2217,6.0497 L250.2217,6.0497 Z" id="Fill-115"></path>
                    <path d="M263.377,8.54 C263.377,8.351 263.324,8.192 263.219,8.067 C263.114,7.942 262.956,7.835 262.746,7.745 C262.536,7.655 262.269,7.57 261.944,7.49 C261.619,7.41 261.241,7.325 260.812,7.235 C260.002,7.065 259.434,6.783 259.109,6.388 C258.784,5.993 258.621,5.53 258.621,5 C258.621,4.7 258.682,4.415 258.802,4.145 C258.922,3.875 259.102,3.635 259.342,3.425 C259.581,3.215 259.884,3.05 260.249,2.931 C260.614,2.811 261.041,2.75 261.531,2.75 C262.022,2.75 262.449,2.806 262.815,2.915 C263.179,3.025 263.486,3.165 263.736,3.335 C263.986,3.505 264.177,3.687 264.307,3.883 C264.437,4.078 264.507,4.266 264.517,4.445 C264.526,4.556 264.489,4.65 264.404,4.73 C264.319,4.811 264.222,4.851 264.111,4.851 L263.616,4.851 C263.557,4.851 263.483,4.838 263.399,4.812 C263.314,4.788 263.236,4.73 263.167,4.641 C263.036,4.471 262.844,4.328 262.589,4.213 C262.334,4.098 261.981,4.04 261.531,4.04 C261.071,4.04 260.699,4.125 260.414,4.295 C260.129,4.466 259.986,4.7 259.986,5 C259.986,5.19 260.026,5.343 260.106,5.458 C260.187,5.573 260.316,5.673 260.496,5.758 C260.677,5.843 260.914,5.92 261.209,5.99 C261.504,6.061 261.871,6.145 262.312,6.245 C262.772,6.346 263.156,6.473 263.467,6.628 C263.776,6.783 264.026,6.958 264.217,7.152 C264.406,7.348 264.541,7.562 264.621,7.798 C264.701,8.033 264.741,8.28 264.741,8.54 C264.741,8.84 264.669,9.13 264.524,9.41 C264.379,9.69 264.172,9.936 263.901,10.145 C263.632,10.355 263.304,10.525 262.919,10.655 C262.534,10.785 262.097,10.851 261.606,10.851 C261.116,10.851 260.682,10.79 260.302,10.67 C259.921,10.55 259.597,10.402 259.326,10.227 C259.057,10.053 258.849,9.862 258.704,9.657 C258.559,9.453 258.481,9.26 258.472,9.08 C258.462,8.971 258.496,8.875 258.576,8.795 C258.656,8.715 258.757,8.675 258.877,8.675 L259.417,8.675 C259.477,8.675 259.546,8.683 259.627,8.697 C259.706,8.713 259.781,8.77 259.852,8.87 C260.012,9.09 260.231,9.26 260.512,9.38 C260.791,9.5 261.156,9.561 261.606,9.561 C261.826,9.561 262.044,9.535 262.259,9.485 C262.474,9.436 262.664,9.365 262.829,9.275 C262.994,9.186 263.126,9.078 263.227,8.953 C263.326,8.828 263.377,8.69 263.377,8.54" id="Fill-117"></path>
                </g>
            </g>
        </g>
    </g>
</svg>