<?xml version="1.0" encoding="UTF-8"?>
<svg width="33px" height="75px" viewBox="0 0 33 75" version="1.1" xmlns="http://www.w3.org/2000/svg" xmlns:xlink="http://www.w3.org/1999/xlink">
    <!-- Generator: Sketch 54 (76480) - https://sketchapp.com -->
    <title>Group</title>
    <desc>Created with Sketch.</desc>
    <g id="PL" stroke="none" stroke-width="1" fill="none" fill-rule="evenodd">
        <g id="Icons" transform="translate(-484.000000, -4260.000000)">
            <g id="Group" transform="translate(484.000000, 4260.000000)">
                <path d="M16,41 C20.3372046,41 27.6181333,38.0904224 30.5,34.5 C33.4896056,30.7753492 32,26.264794 32,20.5 C32,9.17816263 24.836556,0 16,0 C7.163444,0 -1.3500312e-13,9.17816263 -1.3500312e-13,20.5 C-1.3500312e-13,27.2429523 0.0780325315,32.7638338 4,36.5 C6.66326044,39.0370898 12.4262361,41 16,41 Z" id="Oval" fill="#BE4865"></path>
                <path d="M5.53722301,19.0026775 C4.82092566,20.6187748 4.82092566,21.9521081 5.53722301,23.0026775 C6.25352035,24.053247 8.75352035,25.8865803 13.037223,28.5026775 L13.037223,47.4909588 L13.037223,69.0026775 C12.7490595,72.788698 13.0823929,74.6220313 14.037223,74.5026775 C15.4694682,74.3236469 17.037223,75.0026775 17.037223,68.5026775 C17.037223,64.7948648 16.0723122,38.580822 17.037223,36.3972088 C18.537223,33.0026775 23.537223,28.5026775 25.537223,26.0026775 C25.7836843,25.6946009 25.6632219,22.1493824 24.037223,23.0026775 C23.3144212,23.381991 20.9810879,25.881991 17.037223,30.5026775 C17.2985461,18.3980019 17.2985461,12.2313353 17.037223,12.0026775 C16.8447268,11.8342434 15.8930878,7.58208093 14.537223,12.0026775 C14.2658751,12.8873674 13.557835,17.5544975 13.037223,24.0026775 C12.9831992,24.6718038 10.3216784,21.6360918 7.03722301,19.0026775 C6.53910822,18.6032985 6.03910822,18.6032985 5.53722301,19.0026775 Z" id="Path-5" fill="#38486C"></path>
            </g>
        </g>
    </g>
</svg>