<?xml version="1.0" encoding="UTF-8"?>
<svg width="33px" height="75px" viewBox="0 0 33 75" version="1.1" xmlns="http://www.w3.org/2000/svg" xmlns:xlink="http://www.w3.org/1999/xlink">
    <!-- Generator: Sketch 54 (76480) - https://sketchapp.com -->
    <title>Group 8</title>
    <desc>Created with Sketch.</desc>
    <g id="PL" stroke="none" stroke-width="1" fill="none" fill-rule="evenodd">
        <g id="Icons" transform="translate(-581.000000, -4260.000000)">
            <g id="Group-8" transform="translate(581.000000, 4260.000000)">
                <path d="M16,41 C20.3372046,41 27.6181333,38.0904224 30.5,34.5 C33.4896056,30.7753492 32,26.264794 32,20.5 C32,9.17816263 24.836556,0 16,0 C7.163444,0 -1.3500312e-13,9.17816263 -1.3500312e-13,20.5 C-1.3500312e-13,27.2429523 0.0780325315,32.7638338 4,36.5 C6.66326044,39.0370898 12.4262361,41 16,41 Z" id="Oval" fill="#D0EFEB"></path>
                <path d="M5.57444602,19 C4.85814867,20.6160972 4.85814867,21.9494306 5.57444602,23 C6.29074336,24.0505694 8.79074336,25.8839028 13.074446,28.5 L13.074446,47.4882812 L13.074446,69 C12.7862826,72.7860204 13.1196159,74.6193538 14.074446,74.5 C15.5066912,74.3209694 17.074446,75 17.074446,68.5 C17.074446,64.7921873 16.1095352,38.5781445 17.074446,36.3945312 C18.574446,33 23.574446,28.5 25.574446,26 C25.8209073,25.6919234 25.7004449,22.1467049 24.074446,23 C23.3516443,23.3793134 21.0183109,25.8793134 17.074446,30.5 C17.3357691,18.3953244 17.3357691,12.2286577 17.074446,12 C16.8819499,11.8315659 15.9303108,7.5794034 14.574446,12 C14.3030981,12.8846899 13.595058,17.55182 13.074446,24 C13.0204222,24.6691262 10.3589014,21.6334143 7.07444602,19 C6.57633123,18.600621 6.07633123,18.600621 5.57444602,19 Z" id="Path-5" fill="#38486C"></path>
            </g>
        </g>
    </g>
</svg>